<?xml version="1.0" standalone="no"?>
<!DOCTYPE svg PUBLIC "-//W3C//DTD SVG 20010904//EN"
 "http://www.w3.org/TR/2001/REC-SVG-20010904/DTD/svg10.dtd">
<svg version="1.0" xmlns="http://www.w3.org/2000/svg"
 width="596.000000pt" height="384.000000pt" viewBox="0 0 596.000000 384.000000"
 preserveAspectRatio="xMidYMid meet">
<metadata>
Created by potrace 1.16, written by Peter Selinger 2001-2019
</metadata>
<g transform="translate(0.000000,384.000000) scale(0.100000,-0.100000)"
fill="#000000" stroke="none">
<path d="M2620 1945 l0 -705 165 0 165 0 0 255 0 255 295 0 295 0 0 130 0 130
-295 0 -295 0 0 190 0 190 370 0 370 0 0 130 0 130 -535 0 -535 0 0 -705z"/>
<path d="M3836 2638 c4 -7 113 -161 242 -342 130 -181 235 -334 235 -340 0
-10 -72 -110 -435 -608 l-78 -108 189 0 188 0 164 240 c90 132 166 240 169
240 3 0 80 -108 170 -240 l165 -239 188 -1 c103 0 187 2 187 5 0 3 -115 164
-255 359 -140 195 -255 359 -255 365 0 6 108 160 240 343 l241 333 -168 3
c-92 1 -172 1 -178 -2 -6 -2 -80 -103 -165 -225 -84 -121 -156 -221 -159 -221
-3 1 -77 102 -164 225 l-159 225 -184 0 c-145 0 -184 -3 -178 -12z"/>
<path d="M1230 2501 l0 -141 224 0 c123 0 248 -5 277 -10 129 -24 245 -115
306 -238 26 -52 28 -67 28 -167 0 -104 -2 -114 -32 -176 -41 -83 -121 -159
-210 -202 l-68 -32 -262 -3 -263 -3 0 -140 0 -139 291 0 c331 0 383 7 514 70
244 118 395 360 395 632 -1 305 -191 563 -485 659 -66 22 -89 23 -392 27
l-323 3 0 -140z"/>
<path d="M1025 2316 c-139 -34 -240 -131 -279 -265 -60 -205 66 -425 274 -477
172 -44 357 40 433 197 110 224 -7 481 -248 543 -69 19 -111 19 -180 2z"/>
<path d="M1443 2283 c-18 -2 -33 -7 -33 -9 0 -3 15 -24 34 -47 142 -174 140
-407 -6 -573 -17 -19 -27 -38 -23 -42 14 -14 150 -6 203 12 70 24 153 100 189
174 24 50 28 69 28 147 0 78 -4 98 -28 146 -64 132 -216 211 -364 192z"/>
</g>
</svg>
