<svg id="Ebene_1" data-name="Ebene 1" xmlns="http://www.w3.org/2000/svg" viewBox="0 0 114 114"><defs><style>.cls-1{fill:#f5516c;}.cls-2{fill:#072440;}</style></defs><title>210829_dfx_symbol</title><path class="cls-1" d="M52.49679,56.367A21.4984,21.4984,0,1,1,30.99873,34.86852,21.49789,21.49789,0,0,1,52.49679,56.367Z"/><path class="cls-2" d="M66.16948,17.59353h-28.612V33.333H61.526a23.03376,23.03376,0,1,1,0,46.06751H37.55749V95.14H65.28436A39.21552,39.21552,0,0,0,104.5,55.92438,38.3307,38.3307,0,0,0,66.16948,17.59353Z"/><path class="cls-1" d="M52.497,37.17194a19.19019,19.19019,0,0,0-5.72736.87008,24.12132,24.12132,0,0,1,0,36.64954A19.19669,19.19669,0,1,0,52.497,37.17194Z"/></svg>