<svg id="Ebene_1" data-name="Ebene 1" xmlns="http://www.w3.org/2000/svg" viewBox="0 0 999.49 837.92"><defs><style>.cls-1{fill:#f9d2e5;}.cls-12,.cls-2{fill:none;stroke-miterlimit:10;}.cls-2{stroke:#f9d2e5;stroke-width:4.28px;}.cls-3{font-size:40.06px;font-family:Raleway-Medium, Raleway;font-weight:500;}.cls-13,.cls-3{fill:#ff00af;}.cls-4{letter-spacing:0em;}.cls-5{letter-spacing:0em;}.cls-6{letter-spacing:0em;}.cls-7{letter-spacing:-0.01em;}.cls-8{letter-spacing:0em;}.cls-9{letter-spacing:0em;}.cls-10,.cls-11{fill:#000;}.cls-11{letter-spacing:-0.02em;}.cls-12{stroke:#000;stroke-width:3.24px;}</style></defs><rect class="cls-1" x="682.06" width="24.84" height="24.84"/><rect class="cls-1" x="846.21" y="86.13" width="41.5" height="41.5"/><rect class="cls-1" x="901.75" y="315.07" width="41.5" height="41.5"/><rect class="cls-1" x="632.98" y="442.92" width="24.84" height="24.84"/><rect class="cls-1" x="427.86" y="603.51" width="24.84" height="24.84"/><rect class="cls-1" x="832.82" y="678.13" width="24.84" height="24.84"/><rect class="cls-1" x="230.43" y="473.94" width="24.84" height="24.84"/><rect class="cls-1" x="481.74" y="28.14" width="41.5" height="41.5"/><rect class="cls-1" x="271.68" y="204.15" width="41.5" height="41.5"/><rect class="cls-1" x="396.23" y="353.7" width="49.56" height="49.56"/><rect class="cls-1" x="682.24" y="595.79" width="49.56" height="49.56"/><rect class="cls-1" x="615.35" y="88.13" width="49.56" height="49.56"/><line class="cls-2" x1="878.37" y1="115.74" x2="920.42" y2="318.64"/><line class="cls-2" x1="920.6" y1="346.77" x2="849.49" y2="681.38"/><line class="cls-2" x1="285.39" y1="236.51" x2="244.66" y2="476.11"/><line class="cls-2" x1="793.05" y1="231.12" x2="858.61" y2="120.12"/><text class="cls-3" transform="translate(327.45 776.85)">De<tspan class="cls-4" x="52.36" y="0">c</tspan><tspan class="cls-5" x="74.36" y="0">e</tspan><tspan class="cls-6" x="98.03" y="0">n</tspan><tspan x="121.47" y="0">trali</tspan><tspan class="cls-7" x="192.98" y="0">z</tspan><tspan class="cls-8" x="212.33" y="0">ed Finan</tspan><tspan class="cls-9" x="373.39" y="0">c</tspan><tspan x="395.38" y="0">e </tspan><tspan class="cls-10" x="429.19" y="0">E</tspan><tspan class="cls-11" x="453.43" y="0">x</tspan><tspan class="cls-10" x="473.02" y="0">change</tspan></text><polyline class="cls-12" points="960.29 821.27 960.29 834.86 996.61 810.16 960.29 785.45 960.29 799.04 333.75 799.04 307.02 799.04 307.02 812.63 270.7 787.92 307.02 763.22 307.02 776.81"/><line class="cls-2" x1="652.44" y1="447.42" x2="779.07" y2="250.65"/><line class="cls-2" x1="488.91" y1="57.04" x2="304.2" y2="213.68"/><line class="cls-2" x1="418.99" y1="397.99" x2="438.23" y2="605.23"/><line class="cls-2" x1="835.5" y1="684.92" x2="727.25" y2="633.41"/><line class="cls-2" x1="400.88" y1="389.54" x2="255.27" y2="488.73"/><line class="cls-2" x1="625.03" y1="130.38" x2="437.91" y2="360.57"/><line class="cls-2" x1="634.69" y1="450.91" x2="440.93" y2="387.53"/><line class="cls-2" x1="848.22" y1="107.1" x2="663.67" y2="114.08"/><line class="cls-2" x1="622.92" y1="102.31" x2="519.7" y2="57.04"/><line class="cls-2" x1="655.52" y1="95.07" x2="691.74" y2="21.73"/><line class="cls-2" x1="405.61" y1="363.08" x2="303.3" y2="235.41"/><line class="cls-2" x1="699.08" y1="601.62" x2="650.34" y2="463.62"/><line class="cls-2" x1="780.28" y1="236.37" x2="655.52" y2="130.38"/><line class="cls-2" x1="449.41" y1="618.2" x2="834.32" y2="690.86"/><line class="cls-2" x1="519.7" y1="43.46" x2="687.21" y2="14.48"/><line class="cls-2" x1="703.51" y1="17.2" x2="852.83" y2="97.9"/><line class="cls-2" x1="430.54" y1="609.66" x2="247.28" y2="496.39"/><path class="cls-13" d="M0,188.32v667c184.19,0,333.51-149.32,333.51-333.51S184.19,188.32,0,188.32Zm73.52,582.1V273.23c107.33,31.7,185.66,131,185.66,248.6S180.85,738.72,73.52,770.42Z" transform="translate(0 -107.57)"/><rect class="cls-13" x="330.88" y="108.68" width="73.52" height="611.17"/><rect class="cls-13" x="358.14" y="377.5" width="196.78" height="73.52"/><rect class="cls-13" x="358.14" y="108.68" width="236.87" height="73.52"/><polygon points="939.79 108.68 640.91 719.85 559.06 719.85 858.5 108.68 939.79 108.68"/><polygon points="559.06 108.68 857.94 719.85 939.79 719.85 640.36 108.68 559.06 108.68"/><line class="cls-2" x1="787.64" y1="247.82" x2="844.15" y2="682.91"/><polygon points="735.57 469.61 857.94 719.85 939.79 719.85 795.64 425.63 735.57 469.61"/><rect class="cls-1" x="772.8" y="227.23" width="24.84" height="24.84"/></svg>