<svg id="Ebene_1" data-name="Ebene 1" xmlns="http://www.w3.org/2000/svg" viewBox="0 0 79.99 67.06"><defs><style>.cls-1{fill:#f9d2e5;}.cls-12,.cls-2{fill:none;stroke-miterlimit:10;}.cls-2{stroke:#f9d2e5;stroke-width:0.34px;}.cls-3{font-size:3.21px;font-family:Raleway-Medium, Raleway;font-weight:500;}.cls-13,.cls-3{fill:#ff00af;}.cls-4{letter-spacing:-0.01em;}.cls-5{letter-spacing:0em;}.cls-6{letter-spacing:-0.01em;}.cls-7,.cls-9{letter-spacing:0em;}.cls-8{letter-spacing:0em;}.cls-10,.cls-11,.cls-9{fill:#000;}.cls-10{letter-spacing:-0.02em;}.cls-12{stroke:#000;stroke-width:0.26px;}</style></defs><rect class="cls-1" x="54.59" width="1.99" height="1.99"/><rect class="cls-1" x="67.73" y="6.89" width="3.32" height="3.32"/><rect class="cls-1" x="72.17" y="25.22" width="3.32" height="3.32"/><rect class="cls-1" x="50.66" y="35.45" width="1.99" height="1.99"/><rect class="cls-1" x="34.24" y="48.3" width="1.99" height="1.99"/><rect class="cls-1" x="66.65" y="54.27" width="1.99" height="1.99"/><rect class="cls-1" x="18.44" y="37.93" width="1.99" height="1.99"/><rect class="cls-1" x="38.56" y="2.25" width="3.32" height="3.32"/><rect class="cls-1" x="21.74" y="16.34" width="3.32" height="3.32"/><rect class="cls-1" x="31.71" y="28.31" width="3.97" height="3.97"/><rect class="cls-1" x="54.6" y="47.68" width="3.97" height="3.97"/><rect class="cls-1" x="49.25" y="7.05" width="3.97" height="3.97"/><line class="cls-2" x1="70.3" y1="9.26" x2="73.67" y2="25.5"/><line class="cls-2" x1="73.68" y1="27.75" x2="67.99" y2="54.53"/><line class="cls-2" x1="22.84" y1="18.93" x2="19.58" y2="38.1"/><line class="cls-2" x1="63.47" y1="18.5" x2="68.72" y2="9.61"/><text class="cls-3" transform="translate(26.21 62.17)">De<tspan class="cls-4" x="4.19" y="0">c</tspan><tspan x="5.95" y="0">e</tspan><tspan class="cls-4" x="7.85" y="0">n</tspan><tspan class="cls-5" x="9.72" y="0">trali</tspan><tspan class="cls-6" x="15.44" y="0">z</tspan><tspan class="cls-7" x="16.99" y="0">ed Finan</tspan><tspan class="cls-8" x="29.88" y="0">c</tspan><tspan x="31.64" y="0">e </tspan><tspan class="cls-9" x="34.35" y="0">E</tspan><tspan class="cls-10" x="36.29" y="0">x</tspan><tspan class="cls-11" x="37.86" y="0">change</tspan></text><polyline class="cls-12" points="76.86 65.73 76.86 66.82 79.76 64.84 76.86 62.86 76.86 63.95 26.71 63.95 24.57 63.95 24.57 65.04 21.67 63.06 24.57 61.08 24.57 62.17"/><line class="cls-2" x1="52.22" y1="35.81" x2="62.35" y2="20.06"/><line class="cls-2" x1="39.13" y1="4.57" x2="24.35" y2="17.1"/><line class="cls-2" x1="33.53" y1="31.85" x2="35.07" y2="48.44"/><line class="cls-2" x1="66.87" y1="54.82" x2="58.21" y2="50.69"/><line class="cls-2" x1="32.08" y1="31.18" x2="20.43" y2="39.12"/><line class="cls-2" x1="50.02" y1="10.44" x2="35.05" y2="28.86"/><line class="cls-2" x1="50.8" y1="36.09" x2="35.29" y2="31.02"/><line class="cls-2" x1="67.89" y1="8.57" x2="53.12" y2="9.13"/><line class="cls-2" x1="49.86" y1="8.19" x2="41.59" y2="4.57"/><line class="cls-2" x1="52.46" y1="7.61" x2="55.36" y2="1.74"/><line class="cls-2" x1="32.46" y1="29.06" x2="24.27" y2="18.84"/><line class="cls-2" x1="55.95" y1="48.15" x2="52.05" y2="37.11"/><line class="cls-2" x1="62.45" y1="18.92" x2="52.46" y2="10.44"/><line class="cls-2" x1="35.97" y1="49.48" x2="66.77" y2="55.29"/><line class="cls-2" x1="41.59" y1="3.48" x2="55" y2="1.16"/><line class="cls-2" x1="56.3" y1="1.38" x2="68.26" y2="7.84"/><line class="cls-2" x1="34.46" y1="48.79" x2="19.79" y2="39.73"/><path class="cls-13" d="M0,13.05V66.44A26.69,26.69,0,0,0,26.69,39.75,26.69,26.69,0,0,0,0,13.05ZM5.88,59.64V19.85a20.75,20.75,0,0,1,14.86,19.9A20.74,20.74,0,0,1,5.88,59.64Z" transform="translate(0 -6.59)"/><rect class="cls-13" x="26.48" y="8.7" width="5.88" height="48.91"/><rect class="cls-13" x="28.66" y="30.21" width="15.75" height="5.88"/><rect class="cls-13" x="28.66" y="8.7" width="18.96" height="5.88"/><polygon points="75.22 8.7 51.3 57.61 44.74 57.61 68.71 8.7 75.22 8.7"/><polygon points="44.74 8.7 68.67 57.61 75.22 57.61 51.25 8.7 44.74 8.7"/><line class="cls-2" x1="63.04" y1="19.83" x2="67.56" y2="54.66"/><polygon points="58.87 37.59 68.67 57.61 75.22 57.61 63.68 34.06 58.87 37.59"/><rect class="cls-1" x="61.85" y="18.19" width="1.99" height="1.99"/></svg>