<svg id="Ebene_1" data-name="Ebene 1" xmlns="http://www.w3.org/2000/svg" viewBox="0 0 477.02 399.91"><defs><style>.cls-1{fill:#f9d2e5;}.cls-12,.cls-2{fill:none;stroke-miterlimit:10;}.cls-2{stroke:#f9d2e5;stroke-width:2.04px;}.cls-3{font-size:19.12px;font-family:Raleway-Medium, Raleway;font-weight:500;}.cls-13,.cls-3{fill:#ff00af;}.cls-4{letter-spacing:0em;}.cls-5{letter-spacing:0em;}.cls-6{letter-spacing:-0.01em;}.cls-7{letter-spacing:0em;}.cls-8{letter-spacing:-0.01em;}.cls-9{letter-spacing:0em;}.cls-10,.cls-11,.cls-9{fill:#000;}.cls-10{letter-spacing:-0.02em;}.cls-12{stroke:#000;stroke-width:1.55px;}</style></defs><rect class="cls-1" x="325.52" width="11.86" height="11.86"/><rect class="cls-1" x="403.87" y="41.11" width="19.81" height="19.81"/><rect class="cls-1" x="430.37" y="150.37" width="19.81" height="19.81"/><rect class="cls-1" x="302.1" y="211.39" width="11.86" height="11.86"/><rect class="cls-1" x="204.2" y="288.04" width="11.86" height="11.86"/><rect class="cls-1" x="397.47" y="323.65" width="11.86" height="11.86"/><rect class="cls-1" x="109.98" y="226.19" width="11.86" height="11.86"/><rect class="cls-1" x="229.92" y="13.43" width="19.81" height="19.81"/><rect class="cls-1" x="129.66" y="97.43" width="19.81" height="19.81"/><rect class="cls-1" x="189.11" y="168.81" width="23.65" height="23.65"/><rect class="cls-1" x="325.61" y="284.35" width="23.65" height="23.65"/><rect class="cls-1" x="293.68" y="42.06" width="23.65" height="23.65"/><line class="cls-2" x1="419.21" y1="55.24" x2="439.28" y2="152.08"/><line class="cls-2" x1="439.37" y1="165.5" x2="405.43" y2="325.2"/><line class="cls-2" x1="136.21" y1="112.88" x2="116.77" y2="227.23"/><line class="cls-2" x1="378.49" y1="110.31" x2="409.78" y2="57.33"/><text class="cls-3" transform="translate(156.28 370.76)">De<tspan class="cls-4" x="24.99" y="0">c</tspan><tspan class="cls-5" x="35.49" y="0">e</tspan><tspan class="cls-4" x="46.79" y="0">n</tspan><tspan x="57.97" y="0">trali</tspan><tspan class="cls-6" x="92.1" y="0">z</tspan><tspan class="cls-7" x="101.34" y="0">ed Finan</tspan><tspan class="cls-8" x="178.2" y="0">c</tspan><tspan x="188.7" y="0">e </tspan><tspan class="cls-9" x="204.84" y="0">E</tspan><tspan class="cls-10" x="216.41" y="0">x</tspan><tspan class="cls-11" x="225.76" y="0">change</tspan></text><polyline class="cls-12" points="458.31 391.96 458.31 398.45 475.64 386.66 458.31 374.87 458.31 381.35 159.28 381.35 146.53 381.35 146.53 387.84 129.2 376.05 146.53 364.26 146.53 370.74"/><line class="cls-2" x1="311.39" y1="213.54" x2="371.82" y2="119.63"/><line class="cls-2" x1="233.34" y1="27.22" x2="145.18" y2="101.98"/><line class="cls-2" x1="199.97" y1="189.95" x2="209.15" y2="288.85"/><line class="cls-2" x1="398.75" y1="326.89" x2="347.09" y2="302.3"/><line class="cls-2" x1="191.33" y1="185.91" x2="121.83" y2="233.26"/><line class="cls-2" x1="298.31" y1="62.23" x2="209" y2="172.09"/><line class="cls-2" x1="302.92" y1="215.2" x2="210.44" y2="184.95"/><line class="cls-2" x1="404.83" y1="51.11" x2="316.74" y2="54.45"/><line class="cls-2" x1="297.3" y1="48.83" x2="248.03" y2="27.22"/><line class="cls-2" x1="312.85" y1="45.37" x2="330.14" y2="10.37"/><line class="cls-2" x1="193.58" y1="173.29" x2="144.75" y2="112.35"/><line class="cls-2" x1="333.65" y1="287.13" x2="310.38" y2="221.27"/><line class="cls-2" x1="372.4" y1="112.81" x2="312.85" y2="62.23"/><line class="cls-2" x1="214.49" y1="295.05" x2="398.19" y2="329.72"/><line class="cls-2" x1="248.03" y1="20.74" x2="327.98" y2="6.91"/><line class="cls-2" x1="335.76" y1="8.21" x2="407.02" y2="46.72"/><line class="cls-2" x1="205.48" y1="290.97" x2="118.02" y2="236.91"/><path class="cls-13" d="M62.18,38.54V356.88a159.17,159.17,0,0,0,0-318.34ZM97.26,316.35V79.07a123.72,123.72,0,0,1,0,237.28Z" transform="translate(-62.18)"/><rect class="cls-13" x="157.92" y="51.87" width="35.09" height="291.69"/><rect class="cls-13" x="170.93" y="180.17" width="93.91" height="35.09"/><rect class="cls-13" x="170.93" y="51.87" width="113.05" height="35.09"/><polygon points="448.53 51.87 305.88 343.56 266.82 343.56 409.73 51.87 448.53 51.87"/><polygon points="266.82 51.87 409.46 343.56 448.53 343.56 305.62 51.87 266.82 51.87"/><line class="cls-2" x1="375.91" y1="118.28" x2="402.88" y2="325.93"/><polygon points="351.06 224.13 409.46 343.56 448.53 343.56 379.73 203.14 351.06 224.13"/><rect class="cls-1" x="368.83" y="108.45" width="11.86" height="11.86"/></svg>