<svg id="Ebene_1" data-name="Ebene 1" xmlns="http://www.w3.org/2000/svg" viewBox="0 0 1430.7 1199.44"><defs><style>.cls-1{fill:#f9d2e5;}.cls-2,.cls-9{fill:none;stroke-miterlimit:10;}.cls-2{stroke:#f9d2e5;stroke-width:6.13px;}.cls-3{font-size:57.35px;font-family:Raleway-Medium, Raleway;font-weight:500;}.cls-10,.cls-3{fill:#ff00af;}.cls-4{letter-spacing:0em;}.cls-5{letter-spacing:0em;}.cls-6{letter-spacing:-0.01em;}.cls-7,.cls-8{fill:#000;}.cls-8{letter-spacing:-0.02em;}.cls-9{stroke:#000;stroke-width:4.64px;}</style></defs><rect class="cls-1" x="976.33" width="35.56" height="35.56"/><rect class="cls-1" x="1211.3" y="123.3" width="59.41" height="59.41"/><rect class="cls-1" x="1290.8" y="451" width="59.41" height="59.41"/><rect class="cls-1" x="906.07" y="634.01" width="35.56" height="35.56"/><rect class="cls-1" x="612.46" y="863.89" width="35.56" height="35.56"/><rect class="cls-1" x="1192.13" y="970.71" width="35.56" height="35.56"/><rect class="cls-1" x="329.84" y="678.41" width="35.56" height="35.56"/><rect class="cls-1" x="689.59" y="40.28" width="59.41" height="59.41"/><rect class="cls-1" x="388.89" y="292.22" width="59.41" height="59.41"/><rect class="cls-1" x="567.17" y="506.3" width="70.94" height="70.94"/><rect class="cls-1" x="976.58" y="852.84" width="70.94" height="70.94"/><rect class="cls-1" x="880.83" y="126.15" width="70.94" height="70.94"/><line class="cls-2" x1="1257.33" y1="165.68" x2="1317.52" y2="456.12"/><line class="cls-2" x1="1317.78" y1="496.38" x2="1215.98" y2="975.35"/><line class="cls-2" x1="408.52" y1="338.55" x2="350.21" y2="681.51"/><line class="cls-2" x1="1135.2" y1="330.84" x2="1229.04" y2="171.95"/><text class="cls-3" transform="translate(468.72 1112.02)">De<tspan class="cls-4" x="74.95" y="0">c</tspan><tspan x="106.44" y="0">e</tspan><tspan class="cls-5" x="140.33" y="0">n</tspan><tspan x="173.88" y="0">trali</tspan><tspan class="cls-6" x="276.24" y="0">z</tspan><tspan x="303.94" y="0">ed Finan</tspan><tspan class="cls-4" x="534.48" y="0">c</tspan><tspan x="565.96" y="0">e </tspan><tspan class="cls-7" x="614.36" y="0">E</tspan><tspan class="cls-8" x="649.06" y="0">x</tspan><tspan class="cls-7" x="677.1" y="0">change</tspan></text><polyline class="cls-9" points="1374.59 1175.6 1374.59 1195.05 1426.58 1159.69 1374.59 1124.33 1374.59 1143.78 477.74 1143.78 439.48 1143.78 439.48 1163.22 387.49 1127.86 439.48 1092.5 439.48 1111.95"/><line class="cls-2" x1="933.92" y1="640.46" x2="1115.18" y2="358.79"/><line class="cls-2" x1="699.85" y1="81.65" x2="435.45" y2="305.87"/><line class="cls-2" x1="599.76" y1="569.7" x2="627.29" y2="866.34"/><line class="cls-2" x1="1195.97" y1="980.42" x2="1041.01" y2="906.69"/><line class="cls-2" x1="573.84" y1="557.61" x2="365.4" y2="699.59"/><line class="cls-2" x1="894.7" y1="186.63" x2="626.84" y2="516.13"/><line class="cls-2" x1="908.52" y1="645.45" x2="631.16" y2="554.72"/><line class="cls-2" x1="1214.18" y1="153.3" x2="950" y2="163.3"/><line class="cls-2" x1="891.67" y1="146.45" x2="743.92" y2="81.65"/><line class="cls-2" x1="938.33" y1="136.09" x2="990.18" y2="31.1"/><line class="cls-2" x1="580.61" y1="519.73" x2="434.15" y2="336.98"/><line class="cls-2" x1="1000.69" y1="861.18" x2="930.92" y2="663.64"/><line class="cls-2" x1="1116.92" y1="338.35" x2="938.33" y2="186.63"/><line class="cls-2" x1="643.31" y1="884.92" x2="1194.27" y2="988.93"/><line class="cls-2" x1="743.92" y1="62.21" x2="983.7" y2="20.73"/><line class="cls-2" x1="1007.02" y1="24.62" x2="1220.77" y2="140.13"/><line class="cls-2" x1="616.29" y1="872.69" x2="353.97" y2="710.55"/><path class="cls-10" d="M246.5,115.59v954.8c263.65,0,477.39-213.75,477.39-477.4S510.15,115.59,246.5,115.59ZM351.73,948.83V237.14C505.37,282.51,617.5,424.64,617.5,593S505.37,903.46,351.73,948.83Z" transform="translate(-246.5)"/><rect class="cls-10" x="473.64" y="155.57" width="105.23" height="874.85"/><rect class="cls-10" x="512.65" y="540.37" width="281.67" height="105.23"/><rect class="cls-10" x="512.65" y="155.57" width="339.07" height="105.23"/><polygon points="1345.25 155.56 917.43 1030.41 800.26 1030.41 1228.89 155.56 1345.25 155.56"/><polygon points="800.26 155.56 1228.09 1030.41 1345.25 1030.41 916.63 155.56 800.26 155.56"/><line class="cls-2" x1="1127.46" y1="354.74" x2="1208.35" y2="977.54"/><polygon points="1052.92 672.22 1228.09 1030.41 1345.25 1030.41 1138.91 609.26 1052.92 672.22"/><rect class="cls-1" x="1106.21" y="325.27" width="35.56" height="35.56"/></svg>