<svg width="202" height="60" viewBox="0 0 202 60" fill="none" xmlns="http://www.w3.org/2000/svg">
<g clip-path="url(#clip0)">
<path d="M194.179 59.8506H7.61195C3.50747 59.8506 0.149261 56.4924 0.149261 52.3879V7.6118C0.149261 3.50732 3.50747 0.149109 7.61195 0.149109H194.179C198.284 0.149109 201.642 3.50732 201.642 7.6118V52.3879C201.642 56.4924 198.284 59.8506 194.179 59.8506Z" fill="#072440"/>
<path d="M70.9231 15.4376C70.9231 16.6881 70.5528 17.6839 69.8111 18.4267C68.9687 19.31 67.8708 19.752 66.5211 19.752C65.2286 19.752 64.1296 19.3042 63.2259 18.4075C62.3205 17.5114 61.8687 16.4002 61.8687 15.0744C61.8687 13.7479 62.3205 12.6373 63.2259 11.7406C64.1296 10.8445 65.2286 10.3961 66.5211 10.3961C67.1625 10.3961 67.7765 10.5215 68.3595 10.7717C68.9425 11.0224 69.4101 11.3552 69.7599 11.7721L68.9728 12.5597C68.3799 11.8514 67.5636 11.4975 66.5211 11.4975C65.5784 11.4975 64.7634 11.8287 64.0754 12.4915C63.3874 13.1551 63.0435 14.0155 63.0435 15.0744C63.0435 16.1332 63.3874 16.9936 64.0754 17.6572C64.7634 18.32 65.5784 18.6512 66.5211 18.6512C67.5211 18.6512 68.3548 18.3182 69.0223 17.6514C69.4556 17.2169 69.7062 16.613 69.7732 15.8375H66.5211V14.7618H70.8607C70.9026 14.9957 70.9231 15.2202 70.9231 15.4376Z" fill="white"/>
<path d="M70.923 15.4377H70.7737C70.7725 16.6596 70.4157 17.6088 69.7055 18.3213L69.7039 18.3225L69.7033 18.3237C68.8876 19.1765 67.8392 19.601 66.521 19.6028C65.263 19.601 64.21 19.1719 63.3307 18.302C62.4534 17.4304 62.0195 16.3664 62.0179 15.0744C62.0195 13.7819 62.4534 12.7185 63.3307 11.8474C64.21 10.977 65.263 10.5473 66.521 10.5455C67.1431 10.5455 67.7355 10.6668 68.3004 10.9088C68.866 11.1525 69.3127 11.4719 69.6455 11.8685L69.7598 11.7722L69.6543 11.6667L68.8671 12.4549L68.9727 12.5598L69.0876 12.4643C68.4672 11.7208 67.5963 11.3461 66.521 11.3483C65.5434 11.3471 64.6834 11.6964 63.9721 12.3844C63.2539 13.0747 62.893 13.9835 62.8942 15.0744C62.893 16.1653 63.2539 17.0741 63.9721 17.7644C64.6834 18.4525 65.5434 18.8017 66.521 18.8005C67.5542 18.8023 68.4346 18.4519 69.1277 17.757C69.5907 17.2928 69.8531 16.6498 69.9219 15.8504L69.9358 15.6883H66.6703V14.9111H70.8606V14.7619L70.7136 14.7882C70.7545 15.0144 70.7737 15.2295 70.7737 15.4377H70.923H71.0722C71.0722 15.2108 71.0512 14.9777 71.0074 14.7352L70.9854 14.6126H66.3718V15.8376V15.9868H69.7731V15.8376L69.6245 15.8247C69.5586 16.5758 69.3195 17.1413 68.9167 17.5459C68.2754 18.1849 67.4883 18.5002 66.521 18.502C65.6133 18.5008 64.8431 18.1883 64.1791 17.5499C63.5215 16.9138 63.1943 16.1017 63.1927 15.0744C63.1943 14.0471 63.5215 13.235 64.1791 12.5989C64.8431 11.9605 65.6133 11.648 66.521 11.6468C67.5303 11.6492 68.2924 11.9826 68.8585 12.6561L68.9634 12.7808L69.8654 11.8777L69.9621 11.781L69.874 11.6765C69.5073 11.2394 69.0188 10.8923 68.4182 10.6347C67.8166 10.3764 67.1816 10.247 66.521 10.247C65.1942 10.2458 64.0491 10.7122 63.1203 11.6352C62.188 12.5564 61.7182 13.7143 61.7194 15.0744C61.7182 16.434 62.188 17.5925 63.1209 18.5143C64.0491 19.4367 65.1942 19.9025 66.521 19.9013C67.9028 19.9025 69.0491 19.4435 69.9189 18.5299L69.811 18.4268L69.9166 18.5323C70.6897 17.7598 71.0733 16.7162 71.0722 15.4377H70.923Z" fill="white"/>
<path d="M77.8026 11.6969H73.7244V14.5363H77.4021V15.6124H73.7244V18.4518H77.8026V19.5519H72.5747V10.5967H77.8026V11.6969Z" fill="white"/>
<path d="M77.8025 11.6971V11.5478H73.575V14.6857H77.2528V15.4629L73.575 15.4633V18.6012H77.6533V19.4029H72.7238V10.7462H77.6533V11.6971H77.8025V11.5478V11.6971H77.9518V10.5969V10.4477H72.4253V19.7014H77.9518V18.452V18.3027H73.8735V15.7618H77.5513V14.5365V14.3872H73.8735V11.8463H77.9518V11.6971H77.8025Z" fill="white"/>
<path d="M82.655 19.5519H81.5036V11.6969H79.0024V10.5967H85.1562V11.6969H82.655V19.5519Z" fill="white"/>
<path d="M82.6551 19.5521V19.4029H81.6529V11.5478H79.1517V10.7462H85.0071V11.5478H82.5059V19.5521H82.6551V19.4029V19.5521H82.8044V11.8463H85.3056V10.5969V10.4477H78.8532V11.6971V11.8463H81.3544V19.7014H82.6551H82.8044V19.5521H82.6551Z" fill="white"/>
<path d="M89.6089 19.5519V10.5967H90.7592V19.5519H89.6089Z" fill="white"/>
<path d="M89.6088 19.5521H89.758V10.7462H90.6098V19.4029H89.6088V19.5521H89.758H89.6088V19.7014H90.7591H90.9083V10.4477H89.6088H89.4595V19.7014H89.6088V19.5521Z" fill="white"/>
<path d="M95.8635 19.5519H94.712V11.6969H92.211V10.5967H98.3647V11.6969H95.8635V19.5519Z" fill="white"/>
<path d="M95.8634 19.5521V19.4029H94.8612V11.5478H92.3601V10.7462H98.2153V11.5478H95.7141V19.5521H95.8634V19.4029V19.5521H96.0127V11.8463H98.5139V10.5969V10.4477H92.0616V11.6971V11.8463H94.5627V19.7014H95.8634H96.0127V19.5521H95.8634Z" fill="white"/>
<path d="M104.297 17.645C104.96 18.316 105.771 18.6512 106.73 18.6512C107.69 18.6512 108.501 18.316 109.163 17.645C109.826 16.9739 110.159 16.1161 110.159 15.0744C110.159 14.0326 109.826 13.1748 109.163 12.5038C108.501 11.8327 107.69 11.4975 106.73 11.4975C105.771 11.4975 104.96 11.8327 104.297 12.5038C103.636 13.1748 103.303 14.0326 103.303 15.0744C103.303 16.1161 103.636 16.9739 104.297 17.645ZM110.014 18.3947C109.134 19.3 108.039 19.752 106.73 19.752C105.421 19.752 104.327 19.3 103.448 18.3947C102.567 17.4903 102.129 16.3833 102.129 15.0744C102.129 13.7654 102.567 12.6582 103.448 11.7541C104.327 10.8485 105.421 10.3961 106.73 10.3961C108.032 10.3961 109.124 10.8509 110.008 11.7599C110.891 12.6688 111.333 13.7736 111.333 15.0744C111.333 16.3833 110.893 17.4903 110.014 18.3947Z" fill="white"/>
<path d="M104.297 17.645L104.191 17.7499C104.879 18.4479 105.736 18.8023 106.73 18.8005C107.724 18.8023 108.583 18.4479 109.269 17.7499C109.961 17.0514 110.309 16.1477 110.308 15.0744C110.309 14.0011 109.961 13.0974 109.269 12.3989C108.583 11.701 107.724 11.3465 106.73 11.3483C105.736 11.3465 104.879 11.701 104.191 12.3989C103.501 13.0974 103.152 14.0011 103.154 15.0744C103.152 16.1477 103.501 17.0514 104.191 17.7499L104.297 17.645L104.404 17.5401C103.77 16.8958 103.454 16.0853 103.453 15.0744C103.454 14.0635 103.77 13.2531 104.404 12.6088C105.042 11.9646 105.806 11.6486 106.73 11.6468C107.654 11.6486 108.419 11.9646 109.057 12.6088C109.691 13.2531 110.008 14.0635 110.009 15.0744C110.008 16.0853 109.691 16.8958 109.057 17.5401C108.419 18.1843 107.654 18.5002 106.73 18.502C105.806 18.5002 105.042 18.1843 104.404 17.5401L104.297 17.645ZM110.014 18.3947L109.907 18.291C109.051 19.1679 108.005 19.601 106.73 19.6028C105.455 19.601 104.409 19.1679 103.555 18.291L103.551 18.2864L103.555 18.291C102.701 17.4111 102.279 16.3501 102.278 15.0744C102.279 13.7988 102.701 12.7377 103.555 11.8579C104.409 10.981 105.455 10.5473 106.73 10.5455C107.997 10.5473 109.041 10.9828 109.901 11.8643C110.758 12.7482 111.182 13.8076 111.184 15.0744C111.182 16.3501 110.76 17.4111 109.907 18.291L110.014 18.3947L110.121 18.4985C111.026 17.5692 111.484 16.4165 111.483 15.0744C111.484 13.7399 111.024 12.5896 110.115 11.6562C109.206 10.7192 108.067 10.2453 106.73 10.247C105.387 10.2453 104.244 10.717 103.341 11.6504V11.6498C102.434 12.5796 101.978 13.7323 101.979 15.0744C101.978 16.4165 102.434 17.5692 103.341 18.4991L103.345 18.5032L103.341 18.4985C104.244 19.4319 105.387 19.9025 106.73 19.9013C108.073 19.9025 109.216 19.4319 110.121 18.4985L110.014 18.3947Z" fill="white"/>
<path d="M112.948 19.5519V10.5967H114.349L118.701 17.5633H118.751L118.701 15.8375V10.5967H119.853V19.5519H118.651L114.098 12.2478H114.049L114.098 13.9742V19.5519H112.948Z" fill="white"/>
<path d="M112.948 19.5521H113.098V10.7462H114.266L118.618 17.7127H118.751H118.904L118.85 15.8354V10.7462H119.703V19.4029H118.734L114.181 12.0987H114.048H113.895L113.949 13.9768V19.4029H112.948V19.5521H113.098H112.948V19.7014H114.098H114.247V13.972L114.198 12.2439L114.048 12.248V12.3972H114.098V12.248L113.971 12.3274L118.569 19.7014H119.852H120.002V10.4477H118.701H118.552V15.8394L118.601 17.5675L118.751 17.5635V17.4142H118.701V17.5635L118.828 17.4842L114.431 10.4477H112.948H112.799V19.7014H112.948V19.5521Z" fill="white"/>
<path d="M159.755 44.9252H162.54V26.2666H159.755V44.9252ZM184.84 32.9878L181.648 41.0772H181.552L178.239 32.9878H175.239L180.208 44.2943L177.375 50.5834H180.281L187.937 32.9878H184.84ZM169.046 42.8059C168.133 42.8059 166.861 42.3499 166.861 41.2213C166.861 39.7811 168.446 39.229 169.813 39.229C171.039 39.229 171.613 39.4931 172.358 39.8535C172.142 41.5816 170.654 42.8059 169.046 42.8059ZM169.382 32.5796C167.366 32.5796 165.278 33.4681 164.413 35.4365L166.885 36.4684C167.413 35.4365 168.397 35.1001 169.43 35.1001C170.87 35.1001 172.334 35.9647 172.358 37.501V37.6928C171.854 37.4047 170.775 36.9728 169.454 36.9728C166.79 36.9728 164.076 38.4366 164.076 41.1734C164.076 43.6699 166.261 45.2784 168.709 45.2784C170.582 45.2784 171.613 44.4383 172.263 43.4543H172.358V44.8943H175.046V37.7405C175.046 34.4284 172.575 32.5796 169.382 32.5796ZM152.17 35.2592H148.209V28.8635H152.17C154.252 28.8635 155.434 30.5874 155.434 32.0613C155.434 33.5072 154.252 35.2592 152.17 35.2592ZM152.099 26.2666H145.425V44.9252H148.209V37.856H152.099C155.185 37.856 158.219 35.6213 158.219 32.0613C158.219 28.5014 155.185 26.2666 152.099 26.2666ZM115.709 42.8093C113.785 42.8093 112.174 41.1984 112.174 38.9859C112.174 36.7501 113.785 35.1147 115.709 35.1147C117.609 35.1147 119.099 36.7501 119.099 38.9859C119.099 41.1984 117.609 42.8093 115.709 42.8093ZM118.907 34.0326H118.811C118.186 33.2874 116.983 32.6141 115.468 32.6141C112.294 32.6141 109.385 35.4032 109.385 38.9859C109.385 42.5447 112.294 45.3099 115.468 45.3099C116.983 45.3099 118.186 44.6365 118.811 43.8675H118.907V44.7811C118.907 47.2101 117.609 48.5084 115.517 48.5084C113.809 48.5084 112.751 47.2817 112.318 46.248L109.89 47.2578C110.587 48.941 112.439 51.009 115.517 51.009C118.787 51.009 121.552 49.085 121.552 44.3963V32.9989H118.907V34.0326ZM123.475 44.9252H126.265V26.266H123.475V44.9252ZM130.377 38.7696C130.304 36.3168 132.276 35.0668 133.695 35.0668C134.802 35.0668 135.739 35.6195 136.051 36.4137L130.377 38.7696ZM139.033 36.6538C138.505 35.2347 136.893 32.6141 133.598 32.6141C130.328 32.6141 127.611 35.1869 127.611 38.962C127.611 42.5208 130.304 45.3099 133.911 45.3099C136.821 45.3099 138.505 43.5305 139.202 42.4968L137.037 41.0538C136.316 42.112 135.33 42.8093 133.911 42.8093C132.492 42.8093 131.483 42.1599 130.833 40.8859L139.321 37.375L139.033 36.6538ZM71.4087 34.5619V37.2549H77.8527C77.6603 38.7696 77.1554 39.8756 76.3859 40.6452C75.4484 41.5832 73.9815 42.6169 71.4087 42.6169C67.4411 42.6169 64.3394 39.419 64.3394 35.4516C64.3394 31.4841 67.4411 28.2857 71.4087 28.2857C73.5488 28.2857 75.1114 29.1275 76.2657 30.2096L78.1653 28.3102C76.5544 26.771 74.4141 25.5928 71.4087 25.5928C65.9742 25.5928 61.4057 30.0172 61.4057 35.4516C61.4057 40.8859 65.9742 45.3099 71.4087 45.3099C74.3424 45.3099 76.5544 44.3486 78.2854 42.5447C80.0648 40.7653 80.6181 38.2647 80.6181 36.2452C80.6181 35.6195 80.5702 35.0429 80.4735 34.5619H71.4087ZM87.9444 42.8093C86.0203 42.8093 84.3611 41.2223 84.3611 38.962C84.3611 36.6777 86.0203 35.1147 87.9444 35.1147C89.8676 35.1147 91.5269 36.6777 91.5269 38.962C91.5269 41.2223 89.8676 42.8093 87.9444 42.8093ZM87.9444 32.6141C84.4333 32.6141 81.5718 35.2831 81.5718 38.962C81.5718 42.6169 84.4333 45.3099 87.9444 45.3099C91.4547 45.3099 94.3162 42.6169 94.3162 38.962C94.3162 35.2831 91.4547 32.6141 87.9444 32.6141ZM101.845 42.8093C99.9214 42.8093 98.262 41.2223 98.262 38.962C98.262 36.6777 99.9214 35.1147 101.845 35.1147C103.768 35.1147 105.427 36.6777 105.427 38.962C105.427 41.2223 103.768 42.8093 101.845 42.8093ZM101.845 32.6141C98.3338 32.6141 95.4729 35.2831 95.4729 38.962C95.4729 42.6169 98.3338 45.3099 101.845 45.3099C105.355 45.3099 108.217 42.6169 108.217 38.962C108.217 35.2831 105.355 32.6141 101.845 32.6141Z" fill="white"/>
<path d="M15.8357 48.4914L15.7248 48.3853C15.2904 47.9257 15.034 47.2122 15.034 46.2881V46.5056V13.4966C15.034 13.4937 15.034 13.4914 15.034 13.489C15.034 13.4919 15.034 13.4942 15.034 13.4972V13.7153C15.034 12.7147 15.333 11.961 15.8339 11.509L34.3261 30.0008L15.8357 48.4914ZM15.034 13.4872C15.034 13.405 15.0363 13.3251 15.0404 13.2465C15.0363 13.3245 15.034 13.405 15.034 13.4872ZM15.0404 13.2429C15.0404 13.2419 15.0404 13.2407 15.0409 13.2395C15.0404 13.2407 15.0404 13.2419 15.0404 13.2429ZM15.0409 13.2325C15.0409 13.2319 15.0409 13.2313 15.0409 13.2307C15.0409 13.2313 15.0409 13.2319 15.0409 13.2325Z" fill="url(#paint0_linear)"/>
<path d="M40.4891 36.3856L40.6297 36.3057L47.9326 32.1563C48.6288 31.7605 49.0929 31.2806 49.3243 30.7729C49.0934 31.2806 48.6293 31.7611 47.9326 32.1569L40.6297 36.3063L40.4891 36.3856ZM40.4909 36.1669L34.326 30.0009L40.4903 23.836L47.9326 28.0641C48.8776 28.6011 49.4082 29.2932 49.4969 30.0003C49.4969 30.0009 49.4969 30.0021 49.4969 30.0032C49.4082 30.7087 48.8776 31.4014 47.9326 31.9382L40.4909 36.1669Z" fill="url(#paint1_linear)"/>
<path d="M17.1538 49.1955C16.6372 49.1955 16.1865 49.0276 15.835 48.7104L15.8356 48.7098C16.1871 49.027 16.6384 49.1955 17.155 49.1955C17.1997 49.1955 17.2453 49.1943 17.2914 49.1921C17.2447 49.1943 17.1985 49.1955 17.1538 49.1955ZM17.1544 48.9768C16.6378 48.9774 16.1871 48.8089 15.8356 48.4918V48.4913L34.326 30.0007L40.4909 36.1667L18.8265 48.4761C18.2271 48.8159 17.6591 48.9768 17.1544 48.9768ZM15.8303 48.7064C15.7977 48.6767 15.7656 48.6452 15.7341 48.6125L15.8303 48.7064Z" fill="url(#paint2_linear)"/>
<path d="M34.3259 30.001L15.8336 11.5092C16.1851 11.1926 16.6353 11.0247 17.1512 11.0247C17.6573 11.0247 18.2257 11.1862 18.8263 11.5267L40.4902 23.8361L34.3259 30.001ZM40.6296 23.6968L18.8263 11.3088C18.2257 10.9682 17.6573 10.8067 17.1512 10.8067C17.1488 10.8067 17.1472 10.8067 17.1448 10.8067C17.1478 10.8067 17.15 10.8067 17.1536 10.8067C17.6585 10.8067 18.2263 10.9676 18.8263 11.3082L40.6296 23.6968Z" fill="url(#paint3_linear)"/>
<path d="M17.2913 49.192C17.7606 49.1652 18.2801 49.0037 18.8264 48.6941L40.4891 36.3853L18.8264 48.6941C18.2806 49.0043 17.7606 49.1652 17.2913 49.192ZM15.8349 48.7104L15.8303 48.7063C15.8319 48.7075 15.8337 48.7092 15.8349 48.7104ZM15.734 48.6125L15.7246 48.6032V48.6026C15.7282 48.606 15.731 48.6095 15.734 48.6125Z" fill="black"/>
<path d="M40.489 36.3856L40.6296 36.3057L40.489 36.3856Z" fill="url(#paint4_linear)"/>
<path d="M17.1549 49.1955C16.6383 49.1955 16.187 49.027 15.8355 48.7098L15.8349 48.7104C15.8337 48.7092 15.8319 48.7076 15.8303 48.7064L15.734 48.6125C15.731 48.6095 15.7282 48.6061 15.7246 48.6027L15.8355 48.4918C16.187 48.8089 16.6377 48.9774 17.1543 48.9768C17.6591 48.9768 18.227 48.8159 18.8264 48.4761L40.4909 36.1667L40.6297 36.3055L40.4891 36.3853L18.8264 48.6942C18.2801 49.0037 17.7606 49.1652 17.2913 49.1921C17.2452 49.1943 17.1997 49.1955 17.1549 49.1955Z" fill="url(#paint5_linear)"/>
<path d="M15.7248 48.6036C15.2904 48.1441 15.034 47.4305 15.034 46.5065V46.5059C15.034 47.4305 15.2904 48.1435 15.7248 48.603V48.6036Z" fill="black"/>
<path d="M15.7248 48.6031C15.2904 48.1436 15.034 47.4306 15.034 46.506V46.2885C15.034 47.2125 15.2904 47.9261 15.7248 48.3857L15.8357 48.4918L15.7248 48.6031Z" fill="url(#paint6_linear)"/>
<path d="M15.7246 48.6031L15.8355 48.4918V48.4922L15.7246 48.6031Z" fill="url(#paint7_linear)"/>
<path d="M49.3243 30.7731C49.439 30.5212 49.4968 30.2624 49.4968 30.0034C49.4968 30.003 49.4968 30.0024 49.4968 30.0024C49.4968 30.2618 49.439 30.5206 49.3243 30.7731Z" fill="black"/>
<path d="M40.6296 36.3055L40.4908 36.1667L47.9325 31.938C48.8776 31.4011 49.4082 30.7084 49.4968 30.0029C49.4968 30.2619 49.4391 30.5207 49.3243 30.7726C49.0928 31.2804 48.6288 31.7602 47.9325 32.1561L40.6296 36.3055Z" fill="url(#paint8_linear)"/>
<path d="M49.4968 30.001V30.0004C49.4962 29.2197 48.9744 28.4391 47.9325 27.8467L40.6296 23.6973H40.629L40.6296 23.6968L47.9325 27.8461C48.9756 28.4385 49.498 29.2203 49.4968 30.001Z" fill="#404040"/>
<path d="M49.4969 30.0005C49.4082 29.2933 48.8776 28.6013 47.9325 28.0642L40.4903 23.8362L40.6291 23.6974H40.6297L47.9325 27.8468C48.9745 28.4392 49.4963 29.2198 49.4969 30.0005Z" fill="url(#paint9_linear)"/>
<path d="M15.034 13.4892C15.034 13.4886 15.034 13.488 15.034 13.4874C15.034 13.488 15.034 13.4886 15.034 13.4892ZM15.0404 13.2466C15.0404 13.2454 15.0404 13.2442 15.0404 13.243C15.0404 13.2442 15.0404 13.2454 15.0404 13.2466ZM15.0409 13.2396C15.0409 13.2372 15.0409 13.235 15.0409 13.2326C15.0409 13.235 15.0409 13.2372 15.0409 13.2396ZM15.0409 13.2308C15.1273 11.6975 15.961 10.8118 17.1404 10.8066C16.6291 10.8096 16.1837 10.9775 15.8351 11.2917V11.2911L15.8309 11.2953C15.7942 11.3284 15.7592 11.3635 15.7248 11.3996C15.333 11.8141 15.0858 12.435 15.0409 13.2308Z" fill="#404040"/>
<path d="M15.034 13.7157V13.4976C15.034 13.4947 15.034 13.4923 15.034 13.4894C15.034 13.4888 15.034 13.4882 15.034 13.4876C15.034 13.4054 15.0363 13.325 15.0404 13.2469C15.0404 13.2457 15.0404 13.2445 15.0404 13.2433C15.0404 13.2423 15.0404 13.2411 15.0409 13.2399C15.0409 13.2375 15.0409 13.2353 15.0409 13.2329C15.0409 13.2323 15.0409 13.2317 15.0409 13.2311C15.0858 12.4353 15.333 11.8144 15.7248 11.3999L15.8339 11.5094C15.333 11.9614 15.034 12.7151 15.034 13.7157ZM15.8309 11.2955L15.8351 11.2914C15.8339 11.2932 15.8321 11.2944 15.8309 11.2955Z" fill="url(#paint10_linear)"/>
<path d="M40.4903 23.8361L18.8264 11.5267C18.2258 11.1863 17.6574 11.0248 17.1513 11.0248C16.6354 11.0248 16.1852 11.1927 15.8337 11.5093L15.7246 11.3997C15.7591 11.3636 15.794 11.3285 15.8307 11.2954C15.8319 11.2942 15.8337 11.293 15.8349 11.2918C16.1836 10.9776 16.6289 10.8097 17.1403 10.8067C17.1415 10.8067 17.1431 10.8067 17.1449 10.8067C17.1473 10.8067 17.1489 10.8067 17.1513 10.8067C17.6574 10.8067 18.2258 10.9682 18.8264 11.3088L40.6297 23.6969L40.6291 23.6973L40.4903 23.8361Z" fill="url(#paint11_linear)"/>
</g>
<defs>
<linearGradient id="paint0_linear" x1="32.6864" y1="13.1484" x2="7.63789" y2="38.1969" gradientUnits="userSpaceOnUse">
<stop stop-color="#00A0FF"/>
<stop offset="0.00657445" stop-color="#00A1FF"/>
<stop offset="0.2601" stop-color="#00BEFF"/>
<stop offset="0.5122" stop-color="#00D2FF"/>
<stop offset="0.7604" stop-color="#00DFFF"/>
<stop offset="1" stop-color="#00E3FF"/>
</linearGradient>
<linearGradient id="paint1_linear" x1="50.6484" y1="30.0018" x2="14.5335" y2="30.0018" gradientUnits="userSpaceOnUse">
<stop stop-color="#FFE000"/>
<stop offset="0.4087" stop-color="#FFBD00"/>
<stop offset="0.7754" stop-color="#FFA500"/>
<stop offset="1" stop-color="#FF9C00"/>
</linearGradient>
<linearGradient id="paint2_linear" x1="37.2045" y1="33.4265" x2="3.2369" y2="67.3941" gradientUnits="userSpaceOnUse">
<stop stop-color="#FF3A44"/>
<stop offset="1" stop-color="#C31162"/>
</linearGradient>
<linearGradient id="paint3_linear" x1="11.0406" y1="0.412051" x2="26.2085" y2="15.58" gradientUnits="userSpaceOnUse">
<stop stop-color="#32A071"/>
<stop offset="0.0685" stop-color="#2DA771"/>
<stop offset="0.4762" stop-color="#15CF74"/>
<stop offset="0.8009" stop-color="#06E775"/>
<stop offset="1" stop-color="#00F076"/>
</linearGradient>
<linearGradient id="paint4_linear" x1="50.6487" y1="30.0023" x2="14.5324" y2="30.0023" gradientUnits="userSpaceOnUse">
<stop stop-color="#CCB300"/>
<stop offset="0.4087" stop-color="#CC9700"/>
<stop offset="0.7754" stop-color="#CC8400"/>
<stop offset="1" stop-color="#CC7D00"/>
</linearGradient>
<linearGradient id="paint5_linear" x1="37.2045" y1="33.4265" x2="3.23686" y2="67.3942" gradientUnits="userSpaceOnUse">
<stop stop-color="#CC2E36"/>
<stop offset="1" stop-color="#9C0E4E"/>
</linearGradient>
<linearGradient id="paint6_linear" x1="32.6865" y1="13.1488" x2="7.63793" y2="38.1974" gradientUnits="userSpaceOnUse">
<stop stop-color="#008DE0"/>
<stop offset="0.00657445" stop-color="#008DE0"/>
<stop offset="0.2601" stop-color="#00A7E0"/>
<stop offset="0.5122" stop-color="#00B8E0"/>
<stop offset="0.7604" stop-color="#00C4E0"/>
<stop offset="1" stop-color="#00C7E0"/>
</linearGradient>
<linearGradient id="paint7_linear" x1="37.2044" y1="33.4275" x2="3.23791" y2="67.395" gradientUnits="userSpaceOnUse">
<stop stop-color="#E0333C"/>
<stop offset="1" stop-color="#AB0F56"/>
</linearGradient>
<linearGradient id="paint8_linear" x1="50.6483" y1="30.0016" x2="14.5334" y2="30.0016" gradientUnits="userSpaceOnUse">
<stop stop-color="#E0C500"/>
<stop offset="0.4087" stop-color="#E0A600"/>
<stop offset="0.7754" stop-color="#E09100"/>
<stop offset="1" stop-color="#E08900"/>
</linearGradient>
<linearGradient id="paint9_linear" x1="50.6484" y1="30.002" x2="14.5335" y2="30.002" gradientUnits="userSpaceOnUse">
<stop stop-color="#FFE840"/>
<stop offset="0.4087" stop-color="#FFCE40"/>
<stop offset="0.7754" stop-color="#FFBC40"/>
<stop offset="1" stop-color="#FFB540"/>
</linearGradient>
<linearGradient id="paint10_linear" x1="32.6863" y1="13.1488" x2="7.63778" y2="38.1972" gradientUnits="userSpaceOnUse">
<stop stop-color="#40B8FF"/>
<stop offset="0.00657445" stop-color="#40B9FF"/>
<stop offset="0.2601" stop-color="#40CEFF"/>
<stop offset="0.5122" stop-color="#40DDFF"/>
<stop offset="0.7604" stop-color="#40E7FF"/>
<stop offset="1" stop-color="#40EAFF"/>
</linearGradient>
<linearGradient id="paint11_linear" x1="11.0407" y1="0.412114" x2="26.2086" y2="15.58" gradientUnits="userSpaceOnUse">
<stop stop-color="#65B895"/>
<stop offset="0.0685" stop-color="#62BD95"/>
<stop offset="0.4762" stop-color="#50DB97"/>
<stop offset="0.8009" stop-color="#44ED98"/>
<stop offset="1" stop-color="#40F498"/>
</linearGradient>
<clipPath id="clip0">
<rect width="201.94" height="60" fill="white"/>
</clipPath>
</defs>
</svg>
