<svg width="180" height="60" viewBox="0 0 180 60" fill="none" xmlns="http://www.w3.org/2000/svg">
<path d="M12.6671 58.6875C12.2101 58.6875 11.7641 58.6816 11.3107 58.6714C10.3714 58.6592 9.43425 58.5774 8.507 58.4268C7.64239 58.2779 6.80481 58.0009 6.02189 57.6049C5.24616 57.2123 4.53862 56.6974 3.92639 56.08C3.3053 55.47 2.78822 54.7624 2.39563 53.9853C1.99871 53.2032 1.72402 52.3648 1.58113 51.4995C1.42681 50.5697 1.34332 49.6295 1.33138 48.687C1.32187 48.3707 1.30942 47.3174 1.30942 47.3174V12.6665C1.30942 12.6665 1.32268 11.6294 1.33145 11.3247C1.34289 10.3837 1.4259 9.44498 1.57975 8.51659C1.72291 7.64888 1.99781 6.80812 2.39494 6.02344C2.78609 5.24692 3.3003 4.53879 3.91765 3.92652C4.5343 3.30843 5.2441 2.79091 6.02116 2.39281C6.80228 1.99814 7.63827 1.7231 8.50114 1.57691C9.43143 1.42475 10.3718 1.34249 11.3144 1.33082L12.6679 1.3125H166.821L168.19 1.33155C169.124 1.34265 170.056 1.42417 170.978 1.57543C171.85 1.72346 172.694 2.00042 173.484 2.39721C175.041 3.19948 176.308 4.46874 177.107 6.02711C177.498 6.80637 177.768 7.64026 177.91 8.50048C178.065 9.43649 178.152 10.3826 178.17 11.3313C178.175 11.7561 178.175 12.2124 178.175 12.6665C178.187 13.229 178.187 13.7644 178.187 14.3042V45.6972C178.187 46.2421 178.187 46.7739 178.175 47.31C178.175 47.7978 178.175 48.2446 178.169 48.7046C178.151 49.6363 178.066 50.5655 177.912 51.4848C177.773 52.3564 177.499 53.2013 177.102 53.9898C176.707 54.7584 176.193 55.4599 175.579 56.0683C174.966 56.689 174.258 57.2069 173.48 57.6021C172.692 58.0011 171.849 58.2791 170.978 58.4268C170.051 58.5782 169.114 58.66 168.174 58.6714C167.735 58.6816 167.275 58.6875 166.828 58.6875L165.202 58.6905L12.6671 58.6875Z" fill="#072440"/>
<path d="M37.1532 30.4502C37.1694 29.1982 37.5019 27.9706 38.12 26.8817C38.738 25.7927 39.6214 24.8778 40.6881 24.2221C40.0105 23.2543 39.1166 22.4579 38.0773 21.8961C37.0381 21.3343 35.8821 21.0225 34.7013 20.9855C32.1825 20.7212 29.7406 22.4928 28.457 22.4928C27.1486 22.4928 25.1723 21.0118 23.0442 21.0556C21.6677 21.1001 20.3262 21.5003 19.1504 22.2174C17.9746 22.9345 17.0046 23.9439 16.3349 25.1474C13.4339 30.17 15.5977 37.5516 18.3767 41.6115C19.767 43.5995 21.3919 45.8202 23.5181 45.7415C25.5987 45.6552 26.3758 44.4147 28.8872 44.4147C31.3753 44.4147 32.1044 45.7415 34.2737 45.6914C36.5063 45.6551 37.9129 43.6945 39.2545 41.6877C40.2534 40.2711 41.0221 38.7056 41.5321 37.0489C40.235 36.5003 39.1282 35.5821 38.3495 34.4086C37.5708 33.2352 37.1548 31.8585 37.1532 30.4502Z" fill="white"/>
<path d="M33.0557 18.3165C34.273 16.8552 34.8727 14.977 34.7275 13.0806C32.8678 13.276 31.1499 14.1648 29.9161 15.57C29.3129 16.2565 28.8509 17.0552 28.5566 17.9203C28.2622 18.7855 28.1412 19.7002 28.2006 20.6121C29.1308 20.6217 30.051 20.4201 30.892 20.0224C31.733 19.6248 32.4728 19.0415 33.0557 18.3165Z" fill="white"/>
<path d="M63.4532 40.7095H56.3531L54.6481 45.7442H51.6407L58.3658 27.1172H61.4903L68.2154 45.7442H65.1568L63.4532 40.7095ZM57.0885 38.3862H62.7165L59.9421 30.2153H59.8644L57.0885 38.3862Z" fill="white"/>
<path d="M82.7394 38.9545C82.7394 43.1747 80.4806 45.8861 77.0719 45.8861C76.2085 45.9313 75.3497 45.7324 74.594 45.3121C73.8383 44.8919 73.2162 44.2674 72.799 43.5101H72.7345V50.2367H69.9469V32.1634H72.6452V34.4222H72.6965C73.1329 33.6685 73.7655 33.0472 74.5269 32.6245C75.2884 32.2017 76.1502 31.9933 77.0207 32.0213C80.4674 32.0213 82.7394 34.7459 82.7394 38.9545ZM79.8742 38.9545C79.8742 36.205 78.4533 34.3973 76.2853 34.3973C74.1554 34.3973 72.7228 36.243 72.7228 38.9545C72.7228 41.6908 74.1554 43.5233 76.2853 43.5233C78.4533 43.5233 79.8742 41.7289 79.8742 38.9545Z" fill="white"/>
<path d="M97.6867 38.9545C97.6867 43.1747 95.4279 45.8861 92.0192 45.8861C91.1557 45.9313 90.297 45.7324 89.5413 45.3121C88.7856 44.8919 88.1635 44.2674 87.7463 43.5101H87.6818V50.2367H84.8942V32.1634H87.5924V34.4222H87.6437C88.0801 33.6685 88.7127 33.0472 89.4741 32.6245C90.2356 32.2017 91.0974 31.9933 91.9679 32.0213C95.4147 32.0213 97.6867 34.7459 97.6867 38.9545ZM94.8214 38.9545C94.8214 36.205 93.4005 34.3973 91.2326 34.3973C89.1027 34.3973 87.6701 36.243 87.6701 38.9545C87.6701 41.6908 89.1027 43.5233 91.2326 43.5233C93.4006 43.5233 94.8215 41.7289 94.8215 38.9545H94.8214Z" fill="white"/>
<path d="M107.566 40.5542C107.772 42.4014 109.567 43.6142 112.019 43.6142C114.368 43.6142 116.059 42.4013 116.059 40.7358C116.059 39.29 115.039 38.4243 112.625 37.831L110.211 37.2495C106.791 36.4233 105.203 34.8237 105.203 32.228C105.203 29.0141 108.004 26.8066 111.981 26.8066C115.917 26.8066 118.615 29.0141 118.706 32.228H115.892C115.723 30.3691 114.187 29.247 111.941 29.247C109.695 29.247 108.159 30.3823 108.159 32.0346C108.159 33.3515 109.14 34.1264 111.541 34.7196L113.593 35.2235C117.415 36.1273 119.003 37.6625 119.003 40.3871C119.003 43.872 116.227 46.0546 111.812 46.0546C107.681 46.0546 104.892 43.9232 104.712 40.5541L107.566 40.5542Z" fill="white"/>
<path d="M125.019 28.9509V32.1647H127.602V34.3723H125.019V41.8591C125.019 43.0222 125.536 43.5642 126.671 43.5642C126.978 43.5588 127.284 43.5373 127.588 43.4997V45.694C127.078 45.7894 126.559 45.8326 126.04 45.8229C123.291 45.8229 122.218 44.7902 122.218 42.1564V34.3723H120.244V32.1647H122.218V28.9509H125.019Z" fill="white"/>
<path d="M129.097 38.9558C129.097 34.6828 131.614 31.9978 135.538 31.9978C139.476 31.9978 141.981 34.6828 141.981 38.9558C141.981 43.2404 139.489 45.9138 135.538 45.9138C131.589 45.9138 129.097 43.2404 129.097 38.9558ZM139.14 38.9558C139.14 36.0246 137.797 34.2946 135.538 34.2946C133.279 34.2946 131.938 36.0378 131.938 38.9558C131.938 41.8986 133.279 43.6154 135.538 43.6154C137.797 43.6154 139.14 41.8986 139.14 38.9558H139.14Z" fill="white"/>
<path d="M144.279 32.1634H146.938V34.4749H147.002C147.182 33.753 147.605 33.115 148.2 32.6681C148.795 32.2213 149.525 31.9929 150.269 32.0213C150.59 32.0202 150.91 32.055 151.224 32.1253V34.7327C150.818 34.6088 150.395 34.5519 149.971 34.5643C149.566 34.5478 149.163 34.6192 148.788 34.7736C148.413 34.9279 148.076 35.1615 147.8 35.4583C147.524 35.7552 147.316 36.1082 147.189 36.4932C147.063 36.8782 147.021 37.2861 147.067 37.6888V45.7439H144.279L144.279 32.1634Z" fill="white"/>
<path d="M164.076 41.7565C163.701 44.2219 161.3 45.9137 158.229 45.9137C154.278 45.9137 151.826 43.2668 151.826 39.0202C151.826 34.7604 154.291 31.9977 158.111 31.9977C161.869 31.9977 164.232 34.5788 164.232 38.6965V39.6515H154.64V39.82C154.596 40.3198 154.658 40.8233 154.823 41.2971C154.989 41.7708 155.253 42.204 155.598 42.5678C155.944 42.9316 156.363 43.2178 156.827 43.4072C157.292 43.5967 157.792 43.6851 158.293 43.6667C158.952 43.7284 159.613 43.5758 160.178 43.2317C160.743 42.8875 161.182 42.3701 161.429 41.7565L164.076 41.7565ZM154.653 37.7033H161.443C161.468 37.2539 161.399 36.8042 161.242 36.3824C161.085 35.9606 160.843 35.5758 160.53 35.2521C160.217 34.9285 159.841 34.673 159.425 34.5016C159.009 34.3303 158.561 34.2469 158.111 34.2565C157.658 34.2538 157.208 34.341 156.787 34.5132C156.367 34.6853 155.986 34.9389 155.664 35.2593C155.342 35.5798 155.088 35.9607 154.914 36.3802C154.741 36.7997 154.652 37.2494 154.653 37.7033V37.7033Z" fill="white"/>
<path d="M56.7393 13.0967C57.3237 13.0547 57.9101 13.143 58.4563 13.3552C59.0025 13.5673 59.4947 13.8981 59.8976 14.3235C60.3005 14.7489 60.6039 15.2585 60.786 15.8154C60.9681 16.3723 61.0244 16.9627 60.9507 17.5439C60.9507 20.4033 59.4053 22.0469 56.7393 22.0469H53.5063V13.0967H56.7393ZM54.8965 20.7812H56.584C57.0016 20.8062 57.4195 20.7377 57.8073 20.5808C58.1951 20.4238 58.5431 20.1824 58.8258 19.8741C59.1085 19.5657 59.319 19.1982 59.4418 18.7983C59.5645 18.3983 59.5966 17.9761 59.5356 17.5622C59.5922 17.1499 59.5569 16.7303 59.4322 16.3333C59.3075 15.9363 59.0966 15.5718 58.8145 15.2659C58.5324 14.96 58.1861 14.7203 57.8005 14.5639C57.4149 14.4076 56.9994 14.3384 56.584 14.3615H54.8965V20.7812Z" fill="white"/>
<path d="M62.521 18.6679C62.4786 18.224 62.5294 17.7762 62.6701 17.3531C62.8109 16.93 63.0385 16.5409 63.3384 16.211C63.6383 15.881 64.0039 15.6173 64.4117 15.4369C64.8195 15.2565 65.2604 15.1633 65.7064 15.1633C66.1523 15.1633 66.5932 15.2565 67.001 15.4369C67.4088 15.6173 67.7744 15.881 68.0743 16.211C68.3742 16.5409 68.6018 16.93 68.7426 17.3531C68.8833 17.7762 68.9341 18.224 68.8917 18.6679C68.9349 19.1122 68.8847 19.5607 68.7444 19.9845C68.604 20.4083 68.3765 20.798 68.0765 21.1286C67.7765 21.4592 67.4107 21.7234 67.0025 21.9042C66.5943 22.085 66.1528 22.1785 65.7064 22.1785C65.2599 22.1785 64.8184 22.085 64.4102 21.9042C64.002 21.7234 63.6362 21.4592 63.3362 21.1286C63.0362 20.798 62.8087 20.4083 62.6683 19.9845C62.528 19.5607 62.4778 19.1122 62.521 18.6679ZM67.5205 18.6679C67.5205 17.2038 66.8628 16.3476 65.7085 16.3476C64.5499 16.3476 63.898 17.2038 63.898 18.6679C63.898 20.1437 64.5499 20.9933 65.7085 20.9933C66.8629 20.9933 67.5206 20.1379 67.5206 18.6679H67.5205Z" fill="white"/>
<path d="M77.3599 22.0469H75.977L74.5811 17.0723H74.4756L73.0855 22.0469H71.7158L69.854 15.2925H71.2061L72.416 20.4465H72.5156L73.9043 15.2925H75.1831L76.5718 20.4465H76.6773L77.8813 15.2925H79.2143L77.3599 22.0469Z" fill="white"/>
<path d="M80.7803 15.2923H82.0634V16.3652H82.1631C82.332 15.9799 82.617 15.6568 82.9784 15.4411C83.3397 15.2254 83.7593 15.1278 84.1787 15.1619C84.5073 15.1372 84.8373 15.1867 85.1442 15.3069C85.4511 15.427 85.7271 15.6147 85.9516 15.8559C86.1761 16.0972 86.3435 16.3859 86.4413 16.7006C86.5391 17.0153 86.5648 17.348 86.5166 17.6741V22.0466H85.1836V18.0088C85.1836 16.9234 84.7119 16.3836 83.726 16.3836C83.5029 16.3732 83.2802 16.4111 83.0731 16.4949C82.866 16.5786 82.6795 16.7062 82.5263 16.8687C82.3731 17.0313 82.2569 17.2251 82.1856 17.4368C82.1143 17.6485 82.0896 17.8731 82.1132 18.0952V22.0466H80.7802L80.7803 15.2923Z" fill="white"/>
<path d="M88.6407 12.6557H89.9737V22.0469H88.6407V12.6557Z" fill="white"/>
<path d="M91.8266 18.6656C91.7841 18.2217 91.8349 17.7738 91.9757 17.3507C92.1165 16.9276 92.3442 16.5385 92.6441 16.2086C92.9441 15.8786 93.3097 15.6149 93.7175 15.4345C94.1253 15.2541 94.5663 15.1609 95.0122 15.1609C95.4582 15.1609 95.8992 15.2541 96.307 15.4345C96.7148 15.6149 97.0804 15.8786 97.3803 16.2086C97.6802 16.5385 97.9079 16.9276 98.0487 17.3507C98.1895 17.7738 98.2403 18.2217 98.1979 18.6656C98.2411 19.1099 98.1909 19.5584 98.0504 19.9822C97.91 20.406 97.6825 20.7957 97.3825 21.1263C97.0824 21.4569 96.7166 21.7211 96.3084 21.9019C95.9002 22.0827 95.4587 22.1761 95.0122 22.1761C94.5658 22.1761 94.1243 22.0827 93.7161 21.9019C93.3079 21.7211 92.942 21.4569 92.642 21.1263C92.342 20.7957 92.1144 20.406 91.974 19.9822C91.8336 19.5584 91.7833 19.1099 91.8266 18.6656ZM96.826 18.6656C96.826 17.2015 96.1683 16.3453 95.014 16.3453C93.8554 16.3453 93.2036 17.2015 93.2036 18.6656C93.2036 20.1414 93.8554 20.991 95.014 20.991C96.1683 20.991 96.8261 20.1356 96.8261 18.6656H96.826Z" fill="white"/>
<path d="M99.6013 20.1379C99.6013 18.9221 100.507 18.2211 102.114 18.1215L103.943 18.0161V17.4331C103.943 16.7197 103.471 16.3168 102.56 16.3168C101.816 16.3168 101.301 16.59 101.153 17.0676H99.8621C99.9983 15.9074 101.09 15.1633 102.622 15.1633C104.315 15.1633 105.27 16.0063 105.27 17.4331V22.048H103.987V21.0988H103.882C103.668 21.4393 103.367 21.7169 103.01 21.9032C102.654 22.0895 102.255 22.1779 101.853 22.1593C101.569 22.1888 101.283 22.1586 101.012 22.0705C100.74 21.9825 100.491 21.8386 100.279 21.6481C100.066 21.4577 99.8966 21.2249 99.7799 20.9648C99.6633 20.7046 99.6024 20.423 99.6013 20.1379ZM103.943 19.5607V18.996L102.294 19.1015C101.364 19.1638 100.942 19.4802 100.942 20.0756C100.942 20.6835 101.469 21.0373 102.194 21.0373C102.407 21.0588 102.621 21.0373 102.825 20.9742C103.029 20.9111 103.218 20.8075 103.382 20.6698C103.545 20.532 103.679 20.3628 103.775 20.1723C103.872 19.9818 103.929 19.7738 103.943 19.5607Z" fill="white"/>
<path d="M107.022 18.6668C107.022 16.5325 108.119 15.1804 109.826 15.1804C110.248 15.161 110.667 15.2621 111.034 15.4719C111.401 15.6818 111.7 15.9917 111.897 16.3654H111.997V12.6557H113.33V22.0469H112.052V20.9797H111.947C111.735 21.351 111.425 21.657 111.051 21.8647C110.677 22.0724 110.253 22.1739 109.826 22.1582C108.108 22.1582 107.022 20.8062 107.022 18.6668ZM108.399 18.6668C108.399 20.0994 109.074 20.9614 110.204 20.9614C111.327 20.9614 112.022 20.0869 112.022 18.6726C112.022 17.2649 111.32 16.3779 110.204 16.3779C109.082 16.3779 108.399 17.2459 108.399 18.6668H108.399Z" fill="white"/>
<path d="M118.845 18.6679C118.803 18.224 118.853 17.7762 118.994 17.3531C119.135 16.93 119.362 16.5409 119.662 16.211C119.962 15.881 120.328 15.6173 120.736 15.4369C121.143 15.2565 121.584 15.1633 122.03 15.1633C122.476 15.1633 122.917 15.2565 123.325 15.4369C123.733 15.6173 124.098 15.881 124.398 16.211C124.698 16.5409 124.926 16.93 125.067 17.3531C125.207 17.7762 125.258 18.224 125.216 18.6679C125.259 19.1122 125.209 19.5607 125.068 19.9845C124.928 20.4083 124.7 20.798 124.4 21.1286C124.1 21.4592 123.735 21.7234 123.326 21.9042C122.918 22.085 122.477 22.1785 122.03 22.1785C121.584 22.1785 121.142 22.085 120.734 21.9042C120.326 21.7234 119.96 21.4592 119.66 21.1286C119.36 20.798 119.133 20.4083 118.992 19.9845C118.852 19.5607 118.802 19.1122 118.845 18.6679ZM123.845 18.6679C123.845 17.2038 123.187 16.3476 122.033 16.3476C120.874 16.3476 120.222 17.2038 120.222 18.6679C120.222 20.1437 120.874 20.9933 122.033 20.9933C123.187 20.9933 123.845 20.1379 123.845 18.6679Z" fill="white"/>
<path d="M127.004 15.2923H128.287V16.3652H128.387C128.556 15.9799 128.841 15.6568 129.202 15.4411C129.564 15.2254 129.983 15.1278 130.403 15.1619C130.731 15.1372 131.061 15.1867 131.368 15.3069C131.675 15.427 131.951 15.6147 132.175 15.8559C132.4 16.0972 132.567 16.3859 132.665 16.7006C132.763 17.0153 132.789 17.348 132.74 17.6741V22.0466H131.407V18.0088C131.407 16.9234 130.936 16.3836 129.95 16.3836C129.727 16.3732 129.504 16.4111 129.297 16.4949C129.09 16.5786 128.903 16.7062 128.75 16.8687C128.597 17.0313 128.481 17.2251 128.41 17.4368C128.338 17.6485 128.314 17.8731 128.337 18.0952V22.0466H127.004V15.2923Z" fill="white"/>
<path d="M140.273 13.6108V15.3232H141.736V16.446H140.273V19.9192C140.273 20.6267 140.564 20.9365 141.228 20.9365C141.398 20.936 141.567 20.9257 141.736 20.9058V22.0161C141.497 22.0589 141.254 22.0817 141.011 22.0842C139.529 22.0842 138.938 21.5627 138.938 20.2605V16.446H137.866V15.3232H138.938V13.6108H140.273Z" fill="white"/>
<path d="M143.557 12.6557H144.878V16.3779H144.984C145.161 15.9889 145.454 15.6641 145.822 15.4475C146.191 15.231 146.617 15.1334 147.043 15.168C147.37 15.1502 147.697 15.2048 148 15.3278C148.304 15.4509 148.576 15.6394 148.798 15.8799C149.021 16.1204 149.187 16.407 149.286 16.7192C149.384 17.0314 149.413 17.3615 149.369 17.686V22.0469H148.035V18.0149C148.035 16.936 147.532 16.3896 146.591 16.3896C146.362 16.3708 146.131 16.4023 145.915 16.4819C145.7 16.5615 145.504 16.6872 145.342 16.8503C145.18 17.0134 145.056 17.21 144.978 17.4262C144.899 17.6424 144.87 17.873 144.89 18.102V22.0468H143.557L143.557 12.6557Z" fill="white"/>
<path d="M157.142 20.222C156.961 20.8393 156.568 21.3733 156.033 21.7305C155.498 22.0877 154.855 22.2455 154.215 22.1761C153.77 22.1878 153.328 22.1026 152.919 21.9263C152.51 21.75 152.145 21.4869 151.848 21.1552C151.551 20.8235 151.33 20.4311 151.2 20.0054C151.07 19.5797 151.034 19.1308 151.095 18.6898C151.036 18.2475 151.072 17.7976 151.202 17.3705C151.332 16.9435 151.552 16.5494 151.847 16.2148C152.142 15.8802 152.506 15.6129 152.914 15.4311C153.321 15.2493 153.763 15.1572 154.209 15.161C156.089 15.161 157.222 16.445 157.222 18.566V19.0311H152.453V19.1058C152.432 19.3537 152.463 19.6032 152.544 19.8383C152.626 20.0734 152.755 20.289 152.924 20.4712C153.094 20.6533 153.299 20.7981 153.528 20.8962C153.756 20.9943 154.003 21.0436 154.252 21.0408C154.571 21.0791 154.894 21.0217 155.18 20.8759C155.466 20.73 155.702 20.5024 155.859 20.222L157.142 20.222ZM152.453 18.0452H155.864C155.881 17.8186 155.85 17.5909 155.774 17.3768C155.698 17.1627 155.577 16.967 155.421 16.8022C155.264 16.6374 155.075 16.5072 154.865 16.4199C154.655 16.3327 154.429 16.2903 154.202 16.2955C153.971 16.2926 153.743 16.3359 153.529 16.4228C153.315 16.5097 153.121 16.6385 152.958 16.8016C152.795 16.9646 152.667 17.1587 152.58 17.3723C152.493 17.5859 152.45 17.8147 152.453 18.0452H152.453Z" fill="white"/>
</svg>
