<svg width="186" height="61" viewBox="0 0 186 61" fill="none" xmlns="http://www.w3.org/2000/svg">
<path d="M12.1863 60.2732C11.7084 60.2732 11.2421 60.2671 10.7679 60.2564C9.78564 60.2436 8.80569 60.1581 7.83606 60.0006C6.93194 59.8448 6.05608 59.5552 5.23739 59.1412C4.42621 58.7305 3.68634 58.1921 3.04613 57.5466C2.39666 56.9086 1.85595 56.1687 1.44542 55.3561C1.03036 54.5382 0.743121 53.6616 0.593697 52.7567C0.432332 51.7844 0.345026 50.8012 0.332534 49.8157C0.322589 49.4849 0.30957 48.3834 0.30957 48.3834V12.1492C0.30957 12.1492 0.323436 11.0647 0.332612 10.746C0.344574 9.76206 0.431371 8.78042 0.592254 7.80961C0.741954 6.90223 1.02942 6.02306 1.4447 5.20253C1.85372 4.39051 2.39143 3.65003 3.03699 3.00978C3.68182 2.36345 4.42406 1.82227 5.23662 1.40599C6.05344 0.993278 6.92763 0.705668 7.82993 0.552794C8.80274 0.39369 9.7861 0.307671 10.7718 0.295458L12.1871 0.276306H173.384L174.816 0.296227C175.793 0.307833 176.768 0.393084 177.731 0.551256C178.643 0.706048 179.526 0.995665 180.352 1.41058C181.98 2.24951 183.305 3.57678 184.14 5.20635C184.549 6.02123 184.832 6.89323 184.98 7.79276C185.143 8.77153 185.234 9.76089 185.252 10.7529C185.257 11.1971 185.257 11.6743 185.257 12.1492C185.269 12.7374 185.269 13.2972 185.269 13.8617V46.6893C185.269 47.2591 185.269 47.8152 185.257 48.3758C185.257 48.8858 185.257 49.3531 185.251 49.834C185.233 50.8084 185.143 51.7801 184.983 52.7413C184.836 53.6527 184.551 54.5362 184.136 55.3608C183.722 56.1646 183.185 56.8981 182.543 57.5343C181.902 58.1834 181.161 58.7249 180.348 59.1382C179.524 59.5554 178.642 59.8461 177.731 60.0006C176.762 60.1589 175.782 60.2444 174.8 60.2564C174.34 60.2671 173.859 60.2732 173.392 60.2732L171.692 60.2763L12.1863 60.2732Z" fill="#F5516C"/>
<path d="M37.7903 30.7455C37.8072 29.4363 38.155 28.1526 38.8012 27.0139C39.4475 25.8752 40.3713 24.9185 41.4867 24.2328C40.7781 23.2208 39.8434 22.388 38.7566 21.8005C37.6699 21.213 36.4612 20.887 35.2264 20.8484C32.5924 20.5719 30.0389 22.4245 28.6967 22.4245C27.3285 22.4245 25.2619 20.8758 23.0366 20.9216C21.5972 20.9681 20.1944 21.3867 18.9648 22.1365C17.7353 22.8864 16.7209 23.942 16.0206 25.2004C12.9871 30.4526 15.2498 38.1714 18.1557 42.4169C19.6096 44.4958 21.3088 46.8179 23.5321 46.7356C25.7078 46.6453 26.5204 45.3482 29.1466 45.3482C31.7484 45.3482 32.5108 46.7356 34.7792 46.6832C37.1138 46.6453 38.5847 44.5951 39.9876 42.4965C41.0322 41.0153 41.836 39.3781 42.3693 37.6458C41.013 37.0721 39.8555 36.1119 39.0412 34.8848C38.227 33.6578 37.7919 32.2182 37.7903 30.7455Z" fill="white"/>
<path d="M33.5055 18.0574C34.7784 16.5293 35.4055 14.5652 35.2536 12.5822C33.3089 12.7865 31.5125 13.7159 30.2224 15.1854C29.5916 15.9033 29.1085 16.7384 28.8007 17.6431C28.4929 18.5478 28.3664 19.5043 28.4284 20.4579C29.4012 20.4679 30.3635 20.2571 31.2429 19.8413C32.1223 19.4255 32.8959 18.8155 33.5055 18.0574Z" fill="white"/>
<path d="M65.2927 41.4737H57.8682L56.0852 46.7384H52.9404L59.9728 27.2603H63.2401L70.2725 46.7384H67.0742L65.2927 41.4737ZM58.6371 39.0443H64.5223L61.6211 30.5H61.5399L58.6371 39.0443Z" fill="white"/>
<path d="M85.4611 39.6384C85.4611 44.0514 83.0991 46.8868 79.5346 46.8868C78.6317 46.934 77.7337 46.726 76.9435 46.2866C76.1532 45.8472 75.5027 45.1941 75.0664 44.4022H74.999V51.4361H72.084V32.537H74.9056V34.899H74.9592C75.4156 34.1109 76.0771 33.4612 76.8733 33.0191C77.6695 32.577 78.5707 32.3591 79.481 32.3884C83.0852 32.3884 85.4611 35.2375 85.4611 39.6384ZM82.4649 39.6384C82.4649 36.7632 80.9791 34.873 78.712 34.873C76.4848 34.873 74.9867 36.803 74.9867 39.6384C74.9867 42.4997 76.4848 44.416 78.712 44.416C80.9791 44.416 82.4649 42.5396 82.4649 39.6384Z" fill="white"/>
<path d="M101.091 39.6384C101.091 44.0515 98.729 46.8868 95.1645 46.8868C94.2616 46.934 93.3636 46.726 92.5733 46.2866C91.7831 45.8472 91.1326 45.1942 90.6963 44.4022H90.6288V51.4362H87.7139V32.5371H90.5354V34.8991H90.589C91.0454 34.1109 91.7069 33.4613 92.5031 33.0192C93.2994 32.5771 94.2006 32.3591 95.1108 32.3885C98.7152 32.3885 101.091 35.2376 101.091 39.6384ZM98.0948 39.6384C98.0948 36.7633 96.609 34.873 94.3419 34.873C92.1147 34.873 90.6166 36.8031 90.6166 39.6384C90.6166 42.4998 92.1147 44.416 94.3419 44.416C96.609 44.416 98.0948 42.5396 98.0948 39.6384H98.0948Z" fill="white"/>
<path d="M111.42 41.3113C111.636 43.2429 113.513 44.5111 116.077 44.5111C118.534 44.5111 120.302 43.2428 120.302 41.5012C120.302 39.9893 119.236 39.084 116.711 38.4636L114.187 37.8555C110.61 36.9916 108.95 35.3189 108.95 32.6046C108.95 29.2438 111.878 26.9354 116.037 26.9354C120.153 26.9354 122.975 29.2438 123.07 32.6046H120.127C119.951 30.6607 118.344 29.4874 115.996 29.4874C113.648 29.4874 112.041 30.6745 112.041 32.4024C112.041 33.7794 113.067 34.5898 115.578 35.2101L117.724 35.737C121.72 36.6821 123.381 38.2875 123.381 41.1365C123.381 44.7806 120.478 47.063 115.861 47.063C111.541 47.063 108.625 44.8342 108.437 41.3111L111.42 41.3113Z" fill="white"/>
<path d="M129.671 29.1777V32.5384H132.372V34.8468H129.671V42.6758C129.671 43.892 130.212 44.4588 131.399 44.4588C131.72 44.4532 132.04 44.4306 132.358 44.3913V46.6859C131.824 46.7856 131.282 46.8308 130.739 46.8207C127.864 46.8207 126.743 45.7408 126.743 42.9867V34.8468H124.678V32.5384H126.743V29.1777H129.671Z" fill="white"/>
<path d="M133.936 39.6398C133.936 35.1716 136.567 32.3638 140.671 32.3638C144.788 32.3638 147.408 35.1715 147.408 39.6398C147.408 44.1203 144.802 46.9158 140.671 46.9158C136.541 46.9158 133.936 44.1202 133.936 39.6398ZM144.437 39.6398C144.437 36.5747 143.033 34.7657 140.671 34.7657C138.309 34.7657 136.906 36.5885 136.906 39.6398C136.906 42.7171 138.309 44.5124 140.671 44.5124C143.033 44.5124 144.437 42.7171 144.437 39.6398H144.437Z" fill="white"/>
<path d="M149.813 32.537H152.593V34.9541H152.66C152.848 34.1992 153.291 33.5321 153.913 33.0648C154.535 32.5976 155.299 32.3587 156.076 32.3884C156.412 32.3872 156.747 32.4237 157.075 32.4972V35.2237C156.651 35.0941 156.208 35.0346 155.765 35.0476C155.342 35.0304 154.919 35.1051 154.527 35.2664C154.136 35.4278 153.783 35.6721 153.495 35.9825C153.206 36.2929 152.988 36.6621 152.856 37.0647C152.723 37.4673 152.68 37.8938 152.727 38.3149V46.7381H149.812L149.813 32.537Z" fill="white"/>
<path d="M170.513 42.5686C170.121 45.1465 167.611 46.9158 164.399 46.9158C160.267 46.9158 157.703 44.1478 157.703 39.7072C157.703 35.2528 160.281 32.3638 164.276 32.3638C168.205 32.3638 170.676 35.0628 170.676 39.3687V40.3674H160.646V40.5435C160.599 41.0662 160.665 41.5927 160.838 42.0881C161.01 42.5835 161.287 43.0365 161.648 43.4169C162.009 43.7974 162.447 44.0966 162.933 44.2947C163.419 44.4928 163.942 44.5853 164.466 44.566C165.155 44.6305 165.846 44.471 166.437 44.1111C167.028 43.7512 167.487 43.2102 167.746 42.5686L170.513 42.5686ZM160.659 38.3301H167.759C167.785 37.8602 167.714 37.3899 167.55 36.9488C167.386 36.5077 167.132 36.1054 166.805 35.7669C166.478 35.4285 166.085 35.1613 165.649 34.9821C165.214 34.803 164.747 34.7157 164.276 34.7258C163.801 34.723 163.331 34.8142 162.892 34.9942C162.452 35.1742 162.053 35.4394 161.717 35.7744C161.381 36.1095 161.114 36.5079 160.933 36.9466C160.751 37.3852 160.658 37.8554 160.659 38.3301V38.3301Z" fill="white"/>
<path d="M58.2722 12.599C58.8834 12.5551 59.4966 12.6475 60.0677 12.8693C60.6389 13.0912 61.1536 13.437 61.5749 13.8819C61.9962 14.3267 62.3135 14.8596 62.5039 15.4419C62.6944 16.0243 62.7532 16.6417 62.6761 17.2495C62.6761 20.2395 61.0601 21.9583 58.2722 21.9583H54.8916V12.599H58.2722ZM56.3453 20.6347H58.1099C58.5466 20.6608 58.9836 20.5892 59.3891 20.4251C59.7946 20.261 60.1585 20.0085 60.4541 19.6861C60.7498 19.3636 60.9698 18.9793 61.0982 18.5611C61.2266 18.1429 61.2602 17.7014 61.1964 17.2686C61.2556 16.8375 61.2186 16.3986 61.0882 15.9835C60.9579 15.5684 60.7373 15.1872 60.4423 14.8673C60.1473 14.5475 59.7852 14.2968 59.382 14.1333C58.9787 13.9698 58.5443 13.8975 58.1099 13.9216H56.3453V20.6347Z" fill="white"/>
<path d="M64.3185 18.4247C64.2741 17.9606 64.3272 17.4922 64.4744 17.0498C64.6216 16.6074 64.8596 16.2006 65.1732 15.8555C65.4868 15.5105 65.8691 15.2348 66.2955 15.0461C66.7219 14.8575 67.1831 14.76 67.6494 14.76C68.1156 14.76 68.5768 14.8575 69.0032 15.0461C69.4296 15.2348 69.8119 15.5105 70.1255 15.8555C70.4391 16.2006 70.6771 16.6074 70.8243 17.0498C70.9715 17.4922 71.0246 17.9606 70.9802 18.4247C71.0255 18.8894 70.973 19.3583 70.8262 19.8015C70.6794 20.2446 70.4415 20.6522 70.1278 20.9979C69.8141 21.3436 69.4315 21.6199 69.0047 21.809C68.5779 21.998 68.1162 22.0957 67.6494 22.0957C67.1825 22.0957 66.7208 21.998 66.294 21.809C65.8672 21.6199 65.4846 21.3436 65.1709 20.9979C64.8572 20.6522 64.6193 20.2446 64.4725 19.8015C64.3257 19.3583 64.2732 18.8894 64.3185 18.4247ZM69.5465 18.4247C69.5465 16.8937 68.8587 15.9984 67.6516 15.9984C66.44 15.9984 65.7584 16.8937 65.7584 18.4247C65.7584 19.968 66.4401 20.8564 67.6516 20.8564C68.8587 20.8564 69.5465 19.9619 69.5465 18.4247H69.5465Z" fill="white"/>
<path d="M79.8352 21.9581H78.3892L76.9294 16.7562H76.8191L75.3654 21.9581H73.9332L71.9863 14.8951H73.4002L74.6654 20.2846H74.7696L76.2217 14.8951H77.559L79.0111 20.2846H79.1214L80.3805 14.8951H81.7744L79.8352 21.9581Z" fill="white"/>
<path d="M83.4111 14.8948H84.753V16.0168H84.8571C85.0338 15.6139 85.3319 15.276 85.7097 15.0505C86.0875 14.8249 86.5263 14.7228 86.9649 14.7585C87.3085 14.7326 87.6536 14.7845 87.9745 14.9101C88.2955 15.0357 88.584 15.232 88.8188 15.4842C89.0536 15.7365 89.2286 16.0384 89.3309 16.3675C89.4331 16.6966 89.46 17.0446 89.4096 17.3855V21.9578H88.0157V17.7355C88.0157 16.6005 87.5224 16.036 86.4916 16.036C86.2582 16.0251 86.0253 16.0648 85.8087 16.1524C85.5922 16.24 85.3971 16.3733 85.237 16.5434C85.0768 16.7134 84.9552 16.916 84.8807 17.1374C84.8061 17.3587 84.7803 17.5936 84.805 17.8259V21.9579H83.4111L83.4111 14.8948Z" fill="white"/>
<path d="M91.6318 12.1379H93.0258V21.9581H91.6318V12.1379Z" fill="white"/>
<path d="M94.962 18.4224C94.9176 17.9582 94.9708 17.4898 95.118 17.0474C95.2652 16.6049 95.5033 16.1981 95.8169 15.853C96.1306 15.508 96.5129 15.2323 96.9393 15.0436C97.3658 14.855 97.8269 14.7575 98.2933 14.7575C98.7596 14.7575 99.2207 14.855 99.6472 15.0436C100.074 15.2323 100.456 15.508 100.77 15.853C101.083 16.1981 101.321 16.6049 101.468 17.0474C101.616 17.4898 101.669 17.9582 101.624 18.4224C101.67 18.887 101.617 19.356 101.47 19.7991C101.323 20.2423 101.086 20.6498 100.772 20.9955C100.458 21.3413 100.075 21.6175 99.6486 21.8066C99.2218 21.9956 98.7601 22.0933 98.2933 22.0933C97.8264 22.0933 97.3647 21.9956 96.9379 21.8066C96.511 21.6175 96.1284 21.3413 95.8147 20.9955C95.501 20.6498 95.263 20.2423 95.1162 19.7991C94.9693 19.356 94.9168 18.887 94.962 18.4224ZM100.19 18.4224C100.19 16.8913 99.5022 15.996 98.2952 15.996C97.0835 15.996 96.4019 16.8913 96.4019 18.4224C96.4019 19.9656 97.0836 20.8541 98.2952 20.8541C99.5022 20.8541 100.19 19.9595 100.19 18.4224H100.19Z" fill="white"/>
<path d="M103.093 19.9619C103.093 18.6905 104.039 17.9575 105.72 17.8534L107.633 17.7431V17.1334C107.633 16.3875 107.14 15.9662 106.187 15.9662C105.409 15.9662 104.87 16.2519 104.715 16.7513H103.365C103.508 15.5381 104.649 14.7599 106.251 14.7599C108.022 14.7599 109.021 15.6415 109.021 17.1334V21.9593H107.679V20.9667H107.569C107.345 21.3228 107.03 21.613 106.658 21.8079C106.285 22.0027 105.867 22.0951 105.447 22.0757C105.151 22.1065 104.851 22.0749 104.567 21.9828C104.284 21.8908 104.023 21.7403 103.801 21.5411C103.579 21.342 103.402 21.0986 103.28 20.8265C103.158 20.5545 103.094 20.26 103.093 19.9619ZM107.633 19.3583V18.7679L105.908 18.8781C104.936 18.9432 104.494 19.2741 104.494 19.8968C104.494 20.5325 105.046 20.9024 105.804 20.9024C106.026 20.9249 106.251 20.9024 106.464 20.8364C106.677 20.7704 106.875 20.6621 107.046 20.5181C107.216 20.374 107.356 20.1971 107.457 19.9979C107.558 19.7986 107.618 19.5812 107.633 19.3583Z" fill="white"/>
<path d="M110.853 18.4236C110.853 16.1918 112 14.7779 113.784 14.7779C114.226 14.7576 114.664 14.8633 115.047 15.0827C115.431 15.3022 115.744 15.6262 115.95 16.0171H116.055V12.1379H117.448V21.9581H116.113V20.8422H116.002C115.78 21.2304 115.456 21.5505 115.065 21.7677C114.674 21.9849 114.231 22.091 113.784 22.0745C111.988 22.0746 110.853 20.6607 110.853 18.4236ZM112.292 18.4236C112.292 19.9217 112.999 20.8231 114.18 20.8231C115.354 20.8231 116.081 19.9087 116.081 18.4297C116.081 16.9577 115.347 16.0302 114.18 16.0302C113.006 16.0302 112.292 16.9377 112.292 18.4236H112.292Z" fill="white"/>
<path d="M123.216 18.4247C123.172 17.9606 123.225 17.4922 123.372 17.0498C123.519 16.6074 123.757 16.2006 124.071 15.8555C124.384 15.5105 124.767 15.2348 125.193 15.0461C125.619 14.8575 126.081 14.76 126.547 14.76C127.013 14.76 127.474 14.8575 127.901 15.0461C128.327 15.2348 128.709 15.5105 129.023 15.8555C129.337 16.2006 129.575 16.6074 129.722 17.0498C129.869 17.4922 129.922 17.9606 129.878 18.4247C129.923 18.8894 129.87 19.3583 129.724 19.8015C129.577 20.2446 129.339 20.6522 129.025 20.9979C128.712 21.3436 128.329 21.6199 127.902 21.809C127.475 21.998 127.014 22.0957 126.547 22.0957C126.08 22.0957 125.618 21.998 125.191 21.809C124.765 21.6199 124.382 21.3436 124.068 20.9979C123.755 20.6522 123.517 20.2446 123.37 19.8015C123.223 19.3583 123.171 18.8894 123.216 18.4247ZM128.444 18.4247C128.444 16.8937 127.756 15.9984 126.549 15.9984C125.337 15.9984 124.656 16.8937 124.656 18.4247C124.656 19.968 125.338 20.8564 126.549 20.8564C127.756 20.8564 128.444 19.9619 128.444 18.4247Z" fill="white"/>
<path d="M131.748 14.8948H133.09V16.0168H133.194C133.371 15.6139 133.669 15.276 134.047 15.0505C134.424 14.8249 134.863 14.7228 135.302 14.7585C135.645 14.7326 135.991 14.7845 136.311 14.9101C136.632 15.0357 136.921 15.232 137.156 15.4842C137.39 15.7365 137.565 16.0384 137.668 16.3675C137.77 16.6966 137.797 17.0446 137.746 17.3855V21.9578H136.353V17.7355C136.353 16.6005 135.859 16.036 134.828 16.036C134.595 16.0251 134.362 16.0648 134.146 16.1524C133.929 16.24 133.734 16.3733 133.574 16.5434C133.414 16.7134 133.292 16.916 133.218 17.1374C133.143 17.3587 133.117 17.5936 133.142 17.8259V21.9579H131.748V14.8948Z" fill="white"/>
<path d="M145.622 13.1366V14.9272H147.152V16.1014H145.622V19.7332C145.622 20.4731 145.927 20.797 146.621 20.797C146.799 20.7965 146.976 20.7857 147.152 20.7649V21.926C146.902 21.9707 146.649 21.9946 146.394 21.9972C144.844 21.9972 144.227 21.4519 144.227 20.0901V16.1013H143.105V14.9272H144.227V13.1366H145.622Z" fill="white"/>
<path d="M149.058 12.1379H150.439V16.0301H150.55C150.735 15.6234 151.041 15.2837 151.426 15.0572C151.812 14.8308 152.258 14.7287 152.703 14.7649C153.045 14.7463 153.387 14.8034 153.704 14.9321C154.021 15.0607 154.306 15.2579 154.539 15.5094C154.771 15.7609 154.945 16.0605 155.048 16.387C155.151 16.7135 155.181 17.0587 155.136 17.398V21.9581H153.74V17.7419C153.74 16.6137 153.215 16.0424 152.23 16.0424C151.99 16.0227 151.749 16.0557 151.524 16.1389C151.298 16.2221 151.094 16.3536 150.924 16.5241C150.755 16.6947 150.625 16.9002 150.543 17.1263C150.462 17.3524 150.43 17.5936 150.452 17.833V21.9581H149.058L149.058 12.1379Z" fill="white"/>
<path d="M163.263 20.0499C163.073 20.6954 162.663 21.2538 162.103 21.6274C161.544 22.0009 160.871 22.1659 160.202 22.0933C159.737 22.1056 159.274 22.0165 158.847 21.8321C158.419 21.6478 158.037 21.3726 157.727 21.0258C157.416 20.6789 157.185 20.2686 157.049 19.8234C156.913 19.3783 156.876 18.9088 156.939 18.4477C156.877 17.9851 156.915 17.5147 157.051 17.0682C157.187 16.6216 157.417 16.2095 157.726 15.8596C158.034 15.5097 158.415 15.2302 158.841 15.0401C159.267 14.85 159.729 14.7536 160.196 14.7576C162.161 14.7576 163.347 16.1003 163.347 18.3182V18.8046H158.359V18.8827C158.337 19.1419 158.37 19.4028 158.455 19.6487C158.54 19.8946 158.675 20.12 158.852 20.3105C159.029 20.501 159.244 20.6524 159.483 20.755C159.722 20.8575 159.98 20.909 160.24 20.9061C160.574 20.9462 160.912 20.8861 161.211 20.7337C161.51 20.5812 161.757 20.3432 161.921 20.0499L163.263 20.0499ZM158.359 17.7737H161.927C161.944 17.5367 161.912 17.2985 161.832 17.0747C161.752 16.8508 161.626 16.6462 161.463 16.4738C161.299 16.3015 161.101 16.1654 160.881 16.0741C160.662 15.9829 160.426 15.9385 160.188 15.944C159.947 15.941 159.708 15.9862 159.485 16.0771C159.261 16.168 159.058 16.3027 158.888 16.4732C158.717 16.6437 158.583 16.8466 158.492 17.07C158.401 17.2934 158.356 17.5326 158.359 17.7737H158.359Z" fill="white"/>
</svg>
