<?xml version="1.0" standalone="no"?>
<!DOCTYPE svg PUBLIC "-//W3C//DTD SVG 20010904//EN"
 "http://www.w3.org/TR/2001/REC-SVG-20010904/DTD/svg10.dtd">
<svg version="1.0" xmlns="http://www.w3.org/2000/svg"
 width="616.000000pt" height="1164.000000pt" viewBox="0 0 616.000000 1164.000000"
 preserveAspectRatio="xMidYMid meet">

<g transform="translate(0.000000,1164.000000) scale(0.100000,-0.100000)"
fill="#000000" stroke="none">
<path d="M0 5820 l0 -5820 3080 0 3080 0 0 5820 0 5820 -3080 0 -3080 0 0
-5820z m858 5597 c4 -20 -25 -34 -40 -19 -15 15 -1 44 19 40 10 -2 19 -11 21
-21z m100 0 c2 -9 -4 -20 -12 -23 -21 -8 -46 13 -39 32 8 20 47 13 51 -9z
m142 -84 c0 -44 3 -54 12 -45 18 18 62 15 87 -5 28 -23 43 -87 31 -137 -11
-49 -31 -69 -67 -68 -15 1 -49 2 -75 2 l-48 0 0 155 0 155 30 0 c30 0 30 0 30
-57z m2200 -98 l0 -155 -30 0 -30 0 0 155 0 155 30 0 30 0 0 -155z m108 -2 l3
-153 -36 0 -35 0 0 148 c0 82 3 152 7 156 4 4 19 6 33 4 l25 -3 3 -152z m1662
2 l0 -155 -30 0 -30 0 0 155 0 155 30 0 30 0 0 -155z m110 0 l0 -155 -30 0
-30 0 0 155 0 155 30 0 30 0 0 -155z m-3245 121 c0 -29 -31 -44 -50 -25 -23
23 -9 51 24 47 18 -2 26 -9 26 -22z m-1105 -91 c0 -92 3 -108 20 -125 24 -24
39 -25 66 -6 16 12 19 29 22 125 l4 111 29 0 29 0 0 -107 c0 -125 -9 -150 -63
-177 -46 -22 -95 -16 -134 19 -27 23 -28 26 -31 144 l-4 121 31 0 31 0 0 -105z
m3010 43 l1 -63 32 40 c70 87 71 87 105 83 l33 -3 -45 -59 c-25 -32 -46 -63
-46 -68 0 -5 23 -42 50 -83 l51 -75 -39 0 c-35 0 -40 4 -71 55 -18 30 -36 55
-39 55 -14 0 -31 -39 -32 -72 0 -35 -2 -38 -30 -38 l-30 0 0 145 0 145 30 0
30 0 0 -62z m730 17 c0 -16 6 -25 15 -25 9 0 15 -9 15 -25 0 -16 -6 -25 -15
-25 -12 0 -15 -13 -15 -61 0 -52 3 -62 20 -66 26 -7 26 -40 0 -48 -11 -3 -32
0 -47 7 -27 13 -28 17 -31 91 -2 59 -6 77 -17 77 -9 0 -15 10 -15 25 0 16 6
25 15 25 9 0 15 9 15 25 0 21 5 25 30 25 25 0 30 -4 30 -25z m-3139 -54 c21
-22 29 -39 29 -65 l0 -36 -65 0 c-52 0 -65 -3 -65 -15 0 -25 45 -40 76 -26 20
9 30 9 40 0 12 -10 12 -14 -2 -30 -22 -25 -67 -33 -108 -19 -52 17 -72 55 -68
133 3 43 52 87 97 87 27 0 44 -8 66 -29z m119 19 c0 -7 6 -7 19 0 35 18 51 12
51 -20 0 -25 -4 -30 -24 -30 -34 0 -39 -13 -37 -92 l2 -68 -30 0 -31 0 0 110
0 110 25 0 c14 0 25 -5 25 -10z m148 -2 c9 -9 15 -9 24 0 19 19 66 14 88 -8
17 -17 20 -33 20 -110 l0 -90 -30 0 -30 0 0 79 c0 85 -6 97 -46 87 -23 -6 -24
-10 -24 -86 l0 -80 -30 0 -30 0 0 103 c0 57 3 107 7 110 10 11 38 8 51 -5z
m240 -100 l3 -108 -31 0 -30 0 0 111 0 110 28 -3 27 -3 3 -107z m97 102 c4 -7
12 -7 25 0 27 14 62 12 87 -5 18 -13 22 -13 33 0 17 20 63 19 90 -3 19 -16 23
-31 28 -110 l5 -92 -34 0 -34 0 -1 77 c-1 81 -13 103 -48 90 -13 -5 -16 -22
-16 -87 l0 -80 -30 0 -30 0 0 73 c0 83 -8 100 -41 95 -23 -3 -24 -7 -27 -85
l-3 -83 -29 0 -30 0 0 110 c0 110 0 110 24 110 14 0 28 -5 31 -10z m357 0 c2
-7 15 -6 36 2 28 11 37 10 61 -3 24 -14 30 -14 46 -3 31 23 71 17 94 -12 17
-22 21 -41 21 -110 l0 -84 -30 0 -30 0 0 80 c0 65 -3 82 -16 87 -35 13 -49
-10 -52 -91 l-3 -76 -29 0 -29 0 -3 83 c-3 80 -4 82 -28 82 -24 0 -25 -2 -28
-82 l-3 -83 -29 0 -30 0 0 110 c0 110 0 110 24 110 13 0 26 -5 28 -10z m464
-65 l21 -70 12 45 c24 91 27 95 54 98 34 4 34 0 -5 -120 -32 -96 -33 -98 -63
-98 -30 0 -31 2 -63 98 -39 120 -39 124 -5 120 25 -3 30 -11 49 -73z m302 50
c38 -32 50 -88 29 -136 -20 -47 -41 -62 -92 -63 -35 -1 -50 4 -71 25 -31 31
-42 95 -24 139 25 61 106 79 158 35z m453 -4 c21 -22 29 -39 29 -65 l0 -36
-70 0 c-68 0 -70 -1 -60 -21 15 -28 38 -34 73 -21 41 16 66 -2 42 -28 -44 -49
-145 -27 -171 36 -47 112 75 217 157 135z m568 15 c76 -40 65 -180 -16 -207
-41 -13 -95 2 -116 34 -68 105 25 228 132 173z m143 4 c2 -7 14 -6 35 2 40 15
79 -1 93 -38 6 -14 10 -59 10 -100 l0 -74 -30 0 -30 0 0 73 c0 83 -8 100 -41
95 -23 -3 -24 -7 -27 -85 l-3 -83 -29 0 -30 0 0 110 c0 110 0 110 24 110 13 0
26 -5 28 -10z m363 0 c4 -7 13 -6 26 1 29 15 49 4 49 -26 0 -21 -5 -25 -29
-25 -35 0 -41 -13 -41 -96 l0 -64 -30 0 -30 0 0 103 c0 57 3 107 7 110 10 10
41 8 48 -3z m256 -19 c28 -28 34 -52 29 -110 -3 -39 -29 -70 -70 -82 -48 -15
-102 9 -120 52 -20 46 -7 119 25 146 39 34 98 31 136 -6z m430 19 c24 -13 49
-61 49 -95 0 -24 -2 -25 -70 -25 -38 0 -70 -3 -70 -7 0 -3 7 -15 17 -25 18
-20 53 -24 71 -6 8 8 15 8 27 -2 23 -19 18 -30 -21 -46 -73 -30 -141 8 -151
86 -7 49 16 101 50 118 29 14 73 15 98 2z m-3801 -499 l0 -49 39 5 c33 5 44 1
65 -20 22 -22 26 -35 26 -86 0 -48 -5 -65 -23 -87 -26 -29 -76 -36 -103 -13
-10 8 -14 8 -14 0 0 -6 -11 -11 -25 -11 l-25 0 0 155 0 155 30 0 c29 0 30 -1
30 -49z m835 -108 l0 -153 -27 0 c-16 0 -28 4 -28 9 0 5 -13 3 -30 -5 -25 -13
-34 -13 -57 -2 -40 19 -54 54 -50 122 4 74 30 101 89 93 l38 -5 0 50 0 49 33
-3 32 -3 0 -152z m1120 5 l-1 -153 -27 -3 c-15 -2 -27 1 -27 7 0 5 -13 3 -30
-5 -25 -13 -34 -13 -57 -2 -40 19 -54 54 -50 122 4 74 30 101 89 93 l38 -5 0
49 c0 49 0 49 33 49 l33 0 -1 -152z m925 -3 l0 -155 -35 0 -34 0 1 155 0 155
34 0 34 0 0 -155z m-3105 120 c0 -21 -31 -33 -46 -18 -5 5 -7 17 -3 27 9 24
49 17 49 -9z m100 0 c0 -22 -31 -33 -47 -17 -17 17 -1 44 24 40 15 -2 23 -10
23 -23z m1290 1 c0 -29 -31 -44 -50 -25 -23 23 -9 51 24 47 18 -2 26 -9 26
-22z m899 9 c5 -14 -17 -45 -33 -45 -15 0 -33 30 -27 45 7 19 52 20 60 0z
m341 -9 c0 -29 -31 -44 -50 -25 -23 23 -9 51 24 47 18 -2 26 -9 26 -22z m115
-31 c0 -18 5 -25 20 -25 15 0 20 -7 20 -25 0 -18 -5 -25 -20 -25 -18 0 -20 -7
-20 -55 0 -44 4 -56 20 -65 25 -13 27 -50 3 -51 -62 -4 -83 23 -83 106 0 47
-4 64 -15 69 -8 3 -15 15 -15 26 0 11 7 20 15 20 9 0 15 9 15 25 0 21 5 25 30
25 25 0 30 -4 30 -25z m-2750 -109 c0 -90 10 -107 51 -86 16 9 19 22 19 90 l0
80 30 0 30 0 0 -110 0 -111 -42 0 c-24 0 -58 0 -76 -1 -59 -2 -72 22 -72 129
l0 93 30 0 30 0 0 -84z m543 73 c29 -13 47 -48 47 -89 l0 -30 -65 0 c-50 0
-65 -3 -65 -15 0 -24 37 -38 72 -26 22 8 35 8 44 0 18 -15 9 -28 -32 -45 -89
-37 -170 42 -143 139 18 65 81 94 142 66z m137 -1 c0 -9 3 -9 12 0 7 7 22 12
35 12 19 0 23 -5 23 -30 0 -25 -4 -30 -23 -30 -37 0 -47 -19 -47 -92 0 -68 0
-68 -27 -68 -28 0 -28 1 -26 57 1 32 2 82 2 111 1 49 3 52 26 52 14 0 25 -5
25 -12z m594 -19 c17 -20 26 -43 26 -64 l0 -34 -72 -3 -73 -3 23 -23 c17 -17
30 -22 45 -17 44 14 62 11 62 -10 0 -14 -11 -23 -37 -32 -85 -28 -158 37 -143
127 14 86 117 122 169 59z m126 -79 l0 -110 -30 0 -30 0 0 110 0 110 30 0 30
0 0 -110z m100 100 c0 -7 6 -7 19 0 31 16 69 12 91 -10 17 -17 20 -33 20 -110
l0 -90 -30 0 -29 0 -3 83 -3 82 -30 0 -30 0 -3 -82 -3 -83 -29 0 -30 0 0 110
0 110 30 0 c17 0 30 -5 30 -10z m334 -21 c17 -20 26 -43 26 -64 l0 -34 -72 -3
-73 -3 23 -23 c17 -17 30 -22 45 -17 41 13 61 10 65 -8 2 -12 -7 -22 -33 -33
-116 -48 -205 97 -115 188 41 41 98 40 134 -3z m456 -79 l0 -110 -30 0 -30 0
0 110 0 110 30 0 30 0 0 -110z m171 100 c13 -7 19 -7 19 0 0 5 11 10 25 10
l25 0 0 -125 c0 -119 -1 -127 -24 -150 -32 -32 -85 -41 -125 -21 -33 17 -36
23 -23 43 6 10 15 10 40 1 36 -14 65 -3 70 26 3 13 -1 14 -20 8 -70 -25 -125
36 -115 125 8 76 68 114 128 83z m177 -102 l3 -108 -31 0 -30 0 0 111 0 110
28 -3 27 -3 3 -107z m333 93 c22 -17 24 -29 28 -111 l3 -92 -38 4 c-22 3 -49
1 -62 -3 -27 -10 -76 11 -86 36 -18 49 18 95 74 95 44 0 52 7 39 31 -12 23
-37 25 -45 4 -7 -18 -64 -20 -64 -2 1 51 103 77 151 38z m340 -10 c21 -22 29
-39 29 -65 l0 -35 -72 -3 -73 -3 23 -23 c17 -17 30 -22 45 -17 44 14 62 11 62
-10 0 -14 -11 -23 -37 -32 -57 -19 -107 1 -131 50 -55 111 69 222 154 138z
m119 19 c0 -7 6 -7 19 0 31 16 69 12 91 -10 17 -17 20 -33 20 -110 l0 -90 -30
0 -29 0 -3 83 -3 82 -30 0 -30 0 -3 -82 -3 -83 -29 0 -30 0 0 110 0 110 30 0
c17 0 30 -5 30 -10z m-3195 -463 c1 -1 14 -46 30 -100 16 -54 31 -94 35 -90 3
5 17 44 30 88 13 44 27 88 32 97 10 21 64 19 62 -2 -1 -8 -23 -73 -48 -145
-25 -71 -46 -131 -46 -132 0 -8 -60 -1 -65 7 -10 15 -95 268 -95 281 0 8 10 9
32 5 17 -3 32 -7 33 -9z m1003 -9 c-2 -15 -10 -23 -23 -23 -13 0 -21 8 -23 23
-3 18 1 22 23 22 22 0 26 -4 23 -22z m100 -1 c2 -9 -4 -20 -12 -23 -21 -8 -46
13 -39 32 8 20 47 13 51 -9z m1722 -32 c0 -18 5 -25 20 -25 13 0 20 -7 20 -20
0 -13 -7 -20 -20 -20 -18 0 -20 -7 -20 -61 0 -52 3 -62 20 -66 13 -3 20 -14
20 -29 0 -21 -5 -24 -34 -24 -50 0 -66 28 -66 112 0 54 -3 68 -15 68 -8 0 -15
9 -15 20 0 11 7 20 15 20 9 0 15 9 15 25 0 21 5 25 30 25 25 0 30 -4 30 -25z
m-2452 -50 c14 -13 26 -39 29 -63 l6 -42 -72 0 c-69 0 -71 -1 -61 -20 12 -22
68 -28 86 -10 8 8 15 6 25 -6 20 -25 -20 -54 -76 -54 -72 0 -115 57 -102 137
14 85 104 117 165 58z m187 7 c-2 -9 -4 -23 -4 -30 -1 -7 -5 -10 -11 -7 -5 3
-19 1 -30 -5 -17 -9 -20 -21 -20 -85 l0 -75 -30 0 -30 0 0 111 0 112 39 -6
c21 -2 44 -1 51 3 19 12 39 1 35 -18z m768 16 l37 2 0 -114 c0 -124 -9 -158
-47 -175 -37 -17 -98 -13 -123 7 -20 16 -20 19 -7 31 12 9 21 10 36 2 11 -6
26 -11 35 -11 19 0 46 27 46 48 0 12 -3 13 -12 4 -7 -7 -26 -12 -44 -12 -94 0
-118 177 -29 216 16 7 39 10 50 7 11 -4 37 -6 58 -5z m212 -2 c40 -17 55 -42
55 -90 l0 -36 -65 0 c-36 0 -65 -4 -65 -8 0 -28 64 -44 86 -22 7 7 16 4 28 -9
17 -19 17 -20 -13 -35 -41 -22 -93 -20 -124 4 -67 53 -51 177 27 199 17 5 32
10 34 10 1 1 18 -5 37 -13z m258 -14 c14 -12 17 -32 17 -109 l0 -93 -30 0 -30
0 0 84 c0 90 -10 107 -51 86 -16 -9 -19 -22 -19 -90 l0 -80 -30 0 -30 0 0 110
0 110 30 0 c17 0 30 -5 30 -11 0 -8 4 -8 13 -1 28 23 68 21 100 -6z m735 -7
c14 -13 26 -39 29 -63 l6 -42 -72 0 c-69 0 -71 -1 -61 -20 12 -22 68 -28 86
-10 8 8 15 6 25 -6 35 -42 -90 -75 -137 -36 -49 39 -58 108 -21 163 35 53 99
59 145 14z m192 4 c0 -12 -13 -24 -35 -33 l-35 -15 0 -75 0 -76 -30 0 -30 0 0
111 0 112 39 -6 c21 -2 44 -1 51 3 19 12 40 1 40 -21z m-1972 9 c9 -8 16 -8
24 0 7 7 29 12 49 12 56 0 69 -25 69 -132 l0 -88 -30 0 -30 0 0 84 c0 87 -8
104 -45 90 -18 -7 -17 -2 -19 -94 -2 -73 -3 -75 -29 -78 l-27 -3 0 75 c0 84
-16 114 -51 96 -16 -9 -19 -22 -19 -90 l0 -80 -30 0 -30 0 0 109 0 109 77 0
c43 1 83 -4 91 -10z m349 -12 c25 -22 28 -31 28 -86 0 -55 -3 -64 -28 -86 -33
-29 -91 -32 -126 -8 -54 38 -62 128 -15 179 32 35 101 35 141 1z m908 -1 c14
-13 25 -29 25 -35 0 -16 -57 -12 -64 5 -9 23 -56 19 -56 -5 0 -14 9 -21 35
-26 47 -8 85 -40 85 -69 0 -76 -163 -89 -183 -15 -4 16 0 20 20 20 13 0 31 -7
40 -16 19 -19 57 -15 61 8 2 12 -7 20 -35 27 -80 22 -106 68 -63 111 30 30
103 28 135 -5z m111 -22 c11 -80 20 -83 39 -15 15 53 21 62 40 62 19 0 25 -8
34 -48 20 -79 28 -82 41 -14 12 59 14 62 42 62 20 0 29 -4 25 -12 -2 -7 -15
-57 -28 -110 -22 -94 -24 -98 -50 -98 -24 0 -28 6 -46 68 l-19 67 -20 -65
c-17 -55 -23 -65 -44 -68 -24 -3 -26 2 -48 85 -12 48 -25 98 -28 111 -6 19 -3
22 24 22 29 0 31 -3 38 -47z m933 23 c13 -13 25 -42 28 -65 l6 -41 -72 0 c-69
0 -71 -1 -61 -20 12 -22 68 -28 86 -10 8 8 15 6 25 -6 35 -42 -90 -75 -137
-36 -45 36 -57 98 -29 152 19 38 41 49 91 50 30 0 46 -6 63 -24z m-3949 -511
c0 -8 -4 -15 -10 -15 -5 0 -10 7 -10 15 0 8 5 15 10 15 6 0 10 -7 10 -15z
m850 -84 c0 -56 -4 -103 -10 -106 -5 -3 -10 -1 -10 5 0 7 -6 8 -19 0 -28 -14
-38 -13 -61 10 -20 20 -27 74 -12 96 13 20 47 33 63 23 11 -7 10 -9 -6 -9 -12
0 -26 -5 -33 -12 -17 -17 -15 -74 4 -92 18 -19 20 -19 45 -5 16 8 20 20 19 57
-3 90 0 132 10 132 6 0 10 -40 10 -99z m588 83 c28 -19 29 -60 2 -67 -29 -7
-25 -34 8 -49 31 -15 37 -54 11 -71 -19 -12 -69 -1 -69 14 0 7 7 8 18 4 32
-13 47 -10 50 11 2 16 -4 24 -27 32 -41 14 -44 58 -6 72 22 8 24 13 15 31 -8
14 -19 19 -38 17 -27 -3 -27 -4 -30 -90 -3 -98 -22 -122 -22 -29 0 38 -5 61
-12 65 -10 5 -10 7 0 12 6 3 12 12 12 19 0 15 37 45 55 45 6 0 21 -7 33 -16z
m502 -89 c0 -63 -4 -105 -10 -105 -5 0 -10 4 -10 10 0 6 -9 5 -24 -1 -69 -32
-107 84 -42 127 19 12 29 13 45 4 20 -10 21 -8 21 30 0 22 5 40 10 40 6 0 10
-42 10 -105z m70 90 c0 -8 -4 -15 -10 -15 -5 0 -10 7 -10 15 0 8 5 15 10 15 6
0 10 -7 10 -15z m290 -25 c0 -38 1 -40 21 -30 56 30 98 -70 52 -122 -18 -20
-48 -24 -58 -8 -5 8 -11 7 -21 -1 -12 -10 -14 4 -14 95 0 64 4 106 10 106 6 0
10 -18 10 -40z m440 25 c0 -8 -4 -15 -10 -15 -5 0 -10 7 -10 15 0 8 5 15 10
15 6 0 10 -7 10 -15z m540 -84 c0 -56 -4 -103 -10 -106 -5 -3 -10 -1 -10 6 0
10 -3 10 -12 1 -19 -19 -55 -14 -72 10 -17 23 -21 75 -8 94 13 20 47 33 63 23
11 -7 9 -9 -7 -9 -31 0 -46 -23 -42 -66 4 -44 28 -65 56 -48 17 11 19 28 21
152 1 23 6 42 11 42 6 0 10 -40 10 -99z m220 78 c0 -5 -4 -9 -10 -9 -5 0 -10
7 -10 16 0 8 5 12 10 9 6 -3 10 -10 10 -16z m730 -19 c0 -37 2 -40 20 -30 14
8 25 7 40 -2 17 -11 20 -23 19 -73 l-2 -60 -6 52 c-7 58 -20 77 -47 71 -16 -3
-20 -14 -22 -61 -5 -97 -22 -64 -22 43 0 60 4 100 10 100 6 0 10 -18 10 -40z
m150 -55 c0 -60 4 -95 11 -95 5 0 7 -5 4 -10 -5 -8 -11 -7 -21 1 -17 14 -21
199 -4 199 6 0 10 -38 10 -95z m640 1 c0 -66 4 -96 13 -99 6 -2 9 -8 5 -12 -4
-4 -14 -2 -23 5 -11 9 -15 34 -15 106 0 56 4 94 10 94 6 0 10 -38 10 -94z
m-5163 2 l48 -83 3 83 c4 114 22 104 22 -13 0 -120 -13 -123 -72 -19 l-43 76
-3 -76 c-4 -110 -22 -94 -22 19 0 55 4 95 10 95 5 0 31 -37 57 -82z m4144 72
c10 -6 19 -16 19 -22 0 -7 -5 -7 -14 1 -8 7 -27 11 -43 9 -22 -2 -29 -9 -31
-30 -3 -23 1 -28 25 -34 46 -11 73 -32 73 -59 0 -25 -33 -55 -62 -55 -28 0
-70 19 -64 29 4 5 20 3 38 -6 38 -19 62 -8 66 30 3 23 -2 27 -38 38 -52 16
-73 42 -58 75 15 32 54 42 89 24z m469 0 c0 -5 -4 -10 -10 -10 -5 0 -10 5 -10
10 0 6 5 10 10 10 6 0 10 -4 10 -10z m60 0 c0 -5 -7 -10 -15 -10 -8 0 -15 5
-15 10 0 6 7 10 15 10 8 0 15 -4 15 -10z m-1704 -40 c8 0 14 -4 14 -10 0 -5
-7 -10 -15 -10 -24 0 -21 -107 3 -114 10 -3 6 -4 -8 -3 -23 2 -25 6 -28 60 -2
31 -7 57 -12 57 -6 0 -10 5 -10 10 0 6 7 10 15 10 8 0 16 10 16 23 l2 22 4
-22 c2 -13 11 -23 19 -23z m227 -5 l22 -8 -22 -4 c-19 -4 -22 -11 -22 -58 0
-42 4 -55 17 -58 12 -3 10 -5 -5 -6 -21 -1 -23 3 -23 59 0 50 -3 60 -17 60
-17 1 -17 1 0 14 9 7 18 19 18 27 1 9 3 8 6 -2 2 -10 14 -20 26 -24z m-3053
-65 c0 -40 -4 -70 -10 -70 -6 0 -10 30 -10 70 0 40 4 70 10 70 6 0 10 -30 10
-70z m145 37 c26 -38 19 -47 -36 -47 -46 0 -50 -2 -47 -21 5 -32 33 -47 59
-31 11 7 23 11 26 8 3 -3 -7 -11 -22 -18 -22 -10 -32 -9 -53 3 -44 24 -43 106
0 126 29 13 55 6 73 -20z m75 -43 c0 -36 -4 -64 -10 -64 -6 0 -10 30 -10 71 0
44 4 68 10 64 6 -3 10 -35 10 -71z m101 66 c22 12 53 0 63 -26 10 -25 7 -104
-4 -104 -5 0 -10 21 -10 48 0 58 -10 75 -41 70 -22 -3 -24 -9 -27 -60 -2 -32
-7 -58 -12 -58 -5 0 -10 26 -12 58 -3 52 -5 57 -27 60 -17 3 -20 6 -11 12 7 5
24 4 37 -1 16 -6 31 -5 44 1z m203 -10 c5 -5 8 -30 8 -56 -1 -28 4 -52 11 -56
7 -5 3 -8 -13 -8 -14 0 -38 -1 -54 -2 -60 -6 -61 63 0 70 34 4 47 21 32 39
-13 16 -40 17 -56 1 -9 -9 -12 -9 -12 0 0 28 58 36 84 12z m78 -64 c-2 -37 -8
-64 -13 -60 -10 6 -12 127 -2 137 13 14 18 -12 15 -77z m86 0 c2 -33 -1 -56
-7 -56 -6 0 -11 26 -13 58 -3 52 -5 57 -27 60 -18 3 -21 6 -10 13 29 18 54
-14 57 -75z m417 72 c22 -10 25 -17 25 -65 0 -31 4 -53 11 -53 5 0 7 -5 3 -11
-4 -7 -10 -7 -16 -1 -6 6 -20 6 -38 -1 -34 -13 -60 3 -60 38 0 24 17 35 56 35
17 0 24 5 24 20 0 26 -27 37 -51 21 -11 -6 -19 -7 -19 -2 0 6 8 15 18 20 21
13 17 13 47 -1z m110 -118 c10 -8 19 -8 34 0 17 9 21 20 21 65 0 30 5 55 10
55 6 0 10 -30 10 -71 0 -60 -2 -70 -14 -60 -10 8 -16 9 -21 1 -11 -17 -43 -11
-59 12 -16 23 -22 109 -8 122 4 4 8 -19 10 -52 2 -36 9 -65 17 -72z m393 106
c5 -6 13 -21 16 -33 7 -22 5 -23 -44 -23 -47 0 -51 -2 -48 -21 4 -32 33 -47
58 -31 27 16 35 15 20 -3 -17 -20 -53 -19 -80 3 -22 18 -31 76 -15 102 17 27
74 31 93 6z m79 -51 c-1 -36 -5 -65 -9 -65 -10 0 -13 27 -10 86 5 76 22 57 19
-21z m53 65 c0 -5 -10 -10 -22 -9 -22 0 -22 1 -3 9 11 5 21 9 23 9 1 1 2 -3 2
-9z m270 -60 c0 -40 -4 -70 -10 -70 -6 0 -10 30 -10 70 0 40 4 70 10 70 6 0
10 -30 10 -70z m70 60 c0 -7 6 -7 19 0 24 12 31 13 31 1 0 -5 -10 -11 -22 -13
-20 -3 -23 -10 -26 -60 -4 -82 -22 -72 -22 12 0 40 4 70 10 70 6 0 10 -5 10
-10z m438 -7 c11 -10 23 -28 27 -40 6 -22 3 -23 -44 -23 -43 0 -51 -3 -51 -19
0 -31 26 -46 56 -32 34 15 43 13 20 -4 -39 -30 -90 -9 -97 40 -5 35 11 76 34
85 31 12 32 12 55 -7z m148 -5 c3 -5 -5 -6 -20 -2 -14 3 -33 3 -41 0 -25 -9
-1 -42 35 -49 23 -5 30 -12 30 -30 0 -45 -47 -62 -86 -31 -19 15 -19 16 1 9
44 -16 52 -16 64 -1 18 21 0 44 -37 48 -37 4 -45 54 -11 67 25 9 56 4 65 -11z
m74 -54 c0 -36 -4 -64 -10 -64 -6 0 -10 30 -10 71 0 44 4 68 10 64 6 -3 10
-35 10 -71z m230 68 c0 -5 -18 -34 -41 -65 l-40 -57 40 0 c23 0 41 -4 41 -9 0
-8 -89 -3 -99 5 -2 2 13 25 33 52 20 27 36 52 36 56 0 3 -16 6 -36 6 -21 0
-33 4 -29 10 7 12 95 14 95 2z m455 -25 c26 -38 19 -47 -36 -47 -46 0 -50 -2
-47 -21 5 -32 33 -47 59 -31 11 7 23 11 26 8 3 -3 -7 -11 -22 -18 -22 -10 -32
-9 -53 3 -44 24 -43 106 0 126 29 13 55 6 73 -20z m75 -43 c0 -36 -4 -64 -10
-64 -6 0 -10 30 -10 71 0 44 4 68 10 64 6 -3 10 -35 10 -71z m62 -3 c-2 -34
-8 -61 -13 -61 -10 0 -12 123 -2 133 13 14 18 -11 15 -72z m66 63 c18 -12 22
-25 22 -70 0 -72 -18 -70 -22 4 -3 51 -6 57 -26 60 -12 2 -20 8 -17 13 8 13
17 11 43 -7z m157 -9 c40 -39 33 -55 -25 -55 -41 0 -50 -3 -50 -18 0 -40 40
-54 72 -25 10 9 18 12 18 7 0 -18 -24 -34 -51 -34 -59 0 -81 91 -33 129 34 27
40 26 69 -4z m360 13 c25 -11 34 -28 15 -28 -5 0 -10 5 -10 10 0 14 -43 13
-58 -2 -7 -7 -12 -29 -12 -50 0 -31 5 -40 23 -47 12 -5 29 -5 39 0 25 13 32
11 18 -6 -7 -8 -25 -15 -41 -15 -59 0 -82 91 -33 129 31 25 27 24 59 9z m310
-95 c3 -12 17 -26 32 -31 l28 -10 -26 -1 c-33 -1 -47 15 -49 59 -3 58 3 103 7
50 2 -25 5 -55 8 -67z m85 37 c0 -40 -4 -70 -10 -70 -11 0 -14 123 -3 133 12
13 13 7 13 -63z m121 60 c5 0 9 -4 9 -9 0 -5 -15 -8 -32 -7 -27 1 -33 -3 -33
-19 0 -14 8 -21 25 -23 32 -5 50 -20 50 -43 0 -35 -66 -53 -90 -24 -14 17 0
21 17 4 16 -16 53 -1 53 21 0 13 -10 22 -32 28 -17 4 -36 16 -42 26 -9 14 -6
21 13 37 13 11 31 17 38 14 8 -3 19 -5 24 -5z m142 -10 c5 -4 -9 -7 -29 -6
-29 1 -39 -3 -42 -16 -2 -12 6 -20 29 -25 40 -11 58 -36 43 -60 -15 -24 -54
-28 -79 -8 -20 17 -13 17 28 0 7 -3 21 1 32 10 20 15 20 15 1 30 -11 8 -27 15
-36 15 -38 0 -45 40 -12 68 15 12 48 8 65 -8z m135 0 c12 -12 22 -30 22 -40 0
-17 -7 -20 -50 -20 -54 0 -62 -10 -33 -42 20 -22 31 -23 55 -1 17 15 18 15 18
0 0 -10 -11 -19 -27 -23 -73 -19 -111 98 -42 133 31 16 32 16 57 -7z m-4015
-105 c3 -7 -2 -24 -12 -36 -17 -21 -17 -21 -13 15 4 37 16 47 25 21z m1241 6
c8 -12 -11 -61 -22 -61 -4 0 -6 16 -4 35 4 34 15 45 26 26z m-304 -336 c0 -63
-4 -105 -10 -105 -5 0 -10 5 -10 12 0 9 -3 9 -12 0 -19 -19 -55 -14 -72 10
-21 29 -20 67 0 97 13 18 24 22 50 19 33 -4 34 -3 34 34 0 21 5 38 10 38 6 0
10 -42 10 -105z m220 3 l0 -103 -43 -3 c-37 -2 -45 1 -57 22 -16 31 -16 82 1
103 8 9 25 13 46 11 29 -4 33 -1 34 22 1 14 1 31 0 38 -1 6 3 12 9 12 6 0 10
-38 10 -102z m220 87 c0 -8 -4 -15 -10 -15 -5 0 -10 7 -10 15 0 8 5 15 10 15
6 0 10 -7 10 -15z m680 -78 c0 -61 4 -97 13 -106 10 -10 8 -12 -8 -9 -18 3
-20 12 -23 106 -2 65 1 102 8 102 6 0 10 -36 10 -93z m70 -1 c0 -66 4 -96 13
-99 6 -2 9 -8 5 -12 -4 -4 -14 -5 -23 -2 -12 5 -15 25 -15 107 0 60 4 100 10
100 6 0 10 -38 10 -94z m-471 47 c6 -21 13 -57 17 -80 8 -49 19 -56 27 -15 13
70 33 132 42 129 10 -3 22 -36 46 -127 8 -30 14 -38 16 -25 14 75 37 155 44
155 5 0 9 -3 9 -7 -1 -17 -48 -185 -54 -191 -11 -10 -21 13 -41 96 l-18 77
-18 -60 c-9 -33 -20 -73 -23 -88 -11 -46 -28 -26 -47 54 -10 41 -21 84 -24 97
-3 12 -1 22 4 22 6 0 15 -17 20 -37z m701 -3 c0 -12 7 -20 18 -21 16 -1 16 -2
0 -6 -24 -6 -27 -113 -3 -113 8 0 15 -4 15 -10 0 -14 -23 -13 -38 2 -7 7 -12
36 -12 65 0 35 -4 53 -12 54 -10 0 -10 2 0 6 6 2 12 13 12 24 0 10 5 19 10 19
6 0 10 -9 10 -20z m-1820 -79 c0 -51 3 -61 20 -66 34 -11 50 12 50 71 0 30 5
54 10 54 6 0 10 -30 10 -70 0 -40 -4 -70 -10 -70 -5 0 -10 5 -10 12 0 9 -3 9
-12 0 -18 -18 -56 -14 -68 7 -13 25 -13 121 0 121 6 0 10 -26 10 -59z m223 53
c14 -4 17 -17 17 -71 0 -75 -13 -78 -16 -4 -2 58 -8 71 -34 71 -26 0 -38 -26
-35 -78 2 -23 -1 -44 -5 -47 -7 -4 -19 123 -12 129 5 5 67 5 85 0z m541 -10
c9 -8 16 -24 16 -35 0 -16 -7 -19 -50 -19 -55 0 -64 -14 -31 -44 20 -18 61
-14 61 5 0 6 5 7 10 4 19 -12 -11 -35 -45 -35 -41 0 -60 22 -60 70 0 21 7 45
14 54 17 20 65 21 85 0z m76 -54 c0 -40 -4 -70 -10 -70 -6 0 -10 30 -10 70 0
40 4 70 10 70 6 0 10 -30 10 -70z m150 50 c13 -24 13 -120 0 -120 -6 0 -10 26
-10 59 0 65 -8 76 -46 67 -22 -6 -24 -11 -24 -66 0 -33 -4 -60 -10 -60 -6 0
-10 29 -10 68 l0 68 45 2 c35 1 47 -3 55 -18z m438 11 c8 -5 14 -28 15 -57 0
-27 5 -52 11 -56 6 -4 7 -10 3 -14 -3 -4 -13 -2 -20 4 -9 8 -17 8 -24 1 -15
-15 -54 -7 -67 14 -17 27 4 51 48 55 28 2 36 7 34 19 -5 27 -35 40 -58 25 -19
-11 -28 -4 -13 11 9 10 55 8 71 -2z m310 -3 c5 -7 13 -23 16 -35 7 -22 5 -23
-48 -23 -60 0 -69 -10 -39 -42 18 -20 48 -24 58 -8 3 6 11 10 17 10 7 0 6 -6
-2 -15 -13 -16 -57 -20 -77 -7 -34 22 -37 103 -4 122 23 13 67 12 79 -2z m182
-113 c0 -8 -7 -15 -15 -15 -8 0 -15 7 -15 15 0 8 7 15 15 15 8 0 15 -7 15 -15z
m1530 -1609 c0 -12 -5 -7 -19 24 -11 24 -11 24 3 6 9 -11 16 -24 16 -30z m71
-67 c8 -15 8 -19 0 -15 -14 9 -15 -6 -1 -20 6 -6 5 -15 -1 -24 -9 -13 -10 -12
-5 2 3 10 1 20 -5 24 -5 3 -7 15 -3 26 4 15 3 18 -6 13 -9 -5 -11 -4 -6 3 10
16 14 15 27 -9z m-3561 -73 c0 -2 -7 -7 -16 -10 -8 -3 -12 -2 -9 4 6 10 25 14
25 6z m-127 -31 c-3 -9 -8 -14 -10 -11 -3 3 -2 9 2 15 9 16 15 13 8 -4z m3745
-23 c-7 -10 -14 -19 -15 -21 -3 -4 2 28 6 47 1 2 6 0 11 -3 8 -5 7 -12 -2 -23z
m-1095 3 c-3 -9 -8 -14 -10 -11 -3 3 -2 9 2 15 9 16 15 13 8 -4z m18 -8 c-10
-9 -11 -8 -5 6 3 10 9 15 12 12 3 -3 0 -11 -7 -18z m1113 -83 c3 -8 2 -12 -4
-9 -6 3 -10 10 -10 16 0 14 7 11 14 -7z m-3863 -27 c-10 -9 -11 -8 -5 6 3 10
9 15 12 12 3 -3 0 -11 -7 -18z m179 -32 c0 -2 -13 -11 -30 -20 -38 -19 -40
-11 -2 9 31 17 32 18 32 11z m3751 -12 c7 -10 9 -15 5 -11 -5 4 -16 2 -25 -5
-14 -10 -14 -10 -4 4 7 9 10 19 6 22 -3 4 -4 7 -1 7 3 0 12 -8 19 -17z m-3821
-29 c0 -8 -19 -13 -24 -6 -3 5 1 9 9 9 8 0 15 -2 15 -3z m38 -54 c-7 -10 -14
-17 -17 -15 -4 4 18 35 25 35 2 0 -1 -9 -8 -20z m-214 -16 c5 -14 4 -15 -9 -4
-17 14 -19 20 -6 20 5 0 12 -7 15 -16z m4076 -28 c0 -3 -4 -8 -10 -11 -5 -3
-10 -1 -10 4 0 6 5 11 10 11 6 0 10 -2 10 -4z m-3985 -46 c3 -6 -1 -7 -9 -4
-18 7 -21 14 -7 14 6 0 13 -4 16 -10z m4015 -45 c0 -12 -19 -12 -23 0 -4 9 -1
12 9 8 7 -3 14 -7 14 -8z m-3535 -35 c-3 -5 -12 -10 -18 -10 -7 0 -6 4 3 10
19 12 23 12 15 0z m815 6 c0 -3 -4 -8 -10 -11 -5 -3 -10 -1 -10 4 0 6 5 11 10
11 6 0 10 -2 10 -4z m-591 -60 c-3 -3 -11 5 -18 17 -13 21 -12 21 5 5 10 -10
16 -20 13 -22z m1752 17 c13 -16 12 -17 -3 -4 -10 7 -18 15 -18 17 0 8 8 3 21
-13z m-1816 -63 c3 -6 -1 -7 -9 -4 -18 7 -21 14 -7 14 6 0 13 -4 16 -10z
m-728 -152 c-3 -8 -6 -5 -6 6 -1 11 2 17 5 13 3 -3 4 -12 1 -19z m136 5 c-3
-7 -6 -13 -8 -13 -2 0 -5 6 -8 13 -3 8 1 14 8 14 7 0 11 -6 8 -14z m-189 -81
c3 -5 -1 -9 -9 -9 -8 0 -12 4 -9 9 3 4 7 8 9 8 2 0 6 -4 9 -8z m640 -14 c-3
-4 -11 -5 -19 -1 -21 7 -19 12 4 10 11 0 18 -5 15 -9z m-39 -46 c-3 -3 -11 0
-18 7 -9 10 -8 11 6 5 10 -3 15 -9 12 -12z m-667 -17 c-3 -3 -9 2 -12 12 -6
14 -5 15 5 6 7 -7 10 -15 7 -18z m120 -36 c-3 -8 -7 -3 -11 10 -4 17 -3 21 5
13 5 -5 8 -16 6 -23z m99 -35 c-3 -3 -12 -4 -19 -1 -8 3 -5 6 6 6 11 1 17 -2
13 -5z m-82 -14 c-3 -5 -12 -10 -18 -10 -7 0 -6 4 3 10 19 12 23 12 15 0z
m1612 -92 c-3 -8 -6 -5 -6 6 -1 11 2 17 5 13 3 -3 4 -12 1 -19z m-1977 -60
c15 -21 17 -28 6 -19 -16 13 -41 51 -33 51 2 0 14 -15 27 -32z m2935 -628 c4
-6 3 -10 -2 -9 -32 6 -41 -2 -38 -31 3 -18 0 -28 -6 -25 -5 4 -8 18 -6 32 3
22 12 30 44 42 1 1 5 -4 8 -9z m29 -26 c3 -8 2 -12 -4 -9 -6 3 -10 10 -10 16
0 14 7 11 14 -7z m-2302 -26 c-8 -8 -9 -4 -5 13 4 13 8 18 11 10 2 -7 -1 -18
-6 -23z m-1041 -391 c-10 -9 -11 -8 -5 6 3 10 9 15 12 12 3 -3 0 -11 -7 -18z
m1460 -774 c75 -45 43 -153 -46 -153 -37 0 -75 41 -75 82 0 38 6 48 40 71 31
21 45 21 81 0z m402 -14 c44 -54 6 -139 -63 -139 -47 0 -78 23 -86 65 -15 84
94 139 149 74z m369 4 c54 -48 16 -142 -58 -143 -58 0 -101 69 -73 119 28 50
90 61 131 24z m352 17 c14 -5 32 -23 41 -39 42 -83 -65 -162 -130 -96 -41 40
-26 113 29 135 28 12 31 12 60 0z m-3252 -1122 c-8 -8 -9 -4 -5 13 4 13 8 18
11 10 2 -7 -1 -18 -6 -23z m-15 -100 c-3 -8 -6 -5 -6 6 -1 11 2 17 5 13 3 -3
4 -12 1 -19z m3301 -197 c3 -17 -2 -21 -22 -21 -14 0 -28 5 -31 10 -8 13 -45
13 -45 -1 0 -5 5 -7 10 -4 6 3 10 3 10 -2 0 -4 14 -14 30 -21 17 -8 36 -20 44
-27 18 -19 8 -73 -17 -86 -29 -16 -105 -5 -122 17 -32 42 -2 65 40 32 30 -23
66 -18 45 7 -7 8 -19 15 -27 15 -8 0 -27 13 -43 28 -26 26 -27 30 -15 59 8 19
23 33 39 37 14 3 26 11 26 16 0 19 75 -37 78 -59z m-2096 48 c3 -9 10 -9 27 0
13 7 27 9 31 4 5 -4 9 -44 10 -88 2 -136 13 -122 -90 -124 -49 0 -95 -2 -102
-3 -10 -2 -14 24 -18 100 -6 116 -11 108 80 115 25 2 48 4 52 5 3 1 8 -3 10
-9z m158 -21 c0 -5 11 -25 24 -45 l25 -36 3 49 c3 44 5 49 26 49 23 0 24 -2
24 -92 0 -59 4 -93 11 -93 6 0 2 -6 -8 -14 -28 -20 -53 -6 -86 49 l-29 50 0
-51 c0 -45 -3 -52 -22 -57 -12 -4 -24 -4 -27 -2 -2 3 -4 51 -4 107 1 89 4 103
20 109 18 7 43 -6 43 -23z m970 -61 l5 -82 42 -3 c38 -3 43 0 48 21 4 13 5 50
3 83 l-3 59 72 5 c39 3 69 2 66 -2 -5 -10 11 -10 20 -1 7 7 146 5 158 -3 4 -2
5 -13 2 -24 -4 -14 -14 -20 -34 -20 l-29 0 0 -81 0 -80 -27 3 c-26 3 -26 3
-24 79 l2 77 -36 4 c-19 2 -38 2 -41 -1 -3 -3 -21 -4 -40 -2 -26 2 -34 -1 -34
-13 0 -12 10 -16 34 -16 38 0 50 -11 42 -38 -5 -14 -14 -17 -41 -14 -30 4 -35
1 -35 -17 0 -18 5 -21 35 -18 19 1 35 5 35 10 0 4 5 7 11 7 5 0 7 -4 4 -10 -3
-5 -2 -10 4 -10 10 0 9 -25 -2 -36 -4 -4 -35 -6 -70 -5 -123 6 -237 6 -237 1
0 -3 -29 -3 -65 -2 l-65 4 -1 89 c-1 49 -2 95 -3 102 -1 7 11 12 28 12 l29 0
-1 -71 c-1 -86 6 -99 47 -91 23 5 31 3 31 -8 0 -8 5 -15 10 -15 6 0 9 3 9 8
-1 4 -1 46 0 94 1 74 4 87 19 90 9 3 19 3 22 0 3 -2 7 -40 10 -85z m1305 66
c-1 -31 -10 -36 -50 -35 -24 1 -35 -3 -35 -13 0 -10 10 -13 36 -11 34 2 35 1
32 -28 -3 -29 -6 -31 -36 -28 -28 3 -33 1 -30 -15 3 -14 13 -18 41 -18 23 0
37 -5 37 -12 0 -23 16 -13 17 10 0 12 1 55 2 95 1 73 1 73 28 70 26 -3 26 -4
25 -75 -1 -80 3 -87 59 -89 31 -1 36 2 36 20 2 148 2 148 26 144 20 -3 22 -9
25 -80 2 -43 6 -79 10 -79 4 -1 24 -3 45 -4 44 -3 50 10 45 101 l-3 59 65 3
c52 2 67 0 77 -14 11 -15 13 -16 13 -2 0 23 28 30 53 13 12 -9 21 -19 20 -23
-1 -4 9 -25 22 -47 l23 -40 0 35 c-1 76 1 80 27 80 25 0 25 -1 27 -90 0 -49 1
-96 2 -102 1 -7 -11 -14 -25 -16 -22 -3 -31 5 -55 42 -31 48 -44 45 -44 -10 0
-23 -5 -33 -19 -37 -11 -3 -22 -3 -24 0 -9 8 -327 8 -327 0 0 -5 -5 -5 -10 -2
-6 3 -69 6 -140 6 l-130 0 0 85 c0 74 -2 85 -16 80 -9 -3 -27 -6 -40 -6 -23 0
-24 -2 -24 -80 0 -79 0 -80 -25 -80 -25 0 -25 1 -25 79 0 79 0 80 -27 83 -20
2 -28 9 -28 23 0 18 8 20 80 23 66 2 82 0 92 -14 12 -16 13 -16 13 -1 0 12 11
17 48 19 85 5 89 5 87 -19z m-2000 -8 c0 -16 -8 -21 -45 -25 -55 -6 -59 -24
-7 -28 33 -3 38 -6 35 -25 -2 -16 -12 -23 -36 -27 -18 -3 -33 -8 -32 -12 0 -5
0 -12 0 -18 0 -5 18 -10 39 -10 24 0 41 -5 44 -14 9 -22 -2 -26 -75 -26 l-68
0 0 105 0 106 73 -3 c64 -3 72 -5 72 -23z m121 -5 c2 -14 7 -36 10 -50 6 -22
8 -18 18 25 9 40 16 51 34 53 12 2 22 -2 22 -8 0 -6 5 -8 12 -4 7 4 8 3 4 -4
-8 -14 3 -82 13 -82 4 0 8 12 9 28 2 55 8 67 36 70 26 3 26 2 22 -40 -3 -24
-12 -67 -21 -96 -9 -29 -13 -56 -11 -61 3 -5 -8 -11 -24 -13 -27 -4 -30 -1
-36 29 -6 34 -20 50 -32 38 -3 -3 0 -10 8 -15 13 -8 13 -10 -1 -10 -9 0 -19
-9 -22 -20 -3 -13 -14 -20 -29 -20 -21 0 -26 7 -37 48 -6 26 -13 56 -15 67 -2
11 -7 32 -11 47 -9 34 1 50 27 46 14 -2 22 -12 24 -28z m315 -30 c10 -30 22
-56 28 -58 5 -2 8 -9 5 -17 -3 -7 -1 -16 5 -20 6 -3 11 -19 11 -34 0 -22 -4
-27 -22 -27 -13 1 -30 10 -38 21 -20 27 -49 30 -66 7 -7 -11 -24 -22 -38 -24
-22 -4 -24 -2 -23 28 1 17 6 29 11 26 5 -3 7 5 4 16 -4 12 -2 20 2 17 5 -3 16
19 25 47 31 95 69 102 96 18z m1011 49 c38 -10 38 -10 53 -82 2 -11 1 -16 -2
-13 -3 3 -12 -2 -20 -10 -13 -13 -12 -19 6 -50 l21 -35 -23 -8 c-24 -10 -47 3
-47 25 0 8 -5 14 -11 14 -5 0 -8 4 -5 9 3 5 -1 11 -9 15 -12 4 -15 -3 -15 -29
0 -31 -3 -35 -25 -35 -27 0 -26 -4 -29 106 l-1 61 -40 -4 c-22 -3 -46 -6 -53
-9 -24 -7 -1 -24 33 -24 33 0 46 -13 38 -37 -3 -7 -20 -13 -38 -13 -32 0 -54
-14 -41 -27 3 -3 23 -5 45 -5 44 1 55 -8 47 -36 -5 -14 -17 -17 -73 -16 l-68
2 -3 93 c-1 51 -1 98 2 106 6 16 199 17 258 2z m-3052 -459 c-9 -5 -6 -10 9
-15 13 -4 20 -9 18 -12 -8 -7 -44 15 -50 31 -4 10 0 12 15 8 13 -3 16 -7 8
-12z m5285 -10 c-3 -5 -12 -10 -18 -10 -7 0 -6 4 3 10 19 12 23 12 15 0z
m-4412 -645 c-3 -9 -8 -14 -10 -11 -3 3 -2 9 2 15 9 16 15 13 8 -4z m114 9
c-3 -3 -12 -4 -19 -1 -8 3 -5 6 6 6 11 1 17 -2 13 -5z m86 -9 c-3 -9 -8 -14
-10 -11 -3 3 -2 9 2 15 9 16 15 13 8 -4z m307 -4 c0 -4 -7 -8 -15 -8 -8 0 -15
6 -15 13 0 8 6 11 15 8 8 -4 15 -9 15 -13z m140 15 c0 -2 -7 -7 -16 -10 -8 -3
-12 -2 -9 4 6 10 25 14 25 6z m233 -3 c3 -5 -17 -8 -44 -8 -27 0 -49 3 -49 8
0 4 20 7 44 7 25 0 47 -3 49 -7z m144 1 c-3 -3 -12 -4 -19 -1 -8 3 -5 6 6 6
11 1 17 -2 13 -5z m85 -22 c-9 -10 -18 -14 -20 -10 -5 10 21 37 30 32 4 -3 0
-13 -10 -22z m98 24 c0 -3 -4 -8 -10 -11 -5 -3 -10 -1 -10 4 0 6 5 11 10 11 6
0 10 -2 10 -4z m79 -18 c0 -22 -1 -22 -9 -3 -5 12 -9 14 -9 6 -1 -8 -4 -12 -7
-8 -8 7 4 27 17 27 5 0 9 -10 8 -22z m94 15 c-7 -2 -19 -2 -25 0 -7 3 -2 5 12
5 14 0 19 -2 13 -5z m72 -3 c3 -6 -1 -7 -9 -4 -18 7 -21 14 -7 14 6 0 13 -4
16 -10z m102 4 c-3 -3 -12 -4 -19 -1 -8 3 -5 6 6 6 11 1 17 -2 13 -5z m703 -4
c0 -5 -4 -10 -10 -10 -5 0 -10 5 -10 10 0 6 5 10 10 10 6 0 10 -4 10 -10z
m120 -5 c0 -8 -2 -15 -4 -15 -2 0 -6 7 -10 15 -3 8 -1 15 4 15 6 0 10 -7 10
-15z m185 5 c-3 -5 -12 -10 -18 -10 -7 0 -6 4 3 10 19 12 23 12 15 0z m239 2
c2 -4 -12 -6 -32 -4 -62 6 -69 10 -20 11 26 0 49 -3 52 -7z m90 0 c-6 -4 -14
-14 -17 -22 -4 -10 -6 -8 -6 8 -1 15 5 22 17 22 10 0 13 -3 6 -8z m159 1 c-7
-2 -19 -2 -25 0 -7 3 -2 5 12 5 14 0 19 -2 13 -5z m337 -3 c0 -5 -4 -10 -10
-10 -5 0 -10 5 -10 10 0 6 5 10 10 10 6 0 10 -4 10 -10z m50 0 c0 -5 -4 -10
-10 -10 -5 0 -10 5 -10 10 0 6 5 10 10 10 6 0 10 -4 10 -10z m-3083 -6 c-3 -3
-12 -4 -19 -1 -8 3 -5 6 6 6 11 1 17 -2 13 -5z m2107 -2 c2 -4 -11 -6 -30 -4
-19 2 -34 6 -34 8 0 8 59 4 64 -4z m-2357 -8 c-3 -3 -12 -4 -19 -1 -8 3 -5 6
6 6 11 1 17 -2 13 -5z m930 0 c-3 -3 -12 -4 -19 -1 -8 3 -5 6 6 6 11 1 17 -2
13 -5z m658 -4 c-3 -5 -12 -10 -18 -10 -7 0 -6 4 3 10 19 12 23 12 15 0z m955
0 c0 -5 -2 -10 -4 -10 -3 0 -8 5 -11 10 -3 6 -1 10 4 10 6 0 11 -4 11 -10z
m-1036 -11 c-2 -4 2 -10 8 -12 7 -3 8 -6 2 -6 -5 -1 -18 5 -28 12 -16 12 -16
13 3 13 11 0 18 -3 15 -7z m-1697 -21 c-3 -8 -6 -5 -6 6 -1 11 2 17 5 13 3 -3
4 -12 1 -19z m3622 4 c7 -13 6 -19 -2 -19 -7 0 -13 9 -13 19 0 10 1 18 3 18 1
0 7 -8 12 -18z m-1162 -14 c-3 -8 -6 -5 -6 6 -1 11 2 17 5 13 3 -3 4 -12 1
-19z m-2200 -20 c-3 -8 -6 -5 -6 6 -1 11 2 17 5 13 3 -3 4 -12 1 -19z m320
-10 c-3 -7 -5 -2 -5 12 0 14 2 19 5 13 2 -7 2 -19 0 -25z m1973 17 c-7 -9 -15
-13 -17 -11 -7 7 7 26 19 26 6 0 6 -6 -2 -15z m115 5 c3 -5 1 -10 -4 -10 -6 0
-11 5 -11 10 0 6 2 10 4 10 3 0 8 -4 11 -10z m-1860 -10 c3 -5 1 -10 -4 -10
-6 0 -11 5 -11 10 0 6 2 10 4 10 3 0 8 -4 11 -10z m372 -12 c-3 -8 -6 -5 -6 6
-1 11 2 17 5 13 3 -3 4 -12 1 -19z m633 12 c-8 -5 -19 -10 -25 -10 -5 0 -3 5
5 10 8 5 20 10 25 10 6 0 3 -5 -5 -10z m217 4 c-3 -3 -12 -4 -19 -1 -8 3 -5 6
6 6 11 1 17 -2 13 -5z m350 0 c-3 -3 -12 -4 -19 -1 -8 3 -5 6 6 6 11 1 17 -2
13 -5z m673 -4 c0 -5 -8 -10 -17 -10 -15 0 -16 2 -3 10 19 12 20 12 20 0z
m443 3 c-7 -2 -21 -2 -30 0 -10 3 -4 5 12 5 17 0 24 -2 18 -5z m-1516 -9 c-3
-3 -12 -4 -19 -1 -8 3 -5 6 6 6 11 1 17 -2 13 -5z m759 -51 c-3 -4 -6 -1 -6 5
0 7 -7 12 -15 12 -9 0 -12 6 -8 15 5 13 8 12 20 -5 8 -12 12 -24 9 -27z
m-2456 2 c0 -5 -5 -3 -10 5 -5 8 -10 20 -10 25 0 6 5 3 10 -5 5 -8 10 -19 10
-25z m157 13 c2 -17 0 -19 -7 -8 -5 8 -6 18 -4 22 8 12 10 10 11 -14z m1853
-23 c0 -8 -4 -15 -8 -15 -5 0 -9 7 -9 15 0 8 4 15 9 15 4 0 8 -7 8 -15z m335
5 c3 -5 2 -10 -4 -10 -5 0 -13 5 -16 10 -3 6 -2 10 4 10 5 0 13 -4 16 -10z
m-2041 -8 c2 -4 -5 -9 -17 -9 -17 -2 -19 0 -7 7 18 12 18 12 24 2z m581 -2
c-3 -5 -12 -10 -18 -10 -7 0 -6 4 3 10 19 12 23 12 15 0z m105 0 c0 -5 -5 -10
-11 -10 -5 0 -7 5 -4 10 3 6 8 10 11 10 2 0 4 -4 4 -10z m320 -11 c0 -5 -4 -9
-8 -9 -5 0 -9 7 -9 15 0 8 4 12 9 9 4 -3 8 -9 8 -15z m1691 3 c-7 -2 -18 1
-23 6 -8 8 -4 9 13 5 13 -4 18 -8 10 -11z m-3057 -7 c3 -8 1 -15 -4 -15 -6 0
-10 7 -10 15 0 8 2 15 4 15 2 0 6 -7 10 -15z m146 5 c0 -5 -8 -10 -17 -10 -15
0 -16 2 -3 10 19 12 20 12 20 0z m68 -15 c-3 -3 -9 2 -12 12 -6 14 -5 15 5 6
7 -7 10 -15 7 -18z m495 18 c-7 -2 -19 -2 -25 0 -7 3 -2 5 12 5 14 0 19 -2 13
-5z m709 -8 c0 -5 -5 -10 -12 -11 -7 -2 -6 -1 1 3 8 4 7 8 -2 15 -11 8 -11 9
-1 6 8 -2 14 -8 14 -13z m1878 -6 c0 -5 -4 -9 -8 -9 -5 0 -9 7 -9 15 0 8 4 12
9 9 4 -3 8 -9 8 -15z m-2085 1 c3 -6 -1 -7 -9 -4 -18 7 -21 14 -7 14 6 0 13
-4 16 -10z m105 0 c0 -5 -8 -10 -17 -10 -15 0 -16 2 -3 10 19 12 20 12 20 0z
m385 -8 c-3 -3 -11 0 -18 7 -9 10 -8 11 6 5 10 -3 15 -9 12 -12z m1115 8 c0
-5 -2 -10 -4 -10 -3 0 -8 5 -11 10 -3 6 -1 10 4 10 6 0 11 -4 11 -10z m180 0
c0 -5 -8 -10 -17 -10 -15 0 -16 2 -3 10 19 12 20 12 20 0z m-527 -7 c-7 -2
-21 -2 -30 0 -10 3 -4 5 12 5 17 0 24 -2 18 -5z m630 0 c-7 -2 -21 -2 -30 0
-10 3 -4 5 12 5 17 0 24 -2 18 -5z"/>
<path d="M1107 11243 c-4 -3 -7 -30 -7 -59 0 -43 4 -54 19 -59 30 -9 50 5 56
39 9 45 -9 86 -38 86 -13 0 -27 -3 -30 -7z"/>
<path d="M1342 11238 c-21 -21 -13 -28 28 -28 22 0 40 4 40 8 0 14 -23 32 -40
32 -9 0 -21 -5 -28 -12z"/>
<path d="M3060 11231 c-24 -45 -3 -111 35 -111 8 0 21 10 29 22 31 44 13 108
-29 108 -14 0 -29 -8 -35 -19z"/>
<path d="M3510 11231 c-10 -20 -8 -21 30 -21 34 0 41 3 38 18 -5 26 -54 28
-68 3z"/>
<path d="M4096 11241 c-12 -18 -9 -90 4 -106 17 -21 47 -19 60 4 14 27 13 84
-2 99 -14 14 -54 16 -62 3z"/>
<path d="M4842 11238 c-15 -15 -16 -72 -2 -99 24 -44 74 -11 72 48 -2 55 -39
82 -70 51z"/>
<path d="M5290 11230 c-10 -18 -8 -20 30 -20 41 0 49 7 28 28 -18 18 -46 14
-58 -8z"/>
<path d="M1577 10693 c-4 -3 -7 -30 -7 -59 0 -44 3 -54 20 -59 41 -13 71 45
51 98 -10 26 -47 38 -64 20z"/>
<path d="M2276 10685 c-11 -30 -6 -83 9 -98 8 -9 24 -13 35 -10 19 5 21 12 18
62 -3 52 -5 56 -29 59 -17 2 -29 -3 -33 -13z"/>
<path d="M3396 10685 c-17 -45 3 -116 32 -115 25 1 33 21 30 71 -3 50 -5 54
-29 57 -17 2 -29 -3 -33 -13z"/>
<path d="M1806 10685 c-9 -25 -9 -25 30 -25 28 0 35 3 32 18 -4 23 -53 29 -62
7z"/>
<path d="M2510 10681 c-10 -20 -8 -21 30 -21 34 0 41 3 38 18 -5 26 -54 28
-68 3z"/>
<path d="M3070 10681 c-10 -20 -8 -21 30 -21 34 0 41 3 38 18 -5 26 -54 28
-68 3z"/>
<path d="M3741 10681 c-16 -29 -13 -77 5 -95 37 -37 66 -8 62 61 -3 44 -5 48
-30 51 -18 2 -30 -3 -37 -17z"/>
<path d="M4220 10615 c-16 -19 -6 -45 18 -45 23 0 42 19 42 42 0 22 -42 25
-60 3z"/>
<path d="M4550 10681 c-10 -20 -8 -21 30 -21 34 0 41 3 38 18 -5 26 -54 28
-68 3z"/>
<path d="M1856 10154 c-25 -25 -19 -34 24 -34 44 0 55 21 21 40 -25 13 -27 13
-45 -6z"/>
<path d="M2817 10152 c-21 -23 -22 -85 -3 -102 8 -6 25 -10 38 -8 20 3 23 10
26 53 3 38 -1 52 -14 62 -23 17 -28 16 -47 -5z"/>
<path d="M3057 10159 c-30 -17 -20 -39 18 -39 24 0 35 5 35 15 0 21 -32 35
-53 24z"/>
<path d="M4030 10162 c-16 -5 -30 -21 -30 -34 0 -5 18 -8 40 -8 28 0 40 4 40
15 0 18 -30 34 -50 27z"/>
<path d="M2576 10148 c-20 -66 -10 -108 27 -108 13 0 28 5 35 12 13 13 16 66
6 92 -7 19 -63 22 -68 4z"/>
<path d="M4550 10162 c-16 -5 -30 -21 -30 -34 0 -5 18 -8 40 -8 28 0 40 4 40
15 0 18 -30 34 -50 27z"/>
<path d="M2531 9591 c-28 -51 8 -113 51 -90 15 8 18 19 16 57 -3 43 -5 47 -30
50 -18 2 -30 -3 -37 -17z"/>
<path d="M2987 9604 c-13 -13 -7 -91 7 -103 18 -15 52 0 60 26 11 34 -8 78
-35 81 -14 2 -28 0 -32 -4z"/>
<path d="M752 9598 c-24 -24 -13 -38 28 -38 43 0 45 2 30 31 -12 21 -40 25
-58 7z"/>
<path d="M1134 9535 c-8 -20 2 -45 18 -45 20 0 35 13 42 38 7 20 4 22 -24 22
-18 0 -33 -6 -36 -15z"/>
<path d="M1734 9535 c-8 -20 2 -45 18 -45 22 0 38 15 43 38 3 19 -1 22 -26 22
-17 0 -32 -6 -35 -15z"/>
<path d="M2216 9594 c-11 -29 -6 -34 34 -34 43 0 45 2 30 31 -13 23 -55 25
-64 3z"/>
<path d="M3136 9594 c-11 -29 -6 -34 34 -34 43 0 45 2 30 31 -13 23 -55 25
-64 3z"/>
<path d="M4032 9598 c-24 -24 -13 -38 28 -38 43 0 45 2 30 31 -12 21 -40 25
-58 7z"/>
<path d="M4402 9598 c-24 -24 -13 -38 28 -38 26 0 40 5 40 13 0 18 -21 37 -40
37 -9 0 -21 -5 -28 -12z"/>
<path d="M5551 9591 c-16 -29 -15 -31 30 -31 36 0 40 2 37 23 -4 30 -52 37
-67 8z"/>
<path d="M2450 9181 c-30 -57 17 -130 58 -89 18 18 15 95 -4 102 -27 10 -43 7
-54 -13z"/>
<path d="M2683 9192 c-7 -4 -15 -23 -17 -41 -5 -41 22 -76 51 -67 23 7 31 36
23 81 -5 31 -32 43 -57 27z"/>
<path d="M2836 9184 c-25 -25 -19 -34 24 -34 41 0 52 14 28 38 -16 16 -33 15
-52 -4z"/>
<path d="M3512 9131 c-19 -12 -11 -45 12 -49 20 -4 46 21 46 45 0 15 -38 17
-58 4z"/>
<path d="M3806 9184 c-26 -25 -19 -34 29 -34 38 0 43 2 38 18 -13 34 -42 41
-67 16z"/>
<path d="M1620 2986 c0 -10 -14 -16 -42 -18 -51 -4 -53 -22 -3 -26 30 -3 35
-7 35 -28 0 -21 -5 -24 -34 -24 -34 0 -55 -14 -42 -28 4 -3 25 -6 46 -5 28 1
42 -3 49 -15 7 -12 10 9 10 71 0 48 -5 87 -10 87 -5 0 -9 -6 -9 -14z"/>
<path d="M4463 2973 c-55 -5 -61 -33 -8 -33 31 0 35 -3 35 -25 0 -22 -4 -25
-36 -25 -28 0 -35 -3 -32 -17 2 -13 13 -18 41 -18 23 0 41 -6 47 -15 7 -10 10
10 10 63 0 42 -3 76 -7 75 -5 -1 -27 -3 -50 -5z"/>
<path d="M2445 2920 c4 -7 2 -16 -6 -21 -11 -7 -10 -9 4 -9 19 0 23 25 5 36
-7 5 -8 3 -3 -6z"/>
<path d="M3450 2949 c0 -21 34 -27 45 -8 9 13 3 19 -24 24 -16 3 -21 -1 -21
-16z"/>
</g>
</svg>
