<?xml version="1.0" standalone="no"?>
<!DOCTYPE svg PUBLIC "-//W3C//DTD SVG 20010904//EN"
 "http://www.w3.org/TR/2001/REC-SVG-20010904/DTD/svg10.dtd">
<svg version="1.0" xmlns="http://www.w3.org/2000/svg"
 width="591.000000pt" height="1280.000000pt" viewBox="0 0 591.000000 1280.000000"
 preserveAspectRatio="xMidYMid meet">
<metadata>
Created by potrace 1.16, written by Peter Selinger 2001-2019
</metadata>
<g transform="translate(0.000000,1280.000000) scale(0.100000,-0.100000)"
fill="#000000" stroke="none">
<path d="M0 6400 l0 -6400 2955 0 2955 0 0 6400 0 6400 -2955 0 -2955 0 0
-6400z m5465 6065 l0 -60 -129 -3 c-86 -2 -133 1 -142 9 -17 14 -18 91 -2 107
9 9 50 12 143 10 l130 -3 0 -60z m-3279 -443 c21 -14 36 -54 29 -80 -11 -45
-34 -62 -82 -62 l-43 0 0 75 0 75 43 0 c23 0 47 -4 53 -8z m1180 -16 c3 -14 3
-30 -1 -35 -3 -6 -1 -20 5 -31 20 -37 -3 -60 -60 -60 l-50 0 0 75 0 75 50 0
c44 0 50 -3 56 -24z m-751 -1137 c4 -11 2 -26 -5 -34 -7 -9 -8 -15 0 -20 14
-8 13 -48 -2 -63 -7 -7 -31 -12 -55 -12 l-43 0 0 73 c0 41 2 76 4 78 3 2 25 3
50 1 34 -3 47 -9 51 -23z m707 4 c11 -10 18 -30 18 -55 0 -51 -27 -78 -80 -78
l-40 0 0 73 c0 41 2 76 5 79 11 10 80 -3 97 -19z m2125 -1992 c-161 -5 -200
-9 -207 -21 -15 -23 -13 -403 2 -418 9 -9 69 -12 209 -12 166 0 200 2 213 16
24 23 24 395 0 418 -8 9 -11 16 -5 16 25 0 31 -47 31 -227 0 -154 -3 -193 -16
-211 -15 -21 -20 -22 -216 -22 -173 0 -204 2 -220 17 -16 15 -18 35 -18 213 0
200 3 220 40 233 8 3 98 5 200 4 l185 -1 -198 -5z m-4904 -31 l37 -20 42 21
c62 32 162 24 220 -17 63 -44 93 -103 93 -184 0 -55 -5 -72 -29 -111 -16 -25
-50 -59 -75 -75 -60 -38 -155 -41 -214 -7 l-37 22 -33 -19 c-83 -49 -186 -34
-258 39 -67 67 -85 143 -54 232 19 52 37 74 94 111 38 23 55 28 111 28 46 0
76 -6 103 -20z m697 -130 c0 -17 -7 -20 -40 -20 -29 0 -40 -4 -40 -15 0 -10
11 -15 35 -15 28 0 35 -4 35 -20 0 -16 -7 -20 -35 -20 -24 0 -35 -5 -35 -15 0
-11 11 -15 40 -15 33 0 40 -3 40 -20 0 -18 -7 -20 -60 -20 l-60 0 0 83 c0 46
3 87 7 90 3 4 30 7 60 7 46 0 53 -2 53 -20z m218 -18 c3 -28 7 -32 32 -32 25
0 29 4 32 32 2 22 9 34 21 36 15 3 17 -6 17 -87 0 -84 -1 -91 -20 -91 -16 0
-20 7 -20 35 0 32 -2 35 -30 35 -28 0 -30 -3 -30 -35 0 -28 -4 -35 -20 -35
-19 0 -20 7 -20 91 0 81 2 90 18 87 11 -2 18 -14 20 -36z m365 7 c24 -29 22
-90 -4 -123 -17 -22 -28 -26 -70 -26 l-49 0 0 91 0 92 53 -6 c36 -5 57 -13 70
-28z m2948 -654 c-17 -20 -31 -38 -31 -40 0 -3 13 -2 29 1 34 7 71 -23 71 -56
0 -22 -41 -70 -60 -70 -16 0 -53 21 -62 34 -12 17 -9 75 3 99 17 33 51 67 67
67 9 0 3 -13 -17 -35z m214 15 c20 -22 24 -114 6 -148 -13 -24 -55 -36 -81
-22 -41 22 -51 138 -14 175 22 21 67 19 89 -5z m105 -1400 c19 -19 20 -33 20
-215 0 -182 -1 -196 -20 -215 -19 -19 -33 -20 -215 -20 -182 0 -196 1 -215 20
-19 19 -20 33 -20 213 0 158 3 197 16 215 15 21 20 22 215 22 186 0 200 -1
219 -20z m580 0 c19 -19 20 -33 20 -215 0 -182 -1 -196 -20 -215 -19 -19 -33
-20 -213 -20 -160 0 -197 3 -213 16 -18 15 -18 15 3 5 13 -7 99 -11 212 -11
159 0 192 3 205 16 24 23 24 395 0 418 -13 13 -46 16 -207 16 -106 0 -199 -5
-207 -10 -12 -7 -16 -47 -20 -212 l-6 -203 -2 198 c-2 185 -1 198 18 217 19
19 33 20 215 20 182 0 196 -1 215 -20z m-5130 -18 l42 -20 35 21 c26 15 53 21
97 21 236 -1 312 -309 102 -416 -55 -28 -139 -29 -196 0 -37 18 -45 19 -64 7
-75 -48 -185 -38 -256 22 -126 108 -98 297 54 370 61 29 122 27 186 -5z m691
-123 c15 -8 20 -19 18 -44 -2 -19 0 -37 4 -41 12 -13 8 -52 -9 -68 -10 -11
-34 -16 -70 -16 l-54 0 0 90 0 90 46 0 c25 0 54 -5 65 -11z m563 -10 c22 -17
26 -28 26 -69 0 -62 -30 -90 -96 -90 l-44 0 0 90 0 90 44 0 c29 0 52 -7 70
-21z m-1249 -2066 l37 -19 46 24 c38 19 57 23 103 19 119 -10 196 -87 206
-206 4 -47 0 -64 -24 -111 -39 -77 -93 -113 -177 -118 -49 -3 -74 1 -110 17
l-48 21 -40 -21 c-62 -32 -162 -24 -220 16 -50 35 -98 120 -98 174 0 92 63
186 145 217 50 18 130 12 180 -13z m617 -180 c3 -65 4 -68 28 -68 24 0 25 3
28 68 3 59 5 67 22 67 18 0 20 -7 20 -70 0 -80 -19 -110 -68 -110 -53 0 -66
20 -70 104 -4 71 -3 76 16 76 19 0 21 -7 24 -67z m391 56 c31 -17 37 -28 37
-75 0 -60 -24 -85 -88 -92 l-52 -5 0 92 0 91 41 0 c22 0 50 -5 62 -11z m415
-9 c16 -15 22 -32 22 -64 0 -62 -22 -85 -87 -93 l-53 -6 0 92 0 91 48 0 c35 0
54 -6 70 -20z m3124 -2047 c16 -15 18 -35 18 -214 0 -166 -2 -200 -16 -213
-23 -24 -415 -24 -438 0 -24 24 -24 399 1 426 15 16 35 18 216 18 172 0 203
-2 219 -17z m583 -7 c23 -35 18 -412 -5 -426 -8 -5 -106 -10 -217 -10 -170 0
-204 2 -217 16 -24 24 -24 399 1 426 15 16 35 18 219 18 l204 0 15 -24z
m-5138 -7 c42 -20 44 -21 81 -3 100 48 222 17 281 -72 53 -80 53 -168 0 -248
-58 -87 -181 -121 -276 -75 l-43 21 -45 -22 c-66 -32 -154 -26 -215 15 -66 44
-103 120 -97 198 8 93 74 180 153 200 48 12 120 6 161 -14z m704 -138 c19 -15
24 -28 23 -65 -1 -66 -23 -86 -91 -86 l-53 0 0 85 0 85 49 0 c33 0 56 -6 72
-19z m173 3 c33 -32 32 -118 0 -145 -26 -22 -84 -16 -105 10 -23 29 -25 98 -3
129 18 27 84 31 108 6z m186 1 c21 -25 -3 -42 -34 -25 -33 17 -56 -1 -56 -44
0 -42 13 -58 40 -54 27 3 40 28 16 28 -9 0 -16 8 -16 19 0 16 6 19 33 17 31
-2 32 -4 35 -49 3 -46 2 -47 -25 -46 -15 0 -37 -2 -48 -6 -14 -4 -30 1 -48 15
-23 18 -27 29 -27 69 0 66 20 91 74 91 27 0 48 -6 56 -15z m420 -5 c14 -14 20
-33 20 -67 0 -65 -19 -83 -87 -83 l-53 0 0 85 0 85 50 0 c37 0 55 -5 70 -20z
m3180 -1135 c0 -6 -4 -16 -10 -23 -7 -9 -7 -9 1 -3 8 6 17 5 26 -5 8 -8 24
-12 37 -8 29 7 51 -34 30 -54 -18 -17 -18 -48 1 -56 9 -3 12 -12 9 -21 -4 -9
-13 -14 -22 -10 -12 5 -13 3 -2 -10 12 -14 10 -15 -13 -10 -27 7 -62 -9 -53
-24 3 -4 1 -13 -3 -20 -13 -20 -51 -4 -62 26 -8 22 -14 25 -39 19 -23 -4 -32
-1 -41 16 -6 11 -7 23 -2 27 12 8 47 65 36 58 -4 -3 -16 1 -26 8 -15 11 -17
17 -7 35 9 17 17 20 40 15 24 -5 30 -2 41 24 10 22 20 30 36 29 13 -2 23 -7
23 -13z m-4372 -1 c12 -4 22 -14 22 -23 0 -14 -2 -14 -10 -1 -6 10 -10 11 -10
3 0 -9 -15 -11 -50 -9 -69 6 -79 -6 -75 -89 3 -55 1 -65 -13 -66 -40 -2 38
-17 95 -18 61 -1 88 -13 57 -25 -9 -3 -60 -6 -114 -6 -80 0 -99 3 -104 16 -10
26 -7 184 4 205 9 16 22 19 93 19 45 0 92 -3 105 -6z"/>
<path d="M680 8776 c-6 -8 -17 -13 -25 -10 -22 9 -27 -14 -5 -26 11 -6 20 -17
20 -25 0 -23 -28 -18 -35 6 -8 23 -30 20 -30 -4 0 -9 -6 -22 -13 -29 -22 -22
-13 -27 43 -21 46 5 55 3 55 -10 0 -22 -39 -31 -74 -18 -35 14 -36 14 -36 -3
0 -8 7 -17 16 -20 9 -3 14 -13 10 -21 -8 -21 15 -31 26 -11 10 17 38 22 38 6
0 -5 -9 -14 -20 -20 -24 -13 -18 -30 11 -30 10 0 19 -4 19 -10 0 -5 20 -10 45
-10 38 0 50 6 85 38 36 35 40 44 40 88 0 61 -28 110 -75 130 -52 21 -55 19
-55 -41 0 -35 -4 -55 -11 -55 -8 0 -10 17 -6 55 6 56 -1 67 -23 41z"/>
<path d="M4666 6664 c-13 -13 -16 -46 -16 -209 0 -163 3 -196 16 -209 23 -24
395 -24 418 0 24 23 24 395 0 418 -13 13 -46 16 -209 16 -163 0 -196 -3 -209
-16z"/>
<path d="M680 6580 c0 -5 -8 -10 -18 -10 -30 0 -35 -13 -11 -31 12 -9 19 -21
15 -28 -11 -17 -24 -13 -31 10 -7 21 -32 21 -27 -1 2 -7 -5 -21 -14 -31 -22
-25 -14 -32 20 -19 15 5 38 7 52 4 33 -8 31 -34 -3 -35 -38 -2 -35 -2 -60 6
-17 4 -23 2 -23 -8 0 -9 6 -17 12 -19 7 -3 13 -13 13 -23 0 -26 22 -30 30 -6
7 23 20 27 31 10 4 -7 -3 -19 -15 -28 -24 -18 -19 -31 11 -31 10 0 18 -4 18
-10 0 -5 7 -10 15 -10 11 0 13 10 8 49 -3 31 -1 51 6 55 8 5 11 -10 11 -48 0
-62 8 -68 60 -41 62 32 90 120 57 185 -15 29 -72 70 -98 70 -16 0 -19 -8 -19
-56 0 -38 -3 -53 -11 -48 -7 4 -9 24 -6 55 5 39 3 49 -8 49 -8 0 -15 -4 -15
-10z"/>
<path d="M680 4380 c0 -5 -11 -10 -25 -10 -30 0 -33 -20 -5 -27 23 -6 27 -33
5 -33 -7 0 -18 7 -23 16 -11 20 -34 10 -26 -11 4 -8 -1 -18 -10 -21 -9 -3 -16
-13 -16 -21 0 -11 5 -13 18 -7 31 14 87 10 87 -6 0 -12 -12 -15 -52 -14 -54 2
-62 -3 -41 -24 7 -7 13 -20 13 -29 0 -24 22 -27 30 -4 7 24 35 29 35 6 0 -8
-9 -19 -20 -25 -22 -12 -17 -35 5 -26 8 3 19 -2 25 -10 28 -33 118 -4 150 48
13 21 20 51 20 82 0 43 -4 53 -39 87 -25 25 -48 39 -65 39 -25 0 -26 -2 -26
-56 0 -38 -3 -53 -11 -48 -7 4 -9 25 -7 55 4 37 2 49 -8 49 -8 0 -14 -4 -14
-10z"/>
<path d="M4662 2268 c-17 -17 -17 -399 0 -416 9 -9 70 -12 215 -12 190 0 203
1 213 19 6 12 10 95 10 201 0 106 -4 189 -10 201 -10 18 -23 19 -213 19 -145
0 -206 -3 -215 -12z"/>
<path d="M5242 2268 c-9 -9 -12 -69 -12 -208 0 -139 3 -199 12 -208 9 -9 70
-12 215 -12 190 0 203 1 213 19 6 12 10 95 10 201 0 106 -4 189 -10 201 -10
18 -23 19 -213 19 -145 0 -206 -3 -215 -12z"/>
<path d="M686 2185 c-9 -9 -23 -15 -32 -13 -25 4 -29 -19 -5 -27 12 -3 21 -13
21 -21 0 -21 -23 -17 -39 7 -10 17 -15 19 -21 9 -5 -7 -6 -19 -4 -25 3 -7 -2
-15 -10 -18 -21 -8 -21 -66 -1 -73 10 -4 13 -13 10 -24 -8 -26 12 -34 25 -10
6 11 17 20 25 20 23 0 18 -28 -6 -35 -26 -8 -19 -31 8 -27 11 2 23 -4 26 -13
14 -35 25 -12 20 40 -4 38 -2 55 6 55 7 0 11 -21 11 -56 0 -61 -3 -59 67 -33
84 31 80 205 -5 237 -65 24 -62 26 -62 -33 0 -35 -4 -55 -11 -55 -8 0 -10 17
-5 55 3 30 4 55 2 55 -3 0 -12 -7 -20 -15z"/>
</g>
</svg>
