<?xml version="1.0" standalone="no"?>
<!DOCTYPE svg PUBLIC "-//W3C//DTD SVG 20010904//EN"
 "http://www.w3.org/TR/2001/REC-SVG-20010904/DTD/svg10.dtd">
<svg version="1.0" xmlns="http://www.w3.org/2000/svg"
 width="591.000000pt" height="1280.000000pt" viewBox="0 0 591.000000 1280.000000"
 preserveAspectRatio="xMidYMid meet">

<g transform="translate(0.000000,1280.000000) scale(0.100000,-0.100000)"
fill="#000000" stroke="none">
<path d="M0 6400 l0 -6400 2955 0 2955 0 0 6400 0 6400 -2955 0 -2955 0 0
-6400z m730 6095 c0 -30 5 -55 10 -55 6 0 10 -7 10 -15 0 -8 -4 -15 -10 -15
-5 0 -10 -7 -10 -15 0 -8 -7 -15 -15 -15 -8 0 -15 7 -15 15 0 11 -11 15 -40
15 -51 0 -51 13 -5 85 23 37 41 55 55 55 18 0 20 -7 20 -55z m211 45 c21 -12
26 -56 7 -62 -9 -3 -8 -9 5 -22 9 -10 17 -24 17 -31 0 -43 -82 -61 -114 -26
-24 26 -1 39 25 15 15 -14 24 -16 37 -7 23 14 21 37 -3 41 -34 7 -40 21 -12
31 35 13 36 41 2 41 -14 0 -25 -4 -25 -10 0 -5 -7 -10 -15 -10 -21 0 -19 27 3
39 22 13 48 14 73 1z m153 -6 c19 -19 20 -36 4 -52 -9 -9 -9 -15 0 -24 7 -7
12 -21 12 -33 0 -12 -5 -26 -12 -33 -17 -17 -74 -15 -92 4 -20 20 -20 34 -1
34 8 0 15 -4 15 -9 0 -13 27 -21 45 -15 23 9 18 42 -7 46 -30 4 -34 26 -6 30
32 4 37 38 6 38 -13 0 -29 -5 -35 -11 -6 -6 -17 -9 -24 -7 -20 7 27 48 55 48
14 0 32 -7 40 -16z m3934 -4 c17 -11 32 -24 32 -28 0 -19 -14 -20 -43 -5 -40
20 -100 20 -132 -1 -25 -16 -45 -14 -45 5 0 20 66 49 110 49 27 0 58 -8 78
-20z m437 -65 l0 -60 -129 -3 c-86 -2 -133 1 -142 9 -17 14 -18 91 -2 107 9 9
50 12 143 10 l130 -3 0 -60z m-4655 40 c0 -8 -7 -15 -15 -15 -8 0 -15 7 -15
15 0 8 7 15 15 15 8 0 15 -7 15 -15z m4196 -29 c28 -21 7 -40 -29 -27 -18 7
-36 7 -54 0 -18 -7 -30 -6 -37 1 -17 17 21 40 64 40 20 0 45 -6 56 -14z
m-4198 -53 c-5 -25 -28 -28 -28 -4 0 12 6 21 16 21 9 0 14 -7 12 -17z m4172
-7 c0 -7 -7 -19 -15 -26 -12 -10 -18 -10 -30 0 -25 21 -18 40 15 40 19 0 30
-5 30 -14z m-2030 -423 l0 -46 23 21 c30 28 58 30 32 2 -16 -18 -16 -20 5 -55
21 -34 21 -35 1 -35 -11 0 -22 9 -26 20 -3 11 -11 20 -17 20 -5 0 -12 -9 -15
-20 -12 -44 -35 -3 -28 50 2 14 4 40 4 58 1 51 21 37 21 -15z m210 32 c0 -8
-7 -15 -15 -15 -8 0 -15 7 -15 15 0 8 7 15 15 15 8 0 15 -7 15 -15z m-810 -4
c0 -5 -10 -11 -22 -13 -21 -3 -23 -9 -26 -65 -2 -47 -7 -63 -17 -63 -12 0 -15
15 -15 65 0 58 -2 65 -20 65 -11 0 -20 5 -20 10 0 6 27 10 60 10 33 0 60 -4
60 -9z m730 -6 c0 -9 7 -18 15 -21 8 -4 15 -10 15 -15 0 -5 -7 -9 -15 -9 -10
0 -15 -11 -15 -35 0 -24 5 -35 15 -35 8 0 15 -5 15 -11 0 -6 -10 -9 -22 -7
-18 2 -24 11 -26 38 -2 19 -8 40 -13 46 -5 6 -4 21 4 37 13 30 27 35 27 12z
m-568 -27 c9 -7 18 -34 21 -59 l4 -46 -47 -2 c-39 0 -49 3 -53 19 -5 21 6 34
41 44 30 10 28 29 -3 24 -31 -6 -42 7 -18 21 24 14 36 13 55 -1z m129 2 c25
-14 29 -110 4 -110 -11 0 -15 12 -15 45 0 38 -3 45 -20 45 -17 0 -20 -7 -20
-45 0 -33 -4 -45 -15 -45 -11 0 -15 13 -15 54 0 52 1 55 28 59 15 2 28 5 30 6
2 0 12 -4 23 -9z m113 4 c25 -9 19 -24 -9 -24 -14 0 -25 -4 -25 -10 0 -5 8
-10 19 -10 26 0 44 -25 36 -50 -5 -17 -13 -21 -43 -18 -19 2 -37 9 -40 15 -2
9 5 11 27 7 40 -8 41 11 1 25 -34 11 -41 44 -12 60 20 12 25 13 46 5z m119 -6
c9 -7 18 -28 20 -46 2 -17 7 -35 10 -39 16 -15 4 -21 -45 -19 -49 1 -53 3 -53
25 0 19 8 27 35 36 28 10 32 14 18 20 -10 4 -25 5 -33 2 -21 -9 -28 10 -8 22
24 14 36 13 56 -1z m395 -4 c42 -29 22 -104 -28 -104 -40 0 -61 31 -49 73 14
48 39 58 77 31z m131 1 c15 -16 18 -98 4 -102 -9 -3 -13 8 -13 36 0 28 -5 44
-15 48 -22 8 -25 2 -27 -45 -1 -28 -6 -42 -15 -42 -9 0 -13 16 -13 58 l0 57
35 0 c19 0 39 -5 44 -10z m119 -1 c12 -8 22 -24 22 -35 0 -15 -7 -19 -36 -19
-41 0 -44 -24 -3 -27 42 -2 44 -3 29 -13 -21 -13 -64 -12 -78 2 -21 21 -15 75
10 92 12 9 25 16 28 16 3 0 16 -7 28 -16z m136 0 c22 -21 22 -104 1 -104 -11
0 -15 12 -15 45 0 38 -3 45 -20 45 -17 0 -20 -7 -20 -45 0 -33 -4 -45 -15 -45
-11 0 -15 13 -15 54 0 52 1 55 28 59 15 2 30 5 34 6 4 0 14 -6 22 -15z m-1234
-3 c0 -5 -9 -13 -20 -16 -16 -5 -20 -15 -20 -46 0 -28 -4 -39 -15 -39 -12 0
-15 13 -15 55 l0 55 35 0 c19 0 35 -4 35 -9z m740 -46 c0 -42 -3 -55 -15 -55
-12 0 -15 13 -15 55 0 42 3 55 15 55 12 0 15 -13 15 -55z m-538 -192 c23 -20
23 -52 1 -69 -24 -18 -43 -17 -65 3 -23 21 -23 38 2 63 24 24 38 25 62 3z
m156 -8 c6 -14 15 -25 20 -25 5 0 14 11 20 25 19 41 32 29 32 -30 0 -30 -4
-55 -10 -55 -5 0 -10 17 -10 38 l-1 37 -16 -29 -16 -30 -16 30 -16 29 -3 -37
c-5 -55 -22 -46 -22 10 0 67 17 83 38 37z m379 -13 l22 -37 1 38 c0 20 5 37
10 37 6 0 10 -27 10 -60 0 -69 -15 -73 -46 -12 l-19 37 -3 -37 c-5 -58 -22
-45 -22 17 0 66 15 72 47 17z m194 21 c6 -52 3 -100 -7 -96 -13 5 -24 69 -16
91 5 13 21 17 23 5z m-417 -25 c3 -7 7 -27 9 -43 5 -29 4 -31 -29 -30 -19 1
-37 4 -40 8 -12 12 6 37 27 37 12 0 19 5 16 13 -2 6 -11 11 -21 9 -9 -2 -16 2
-16 8 0 14 50 13 54 -2z m56 -28 c0 -22 -4 -40 -10 -40 -5 0 -10 18 -10 40 0
22 5 40 10 40 6 0 10 -18 10 -40z m92 28 c11 -18 10 -68 -2 -68 -5 0 -10 14
-10 30 0 23 -4 30 -20 30 -16 0 -20 -7 -20 -30 0 -16 -4 -30 -10 -30 -10 0
-15 62 -6 71 11 11 60 8 68 -3z m206 0 c20 -20 14 -38 -13 -38 -14 0 -25 -5
-25 -11 0 -6 9 -9 20 -6 11 3 20 1 20 -4 0 -16 -29 -22 -45 -9 -15 13 -21 61
-8 73 10 11 38 8 51 -5z m-2030 -430 c-6 -18 -28 -21 -28 -4 0 9 7 16 16 16 9
0 14 -5 12 -12z m362 -67 l0 -78 -31 -7 c-51 -10 -71 8 -67 62 3 45 4 47 36
50 23 2 32 8 32 21 0 10 3 21 7 24 17 18 23 1 23 -72z m-776 36 c8 -21 6 -31
-6 -44 -15 -14 -15 -19 -2 -44 21 -42 -2 -47 -27 -5 -26 45 -49 47 -49 6 0
-16 -4 -30 -10 -30 -6 0 -10 32 -10 76 l0 75 47 -3 c42 -3 49 -6 57 -31z m106
-17 c31 -31 25 -48 -17 -52 -43 -3 -43 -24 0 -22 17 1 27 -3 27 -12 0 -22 -68
-23 -82 -1 -16 25 -8 76 14 91 29 20 34 20 58 -4z m248 -29 c3 -18 -2 -21 -32
-21 -26 0 -36 -4 -36 -16 0 -12 7 -15 30 -12 39 6 49 -8 17 -23 -46 -21 -86
22 -73 77 13 50 87 46 94 -5z m-120 22 c2 -9 -5 -11 -27 -7 -30 6 -31 6 -31
-31 0 -36 1 -37 30 -31 35 7 44 -18 10 -29 -30 -10 -70 20 -70 51 0 44 18 66
52 62 17 -2 33 -9 36 -15z m182 -38 c0 -42 -3 -55 -15 -55 -12 0 -15 13 -15
55 0 42 3 55 15 55 12 0 15 -13 15 -55z m56 20 c9 -49 19 -51 33 -5 6 22 16
40 21 40 13 0 13 -9 -6 -63 -21 -61 -46 -63 -63 -6 -7 23 -15 47 -18 55 -3 8
1 14 10 14 10 0 18 -13 23 -35z m174 16 c17 -33 11 -41 -31 -41 -28 0 -39 -4
-36 -12 2 -7 18 -12 36 -12 35 2 44 -21 11 -31 -56 -18 -97 55 -58 103 16 19
66 15 78 -7z m-1163 -98 c-2 -16 -4 -5 -4 22 0 28 2 40 4 28 2 -13 2 -35 0
-50z m3393 28 c16 -31 12 -102 -7 -123 -20 -22 -41 -23 -65 -1 -21 19 -26 111
-6 131 19 19 66 15 78 -7z m190 0 c5 -11 10 -30 10 -43 0 -32 -36 -88 -57 -88
-14 0 -13 3 5 23 24 26 29 42 10 34 -7 -2 -23 -1 -35 4 -26 9 -32 56 -11 77
19 19 66 15 78 -7z m128 7 c23 -23 14 -85 -16 -119 -19 -22 -31 -28 -36 -21
-4 7 -3 12 2 12 5 0 17 11 25 23 15 23 14 24 -15 24 -32 0 -48 16 -48 49 0 27
19 44 50 44 14 0 31 -5 38 -12z m129 4 c25 -16 26 -65 1 -101 -13 -19 -30 -37
-38 -39 -13 -4 -13 -2 1 14 29 35 34 48 15 41 -21 -8 -51 6 -60 28 -3 8 -1 26
4 40 7 18 17 25 37 25 16 0 34 -4 40 -8z m144 -8 c10 -13 10 -19 0 -36 -9 -15
-10 -23 -2 -31 21 -21 13 -57 -16 -68 -41 -15 -73 3 -73 41 0 17 5 30 12 30 9
0 9 3 0 12 -28 28 -6 68 39 68 15 0 32 -7 40 -16z m139 4 c0 -22 -52 -138 -62
-138 -11 0 -4 25 23 84 l18 41 -27 3 c-14 2 -28 -1 -30 -7 -6 -19 -22 -12 -22
9 0 17 7 20 50 20 33 0 50 -4 50 -12z m120 -43 c0 -37 4 -55 13 -55 8 0 8 -3
1 -8 -6 -4 -14 -16 -18 -27 -7 -16 -9 -17 -14 -5 -7 21 -23 30 -55 30 -16 0
-27 3 -25 8 24 56 64 112 80 112 15 0 18 -8 18 -55z m129 3 c-12 -29 -25 -63
-30 -75 -5 -13 -13 -23 -19 -23 -14 0 -13 2 15 66 14 31 25 58 25 60 0 2 -13
4 -30 4 -16 0 -30 -4 -30 -10 0 -5 -4 -10 -10 -10 -5 0 -10 9 -10 20 0 18 7
20 55 20 l55 0 -21 -52z m104 30 c-33 -38 -35 -46 -8 -40 31 6 55 -13 55 -44
0 -22 -33 -54 -57 -54 -22 0 -43 31 -43 63 0 39 34 97 57 97 14 0 14 -3 -4
-22z m299 5 c23 -21 25 -95 2 -117 -9 -10 -33 -16 -60 -16 l-44 0 0 75 0 75
42 0 c24 0 49 -7 60 -17z m148 7 c0 -5 -16 -10 -35 -10 -28 0 -35 -4 -35 -20
0 -16 7 -20 30 -20 20 0 30 -5 30 -15 0 -10 -10 -15 -29 -15 -26 0 -30 -4 -33
-32 -6 -62 -23 -33 -26 45 l-3 77 51 0 c27 0 50 -4 50 -10z m90 0 c0 -5 -4
-10 -10 -10 -5 0 -10 -25 -10 -55 0 -33 4 -55 11 -55 24 0 1 -23 -25 -25 -29
-1 -43 9 -26 20 13 8 13 115 0 115 -5 0 -10 5 -10 10 0 6 16 10 35 10 19 0 35
-4 35 -10z m250 -25 l34 -35 -39 -40 c-21 -21 -42 -37 -47 -33 -6 3 5 20 23
39 l33 34 -27 28 c-15 15 -27 31 -27 35 0 15 18 5 50 -28z m-5215 -85 c-52
-53 -68 -52 -58 4 l6 29 11 -27 11 -27 34 35 c19 20 37 36 40 36 3 0 -17 -22
-44 -50z m-84 -3 l11 -22 -21 22 c-22 23 -28 39 -11 28 5 -3 15 -16 21 -28z
m3491 -22 c0 -5 -5 -11 -11 -13 -6 -2 -11 4 -11 13 0 9 5 15 11 13 6 -2 11 -8
11 -13z m-2968 -133 c5 -13 3 -22 -3 -22 -6 0 -11 7 -11 15 0 9 -9 15 -25 15
-14 0 -28 -7 -31 -15 -4 -8 -10 -15 -14 -15 -10 0 18 88 34 109 8 10 14 5 27
-25 9 -22 19 -49 23 -62z m295 89 c12 -7 17 -22 16 -58 0 -45 -2 -48 -29 -51
-16 -2 -34 2 -40 8 -8 9 -3 10 22 5 28 -6 32 -4 32 14 0 12 -6 21 -15 21 -8 0
-15 5 -15 10 0 6 7 10 15 10 8 0 15 7 15 16 0 12 -7 15 -25 12 -26 -5 -35 6
-12 15 18 8 17 8 36 -2z m91 -51 c0 -38 4 -50 18 -53 9 -3 -1 -5 -23 -5 -22 0
-32 2 -22 5 13 3 17 15 17 51 0 36 -3 43 -12 34 -20 -20 -32 -13 -13 8 25 28
35 16 35 -40z m206 49 c3 -5 -6 -9 -20 -9 -32 0 -35 -27 -3 -32 17 -2 22 -10
22 -33 0 -24 -5 -31 -24 -33 -13 -2 -28 2 -35 8 -8 9 -4 10 15 5 16 -4 30 -2
34 5 10 17 -15 41 -36 35 -16 -5 -19 -1 -19 23 0 16 2 31 5 34 9 9 55 6 61 -3z
m149 2 c3 -5 -7 -11 -22 -13 -36 -4 -41 -26 -6 -30 24 -3 28 -8 28 -33 0 -27
-4 -30 -32 -33 -19 -2 -33 1 -33 8 0 6 10 8 26 4 23 -6 25 -4 22 17 -2 18 -9
23 -26 22 -18 -2 -22 2 -22 25 0 16 3 32 7 35 10 10 51 8 58 -2z m93 -3 c25
-25 2 -108 -30 -108 -6 0 -4 8 5 18 22 24 21 29 -5 28 -17 -1 -24 5 -26 22 -6
41 30 66 56 40z m-656 -44 c-3 -15 -13 -29 -23 -31 -28 -8 -23 -23 6 -23 31 0
35 -35 5 -45 -29 -9 -63 4 -56 22 3 8 6 32 6 53 0 33 4 40 28 48 35 12 40 8
34 -24z m468 16 c0 -5 -5 -10 -11 -10 -5 0 -7 5 -4 10 3 6 8 10 11 10 2 0 4
-4 4 -10z m338 -43 c-2 -27 -8 -33 -30 -35 -21 -2 -28 -9 -28 -24 0 -12 -3
-19 -6 -15 -5 5 -8 60 -5 104 1 16 32 22 54 11 13 -7 17 -18 15 -41z m135 44
c4 -1 6 -20 6 -43 l-2 -43 -6 35 c-9 50 -41 55 -41 6 0 -20 -4 -36 -10 -36 -5
0 -10 16 -10 35 0 24 -5 35 -15 35 -10 0 -15 -11 -15 -35 0 -19 -4 -35 -10
-35 -5 0 -10 18 -10 39 0 30 4 40 18 43 14 3 68 3 95 -1z m-1063 -66 c9 0 17
13 21 35 8 42 11 38 13 -12 2 -37 1 -38 -31 -38 -32 0 -33 1 -32 43 l2 42 6
-35 c4 -22 12 -35 21 -35z m403 -20 c-7 -21 -13 -19 -13 6 0 11 4 18 10 14 5
-3 7 -12 3 -20z m187 15 c0 -5 -4 -10 -10 -10 -5 0 -10 5 -10 10 0 6 5 10 10
10 6 0 10 -4 10 -10z m-646 -486 c9 -3 16 -12 16 -20 0 -16 -16 -19 -24 -5 -9
13 -46 1 -46 -15 0 -7 12 -17 28 -20 36 -9 52 -22 52 -45 0 -42 -72 -67 -100
-34 -18 22 -7 28 24 14 19 -9 30 -9 38 -1 15 15 2 42 -21 42 -23 0 -51 25 -51
45 0 33 45 54 84 39z m336 -18 c0 -8 6 -17 13 -20 10 -5 10 -7 0 -12 -15 -7
-18 -84 -3 -84 6 0 10 -4 10 -10 0 -21 -40 -10 -44 13 -11 54 -13 93 -4 110
11 21 28 23 28 3z m-206 -32 c9 -8 16 -24 16 -35 0 -16 -7 -19 -40 -19 -32 0
-38 -3 -33 -16 4 -12 14 -14 35 -10 21 4 28 2 26 -7 -6 -17 -56 -21 -74 -6
-20 17 -18 85 4 98 25 15 48 13 66 -5z m129 7 c11 -2 8 -111 -3 -111 -5 0 -10
20 -10 44 0 25 -5 48 -10 51 -20 12 -40 -17 -40 -56 0 -22 -4 -39 -10 -39 -6
0 -10 26 -10 59 l0 58 38 -2 c20 -1 40 -3 45 -4z m2641 -77 c18 -18 22 -95 6
-125 -7 -12 -21 -19 -40 -19 -36 0 -50 23 -50 84 0 48 18 76 50 76 10 0 26 -7
34 -16z m194 4 c31 -31 -5 -148 -45 -148 -14 0 -14 3 4 23 33 36 33 42 0 42
-25 0 -33 5 -41 27 -8 22 -6 32 9 48 20 22 55 26 73 8z m126 -4 c25 -24 20
-86 -9 -118 -13 -14 -30 -26 -36 -26 -8 0 -4 9 8 23 33 37 35 45 8 39 -14 -2
-32 1 -40 8 -32 27 -7 90 35 90 10 0 26 -7 34 -16z m142 -9 c26 -40 -11 -135
-54 -135 -12 0 -9 7 11 28 27 28 36 49 16 37 -19 -12 -56 4 -62 27 -15 57 57
92 89 43z m126 8 c27 -24 23 -75 -8 -112 -32 -38 -54 -41 -24 -3 l22 27 -24 3
c-34 6 -48 21 -48 53 0 45 47 64 82 32z m125 9 c20 -12 34 -64 27 -96 -9 -43
-22 -56 -55 -56 -35 0 -49 23 -49 81 0 61 38 96 77 71z m157 0 c6 -10 -54
-152 -65 -152 -13 0 -12 3 16 66 14 31 25 60 25 65 0 5 -13 9 -30 9 -20 0 -30
-5 -30 -15 0 -8 -4 -15 -10 -15 -11 0 -14 33 -3 43 9 10 91 9 97 -1z m126 -2
c0 -5 -16 -10 -35 -10 -30 0 -35 -3 -35 -24 0 -19 4 -22 24 -19 18 4 29 -2 41
-21 16 -24 16 -28 1 -51 -16 -25 -39 -31 -70 -19 -30 11 -16 23 20 17 34 -6
36 -5 32 23 -3 26 -7 29 -35 28 -32 -2 -33 0 -33 35 0 21 3 41 7 44 10 11 83
8 83 -3z m130 1 c0 -6 -15 -11 -32 -13 -26 -2 -34 -8 -36 -26 -3 -20 0 -22 21
-17 43 11 70 -32 47 -76 -13 -23 -62 -26 -80 -4 -10 12 -6 13 23 8 39 -6 52 6
42 38 -6 18 -12 20 -42 14 -34 -6 -35 -5 -29 17 3 13 6 33 6 46 0 19 5 22 40
22 22 0 40 -4 40 -9z m267 -17 c7 -10 13 -37 13 -60 0 -52 -25 -74 -82 -74
l-38 0 0 73 c0 41 3 77 8 81 12 13 86 -2 99 -20z m141 9 c2 -9 -8 -13 -32 -13
-29 0 -36 -4 -36 -20 0 -16 7 -20 30 -20 17 0 30 -4 30 -10 0 -5 -13 -10 -30
-10 -28 0 -30 -3 -30 -35 0 -24 -5 -35 -15 -35 -12 0 -15 16 -15 81 l0 80 47
-3 c26 -2 48 -9 51 -15z m92 2 c0 -8 -4 -15 -10 -15 -5 0 -10 -25 -10 -55 0
-30 5 -55 10 -55 6 0 10 -4 10 -10 0 -5 -16 -10 -35 -10 -19 0 -35 5 -35 10 0
6 5 10 10 10 13 0 13 107 0 115 -18 11 0 25 31 25 19 0 29 -5 29 -15z m267
-42 c7 -6 13 -16 13 -20 0 -16 -68 -75 -79 -69 -6 4 3 19 21 37 l31 29 -31 33
c-18 19 -29 36 -25 40 6 6 18 -2 70 -50z m-2007 -33 c0 -5 -13 -10 -30 -10
-16 0 -30 5 -30 10 0 6 14 10 30 10 17 0 30 -4 30 -10z m182 -55 c0 -5 -5 -11
-11 -13 -6 -2 -11 4 -11 13 0 9 5 15 11 13 6 -2 11 -8 11 -13z m-2981 -103
c10 -29 14 -52 9 -52 -4 0 -10 7 -14 15 -8 22 -41 18 -59 -7 -12 -18 -11 -8 5
40 11 35 25 61 31 59 6 -2 18 -27 28 -55z m319 43 c10 -12 10 -19 2 -27 -8 -8
-7 -16 1 -29 17 -27 -12 -54 -48 -45 -33 8 -24 25 10 18 32 -6 36 27 3 36
l-22 5 23 9 c28 10 22 34 -8 31 -13 -2 -20 1 -16 7 9 15 41 12 55 -5z m80 -35
c0 -38 4 -50 15 -50 8 0 15 -4 15 -10 0 -5 -16 -10 -35 -10 -19 0 -35 5 -35
10 0 6 7 10 15 10 11 0 15 11 15 41 0 37 -2 40 -22 33 -20 -6 -21 -5 -9 10 26
31 41 19 41 -34z m188 43 c-20 -3 -28 -10 -28 -24 0 -11 4 -18 9 -15 19 12 41
-7 41 -34 0 -30 -21 -44 -51 -35 -29 9 -23 24 9 22 18 -1 27 3 27 13 0 9 -10
15 -25 15 -21 0 -26 6 -28 33 -3 31 -2 32 35 31 30 -2 32 -3 11 -6z m147 -2
c-36 -7 -49 -42 -15 -39 29 4 49 -26 34 -49 -12 -20 -55 -24 -61 -7 -2 7 6 10
22 7 21 -5 25 -2 25 17 0 18 -4 21 -25 18 -23 -5 -25 -2 -25 28 0 33 1 34 38
33 36 -1 36 -2 7 -8z m123 -20 c6 -36 -6 -69 -29 -81 -20 -11 -20 -11 -4 14
17 25 17 26 -3 26 -27 0 -44 29 -30 53 14 27 62 19 66 -12z m-667 -23 c-6 -27
-12 -33 -31 -33 -20 0 -25 5 -25 25 0 22 15 32 56 39 4 1 3 -14 0 -31z m-120
-48 c15 0 19 7 19 37 0 22 4 33 9 28 5 -6 6 -26 3 -45 -6 -30 -11 -36 -32 -35
-23 0 -25 4 -26 45 -1 39 -1 40 3 8 3 -29 9 -38 24 -38z m589 60 c0 -5 -4 -10
-10 -10 -5 0 -10 5 -10 10 0 6 5 10 10 10 6 0 10 -4 10 -10z m336 -17 c9 -33
-7 -58 -35 -57 -14 0 -21 -6 -22 -20 -1 -12 -4 -5 -8 14 -3 19 -5 47 -2 63 3
22 8 27 32 27 23 0 30 -6 35 -27z m141 -23 c1 -42 0 -40 -13 18 -8 37 -34 27
-34 -13 0 -19 -4 -35 -10 -35 -5 0 -10 16 -10 35 0 24 -5 35 -15 35 -11 0 -15
-11 -15 -41 0 -24 -4 -38 -10 -34 -5 3 -10 24 -10 46 l0 39 58 -2 57 -3 2 -45z
m-942 -45 c0 -15 -8 -21 -29 -23 -35 -4 -47 6 -40 34 5 18 11 20 37 15 23 -5
32 -12 32 -26z m285 16 c0 -5 -6 -14 -14 -20 -12 -10 -13 -8 -9 8 5 21 23 30
23 12z m180 -1 c0 -5 -4 -10 -10 -10 -5 0 -10 5 -10 10 0 6 5 10 10 10 6 0 10
-4 10 -10z m-202 -482 c-6 -18 -28 -21 -28 -4 0 9 7 16 16 16 9 0 14 -5 12
-12z m362 -67 l0 -79 -32 -5 c-52 -7 -68 7 -68 59 0 37 4 46 23 53 12 5 28 6
35 4 8 -3 12 4 12 21 0 16 6 26 15 26 12 0 15 -15 15 -79z m-782 57 c17 -17
15 -53 -3 -68 -13 -11 -13 -15 1 -41 13 -26 13 -29 0 -29 -9 0 -22 14 -31 30
-9 17 -22 30 -30 30 -10 0 -15 -10 -15 -30 0 -16 -4 -30 -10 -30 -6 0 -10 32
-10 75 l0 75 43 0 c24 0 48 -5 55 -12z m112 -38 c33 -33 26 -50 -21 -50 -28 0
-39 -4 -36 -12 2 -7 18 -12 36 -12 36 2 41 -10 10 -26 -54 -30 -98 68 -47 104
29 20 34 20 58 -4z m111 10 c29 -16 23 -30 -11 -23 -29 5 -30 4 -30 -32 0 -36
1 -37 30 -31 22 4 30 2 30 -9 0 -22 -38 -28 -65 -11 -33 22 -35 78 -3 100 27
19 24 19 49 6z m117 -6 c12 -8 22 -24 22 -35 0 -15 -7 -19 -35 -19 -25 0 -35
-4 -35 -16 0 -11 8 -15 28 -14 15 1 32 1 37 1 14 -2 -26 -31 -42 -31 -22 0
-53 38 -53 65 0 23 31 65 48 65 4 0 18 -7 30 -16z m302 -4 c33 -33 26 -50 -21
-50 -28 0 -39 -4 -36 -12 2 -7 18 -12 36 -12 35 2 41 -10 13 -25 -63 -34 -107
72 -45 108 25 15 30 14 53 -9z m-220 -45 c0 -42 -3 -55 -15 -55 -12 0 -15 13
-15 55 0 42 3 55 15 55 12 0 15 -13 15 -55z m50 41 c0 -8 5 -27 11 -43 l11
-28 13 38 c15 43 22 53 31 44 3 -3 -2 -28 -11 -56 -21 -65 -46 -69 -64 -10 -7
23 -15 47 -18 55 -3 8 1 14 11 14 9 0 16 -6 16 -14z m-983 -88 c-2 -13 -4 -5
-4 17 -1 22 1 32 4 23 2 -10 2 -28 0 -40z m5263 -73 c-19 -19 -41 -35 -49 -35
-10 0 -3 12 19 35 l34 35 -32 33 c-18 18 -29 37 -25 41 4 3 25 -11 47 -33 l40
-41 -34 -35z m-1872 93 c7 -7 12 -36 12 -65 0 -45 -4 -55 -25 -69 -23 -15 -27
-15 -50 0 -21 14 -25 24 -25 69 0 59 12 77 50 77 14 0 31 -5 38 -12z m192 -7
c5 -11 10 -30 10 -43 0 -32 -36 -88 -57 -88 -14 0 -13 3 5 23 24 26 29 42 10
34 -7 -2 -23 -1 -35 4 -26 9 -32 56 -11 77 19 19 66 15 78 -7z m128 7 c23 -23
14 -85 -16 -119 -19 -22 -31 -28 -36 -21 -4 7 -3 12 2 12 5 0 18 12 27 26 17
26 17 27 -3 22 -28 -8 -62 18 -62 46 0 29 18 46 50 46 14 0 31 -5 38 -12z
m143 -15 c5 -15 8 -38 4 -50 -6 -26 -64 -94 -65 -76 0 6 4 15 10 18 5 3 15 16
21 27 10 18 9 20 -6 15 -39 -15 -76 34 -55 73 8 14 21 20 46 20 28 0 36 -5 45
-27z m129 8 c5 -11 10 -30 10 -43 0 -32 -36 -88 -57 -88 -14 0 -13 3 5 23 24
26 29 42 10 34 -7 -2 -23 -1 -35 4 -26 9 -32 56 -11 77 19 19 66 15 78 -7z
m138 -13 c23 -48 -4 -128 -44 -128 -28 0 -54 38 -54 81 0 59 15 81 53 77 23
-2 35 -10 45 -30z m132 22 c0 -18 -54 -140 -62 -140 -12 0 -11 4 16 70 l25 60
-30 0 c-16 0 -29 -4 -29 -10 0 -5 -4 -10 -10 -10 -5 0 -10 9 -10 20 0 17 7 20
50 20 28 0 50 -4 50 -10z m125 0 c-3 -5 -19 -10 -36 -10 -22 0 -29 -5 -29 -20
0 -16 7 -20 30 -20 36 0 54 -28 41 -63 -6 -14 -19 -28 -30 -32 -22 -7 -61 10
-61 26 0 6 8 6 21 -1 11 -7 27 -9 35 -6 17 7 19 56 2 57 -18 2 -21 1 -40 -6
-16 -6 -18 -1 -18 39 l0 46 46 0 c27 0 43 -4 39 -10z m135 0 c0 -5 -16 -10
-35 -10 -30 0 -35 -3 -35 -24 0 -19 4 -22 25 -18 54 10 76 -54 30 -84 -21 -14
-31 -15 -50 -6 -14 7 -25 16 -25 22 0 13 6 13 29 -2 15 -9 23 -9 35 1 9 8 16
19 16 27 0 20 -31 34 -52 23 -22 -12 -28 0 -21 44 5 35 8 37 44 37 22 0 39 -4
39 -10z m262 -7 c23 -21 25 -95 2 -117 -9 -10 -33 -16 -60 -16 l-44 0 0 75 0
75 42 0 c24 0 49 -7 60 -17z m148 7 c0 -5 -16 -10 -35 -10 -28 0 -35 -4 -35
-20 0 -16 7 -20 30 -20 20 0 30 -5 30 -15 0 -10 -10 -15 -30 -15 -27 0 -30 -3
-30 -30 0 -20 -5 -30 -15 -30 -12 0 -15 15 -15 75 l0 75 50 0 c28 0 50 -4 50
-10z m90 0 c0 -5 -4 -10 -10 -10 -5 0 -10 -25 -10 -55 0 -30 5 -55 10 -55 6 0
10 -4 10 -10 0 -5 -16 -10 -35 -10 -19 0 -35 5 -35 10 0 6 5 10 10 10 6 0 10
25 10 55 0 30 -4 55 -10 55 -5 0 -10 5 -10 10 0 6 16 10 35 10 19 0 35 -4 35
-10z m-5090 -70 c0 -5 -2 -10 -4 -10 -3 0 -8 5 -11 10 -3 6 -1 10 4 10 6 0 11
-4 11 -10z m55 -58 c-6 -6 -45 33 -45 44 0 4 11 -3 25 -16 14 -13 23 -26 20
-28z m60 8 c-38 -39 -71 -41 -47 -2 5 7 15 10 24 7 8 -3 21 1 28 10 7 8 15 15
18 15 3 0 -7 -13 -23 -30z m3417 -15 c0 -5 -5 -11 -11 -13 -6 -2 -11 4 -11 13
0 9 5 15 11 13 6 -2 11 -8 11 -13z m-2983 -90 c24 -64 24 -65 11 -65 -5 0 -10
7 -10 15 0 9 -9 15 -25 15 -14 0 -28 -7 -31 -15 -4 -8 -10 -15 -14 -15 -5 0 0
27 12 60 11 33 24 60 28 60 5 0 18 -25 29 -55z m321 40 c10 -12 10 -19 2 -27
-8 -8 -8 -15 0 -28 17 -27 3 -50 -31 -50 -16 0 -33 4 -36 10 -4 6 6 7 25 4 26
-6 30 -4 30 15 0 12 -6 21 -15 21 -8 0 -15 5 -15 10 0 6 7 10 15 10 8 0 15 7
15 16 0 12 -7 15 -25 12 -26 -5 -35 6 -12 15 22 9 34 7 47 -8z m80 -39 c0 -44
4 -55 18 -59 9 -3 -3 -5 -28 -4 -25 0 -35 2 -22 4 19 4 22 11 22 51 0 36 -3
43 -12 34 -20 -20 -32 -13 -13 8 28 31 35 24 35 -34z m205 44 c4 -6 -5 -10
-19 -10 -32 0 -35 -27 -3 -32 17 -2 22 -10 22 -33 0 -24 -5 -31 -24 -33 -13
-2 -28 2 -35 8 -8 9 -4 10 15 5 30 -7 42 4 33 30 -5 12 -14 15 -30 11 -21 -6
-24 -3 -24 22 0 16 3 32 7 35 10 11 51 8 58 -3z m145 1 c0 -5 -10 -11 -22 -13
-32 -5 -33 -26 -1 -30 24 -3 28 -8 28 -33 0 -24 -5 -31 -24 -33 -13 -2 -28 2
-35 8 -8 9 -4 10 17 4 26 -6 28 -4 25 17 -2 18 -9 23 -26 22 -18 -2 -22 2 -22
25 0 16 3 32 7 35 10 10 53 8 53 -2z m97 -3 c9 -15 12 -65 6 -90 -5 -19 -57
-26 -68 -9 -3 6 7 9 22 8 19 -1 28 3 31 16 2 10 -3 17 -12 17 -9 0 -16 5 -16
10 0 6 7 10 15 10 8 0 15 7 15 16 0 12 -7 15 -25 12 -24 -5 -32 2 -18 15 11
11 41 8 50 -5z m-653 -35 c-9 -38 -13 -43 -30 -43 -8 0 -14 -4 -14 -10 0 -5
11 -10 25 -10 31 0 35 -35 5 -45 -23 -7 -63 12 -54 26 3 6 6 28 6 49 -1 33 3
40 26 49 41 14 43 13 36 -16z m-124 -58 c10 0 17 14 21 40 7 47 9 45 13 -13 2
-42 2 -43 -28 -40 -29 3 -31 5 -32 48 l-2 45 7 -40 c4 -26 11 -40 21 -40z
m590 65 c0 -5 -5 -10 -11 -10 -5 0 -7 5 -4 10 3 6 8 10 11 10 2 0 4 -4 4 -10z
m330 -5 c6 -7 10 -26 8 -42 -2 -22 -9 -28 -28 -30 -14 -1 -18 0 -7 3 26 8 24
64 -3 64 -18 0 -20 -7 -21 -57 l-2 -58 -7 44 c-10 62 -3 86 25 89 12 1 28 -5
35 -13z m143 6 c4 -1 6 -20 6 -43 l-2 -43 -6 35 c-9 50 -41 55 -41 6 0 -20 -4
-36 -10 -36 -5 0 -10 16 -10 35 0 24 -5 35 -15 35 -10 0 -15 -11 -15 -35 0
-19 -4 -35 -10 -35 -5 0 -10 18 -10 39 0 30 4 40 18 43 14 3 68 3 95 -1z
m-660 -86 c-7 -21 -13 -19 -13 6 0 11 4 18 10 14 5 -3 7 -12 3 -20z m187 15
c0 -5 -4 -10 -10 -10 -5 0 -10 5 -10 10 0 6 5 10 10 10 6 0 10 -4 10 -10z
m-646 -486 c9 -3 16 -13 16 -20 0 -12 -4 -12 -21 -4 -11 7 -27 9 -35 6 -24 -9
-16 -35 14 -42 36 -9 52 -22 52 -45 0 -42 -72 -67 -100 -34 -18 22 -7 28 24
14 19 -9 30 -9 38 -1 15 15 2 42 -21 42 -23 0 -51 25 -51 45 0 33 45 54 84 39z
m336 -18 c0 -8 6 -17 13 -20 10 -5 10 -7 0 -12 -15 -7 -18 -84 -3 -84 6 0 10
-5 10 -11 0 -6 -10 -9 -22 -7 -20 3 -23 10 -26 51 -2 26 -8 47 -13 47 -11 0
22 49 34 50 4 0 7 -6 7 -14z m-206 -32 c9 -8 16 -24 16 -35 0 -16 -7 -19 -41
-19 -36 0 -40 -2 -28 -16 8 -10 21 -13 37 -9 17 4 23 2 20 -7 -6 -17 -56 -22
-74 -7 -17 14 -19 80 -2 97 17 17 54 15 72 -4z m134 -46 c2 -36 -1 -58 -8 -58
-5 0 -10 20 -10 44 0 25 -5 48 -10 51 -20 12 -40 -17 -40 -56 0 -22 -4 -39
-10 -39 -6 0 -10 26 -10 59 l0 59 43 -2 42 -1 3 -57z m2636 -24 c18 -18 22
-95 6 -125 -7 -12 -21 -19 -40 -19 -36 0 -50 23 -50 84 0 48 18 76 50 76 10 0
26 -7 34 -16z m187 6 c24 -13 26 -68 4 -110 -9 -17 -17 -30 -19 -30 -3 0 -13
-3 -23 -7 -16 -5 -16 -4 3 18 34 39 34 44 1 44 -25 0 -33 5 -41 27 -8 22 -6
32 9 48 20 22 37 25 66 10z m137 -2 c27 -27 7 -113 -32 -140 -24 -16 -28 -7
-8 15 28 30 28 37 -1 37 -29 0 -47 18 -47 46 0 44 58 72 88 42z m140 -21 c10
-21 11 -35 3 -59 -14 -39 -39 -68 -59 -68 -11 0 -8 8 11 28 27 28 36 49 16 37
-19 -12 -56 4 -62 27 -17 62 64 92 91 35z m126 17 c26 -26 20 -79 -13 -116
-16 -18 -32 -30 -36 -26 -4 3 3 16 14 27 27 27 27 41 1 34 -11 -3 -27 0 -35 7
-18 15 -20 61 -3 78 17 17 54 15 72 -4z m134 -40 c2 -27 9 -52 15 -57 9 -7 9
-10 0 -14 -7 -2 -13 -11 -13 -19 0 -8 -4 -14 -10 -14 -5 0 -10 7 -10 15 0 11
-11 15 -40 15 -44 0 -45 1 -28 33 31 59 60 98 71 94 7 -2 13 -26 15 -53z m136
34 c35 -49 9 -138 -38 -138 -34 0 -51 27 -51 80 0 26 6 54 14 63 19 24 57 21
75 -5z m120 6 c19 -18 19 -20 6 -44 -7 -13 -7 -21 0 -25 14 -9 13 -48 -2 -63
-16 -16 -63 -15 -77 2 -9 11 -4 13 26 12 32 -1 38 2 38 19 0 13 -8 21 -22 23
-25 4 -32 22 -9 22 20 0 36 24 27 39 -6 9 -18 11 -35 7 -26 -6 -37 8 -13 17
24 10 46 7 61 -9z m136 -38 c0 -34 5 -57 13 -60 10 -5 10 -7 0 -12 -7 -3 -13
-12 -13 -20 0 -8 -4 -14 -10 -14 -5 0 -10 7 -10 15 0 10 -11 15 -35 15 -19 0
-35 5 -35 11 0 20 64 119 77 119 9 0 13 -17 13 -54z m268 38 c18 -12 22 -25
22 -64 0 -58 -23 -80 -82 -80 l-38 0 0 73 c0 41 3 77 7 80 12 13 68 7 91 -9z
m150 4 c-3 -7 -19 -14 -36 -16 -24 -2 -32 -8 -32 -23 0 -14 7 -19 30 -19 17 0
30 -4 30 -10 0 -5 -13 -10 -30 -10 -28 0 -30 -3 -30 -35 0 -24 -5 -35 -15 -35
-12 0 -15 16 -15 80 l0 80 51 0 c36 0 49 -4 47 -12z m92 3 c0 -6 -4 -13 -10
-16 -5 -3 -10 -31 -10 -61 0 -30 5 -54 10 -54 6 0 10 -4 10 -10 0 -5 -16 -10
-35 -10 -19 0 -35 5 -35 10 0 6 5 10 10 10 6 0 10 27 10 60 0 33 -4 60 -10 60
-5 0 -10 5 -10 10 0 6 16 10 35 10 19 0 35 -4 35 -9z m246 -26 c19 -20 34 -38
34 -41 0 -14 -72 -74 -82 -68 -7 4 1 17 21 34 17 15 31 31 31 34 0 4 -11 17
-25 30 -23 21 -33 46 -19 46 3 0 21 -16 40 -35z m-1986 -55 c0 -5 -13 -10 -30
-10 -16 0 -30 5 -30 10 0 6 14 10 30 10 17 0 30 -4 30 -10z m182 -55 c0 -5 -5
-11 -11 -13 -6 -2 -11 4 -11 13 0 9 5 15 11 13 6 -2 11 -8 11 -13z m-2980
-105 c19 -55 18 -77 -2 -41 -14 28 -48 27 -59 -1 -4 -12 -10 -17 -13 -12 -9
14 32 116 45 111 6 -2 19 -27 29 -57z m322 43 c4 -9 2 -21 -3 -26 -6 -6 -6
-16 2 -27 8 -14 8 -22 -3 -35 -14 -17 -51 -17 -57 1 -2 7 6 10 22 7 19 -4 25
-1 25 12 0 9 -10 19 -22 23 l-22 5 23 9 c28 10 22 34 -8 31 -11 -2 -21 2 -21
7 0 17 57 11 64 -7z m76 -33 c0 -38 4 -50 15 -50 8 0 15 -4 15 -10 0 -5 -16
-10 -35 -10 -19 0 -35 5 -35 10 0 6 7 10 15 10 11 0 15 11 15 41 0 37 -2 40
-22 33 -20 -6 -21 -5 -9 10 26 31 41 19 41 -34z m188 43 c-20 -3 -28 -10 -28
-24 0 -11 4 -18 9 -15 17 11 41 -6 41 -29 0 -29 -24 -48 -50 -40 -29 9 -25 21
8 20 37 0 37 29 -1 33 -23 3 -27 7 -25 33 2 26 5 29 38 28 30 -2 31 -3 8 -6z
m147 -2 c-18 -4 -31 -14 -33 -25 -3 -14 0 -17 12 -13 40 15 65 -35 31 -63 -16
-14 -47 -10 -52 6 -2 7 6 10 22 7 20 -4 25 -1 25 16 0 16 -6 21 -25 21 -21 0
-25 5 -25 30 0 28 2 30 38 29 36 -1 36 -2 7 -8z m119 -8 c4 -9 2 -21 -3 -26
-6 -6 -6 -16 2 -27 8 -14 8 -22 -3 -35 -14 -17 -51 -17 -57 1 -2 7 6 10 22 7
19 -4 25 -1 25 12 0 9 -10 19 -22 23 l-22 5 23 9 c28 10 22 34 -8 31 -13 -2
-20 1 -16 7 10 16 52 11 59 -7z m-662 -33 c-4 -31 -36 -50 -54 -32 -24 24 1
52 53 61 3 1 4 -12 1 -29z m-121 -50 c15 0 19 7 19 38 1 25 3 32 9 22 4 -8 8
-28 7 -45 -1 -26 -5 -30 -31 -30 -29 0 -30 2 -31 45 -1 39 -1 40 3 8 3 -29 9
-38 24 -38z m589 60 c0 -5 -4 -10 -10 -10 -5 0 -10 5 -10 10 0 6 5 10 10 10 6
0 10 -4 10 -10z m336 -17 c9 -33 -7 -58 -35 -57 -14 0 -21 -5 -21 -18 0 -11
-3 -17 -7 -15 -5 3 -6 30 -5 61 4 54 5 56 33 56 23 0 30 -5 35 -27z m141 -23
c1 -42 0 -40 -13 18 -8 40 -34 26 -34 -19 0 -24 -4 -38 -10 -34 -5 3 -10 22
-10 41 0 24 -5 34 -15 34 -10 0 -15 -11 -15 -35 0 -19 -4 -35 -10 -35 -5 0
-10 18 -10 40 l0 40 58 -2 57 -3 2 -45z m-942 -45 c0 -15 -8 -21 -29 -23 -35
-4 -47 6 -40 34 5 18 11 20 37 15 23 -5 32 -12 32 -26z m279 10 c-4 -8 -8 -15
-10 -15 -2 0 -4 7 -4 15 0 8 4 15 10 15 5 0 7 -7 4 -15z m186 5 c0 -5 -4 -10
-10 -10 -5 0 -10 5 -10 10 0 6 5 10 10 10 6 0 10 -4 10 -10z m-202 -481 c-2
-6 -8 -10 -13 -10 -5 0 -11 4 -13 10 -2 6 4 11 13 11 9 0 15 -5 13 -11z m362
-70 l0 -80 -47 3 -48 3 -3 47 c-2 38 1 49 17 57 11 6 27 8 35 5 12 -5 16 0 16
20 0 16 6 26 15 26 12 0 15 -16 15 -81z m-782 59 c17 -17 15 -53 -3 -68 -13
-11 -13 -15 1 -41 13 -26 13 -29 0 -29 -9 0 -22 14 -31 30 -9 17 -22 30 -30
30 -10 0 -15 -10 -15 -30 0 -16 -4 -30 -10 -30 -6 0 -10 32 -10 75 l0 75 43 0
c24 0 48 -5 55 -12z m112 -38 c33 -33 26 -50 -21 -50 -28 0 -39 -4 -36 -12 2
-7 18 -12 36 -11 39 1 37 -21 -3 -25 -37 -5 -56 14 -56 54 0 23 7 38 22 48 29
20 34 20 58 -4z m121 10 c5 0 9 -7 9 -15 0 -11 -8 -13 -30 -8 -29 5 -30 4 -30
-32 0 -37 1 -37 31 -31 22 4 29 2 27 -7 -3 -6 -17 -14 -33 -15 -34 -4 -55 18
-55 59 0 30 35 63 58 54 8 -3 18 -5 23 -5z m113 -6 c9 -8 16 -24 16 -35 0 -15
-7 -19 -35 -19 -26 0 -35 -4 -35 -16 0 -12 7 -15 30 -12 38 6 50 -9 18 -21
-61 -23 -105 52 -58 99 24 24 43 25 64 4z m296 -4 c33 -33 26 -50 -21 -50 -28
0 -39 -4 -36 -12 2 -7 18 -12 36 -11 36 1 38 -15 3 -28 -23 -9 -60 15 -63 41
-4 41 3 61 24 70 32 13 35 12 57 -10z m-220 -45 c0 -42 -3 -55 -15 -55 -12 0
-15 13 -15 55 0 42 3 55 15 55 12 0 15 -13 15 -55z m56 20 c9 -48 20 -52 28
-10 7 33 22 53 33 42 3 -3 -3 -28 -12 -56 -21 -65 -46 -69 -64 -10 -7 23 -15
47 -18 55 -3 8 1 14 10 14 10 0 18 -13 23 -35z m-989 -112 c-2 -21 -4 -4 -4
37 0 41 2 58 4 38 2 -21 2 -55 0 -75z m3381 71 c18 -12 22 -25 22 -69 0 -47
-3 -57 -25 -71 -23 -15 -27 -15 -50 0 -22 14 -25 24 -25 71 0 44 4 57 22 69
12 9 25 16 28 16 3 0 16 -7 28 -16z m200 -12 c6 -9 12 -27 12 -40 0 -32 -37
-92 -58 -92 -12 0 -11 4 6 23 24 26 29 42 10 34 -7 -2 -23 -1 -35 4 -31 11
-32 62 -2 83 23 16 47 12 67 -12z m140 -39 c3 -44 -27 -93 -56 -93 -10 0 -13
3 -7 8 6 4 19 18 30 31 l20 24 -22 -5 c-57 -15 -85 63 -33 89 37 18 64 -3 68
-54z m133 29 c6 -15 8 -36 5 -47 -7 -27 -44 -75 -57 -75 -6 0 -1 12 11 28 l22
27 -31 3 c-53 6 -67 73 -18 91 32 12 57 1 68 -27z m127 10 c6 -9 12 -27 12
-41 0 -34 -35 -91 -57 -91 -14 0 -13 3 5 23 28 30 28 35 -4 35 -46 0 -61 59
-23 86 23 16 47 12 67 -12z m270 -55 c3 -48 0 -57 -20 -71 -29 -20 -34 -20
-58 4 -36 36 -24 128 20 143 33 11 55 -18 58 -76z m1008 -36 c-22 -22 -43 -38
-48 -34 -6 3 5 20 23 39 l33 34 -32 33 c-18 18 -29 37 -25 41 4 3 25 -11 47
-33 l40 -41 -38 -39z m-1146 54 c0 -37 4 -55 13 -56 10 0 10 -2 0 -6 -7 -2
-13 -11 -13 -19 0 -8 -4 -14 -10 -14 -5 0 -10 7 -10 15 0 11 -11 15 -41 15
-22 0 -39 3 -37 8 22 50 66 112 81 112 14 0 17 -9 17 -55z m261 39 c10 -13 10
-19 0 -36 -9 -15 -10 -23 -2 -31 33 -33 -15 -85 -63 -68 -14 6 -26 15 -26 21
0 13 6 13 29 -2 15 -9 23 -9 35 1 23 20 19 40 -9 47 -29 7 -34 24 -6 24 24 0
34 25 15 40 -11 10 -17 10 -29 0 -17 -14 -31 -8 -20 9 10 17 61 13 76 -5z
m129 -34 c0 -35 5 -52 14 -56 12 -5 11 -9 -5 -25 -23 -23 -29 -24 -29 -4 0 10
-11 15 -35 15 -19 0 -35 3 -35 6 0 4 14 31 31 60 40 70 59 71 59 4z m272 33
c23 -21 25 -95 2 -117 -9 -10 -33 -16 -60 -16 l-44 0 0 75 0 75 42 0 c24 0 49
-7 60 -17z m148 7 c0 -5 -16 -10 -35 -10 -28 0 -35 -4 -35 -20 0 -16 7 -20 30
-20 20 0 30 -5 30 -15 0 -10 -10 -15 -30 -15 -27 0 -30 -3 -30 -30 0 -20 -5
-30 -15 -30 -12 0 -15 15 -15 75 l0 75 50 0 c28 0 50 -4 50 -10z m90 0 c0 -5
-4 -10 -10 -10 -5 0 -10 -25 -10 -55 0 -30 5 -55 10 -55 6 0 10 -4 10 -10 0
-5 -16 -10 -35 -10 -19 0 -35 5 -35 10 0 6 5 10 10 10 6 0 10 25 10 55 0 30
-4 55 -10 55 -5 0 -10 5 -10 10 0 6 16 10 35 10 19 0 35 -4 35 -10z m-5090
-71 c0 -6 -4 -7 -10 -4 -5 3 -10 11 -10 16 0 6 5 7 10 4 6 -3 10 -11 10 -16z
m100 -59 c0 -5 -4 -12 -10 -15 -5 -3 -10 -1 -10 5 0 6 -4 9 -9 5 -5 -3 -13 0
-17 6 -4 8 -3 9 4 5 7 -4 12 -3 12 3 0 6 7 8 15 5 8 -4 15 -10 15 -14z m3440
0 c0 -5 -7 -10 -15 -10 -8 0 -15 5 -15 10 0 6 7 10 15 10 8 0 15 -4 15 -10z
m-2991 -96 c24 -64 24 -64 11 -64 -5 0 -10 7 -10 15 0 9 -9 15 -25 15 -14 0
-28 -7 -31 -15 -4 -8 -10 -15 -14 -15 -5 0 0 27 12 60 11 33 23 60 28 60 4 0
17 -25 29 -56z m321 41 c10 -12 10 -19 2 -27 -8 -8 -8 -15 -1 -24 19 -23 1
-54 -31 -54 -16 0 -32 5 -35 11 -4 6 4 9 21 7 20 -2 29 2 32 15 2 10 -3 17
-12 17 -9 0 -16 5 -16 10 0 6 7 10 15 10 8 0 15 7 15 16 0 12 -7 15 -25 12
-24 -5 -32 2 -18 15 11 12 40 7 53 -8z m80 -39 c0 -44 4 -55 18 -59 9 -3 -3
-5 -28 -5 -36 -1 -41 1 -22 8 18 8 22 17 22 52 0 33 -3 39 -12 30 -20 -20 -32
-13 -13 8 28 31 35 24 35 -34z m205 44 c4 -6 -5 -10 -19 -10 -32 0 -35 -27 -3
-32 17 -2 22 -10 22 -33 0 -24 -5 -31 -24 -33 -13 -2 -28 2 -35 8 -8 9 -4 10
15 5 30 -7 42 4 33 30 -5 12 -14 15 -30 11 -21 -6 -24 -3 -24 22 0 16 3 32 7
35 10 11 51 8 58 -3z m143 -2 c13 -13 16 -66 6 -92 -9 -23 -51 -20 -65 5 -28
53 21 125 59 87z m100 0 c25 -25 2 -108 -30 -108 -6 0 -4 8 5 18 18 20 23 37
8 28 -19 -12 -41 7 -41 34 0 37 33 53 58 28z m-656 -39 c-3 -20 -12 -33 -23
-36 -28 -8 -23 -23 6 -23 18 0 25 -5 25 -20 0 -20 -5 -22 -35 -22 -42 0 -45 2
-39 29 4 14 7 40 8 57 1 28 12 37 57 45 3 1 3 -13 1 -30z m-122 -54 c10 0 17
14 21 40 7 44 10 40 12 -18 2 -36 1 -38 -28 -35 -28 3 -30 6 -31 48 l-2 45 7
-40 c4 -26 11 -40 21 -40z m590 65 c0 -5 -4 -10 -10 -10 -5 0 -10 5 -10 10 0
6 5 10 10 10 6 0 10 -4 10 -10z m333 -11 c5 -9 7 -28 3 -42 -5 -20 -13 -27
-31 -27 -16 0 -25 -6 -25 -16 0 -8 -3 -13 -7 -11 -5 3 -6 30 -5 60 3 51 5 54
29 53 14 -1 30 -8 36 -17z m144 -29 c1 -41 1 -42 -5 -10 -5 22 -14 36 -24 38
-15 3 -18 -4 -18 -32 0 -20 -4 -36 -10 -36 -5 0 -10 16 -10 35 0 24 -5 35 -15
35 -10 0 -15 -11 -15 -35 0 -19 -4 -35 -10 -35 -5 0 -10 18 -10 39 0 44 6 47
75 46 l40 0 2 -45z m-664 -45 c-7 -21 -13 -19 -13 6 0 11 4 18 10 14 5 -3 7
-12 3 -20z m187 15 c0 -5 -4 -10 -10 -10 -5 0 -10 5 -10 10 0 6 5 10 10 10 6
0 10 -4 10 -10z m-632 -503 c3 -16 1 -17 -18 -7 -12 6 -28 9 -36 6 -24 -9 -16
-33 13 -41 36 -9 53 -23 53 -46 0 -42 -57 -63 -96 -35 -24 18 -10 34 16 18 11
-6 26 -9 35 -6 26 10 13 37 -22 46 -41 11 -57 53 -27 75 26 19 78 13 82 -10z
m322 -1 c0 -8 6 -17 13 -20 10 -5 10 -7 0 -12 -7 -3 -13 -23 -13 -44 0 -22 5
-40 13 -43 6 -2 8 -8 4 -13 -17 -17 -42 13 -45 55 -2 22 -8 41 -13 41 -11 0
22 49 34 50 4 0 7 -6 7 -14z m-200 -35 c20 -39 13 -51 -32 -51 -40 0 -41 -1
-25 -17 14 -15 21 -16 37 -5 17 10 20 10 20 -3 0 -20 -43 -29 -69 -15 -14 7
-21 20 -21 41 0 46 16 69 50 69 19 0 33 -7 40 -19z m128 -43 c2 -36 -1 -58 -8
-58 -5 0 -10 20 -10 44 0 48 -8 60 -34 50 -11 -4 -16 -19 -16 -50 0 -24 -4
-44 -10 -44 -6 0 -10 26 -10 59 l0 59 43 -2 42 -1 3 -57z m2636 -24 c10 -10
16 -33 16 -64 0 -55 -18 -80 -55 -80 -30 0 -45 26 -45 80 0 23 5 50 10 61 13
23 53 25 74 3z m194 4 c27 -27 7 -113 -32 -140 -23 -16 -28 -7 -9 15 33 36 35
45 9 40 -26 -5 -56 19 -56 47 0 40 60 66 88 38z m130 0 c27 -27 7 -113 -32
-140 -23 -16 -28 -7 -9 15 36 39 38 49 9 41 -32 -8 -56 10 -56 42 0 44 58 72
88 42z m138 -13 c11 -16 14 -34 9 -52 -9 -38 -43 -83 -63 -83 -12 0 -9 7 11
28 27 28 36 49 16 37 -19 -12 -56 4 -62 27 -15 57 57 92 89 43z m129 8 c24
-24 14 -89 -19 -121 -14 -14 -28 -23 -32 -20 -3 4 4 16 15 27 27 27 27 41 1
34 -27 -7 -50 14 -50 46 0 49 50 69 85 34z m145 5 c0 -20 -54 -148 -62 -148
-13 0 -9 17 17 76 14 31 25 58 25 60 0 2 -13 4 -30 4 -20 0 -30 -5 -30 -15 0
-8 -4 -15 -10 -15 -5 0 -10 11 -10 25 0 23 3 25 50 25 33 0 50 -4 50 -12z
m124 -10 c8 -13 8 -23 -1 -38 -8 -12 -9 -21 -3 -25 14 -9 12 -49 -2 -63 -17
-17 -63 -15 -78 3 -10 13 -7 14 26 12 33 -2 39 1 39 18 0 13 -8 21 -22 23 -13
2 -23 7 -23 10 0 4 10 12 23 17 35 16 28 40 -10 39 -33 -2 -44 10 -20 20 23 9
60 1 71 -16z m106 -48 c0 -63 2 -70 20 -70 11 0 20 -4 20 -10 0 -5 -22 -10
-50 -10 -27 0 -50 5 -50 10 0 6 9 10 20 10 18 0 20 7 20 62 0 61 0 61 -20 43
-11 -10 -23 -15 -27 -11 -9 8 36 45 55 46 8 0 12 -21 12 -70z m154 48 c8 -13
8 -23 -1 -38 -8 -12 -9 -21 -3 -25 14 -9 12 -49 -2 -63 -17 -17 -63 -15 -78 3
-10 13 -7 14 26 12 34 -2 39 1 42 21 3 16 -2 22 -17 22 -30 0 -34 17 -5 24 39
10 28 41 -14 40 -32 -2 -43 10 -19 20 23 9 60 1 71 -16z m266 2 c14 -14 20
-33 20 -64 0 -54 -24 -76 -82 -76 l-38 0 0 80 0 80 40 0 c27 0 47 -7 60 -20z
m148 8 c-3 -7 -19 -14 -36 -16 -24 -2 -32 -8 -32 -23 0 -14 7 -19 30 -19 17 0
30 -4 30 -10 0 -5 -13 -10 -30 -10 -28 0 -30 -3 -30 -35 0 -24 -5 -35 -15 -35
-12 0 -15 16 -15 80 l0 80 51 0 c36 0 49 -4 47 -12z m92 3 c0 -6 -4 -13 -10
-16 -5 -3 -10 -28 -10 -55 0 -27 5 -52 10 -55 21 -13 9 -25 -25 -25 -19 0 -35
5 -35 10 0 6 5 10 10 10 6 0 10 27 10 60 0 33 -4 60 -10 60 -5 0 -10 5 -10 10
0 6 16 10 35 10 19 0 35 -4 35 -9z m250 -26 l34 -35 -35 -37 c-18 -21 -35 -40
-37 -42 -1 -3 -7 0 -13 6 -8 8 -5 15 8 24 43 33 47 46 19 74 -26 26 -33 45
-18 45 4 0 23 -16 42 -35z m-1990 -55 c0 -5 -13 -10 -30 -10 -16 0 -30 5 -30
10 0 6 14 10 30 10 17 0 30 -4 30 -10z m182 -55 c0 -5 -5 -11 -11 -13 -6 -2
-11 4 -11 13 0 9 5 15 11 13 6 -2 11 -8 11 -13z m-2981 -100 c18 -48 17 -76
-2 -42 -12 21 -48 22 -55 2 -4 -8 -10 -15 -15 -15 -7 0 0 27 26 98 9 24 27 7
46 -43z m323 38 c4 -9 2 -21 -3 -26 -6 -6 -6 -16 2 -27 22 -37 -35 -68 -63
-35 -11 13 -8 14 19 9 25 -5 31 -3 31 11 0 9 -10 19 -22 23 l-22 5 22 8 c12 5
22 16 22 25 0 12 -6 15 -26 10 -17 -5 -23 -3 -19 4 10 16 52 12 59 -7z m76
-33 c0 -38 4 -50 15 -50 8 0 15 -4 15 -10 0 -5 -16 -10 -35 -10 -19 0 -35 5
-35 10 0 6 7 10 15 10 11 0 15 11 15 41 0 37 -2 40 -22 33 -20 -6 -21 -5 -9
10 26 31 41 19 41 -34z m188 43 c-34 -5 -37 -30 -5 -35 17 -2 23 -11 25 -34 3
-34 -16 -49 -49 -39 -29 9 -23 24 9 22 18 -1 27 3 27 13 0 9 -11 16 -27 18
-24 3 -28 8 -28 33 0 27 2 29 38 28 30 -2 32 -3 10 -6z m166 -9 c11 -29 6 -81
-9 -94 -8 -6 -23 -9 -34 -5 -25 8 -38 64 -22 94 14 25 56 28 65 5z m104 -24
c2 -25 -3 -42 -19 -58 -11 -13 -24 -21 -27 -18 -3 3 3 15 13 26 18 19 17 20
-3 20 -27 0 -44 28 -30 53 6 12 18 17 36 15 23 -3 27 -8 30 -38z m-666 -10
c-4 -31 -36 -50 -54 -32 -24 24 1 52 53 61 3 1 4 -12 1 -29z m-119 -48 c14 -3
17 4 17 34 0 45 13 37 16 -10 3 -29 -1 -35 -22 -40 -36 -9 -44 0 -43 47 l2 42
6 -35 c4 -22 12 -36 24 -38z m587 58 c0 -5 -4 -10 -10 -10 -5 0 -10 5 -10 10
0 6 5 10 10 10 6 0 10 -4 10 -10z m338 -23 c4 -34 -15 -60 -40 -54 -13 4 -18
-1 -20 -16 -1 -12 -4 3 -7 33 -4 30 -5 59 -3 63 2 4 18 7 35 5 27 -2 33 -8 35
-31z m139 -17 c1 -42 0 -40 -13 18 -8 37 -34 27 -34 -13 0 -19 -4 -35 -10 -35
-5 0 -10 16 -10 35 0 24 -5 35 -15 35 -10 0 -15 -11 -15 -35 0 -19 -4 -35 -10
-35 -5 0 -10 18 -10 40 l0 41 58 -3 57 -3 2 -45z m-942 -45 c0 -15 -8 -21 -29
-23 -35 -4 -47 6 -40 34 5 18 11 20 37 15 23 -5 32 -12 32 -26z m278 10 c-7
-21 -13 -19 -13 6 0 11 4 18 10 14 5 -3 7 -12 3 -20z m183 -2 c-10 -10 -19 5
-10 18 6 11 8 11 12 0 2 -7 1 -15 -2 -18z m-198 -474 c-2 -6 -8 -10 -13 -10
-5 0 -11 4 -13 10 -2 6 4 11 13 11 9 0 15 -5 13 -11z m362 -69 l0 -80 -44 0
c-48 0 -56 9 -56 65 0 37 26 60 54 49 12 -5 16 0 16 20 0 16 6 26 15 26 12 0
15 -16 15 -80z m-776 47 c8 -13 7 -24 -5 -46 -14 -24 -14 -31 -2 -54 12 -24
12 -27 -3 -27 -8 0 -21 14 -27 30 -7 18 -19 30 -29 30 -13 0 -18 -8 -18 -30 0
-16 -4 -30 -10 -30 -6 0 -10 32 -10 76 l0 75 46 -3 c32 -2 51 -9 58 -21z m104
-23 c12 -8 22 -24 22 -35 0 -16 -7 -19 -41 -19 -28 0 -39 -4 -36 -12 2 -7 18
-12 36 -11 20 0 31 -3 28 -10 -5 -17 -55 -21 -73 -6 -19 15 -18 74 2 93 19 20
34 20 62 0z m116 10 c9 -3 16 -12 16 -20 0 -16 -16 -19 -25 -4 -13 20 -35 -3
-35 -37 0 -34 1 -35 31 -29 22 4 29 2 27 -7 -7 -20 -60 -21 -75 -1 -20 28 -16
71 9 88 25 18 30 19 52 10z m117 -4 c11 -6 19 -21 19 -35 0 -22 -4 -25 -35
-25 -26 0 -35 -4 -35 -16 0 -13 7 -15 36 -11 25 4 34 2 31 -6 -6 -20 -69 -21
-84 -1 -19 26 -16 61 7 84 23 23 33 24 61 10z m184 -60 c-21 -64 -47 -68 -64
-9 -7 23 -15 47 -18 55 -3 8 1 14 10 14 10 0 18 -13 23 -35 8 -42 19 -45 29
-8 4 16 12 34 18 42 19 23 20 -5 2 -59z m113 54 c12 -8 22 -24 22 -35 0 -16
-7 -19 -41 -19 -28 0 -39 -4 -36 -12 2 -7 18 -12 36 -11 41 1 36 -21 -6 -25
-18 -2 -35 3 -43 13 -20 24 -17 75 5 91 24 18 36 18 63 -2z m-218 -49 c0 -42
-3 -55 -15 -55 -12 0 -15 13 -15 55 0 42 3 55 15 55 12 0 15 -13 15 -55z
m2448 -21 c30 -21 32 -104 2 -134 -24 -24 -29 -24 -58 -4 -18 12 -22 25 -22
69 0 44 4 57 22 69 12 9 25 16 28 16 3 0 16 -7 28 -16z m192 -4 c11 -11 20
-32 20 -46 0 -34 -37 -94 -58 -94 -12 0 -11 4 6 23 29 31 28 35 -10 39 -22 2
-34 9 -36 21 -6 30 7 65 26 70 30 8 32 7 52 -13z m128 4 c16 -11 22 -25 22
-53 0 -41 -31 -91 -56 -91 -11 0 -10 5 6 22 26 28 25 38 -3 38 -48 0 -65 56
-25 84 12 9 25 16 28 16 3 0 16 -7 28 -16z m154 -20 c6 -12 8 -33 4 -47 -7
-31 -44 -77 -61 -77 -9 0 -4 10 13 28 l27 27 -32 3 c-37 4 -58 31 -48 63 14
42 79 44 97 3z m116 20 c15 -10 22 -25 22 -46 0 -37 -36 -98 -58 -98 -12 0
-11 4 6 23 29 31 28 37 -7 37 -29 0 -41 14 -41 50 0 16 34 50 50 50 3 0 16 -7
28 -16z m267 -40 c1 -22 4 -45 8 -51 15 -24 -12 -53 -48 -53 -18 0 -37 5 -40
11 -11 17 2 21 25 7 18 -11 23 -11 35 6 16 21 4 46 -21 46 -21 0 -17 17 6 23
23 6 27 35 5 43 -8 4 -22 1 -29 -5 -10 -8 -16 -9 -21 -1 -9 14 35 29 60 20 15
-6 20 -17 20 -46z m273 16 c2 -12 -2 -27 -10 -31 -11 -8 -11 -10 0 -18 8 -4
12 -21 10 -37 -3 -25 -8 -29 -39 -32 -23 -2 -40 2 -49 12 -14 18 -7 20 20 6
26 -14 52 -2 48 24 -2 13 -12 22 -25 24 -30 4 -30 20 -1 24 13 2 24 10 26 19
4 20 -27 34 -42 19 -13 -13 -26 -13 -26 0 0 16 42 28 65 20 11 -4 22 -17 23
-30z m752 -75 c-19 -19 -41 -35 -49 -35 -10 0 -3 12 19 35 l34 35 -32 33 c-18
18 -29 37 -25 41 4 3 25 -11 47 -33 l40 -41 -34 -35z m-1140 95 c0 -20 -52
-140 -61 -140 -14 0 -11 13 15 73 14 30 22 58 19 61 -13 13 -53 6 -53 -9 0 -8
-4 -15 -10 -15 -5 0 -10 9 -10 20 0 17 7 20 50 20 28 0 50 -4 50 -10z m230
-55 c0 -50 3 -65 14 -65 8 0 18 -4 21 -10 4 -6 -13 -10 -44 -10 -28 0 -51 5
-51 10 0 6 9 10 20 10 18 0 20 7 20 55 0 52 -1 55 -19 45 -30 -16 -36 -12 -16
10 10 11 26 20 37 20 16 0 18 -8 18 -65z m424 49 c21 -21 21 -92 -1 -116 -11
-12 -30 -18 -60 -18 l-43 0 0 75 0 75 44 0 c27 0 51 -6 60 -16z m146 6 c0 -5
-16 -10 -35 -10 -28 0 -35 -4 -35 -20 0 -16 7 -20 31 -20 38 0 35 -24 -4 -28
-22 -3 -27 -8 -27 -33 0 -19 -5 -29 -15 -29 -12 0 -15 15 -15 75 l0 75 50 0
c28 0 50 -4 50 -10z m90 0 c0 -5 -4 -10 -10 -10 -5 0 -10 -25 -10 -55 0 -30 5
-55 10 -55 6 0 10 -4 10 -10 0 -5 -16 -10 -35 -10 -19 0 -35 5 -35 10 0 6 5
10 10 10 6 0 10 25 10 55 0 30 -4 55 -10 55 -5 0 -10 5 -10 10 0 6 16 10 35
10 19 0 35 -4 35 -10z m-5074 -82 l29 -31 -32 23 c-18 13 -33 27 -33 32 0 13
5 10 36 -24z m154 19 c0 -2 -10 -12 -22 -23 l-23 -19 19 23 c18 21 26 27 26
19z m-82 -39 c-2 -7 5 -12 15 -11 17 1 17 -1 -2 -18 -20 -18 -23 -19 -43 -4
-19 12 -19 15 -5 15 9 0 17 7 17 15 0 8 5 15 10 15 6 0 9 -6 8 -12z m3452 -28
c0 -5 -7 -10 -15 -10 -8 0 -15 5 -15 10 0 6 7 10 15 10 8 0 15 -4 15 -10z
m-2995 -81 c25 -70 26 -79 16 -79 -6 0 -11 7 -11 15 0 10 -10 15 -30 15 -20 0
-30 -5 -30 -15 0 -8 -4 -15 -9 -15 -5 0 0 27 11 60 11 34 25 59 31 57 6 -2 16
-19 22 -38z m329 19 c8 -13 5 -24 -12 -47 -27 -37 -27 -39 1 -44 13 -3 8 -5
-15 -6 -44 -1 -49 13 -13 41 14 11 25 29 25 40 0 16 -5 19 -25 16 -26 -5 -35
6 -12 15 20 9 39 3 51 -15z m96 12 c0 -5 -11 -10 -25 -10 -35 0 -33 -28 3 -32
23 -3 27 -8 27 -33 0 -27 -4 -30 -32 -33 -19 -2 -33 1 -33 7 0 6 10 10 23 8
16 -1 22 3 22 18 0 15 -6 19 -22 18 -20 -2 -23 2 -23 32 0 32 2 35 30 35 17 0
30 -4 30 -10z m155 -14 c-16 -23 -15 -25 7 -28 18 -2 23 -9 23 -33 0 -27 -3
-30 -30 -30 -27 0 -30 3 -33 37 -2 27 3 43 17 57 28 28 35 26 16 -3z m173 12
c13 -13 16 -66 6 -92 -9 -22 -51 -20 -64 3 -30 57 17 130 58 89z m102 2 c0 -5
-9 -10 -19 -10 -31 0 -34 -28 -3 -32 23 -2 27 -8 27 -33 0 -24 -5 -31 -24 -33
-13 -2 -28 2 -35 9 -8 9 -7 10 8 5 23 -8 47 10 39 30 -4 11 -13 14 -29 10 -21
-6 -24 -3 -24 22 0 16 3 32 7 35 10 11 53 8 53 -3z m-658 -41 c-3 -20 -12 -33
-23 -36 -28 -8 -23 -23 6 -23 19 0 25 -5 25 -21 0 -17 -5 -20 -37 -17 -34 3
-38 6 -34 28 2 14 4 38 5 55 1 27 13 36 57 44 3 1 3 -13 1 -30z m-122 -54 c10
0 17 14 21 40 6 40 8 38 13 -22 4 -31 2 -33 -30 -33 l-34 0 1 48 2 47 6 -40
c4 -26 11 -40 21 -40z m590 65 c0 -5 -4 -10 -10 -10 -5 0 -10 5 -10 10 0 6 5
10 10 10 6 0 10 -4 10 -10z m330 -5 c6 -7 10 -26 8 -42 -2 -22 -9 -29 -30 -31
-17 -2 -28 -9 -28 -18 0 -8 -3 -13 -7 -11 -5 3 -7 29 -5 59 3 48 6 54 27 56
12 1 28 -5 35 -13z m147 -35 c1 -41 1 -42 -5 -10 -5 22 -14 36 -24 38 -15 3
-18 -4 -18 -32 0 -20 -4 -36 -10 -36 -5 0 -10 16 -10 35 0 24 -5 35 -15 35
-10 0 -15 -11 -15 -35 0 -19 -4 -35 -10 -35 -10 0 -14 72 -5 82 3 2 29 4 57 4
l53 -1 2 -45z m-664 -45 c-8 -22 -22 -18 -16 5 3 11 9 17 14 15 4 -3 6 -12 2
-20z m187 15 c0 -5 -4 -10 -10 -10 -5 0 -10 5 -10 10 0 6 5 10 10 10 6 0 10
-4 10 -10z m-632 -503 c3 -16 1 -17 -18 -7 -12 6 -28 9 -36 6 -24 -9 -16 -33
13 -41 54 -13 68 -42 36 -77 -19 -22 -52 -23 -79 -4 -25 19 -11 32 19 19 13
-6 30 -8 37 -3 20 13 5 37 -29 43 -39 8 -54 52 -25 74 26 19 78 13 82 -10z
m322 -1 c0 -8 6 -17 13 -20 10 -5 10 -7 0 -12 -7 -3 -13 -23 -13 -44 0 -22 5
-40 13 -43 6 -2 8 -8 4 -13 -17 -17 -42 13 -45 55 -2 22 -7 41 -13 41 -5 0 -2
11 7 25 18 28 34 33 34 11z m-200 -37 c18 -32 5 -49 -37 -49 -35 0 -36 -1 -20
-17 14 -15 21 -16 37 -5 17 10 20 10 20 -3 0 -20 -43 -29 -69 -15 -16 8 -21
20 -21 48 0 21 5 43 12 50 20 20 66 15 78 -9z m128 -41 c2 -36 -1 -58 -8 -58
-5 0 -10 20 -10 45 0 33 -5 47 -16 52 -21 8 -34 -14 -34 -59 0 -21 -4 -38 -10
-38 -6 0 -10 26 -10 59 l0 59 43 -2 42 -1 3 -57z m3762 -23 c18 -21 5 -60 -33
-95 l-32 -30 38 0 c20 0 37 -4 37 -10 0 -12 -87 -13 -94 -1 -3 4 12 27 34 49
22 22 40 48 40 57 0 21 -28 31 -51 17 -27 -17 -31 -15 -19 8 13 24 62 27 80 5z
m258 -1 c17 -12 22 -25 22 -60 0 -58 -26 -86 -78 -82 l-37 3 -3 64 c-2 35 -1
70 2 77 7 19 66 18 94 -2z m150 4 c-3 -7 -19 -14 -36 -16 -24 -2 -32 -8 -32
-23 0 -14 7 -19 30 -19 17 0 30 -4 30 -10 0 -5 -13 -10 -29 -10 -26 0 -30 -4
-33 -32 -2 -17 -9 -33 -15 -36 -10 -3 -13 17 -13 77 l0 81 51 0 c36 0 49 -4
47 -12z m92 2 c0 -5 -4 -10 -10 -10 -5 0 -10 -24 -10 -54 0 -30 5 -58 10 -61
21 -13 9 -25 -25 -25 -19 0 -35 5 -35 10 0 6 5 10 10 10 6 0 10 27 10 60 0 33
-4 60 -10 60 -5 0 -10 5 -10 10 0 6 16 10 35 10 19 0 35 -4 35 -10z m247 -22
c18 -18 33 -35 33 -39 0 -14 -74 -78 -83 -72 -5 3 6 20 24 39 l33 34 -27 28
c-48 50 -31 59 20 10z m-867 -58 c0 -5 -13 -10 -30 -10 -16 0 -30 5 -30 10 0
6 14 10 30 10 17 0 30 -4 30 -10z m-3919 -155 c18 -48 17 -76 -2 -42 -6 9 -19
17 -29 17 -10 0 -23 -8 -29 -17 -19 -35 -19 -7 1 45 11 29 24 52 30 50 6 -2
19 -26 29 -53z m327 28 c2 -13 -7 -31 -25 -47 l-28 -26 28 0 c15 0 27 -4 27
-9 0 -9 -59 -5 -68 4 -3 3 7 18 21 33 29 30 36 62 14 62 -7 0 -18 -5 -25 -12
-7 -7 -12 -8 -12 -2 0 33 63 31 68 -3z m73 18 c-30 -8 -40 -31 -14 -31 41 0
59 -51 24 -70 -11 -5 -27 -7 -35 -4 -25 10 -18 22 9 16 20 -3 25 0 25 17 0 16
-6 21 -25 21 -21 0 -25 5 -25 30 0 27 3 30 33 29 29 -1 29 -2 8 -8z m175 -10
c-17 -19 -17 -20 6 -23 33 -4 39 -63 8 -73 -28 -9 -50 11 -50 44 0 29 25 71
42 71 6 0 3 -9 -6 -19z m182 -32 c3 -51 -14 -75 -47 -64 -25 8 -38 64 -21 95
8 15 19 20 38 18 24 -3 27 -7 30 -49z m80 44 c-38 -6 -43 -29 -7 -37 22 -4 29
-11 29 -30 0 -30 -23 -50 -50 -41 -27 8 -26 25 1 18 12 -4 25 0 29 8 12 19 3
29 -26 29 -20 0 -24 5 -24 30 0 28 2 30 38 29 28 -2 31 -3 10 -6z m-646 -43
c-3 -19 -12 -32 -26 -36 -20 -7 -20 -8 4 -14 16 -4 25 -13 25 -25 0 -16 -7
-20 -35 -20 -29 0 -35 3 -32 20 2 11 3 35 3 53 0 25 5 35 22 42 37 15 44 12
39 -20z m-119 -48 c14 -3 17 4 17 32 0 20 3 36 8 36 4 0 7 -18 7 -40 0 -32 -4
-40 -23 -45 -34 -8 -42 1 -41 48 l2 42 6 -35 c4 -22 12 -36 24 -38z m587 58
c0 -5 -4 -10 -10 -10 -5 0 -10 5 -10 10 0 6 5 10 10 10 6 0 10 -4 10 -10z
m338 -25 c4 -31 -20 -58 -43 -49 -8 4 -15 -4 -18 -18 -2 -13 -5 5 -6 40 l-1
63 33 -3 c27 -3 32 -7 35 -33z m139 -10 c2 -42 -1 -39 -11 8 -9 41 -36 35 -36
-8 0 -19 -4 -35 -10 -35 -5 0 -10 16 -10 35 0 24 -5 35 -15 35 -10 0 -15 -11
-15 -35 0 -19 -4 -35 -10 -35 -5 0 -10 18 -10 40 l0 41 58 -3 57 -3 2 -40z
m-667 -46 c-14 -26 -18 -24 -12 6 2 14 8 22 13 19 5 -3 5 -14 -1 -25z m190 11
c0 -5 -2 -10 -4 -10 -3 0 -8 5 -11 10 -3 6 -1 10 4 10 6 0 11 -4 11 -10z
m-200 -480 c0 -5 -7 -10 -15 -10 -8 0 -15 5 -15 10 0 6 7 10 15 10 8 0 15 -4
15 -10z m360 -70 l0 -80 -44 0 c-48 0 -56 9 -56 65 0 37 26 60 54 49 12 -5 16
0 16 20 0 16 6 26 15 26 12 0 15 -16 15 -80z m-776 47 c8 -13 7 -24 -5 -46
-14 -24 -14 -31 -2 -54 12 -24 12 -27 -2 -27 -9 0 -21 14 -26 30 -7 19 -18 30
-30 30 -14 0 -19 -7 -19 -30 0 -16 -4 -30 -10 -30 -6 0 -10 32 -10 76 l0 75
46 -3 c32 -2 51 -9 58 -21z m108 -24 c10 -9 18 -24 18 -35 0 -14 -8 -18 -41
-18 -28 0 -39 -4 -36 -12 2 -7 18 -12 36 -11 39 1 37 -21 -3 -25 -37 -5 -56
14 -56 54 0 56 44 82 82 47z m112 11 c9 -3 16 -12 16 -20 0 -16 -16 -19 -25
-4 -13 20 -35 -3 -35 -37 0 -35 0 -35 37 -28 33 6 35 5 24 -9 -19 -23 -68 -20
-81 3 -30 57 10 116 64 95z m117 -4 c11 -6 19 -21 19 -35 0 -22 -4 -25 -35
-25 -26 0 -35 -4 -35 -16 0 -13 7 -15 36 -9 28 5 35 3 32 -7 -7 -21 -70 -23
-85 -2 -19 26 -16 61 7 84 23 23 33 24 61 10z m79 -56 c0 -41 -4 -54 -15 -54
-11 0 -15 13 -15 53 0 30 3 57 6 60 15 15 24 -8 24 -59z m56 21 c8 -43 20 -45
29 -6 7 33 35 64 35 39 0 -8 -7 -35 -16 -61 -22 -65 -45 -63 -67 5 -16 50 -15
74 3 63 5 -3 12 -21 16 -40z m164 25 c33 -33 26 -50 -21 -50 -28 0 -39 -4 -36
-12 2 -7 18 -12 36 -11 41 1 36 -21 -6 -25 -18 -2 -35 3 -43 13 -20 24 -17 75
5 91 26 19 42 17 65 -6z m3362 -74 c15 -22 8 -46 -23 -81 l-31 -35 30 0 c17 0
34 -4 37 -10 4 -6 -15 -10 -49 -10 -31 0 -56 4 -56 8 0 5 14 21 31 38 43 40
53 62 38 80 -15 18 -24 18 -43 -1 -8 -9 -17 -11 -21 -6 -3 5 5 17 17 25 23 16
57 12 70 -8z m748 -91 c-19 -19 -41 -35 -49 -35 -10 0 -3 12 19 35 l34 35 -32
33 c-18 18 -29 37 -25 41 4 3 25 -11 47 -33 l40 -41 -34 -35z m-486 89 c21
-21 21 -92 -1 -116 -11 -12 -30 -18 -60 -18 l-43 0 0 75 0 75 44 0 c27 0 51
-6 60 -16z m146 6 c0 -5 -16 -10 -35 -10 -28 0 -35 -4 -35 -20 0 -16 7 -20 31
-20 20 0 29 -4 26 -12 -2 -7 -16 -12 -31 -11 -23 2 -26 -2 -26 -33 0 -24 -5
-34 -15 -34 -12 0 -15 15 -15 75 l0 75 50 0 c28 0 50 -4 50 -10z m90 0 c0 -5
-4 -10 -10 -10 -5 0 -10 -25 -10 -55 0 -30 5 -55 10 -55 6 0 10 -4 10 -10 0
-5 -16 -10 -35 -10 -19 0 -35 5 -35 10 0 6 5 10 10 10 6 0 10 25 10 55 0 30
-4 55 -10 55 -5 0 -10 5 -10 10 0 6 16 10 35 10 19 0 35 -4 35 -10z m-5013
-62 c-3 -8 -6 -5 -6 6 -1 11 2 17 5 13 3 -3 4 -12 1 -19z m-7 -50 c0 11 4 24
10 27 5 3 7 0 4 -8 -7 -20 16 -33 28 -16 8 12 9 12 6 0 -2 -8 -13 -20 -24 -28
-18 -12 -24 -9 -55 25 l-34 37 33 -29 c30 -28 32 -29 32 -8z m475 -99 c25 -70
26 -79 16 -79 -6 0 -11 7 -11 15 0 10 -10 15 -30 15 -20 0 -30 -5 -30 -15 0
-8 -5 -15 -11 -15 -7 0 -8 7 -4 18 4 9 14 36 22 60 18 50 31 50 48 1z m323 29
c18 -18 15 -33 -15 -69 l-27 -32 27 5 c15 3 27 1 27 -3 0 -5 -16 -9 -35 -9
-41 0 -45 14 -10 42 14 11 25 29 25 40 0 17 -4 19 -25 14 -14 -4 -25 -3 -25 2
0 24 38 30 58 10z m102 -22 c0 -19 2 -40 5 -48 7 -18 -15 -48 -22 -30 -2 6
-16 12 -29 12 -30 0 -30 11 -2 61 27 49 48 51 48 5z m180 -5 c0 -22 4 -41 9
-43 5 -1 3 -12 -5 -22 -8 -11 -14 -14 -14 -8 0 7 -13 12 -30 12 -16 0 -30 3
-30 7 0 14 51 93 60 93 6 0 10 -18 10 -39z m146 9 c1 -14 5 -33 9 -43 4 -10 2
-24 -5 -32 -14 -17 -56 -20 -65 -4 -4 6 4 9 21 7 36 -4 46 26 12 36 l-23 7 23
9 c12 5 22 14 22 19 0 15 -27 20 -39 8 -7 -7 -11 -7 -11 -1 0 36 55 29 56 -6z
m102 18 c17 -17 15 -59 -4 -86 -21 -31 -38 -28 -18 4 14 21 15 25 3 24 -31 -5
-39 1 -39 28 0 16 3 32 7 35 10 11 38 8 51 -5z m-656 -39 c-3 -19 -12 -34 -26
-39 -20 -7 -20 -8 7 -15 18 -5 27 -14 27 -27 0 -16 -6 -19 -37 -16 -34 3 -38
6 -34 28 2 14 4 38 5 55 1 27 13 36 57 44 3 1 4 -13 1 -30z m-122 -54 c10 0
17 14 21 40 6 42 10 37 12 -17 1 -30 -2 -33 -29 -33 -28 0 -29 2 -30 45 l-2
45 7 -40 c4 -26 11 -40 21 -40z m590 65 c0 -5 -4 -10 -10 -10 -5 0 -10 5 -10
10 0 6 5 10 10 10 6 0 10 -4 10 -10z m333 -11 c16 -26 0 -69 -26 -69 -20 1
-20 2 -4 11 25 14 23 59 -3 59 -17 0 -20 -7 -20 -51 0 -27 -3 -48 -7 -46 -5 3
-6 30 -5 60 3 51 5 54 29 53 14 -1 30 -8 36 -17z m144 -29 c1 -41 1 -42 -5
-10 -5 22 -14 36 -24 38 -15 3 -18 -4 -18 -32 0 -20 -4 -36 -10 -36 -5 0 -10
16 -10 35 0 24 -5 35 -15 35 -10 0 -15 -11 -15 -35 0 -19 -4 -35 -10 -35 -5 0
-10 20 -10 45 l0 45 58 -2 57 -3 2 -45z m-664 -45 c-7 -21 -13 -19 -13 6 0 11
4 18 10 14 5 -3 7 -12 3 -20z m187 15 c0 -5 -4 -10 -10 -10 -5 0 -10 5 -10 10
0 6 5 10 10 10 6 0 10 -4 10 -10z m874 -2886 c9 -19 16 -36 16 -37 0 -1 -25 0
-55 1 l-55 4 1 54 2 54 37 -21 c21 -12 45 -36 54 -55z m2872 51 c9 -27 24 -35
51 -29 30 8 51 -30 28 -52 -20 -20 -19 -51 1 -62 14 -8 14 -10 0 -24 -8 -9
-12 -19 -8 -23 4 -3 -5 -4 -21 0 -28 7 -62 -10 -51 -26 3 -5 0 -9 -6 -9 -6 0
-8 -5 -4 -11 4 -7 -2 -9 -17 -7 -14 2 -29 14 -37 32 -12 24 -18 27 -43 22 -37
-7 -59 25 -34 50 20 20 19 51 -1 62 -13 7 -14 13 -4 31 9 18 17 21 39 16 24
-5 30 -2 41 24 9 23 18 30 36 29 14 -2 27 -11 30 -23z m-4378 9 c12 -4 22 -13
22 -21 0 -12 -11 -14 -59 -10 -32 2 -65 1 -72 -3 -8 -5 -12 -34 -12 -87 l1
-78 61 -3 c45 -2 60 -6 54 -15 -4 -8 -2 -8 9 1 10 8 19 9 22 4 10 -16 -22 -22
-124 -22 -80 0 -99 3 -104 16 -10 26 -7 184 4 205 9 16 22 19 93 19 45 0 92
-3 105 -6z m1362 -4 c-10 -6 -11 -10 -2 -10 9 0 12 -25 12 -90 0 -65 -3 -90
-12 -90 -9 0 -10 -3 -2 -8 6 -4 11 -15 11 -25 0 -24 -33 -13 -71 23 -41 40
-47 107 -15 155 13 19 30 33 37 30 7 -3 11 -1 7 4 -6 10 10 19 35 20 13 1 13
0 0 -9z m1480 -14 c0 -2 -7 -7 -16 -10 -8 -3 -12 -2 -9 4 6 10 25 14 25 6z
m131 -33 c13 -16 12 -17 -3 -4 -17 13 -22 21 -14 21 2 0 10 -8 17 -17z m-2936
-65 l1 -48 -58 0 -58 0 0 44 c0 50 5 54 70 52 l45 -1 0 -47z m1475 -38 c0 -24
-47 -76 -75 -84 -18 -5 -21 -1 -23 45 l-2 51 44 -3 c24 -2 42 -1 39 4 -2 4 1
7 6 7 6 0 11 -9 11 -20z m1477 -2 c-3 -8 -6 -5 -6 6 -1 11 2 17 5 13 3 -3 4
-12 1 -19z m-17 -34 c-8 -8 -23 -20 -34 -25 -13 -7 -9 -1 9 15 34 29 43 33 25
10z m-3370 -218 c0 -2 -9 -6 -20 -9 -11 -3 -18 -1 -14 4 5 9 34 13 34 5z m227
-73 c-2 -16 -4 -3 -4 27 0 30 2 43 4 28 2 -16 2 -40 0 -55z m1456 70 c-7 -2
-19 -2 -25 0 -7 3 -2 5 12 5 14 0 19 -2 13 -5z m84 -15 c-3 -8 -6 -5 -6 6 -1
11 2 17 5 13 3 -3 4 -12 1 -19z m46 15 c-7 -2 -19 -2 -25 0 -7 3 -2 5 12 5 14
0 19 -2 13 -5z m2484 1 c-3 -3 -12 -4 -19 -1 -8 3 -5 6 6 6 11 1 17 -2 13 -5z
m425 -66 c2 -20 0 -34 -4 -32 -4 3 -7 26 -7 52 1 49 5 42 11 -20z m-4305 20
c-3 -8 -6 -5 -6 6 -1 11 2 17 5 13 3 -3 4 -12 1 -19z m4163 18 c0 -3 -4 -8
-10 -11 -5 -3 -10 -1 -10 4 0 6 5 11 10 11 6 0 10 -2 10 -4z m-4623 -38 c-3
-7 -5 -2 -5 12 0 14 2 19 5 13 2 -7 2 -19 0 -25z m170 -20 c-2 -13 -4 -5 -4
17 -1 22 1 32 4 23 2 -10 2 -28 0 -40z m480 5 c-3 -10 -5 -2 -5 17 0 19 2 27
5 18 2 -10 2 -26 0 -35z m1050 15 c-3 -7 -5 -2 -5 12 0 14 2 19 5 13 2 -7 2
-19 0 -25z m110 10 c-3 -8 -6 -5 -6 6 -1 11 2 17 5 13 3 -3 4 -12 1 -19z m126
7 c-3 -9 -8 -14 -10 -11 -3 3 -2 9 2 15 9 16 15 13 8 -4z m2494 -32 c-3 -10
-5 -2 -5 17 0 19 2 27 5 18 2 -10 2 -26 0 -35z m230 15 c-3 -8 -6 -5 -6 6 -1
11 2 17 5 13 3 -3 4 -12 1 -19z m-4140 -10 c-3 -8 -6 -5 -6 6 -1 11 2 17 5 13
3 -3 4 -12 1 -19z m4095 -3 c3 -13 1 -22 -3 -19 -9 5 -13 44 -5 44 2 0 6 -11
8 -25z m-2787 -17 c6 -4 2 -8 -7 -8 -10 0 -18 7 -18 17 0 9 3 12 8 7 4 -5 12
-12 17 -16z m2495 -1 c22 -4 21 -5 -4 -4 -17 1 -31 9 -33 17 -3 10 -2 11 4 4
4 -7 19 -14 33 -17z m545 -5 c-3 -3 -11 0 -18 7 -9 10 -8 11 6 5 10 -3 15 -9
12 -12z m-3128 2 c-3 -3 -12 -4 -19 -1 -8 3 -5 6 6 6 11 1 17 -2 13 -5z"/>
<path d="M671 12475 l-20 -35 24 0 c22 0 25 4 25 35 0 19 -2 35 -4 35 -2 0
-13 -16 -25 -35z"/>
<path d="M2467 11923 c-13 -12 -7 -23 13 -23 11 0 20 7 20 15 0 15 -21 21 -33
8z"/>
<path d="M2830 11915 c0 -10 7 -15 18 -13 21 4 19 22 -2 26 -10 2 -16 -3 -16
-13z"/>
<path d="M3215 11951 c-8 -26 4 -51 26 -51 15 0 19 7 19 35 0 28 -4 35 -19 35
-11 0 -22 -8 -26 -19z"/>
<path d="M3470 11960 c0 -5 9 -10 20 -10 11 0 20 5 20 10 0 6 -9 10 -20 10
-11 0 -20 -4 -20 -10z"/>
<path d="M2890 11670 c0 -5 7 -10 15 -10 8 0 15 5 15 10 0 6 -7 10 -15 10 -8
0 -15 -4 -15 -10z"/>
<path d="M3256 11713 c-11 -11 -6 -23 9 -23 8 0 15 4 15 9 0 13 -16 22 -24 14z"/>
<path d="M1544 11216 c-10 -26 1 -51 24 -54 19 -3 22 1 22 32 0 30 -4 36 -20
36 -11 0 -23 -6 -26 -14z"/>
<path d="M760 11245 c0 -23 4 -26 28 -23 19 2 27 9 27 23 0 14 -8 21 -27 23
-24 3 -28 0 -28 -23z"/>
<path d="M895 11220 c-3 -5 -5 -10 -3 -11 36 -8 48 -7 48 6 0 17 -35 21 -45 5z"/>
<path d="M1130 11216 c0 -9 7 -15 18 -13 26 4 30 22 5 25 -16 2 -23 -2 -23
-12z"/>
<path d="M1427 11223 c-13 -12 -7 -19 18 -19 14 0 25 6 25 13 0 13 -32 18 -43
6z"/>
<path d="M3662 11158 c-13 -13 -16 -76 -6 -102 3 -9 14 -16 24 -16 22 0 30 19
30 70 0 43 -27 69 -48 48z"/>
<path d="M3840 11135 c0 -31 26 -43 47 -22 21 21 9 47 -22 47 -20 0 -25 -5
-25 -25z"/>
<path d="M3973 11144 c-8 -21 19 -46 40 -38 9 3 17 17 17 30 0 19 -5 24 -25
24 -14 0 -28 -7 -32 -16z"/>
<path d="M4116 11154 c-12 -12 -13 -20 -6 -35 14 -24 36 -24 50 0 14 26 13 29
-9 41 -15 7 -23 6 -35 -6z"/>
<path d="M4240 11140 c0 -17 5 -21 28 -18 16 2 27 9 27 18 0 9 -11 16 -27 18
-23 3 -28 -1 -28 -18z"/>
<path d="M4244 11085 c-4 -8 -3 -22 0 -31 8 -21 50 -14 54 10 6 31 -43 50 -54
21z"/>
<path d="M4523 11123 c-28 -50 -28 -53 -3 -53 25 0 33 17 28 60 l-3 33 -22
-40z"/>
<path d="M4781 11101 c-19 -12 -9 -55 13 -59 19 -4 36 13 36 35 0 17 -33 33
-49 24z"/>
<path d="M5030 11105 c0 -52 1 -55 25 -55 30 0 49 32 40 68 -7 30 -21 42 -47
42 -15 0 -18 -9 -18 -55z"/>
<path d="M765 10957 c-8 -19 -2 -31 13 -26 5 2 6 13 2 24 -7 19 -8 19 -15 2z"/>
<path d="M1607 10974 c-16 -16 -6 -35 16 -32 12 2 22 10 22 18 0 16 -26 25
-38 14z"/>
<path d="M943 10938 c2 -7 10 -13 17 -13 7 0 15 6 18 13 2 7 -5 12 -18 12 -13
0 -20 -5 -17 -12z"/>
<path d="M940 10871 c0 -11 21 -19 38 -14 21 8 13 23 -13 23 -14 0 -25 -4 -25
-9z"/>
<path d="M1740 10920 c0 -23 4 -30 20 -30 16 0 20 7 20 30 0 23 -4 30 -20 30
-16 0 -20 -7 -20 -30z"/>
<path d="M887 10335 c-5 -11 0 -15 19 -15 16 0 24 5 22 13 -7 18 -35 20 -41 2z"/>
<path d="M3654 10266 c-3 -7 -4 -33 -2 -57 3 -39 6 -44 28 -44 21 0 26 5 28
34 5 51 -5 81 -29 81 -11 0 -22 -6 -25 -14z"/>
<path d="M3845 10261 c-9 -28 1 -41 31 -41 22 0 25 4 22 28 -4 34 -43 44 -53
13z"/>
<path d="M3975 10261 c-9 -28 1 -41 31 -41 22 0 25 4 22 28 -4 34 -43 44 -53
13z"/>
<path d="M4112 10263 c-13 -26 -4 -43 23 -43 25 0 38 21 29 45 -8 21 -41 19
-52 -2z"/>
<path d="M4244 10266 c-10 -26 4 -48 28 -44 17 2 23 10 23 28 0 18 -6 26 -23
28 -13 2 -25 -3 -28 -12z"/>
<path d="M4376 10265 c-9 -24 -7 -78 3 -93 5 -8 17 -12 27 -10 16 3 19 12 19
58 0 48 -3 55 -21 58 -13 2 -24 -4 -28 -13z"/>
<path d="M5030 10215 c0 -61 14 -71 50 -35 34 34 18 90 -25 90 -24 0 -25 -3
-25 -55z"/>
<path d="M760 10060 c0 -11 6 -20 14 -20 9 0 12 7 9 20 -3 11 -9 20 -14 20 -5
0 -9 -9 -9 -20z"/>
<path d="M1604 10085 c-7 -18 3 -35 21 -35 18 0 26 15 19 34 -8 20 -33 21 -40
1z"/>
<path d="M947 10064 c-13 -13 -7 -24 14 -24 11 0 19 5 17 12 -5 14 -22 21 -31
12z"/>
<path d="M1740 10041 c0 -25 4 -31 21 -31 16 0 20 5 17 27 -2 17 -10 29 -20
31 -14 3 -18 -3 -18 -27z"/>
<path d="M940 9980 c0 -5 9 -10 19 -10 11 0 23 5 26 10 4 6 -5 10 -19 10 -14
0 -26 -4 -26 -10z"/>
<path d="M1544 9446 c-10 -26 1 -51 24 -54 19 -3 22 1 22 32 0 30 -4 36 -20
36 -11 0 -23 -6 -26 -14z"/>
<path d="M760 9475 c0 -23 4 -26 28 -23 19 2 27 9 27 23 0 14 -8 21 -27 23
-24 3 -28 0 -28 -23z"/>
<path d="M895 9450 c-4 -6 5 -10 19 -10 14 0 26 5 26 10 0 6 -9 10 -19 10 -11
0 -23 -4 -26 -10z"/>
<path d="M1130 9450 c0 -5 12 -10 26 -10 14 0 23 4 19 10 -3 6 -15 10 -26 10
-10 0 -19 -4 -19 -10z"/>
<path d="M1425 9450 c-3 -5 1 -10 9 -10 9 0 19 0 23 -1 4 0 9 4 11 10 5 14
-35 14 -43 1z"/>
<path d="M3662 9388 c-19 -19 -15 -105 4 -112 26 -10 44 13 44 58 0 37 -13 66
-30 66 -3 0 -11 -5 -18 -12z"/>
<path d="M3853 9393 c-18 -7 -16 -52 2 -59 18 -7 45 12 45 32 0 16 -30 33 -47
27z"/>
<path d="M3982 9388 c-25 -25 0 -64 32 -52 21 8 21 50 0 58 -20 8 -18 8 -32
-6z"/>
<path d="M4116 9384 c-18 -18 -6 -54 19 -54 25 0 37 36 19 54 -8 9 -17 16 -19
16 -2 0 -11 -7 -19 -16z"/>
<path d="M4253 9393 c-18 -7 -16 -52 2 -59 18 -7 45 12 45 32 0 16 -30 33 -47
27z"/>
<path d="M4387 9389 c-22 -13 -24 -91 -2 -109 28 -23 45 -4 45 48 0 55 -15 76
-43 61z"/>
<path d="M5030 9335 c0 -52 1 -55 25 -55 25 0 45 29 45 65 0 20 -28 45 -51 45
-16 0 -19 -7 -19 -55z"/>
<path d="M765 9187 c-8 -19 -2 -31 13 -26 5 2 6 13 2 24 -7 19 -8 19 -15 2z"/>
<path d="M942 9168 c5 -15 28 -18 29 -3 0 6 -7 12 -17 13 -10 3 -15 -1 -12
-10z"/>
<path d="M940 9100 c0 -5 11 -10 25 -10 14 0 25 5 25 10 0 6 -11 10 -25 10
-14 0 -25 -4 -25 -10z"/>
<path d="M887 8565 c-5 -11 0 -15 19 -15 16 0 24 5 22 13 -7 18 -35 20 -41 2z"/>
<path d="M3654 8497 c-3 -8 -4 -34 -2 -58 3 -39 6 -44 28 -44 24 0 25 3 25 55
0 49 -2 55 -23 58 -12 2 -24 -3 -28 -11z"/>
<path d="M3844 8496 c-10 -26 4 -48 28 -44 17 2 23 10 23 28 0 18 -6 26 -23
28 -13 2 -25 -3 -28 -12z"/>
<path d="M3974 8496 c-10 -26 4 -46 31 -46 23 0 26 4 23 28 -3 31 -44 45 -54
18z"/>
<path d="M4107 8498 c-8 -25 5 -48 28 -48 25 0 38 21 29 45 -7 18 -51 20 -57
3z"/>
<path d="M4244 8496 c-10 -26 4 -48 28 -44 17 2 23 10 23 28 0 18 -6 26 -23
28 -13 2 -25 -3 -28 -12z"/>
<path d="M4391 8464 c-26 -44 -26 -44 4 -44 23 0 25 4 25 40 0 22 -2 40 -4 40
-2 0 -13 -16 -25 -36z"/>
<path d="M4510 8491 c-21 -41 -4 -101 29 -101 19 0 31 26 31 71 0 45 -40 66
-60 30z"/>
<path d="M4783 8460 l-21 -40 24 0 c21 0 24 4 24 40 0 22 -1 40 -2 40 -2 0
-13 -18 -25 -40z"/>
<path d="M5030 8452 c0 -57 2 -61 35 -55 50 10 40 103 -10 103 -23 0 -25 -4
-25 -48z"/>
<path d="M757 8290 c-4 -15 0 -20 13 -20 13 0 17 5 13 20 -3 11 -9 20 -13 20
-4 0 -10 -9 -13 -20z"/>
<path d="M947 8294 c-13 -13 -7 -24 14 -24 11 0 19 5 17 12 -5 14 -22 21 -31
12z"/>
<path d="M1740 8271 c0 -25 4 -31 21 -31 16 0 20 5 17 27 -2 17 -10 29 -20 31
-14 3 -18 -3 -18 -27z"/>
<path d="M940 8210 c0 -5 9 -10 19 -10 11 0 23 5 26 10 4 6 -5 10 -19 10 -14
0 -26 -4 -26 -10z"/>
<path d="M1544 7676 c-10 -26 1 -51 24 -54 19 -3 22 1 22 32 0 30 -4 36 -20
36 -11 0 -23 -6 -26 -14z"/>
<path d="M760 7704 c0 -22 4 -25 28 -22 19 2 28 9 30 26 3 19 -1 22 -27 22
-27 0 -31 -4 -31 -26z"/>
<path d="M895 7680 c-4 -6 5 -10 19 -10 14 0 26 5 26 10 0 6 -9 10 -19 10 -11
0 -23 -4 -26 -10z"/>
<path d="M1130 7680 c0 -5 12 -10 26 -10 14 0 23 4 19 10 -3 6 -15 10 -26 10
-10 0 -19 -4 -19 -10z"/>
<path d="M1430 7684 c-10 -12 -8 -14 14 -14 28 0 35 14 12 23 -8 3 -20 -1 -26
-9z"/>
<path d="M3662 7618 c-17 -17 -15 -93 3 -108 12 -10 18 -10 30 0 27 23 15 120
-15 120 -3 0 -11 -5 -18 -12z"/>
<path d="M3853 7623 c-19 -7 -16 -50 4 -57 24 -10 51 20 37 41 -12 19 -23 24
-41 16z"/>
<path d="M3982 7618 c-25 -25 0 -64 32 -52 21 8 21 50 0 58 -20 8 -18 8 -32
-6z"/>
<path d="M4116 7614 c-18 -18 -6 -54 19 -54 22 0 39 38 24 56 -15 18 -24 18
-43 -2z"/>
<path d="M4253 7623 c-19 -7 -16 -50 4 -57 24 -10 51 20 37 41 -12 19 -23 24
-41 16z"/>
<path d="M4512 7618 c-17 -17 -15 -93 3 -108 12 -10 18 -10 30 0 27 23 15 120
-15 120 -3 0 -11 -5 -18 -12z"/>
<path d="M4393 7583 c-28 -50 -28 -53 -3 -53 25 0 33 17 28 60 l-3 33 -22 -40z"/>
<path d="M4787 7581 c-22 -38 -22 -51 3 -51 17 0 20 7 20 40 0 22 -1 40 -3 40
-1 0 -10 -13 -20 -29z"/>
<path d="M5030 7565 c0 -52 1 -55 25 -55 18 0 28 7 36 26 16 44 -4 84 -43 84
-15 0 -18 -9 -18 -55z"/>
<path d="M765 7417 c-8 -19 -2 -31 13 -26 5 2 6 13 2 24 -7 19 -8 19 -15 2z"/>
<path d="M1502 7398 c3 -47 21 -60 38 -28 16 31 5 70 -21 70 -18 0 -20 -5 -17
-42z"/>
<path d="M1602 7423 c4 -22 43 -25 43 -3 0 8 -11 16 -23 18 -19 3 -23 0 -20
-15z"/>
<path d="M943 7398 c2 -7 10 -13 17 -13 7 0 15 6 18 13 2 7 -5 12 -18 12 -13
0 -20 -5 -17 -12z"/>
<path d="M940 7330 c0 -5 11 -10 25 -10 14 0 25 5 25 10 0 6 -11 10 -25 10
-14 0 -25 -4 -25 -10z"/>
<path d="M1740 7386 c0 -32 20 -44 36 -22 16 23 7 46 -17 46 -13 0 -19 -7 -19
-24z"/>
<path d="M887 6795 c-5 -11 0 -15 19 -15 16 0 24 5 22 13 -7 18 -35 20 -41 2z"/>
<path d="M3654 6726 c-3 -7 -4 -33 -2 -57 3 -39 6 -44 28 -44 21 0 26 5 28 34
5 51 -5 81 -29 81 -11 0 -22 -6 -25 -14z"/>
<path d="M3844 6726 c-10 -26 4 -48 28 -44 17 2 23 10 23 28 0 18 -6 26 -23
28 -13 2 -25 -3 -28 -12z"/>
<path d="M3974 6726 c-10 -26 4 -48 28 -44 17 2 23 10 23 28 0 18 -6 26 -23
28 -13 2 -25 -3 -28 -12z"/>
<path d="M4106 6724 c-8 -20 11 -44 34 -44 20 0 32 23 24 45 -8 20 -50 19 -58
-1z"/>
<path d="M4244 6726 c-10 -26 4 -48 28 -44 17 2 23 10 23 28 0 18 -6 26 -23
28 -13 2 -25 -3 -28 -12z"/>
<path d="M5030 6680 c0 -47 2 -50 25 -50 34 0 53 39 37 75 -8 17 -20 25 -37
25 -23 0 -25 -3 -25 -50z"/>
<path d="M760 6520 c0 -11 7 -20 15 -20 17 0 18 2 9 24 -9 23 -24 20 -24 -4z"/>
<path d="M1504 6546 c-10 -26 1 -71 18 -74 20 -4 31 27 22 62 -7 28 -31 35
-40 12z"/>
<path d="M1604 6545 c-7 -18 3 -35 21 -35 18 0 26 15 19 34 -8 20 -33 21 -40
1z"/>
<path d="M947 6524 c-13 -13 -7 -24 14 -24 11 0 19 5 17 12 -5 14 -22 21 -31
12z"/>
<path d="M1740 6501 c0 -25 4 -31 21 -31 16 0 20 5 17 27 -2 17 -10 29 -20 31
-14 3 -18 -3 -18 -27z"/>
<path d="M953 6453 c-7 -3 -13 -9 -13 -14 0 -12 37 -12 44 0 7 11 -14 20 -31
14z"/>
<path d="M1544 5906 c-10 -26 1 -51 24 -54 19 -3 22 1 22 32 0 30 -4 36 -20
36 -11 0 -23 -6 -26 -14z"/>
<path d="M762 5938 c2 -17 10 -23 28 -23 18 0 26 6 28 23 3 19 -1 22 -28 22
-27 0 -31 -3 -28 -22z"/>
<path d="M900 5914 c-10 -12 -8 -14 14 -14 28 0 35 14 12 23 -8 3 -20 -1 -26
-9z"/>
<path d="M1140 5920 c-19 -12 -7 -22 21 -18 19 2 20 5 8 15 -9 7 -20 9 -29 3z"/>
<path d="M1430 5914 c-10 -12 -8 -14 14 -14 28 0 35 14 12 23 -8 3 -20 -1 -26
-9z"/>
<path d="M3662 5848 c-17 -17 -15 -93 3 -108 12 -10 18 -10 30 0 27 23 15 120
-15 120 -3 0 -11 -5 -18 -12z"/>
<path d="M3853 5853 c-18 -6 -16 -50 1 -56 8 -3 22 1 33 8 28 21 -1 62 -34 48z"/>
<path d="M3982 5848 c-25 -25 0 -64 32 -52 21 8 21 50 0 58 -20 8 -18 8 -32
-6z"/>
<path d="M4111 5841 c-13 -24 8 -55 31 -46 22 9 31 35 17 51 -16 19 -36 17
-48 -5z"/>
<path d="M4253 5853 c-18 -6 -16 -50 1 -56 8 -3 22 1 33 8 28 21 -1 62 -34 48z"/>
<path d="M5030 5796 c0 -53 1 -56 25 -56 54 0 56 102 2 108 -26 3 -27 2 -27
-52z"/>
<path d="M765 5647 c-8 -19 -2 -31 13 -26 5 2 6 13 2 24 -7 19 -8 19 -15 2z"/>
<path d="M1354 5615 c-4 -9 -2 -21 4 -27 15 -15 44 -1 40 19 -4 23 -36 29 -44
8z"/>
<path d="M1504 5656 c-9 -25 0 -71 15 -71 21 0 35 29 27 58 -7 29 -33 36 -42
13z"/>
<path d="M950 5640 c-12 -7 -12 -12 -2 -22 9 -9 15 -9 24 0 16 16 -2 34 -22
22z"/>
<path d="M940 5560 c0 -5 11 -10 25 -10 14 0 25 5 25 10 0 6 -11 10 -25 10
-14 0 -25 -4 -25 -10z"/>
<path d="M1740 5609 c0 -24 4 -30 18 -27 10 2 18 14 20 31 3 22 -1 27 -17 27
-17 0 -21 -6 -21 -31z"/>
<path d="M886 5025 c-4 -11 1 -15 19 -15 16 0 25 6 25 15 0 8 -9 15 -19 15
-10 0 -21 -7 -25 -15z"/>
<path d="M5030 4910 c0 -47 2 -50 25 -50 34 0 53 39 37 75 -8 17 -20 25 -37
25 -23 0 -25 -3 -25 -50z"/>
<path d="M760 4750 c0 -11 7 -20 15 -20 17 0 18 2 9 24 -9 23 -24 20 -24 -4z"/>
<path d="M1355 4730 c-4 -7 -3 -16 3 -22 14 -14 45 -2 40 15 -6 16 -34 21 -43
7z"/>
<path d="M1504 4776 c-10 -26 1 -71 18 -74 20 -4 32 29 24 64 -7 26 -33 33
-42 10z"/>
<path d="M945 4750 c-3 -6 1 -13 10 -16 19 -8 30 0 20 15 -8 14 -22 14 -30 1z"/>
<path d="M940 4675 c0 -11 7 -15 23 -13 12 2 22 8 22 13 0 6 -10 11 -22 13
-16 2 -23 -2 -23 -13z"/>
<path d="M1740 4730 c0 -23 4 -30 20 -30 16 0 20 7 20 30 0 23 -4 30 -20 30
-16 0 -20 -7 -20 -30z"/>
<path d="M1544 4136 c-10 -26 1 -51 24 -54 19 -3 22 1 22 32 0 30 -4 36 -20
36 -11 0 -23 -6 -26 -14z"/>
<path d="M762 4168 c2 -17 10 -23 28 -23 18 0 26 6 28 23 3 19 -1 22 -28 22
-27 0 -31 -3 -28 -22z"/>
<path d="M900 4145 c-11 -13 -9 -15 15 -15 16 0 25 5 23 12 -7 19 -24 20 -38
3z"/>
<path d="M1140 4150 c-19 -12 -7 -22 21 -18 19 2 20 5 8 15 -9 7 -20 9 -29 3z"/>
<path d="M1430 4145 c-11 -13 -9 -15 15 -15 16 0 25 5 23 12 -7 19 -24 20 -38
3z"/>
<path d="M5030 4025 c0 -46 3 -55 18 -55 39 0 59 40 43 84 -8 19 -18 26 -36
26 -24 0 -25 -3 -25 -55z"/>
<path d="M760 3870 c0 -11 6 -20 14 -20 9 0 12 7 9 20 -3 11 -9 20 -14 20 -5
0 -9 -9 -9 -20z"/>
<path d="M1182 3870 c-16 -26 -15 -30 3 -30 9 0 15 9 15 25 0 30 -2 31 -18 5z"/>
<path d="M1367 3870 c-16 -22 -16 -25 -1 -28 21 -5 26 2 22 30 l-3 23 -18 -25z"/>
<path d="M1611 3901 c-17 -11 -7 -41 13 -41 22 0 30 20 15 36 -9 8 -19 10 -28
5z"/>
<path d="M944 3869 c-10 -17 13 -36 27 -22 12 12 4 33 -11 33 -5 0 -12 -5 -16
-11z"/>
<path d="M940 3790 c0 -5 11 -10 25 -10 14 0 25 5 25 10 0 6 -11 10 -25 10
-14 0 -25 -4 -25 -10z"/>
<path d="M5142 910 c-36 -34 -27 -81 18 -98 20 -8 29 -5 48 15 34 36 28 69
-15 92 -28 14 -25 15 -51 -9z"/>
<path d="M2125 880 c3 -5 8 -10 11 -10 2 0 4 5 4 10 0 6 -5 10 -11 10 -5 0 -7
-4 -4 -10z"/>
<path d="M788 901 c11 -7 11 -9 -2 -14 -21 -8 -20 -34 1 -45 11 -7 21 -5 31 4
12 13 12 18 -2 39 -9 14 -22 25 -29 25 -9 0 -8 -3 1 -9z"/>
</g>
</svg>
