<?xml version="1.0" standalone="no"?>
<!DOCTYPE svg PUBLIC "-//W3C//DTD SVG 20010904//EN"
 "http://www.w3.org/TR/2001/REC-SVG-20010904/DTD/svg10.dtd">
<svg version="1.0" xmlns="http://www.w3.org/2000/svg"
 width="591.000000pt" height="1280.000000pt" viewBox="0 0 591.000000 1280.000000"
 preserveAspectRatio="xMidYMid meet">

<g transform="translate(0.000000,1280.000000) scale(0.100000,-0.100000)"
fill="#000000" stroke="none">
<path d="M0 6400 l0 -6400 2955 0 2955 0 0 6400 0 6400 -2955 0 -2955 0 0
-6400z m730 6095 c0 -30 5 -55 10 -55 6 0 10 -7 10 -15 0 -8 -4 -15 -10 -15
-5 0 -10 -7 -10 -15 0 -8 -7 -15 -15 -15 -8 0 -15 7 -15 15 0 11 -11 15 -40
15 -51 0 -51 13 -5 85 23 37 41 55 55 55 18 0 20 -7 20 -55z m211 45 c21 -12
26 -56 7 -62 -9 -3 -8 -9 5 -22 9 -10 17 -24 17 -31 0 -43 -82 -61 -114 -26
-24 26 -1 39 25 15 15 -14 24 -16 37 -7 23 14 21 37 -3 41 -34 7 -40 21 -12
31 35 13 36 41 2 41 -14 0 -25 -4 -25 -10 0 -5 -7 -10 -15 -10 -21 0 -19 27 3
39 22 13 48 14 73 1z m153 -6 c19 -19 20 -36 4 -52 -9 -9 -9 -15 0 -24 7 -7
12 -21 12 -33 0 -12 -5 -26 -12 -33 -17 -17 -74 -15 -92 4 -20 20 -20 34 -1
34 8 0 15 -4 15 -9 0 -13 27 -21 45 -15 23 9 18 42 -7 46 -29 4 -34 26 -7 30
12 2 24 9 27 15 6 20 -27 27 -54 13 -32 -18 -41 -7 -15 19 25 25 63 27 85 5z
m3934 -4 c17 -11 32 -24 32 -28 0 -19 -14 -20 -43 -5 -40 20 -100 20 -132 -1
-25 -16 -45 -14 -45 5 0 20 66 49 110 49 27 0 58 -8 78 -20z m437 -65 l0 -60
-129 -3 c-86 -2 -133 1 -142 9 -17 14 -18 91 -2 107 9 9 50 12 143 10 l130 -3
0 -60z m-4655 40 c0 -8 -7 -15 -15 -15 -8 0 -15 7 -15 15 0 8 7 15 15 15 8 0
15 -7 15 -15z m4196 -29 c28 -21 7 -40 -29 -27 -18 7 -36 7 -54 0 -18 -7 -30
-6 -37 1 -17 17 21 40 64 40 20 0 45 -6 56 -14z m-4198 -53 c-5 -25 -28 -28
-28 -4 0 12 6 21 16 21 9 0 14 -7 12 -17z m4172 -7 c0 -7 -7 -19 -15 -26 -12
-10 -18 -10 -30 0 -25 21 -18 40 15 40 19 0 30 -5 30 -14z m-2660 -391 c0 -8
-7 -15 -15 -15 -8 0 -15 7 -15 15 0 8 7 15 15 15 8 0 15 -7 15 -15z m500 -49
c0 -36 5 -68 10 -71 17 -10 11 -25 -10 -25 -18 0 -20 7 -20 80 0 47 4 80 10
80 6 0 10 -28 10 -64z m70 -4 c0 -41 5 -73 13 -81 10 -10 7 -12 -13 -9 -24 3
-25 6 -28 81 -2 64 0 77 13 77 12 0 15 -13 15 -68z m-630 49 c0 -6 -15 -11
-32 -13 -22 -2 -34 -9 -36 -20 -3 -15 4 -18 33 -18 46 0 43 -24 -4 -28 -47 -5
-39 -36 12 -40 57 -5 44 -22 -18 -22 l-55 0 0 75 0 75 50 0 c28 0 50 -4 50 -9z
m360 -6 c0 -9 7 -18 15 -21 8 -4 15 -10 15 -15 0 -5 -7 -9 -15 -9 -10 0 -15
-11 -15 -35 0 -24 5 -35 15 -35 8 0 15 -4 15 -10 0 -5 -11 -10 -25 -10 -22 0
-25 4 -25 38 0 21 -5 43 -10 48 -7 7 -6 19 2 37 14 30 28 35 28 12z m660 -15
c0 -5 -4 -10 -9 -10 -4 0 -6 -12 -3 -26 5 -29 -10 -44 -46 -44 -13 0 -20 -4
-17 -10 3 -5 19 -10 34 -10 26 0 51 -15 51 -31 0 -17 -33 -39 -59 -39 -36 0
-67 23 -55 41 4 8 8 36 9 64 0 48 1 50 35 62 44 15 60 16 60 3z m-842 -12 c16
-16 16 -111 0 -106 -7 3 -13 21 -14 42 -3 44 -7 51 -29 43 -10 -4 -15 -20 -15
-47 0 -27 -4 -40 -13 -40 -10 0 -14 16 -16 54 -2 59 -6 54 65 65 5 0 15 -4 22
-11z m106 6 c25 -9 19 -24 -9 -24 -34 0 -31 -13 5 -27 32 -12 39 -33 16 -52
-18 -15 -68 -11 -74 6 -2 9 5 11 27 7 40 -8 41 11 1 25 -34 11 -41 44 -12 60
20 12 25 13 46 5z m204 -10 c12 -8 22 -24 22 -35 0 -15 -7 -19 -35 -19 -26 0
-35 -4 -35 -16 0 -13 7 -15 31 -10 22 4 29 2 26 -7 -2 -6 -18 -12 -37 -12 -42
0 -61 27 -49 72 8 27 17 35 49 42 3 0 16 -6 28 -15z m225 -82 c14 -3 17 4 17
42 0 34 4 46 15 46 12 0 15 -13 15 -55 l0 -55 -40 0 c-34 0 -42 4 -50 26 -14
35 -12 82 3 87 8 2 14 -11 17 -42 4 -33 10 -47 23 -49z m165 86 c18 -18 16
-108 -3 -108 -11 0 -15 12 -15 46 0 38 -3 45 -17 42 -13 -2 -19 -15 -21 -46
-2 -28 -8 -42 -18 -42 -10 0 -14 14 -14 54 0 54 0 55 33 59 17 2 34 5 38 5 3
1 10 -3 17 -10z m240 -4 c12 -8 22 -24 22 -35 0 -15 -7 -19 -35 -19 -26 0 -35
-4 -35 -16 0 -13 7 -15 31 -10 22 4 29 2 27 -7 -6 -17 -56 -21 -74 -6 -19 16
-18 68 3 91 20 22 32 23 61 2z m131 7 c18 -12 21 -102 4 -108 -8 -3 -13 11
-15 39 -2 31 -8 44 -20 46 -15 3 -18 -4 -18 -42 0 -34 -4 -46 -15 -46 -11 0
-15 13 -15 54 0 52 1 55 28 59 15 2 29 5 32 5 3 1 11 -2 19 -7z m-1189 -56 c0
-42 -3 -55 -15 -55 -12 0 -15 13 -15 55 0 42 3 55 15 55 12 0 15 -13 15 -55z
m3255 15 c-3 -5 -12 -10 -18 -10 -7 0 -6 4 3 10 19 12 23 12 15 0z m95 -104
c0 -2 -7 -7 -16 -10 -8 -3 -12 -2 -9 4 6 10 25 14 25 6z m55 -84 l-28 -27 24
31 c13 17 26 30 28 27 3 -2 -8 -16 -24 -31z m-140 -30 c-5 -5 -45 22 -45 31 0
4 11 0 24 -10 13 -10 23 -19 21 -21z m-3070 8 c22 -24 13 -66 -15 -75 -54 -17
-93 42 -50 77 28 23 43 23 65 -2z m153 -5 c6 -14 15 -25 20 -25 5 0 14 11 20
25 6 14 16 25 22 25 13 0 13 -107 0 -115 -6 -4 -10 11 -10 37 l-1 43 -16 -29
-16 -30 -16 30 -16 29 -3 -37 c-5 -58 -22 -45 -22 17 0 61 18 75 38 30z m377
-12 l20 -38 3 38 c5 57 22 44 22 -18 0 -66 -15 -72 -47 -17 l-22 37 -1 -37 c0
-21 -4 -38 -10 -38 -5 0 -10 25 -10 55 0 66 17 73 45 18z m196 15 c4 -44 1
-88 -7 -88 -5 0 -10 12 -12 27 -2 15 -7 32 -12 37 -5 5 -3 14 3 22 15 17 27
18 28 2z m-410 -50 c5 -34 4 -37 -25 -42 -16 -4 -34 -2 -39 3 -15 15 0 41 24
41 12 0 19 5 16 13 -2 6 -11 11 -21 9 -9 -2 -16 2 -16 8 0 6 12 10 27 8 23 -2
29 -9 34 -40z m49 3 c0 -22 -4 -43 -10 -46 -6 -4 -10 12 -10 39 0 25 5 46 10
46 6 0 10 -18 10 -39z m94 8 c5 -15 5 -35 0 -45 -6 -15 -9 -12 -12 19 -2 29
-7 37 -23 37 -14 0 -19 -7 -19 -30 0 -16 -4 -30 -10 -30 -11 0 -14 63 -3 74
16 16 58 1 67 -25z m204 19 c20 -20 14 -38 -13 -38 -31 0 -33 -17 -2 -23 19
-3 20 -4 4 -11 -10 -5 -23 -3 -32 4 -15 13 -21 61 -8 73 10 11 38 8 51 -5z
m-2618 -1273 c0 -8 -4 -15 -10 -15 -5 0 -10 7 -10 15 0 8 5 15 10 15 6 0 10
-7 10 -15z m5085 -25 l39 -40 -41 -41 c-25 -25 -46 -39 -53 -34 -8 5 -2 18 21
41 l33 34 -32 33 c-28 29 -33 47 -12 47 3 0 24 -18 45 -40z m-5359 5 c11 -44
29 -48 47 -10 9 19 23 35 32 35 12 0 15 -15 15 -75 0 -85 -17 -103 -22 -22
l-3 52 -18 -32 c-22 -41 -32 -41 -49 -3 -19 45 -29 36 -25 -20 4 -38 2 -50 -9
-50 -11 0 -14 18 -14 75 0 68 2 75 20 75 13 0 22 -9 26 -25z m499 -28 l30 -52
3 53 c5 80 22 62 22 -23 0 -93 -15 -98 -59 -22 l-31 52 0 -52 c0 -40 -4 -53
-15 -53 -12 0 -15 15 -15 75 0 65 2 75 18 75 10 0 29 -21 47 -53z m267 13 c8
-1 7 -5 -4 -14 -10 -7 -18 -26 -18 -41 0 -15 8 -34 18 -41 15 -12 14 -13 -10
-14 -26 0 -28 3 -28 44 0 25 -5 46 -12 48 -7 3 -5 13 7 32 18 27 19 28 27 7 4
-12 13 -21 20 -21z m-571 0 c14 -8 19 -21 19 -48 0 -21 5 -43 11 -49 9 -9 -2
-11 -42 -10 -48 2 -54 5 -57 25 -3 22 8 31 44 36 10 2 20 9 22 16 3 9 -4 11
-27 8 -33 -5 -45 17 -13 25 9 3 18 5 20 6 2 0 12 -4 23 -9z m190 0 c15 -8 19
-22 19 -60 0 -61 -18 -67 -22 -7 -2 34 -7 42 -23 42 -16 0 -21 -8 -23 -42 -5
-63 -22 -52 -22 13 0 45 3 55 15 51 8 -4 17 -2 20 3 8 13 12 12 36 0z m289
-10 c33 -33 26 -50 -21 -50 -28 0 -39 -4 -36 -12 2 -7 18 -12 36 -11 36 1 38
-15 3 -28 -53 -20 -88 66 -42 103 28 23 35 23 60 -2z m-400 -45 c0 -30 -4 -55
-10 -55 -5 0 -10 25 -10 55 0 30 5 55 10 55 6 0 10 -25 10 -55z m-92 -1467
c-6 -18 -28 -21 -28 -4 0 9 7 16 16 16 9 0 14 -5 12 -12z m252 -67 l0 -78 -37
-7 c-31 -5 -41 -2 -55 15 -35 41 -16 99 32 99 25 0 30 4 30 25 0 16 6 25 15
25 12 0 15 -15 15 -79z m268 54 c-5 -22 -2 -25 23 -25 35 0 51 -27 47 -78 -4
-53 -22 -46 -26 11 -3 38 -7 47 -22 47 -15 0 -19 -9 -22 -47 -5 -79 -23 -55
-26 35 -2 71 -1 82 14 82 12 0 15 -6 12 -25z m642 -44 c0 -40 5 -73 11 -77 8
-4 7 -9 -2 -15 -27 -16 -39 12 -39 87 0 59 3 74 15 74 12 0 15 -14 15 -69z
m60 0 c0 -44 4 -71 12 -73 6 -2 8 -9 4 -16 -3 -6 -13 -9 -21 -5 -12 4 -15 24
-15 84 0 46 4 79 10 79 6 0 10 -30 10 -69z m3955 29 l39 -40 -39 -40 c-21 -22
-43 -40 -47 -40 -16 0 -7 25 19 52 l27 28 -32 33 c-28 29 -33 47 -12 47 3 0
24 -18 45 -40z m-5379 -31 c12 -57 18 -53 32 16 13 63 38 58 53 -10 13 -61 22
-57 34 13 4 26 12 42 21 42 17 0 17 2 -5 -85 -22 -89 -40 -92 -62 -10 l-16 60
-12 -45 c-20 -75 -22 -80 -31 -80 -13 0 -21 16 -36 78 -17 72 -17 85 -2 80 7
-3 18 -29 24 -59z m1174 31 c24 -24 25 -30 5 -30 -21 0 -21 -66 1 -74 22 -8 8
-25 -16 -19 -16 4 -20 14 -20 48 0 25 -5 46 -12 49 -10 5 -10 7 0 12 6 3 12
12 12 20 0 19 6 18 30 -6z m1041 -1 c20 -20 20 -23 5 -31 -21 -12 -21 -64 0
-72 22 -8 8 -25 -16 -19 -16 4 -20 14 -20 48 0 25 -5 46 -12 49 -10 5 -10 7 0
12 6 3 12 12 12 20 0 19 6 18 31 -7z m-401 1 c0 -5 -5 -10 -10 -10 -7 0 -7 -6
0 -20 8 -16 6 -24 -10 -40 -11 -11 -25 -18 -30 -15 -5 3 -11 1 -15 -5 -3 -6 4
-10 17 -10 14 0 33 -6 44 -14 32 -24 7 -51 -47 -51 l-44 0 0 60 c0 74 9 95 40
95 14 0 25 5 25 10 0 6 7 10 15 10 8 0 15 -4 15 -10z m-1612 -65 c-2 -30 -7
-55 -13 -55 -5 0 -11 25 -13 55 -2 45 0 55 13 55 13 0 15 -10 13 -55z m122 29
c14 -35 15 -34 -30 -34 -30 0 -40 -4 -40 -16 0 -13 7 -15 35 -11 40 7 47 -8
11 -24 -51 -24 -94 36 -62 86 23 35 73 35 86 -1z m248 14 c7 -7 12 -20 12 -30
0 -14 -8 -18 -34 -18 -41 0 -54 -15 -27 -30 13 -7 22 -7 26 0 9 15 25 12 25
-4 0 -14 -21 -26 -45 -26 -24 0 -45 30 -45 64 0 39 15 56 50 56 14 0 31 -5 38
-12z m102 2 c0 -4 -9 -10 -19 -13 -15 -4 -20 -15 -23 -48 -4 -61 -22 -51 -26
15 l-3 54 36 0 c19 0 35 -4 35 -8z m238 -15 c16 -36 17 -35 -28 -35 -30 0 -40
-4 -40 -16 0 -13 7 -15 35 -11 39 6 46 -6 14 -24 -48 -25 -95 33 -70 87 16 35
73 34 89 -1z m92 17 c0 -4 -9 -13 -20 -20 -15 -9 -20 -23 -20 -52 0 -22 -4
-40 -10 -40 -6 0 -10 27 -10 60 l0 60 30 0 c17 0 30 -3 30 -8z m100 -6 c0 -9
-8 -12 -25 -8 -35 6 -31 -14 5 -27 57 -19 24 -80 -35 -65 -14 3 -25 13 -25 21
0 10 6 13 18 8 28 -11 34 -11 38 0 2 6 -9 16 -26 22 -28 11 -40 39 -23 56 13
13 73 7 73 -7z m200 -12 c14 -35 15 -34 -30 -34 -41 0 -50 -9 -27 -28 8 -7 18
-7 27 -2 19 12 30 12 30 0 0 -15 -39 -32 -61 -25 -31 10 -44 48 -29 85 10 25
18 30 46 30 28 0 36 -5 44 -26z m182 -16 c2 -36 7 -44 26 -46 20 -3 22 1 22
42 0 25 5 46 10 46 6 0 10 -26 10 -57 l0 -58 -33 0 c-48 0 -57 11 -57 66 0 60
18 66 22 7z m196 -23 c3 -68 -14 -68 -20 0 -2 32 -7 40 -23 40 -17 0 -20 -8
-23 -47 -4 -69 -22 -59 -22 13 l0 60 43 -3 42 -3 3 -60z m232 51 c0 -9 -8 -12
-25 -8 -35 6 -31 -14 5 -27 36 -12 40 -45 9 -62 -25 -13 -75 4 -64 21 4 7 13
7 25 0 13 -7 21 -7 25 1 8 12 9 11 -27 27 -26 11 -37 40 -21 55 13 13 73 7 73
-7z m102 -1 c-2 -5 -14 -9 -27 -7 -35 5 -31 -11 5 -25 33 -12 40 -42 15 -63
-19 -16 -65 -5 -65 16 0 12 4 13 20 4 20 -11 40 -6 40 8 0 4 -13 13 -30 19
-29 11 -40 39 -23 57 11 10 68 3 65 -9z m122 -7 c17 -85 17 -91 -4 -85 -11 3
-23 1 -26 -4 -8 -14 -31 -11 -48 7 -22 21 -4 54 29 54 16 0 25 6 25 16 0 13
-7 15 -30 11 -16 -4 -30 -3 -30 2 0 15 13 21 46 21 27 0 35 -5 38 -22z m206
14 c0 -4 -14 -24 -31 -45 l-30 -37 31 0 c20 0 30 -4 28 -12 -4 -11 -20 -13
-73 -9 -22 1 -18 19 12 55 l26 31 -26 3 c-44 5 -30 22 18 22 25 0 45 -3 45 -8z
m-1350 -748 c0 -17 -22 -14 -28 4 -2 7 3 12 12 12 9 0 16 -7 16 -16z m40 1 c0
-8 -4 -15 -10 -15 -5 0 -10 7 -10 15 0 8 5 15 10 15 6 0 10 -7 10 -15z m270
-65 l0 -80 -38 0 c-46 0 -62 14 -62 55 0 39 30 70 59 60 18 -5 21 -2 21 19 0
14 5 26 10 26 6 0 10 -33 10 -80z m4075 40 l39 -40 -39 -40 c-21 -22 -43 -40
-47 -40 -16 0 -7 25 19 52 l27 28 -32 33 c-28 29 -33 47 -12 47 3 0 24 -18 45
-40z m-5307 18 c7 -7 12 -21 12 -33 0 -29 -19 -45 -52 -45 -24 0 -28 -4 -28
-30 0 -20 -5 -30 -15 -30 -12 0 -15 15 -15 75 l0 75 43 0 c24 0 48 -5 55 -12z
m792 -13 c0 -7 6 -16 13 -19 10 -5 10 -7 0 -12 -15 -7 -18 -74 -3 -74 6 0 10
-5 10 -11 0 -6 -10 -9 -22 -7 -19 2 -24 10 -26 43 -2 22 -8 43 -14 46 -6 4 -4
16 7 33 17 26 35 27 35 1z m-678 -29 c4 -6 8 -23 8 -38 0 -14 3 -33 6 -42 5
-12 0 -16 -17 -15 -13 1 -28 1 -34 -1 -22 -6 -43 1 -49 15 -9 24 4 44 32 47
14 2 28 9 30 17 4 11 -2 13 -27 8 -34 -7 -42 6 -13 22 19 11 53 4 64 -13z m99
13 c26 -13 16 -28 -16 -21 -35 6 -31 -11 6 -25 24 -9 30 -17 27 -35 -2 -19 -9
-23 -40 -23 -21 0 -38 5 -38 10 1 6 14 9 30 7 39 -4 39 13 0 27 -22 7 -30 16
-30 35 0 33 26 44 61 25z m107 5 c32 -9 27 -24 -8 -24 -39 0 -38 -12 1 -27 24
-9 30 -17 27 -35 -2 -19 -9 -23 -40 -23 -21 0 -38 5 -38 10 1 6 14 9 30 7 39
-4 38 10 0 25 -32 12 -40 39 -18 61 14 14 15 14 46 6z m302 -14 c23 -23 26
-72 6 -89 -43 -36 -111 21 -85 71 23 43 48 49 79 18z m93 8 c24 4 22 -14 -3
-21 -16 -4 -20 -14 -20 -46 0 -23 -4 -41 -10 -41 -6 0 -10 27 -10 61 0 46 3
58 13 52 6 -4 20 -6 30 -5z m238 2 c14 -8 19 -21 19 -48 0 -21 5 -43 12 -50 8
-8 -2 -11 -43 -9 -50 2 -54 4 -54 27 0 20 6 26 29 30 42 7 49 34 7 28 -31 -5
-45 15 -18 25 19 8 27 8 48 -3z m130 0 c15 -8 19 -22 19 -60 0 -61 -18 -67
-22 -7 -2 34 -7 42 -23 42 -16 0 -21 -8 -23 -42 -5 -62 -22 -53 -22 11 0 49 2
55 23 59 12 2 23 5 25 6 2 0 12 -4 23 -9z m257 -6 c12 -8 22 -24 22 -35 0 -16
-7 -19 -40 -19 -32 0 -38 -3 -33 -16 4 -12 14 -14 35 -10 21 4 28 2 26 -7 -6
-17 -56 -21 -74 -6 -22 18 -18 75 8 93 12 9 25 16 28 16 3 0 16 -7 28 -16z
m216 0 c22 -21 22 -104 1 -104 -11 0 -15 12 -15 45 0 38 -3 45 -20 45 -17 0
-20 -7 -20 -45 0 -33 -4 -45 -15 -45 -11 0 -15 13 -15 54 0 52 1 55 28 59 15
2 30 5 34 6 4 0 14 -6 22 -15z m-1167 -24 c8 -44 21 -46 29 -5 9 48 33 43 49
-10 l12 -40 8 38 c7 34 21 55 30 45 2 -2 -2 -26 -9 -53 -15 -60 -43 -74 -52
-26 -9 44 -21 47 -28 6 -9 -45 -41 -49 -49 -6 -3 16 -9 40 -13 55 -4 17 -2 26
5 26 6 0 14 -14 18 -30z m1063 20 c0 -5 -6 -10 -14 -10 -17 0 -26 -22 -26 -61
0 -16 -4 -29 -10 -29 -5 0 -10 25 -10 55 0 54 0 55 30 55 17 0 30 -4 30 -10z
m-1500 -925 c0 -8 -7 -15 -15 -15 -8 0 -15 7 -15 15 0 8 7 15 15 15 8 0 15 -7
15 -15z m40 0 c0 -8 -4 -15 -9 -15 -13 0 -22 16 -14 24 11 11 23 6 23 -9z m25
-87 c-3 -85 -10 -98 -54 -98 -20 0 -42 5 -49 12 -17 17 -16 138 1 138 8 0 11
-13 9 -44 -4 -51 11 -86 37 -86 24 0 31 19 31 79 0 26 3 51 6 54 15 14 22 -6
19 -55z m55 32 c0 -27 2 -29 19 -18 41 25 78 -42 51 -93 -8 -14 -21 -19 -55
-19 l-45 0 0 80 c0 64 3 80 15 80 10 0 15 -10 15 -30z m5235 -10 l39 -40 -39
-40 c-21 -22 -43 -40 -47 -40 -16 0 -7 25 19 52 l27 28 -27 28 c-26 27 -35 52
-19 52 4 0 26 -18 47 -40z m-5053 -12 c8 -7 18 -23 21 -35 5 -21 2 -23 -35
-23 -27 0 -38 -4 -35 -12 2 -7 18 -12 36 -11 43 2 35 -21 -9 -25 -57 -6 -82
56 -40 98 23 23 40 25 62 8z m118 -8 c0 -4 -9 -10 -20 -13 -16 -4 -20 -14 -20
-46 0 -30 -4 -41 -15 -41 -11 0 -15 13 -15 53 0 30 2 56 5 59 7 7 65 -3 65
-12z m-203 -1192 c-3 -7 -5 -2 -5 12 0 14 2 19 5 13 2 -7 2 -19 0 -25z m2070
-110 c-3 -7 -5 -2 -5 12 0 14 2 19 5 13 2 -7 2 -19 0 -25z m-243 -4814 c9 -19
16 -36 16 -37 0 -1 -25 0 -55 1 l-55 4 0 55 0 54 39 -21 c22 -13 45 -37 55
-56z m-1506 60 c12 -4 22 -13 22 -21 0 -12 -11 -14 -59 -10 -82 6 -86 2 -83
-82 3 -51 0 -71 -9 -71 -7 0 -9 -3 -5 -7 4 -4 41 -10 84 -13 114 -8 95 -25
-32 -28 -81 -2 -112 1 -118 10 -11 19 -10 186 2 209 9 16 22 19 93 19 45 0 92
-3 105 -6z m1362 -4 c-10 -6 -11 -10 -2 -10 9 0 12 -25 12 -90 0 -65 -3 -90
-12 -90 -9 0 -10 -3 -2 -8 6 -4 11 -15 11 -25 0 -24 -33 -13 -71 23 -41 40
-47 107 -15 155 13 19 30 33 37 30 7 -3 11 -1 7 4 -6 10 10 19 35 20 13 1 13
0 0 -9z m1573 -11 c53 -29 76 -90 53 -142 -26 -62 -72 -84 -137 -67 -22 6 -39
13 -37 15 2 3 21 0 42 -6 71 -20 126 24 126 98 0 21 -7 48 -15 59 -35 51 -127
55 -165 7 -22 -28 -27 -73 -8 -73 8 0 6 -6 -4 -17 -14 -14 -20 -14 -33 -3 -12
10 -13 15 -4 21 7 4 14 17 16 29 10 70 101 113 166 79z m-2895 -101 l3 -48
-60 0 -61 0 0 44 c0 50 5 54 70 52 l45 -1 3 -47z m2855 -18 c11 -13 10 -13 -5
-1 -10 7 -17 25 -17 40 l2 26 4 -25 c3 -14 10 -32 16 -40z m-1383 -20 c0 -24
-47 -76 -75 -84 -18 -5 -21 -1 -23 45 l-2 51 44 -3 c24 -2 42 -1 39 4 -2 4 1
7 6 7 6 0 11 -9 11 -20z m-1910 -254 c0 -2 -9 -6 -20 -9 -11 -3 -18 -1 -14 4
5 9 34 13 34 5z m227 -73 c-2 -16 -4 -3 -4 27 0 30 2 43 4 28 2 -16 2 -40 0
-55z m1463 73 c0 -2 -9 -6 -20 -9 -11 -3 -20 -1 -20 4 0 5 9 9 20 9 11 0 20
-2 20 -4z m77 -18 c-3 -8 -6 -5 -6 6 -1 11 2 17 5 13 3 -3 4 -12 1 -19z m46
15 c-7 -2 -19 -2 -25 0 -7 3 -2 5 12 5 14 0 19 -2 13 -5z m-1856 -60 c-3 -10
-5 -4 -5 12 0 17 2 24 5 18 2 -7 2 -21 0 -30z m460 15 c-3 -8 -6 -5 -6 6 -1
11 2 17 5 13 3 -3 4 -12 1 -19z m2521 -14 c-3 -14 -5 -12 -10 9 -3 19 -2 25 4
19 6 -6 8 -18 6 -28z m-2811 -26 c-2 -13 -4 -5 -4 17 -1 22 1 32 4 23 2 -10 2
-28 0 -40z m480 5 c-3 -10 -5 -2 -5 17 0 19 2 27 5 18 2 -10 2 -26 0 -35z
m1050 15 c-3 -7 -5 -2 -5 12 0 14 2 19 5 13 2 -7 2 -19 0 -25z m110 10 c-3 -8
-6 -5 -6 6 -1 11 2 17 5 13 3 -3 4 -12 1 -19z m130 7 c0 -8 -4 -15 -9 -15 -10
0 -11 14 -1 23 9 10 10 9 10 -8z m1090 -7 c-3 -8 -6 -5 -6 6 -1 11 2 17 5 13
3 -3 4 -12 1 -19z m-2510 -20 c-3 -7 -5 -2 -5 12 0 14 2 19 5 13 2 -7 2 -19 0
-25z m3160 10 c-3 -8 -6 -5 -6 6 -1 11 2 17 5 13 3 -3 4 -12 1 -19z m150 -15
c-3 -10 -5 -4 -5 12 0 17 2 24 5 18 2 -7 2 -21 0 -30z m-2002 -15 c6 -4 2 -8
-7 -8 -10 0 -18 7 -18 17 0 9 3 12 8 7 4 -5 12 -12 17 -16z m1569 6 c3 -8 2
-12 -4 -9 -6 3 -10 10 -10 16 0 14 7 11 14 -7z m-1657 -10 c-3 -3 -12 -4 -19
-1 -8 3 -5 6 6 6 11 1 17 -2 13 -5z"/>
<path d="M671 12475 l-20 -35 24 0 c22 0 25 4 25 35 0 19 -2 35 -4 35 -2 0
-13 -16 -25 -35z"/>
<path d="M3213 11964 c-7 -19 2 -28 22 -21 19 8 19 23 0 31 -9 3 -18 -1 -22
-10z"/>
<path d="M3200 11865 c0 -12 7 -15 25 -13 14 2 26 8 26 13 0 6 -12 11 -26 13
-18 2 -25 -1 -25 -13z"/>
<path d="M2700 11960 c0 -5 9 -10 20 -10 11 0 20 5 20 10 0 6 -9 10 -20 10
-11 0 -20 -4 -20 -10z"/>
<path d="M3330 11960 c0 -5 9 -10 20 -10 11 0 20 5 20 10 0 6 -9 10 -20 10
-11 0 -20 -4 -20 -10z"/>
<path d="M2780 11670 c0 -5 7 -10 15 -10 8 0 15 5 15 10 0 6 -7 10 -15 10 -8
0 -15 -4 -15 -10z"/>
<path d="M3146 11713 c-11 -11 -6 -23 9 -23 8 0 15 4 15 9 0 13 -16 22 -24 14z"/>
<path d="M440 10335 c0 -8 9 -15 20 -15 11 0 20 7 20 15 0 8 -9 15 -20 15 -11
0 -20 -7 -20 -15z"/>
<path d="M910 10384 c-10 -12 -8 -14 14 -14 28 0 35 14 12 23 -8 3 -20 -1 -26
-9z"/>
<path d="M644 8816 c-10 -26 1 -51 24 -54 19 -3 22 1 22 32 0 30 -4 36 -20 36
-11 0 -23 -6 -26 -14z"/>
<path d="M2012 8813 c2 -10 10 -18 18 -18 8 0 16 8 18 18 2 12 -3 17 -18 17
-15 0 -20 -5 -18 -17z"/>
<path d="M2000 8720 c0 -5 14 -10 30 -10 17 0 30 5 30 10 0 6 -13 10 -30 10
-16 0 -30 -4 -30 -10z"/>
<path d="M527 8824 c-14 -14 -6 -24 19 -24 16 0 24 5 22 13 -5 14 -31 21 -41
11z"/>
<path d="M777 8824 c-10 -11 3 -24 24 -24 10 0 19 7 19 15 0 15 -31 21 -43 9z"/>
<path d="M1110 8817 c0 -9 10 -14 25 -14 31 0 28 21 -3 25 -14 2 -22 -2 -22
-11z"/>
<path d="M1507 8824 c-14 -14 -6 -24 19 -24 16 0 24 5 22 13 -5 14 -31 21 -41
11z"/>
<path d="M2350 8780 c-11 -7 -12 -12 -3 -21 13 -13 33 -4 33 17 0 16 -9 18
-30 4z"/>
<path d="M1500 8005 c0 -32 3 -36 23 -33 17 2 22 10 22 33 0 23 -5 31 -22 33
-20 3 -23 -1 -23 -33z"/>
<path d="M270 8055 c0 -20 5 -25 25 -25 20 0 25 5 25 25 0 20 -5 25 -25 25
-20 0 -25 -5 -25 -25z"/>
<path d="M397 7993 c-13 -12 -7 -23 13 -23 11 0 20 7 20 15 0 15 -21 21 -33 8z"/>
<path d="M904 8026 c-10 -26 1 -51 24 -54 19 -3 22 1 22 32 0 30 -4 36 -20 36
-11 0 -23 -6 -26 -14z"/>
<path d="M1250 7984 c0 -9 7 -14 17 -12 25 5 28 28 4 28 -12 0 -21 -6 -21 -16z"/>
<path d="M1630 8030 c0 -5 9 -10 20 -10 11 0 20 5 20 10 0 6 -9 10 -20 10 -11
0 -20 -4 -20 -10z"/>
<path d="M421 7030 c-7 -4 -11 -20 -9 -36 2 -21 8 -29 23 -29 15 0 21 8 23 31
3 33 -14 49 -37 34z"/>
<path d="M550 7030 c-19 -12 -7 -22 21 -18 19 2 20 5 8 15 -9 7 -20 9 -29 3z"/>
<path d="M2125 880 c3 -5 8 -10 11 -10 2 0 4 5 4 10 0 6 -5 10 -11 10 -5 0 -7
-4 -4 -10z"/>
<path d="M788 901 c11 -7 11 -9 -2 -14 -21 -8 -20 -34 1 -45 11 -7 21 -5 31 4
12 13 12 18 -2 39 -9 14 -22 25 -29 25 -9 0 -8 -3 1 -9z"/>
</g>
</svg>
