<svg width="186" height="61" viewBox="0 0 186 61" fill="none" xmlns="http://www.w3.org/2000/svg">
<path d="M7.83105 60.0632H177.791C181.879 60.0632 185.225 56.718 185.225 52.6298V7.62983C185.225 3.54165 181.879 0.196487 177.791 0.196487H7.83105C3.74287 0.196487 0.397721 3.54165 0.397721 7.62983V52.6298C0.397721 56.718 3.74287 60.0632 7.83105 60.0632Z" fill="#F5516C" stroke="white" stroke-width="0.133333"/>
<mask id="path-2-inside-1_478_719" fill="white">
<path fill-rule="evenodd" clip-rule="evenodd" d="M97.5529 15.8643C97.554 16.844 97.8608 17.6295 98.4744 18.2539C99.0937 18.8782 99.8333 19.1845 100.73 19.1862C101.625 19.1845 102.366 18.8782 102.984 18.2539C103.599 17.6295 103.906 16.844 103.907 15.8643C103.906 14.8846 103.599 14.0992 102.984 13.4747C102.366 12.8504 101.625 12.5442 100.73 12.5424C99.8333 12.5442 99.0937 12.8504 98.4744 13.4747C97.8608 14.0992 97.554 14.8846 97.5529 15.8643ZM105.335 15.8643C105.336 17.165 104.893 18.2821 104.016 19.1827C103.138 20.0874 102.031 20.5435 100.73 20.5423C99.4277 20.5435 98.3202 20.0874 97.4444 19.1827L97.4483 19.1874L97.4444 19.1833C96.5658 18.2821 96.1239 17.165 96.125 15.8643C96.1239 14.5636 96.5658 13.4465 97.4444 12.5453V12.5459C98.3202 11.6413 99.4277 11.1842 100.73 11.1858C102.025 11.1842 103.129 11.6434 104.01 12.5515C104.891 13.4562 105.336 14.571 105.335 15.8643ZM64.7519 16.7486C64.6701 17.3988 64.4445 17.8961 64.0827 18.2596C63.4612 18.8788 62.6984 19.1845 61.761 19.1862C60.8812 19.185 60.1348 18.8821 59.4913 18.2635C58.8539 17.647 58.5369 16.8599 58.5353 15.8643C58.5369 14.8687 58.8539 14.0816 59.4913 13.4651C60.1348 12.8465 60.8812 12.5436 61.761 12.5424C62.7391 12.5447 63.4777 12.8679 64.0263 13.5205L64.128 13.6415L65.0021 12.7662L65.0959 12.6725L65.0105 12.5712C64.6551 12.1475 64.1817 11.8112 63.5996 11.5615C63.0165 11.3112 62.4012 11.1857 61.761 11.1857C60.475 11.1846 59.3653 11.6366 58.4651 12.5311C57.5616 13.4239 57.1063 14.5461 57.1074 15.8643C57.1063 17.1819 57.5616 18.3047 58.4657 19.1981C59.3653 20.092 60.475 20.5434 61.761 20.5423C63.1001 20.5434 64.211 20.0986 65.0541 19.2132C65.8018 18.4648 66.1728 17.4542 66.1718 16.2164C66.1718 15.9965 66.1514 15.7706 66.109 15.5355L66.0876 15.4168H61.6163V16.6039V16.7486H64.7519ZM72.8405 11.5249V12.5911V12.7358H68.888V15.1983H72.4524V15.343V16.5305H68.888V18.9931H72.8405V19.1377V20.3486H67.4845V11.3803H72.8405V11.5249ZM77.5421 12.7358V20.2039V20.3486H77.3974H76.1368V12.7358H73.7127V12.5911V11.3803H79.9661V11.5249V12.7358H77.5421ZM85.2509 20.3486H84.1361H83.9914V11.3803H84.1361H85.3955V20.3486H85.2509ZM90.3429 12.7358V20.2039V20.3486H90.1983H88.9376V12.7358H86.5137V12.5911V11.3803H92.767V11.5249V12.7358H90.3429ZM112.221 17.828L108.193 11.3803H106.755H106.611V20.3486H106.755H107.87H108.014V14.7959L107.979 13.5746L112.202 20.3486H113.447H113.591V11.3803H112.331H112.186V16.6058L112.221 17.828Z"/>
</mask>
<path fill-rule="evenodd" clip-rule="evenodd" d="M97.5529 15.8643C97.554 16.844 97.8608 17.6295 98.4744 18.2539C99.0937 18.8782 99.8333 19.1845 100.73 19.1862C101.625 19.1845 102.366 18.8782 102.984 18.2539C103.599 17.6295 103.906 16.844 103.907 15.8643C103.906 14.8846 103.599 14.0992 102.984 13.4747C102.366 12.8504 101.625 12.5442 100.73 12.5424C99.8333 12.5442 99.0937 12.8504 98.4744 13.4747C97.8608 14.0992 97.554 14.8846 97.5529 15.8643ZM105.335 15.8643C105.336 17.165 104.893 18.2821 104.016 19.1827C103.138 20.0874 102.031 20.5435 100.73 20.5423C99.4277 20.5435 98.3202 20.0874 97.4444 19.1827L97.4483 19.1874L97.4444 19.1833C96.5658 18.2821 96.1239 17.165 96.125 15.8643C96.1239 14.5636 96.5658 13.4465 97.4444 12.5453V12.5459C98.3202 11.6413 99.4277 11.1842 100.73 11.1858C102.025 11.1842 103.129 11.6434 104.01 12.5515C104.891 13.4562 105.336 14.571 105.335 15.8643ZM64.7519 16.7486C64.6701 17.3988 64.4445 17.8961 64.0827 18.2596C63.4612 18.8788 62.6984 19.1845 61.761 19.1862C60.8812 19.185 60.1348 18.8821 59.4913 18.2635C58.8539 17.647 58.5369 16.8599 58.5353 15.8643C58.5369 14.8687 58.8539 14.0816 59.4913 13.4651C60.1348 12.8465 60.8812 12.5436 61.761 12.5424C62.7391 12.5447 63.4777 12.8679 64.0263 13.5205L64.128 13.6415L65.0021 12.7662L65.0959 12.6725L65.0105 12.5712C64.6551 12.1475 64.1817 11.8112 63.5996 11.5615C63.0165 11.3112 62.4012 11.1857 61.761 11.1857C60.475 11.1846 59.3653 11.6366 58.4651 12.5311C57.5616 13.4239 57.1063 14.5461 57.1074 15.8643C57.1063 17.1819 57.5616 18.3047 58.4657 19.1981C59.3653 20.092 60.475 20.5434 61.761 20.5423C63.1001 20.5434 64.211 20.0986 65.0541 19.2132C65.8018 18.4648 66.1728 17.4542 66.1718 16.2164C66.1718 15.9965 66.1514 15.7706 66.109 15.5355L66.0876 15.4168H61.6163V16.6039V16.7486H64.7519ZM72.8405 11.5249V12.5911V12.7358H68.888V15.1983H72.4524V15.343V16.5305H68.888V18.9931H72.8405V19.1377V20.3486H67.4845V11.3803H72.8405V11.5249ZM77.5421 12.7358V20.2039V20.3486H77.3974H76.1368V12.7358H73.7127V12.5911V11.3803H79.9661V11.5249V12.7358H77.5421ZM85.2509 20.3486H84.1361H83.9914V11.3803H84.1361H85.3955V20.3486H85.2509ZM90.3429 12.7358V20.2039V20.3486H90.1983H88.9376V12.7358H86.5137V12.5911V11.3803H92.767V11.5249V12.7358H90.3429ZM112.221 17.828L108.193 11.3803H106.755H106.611V20.3486H106.755H107.87H108.014V14.7959L107.979 13.5746L112.202 20.3486H113.447H113.591V11.3803H112.331H112.186V16.6058L112.221 17.828Z" fill="white"/>
<path d="M98.4744 18.2539L98.3798 18.3478L98.3793 18.3474L98.4744 18.2539ZM97.5529 15.8643L97.4195 15.8645L97.4195 15.8642L97.5529 15.8643ZM100.73 19.1862L100.73 19.3195L100.729 19.3195L100.73 19.1862ZM102.984 18.2539L103.079 18.3475L103.079 18.3477L102.984 18.2539ZM103.907 15.8643L104.04 15.8642L104.04 15.8645L103.907 15.8643ZM102.984 13.4747L103.079 13.3809L103.079 13.3812L102.984 13.4747ZM100.73 12.5424L100.729 12.4091L100.73 12.4091L100.73 12.5424ZM98.4744 13.4747L98.3793 13.3812L98.3798 13.3808L98.4744 13.4747ZM104.016 19.1827L103.92 19.0899L103.92 19.0897L104.016 19.1827ZM105.335 15.8643L105.202 15.8644L105.202 15.8642L105.335 15.8643ZM100.73 20.5423L100.729 20.409L100.73 20.409L100.73 20.5423ZM97.4444 19.1827L97.3425 19.2687L97.5402 19.09L97.4444 19.1827ZM97.4483 19.1874L97.5502 19.1014L97.3523 19.2799L97.4483 19.1874ZM97.4444 19.1833L97.5398 19.0902L97.5404 19.0908L97.4444 19.1833ZM96.125 15.8643L96.2584 15.8642L96.2584 15.8644L96.125 15.8643ZM97.4444 12.5453L97.3489 12.4522L97.5777 12.2176V12.5453H97.4444ZM97.4444 12.5459L97.5402 12.6386L97.311 12.8753V12.5459H97.4444ZM100.73 11.1858L100.73 11.3191L100.729 11.3191L100.73 11.1858ZM104.01 12.5515L103.915 12.6446L103.914 12.6444L104.01 12.5515ZM64.0827 18.2596L64.1772 18.3536L64.1768 18.354L64.0827 18.2596ZM64.7519 16.7486V16.6152H64.9031L64.8842 16.7652L64.7519 16.7486ZM61.761 19.1862L61.7612 19.3195L61.7608 19.3195L61.761 19.1862ZM59.4913 18.2635L59.3988 18.3596L59.3986 18.3593L59.4913 18.2635ZM58.5353 15.8643L58.4019 15.8645L58.4019 15.8641L58.5353 15.8643ZM59.4913 13.4651L59.3986 13.3693L59.3988 13.369L59.4913 13.4651ZM61.761 12.5424L61.7608 12.4091L61.7613 12.4091L61.761 12.5424ZM64.0263 13.5205L63.9243 13.6064L63.9243 13.6063L64.0263 13.5205ZM64.128 13.6415L64.2224 13.7357L64.1196 13.8386L64.026 13.7273L64.128 13.6415ZM65.0021 12.7662L64.9078 12.672L64.9078 12.6719L65.0021 12.7662ZM65.0959 12.6725L65.1978 12.5865L65.2767 12.6802L65.1901 12.7667L65.0959 12.6725ZM65.0105 12.5712L64.9086 12.6571L64.9084 12.6569L65.0105 12.5712ZM63.5996 11.5615L63.547 11.6841L63.547 11.6841L63.5996 11.5615ZM61.761 11.1857L61.761 11.3191L61.7608 11.3191L61.761 11.1857ZM58.4651 12.5311L58.5591 12.6257L58.5588 12.626L58.4651 12.5311ZM57.1074 15.8643L57.2408 15.8642L57.2408 15.8644L57.1074 15.8643ZM58.4657 19.1981L58.5594 19.1032L58.5597 19.1035L58.4657 19.1981ZM61.761 20.5423L61.7608 20.409L61.7611 20.409L61.761 20.5423ZM65.0541 19.2132L64.9575 19.1213L64.9597 19.119L65.0541 19.2132ZM66.1718 16.2164L66.0384 16.2165V16.2164H66.1718ZM66.109 15.5355L65.9778 15.5592L65.9778 15.5592L66.109 15.5355ZM66.0876 15.4168V15.2834H66.199L66.2188 15.3931L66.0876 15.4168ZM61.6163 15.4168H61.483V15.2834H61.6163V15.4168ZM61.6163 16.7486V16.8819H61.483V16.7486H61.6163ZM72.8405 12.7358H72.9738V12.8691H72.8405V12.7358ZM68.888 12.7358H68.7547V12.6025H68.888V12.7358ZM68.888 15.1983V15.3316H68.7547V15.1983H68.888ZM72.4524 15.1983V15.065H72.5857V15.1983H72.4524ZM72.4524 16.5305H72.5857V16.6639H72.4524V16.5305ZM68.888 16.5305H68.7547V16.3972H68.888V16.5305ZM68.888 18.9931V19.1264H68.7547V18.9931H68.888ZM72.8405 18.9931V18.8597H72.9738V18.9931H72.8405ZM72.8405 20.3486H72.9738V20.4819H72.8405V20.3486ZM67.4845 20.3486V20.4819H67.3512V20.3486H67.4845ZM67.4845 11.3803H67.3512V11.2469H67.4845V11.3803ZM72.8405 11.3803V11.2469H72.9738V11.3803H72.8405ZM77.5421 12.7358H77.4087V12.6025H77.5421V12.7358ZM77.5421 20.3486H77.6754V20.4819H77.5421V20.3486ZM76.1368 20.3486V20.4819H76.0034V20.3486H76.1368ZM76.1368 12.7358V12.6025H76.2701V12.7358H76.1368ZM73.7127 12.7358V12.8691H73.5794V12.7358H73.7127ZM73.7127 11.3803H73.5794V11.2469H73.7127V11.3803ZM79.9661 11.3803V11.2469H80.0994V11.3803H79.9661ZM79.9661 12.7358H80.0994V12.8691H79.9661V12.7358ZM83.9914 20.3486V20.4819H83.8581V20.3486H83.9914ZM83.9914 11.3803H83.8581V11.2469H83.9914V11.3803ZM85.3955 11.3803V11.2469H85.5289V11.3803H85.3955ZM85.3955 20.3486H85.5289V20.4819H85.3955V20.3486ZM90.3429 12.7358H90.2096V12.6025H90.3429V12.7358ZM90.3429 20.3486H90.4762V20.4819H90.3429V20.3486ZM88.9376 20.3486V20.4819H88.8043V20.3486H88.9376ZM88.9376 12.7358V12.6025H89.071V12.7358H88.9376ZM86.5137 12.7358V12.8691H86.3804V12.7358H86.5137ZM86.5137 11.3803H86.3804V11.2469H86.5137V11.3803ZM92.767 11.3803V11.2469H92.9003V11.3803H92.767ZM92.767 12.7358H92.9003V12.8691H92.767V12.7358ZM112.221 17.828L112.354 17.8242L112.368 18.3156L112.108 17.8987L112.221 17.828ZM108.193 11.3803V11.247H108.267L108.306 11.3096L108.193 11.3803ZM106.611 11.3803H106.477V11.247H106.611V11.3803ZM106.611 20.3486V20.4819H106.477V20.3486H106.611ZM108.014 20.3486H108.148V20.4819H108.014V20.3486ZM108.014 14.7959L108.148 14.7921V14.7959H108.014ZM107.979 13.5746L107.846 13.5784L107.832 13.0862L108.092 13.5041L107.979 13.5746ZM112.202 20.3486V20.4819H112.128L112.089 20.4191L112.202 20.3486ZM113.591 20.3486H113.725V20.4819H113.591V20.3486ZM113.591 11.3803V11.247H113.725V11.3803H113.591ZM112.186 11.3803H112.053V11.247H112.186V11.3803ZM112.186 16.6058L112.053 16.6096V16.6058H112.186ZM98.3793 18.3474C97.7387 17.6954 97.4207 16.8752 97.4195 15.8645L97.6862 15.8642C97.6873 16.8129 97.983 17.5636 98.5695 18.1605L98.3793 18.3474ZM100.729 19.3195C99.7982 19.3177 99.0245 18.9978 98.3798 18.3478L98.5691 18.16C99.1629 18.7587 99.8683 19.0512 100.73 19.0529L100.729 19.3195ZM103.079 18.3477C102.436 18.9979 101.66 19.3177 100.73 19.3195L100.729 19.0529C101.59 19.0512 102.297 18.7586 102.889 18.1602L103.079 18.3477ZM104.04 15.8645C104.039 16.8752 103.721 17.6955 103.079 18.3475L102.889 18.1604C103.477 17.5635 103.772 16.8128 103.773 15.8642L104.04 15.8645ZM103.079 13.3812C103.721 14.0332 104.039 14.8534 104.04 15.8642L103.773 15.8645C103.772 14.9158 103.477 14.1651 102.889 13.5682L103.079 13.3812ZM100.73 12.4091C101.66 12.4109 102.436 12.7308 103.079 13.3809L102.889 13.5685C102.297 12.97 101.59 12.6774 100.729 12.6758L100.73 12.4091ZM98.3798 13.3808C99.0245 12.7308 99.7982 12.4109 100.729 12.4091L100.73 12.6758C99.8683 12.6774 99.1629 12.9699 98.5691 13.5686L98.3798 13.3808ZM97.4195 15.8642C97.4207 14.8534 97.7387 14.0332 98.3793 13.3812L98.5695 13.5681C97.983 14.1651 97.6873 14.9158 97.6862 15.8645L97.4195 15.8642ZM103.92 19.0897C104.772 18.215 105.203 17.1318 105.202 15.8644L105.469 15.8642C105.47 17.1983 105.013 18.3492 104.111 19.2757L103.92 19.0897ZM100.73 20.409C101.996 20.4101 103.069 19.9675 103.92 19.0899L104.112 19.2756C103.208 20.2072 102.065 20.6768 100.729 20.6756L100.73 20.409ZM97.5402 19.09C98.3898 19.9675 99.4621 20.4101 100.729 20.409L100.73 20.6756C99.3933 20.6768 98.2507 20.2072 97.3486 19.2755L97.5402 19.09ZM97.3464 19.2733L97.3425 19.2687L97.5463 19.0968L97.5502 19.1014L97.3464 19.2733ZM97.5404 19.0908L97.5443 19.0948L97.3523 19.2799L97.3484 19.2758L97.5404 19.0908ZM96.2584 15.8644C96.2572 17.1319 96.6866 18.2151 97.5398 19.0902L97.3489 19.2764C96.4449 18.3492 95.9905 17.1982 95.9917 15.8642L96.2584 15.8644ZM97.5398 12.6384C96.6866 13.5136 96.2572 14.5968 96.2584 15.8642L95.9917 15.8644C95.9905 14.5305 96.4449 13.3794 97.3489 12.4522L97.5398 12.6384ZM97.311 12.5459V12.5453H97.5777V12.5459H97.311ZM100.729 11.3191C99.4621 11.3175 98.3898 11.7611 97.5402 12.6386L97.3486 12.4532C98.2507 11.5214 99.3932 11.0508 100.73 11.0524L100.729 11.3191ZM103.914 12.6444C103.059 11.7629 101.99 11.3175 100.73 11.3191L100.729 11.0524C102.06 11.0508 103.199 11.5239 104.106 12.4587L103.914 12.6444ZM105.202 15.8642C105.203 14.6047 104.77 13.5236 103.915 12.6446L104.106 12.4585C105.011 13.3888 105.47 14.5373 105.469 15.8644L105.202 15.8642ZM63.9882 18.1655C64.3248 17.8274 64.5406 17.3598 64.6197 16.7319L64.8842 16.7652C64.7995 17.4379 64.5643 17.9649 64.1772 18.3536L63.9882 18.1655ZM61.7607 19.0529C62.6655 19.0512 63.3937 18.7578 63.9886 18.1651L64.1768 18.354C63.5287 18.9998 62.7314 19.3177 61.7612 19.3195L61.7607 19.0529ZM59.5837 18.1673C60.2028 18.7625 60.9162 19.0517 61.7611 19.0529L61.7608 19.3195C60.8462 19.3183 60.0668 19.0018 59.3988 18.3596L59.5837 18.1673ZM58.6686 15.8641C58.6701 16.828 58.9755 17.579 59.584 18.1676L59.3986 18.3593C58.7324 17.7149 58.4036 16.8919 58.4019 15.8645L58.6686 15.8641ZM59.584 13.561C58.9755 14.1496 58.6701 14.9007 58.6686 15.8645L58.4019 15.8641C58.4036 14.8367 58.7324 14.0137 59.3986 13.3693L59.584 13.561ZM61.7611 12.6758C60.9162 12.6769 60.2028 12.9661 59.5837 13.5613L59.3988 13.369C60.0668 12.7268 60.8462 12.4103 61.7608 12.4091L61.7611 12.6758ZM63.9243 13.6063C63.4043 12.9878 62.7052 12.678 61.7606 12.6758L61.7613 12.4091C62.7729 12.4115 63.551 12.7479 64.1284 13.4347L63.9243 13.6063ZM64.026 13.7273L63.9243 13.6064L64.1284 13.4347L64.2301 13.5557L64.026 13.7273ZM65.0965 12.8604L64.2224 13.7357L64.0337 13.5472L64.9078 12.672L65.0965 12.8604ZM65.1901 12.7667L65.0964 12.8605L64.9078 12.6719L65.0016 12.5782L65.1901 12.7667ZM65.1125 12.4853L65.1978 12.5865L64.9939 12.7584L64.9086 12.6571L65.1125 12.4853ZM63.6522 11.439C64.2501 11.6955 64.7417 12.0433 65.1127 12.4855L64.9084 12.6569C64.5685 12.2517 64.1132 11.9269 63.547 11.6841L63.6522 11.439ZM61.761 11.0524C62.419 11.0524 63.0523 11.1814 63.6522 11.439L63.547 11.6841C62.9807 11.4409 62.3833 11.3191 61.761 11.3191V11.0524ZM58.3711 12.4366C59.2967 11.5167 60.4405 11.0512 61.7611 11.0524L61.7608 11.3191C60.5095 11.318 59.4338 11.7565 58.5591 12.6257L58.3711 12.4366ZM56.9741 15.8644C56.9729 14.5123 57.4413 13.3553 58.3714 12.4363L58.5588 12.626C57.6819 13.4925 57.2396 14.58 57.2408 15.8642L56.9741 15.8644ZM58.372 19.2929C57.4413 18.3733 56.9729 17.2158 56.9741 15.8642L57.2408 15.8644C57.2396 17.1481 57.6819 18.2361 58.5594 19.1032L58.372 19.2929ZM61.7611 20.6756C60.4406 20.6768 59.2968 20.2119 58.3717 19.2926L58.5597 19.1035C59.4337 19.9721 60.5095 20.4101 61.7608 20.409L61.7611 20.6756ZM65.1506 19.3052C64.2796 20.22 63.1323 20.6768 61.7608 20.6756L61.7611 20.409C63.068 20.4101 64.1425 19.9773 64.9575 19.1213L65.1506 19.3052ZM66.3051 16.2163C66.3061 17.4821 65.9259 18.5292 65.1484 19.3075L64.9597 19.119C65.6777 18.4003 66.0394 17.4262 66.0384 16.2165L66.3051 16.2163ZM66.2402 15.5119C66.2839 15.7543 66.3051 15.9882 66.3051 16.2164H66.0384C66.0384 16.0048 66.0188 15.7868 65.9778 15.5592L66.2402 15.5119ZM66.2188 15.3931L66.2402 15.5119L65.9778 15.5592L65.9564 15.4404L66.2188 15.3931ZM61.6163 15.2834H66.0876V15.5501H61.6163V15.2834ZM61.483 16.6039V15.4168H61.7496V16.6039H61.483ZM61.483 16.7486V16.6039H61.7496V16.7486H61.483ZM64.7519 16.8819H61.6163V16.6152H64.7519V16.8819ZM72.7071 12.5911V11.5249H72.9738V12.5911H72.7071ZM72.7071 12.7358V12.5911H72.9738V12.7358H72.7071ZM68.888 12.6025H72.8405V12.8691H68.888V12.6025ZM68.7547 15.1983V12.7358H69.0214V15.1983H68.7547ZM72.4524 15.3316H68.888V15.065H72.4524V15.3316ZM72.319 15.343V15.1983H72.5857V15.343H72.319ZM72.319 16.5305V15.343H72.5857V16.5305H72.319ZM68.888 16.3972H72.4524V16.6639H68.888V16.3972ZM68.7547 18.9931V16.5305H69.0214V18.9931H68.7547ZM72.8405 19.1264H68.888V18.8597H72.8405V19.1264ZM72.7071 19.1377V18.9931H72.9738V19.1377H72.7071ZM72.7071 20.3486V19.1377H72.9738V20.3486H72.7071ZM67.4845 20.2152H72.8405V20.4819H67.4845V20.2152ZM67.6178 11.3803V20.3486H67.3512V11.3803H67.6178ZM72.8405 11.5136H67.4845V11.2469H72.8405V11.5136ZM72.7071 11.5249V11.3803H72.9738V11.5249H72.7071ZM77.4087 20.2039V12.7358H77.6754V20.2039H77.4087ZM77.4087 20.3486V20.2039H77.6754V20.3486H77.4087ZM77.3974 20.2152H77.5421V20.4819H77.3974V20.2152ZM76.1368 20.2152H77.3974V20.4819H76.1368V20.2152ZM76.2701 12.7358V20.3486H76.0034V12.7358H76.2701ZM73.7127 12.6025H76.1368V12.8691H73.7127V12.6025ZM73.8461 12.5911V12.7358H73.5794V12.5911H73.8461ZM73.8461 11.3803V12.5911H73.5794V11.3803H73.8461ZM79.9661 11.5136H73.7127V11.2469H79.9661V11.5136ZM79.8328 11.5249V11.3803H80.0994V11.5249H79.8328ZM79.8328 12.7358V11.5249H80.0994V12.7358H79.8328ZM77.5421 12.6025H79.9661V12.8691H77.5421V12.6025ZM84.1361 20.2152H85.2509V20.4819H84.1361V20.2152ZM83.9914 20.2152H84.1361V20.4819H83.9914V20.2152ZM84.1248 11.3803V20.3486H83.8581V11.3803H84.1248ZM84.1361 11.5136H83.9914V11.2469H84.1361V11.5136ZM85.3955 11.5136H84.1361V11.2469H85.3955V11.5136ZM85.2622 20.3486V11.3803H85.5289V20.3486H85.2622ZM85.2509 20.2152H85.3955V20.4819H85.2509V20.2152ZM90.2096 20.2039V12.7358H90.4762V20.2039H90.2096ZM90.2096 20.3486V20.2039H90.4762V20.3486H90.2096ZM90.1983 20.2152H90.3429V20.4819H90.1983V20.2152ZM88.9376 20.2152H90.1983V20.4819H88.9376V20.2152ZM89.071 12.7358V20.3486H88.8043V12.7358H89.071ZM86.5137 12.6025H88.9376V12.8691H86.5137V12.6025ZM86.6471 12.5911V12.7358H86.3804V12.5911H86.6471ZM86.6471 11.3803V12.5911H86.3804V11.3803H86.6471ZM92.767 11.5136H86.5137V11.2469H92.767V11.5136ZM92.6336 11.5249V11.3803H92.9003V11.5249H92.6336ZM92.6336 12.7358V11.5249H92.9003V12.7358H92.6336ZM90.3429 12.6025H92.767V12.8691H90.3429V12.6025ZM112.108 17.8987L108.08 11.4509L108.306 11.3096L112.334 17.7574L112.108 17.8987ZM108.193 11.5136H106.755V11.247H108.193V11.5136ZM106.755 11.5136H106.611V11.247H106.755V11.5136ZM106.744 11.3803V20.3486H106.477V11.3803H106.744ZM106.611 20.2153H106.755V20.4819H106.611V20.2153ZM106.755 20.2153H107.87V20.4819H106.755V20.2153ZM107.87 20.2153H108.014V20.4819H107.87V20.2153ZM107.881 20.3486V14.7959H108.148V20.3486H107.881ZM107.881 14.7997L107.846 13.5784L108.113 13.5708L108.148 14.7921L107.881 14.7997ZM108.092 13.5041L112.316 20.278L112.089 20.4191L107.866 13.6451L108.092 13.5041ZM112.202 20.2153H113.447V20.4819H112.202V20.2153ZM113.447 20.2153H113.591V20.4819H113.447V20.2153ZM113.458 20.3486V11.3803H113.725V20.3486H113.458ZM113.591 11.5136H112.331V11.247H113.591V11.5136ZM112.331 11.5136H112.186V11.247H112.331V11.5136ZM112.319 11.3803V16.6058H112.053V11.3803H112.319ZM112.319 16.6019L112.354 17.8242L112.088 17.8319L112.053 16.6096L112.319 16.6019Z" fill="white" mask="url(#path-2-inside-1_478_719)"/>
<mask id="path-4-inside-2_478_719" fill="white">
<path d="M147.247 45.6533H149.806V28.5071H147.247V45.6533ZM170.299 34.6836L167.365 42.1173H167.277L164.233 34.6836H161.476L166.042 45.0736L163.438 50.8529H166.109L173.145 34.6836H170.299ZM155.785 43.7058C154.946 43.7058 153.777 43.2868 153.777 42.2496C153.777 40.9262 155.234 40.4189 156.49 40.4189C157.616 40.4189 158.144 40.6615 158.829 40.9927C158.63 42.5807 157.262 43.7058 155.785 43.7058ZM156.094 34.3084C154.241 34.3084 152.322 35.1249 151.528 36.9337L153.799 37.882C154.285 36.9337 155.188 36.6246 156.138 36.6246C157.461 36.6246 158.807 37.4191 158.829 38.8309V39.0071C158.365 38.7424 157.373 38.3455 156.16 38.3455C153.711 38.3455 151.218 39.6907 151.218 42.2056C151.218 44.4998 153.226 45.978 155.475 45.978C157.196 45.978 158.144 45.2059 158.741 44.3016H158.829V45.6249H161.299V39.051C161.299 36.0074 159.027 34.3084 156.094 34.3084ZM140.277 36.7708H136.637V30.8935H140.277C142.19 30.8935 143.276 32.4777 143.276 33.8321C143.276 35.1609 142.19 36.7708 140.277 36.7708ZM140.211 28.5071H134.079V45.6533H136.637V39.1572H140.211C143.047 39.1572 145.836 37.1035 145.836 33.8321C145.836 30.5608 143.047 28.5071 140.211 28.5071ZM106.771 43.709C105.003 43.709 103.523 42.2287 103.523 40.1955C103.523 38.1409 105.003 36.638 106.771 36.638C108.517 36.638 109.886 38.1409 109.886 40.1955C109.886 42.2287 108.517 43.709 106.771 43.709ZM109.71 35.6437H109.621C109.047 34.9588 107.942 34.3401 106.55 34.3401C103.633 34.3401 100.96 36.9032 100.96 40.1955C100.96 43.4658 103.633 46.0069 106.55 46.0069C107.942 46.0069 109.047 45.3881 109.621 44.6814H109.71V45.521C109.71 47.753 108.517 48.9462 106.594 48.9462C105.025 48.9462 104.053 47.8189 103.655 46.8689L101.424 47.7969C102.064 49.3436 103.766 51.2441 106.594 51.2441C109.599 51.2441 112.14 49.476 112.14 45.1674V34.6937H109.71V35.6437ZM113.908 45.6533H116.471V28.5066H113.908V45.6533ZM120.25 39.9967C120.183 37.7427 121.995 36.594 123.299 36.594C124.316 36.594 125.177 37.1019 125.464 37.8317L120.25 39.9967ZM128.204 38.0524C127.719 36.7483 126.238 34.3401 123.21 34.3401C120.205 34.3401 117.709 36.7044 117.709 40.1735C117.709 43.4439 120.183 46.0069 123.498 46.0069C126.172 46.0069 127.719 44.3717 128.359 43.4218L126.371 42.0958C125.708 43.0682 124.802 43.709 123.498 43.709C122.194 43.709 121.266 43.1122 120.669 41.9415L128.469 38.7151L128.204 38.0524ZM66.0613 36.13V38.6047H71.9831C71.8063 39.9967 71.3423 41.013 70.6351 41.7202C69.7736 42.5823 68.4256 43.5322 66.0613 43.5322C62.4153 43.5322 59.5651 40.5935 59.5651 36.9476C59.5651 33.3017 62.4153 30.3626 66.0613 30.3626C68.028 30.3626 69.4639 31.1362 70.5247 32.1305L72.2703 30.3851C70.7899 28.9706 68.8231 27.8879 66.0613 27.8879C61.0674 27.8879 56.8691 31.9537 56.8691 36.9476C56.8691 41.9415 61.0674 46.0069 66.0613 46.0069C68.7573 46.0069 70.79 45.1235 72.3807 43.4658C74.0159 41.8306 74.5243 39.5327 74.5243 37.6769C74.5243 37.1019 74.4803 36.5721 74.3914 36.13H66.0613ZM81.2568 43.709C79.4887 43.709 77.9639 42.2506 77.9639 40.1735C77.9639 38.0743 79.4887 36.638 81.2568 36.638C83.0241 36.638 84.5489 38.0743 84.5489 40.1735C84.5489 42.2506 83.0241 43.709 81.2568 43.709ZM81.2568 34.3401C78.0303 34.3401 75.4007 36.7928 75.4007 40.1735C75.4007 43.5322 78.0303 46.0069 81.2568 46.0069C84.4825 46.0069 87.1121 43.5322 87.1121 40.1735C87.1121 36.7928 84.4825 34.3401 81.2568 34.3401ZM94.0304 43.709C92.263 43.709 90.7381 42.2506 90.7381 40.1735C90.7381 38.0743 92.263 36.638 94.0304 36.638C95.7979 36.638 97.3227 38.0743 97.3227 40.1735C97.3227 42.2506 95.7979 43.709 94.0304 43.709ZM94.0304 34.3401C90.8041 34.3401 88.1751 36.7928 88.1751 40.1735C88.1751 43.5322 90.8041 46.0069 94.0304 46.0069C97.2563 46.0069 99.8859 43.5322 99.8859 40.1735C99.8859 36.7928 97.2563 34.3401 94.0304 34.3401Z"/>
</mask>
<path d="M147.247 45.6533H149.806V28.5071H147.247V45.6533ZM170.299 34.6836L167.365 42.1173H167.277L164.233 34.6836H161.476L166.042 45.0736L163.438 50.8529H166.109L173.145 34.6836H170.299ZM155.785 43.7058C154.946 43.7058 153.777 43.2868 153.777 42.2496C153.777 40.9262 155.234 40.4189 156.49 40.4189C157.616 40.4189 158.144 40.6615 158.829 40.9927C158.63 42.5807 157.262 43.7058 155.785 43.7058ZM156.094 34.3084C154.241 34.3084 152.322 35.1249 151.528 36.9337L153.799 37.882C154.285 36.9337 155.188 36.6246 156.138 36.6246C157.461 36.6246 158.807 37.4191 158.829 38.8309V39.0071C158.365 38.7424 157.373 38.3455 156.16 38.3455C153.711 38.3455 151.218 39.6907 151.218 42.2056C151.218 44.4998 153.226 45.978 155.475 45.978C157.196 45.978 158.144 45.2059 158.741 44.3016H158.829V45.6249H161.299V39.051C161.299 36.0074 159.027 34.3084 156.094 34.3084ZM140.277 36.7708H136.637V30.8935H140.277C142.19 30.8935 143.276 32.4777 143.276 33.8321C143.276 35.1609 142.19 36.7708 140.277 36.7708ZM140.211 28.5071H134.079V45.6533H136.637V39.1572H140.211C143.047 39.1572 145.836 37.1035 145.836 33.8321C145.836 30.5608 143.047 28.5071 140.211 28.5071ZM106.771 43.709C105.003 43.709 103.523 42.2287 103.523 40.1955C103.523 38.1409 105.003 36.638 106.771 36.638C108.517 36.638 109.886 38.1409 109.886 40.1955C109.886 42.2287 108.517 43.709 106.771 43.709ZM109.71 35.6437H109.621C109.047 34.9588 107.942 34.3401 106.55 34.3401C103.633 34.3401 100.96 36.9032 100.96 40.1955C100.96 43.4658 103.633 46.0069 106.55 46.0069C107.942 46.0069 109.047 45.3881 109.621 44.6814H109.71V45.521C109.71 47.753 108.517 48.9462 106.594 48.9462C105.025 48.9462 104.053 47.8189 103.655 46.8689L101.424 47.7969C102.064 49.3436 103.766 51.2441 106.594 51.2441C109.599 51.2441 112.14 49.476 112.14 45.1674V34.6937H109.71V35.6437ZM113.908 45.6533H116.471V28.5066H113.908V45.6533ZM120.25 39.9967C120.183 37.7427 121.995 36.594 123.299 36.594C124.316 36.594 125.177 37.1019 125.464 37.8317L120.25 39.9967ZM128.204 38.0524C127.719 36.7483 126.238 34.3401 123.21 34.3401C120.205 34.3401 117.709 36.7044 117.709 40.1735C117.709 43.4439 120.183 46.0069 123.498 46.0069C126.172 46.0069 127.719 44.3717 128.359 43.4218L126.371 42.0958C125.708 43.0682 124.802 43.709 123.498 43.709C122.194 43.709 121.266 43.1122 120.669 41.9415L128.469 38.7151L128.204 38.0524ZM66.0613 36.13V38.6047H71.9831C71.8063 39.9967 71.3423 41.013 70.6351 41.7202C69.7736 42.5823 68.4256 43.5322 66.0613 43.5322C62.4153 43.5322 59.5651 40.5935 59.5651 36.9476C59.5651 33.3017 62.4153 30.3626 66.0613 30.3626C68.028 30.3626 69.4639 31.1362 70.5247 32.1305L72.2703 30.3851C70.7899 28.9706 68.8231 27.8879 66.0613 27.8879C61.0674 27.8879 56.8691 31.9537 56.8691 36.9476C56.8691 41.9415 61.0674 46.0069 66.0613 46.0069C68.7573 46.0069 70.79 45.1235 72.3807 43.4658C74.0159 41.8306 74.5243 39.5327 74.5243 37.6769C74.5243 37.1019 74.4803 36.5721 74.3914 36.13H66.0613ZM81.2568 43.709C79.4887 43.709 77.9639 42.2506 77.9639 40.1735C77.9639 38.0743 79.4887 36.638 81.2568 36.638C83.0241 36.638 84.5489 38.0743 84.5489 40.1735C84.5489 42.2506 83.0241 43.709 81.2568 43.709ZM81.2568 34.3401C78.0303 34.3401 75.4007 36.7928 75.4007 40.1735C75.4007 43.5322 78.0303 46.0069 81.2568 46.0069C84.4825 46.0069 87.1121 43.5322 87.1121 40.1735C87.1121 36.7928 84.4825 34.3401 81.2568 34.3401ZM94.0304 43.709C92.263 43.709 90.7381 42.2506 90.7381 40.1735C90.7381 38.0743 92.263 36.638 94.0304 36.638C95.7979 36.638 97.3227 38.0743 97.3227 40.1735C97.3227 42.2506 95.7979 43.709 94.0304 43.709ZM94.0304 34.3401C90.8041 34.3401 88.1751 36.7928 88.1751 40.1735C88.1751 43.5322 90.8041 46.0069 94.0304 46.0069C97.2563 46.0069 99.8859 43.5322 99.8859 40.1735C99.8859 36.7928 97.2563 34.3401 94.0304 34.3401Z" fill="white" stroke="white" stroke-width="0.266667" mask="url(#path-4-inside-2_478_719)"/>
<g clip-path="url(#clip0_478_719)">
<path fill-rule="evenodd" clip-rule="evenodd" d="M15.1144 47.6298C15.2612 47.5745 15.4152 47.5047 15.574 47.418L36.6684 35.8709L31.6698 30.8771L15.1144 47.6298ZM37.6046 35.3607L32.3869 30.1503L37.5998 24.8749L44.7764 28.7905C46.5453 29.7556 45.6404 30.9613 44.7764 31.433L37.6046 35.3607ZM36.666 24.3671L15.5764 12.8609C15.3502 12.7381 15.0951 12.6635 14.84 12.6298L31.6649 29.4307L36.666 24.3671ZM13.603 12.8368L30.9478 30.1551L13.6848 47.625C13.1818 47.3049 12.9099 46.6118 12.9075 45.7165C12.8978 44.0006 12.7607 16.7548 12.751 14.7116C12.7462 13.7297 13.1024 13.1328 13.603 12.8368Z" fill="white"/>
</g>
<defs>
<clipPath id="clip0_478_719">
<rect width="33.041" height="35" fill="white" transform="translate(12.751 11.8528)"/>
</clipPath>
</defs>
</svg>
