<?xml version="1.0" standalone="no"?>
<!DOCTYPE svg PUBLIC "-//W3C//DTD SVG 20010904//EN"
 "http://www.w3.org/TR/2001/REC-SVG-20010904/DTD/svg10.dtd">
<svg version="1.0" xmlns="http://www.w3.org/2000/svg"
 width="1280.000000pt" height="720.000000pt" viewBox="0 0 1280.000000 720.000000"
 preserveAspectRatio="xMidYMid meet">

<g transform="translate(0.000000,720.000000) scale(0.100000,-0.100000)"
fill="#000000" stroke="none">
<path d="M0 3600 l0 -3600 2163 0 c1669 0 2166 3 2175 12 9 9 12 9 12 0 0 -9
946 -12 4225 -12 l4225 0 0 3600 0 3600 -1859 0 -1860 0 -4 -32 -4 -33 -1 33
-2 32 -4535 0 -4535 0 0 -3600z m9082 3388 c2 -64 0 -114 -4 -111 -5 2 -8 59
-7 126 1 151 7 142 11 -15z m15 -290 c-3 -8 -6 -5 -6 6 -1 11 2 17 5 13 3 -3
4 -12 1 -19z m2226 7 c-3 -9 -8 -14 -10 -11 -3 2 -21 -7 -40 -20 -20 -13 -45
-24 -57 -23 -14 0 -9 5 17 14 21 8 50 23 64 35 31 24 34 25 26 5z m-163 -25
c20 -6 21 -8 5 -8 -11 0 -31 4 -45 8 -20 6 -21 8 -5 8 11 0 31 -4 45 -8z
m-180 -10 c-12 -8 -12 -12 -2 -18 9 -6 7 -13 -10 -28 -17 -14 -19 -15 -9 -2 7
9 10 22 6 28 -8 13 2 30 18 30 7 0 6 -4 -3 -10z m65 3 c-11 -3 -26 -10 -32
-15 -9 -7 -13 -7 -13 0 0 13 18 21 45 20 l20 0 -20 -5z m277 -15 c-7 -7 -12
-8 -12 -2 0 14 12 26 19 19 2 -3 -1 -11 -7 -17z m-10089 -22 c200 -72 222
-327 36 -420 -47 -23 -64 -26 -161 -26 l-108 0 0 45 0 45 83 0 c130 0 192 45
192 138 0 93 -56 132 -189 132 l-86 0 0 43 c0 24 3 47 7 50 12 12 187 6 226
-7z m10107 4 c0 -5 -5 -10 -11 -10 -5 0 -7 5 -4 10 3 6 8 10 11 10 2 0 4 -4 4
-10z m-449 -31 c-5 -13 -10 -19 -10 -12 -1 15 10 45 15 40 3 -2 0 -15 -5 -28z
m1159 11 c-14 -10 -27 -17 -29 -14 -6 5 31 33 44 33 6 1 -1 -8 -15 -19z m347
-2 c-3 -8 -6 -5 -6 6 -1 11 2 17 5 13 3 -3 4 -12 1 -19z m-180 6 c-3 -3 -12
-4 -19 -1 -8 3 -5 6 6 6 11 1 17 -2 13 -5z m-900 -26 c-3 -8 -6 -5 -6 6 -1 11
2 17 5 13 3 -3 4 -12 1 -19z m940 16 c-3 -3 -12 -4 -19 -1 -8 3 -5 6 6 6 11 1
17 -2 13 -5z m100 -16 c-3 -8 -6 -5 -6 6 -1 11 2 17 5 13 3 -3 4 -12 1 -19z
m-1439 -37 c-12 -22 -24 -38 -26 -37 -5 5 22 60 33 68 17 13 16 9 -7 -31z
m-1861 7 c-3 -8 -6 -5 -6 6 -1 11 2 17 5 13 3 -3 4 -12 1 -19z m2250 -10 c-3
-8 -6 -5 -6 6 -1 11 2 17 5 13 3 -3 4 -12 1 -19z m-327 -30 c-19 -5 -42 -19
-52 -30 -10 -12 -21 -19 -23 -16 -12 11 57 58 83 57 25 -1 24 -2 -8 -11z
m-8082 -31 c2 -12 -3 -17 -17 -17 -12 0 -21 6 -21 13 0 31 32 34 38 4z m767 2
c0 -8 -10 -15 -22 -17 -25 -4 -33 22 -10 31 18 8 32 2 32 -14z m-855 -79 c0
-88 -1 -90 -24 -90 -23 0 -23 2 -24 90 -1 89 -1 90 23 90 25 0 25 -1 25 -90z
m550 1 l0 -89 -49 0 c-55 -1 -72 12 -73 55 -2 62 27 93 66 71 13 -7 16 -4 16
22 0 23 4 30 20 30 19 0 20 -7 20 -89z m1730 59 c0 -27 2 -30 19 -20 42 22 71
-16 71 -91 0 -35 -3 -39 -25 -39 -23 0 -25 4 -25 44 0 46 -16 69 -31 45 -5 -8
-9 -31 -9 -51 0 -33 -3 -38 -23 -38 -21 0 -22 3 -23 90 -1 88 -1 90 22 90 20
0 24 -5 24 -30z m6141 21 c-18 -11 1 -23 26 -15 16 5 16 4 2 -5 -13 -8 -24 -7
-44 3 -26 14 -20 24 15 25 12 1 12 -1 1 -8z m129 -1 c0 -5 -4 -10 -10 -10 -5
0 -10 5 -10 10 0 6 5 10 10 10 6 0 10 -4 10 -10z m-9700 -20 c14 -14 20 -33
20 -64 0 -57 -32 -86 -96 -86 l-44 0 0 85 0 85 50 0 c37 0 55 -5 70 -20z
m1928 3 c-2 -11 -14 -19 -31 -21 -35 -4 -37 -32 -2 -32 18 0 25 -5 25 -20 0
-15 -7 -20 -25 -20 -21 0 -25 -5 -25 -30 0 -25 -4 -30 -25 -30 -25 0 -25 1
-25 85 l0 85 56 0 c47 0 55 -3 52 -17z m1112 -3 c0 -15 -7 -20 -25 -20 -14 0
-25 -4 -25 -10 0 -5 11 -10 25 -10 18 0 25 -5 25 -20 0 -15 -7 -20 -25 -20
-16 0 -25 -6 -25 -15 0 -9 9 -15 25 -15 18 0 25 -5 25 -20 0 -17 -7 -20 -50
-20 l-50 0 0 85 0 85 50 0 c43 0 50 -3 50 -20z m-2290 -5 c0 -8 7 -15 15 -15
8 0 15 -7 15 -15 0 -8 -7 -15 -15 -15 -10 0 -15 -10 -15 -30 0 -20 5 -30 15
-30 8 0 15 -9 15 -20 0 -15 -7 -20 -29 -20 -16 0 -33 6 -39 13 -17 21 -20 100
-4 125 16 25 42 30 42 7z m9697 9 c-3 -3 -12 -4 -19 -1 -8 3 -5 6 6 6 11 1 17
-2 13 -5z m-920 -10 c-3 -3 -12 -4 -19 -1 -8 3 -5 6 6 6 11 1 17 -2 13 -5z
m1203 -15 c0 -6 -4 -7 -10 -4 -5 3 -10 11 -10 16 0 6 5 7 10 4 6 -3 10 -11 10
-16z m-10562 -12 c6 -5 12 -22 12 -38 0 -27 -3 -29 -36 -29 -23 0 -33 -4 -28
-11 4 -6 19 -9 36 -5 24 5 29 3 26 -12 -3 -19 -45 -27 -84 -18 -35 9 -49 80
-22 113 18 22 67 22 96 0z m162 4 c-1 -16 -18 -31 -32 -26 -19 8 -40 -18 -32
-39 4 -10 18 -16 35 -16 31 0 32 -1 23 -24 -7 -19 -63 -22 -86 -3 -39 30 -25
106 22 117 27 7 70 1 70 -9z m148 -9 c6 -9 12 -26 12 -39 0 -20 -5 -23 -41
-23 -27 0 -38 -4 -33 -11 3 -6 19 -9 35 -5 24 5 29 2 29 -14 0 -17 -7 -20 -44
-20 -35 0 -48 5 -60 22 -17 24 -21 65 -8 85 20 32 86 35 110 5z m162 8 c15
-15 20 -33 20 -70 0 -47 -2 -50 -25 -50 -23 0 -25 4 -25 43 0 24 -3 47 -7 50
-14 14 -33 -17 -33 -54 0 -34 -3 -39 -23 -39 -21 0 -23 4 -24 66 l-1 66 27 -5
c15 -3 33 -2 41 4 21 13 28 11 50 -11z m273 -9 c-3 -11 -13 -21 -24 -24 -15
-4 -19 -14 -19 -46 0 -37 -2 -41 -25 -41 -24 0 -25 2 -25 66 l0 67 28 -6 c15
-3 34 -2 42 3 19 12 29 4 23 -19z m141 8 c5 -4 10 -32 10 -61 l1 -53 -57 -2
c-54 -3 -58 -2 -64 22 -8 31 10 55 42 55 33 0 30 18 -3 22 -33 4 -34 20 -1 29
25 7 58 2 72 -12z m474 -1 c6 -6 12 -23 12 -39 0 -27 -3 -29 -36 -29 -23 0
-33 -4 -28 -11 3 -6 19 -9 35 -5 31 6 32 5 23 -18 -4 -11 -18 -16 -43 -16 -44
0 -57 8 -70 43 -26 68 49 121 107 75z m650 -62 c3 -54 2 -56 -23 -56 -23 0
-25 3 -25 51 0 66 -24 62 -28 -4 -3 -42 -6 -47 -28 -47 -23 0 -24 3 -24 65 l0
64 35 -1 c19 -1 38 2 42 5 3 4 16 1 27 -7 16 -10 22 -26 24 -70z m155 64 c5
-4 9 -32 10 -61 l2 -54 -60 0 c-55 0 -60 2 -63 23 -5 30 14 52 44 52 13 0 24
5 24 11 0 7 -10 9 -25 7 -19 -4 -25 -1 -25 13 0 26 67 33 93 9z m167 0 c15
-15 20 -33 20 -70 0 -47 -2 -50 -25 -50 -23 0 -25 4 -25 44 0 46 -16 69 -31
45 -5 -8 -9 -31 -9 -51 0 -33 -3 -38 -24 -38 -23 0 -24 3 -23 66 1 65 1 66 27
61 14 -3 32 -2 40 4 21 13 28 11 50 -11z m168 5 c1 -1 0 -9 -4 -18 -4 -12 -13
-15 -29 -11 -18 4 -25 1 -30 -15 -8 -27 1 -41 29 -41 28 0 36 -8 29 -26 -7
-18 -63 -18 -87 -1 -21 15 -25 79 -6 102 17 20 78 27 98 10z m140 -7 c6 -6 12
-23 12 -39 0 -27 -3 -29 -36 -29 -23 0 -33 -4 -28 -11 3 -6 19 -9 35 -5 31 6
32 5 23 -18 -4 -11 -18 -16 -43 -16 -44 0 -57 8 -69 40 -25 70 48 124 106 78z
m535 -9 c-4 -14 -11 -17 -28 -13 -18 4 -25 1 -30 -15 -9 -29 1 -41 35 -41 23
0 27 -3 23 -20 -6 -24 -58 -28 -87 -7 -20 15 -24 63 -7 94 19 36 103 38 94 2z
m320 12 c4 -4 8 -32 10 -62 l2 -54 -60 0 c-55 0 -60 2 -63 23 -5 30 14 52 44
52 13 0 24 5 24 11 0 7 -10 9 -25 7 -19 -4 -25 -1 -25 13 0 26 67 33 93 10z
m167 -1 c15 -15 20 -33 20 -70 0 -47 -2 -50 -25 -50 -23 0 -25 4 -25 44 0 46
-16 69 -31 45 -5 -8 -9 -31 -9 -51 0 -33 -3 -38 -22 -38 -21 0 -23 4 -24 66
l0 66 26 -5 c14 -3 32 -2 40 4 21 13 28 11 50 -11z m190 3 c2 -2 -1 -7 -7 -11
-6 -4 -13 -18 -14 -31 -3 -17 -14 -28 -39 -37 l-35 -12 37 -1 c53 -1 68 -32
34 -66 -26 -26 -64 -32 -97 -15 -19 11 -27 50 -10 50 5 0 7 27 4 60 -4 56 -3
61 19 69 21 9 96 4 108 -6z m138 -11 c6 -9 12 -26 12 -39 0 -20 -5 -23 -41
-23 -27 0 -38 -4 -33 -11 3 -6 19 -9 35 -5 24 5 29 2 29 -14 0 -17 -7 -20 -44
-20 -35 0 -48 5 -60 22 -17 24 -21 65 -8 85 20 32 86 35 110 5z m-2918 -47 c0
-61 -1 -65 -22 -65 -22 0 -23 4 -23 65 0 61 1 65 23 65 21 0 22 -4 22 -65z
m140 49 c0 -9 -9 -28 -21 -42 l-21 -27 24 -5 c12 -3 24 -14 26 -23 3 -15 -5
-17 -57 -17 -34 0 -61 3 -61 8 0 4 11 24 25 44 30 45 31 48 5 48 -11 0 -20 7
-20 15 0 11 12 15 50 15 39 0 50 -3 50 -16z m630 -49 c0 -63 -1 -65 -25 -65
-24 0 -25 2 -25 65 0 63 1 65 25 65 24 0 25 -2 25 -65z m1123 53 c4 -10 7 -10
18 0 7 6 24 12 37 12 l24 0 -21 -33 c-19 -32 -19 -33 -1 -57 11 -14 20 -28 20
-32 0 -16 -49 -7 -60 10 -10 16 -10 16 -20 0 -6 -10 -22 -18 -36 -18 l-26 0
20 34 c20 33 20 33 0 65 l-20 31 30 0 c17 0 32 -6 35 -12z m6067 8 c0 -3 -13
-14 -28 -24 -26 -19 -28 -19 -28 -2 0 10 4 16 8 14 4 -3 16 0 25 5 21 12 23
13 23 7z m1340 0 c0 -2 -11 -6 -25 -8 -13 -3 -22 -1 -19 3 5 9 44 13 44 5z
m99 -3 c23 -6 23 -7 5 -14 -28 -11 -53 -10 -29 2 17 8 16 9 -7 6 -15 -2 -25 0
-22 4 6 11 20 11 53 2z m-952 -55 c-3 -8 -6 -5 -6 6 -1 11 2 17 5 13 3 -3 4
-12 1 -19z m-10489 -13 c-3 -3 -9 2 -12 12 -6 14 -5 15 5 6 7 -7 10 -15 7 -18z
m9922 -6 c-7 -11 -14 -18 -17 -15 -3 3 0 12 7 21 18 21 23 19 10 -6z m1061
-12 c-10 -9 -11 -8 -5 6 3 10 9 15 12 12 3 -3 0 -11 -7 -18z m-508 -32 c-7
-21 -13 -19 -13 6 0 11 4 18 10 14 5 -3 7 -12 3 -20z m-23 -24 c0 -10 -9 -21
-20 -24 -19 -5 -19 -4 -2 19 21 29 22 29 22 5z m480 -11 c-6 -12 -14 -20 -17
-17 -2 3 1 14 8 26 7 11 15 18 17 16 2 -2 -2 -13 -8 -25z m583 15 c-3 -9 -8
-14 -10 -11 -3 3 -2 9 2 15 9 16 15 13 8 -4z m-1640 -15 c-3 -12 -8 -19 -11
-16 -5 6 5 36 12 36 2 0 2 -9 -1 -20z m140 -7 c-7 -2 -21 -2 -30 0 -10 3 -4 5
12 5 17 0 24 -2 18 -5z m457 -13 c0 -5 -5 -10 -11 -10 -5 0 -7 5 -4 10 3 6 8
10 11 10 2 0 4 -4 4 -10z m1030 6 c0 -3 -4 -8 -10 -11 -5 -3 -10 -1 -10 4 0 6
5 11 10 11 6 0 10 -2 10 -4z m-3353 -28 c-3 -8 -6 -5 -6 6 -1 11 2 17 5 13 3
-3 4 -12 1 -19z m1768 12 c-27 -12 -43 -12 -25 0 8 5 22 9 30 9 10 0 8 -3 -5
-9z m105 0 c0 -5 -4 -10 -10 -10 -5 0 -10 5 -10 10 0 6 5 10 10 10 6 0 10 -4
10 -10z m1510 0 c0 -5 -5 -10 -11 -10 -5 0 -7 5 -4 10 3 6 8 10 11 10 2 0 4
-4 4 -10z m-1193 -16 c-3 -3 -12 -4 -19 -1 -8 3 -5 6 6 6 11 1 17 -2 13 -5z
m1123 -14 c-24 -15 -37 -11 -16 5 11 8 22 12 25 9 3 -3 -1 -9 -9 -14z m-332 3
c-10 -2 -26 -2 -35 0 -10 3 -2 5 17 5 19 0 27 -2 18 -5z m-244 -18 c-4 -8 -8
-15 -10 -15 -2 0 -4 7 -4 15 0 8 4 15 10 15 5 0 7 -7 4 -15z m66 1 c0 -2 -7
-7 -16 -10 -8 -3 -12 -2 -9 4 6 10 25 14 25 6z m-2783 -78 c-3 -8 -6 -5 -6 6
-1 11 2 17 5 13 3 -3 4 -12 1 -19z m1678 0 c112 4 115 3 115 -18 0 -12 5 -31
11 -42 8 -15 8 -19 0 -14 -7 5 -11 -8 -11 -41 1 -46 1 -47 17 -28 l16 20 -9
-20 c-4 -11 -7 -54 -7 -95 3 -146 12 -376 19 -432 l6 -57 -53 -15 c-29 -9 -58
-16 -65 -16 -7 0 -49 -12 -94 -26 -44 -15 -83 -24 -86 -21 -3 2 -1 85 4 183 5
99 7 196 5 216 -3 21 -2 46 2 55 15 35 26 310 14 343 -3 8 -4 13 -2 10 1 -3
55 -3 118 -2z m1060 -13 c89 0 90 0 91 -25 1 -14 5 -79 8 -145 4 -66 8 -140
10 -165 2 -25 7 -114 10 -198 3 -85 9 -158 12 -164 13 -20 -23 -28 -128 -28
-67 0 -108 -4 -108 -10 0 -7 56 -10 158 -10 86 1 162 1 169 1 8 -1 13 -24 15
-63 l3 -63 48 1 c27 0 47 -4 47 -10 0 -6 0 -203 0 -438 0 -340 2 -428 12 -428
9 0 9 -3 2 -8 -5 -4 -10 -18 -10 -32 l0 -25 -879 0 c-858 0 -880 0 -877 19 2
10 -2 23 -10 27 -7 5 -8 9 -3 9 7 0 9 146 8 422 -1 233 1 428 5 435 4 6 21 13
38 16 29 4 129 34 199 59 17 5 37 11 45 12 33 5 110 31 110 38 0 4 8 7 18 6 9
0 26 2 37 5 48 12 141 40 150 45 6 4 15 7 20 7 24 1 81 18 93 28 20 16 24 3
29 -85 2 -49 9 -85 16 -90 7 -4 14 -3 15 2 2 6 8 8 13 4 5 -3 9 0 9 5 0 6 -6
11 -12 11 -10 0 -10 2 0 9 8 4 13 12 13 17 -2 13 228 22 233 9 3 -5 5 -2 5 8
1 17 3 17 16 3 9 -8 21 -14 28 -12 7 1 9 1 5 -1 -5 -3 -8 -18 -8 -34 0 -24 4
-29 26 -29 17 0 23 4 18 13 -5 8 -2 7 9 -2 24 -19 28 -12 32 51 2 29 4 55 4
58 1 3 20 4 44 2 l43 -4 11 49 c6 26 11 94 10 150 -1 55 1 99 6 96 7 -4 11
114 12 315 0 72 -3 96 -15 104 -12 8 -12 9 3 4 9 -3 17 -1 17 4 0 5 -8 11 -17
13 -13 4 -12 5 5 6 12 0 26 9 29 18 5 13 8 14 12 2 5 -11 27 -14 96 -14z
m-2784 -29 c-14 -36 -22 -33 -9 5 6 16 12 28 14 26 3 -2 0 -16 -5 -31z m2916
-33 c-3 -10 -5 -4 -5 12 0 17 2 24 5 18 2 -7 2 -21 0 -30z m-1036 4 c-10 -9
-11 -8 -5 6 3 10 9 15 12 12 3 -3 0 -11 -7 -18z m756 -19 c-3 -8 -6 -5 -6 6
-1 11 2 17 5 13 3 -3 4 -12 1 -19z m2 -78 c0 -10 -3 -8 -9 5 -12 27 -12 43 0
25 5 -8 9 -22 9 -30z m279 5 c-3 -3 -9 2 -12 12 -6 14 -5 15 5 6 7 -7 10 -15
7 -18z m-2948 -59 c0 -26 -6 -18 -14 19 -5 22 -4 26 4 15 5 -8 10 -24 10 -34z
m2657 2 c-3 -8 -6 -5 -6 6 -1 11 2 17 5 13 3 -3 4 -12 1 -19z m20 0 c-3 -8 -6
-5 -6 6 -1 11 2 17 5 13 3 -3 4 -12 1 -19z m254 -11 c-10 -9 -11 -8 -5 6 3 10
9 15 12 12 3 -3 0 -11 -7 -18z m-2974 -94 c-3 -10 -5 -4 -5 12 0 17 2 24 5 18
2 -7 2 -21 0 -30z m1960 -5 c-3 -8 -6 -5 -6 6 -1 11 2 17 5 13 3 -3 4 -12 1
-19z m1040 0 c-3 -8 -6 -5 -6 6 -1 11 2 17 5 13 3 -3 4 -12 1 -19z m-10603 -9
c56 -15 126 -49 155 -75 20 -18 24 -31 23 -77 -1 -82 -28 -137 -84 -164 -25
-13 -57 -23 -72 -23 -52 0 -120 -23 -143 -49 -17 -20 -22 -38 -23 -82 0 -30 4
-59 9 -65 5 -5 11 -17 13 -27 1 -10 6 -17 9 -15 4 2 15 -4 25 -13 23 -21 194
-33 194 -14 0 6 5 16 12 23 14 14 38 80 38 105 0 38 69 158 107 189 63 50 166
95 248 109 108 17 194 1 309 -57 99 -50 136 -53 172 -12 40 44 78 51 282 54
139 2 204 -1 230 -10 31 -11 46 -11 87 0 28 8 120 16 205 19 85 2 169 7 185 9
49 7 187 -30 205 -56 11 -14 101 -58 120 -58 23 0 62 16 110 46 77 46 160 68
260 68 107 -1 141 -9 256 -67 87 -43 116 -45 154 -7 11 11 20 17 20 13 0 -5 4
-2 8 5 5 7 18 14 30 17 12 2 27 7 33 10 14 10 356 10 397 1 17 -4 32 -13 32
-19 0 -8 4 -7 9 2 7 11 10 10 15 -5 10 -31 54 -46 88 -32 15 7 28 16 28 20 0
5 7 8 16 8 9 0 28 9 43 20 31 21 128 40 212 40 79 0 151 -15 222 -47 89 -40
124 -37 183 16 27 24 61 54 76 67 14 13 31 24 38 24 6 0 9 4 5 9 -8 13 100 34
127 25 13 -5 27 -7 32 -6 4 2 27 -12 50 -31 22 -19 62 -46 89 -61 26 -15 47
-32 47 -38 0 -5 5 -6 10 -3 6 3 13 0 16 -8 2 -7 10 -14 17 -15 7 -1 27 -5 45
-8 19 -4 43 -2 55 3 12 6 43 20 69 32 73 34 192 48 285 32 77 -13 98 -20 218
-82 54 -28 63 -30 90 -19 17 6 36 12 43 13 6 0 12 4 12 8 0 5 30 23 68 41 62
29 75 32 172 32 114 1 176 -17 248 -71 l33 -25 -7 -102 c-5 -83 -3 -111 11
-151 35 -102 42 -147 30 -205 -11 -55 -40 -118 -60 -132 -5 -3 -30 -21 -55
-40 -25 -18 -61 -39 -80 -46 -46 -18 -290 -29 -290 -13 0 6 -4 11 -10 11 -15
0 -118 49 -124 59 -9 13 -88 -9 -106 -30 -3 -3 -32 -16 -65 -29 -49 -20 -77
-24 -165 -24 -107 -1 -238 23 -263 48 -16 16 -45 27 -84 33 -24 3 -53 -6 -110
-33 -66 -32 -89 -38 -151 -40 -105 -3 -176 18 -269 82 -45 31 -84 27 -119 -12
-13 -14 -24 -22 -24 -18 0 4 -8 0 -17 -8 -29 -25 -106 -36 -285 -43 -114 -5
-179 -3 -205 5 -60 17 -143 63 -148 82 -3 9 -12 19 -20 22 -13 4 -31 39 -65
121 -5 11 -12 46 -15 78 -5 48 -10 57 -26 57 -11 0 -22 -7 -25 -15 -4 -8 -12
-15 -20 -15 -7 0 -17 -12 -20 -27 -7 -30 -29 -112 -40 -153 -4 -14 -18 -39
-31 -56 -12 -17 -23 -36 -23 -42 0 -7 -3 -11 -7 -10 -5 1 -19 -4 -33 -12 -38
-22 -189 -18 -206 4 -7 10 -15 17 -18 17 -20 -3 -27 0 -22 8 3 4 -12 16 -34
26 -43 19 -40 20 -151 -42 -61 -35 -142 -53 -236 -53 -105 0 -165 16 -269 71
-41 21 -84 39 -96 39 -11 0 -47 -18 -79 -40 -32 -22 -63 -40 -68 -40 -5 0 -14
-6 -20 -14 -7 -8 -24 -17 -39 -20 -88 -21 -140 -42 -164 -67 -16 -15 -28 -31
-28 -34 0 -4 -9 -19 -19 -34 -11 -15 -23 -39 -26 -52 -11 -43 -59 -64 -145
-62 -41 1 -82 3 -90 5 -23 5 -54 31 -59 48 -3 8 -14 44 -26 80 -12 36 -30 110
-39 165 -9 55 -22 114 -28 130 -5 17 -15 49 -21 73 -8 34 -15 42 -33 42 -18 0
-27 -12 -48 -65 -14 -36 -26 -72 -26 -80 0 -8 -4 -15 -10 -15 -5 0 -10 -7 -10
-16 0 -8 -4 -12 -10 -9 -5 3 -10 -3 -10 -15 0 -12 -4 -18 -10 -15 -5 3 -10 -1
-10 -10 0 -11 -5 -15 -15 -11 -8 3 -18 -1 -22 -8 -5 -7 -33 -17 -63 -22 -75
-13 -162 9 -208 52 -40 37 -61 35 -158 -15 -34 -17 -81 -38 -105 -46 -59 -21
-201 -22 -272 -1 -52 15 -125 51 -137 67 -7 9 -72 43 -95 49 -13 4 -28 -3 -46
-21 -108 -111 -343 -137 -508 -57 -78 38 -158 114 -190 180 -12 26 -22 50 -21
53 1 3 -6 17 -14 30 -34 52 -28 365 7 365 6 0 8 3 4 6 -11 11 58 124 106 173
51 52 127 95 206 116 58 17 181 18 235 4z m7576 -104 c0 -5 -5 -3 -10 5 -5 8
-10 20 -10 25 0 6 5 3 10 -5 5 -8 10 -19 10 -25z m-12 -16 c9 -12 9 -16 -1
-16 -7 0 -14 9 -14 20 -1 11 -1 18 0 16 2 -2 8 -11 15 -20z m-35 -94 c-3 -9
-8 -14 -10 -11 -3 3 -2 9 2 15 9 16 15 13 8 -4z m-13 -31 c0 -3 -7 -12 -15
-20 -16 -17 -18 -14 -9 10 6 15 24 23 24 10z m27 -16 c-3 -8 -6 -5 -6 6 -1 11
2 17 5 13 3 -3 4 -12 1 -19z m3060 -50 c-3 -8 -6 -5 -6 6 -1 11 2 17 5 13 3
-3 4 -12 1 -19z m-3117 -8 c0 -5 -2 -10 -4 -10 -3 0 -8 5 -11 10 -3 6 -1 10 4
10 6 0 11 -4 11 -10z m-10 -31 c0 -6 -4 -7 -10 -4 -5 3 -10 11 -10 16 0 6 5 7
10 4 6 -3 10 -11 10 -16z m-38 -61 c-7 -7 -12 -8 -12 -2 0 14 12 26 19 19 2
-3 -1 -11 -7 -17z m31 -3 c-3 -9 -8 -14 -10 -11 -3 3 -2 9 2 15 9 16 15 13 8
-4z m2698 -42 c-12 -20 -14 -14 -5 12 4 9 9 14 11 11 3 -2 0 -13 -6 -23z
m-2775 -49 c-4 -9 -9 -15 -11 -12 -3 3 -3 13 1 22 4 9 9 15 11 12 3 -3 3 -13
-1 -22z m-18 -49 c-6 -14 -13 -23 -16 -21 -7 7 9 46 18 46 5 0 4 -11 -2 -25z
m3476 -17 c7 -5 4 -8 -6 -8 -10 0 -18 -4 -18 -10 0 -5 -5 -10 -12 -10 -9 0 -9
3 0 12 7 7 12 21 13 33 0 14 2 16 6 5 3 -8 11 -18 17 -22z m-7 -90 c-3 -8 -6
-5 -6 6 -1 11 2 17 5 13 3 -3 4 -12 1 -19z m-3546 -35 c-11 -21 -20 -35 -21
-31 0 12 33 78 38 74 2 -2 -6 -21 -17 -43z m-31 -63 c0 -5 -5 -10 -11 -10 -5
0 -7 5 -4 10 3 6 8 10 11 10 2 0 4 -4 4 -10z m-20 -51 c0 -6 -4 -7 -10 -4 -5
3 -10 11 -10 16 0 6 5 7 10 4 6 -3 10 -11 10 -16z m-44 -75 c-4 -9 -9 -15 -11
-12 -3 3 -3 13 1 22 4 9 9 15 11 12 3 -3 3 -13 -1 -22z m-35 -51 c-12 -20 -14
-14 -5 12 4 9 9 14 11 11 3 -2 0 -13 -6 -23z m-83 -138 c-6 -14 -13 -23 -15
-21 -5 5 15 46 22 46 3 0 -1 -11 -7 -25z m-34 -81 c3 -8 2 -12 -4 -9 -6 3 -10
10 -10 16 0 14 7 11 14 -7z m-6142 -17 c-6 -7 -13 -44 -15 -82 l-3 -70 -2 76
c-1 42 1 79 5 82 12 13 26 7 15 -6z m6098 -31 c0 -8 -8 -22 -17 -33 -10 -10
-15 -14 -11 -8 4 7 5 15 1 18 -3 4 -1 7 5 7 7 0 12 7 12 15 0 8 2 15 5 15 3 0
5 -6 5 -14z m-6883 -18 c-3 -8 -6 -5 -6 6 -1 11 2 17 5 13 3 -3 4 -12 1 -19z
m136 2 c-3 -11 -7 -20 -9 -20 -2 0 -4 9 -4 20 0 11 4 20 9 20 5 0 7 -9 4 -20z
m-480 3 c-7 -2 -13 -11 -13 -19 0 -8 -4 -14 -9 -14 -5 0 -7 9 -4 20 3 11 13
20 22 19 10 0 11 -2 4 -6z m-226 -55 c-3 -8 -6 -5 -6 6 -1 11 2 17 5 13 3 -3
4 -12 1 -19z m556 2 c3 -11 1 -20 -4 -20 -5 0 -9 9 -9 20 0 11 2 20 4 20 2 0
6 -9 9 -20z m-186 -47 c-3 -10 -5 -4 -5 12 0 17 2 24 5 18 2 -7 2 -21 0 -30z
m317 22 c-4 -8 -8 -15 -10 -15 -2 0 -4 7 -4 15 0 8 4 15 10 15 5 0 7 -7 4 -15z
m-727 -27 c-3 -8 -6 -5 -6 6 -1 11 2 17 5 13 3 -3 4 -12 1 -19z m1380 -30 c-3
-8 -6 -5 -6 6 -1 11 2 17 5 13 3 -3 4 -12 1 -19z m150 0 c-3 -8 -6 -5 -6 6 -1
11 2 17 5 13 3 -3 4 -12 1 -19z m-520 6 c-3 -3 -12 -4 -19 -1 -8 3 -5 6 6 6
11 1 17 -2 13 -5z m1413 -4 c0 -5 -4 -10 -10 -10 -5 0 -10 5 -10 10 0 6 5 10
10 10 6 0 10 -4 10 -10z m-1273 -6 c-3 -3 -12 -4 -19 -1 -8 3 -5 6 6 6 11 1
17 -2 13 -5z m692 2 c-2 -2 -22 -6 -44 -9 -27 -4 -35 -3 -25 3 14 9 79 15 69
6z m190 -12 c11 -11 -7 -10 -34 3 l-30 14 30 -6 c16 -4 32 -9 34 -11z m248 10
c-3 -3 -12 -4 -19 -1 -8 3 -5 6 6 6 11 1 17 -2 13 -5z m433 2 c0 -3 -4 -8 -10
-11 -5 -3 -10 -1 -10 4 0 6 5 11 10 11 6 0 10 -2 10 -4z m205 -6 c-27 -12 -43
-12 -25 0 8 5 22 9 30 9 10 0 8 -3 -5 -9z m152 4 c-3 -3 -12 -4 -19 -1 -8 3
-5 6 6 6 11 1 17 -2 13 -5z m160 0 c-3 -3 -12 -4 -19 -1 -8 3 -5 6 6 6 11 1
17 -2 13 -5z m126 -1 c-7 -2 -21 -2 -30 0 -10 3 -4 5 12 5 17 0 24 -2 18 -5z
m354 1 c-3 -3 -12 -4 -19 -1 -8 3 -5 6 6 6 11 1 17 -2 13 -5z m3673 -24 c-12
-16 -24 -30 -26 -30 -7 0 5 20 24 43 24 27 25 20 2 -13z m-7313 -17 c-3 -10
-5 -4 -5 12 0 17 2 24 5 18 2 -7 2 -21 0 -30z m2137 9 c-18 -15 -41 -43 -53
-62 -11 -19 -21 -30 -21 -25 0 17 37 66 67 91 39 32 45 29 7 -4z m293 2 l28
-26 -30 20 c-16 10 -37 22 -45 25 -12 4 -12 6 2 6 9 1 30 -11 45 -25z m616 6
c9 -11 13 -20 7 -20 -5 0 -14 9 -20 20 -6 11 -9 20 -8 20 2 0 11 -9 21 -20z
m292 0 c17 -18 17 -20 2 -14 -9 3 -17 10 -17 15 0 5 -5 9 -11 9 -6 0 -9 -7 -6
-14 4 -10 1 -13 -9 -9 -17 6 -18 20 -1 26 20 9 23 8 42 -13z m244 7 c-2 -1
-15 -11 -29 -22 l-25 -20 19 23 c11 12 24 22 29 22 6 0 8 -1 6 -3z m-2739 -11
c0 -2 -7 -7 -16 -10 -8 -3 -12 -2 -9 4 6 10 25 14 25 6z m326 -48 c14 -22 24
-41 22 -43 -2 -2 -17 19 -35 46 -17 27 -27 47 -22 43 5 -3 21 -24 35 -46z
m1634 42 c0 -5 -5 -10 -11 -10 -5 0 -7 5 -4 10 3 6 8 10 11 10 2 0 4 -4 4 -10z
m-1853 -6 c-3 -3 -12 -4 -19 -1 -8 3 -5 6 6 6 11 1 17 -2 13 -5z m701 -8 c-7
-8 -15 -12 -17 -11 -5 6 10 25 20 25 5 0 4 -6 -3 -14z m72 4 c18 -12 2 -12
-25 0 -13 6 -15 9 -5 9 8 0 22 -4 30 -9z m1044 2 c3 -5 -1 -9 -9 -9 -8 0 -12
4 -9 9 3 4 7 8 9 8 2 0 6 -4 9 -8z m350 -4 c-3 -4 -11 -5 -19 -1 -21 7 -19 12
4 10 11 0 18 -5 15 -9z m693 6 c-3 -3 -12 -4 -19 -1 -8 3 -5 6 6 6 11 1 17 -2
13 -5z m83 -24 c12 -16 19 -30 16 -30 -2 0 -14 14 -26 30 -12 17 -19 30 -16
30 2 0 14 -13 26 -30z m-3763 -12 c-3 -7 -5 -2 -5 12 0 14 2 19 5 13 2 -7 2
-19 0 -25z m236 17 c-3 -9 -8 -14 -10 -11 -3 3 -2 9 2 15 9 16 15 13 8 -4z
m2012 5 c3 -5 2 -10 -4 -10 -5 0 -13 5 -16 10 -3 6 -2 10 4 10 5 0 13 -4 16
-10z m460 0 c-3 -5 -14 -10 -23 -10 -15 0 -15 2 -2 10 20 13 33 13 25 0z
m-2567 -41 c-3 -20 -5 -19 -9 9 -3 20 -2 29 4 23 5 -5 7 -19 5 -32z m332 37
c0 -3 -4 -8 -10 -11 -5 -3 -10 -1 -10 4 0 6 5 11 10 11 6 0 10 -2 10 -4z m707
-153 c-2 -32 -3 -8 -3 52 0 61 1 87 3 58 2 -29 2 -78 0 -110z m518 147 c4 -6
21 -17 38 -25 l32 -15 -29 6 c-17 3 -35 11 -40 19 -6 7 -18 15 -26 18 -12 4
-12 6 2 6 9 1 20 -4 23 -9z m-1937 -65 c0 -16 -2 -15 -8 5 -11 34 -11 60 0 35
5 -11 8 -29 8 -40z m723 32 c-10 -9 -11 -8 -5 6 3 10 9 15 12 12 3 -3 0 -11
-7 -18z m1326 1 c-3 -8 -6 -5 -6 6 -1 11 2 17 5 13 3 -3 4 -12 1 -19z m403
-12 c0 -4 -9 -1 -19 6 -11 7 -17 16 -15 20 5 8 34 -15 34 -26z m823 27 c-7 -2
-19 -2 -25 0 -7 3 -2 5 12 5 14 0 19 -2 13 -5z m-2243 -23 c-6 -11 -16 -20
-22 -20 -6 0 -3 9 7 20 10 11 20 20 22 20 2 0 -1 -9 -7 -20z m897 14 c-3 -3
-12 -4 -19 -1 -8 3 -5 6 6 6 11 1 17 -2 13 -5z m667 -10 c3 -8 2 -12 -4 -9 -6
3 -10 10 -10 16 0 14 7 11 14 -7z m366 6 c-8 -5 -22 -10 -30 -10 -13 0 -13 1
0 10 8 5 22 10 30 10 13 0 13 -1 0 -10z m800 -12 c-11 -12 -21 -31 -21 -42 -1
-18 -2 -18 -6 -3 -5 20 21 67 38 67 5 0 1 -10 -11 -22z m4077 8 c13 0 18 -5
13 -10 -5 -5 -25 -2 -47 8 -21 9 -27 14 -13 10 14 -3 35 -7 47 -8z m-4808 -30
c-3 -3 -11 5 -18 17 -13 21 -12 21 5 5 10 -10 16 -20 13 -22z m-2158 1 c-10
-9 -11 -8 -5 6 3 10 9 15 12 12 3 -3 0 -11 -7 -18z m1164 13 c3 -6 -1 -7 -9
-4 -18 7 -21 14 -7 14 6 0 13 -4 16 -10z m1303 -11 c8 -12 9 -18 3 -15 -5 4
-12 -6 -14 -21 -3 -23 -4 -22 -6 9 0 20 -7 39 -13 41 -9 4 -8 6 2 6 8 1 21 -8
28 -20z m275 -20 c-8 -28 -12 -23 -11 12 1 17 4 25 8 18 4 -6 5 -20 3 -30z
m307 -7 c0 -21 -26 8 -27 31 -2 19 -2 19 12 1 8 -11 15 -25 15 -32z m-3243 16
c-3 -8 -6 -5 -6 6 -1 11 2 17 5 13 3 -3 4 -12 1 -19z m492 -42 c-9 -8 -10 -7
-5 7 3 10 7 26 7 35 1 9 4 6 6 -7 3 -13 -1 -28 -8 -35z m-149 40 c0 -3 -4 -8
-10 -11 -5 -3 -10 -1 -10 4 0 6 5 11 10 11 6 0 10 -2 10 -4z m287 -28 c-3 -7
-5 -2 -5 12 0 14 2 19 5 13 2 -7 2 -19 0 -25z m490 0 c-3 -7 -5 -2 -5 12 0 14
2 19 5 13 2 -7 2 -19 0 -25z m56 17 c-3 -9 -8 -14 -10 -11 -3 3 -2 9 2 15 9
16 15 13 8 -4z m1624 -47 c-2 -13 -4 -3 -4 22 0 25 2 35 4 23 2 -13 2 -33 0
-45z m-3090 30 c-3 -8 -6 -5 -6 6 -1 11 2 17 5 13 3 -3 4 -12 1 -19z m-238
-33 c0 -5 -4 -3 -9 5 -5 8 -9 22 -9 30 0 16 17 -16 18 -35z m148 13 c-3 -7 -5
-2 -5 12 0 14 2 19 5 13 2 -7 2 -19 0 -25z m30 10 c-3 -8 -6 -5 -6 6 -1 11 2
17 5 13 3 -3 4 -12 1 -19z m3030 0 c-3 -8 -6 -5 -6 6 -1 11 2 17 5 13 3 -3 4
-12 1 -19z m-2212 2 c3 -6 -1 -7 -9 -4 -18 7 -21 14 -7 14 6 0 13 -4 16 -10z
m2675 6 c0 -2 -11 -6 -25 -8 -14 -3 -25 -1 -25 3 0 5 11 9 25 9 14 0 25 -2 25
-4z m-2963 -38 c-3 -7 -5 -2 -5 12 0 14 2 19 5 13 2 -7 2 -19 0 -25z m980 10
c-3 -8 -6 -5 -6 6 -1 11 2 17 5 13 3 -3 4 -12 1 -19z m320 0 c-3 -8 -6 -5 -6
6 -1 11 2 17 5 13 3 -3 4 -12 1 -19z m890 -10 c-3 -7 -5 -2 -5 12 0 14 2 19 5
13 2 -7 2 -19 0 -25z m540 10 c-3 -8 -6 -5 -6 6 -1 11 2 17 5 13 3 -3 4 -12 1
-19z m160 0 c-3 -8 -6 -5 -6 6 -1 11 2 17 5 13 3 -3 4 -12 1 -19z m-3350 -10
c-3 -8 -6 -5 -6 6 -1 11 2 17 5 13 3 -3 4 -12 1 -19z m110 0 c-3 -8 -6 -5 -6
6 -1 11 2 17 5 13 3 -3 4 -12 1 -19z m58 -18 c-9 -41 -17 -33 -9 9 4 17 9 30
11 27 3 -2 2 -19 -2 -36z m442 34 c-3 -3 -12 -4 -19 -1 -8 3 -5 6 6 6 11 1 17
-2 13 -5z m2160 -16 c-3 -8 -6 -5 -6 6 -1 11 2 17 5 13 3 -3 4 -12 1 -19z m20
0 c-3 -8 -6 -5 -6 6 -1 11 2 17 5 13 3 -3 4 -12 1 -19z m-1352 -17 c-6 -5 -25
10 -25 20 0 5 6 4 14 -3 8 -7 12 -15 11 -17z m-1143 -8 c-3 -16 -7 -22 -10
-15 -4 13 4 42 11 42 2 0 2 -12 -1 -27z m995 -5 c-3 -8 -6 -5 -6 6 -1 11 2 17
5 13 3 -3 4 -12 1 -19z m480 -15 c-3 -10 -5 -4 -5 12 0 17 2 24 5 18 2 -7 2
-21 0 -30z m300 15 c-3 -8 -6 -5 -6 6 -1 11 2 17 5 13 3 -3 4 -12 1 -19z
m1120 0 c-3 -8 -6 -5 -6 6 -1 11 2 17 5 13 3 -3 4 -12 1 -19z m-3290 -25 c-3
-10 -5 -4 -5 12 0 17 2 24 5 18 2 -7 2 -21 0 -30z m-150 5 c-3 -8 -6 -5 -6 6
-1 11 2 17 5 13 3 -3 4 -12 1 -19z m720 0 c-3 -8 -6 -5 -6 6 -1 11 2 17 5 13
3 -3 4 -12 1 -19z m-350 -20 c-3 -7 -5 -2 -5 12 0 14 2 19 5 13 2 -7 2 -19 0
-25z m788 22 c-4 -6 -55 -9 -128 -8 l-122 2 125 6 c69 3 126 7 128 8 2 1 0 -2
-3 -8z m2725 -2 c0 -10 -239 -9 -262 0 -10 4 45 7 122 7 77 0 140 -3 140 -7z
m3969 -43 l0 -20 -9 20 c-5 11 -9 27 -9 35 -1 13 0 13 9 0 5 -8 9 -24 9 -35z
m-5656 -40 c12 -8 17 -15 11 -15 -23 0 -60 61 -46 75 4 4 8 -5 10 -19 2 -14
13 -33 25 -41z m1392 55 c3 -5 1 -10 -4 -10 -6 0 -11 5 -11 10 0 6 2 10 4 10
3 0 8 -4 11 -10z m-2313 -117 c2 -33 0 -59 -4 -56 -5 2 -7 41 -7 86 2 86 6 74
11 -30z m761 81 c-7 -19 -10 -18 -16 5 -3 13 -1 18 9 14 7 -2 10 -11 7 -19z
m419 -13 c-9 -22 -19 -38 -20 -36 -7 6 19 75 28 75 5 0 1 -18 -8 -39z m3288
32 c0 -5 -4 -15 -10 -23 -6 -9 -5 -17 3 -22 8 -5 4 -8 -10 -8 -27 0 -29 12 -7
31 14 12 14 14 -3 20 -16 7 -15 8 5 8 12 1 22 -2 22 -6z m50 0 c0 -5 -4 -15
-10 -23 -6 -9 -5 -17 3 -22 8 -5 4 -8 -10 -8 -27 0 -29 12 -7 31 14 12 14 14
-3 20 -16 7 -15 8 5 8 12 1 22 -2 22 -6z m60 -3 c-13 -8 -12 -10 3 -10 19 0
23 -25 6 -36 -6 -3 -16 -1 -22 5 -9 9 -8 11 6 6 10 -4 17 -2 17 4 0 6 -7 11
-15 11 -8 0 -15 7 -15 15 0 8 8 15 18 15 14 0 15 -2 2 -10z m62 3 c-10 -4 -10
-8 2 -17 10 -7 13 -16 7 -25 -13 -21 -41 -5 -41 24 0 20 5 25 23 24 12 0 16
-3 9 -6z m87 -17 c-9 -19 -14 -22 -24 -13 -7 7 -11 16 -8 21 3 4 9 2 14 -5 7
-11 9 -10 9 4 0 9 4 17 10 17 6 0 5 -9 -1 -24z m1401 -6 c0 -16 -4 -30 -10
-30 -5 0 -10 14 -10 30 0 17 5 30 10 30 6 0 10 -13 10 -30z m220 5 c0 -22 -4
-25 -40 -25 -32 0 -40 4 -40 18 0 26 9 32 47 32 29 0 33 -3 33 -25z m-6055
-15 c8 -16 15 -32 15 -37 0 -10 -25 27 -33 50 -10 27 1 20 18 -13z m748 10
c-3 -10 -12 -25 -21 -32 -13 -11 -14 -11 -9 2 4 8 10 23 13 33 9 24 23 22 17
-3z m1144 -2 c-3 -8 -6 -5 -6 6 -1 11 2 17 5 13 3 -3 4 -12 1 -19z m3913 -1
c0 -16 -6 -23 -20 -23 -25 0 -27 33 -2 39 9 3 18 5 20 6 1 0 2 -9 2 -22z m63
3 c3 -11 1 -20 -4 -20 -5 0 -9 9 -9 20 0 11 2 20 4 20 2 0 6 -9 9 -20z m34
-12 c-3 -7 -5 -2 -5 12 0 14 2 19 5 13 2 -7 2 -19 0 -25z m33 12 c0 -11 -4
-20 -10 -20 -5 0 -10 9 -10 20 0 11 5 20 10 20 6 0 10 -9 10 -20z m-6773 -12
c-3 -8 -6 -5 -6 6 -1 11 2 17 5 13 3 -3 4 -12 1 -19z m183 -8 c7 0 11 -3 7 -6
-10 -10 -45 6 -52 23 -5 15 -4 15 13 0 10 -9 25 -17 32 -17z m841 3 c15 -6 35
-10 45 -9 11 2 13 1 7 -1 -7 -3 -13 -9 -13 -14 0 -5 -10 -4 -22 2 -13 7 -29
15 -37 19 -8 3 -17 13 -19 21 -2 8 0 10 5 4 4 -6 20 -16 34 -22z m-1377 2 c-4
-8 -8 -15 -10 -15 -2 0 -4 7 -4 15 0 8 4 15 10 15 5 0 7 -7 4 -15z m746 0 c-7
-9 -15 -13 -19 -10 -3 3 1 10 9 15 21 14 24 12 10 -5z m6196 -12 c-10 -10 -19
5 -10 18 6 11 8 11 12 0 2 -7 1 -15 -2 -18z m-5399 -30 c-3 -10 -5 -2 -5 17 0
19 2 27 5 18 2 -10 2 -26 0 -35z m1888 27 c3 -5 -1 -10 -10 -10 -9 0 -13 5
-10 10 3 6 8 10 10 10 2 0 7 -4 10 -10z m53 -15 c-3 -3 -9 2 -12 12 -6 14 -5
15 5 6 7 -7 10 -15 7 -18z m-3942 -22 c-11 -11 -17 4 -9 23 7 18 8 18 11 1 2
-10 1 -21 -2 -24z m1081 31 c-3 -3 -12 -4 -19 -1 -8 3 -5 6 6 6 11 1 17 -2 13
-5z m2693 2 c0 -2 -11 -6 -25 -8 -13 -3 -22 -1 -19 3 5 9 44 13 44 5z m40 0
c0 -2 -7 -7 -16 -10 -8 -3 -12 -2 -9 4 6 10 25 14 25 6z m-2683 -12 c-3 -3
-12 -4 -19 -1 -8 3 -5 6 6 6 11 1 17 -2 13 -5z m1123 -4 c0 -5 -5 -10 -11 -10
-5 0 -7 5 -4 10 3 6 8 10 11 10 2 0 4 -4 4 -10z m-1390 -4 c0 -2 -7 -7 -16
-10 -8 -3 -12 -2 -9 4 6 10 25 14 25 6z m1376 -74 c-6 -5 -79 42 -95 61 -7 9
12 0 43 -20 30 -20 54 -39 52 -41z m1349 68 c-3 -5 9 -19 27 -30 18 -11 26
-20 17 -20 -19 0 -62 44 -52 53 10 10 15 8 8 -3z m-1863 -40 c6 0 8 -3 5 -6
-8 -8 -57 23 -57 36 0 6 9 1 20 -10 11 -11 25 -20 32 -20z m2213 31 c3 -5 1
-12 -5 -16 -5 -3 -10 1 -10 9 0 18 6 21 15 7z m-3035 -21 c-13 -8 -13 -10 -1
-10 8 0 12 -2 9 -5 -3 -3 -13 -3 -22 1 -15 6 -15 7 1 19 10 8 20 11 23 9 2 -3
-2 -9 -10 -14z m1575 0 c-10 -11 -25 -20 -33 -20 -9 0 -6 7 9 20 31 25 47 26
24 0z m-1909 -35 c-3 -8 -13 -15 -21 -15 -9 0 -13 5 -10 10 4 6 11 8 16 5 5
-4 9 4 10 17 0 13 3 17 6 10 3 -7 2 -19 -1 -27z m618 10 c-25 -19 -40 -19 -24
0 7 8 20 15 28 15 13 0 12 -3 -4 -15z m776 -5 c0 -5 -8 -10 -17 -10 -15 0 -16
2 -3 10 19 12 20 12 20 0z m1715 0 c3 -5 2 -10 -4 -10 -5 0 -13 5 -16 10 -3 6
-2 10 4 10 5 0 13 -4 16 -10z m-3639 -18 c-10 -2 -22 0 -28 6 -6 6 0 7 19 4
21 -5 23 -7 9 -10z m364 4 c-7 -7 -13 -7 -20 0 -6 6 -3 10 10 10 13 0 16 -4
10 -10z m2326 -4 c-27 -2 -52 0 -57 5 -4 4 18 6 49 3 l57 -5 -49 -3z m84 8 c0
-5 -5 -10 -11 -10 -5 0 -7 5 -4 10 3 6 8 10 11 10 2 0 4 -4 4 -10z m269 -6 c2
-2 -21 -4 -52 -4 -31 0 -58 4 -61 8 -5 8 105 4 113 -4z m41 12 c0 -3 -4 -8
-10 -11 -5 -3 -10 -1 -10 4 0 6 5 11 10 11 6 0 10 -2 10 -4z m290 -6 c0 -5
-17 -9 -37 -9 l-38 2 35 7 c19 4 36 8 38 9 1 0 2 -3 2 -9z m-3232 -7 c-10 -2
-26 -2 -35 0 -10 3 -2 5 17 5 19 0 27 -2 18 -5z m1305 0 c-7 -2 -19 -2 -25 0
-7 3 -2 5 12 5 14 0 19 -2 13 -5z m904 1 c-3 -3 -12 -4 -19 -1 -8 3 -5 6 6 6
11 1 17 -2 13 -5z m4251 -62 c3 -17 -2 -22 -17 -22 -16 0 -21 6 -21 26 0 33
33 30 38 -4z m59 -9 c-3 -10 -5 -4 -5 12 0 17 2 24 5 18 2 -7 2 -21 0 -30z
m-19 5 c2 -8 -4 -15 -13 -15 -8 0 -15 4 -15 9 0 4 6 8 13 8 8 0 7 4 -3 11 -13
9 -13 10 0 6 8 -2 16 -10 18 -19z m75 4 c4 8 6 7 6 -4 1 -13 -7 -18 -24 -18
-14 0 -25 5 -25 10 0 6 5 10 11 10 5 0 7 6 4 13 -4 6 0 4 8 -6 11 -14 16 -15
20 -5z m29 -14 c-9 -9 -12 -7 -12 12 0 19 3 21 12 12 9 -9 9 -15 0 -24z m34
12 c0 -11 -4 -20 -8 -20 -4 0 -8 9 -8 20 0 11 4 20 8 20 4 0 8 -9 8 -20z m72
8 c-10 -6 -10 -8 0 -8 6 0 12 -5 12 -11 0 -5 -10 -3 -22 5 -29 21 -39 20 -31
-1 5 -14 3 -15 -7 -6 -18 17 -5 30 30 30 20 0 26 -3 18 -9z m-258 -94 c0 -8
-4 -12 -10 -9 -5 3 -10 10 -10 16 0 5 5 9 10 9 6 0 10 -7 10 -16z m210 -6 c0
-6 -6 -5 -15 2 -8 7 -15 14 -15 16 0 2 7 1 15 -2 8 -4 15 -11 15 -16z m4405
-144 c22 -4 46 -6 53 -5 6 1 12 -2 12 -7 0 -4 15 -15 33 -24 43 -20 147 -116
147 -135 0 -8 5 -11 12 -7 7 4 8 3 4 -4 -4 -7 -2 -20 3 -29 6 -10 11 -13 12
-8 4 36 28 -125 28 -192 1 -73 -2 -88 -31 -144 -18 -35 -55 -86 -83 -114 -27
-27 -48 -54 -47 -58 1 -5 -2 -6 -7 -2 -6 3 -27 -4 -48 -15 -21 -11 -53 -23
-71 -26 -19 -4 -29 -9 -24 -13 6 -3 -726 -5 -1625 -3 -1018 1 -1632 -1 -1628
-7 3 -5 1 -12 -5 -16 -5 -3 -10 0 -10 8 0 8 -7 17 -15 21 -13 5 -15 58 -15
394 0 214 2 391 4 393 7 7 3259 0 3301 -7z m-5405 -10 c0 -11 -42 -44 -57 -44
-20 0 -16 16 10 33 23 16 47 22 47 11z m56 -19 c-3 -9 2 -20 13 -27 26 -16 16
-36 -15 -30 -20 4 -24 9 -20 26 3 11 6 27 6 34 0 6 5 12 11 12 6 0 9 -7 5 -15z
m-96 -65 c0 -11 5 -20 10 -20 6 0 10 -4 10 -8 0 -13 -73 -8 -77 6 -3 6 2 12
11 12 9 0 16 7 16 15 0 8 7 15 15 15 8 0 15 -9 15 -20z m26 -75 c4 -8 15 -15
25 -15 10 0 19 -7 19 -15 0 -8 -9 -15 -20 -15 -11 0 -23 7 -26 15 -4 8 -12 15
-20 15 -15 0 -19 12 -7 23 11 11 23 8 29 -8z m-3906 -185 c0 -38 1 -40 21 -30
28 15 75 -4 83 -33 11 -40 6 -92 -10 -115 -17 -25 -71 -31 -92 -10 -9 9 -12 9
-12 0 0 -7 -9 -12 -20 -12 -19 0 -20 7 -20 120 l0 120 25 0 c23 0 25 -4 25
-40z m830 -80 c0 -109 -2 -120 -18 -120 -10 0 -23 5 -29 11 -8 8 -13 8 -17 0
-11 -17 -61 -13 -78 7 -36 41 -26 131 17 150 17 8 33 8 50 2 24 -9 25 -8 25
30 0 36 3 40 25 40 l25 0 0 -120z m88 98 c3 -13 -3 -18 -22 -18 -20 0 -26 5
-26 21 0 15 5 20 22 17 13 -2 24 -11 26 -20z m-2891 -75 l27 -88 26 85 c23 77
28 85 52 88 l27 3 -38 -113 c-36 -108 -39 -113 -67 -116 -29 -3 -30 -1 -63
100 -19 57 -36 109 -38 116 -3 7 4 12 21 12 23 0 28 -7 53 -87z m257 25 c25
-11 52 -71 40 -90 -3 -4 -27 -8 -55 -8 -27 0 -49 -4 -49 -10 0 -17 38 -30 70
-23 28 5 32 3 28 -13 -2 -15 -13 -20 -50 -22 -60 -4 -85 10 -97 53 -23 85 39
148 113 113z m108 -2 c12 -11 17 -11 33 0 28 21 45 17 45 -11 0 -17 -5 -25
-18 -25 -30 0 -42 -22 -42 -77 0 -50 -1 -53 -25 -53 -25 0 -25 1 -25 90 0 89
6 103 32 76z m161 -51 l20 -58 19 61 c14 48 23 62 38 62 10 0 21 -4 24 -8 7
-11 -69 -211 -86 -229 -7 -7 -28 -15 -46 -19 -28 -6 -32 -4 -32 15 0 11 6 21
13 21 8 0 21 8 31 19 16 17 15 23 -17 102 -19 46 -33 87 -31 90 2 3 13 5 26 4
17 -1 26 -13 41 -60z m340 34 c9 -12 17 -34 17 -50 0 -28 -1 -29 -55 -29 -30
0 -55 -4 -55 -10 0 -17 38 -30 70 -23 28 5 32 3 28 -13 -2 -15 -13 -20 -51
-22 -39 -3 -51 1 -72 22 -28 28 -34 89 -12 117 34 43 97 47 130 8z m184 4 c8
-9 13 -46 13 -85 0 -61 -2 -68 -20 -68 -11 0 -20 5 -20 12 0 9 -3 9 -12 0 -7
-7 -29 -12 -50 -12 -32 0 -40 4 -48 25 -17 44 2 73 55 81 53 7 56 29 4 28 -48
0 -69 30 -26 39 38 8 91 -2 104 -20z m170 13 c3 -3 3 -12 0 -20 -5 -11 -15
-14 -37 -10 -39 8 -40 -10 0 -31 43 -22 55 -50 35 -81 -14 -22 -22 -25 -68
-22 -42 2 -53 7 -55 22 -4 17 0 18 36 12 54 -8 62 9 17 35 -59 35 -68 80 -21
100 20 8 83 5 93 -5z m91 -55 l19 -56 19 60 c16 49 23 60 42 61 12 1 22 -4 22
-10 0 -32 -74 -204 -96 -223 -30 -27 -59 -30 -68 -7 -4 9 -5 18 -4 18 2 1 15
7 31 14 34 15 34 24 -3 117 -16 42 -30 79 -30 84 0 4 11 6 25 4 19 -4 28 -17
43 -62z m344 39 c27 -27 30 -36 25 -73 -7 -52 -36 -77 -87 -77 -45 0 -80 35
-80 81 0 89 82 129 142 69z m104 18 c3 -4 17 -3 31 3 61 23 93 -17 93 -117 0
-51 -1 -54 -25 -54 -24 0 -25 3 -25 59 0 61 -14 86 -43 75 -18 -7 -27 -35 -27
-91 0 -39 -2 -43 -25 -43 -25 0 -25 1 -25 83 0 46 3 86 6 89 7 7 31 4 40 -4z
m487 -8 c34 -27 44 -78 23 -118 -17 -34 -33 -42 -81 -42 -81 0 -106 133 -31
166 43 18 59 17 89 -6z m204 -7 c8 -9 13 -46 13 -85 0 -61 -2 -68 -20 -68 -11
0 -20 5 -20 12 0 9 -3 9 -12 0 -14 -14 -67 -16 -87 -3 -8 5 -14 24 -14 41 0
36 13 47 66 56 47 8 43 29 -6 28 -22 -1 -38 4 -41 13 -13 34 97 40 121 6z m89
12 c5 -13 8 -13 27 0 31 22 47 18 47 -10 0 -17 -5 -25 -18 -25 -30 0 -42 -22
-42 -77 0 -50 -1 -53 -25 -53 -25 0 -25 1 -25 83 0 46 3 87 7 90 11 11 23 8
29 -8z m352 -78 l3 -87 -26 0 c-25 0 -25 0 -25 88 0 86 1 89 23 87 21 -2 22
-6 25 -88z m78 83 c7 -7 20 -7 40 0 67 24 94 -11 94 -121 0 -46 -2 -49 -25
-49 -24 0 -25 3 -25 59 0 61 -14 86 -43 75 -18 -7 -27 -35 -27 -91 0 -39 -2
-43 -25 -43 -25 0 -25 1 -25 83 0 94 8 115 36 87z m332 -5 c4 -3 0 -10 -7 -15
-8 -4 -15 -21 -17 -36 -4 -33 -28 -54 -60 -54 -13 0 -26 -4 -29 -10 -4 -6 6
-10 24 -10 53 0 81 -16 81 -48 0 -37 -25 -60 -75 -67 -70 -10 -117 34 -81 74
9 10 14 25 11 34 -4 8 -2 18 4 22 8 4 6 13 -4 28 -21 30 -19 44 10 73 23 22
31 25 81 20 31 -2 59 -7 62 -11z m4136 -261 c3 -8 2 -12 -4 -9 -6 3 -10 10
-10 16 0 14 7 11 14 -7z m4079 -37 c3 -7 -3 -13 -14 -13 -13 0 -15 3 -7 13 6
7 12 13 13 13 2 0 5 -6 8 -13z m-73 -91 c0 -2 -7 -7 -16 -10 -8 -3 -12 -2 -9
4 6 10 25 14 25 6z m-73 -22 c-3 -3 -12 -4 -19 -1 -8 3 -5 6 6 6 11 1 17 -2
13 -5z m-11017 -131 c0 -37 3 -44 12 -35 17 17 73 15 88 -3 7 -8 15 -47 18
-85 4 -60 2 -70 -12 -70 -13 0 -16 11 -16 63 0 68 -10 87 -47 87 -30 0 -43
-28 -43 -94 0 -43 -3 -56 -15 -56 -12 0 -15 20 -15 120 0 100 3 120 15 120 11
0 15 -12 15 -47z m472 0 c-3 -39 -2 -46 9 -35 14 13 67 16 85 4 37 -24 44 -96
13 -136 -22 -28 -75 -36 -97 -14 -9 9 -12 9 -12 0 0 -7 -4 -12 -10 -12 -6 0
-10 47 -10 120 0 90 3 120 13 120 8 0 11 -14 9 -47z m-545 20 c3 -9 -10 -12
-41 -11 -54 1 -72 -12 -85 -57 -20 -74 23 -131 92 -122 27 4 37 2 37 -9 0 -23
-101 -19 -128 6 -57 54 -44 173 23 201 28 12 98 6 102 -8z m443 -23 c0 -15 7
-20 25 -20 14 0 25 -4 25 -10 0 -5 -11 -10 -25 -10 -25 0 -26 -1 -23 -62 3
-57 5 -63 26 -66 32 -5 27 -22 -6 -22 -42 0 -52 17 -52 87 0 52 -3 63 -17 63
-14 0 -13 3 5 20 12 12 22 25 22 30 0 6 5 10 10 10 6 0 10 -9 10 -20z m490 0
c0 -15 7 -20 25 -20 14 0 25 -4 25 -10 0 -5 -11 -10 -25 -10 -25 0 -26 -1 -23
-62 3 -57 5 -63 26 -66 32 -5 27 -22 -6 -22 -42 0 -52 17 -52 87 0 52 -3 63
-17 63 -14 0 -13 3 5 20 12 12 22 25 22 30 0 6 5 10 10 10 6 0 10 -9 10 -20z
m-590 -30 c18 -11 29 -160 12 -160 -6 0 -14 5 -18 11 -4 8 -9 8 -17 0 -15 -15
-70 -14 -85 1 -35 35 5 88 66 88 29 0 33 3 30 23 -3 19 -8 22 -45 20 -40 -2
-52 5 -36 20 10 10 76 8 93 -3z m499 -16 c46 -59 11 -144 -58 -144 -51 0 -76
28 -76 85 0 57 25 85 76 85 29 0 42 -6 58 -26z m6905 -9 c-6 -14 175 -15 1645
-13 909 2 1642 1 1630 -2 -17 -4 -11 -8 25 -17 104 -28 191 -106 247 -220 30
-61 31 -68 27 -172 -1 -60 -6 -107 -10 -105 -4 3 -8 -13 -10 -33 -2 -24 -8
-37 -15 -36 -7 2 -15 -8 -19 -22 -8 -31 -106 -123 -156 -145 -21 -9 -35 -20
-30 -25 4 -4 0 -6 -8 -3 -8 3 -26 1 -39 -4 -14 -5 -731 -9 -1670 -8 l-1646 0
2 213 c4 367 13 607 23 607 5 0 7 -7 4 -15z m-8014 -50 c0 -11 -11 -15 -40
-15 -29 0 -40 4 -40 15 0 11 11 15 40 15 29 0 40 -4 40 -15z m11500 -66 c0 -4
-7 -6 -15 -3 -8 4 -15 10 -15 15 0 4 7 6 15 3 8 -4 15 -10 15 -15z m-10605
-228 c-6 -5 -19 -11 -30 -13 -29 -5 -34 -48 -6 -48 12 0 21 -4 21 -10 0 -5 -9
-10 -20 -10 -18 0 -20 -7 -20 -75 0 -60 -3 -75 -15 -75 -12 0 -15 15 -15 75 0
60 -3 75 -15 75 -8 0 -15 5 -15 10 0 6 7 10 15 10 8 0 15 7 15 16 0 35 20 54
57 54 23 0 33 -4 28 -9z m1060 0 c-6 -5 -19 -11 -30 -13 -29 -5 -34 -48 -6
-48 12 0 21 -4 21 -10 0 -5 -9 -10 -20 -10 -18 0 -20 -7 -20 -75 0 -60 -3 -75
-15 -75 -12 0 -15 15 -15 75 0 60 -3 75 -15 75 -8 0 -15 5 -15 10 0 6 7 10 15
10 8 0 15 7 15 16 0 35 20 54 57 54 23 0 33 -4 28 -9z m-1687 -19 c3 -10 -4
-13 -24 -11 -79 6 -109 -21 -107 -95 3 -57 41 -91 95 -82 30 5 38 3 38 -9 0
-24 -100 -21 -128 5 -48 45 -46 145 4 188 21 18 36 22 72 20 27 -2 47 -8 50
-16z m482 3 c0 -8 -7 -15 -15 -15 -8 0 -15 7 -15 15 0 8 7 15 15 15 8 0 15 -7
15 -15z m182 0 c0 -5 -5 -11 -11 -13 -6 -2 -11 4 -11 13 0 9 5 15 11 13 6 -2
11 -8 11 -13z m1138 0 c0 -8 -4 -15 -10 -15 -5 0 -10 7 -10 15 0 8 5 15 10 15
6 0 10 -7 10 -15z m1530 0 c0 -8 -7 -15 -15 -15 -8 0 -15 7 -15 15 0 8 7 15
15 15 8 0 15 -7 15 -15z m-2960 -25 c0 -15 7 -20 25 -20 14 0 25 -4 25 -10 0
-5 -11 -10 -25 -10 -23 0 -25 -3 -25 -49 0 -62 7 -81 31 -81 10 0 19 -4 19
-10 0 -5 -13 -10 -30 -10 -38 0 -50 23 -50 94 0 60 -8 69 -53 53 -33 -11 -47
-41 -47 -103 0 -24 -4 -44 -10 -44 -6 0 -10 35 -10 85 0 50 4 85 10 85 6 0 10
-7 10 -17 0 -15 1 -15 18 0 10 10 33 17 51 17 24 0 34 5 38 20 3 11 9 20 14
20 5 0 9 -9 9 -20z m700 0 c0 -15 7 -20 26 -20 14 0 23 -4 19 -10 -3 -5 -15
-10 -26 -10 -18 0 -20 -6 -17 -62 3 -57 5 -63 26 -66 32 -5 27 -22 -6 -22 -42
0 -52 17 -52 87 0 52 -3 63 -17 63 -14 0 -13 3 5 20 12 12 22 25 22 30 0 6 5
10 10 10 6 0 10 -9 10 -20z m2150 0 c0 -15 7 -20 25 -20 14 0 25 -4 25 -10 0
-5 -11 -10 -25 -10 -23 0 -25 -3 -25 -49 0 -62 7 -81 31 -81 10 0 19 -4 19
-10 0 -5 -14 -10 -30 -10 -37 0 -50 27 -50 100 0 29 -5 50 -12 54 -9 3 -8 8 5
16 9 6 17 18 17 25 0 8 5 15 10 15 6 0 10 -9 10 -20z m2080 11 c0 -5 -7 -12
-16 -15 -14 -5 -15 -4 -4 9 14 17 20 19 20 6z m-5154 -39 c15 -10 34 -47 34
-66 0 -13 -12 -16 -60 -16 -33 0 -60 -3 -60 -8 0 -4 7 -18 16 -31 14 -20 23
-22 55 -18 29 4 39 2 39 -9 0 -22 -82 -18 -111 5 -31 25 -34 98 -5 130 19 21
70 28 92 13z m334 -77 c0 -69 -3 -85 -15 -85 -12 0 -15 16 -15 85 0 69 3 85
15 85 12 0 15 -16 15 -85z m180 0 c0 -50 -4 -85 -10 -85 -6 0 -10 35 -10 85 0
50 4 85 10 85 6 0 10 -35 10 -85z m160 72 c0 -9 -9 -12 -29 -9 -40 6 -66 -33
-57 -83 7 -36 38 -54 71 -41 9 3 15 0 15 -9 0 -11 -11 -15 -38 -15 -52 0 -77
28 -77 85 0 57 25 85 77 85 25 0 38 -5 38 -13z m160 -13 c13 -32 13 -144 1
-144 -6 0 -13 5 -17 11 -4 8 -9 8 -17 0 -15 -15 -70 -14 -85 1 -35 35 5 88 66
88 29 0 33 3 30 23 -3 19 -8 22 -45 20 -40 -2 -52 5 -36 20 3 4 26 7 50 7 37
0 45 -4 53 -26z m284 4 c9 -12 16 -33 16 -45 0 -21 -4 -23 -55 -23 -59 0 -70
-13 -38 -45 12 -13 26 -15 56 -11 29 5 38 3 35 -6 -3 -7 -24 -14 -50 -16 -37
-2 -50 1 -67 19 -28 31 -29 101 -1 129 28 28 84 27 104 -2z m265 -4 c46 -59
11 -144 -58 -144 -51 0 -76 28 -76 85 0 57 25 85 76 85 29 0 42 -6 58 -26z
m272 13 c-1 -4 -1 -41 -1 -82 0 -43 -4 -75 -10 -75 -6 0 -10 35 -10 86 0 57 4
84 11 82 6 -2 10 -7 10 -11z m79 2 c0 -8 4 -8 14 0 25 21 79 9 93 -19 19 -37
17 -140 -2 -140 -12 0 -15 14 -15 63 0 68 -10 87 -47 87 -30 0 -43 -28 -43
-94 0 -43 -3 -56 -15 -56 -12 0 -15 16 -15 85 0 69 3 85 15 85 8 0 15 -5 15
-11z m280 1 c0 -5 -15 -10 -33 -10 -44 0 -57 -15 -57 -66 0 -50 18 -69 60 -60
22 4 30 2 30 -9 0 -11 -11 -15 -40 -15 -55 0 -80 26 -80 85 0 59 25 85 80 85
22 0 40 -4 40 -10z m159 -16 c46 -59 11 -144 -58 -144 -52 0 -76 28 -75 86 1
58 25 84 75 84 29 0 42 -6 58 -26z m91 14 c0 -9 3 -9 12 0 15 15 58 16 58 2 0
-5 -9 -10 -19 -10 -36 0 -51 -27 -51 -91 0 -46 -3 -59 -15 -59 -12 0 -15 16
-15 85 0 69 3 85 15 85 8 0 15 -5 15 -12z m126 1 c4 -8 9 -8 17 0 6 6 26 11
43 11 42 0 64 -30 64 -85 0 -55 -22 -85 -64 -85 -17 0 -37 5 -44 12 -9 9 -12
0 -12 -40 0 -40 -4 -52 -15 -52 -13 0 -15 21 -15 125 0 115 7 145 26 114z
m293 -15 c46 -59 11 -144 -58 -144 -51 0 -76 28 -76 85 0 57 25 85 76 85 29 0
42 -6 58 -26z m91 14 c0 -9 3 -9 12 0 15 15 58 16 58 2 0 -5 -8 -10 -17 -10
-35 0 -53 -30 -53 -92 0 -45 -3 -58 -15 -58 -12 0 -15 16 -15 85 0 69 3 85 15
85 8 0 15 -5 15 -12z m208 0 c15 -15 17 -158 2 -158 -5 0 -10 5 -10 12 0 9 -3
9 -12 0 -7 -7 -29 -12 -50 -12 -31 0 -40 5 -47 23 -16 43 12 77 64 77 40 0 47
7 34 32 -9 16 -18 19 -45 15 -32 -5 -43 1 -27 16 11 12 78 8 91 -5z m202 -73
c0 -69 -3 -85 -15 -85 -12 0 -15 16 -15 85 0 69 3 85 15 85 12 0 15 -16 15
-85z m179 59 c46 -59 11 -144 -58 -144 -68 0 -101 74 -62 138 18 27 26 32 60
32 31 0 44 -6 60 -26z m81 14 c0 -9 3 -9 12 0 7 7 29 12 50 12 48 0 58 -18 58
-104 0 -51 -3 -66 -15 -66 -11 0 -15 17 -17 73 -3 69 -4 72 -28 75 -41 4 -52
-11 -57 -82 -8 -94 -23 -82 -23 19 0 50 4 85 10 85 6 0 10 -5 10 -12z m1670 6
c0 -8 -32 -33 -42 -34 -4 0 0 9 9 20 17 20 33 26 33 14z m390 -18 c0 -2 3 -13
7 -23 6 -16 5 -16 -10 -4 -15 12 -17 11 -17 -7 0 -16 4 -20 18 -15 15 6 15 5
3 -10 -28 -34 -78 -7 -67 36 5 22 12 27 36 27 17 0 30 -2 30 -4z m125 -36 c0
-18 -6 -26 -22 -28 -20 -3 -23 1 -23 28 0 27 3 31 23 28 16 -2 22 -10 22 -28z
m41 23 c-14 -4 -16 -7 -6 -13 11 -7 10 -12 -3 -25 -16 -15 -17 -14 -17 14 0
26 4 31 23 30 19 -1 19 -2 3 -6z m44 -23 c0 -16 -4 -30 -10 -30 -5 0 -10 14
-10 30 0 17 5 30 10 30 6 0 10 -13 10 -30z m297 8 c-3 -8 -6 -5 -6 6 -1 11 2
17 5 13 3 -3 4 -12 1 -19z m-60 -20 c-3 -7 -5 -2 -5 12 0 14 2 19 5 13 2 -7 2
-19 0 -25z m170 0 c-3 -7 -5 -2 -5 12 0 14 2 19 5 13 2 -7 2 -19 0 -25z m59 0
c-9 -12 -16 -19 -16 -15 0 11 24 47 28 42 2 -2 -3 -14 -12 -27z m51 0 c-3 -7
-5 -2 -5 12 0 14 2 19 5 13 2 -7 2 -19 0 -25z m160 0 c-3 -7 -5 -2 -5 12 0 14
2 19 5 13 2 -7 2 -19 0 -25z m20 0 c-3 -7 -5 -2 -5 12 0 14 2 19 5 13 2 -7 2
-19 0 -25z m-1367 -3 c0 -8 -4 -15 -10 -15 -5 0 -7 7 -4 15 4 8 8 15 10 15 2
0 4 -7 4 -15z m-5460 -11 c0 -11 -9 -14 -37 -12 -52 4 -56 28 -4 28 30 0 41
-4 41 -16z m5430 -7 c0 -2 -10 -12 -22 -23 l-23 -19 19 23 c18 21 26 27 26 19z
m-196 -161 c-10 -8 -21 -12 -23 -10 -3 2 4 11 15 18 10 8 21 12 23 10 3 -2 -4
-11 -15 -18z m21 -16 c-3 -5 -11 -10 -16 -10 -6 0 -7 5 -4 10 3 6 11 10 16 10
6 0 7 -4 4 -10z m-70 -20 c-10 -11 -23 -20 -29 -20 -6 0 0 9 14 20 32 25 38
25 15 0z m80 0 c-3 -5 -12 -10 -18 -10 -7 0 -6 4 3 10 19 12 23 12 15 0z
m-115 -34 c0 -3 -4 -8 -10 -11 -5 -3 -10 -1 -10 4 0 6 5 11 10 11 6 0 10 -2
10 -4z m-104 -81 c-35 -30 -67 -60 -69 -67 -4 -9 -5 -8 -6 2 0 14 115 118 132
119 5 1 -21 -24 -57 -54z m-4271 26 c-6 -5 -19 -11 -30 -13 -29 -5 -34 -48 -6
-48 12 0 21 -4 21 -10 0 -5 -9 -10 -20 -10 -18 0 -20 -7 -20 -75 0 -60 -3 -75
-15 -75 -12 0 -15 15 -15 75 0 60 -3 75 -15 75 -8 0 -15 5 -15 10 0 6 7 10 15
10 8 0 15 7 15 16 0 35 20 54 57 54 23 0 33 -4 28 -9z m-630 -94 c16 -48 32
-87 35 -87 3 0 18 41 35 90 17 51 35 90 42 90 18 0 18 -2 -24 -122 -26 -73
-43 -108 -53 -108 -10 0 -27 35 -53 108 -41 118 -43 125 -24 120 6 -2 25 -43
42 -91z m485 78 c0 -8 -7 -15 -15 -15 -8 0 -15 7 -15 15 0 8 7 15 15 15 8 0
15 -7 15 -15z m180 0 c0 -8 -4 -15 -9 -15 -13 0 -22 16 -14 24 11 11 23 6 23
-9z m512 0 c0 -5 -5 -11 -11 -13 -6 -2 -11 4 -11 13 0 9 5 15 11 13 6 -2 11
-8 11 -13z m-102 -25 c0 -15 7 -20 25 -20 14 0 25 -4 25 -10 0 -5 -11 -10 -25
-10 -25 0 -26 -1 -23 -62 3 -57 5 -63 26 -66 32 -5 27 -22 -6 -22 -42 0 -52
17 -52 87 0 52 -3 63 -17 63 -14 0 -13 3 5 20 12 12 22 25 22 30 0 6 5 10 10
10 6 0 10 -9 10 -20z m3860 -4 c0 -11 -19 -15 -25 -6 -3 5 1 10 9 10 9 0 16
-2 16 -4z m-4674 -24 c15 -10 34 -47 34 -66 0 -13 -12 -16 -60 -16 -33 0 -60
-3 -60 -8 0 -4 7 -18 16 -31 14 -20 23 -22 55 -18 29 4 39 2 39 -9 0 -22 -82
-18 -111 4 -29 24 -32 101 -4 132 18 20 69 27 91 12z m94 -9 c1 -17 1 -17 14
0 7 9 26 17 42 17 30 0 23 -16 -11 -22 -27 -5 -45 -44 -45 -100 0 -27 -4 -48
-10 -48 -6 0 -10 35 -10 85 0 50 4 85 10 85 6 0 10 -8 10 -17z m130 -68 c0
-69 -3 -85 -15 -85 -12 0 -15 16 -15 85 0 69 3 85 15 85 12 0 15 -16 15 -85z
m180 0 c0 -50 -4 -85 -10 -85 -6 0 -10 35 -10 85 0 50 4 85 10 85 6 0 10 -35
10 -85z m160 72 c0 -9 -10 -12 -27 -10 -39 5 -54 -8 -60 -53 -6 -48 21 -79 62
-72 17 4 25 1 25 -8 0 -23 -73 -18 -95 6 -25 28 -26 101 -1 129 22 24 96 30
96 8z m150 3 c18 -11 29 -160 12 -160 -6 0 -14 5 -18 11 -4 8 -9 8 -17 0 -15
-15 -70 -14 -85 1 -35 35 5 88 66 88 29 0 33 3 30 23 -3 19 -8 22 -45 20 -40
-2 -52 5 -36 20 10 10 76 8 93 -3z m200 -75 c0 -50 -4 -85 -10 -85 -6 0 -10
35 -10 85 0 50 4 85 10 85 6 0 10 -35 10 -85z m179 59 c46 -59 11 -144 -58
-144 -51 0 -76 28 -76 85 0 57 25 85 76 85 29 0 42 -6 58 -26z m91 15 c0 -8 4
-8 14 0 25 21 79 9 93 -19 19 -37 17 -140 -2 -140 -12 0 -15 14 -15 63 0 68
-10 87 -47 87 -30 0 -43 -28 -43 -94 0 -43 -3 -56 -15 -56 -12 0 -15 16 -15
85 0 69 3 85 15 85 8 0 15 -5 15 -11z m9687 -5 c-3 -3 -12 -4 -19 -1 -8 3 -5
6 6 6 11 1 17 -2 13 -5z m-6257 -34 c0 -5 -4 -10 -10 -10 -5 0 -10 5 -10 10 0
6 5 10 10 10 6 0 10 -4 10 -10z m-80 -3 c0 -2 -12 -14 -27 -28 l-28 -24 24 28
c23 25 31 32 31 24z m-4940 -32 c0 -11 -11 -15 -40 -15 -29 0 -40 4 -40 15 0
11 11 15 40 15 29 0 40 -4 40 -15z m4870 -38 c0 -2 -10 -12 -22 -23 l-23 -19
19 23 c18 21 26 27 26 19z m6405 -67 c3 -6 -1 -7 -9 -4 -18 7 -21 14 -7 14 6
0 13 -4 16 -10z m42 -29 c39 -11 83 -31 98 -43 17 -13 26 -16 21 -8 -4 8 -1 7
8 -4 9 -10 20 -15 27 -10 9 5 10 2 6 -9 -5 -14 13 -41 24 -34 2 1 3 0 2 -2 -1
-2 9 -18 22 -35 13 -17 33 -60 45 -96 20 -58 22 -78 16 -175 -4 -60 -11 -111
-16 -113 -5 -2 -7 -9 -4 -16 3 -8 -2 -16 -11 -20 -10 -3 -15 -13 -12 -21 4 -9
1 -12 -9 -8 -10 4 -12 0 -8 -11 3 -9 1 -16 -5 -16 -6 0 -25 -15 -42 -34 -38
-44 -99 -80 -169 -100 -50 -14 -216 -16 -1690 -14 l-1635 3 -3 385 c-1 212 -1
389 2 395 2 7 552 10 1634 9 1627 -1 1630 -1 1699 -23z m-6607 -64 c0 -2 -15
-16 -32 -33 l-33 -29 29 33 c28 30 36 37 36 29z m1200 -154 c34 -23 40 -33 40
-69 0 -47 -34 -84 -76 -84 -49 0 -71 14 -84 55 -14 42 2 83 40 102 34 17 51
16 80 -4z m217 -30 c-3 -10 -5 -4 -5 12 0 17 2 24 5 18 2 -7 2 -21 0 -30z
m-1583 12 c-4 -8 -11 -15 -16 -15 -6 0 -5 6 2 15 7 8 14 15 16 15 2 0 1 -7 -2
-15z m1531 5 c-3 -5 -2 -10 4 -10 5 0 12 6 14 13 3 7 6 5 6 -5 1 -11 -6 -18
-16 -19 -15 0 -15 -2 2 -9 19 -8 19 -9 -2 -9 -18 -1 -23 5 -23 24 0 14 5 25
11 25 5 0 7 -4 4 -10z m99 -33 c7 -6 6 -7 -4 -4 -8 2 -16 14 -17 28 -1 19 -1
20 4 4 3 -11 10 -24 17 -28z m-134 23 c-13 -9 -13 -11 0 -20 9 -6 10 -10 3
-10 -15 0 -26 17 -18 30 3 6 12 10 18 10 7 0 6 -4 -3 -10z m-1532 -40 c-7 -10
-14 -17 -17 -15 -4 4 18 35 25 35 2 0 -1 -9 -8 -20z m3281 6 c9 -10 7 -17 -6
-27 -15 -12 -16 -12 -11 2 4 9 1 22 -5 28 -8 8 -8 11 0 11 6 0 16 -6 22 -14z
m-522 -18 c-3 -8 -6 -5 -6 6 -1 11 2 17 5 13 3 -3 4 -12 1 -19z m20 -10 c-3
-7 -5 -2 -5 12 0 14 2 19 5 13 2 -7 2 -19 0 -25z m40 0 c-3 -7 -5 -2 -5 12 0
14 2 19 5 13 2 -7 2 -19 0 -25z m70 10 c-3 -8 -6 -5 -6 6 -1 11 2 17 5 13 3
-3 4 -12 1 -19z m90 0 c-3 -8 -6 -5 -6 6 -1 11 2 17 5 13 3 -3 4 -12 1 -19z
m161 -2 c-7 -8 -15 -12 -17 -11 -5 6 10 25 20 25 5 0 4 -6 -3 -14z m-3188 -29
c0 -2 -9 -14 -20 -27 -11 -13 -20 -19 -20 -15 0 5 7 17 17 27 15 17 23 22 23
15z m-65 -83 c-15 -14 -29 -23 -32 -21 -4 5 45 47 55 47 3 0 -7 -11 -23 -26z
m-45 -55 c-7 -11 -14 -18 -17 -15 -3 3 0 12 7 21 18 21 23 19 10 -6z m-40 -39
c-6 -11 -13 -20 -16 -20 -2 0 0 9 6 20 6 11 13 20 16 20 2 0 0 -9 -6 -20z
m-30 -43 c0 -2 -10 -12 -21 -23 -22 -19 -22 -19 -8 4 12 19 29 30 29 19z
m-4236 -32 c-10 -8 -23 -14 -29 -14 -5 0 -1 6 9 14 11 8 24 15 30 15 5 0 1 -7
-10 -15z m2246 5 c13 -8 13 -10 -2 -10 -9 0 -20 5 -23 10 -8 13 5 13 25 0z
m9281 -23 c-10 -9 -11 -8 -5 6 3 10 9 15 12 12 3 -3 0 -11 -7 -18z m-9221 -13
c0 -2 -9 0 -20 6 -11 6 -20 13 -20 16 0 2 9 0 20 -6 11 -6 20 -13 20 -16z
m3579 -10 c44 -56 11 -134 -57 -136 -68 -2 -109 61 -78 120 18 35 28 40 78 41
28 1 41 -5 57 -25z m159 -28 c12 -3 11 -4 -3 -3 -12 1 -20 10 -21 22 -1 14 0
15 3 3 2 -9 12 -19 21 -22z m42 40 c0 -2 -7 -7 -16 -10 -8 -3 -12 -2 -9 4 6
10 25 14 25 6z m65 -21 c0 -11 -8 -21 -17 -23 -14 -3 -18 3 -18 23 0 20 4 26
18 23 9 -2 17 -12 17 -23z m32 -12 c-3 -10 -5 -4 -5 12 0 17 2 24 5 18 2 -7 2
-21 0 -30z m-187 17 c-13 -9 -13 -11 0 -20 13 -8 12 -10 -2 -10 -11 0 -18 8
-18 20 0 12 7 20 18 20 14 0 15 -2 2 -10z m-3670 -10 c0 -5 -2 -10 -4 -10 -3
0 -8 5 -11 10 -3 6 -1 10 4 10 6 0 11 -4 11 -10z m1824 -5 c-4 -8 -11 -15 -16
-15 -6 0 -5 6 2 15 7 8 14 15 16 15 2 0 1 -7 -2 -15z m1956 0 c0 -8 -8 -15
-17 -14 -13 0 -14 2 -4 6 11 5 11 7 0 14 -11 7 -10 9 4 9 9 0 17 -7 17 -15z
m-6200 -10 c-6 -8 -9 -19 -5 -25 3 -5 1 -10 -4 -10 -15 0 -14 23 1 38 17 17
23 15 8 -3z m7839 -42 c-6 -7 -16 -13 -22 -13 -7 0 -7 4 1 12 8 8 8 17 0 32
-11 21 -11 21 11 2 16 -15 18 -22 10 -33z m-412 15 c-3 -8 -6 -5 -6 6 -1 11 2
17 5 13 3 -3 4 -12 1 -19z m20 -10 c-3 -7 -5 -2 -5 12 0 14 2 19 5 13 2 -7 2
-19 0 -25z m40 0 c-3 -7 -5 -2 -5 12 0 14 2 19 5 13 2 -7 2 -19 0 -25z m-3284
7 c-3 -9 -8 -14 -10 -11 -3 3 -2 9 2 15 9 16 15 13 8 -4z m3129 -4 c7 11 9 11
6 1 -5 -17 -23 -17 -24 0 -1 9 1 8 4 -1 3 -12 5 -12 14 0z m45 -3 c-3 -8 -6
-5 -6 6 -1 11 2 17 5 13 3 -3 4 -12 1 -19z m158 -9 c-4 -5 -12 -9 -18 -8 -9 0
-8 2 1 6 6 2 9 10 6 15 -4 7 -2 8 5 4 6 -4 9 -12 6 -17z m75 11 c13 -8 13 -10
-2 -10 -9 0 -20 5 -23 10 -8 13 5 13 25 0z m-7346 -20 c6 0 21 -7 33 -15 18
-12 20 -20 14 -38 -5 -14 -5 -30 0 -40 7 -11 6 -24 -1 -37 -9 -16 -8 -20 6
-20 26 0 14 -6 -26 -14 -26 -4 -31 -3 -20 5 12 8 9 9 -12 5 -50 -11 -58 -1
-58 80 0 67 2 74 20 74 11 0 20 6 21 13 0 10 2 10 6 0 2 -7 10 -13 17 -13z
m646 5 c11 -13 10 -14 -4 -9 -9 3 -16 10 -16 15 0 13 6 11 20 -6z m290 0 c11
3 20 2 20 -3 0 -16 33 -24 42 -10 6 9 7 5 3 -9 -4 -13 -2 -23 4 -23 6 0 7 -8
4 -17 -5 -11 0 -10 16 6 15 15 30 21 43 18 16 -5 19 -2 15 14 -7 25 18 37 44
20 15 -9 19 -8 19 1 0 10 2 10 9 0 7 -11 10 -11 22 0 15 14 61 20 53 6 -7 -10
-1 -10 29 1 22 9 24 7 20 -11 -4 -12 -8 -15 -13 -9 -9 15 -37 4 -37 -14 0 -8
4 -15 9 -15 4 0 8 5 8 12 0 6 9 3 20 -7 16 -15 23 -16 33 -6 9 10 8 11 -8 6
-15 -5 -16 -4 -6 3 18 13 68 -4 68 -23 0 -8 -5 -11 -10 -8 -6 4 -8 -5 -4 -23
3 -16 4 -23 1 -16 -3 6 -10 12 -16 12 -6 0 -3 -9 7 -20 10 -11 21 -17 24 -13
11 15 45 38 38 26 -11 -17 10 -26 30 -13 14 9 15 10 2 7 -13 -4 -15 1 -13 26
5 38 5 38 55 47 42 8 86 -3 101 -25 5 -6 8 -3 8 8 0 19 44 25 55 7 5 -8 11 -7
21 1 8 6 14 8 14 4 0 -4 8 -1 17 6 10 8 14 9 10 2 -4 -6 -4 -14 1 -17 4 -2 9
4 9 15 3 30 23 51 38 39 6 -5 14 -7 17 -4 3 3 5 -2 4 -12 -1 -12 9 -18 39 -21
21 -2 45 -9 52 -14 13 -11 37 -3 28 10 -4 8 19 6 71 -4 20 -4 30 -35 12 -35
-5 0 -4 -9 2 -19 10 -21 4 -51 -14 -63 -16 -11 -74 -10 -81 2 -3 5 -13 6 -21
3 -12 -4 -13 -8 -3 -13 7 -5 -4 -8 -24 -7 -21 0 -37 6 -38 11 0 6 -4 2 -9 -9
-6 -13 -9 -15 -9 -5 -1 9 -11 16 -26 16 -28 2 -34 -12 -7 -19 13 -4 13 -5 -4
-6 -12 0 -28 7 -35 16 -10 11 -10 14 -1 9 9 -5 12 4 12 33 0 23 -4 41 -9 41
-13 0 -21 -27 -14 -47 5 -12 3 -14 -7 -8 -9 5 -11 4 -6 -4 11 -17 -19 -24 -44
-11 -13 7 -26 8 -33 2 -19 -15 -54 -20 -68 -11 -12 7 -12 9 0 9 9 0 11 8 6 27
-9 36 -23 53 -44 52 -11 0 -10 -3 5 -9 28 -11 29 -57 2 -71 -10 -6 -33 -9 -51
-7 -33 3 -73 -24 -62 -42 4 -6 1 -10 -4 -10 -17 0 -13 28 7 39 13 8 9 10 -18
6 -27 -4 -30 -3 -15 4 17 8 14 10 -17 10 -20 1 -39 -4 -41 -11 -3 -7 -6 -2 -6
11 -1 24 -1 24 -16 5 -8 -10 -15 -15 -15 -10 0 4 -12 0 -27 -10 -24 -15 -26
-15 -14 -1 7 9 10 17 6 17 -4 0 -1 10 7 23 17 25 13 47 -7 47 -8 0 -12 -11
-11 -30 3 -41 -6 -52 -36 -45 -19 5 -24 12 -22 31 1 13 -2 24 -8 24 -6 0 -8
-7 -4 -15 7 -19 -20 -46 -40 -38 -8 3 -24 -3 -34 -12 -11 -10 -23 -15 -27 -12
-3 4 -1 7 5 7 7 0 3 9 -8 20 -11 11 -20 30 -21 43 0 15 -2 17 -6 7 -3 -8 -14
-25 -24 -38 -10 -13 -15 -30 -12 -39 5 -12 3 -14 -7 -8 -18 11 -60 13 -60 3 0
-4 -5 -8 -11 -8 -5 0 -7 5 -3 12 5 8 2 9 -10 5 -9 -4 -15 -3 -12 1 3 5 -4 16
-16 26 -19 17 -22 17 -37 1 -15 -15 -15 -16 4 -9 11 4 17 3 12 -2 -9 -9 -98
-14 -92 -4 2 3 -1 12 -6 20 -8 13 -11 12 -20 -2 -12 -22 -62 -24 -83 -3 -8 8
-17 15 -20 15 -3 0 -3 -7 0 -15 4 -10 0 -15 -15 -15 -12 0 -21 -4 -21 -10 0
-5 -5 -10 -11 -10 -5 0 -7 5 -4 10 3 6 -3 10 -14 10 -11 0 -27 10 -35 22 -9
12 -19 19 -22 15 -4 -4 -2 -13 5 -20 9 -12 1 -14 -46 -12 -32 1 -64 -2 -70 -7
-7 -6 -21 -7 -30 -3 -10 5 -27 7 -37 6 -13 -2 -17 2 -13 13 4 9 2 16 -2 16 -5
0 -12 -7 -15 -16 -5 -13 -18 -14 -77 -10 -39 3 -79 1 -89 -4 -15 -8 -22 -6
-33 10 -7 11 -16 18 -18 16 -2 -3 -4 19 -4 47 l0 52 53 -1 c31 0 52 4 52 10 0
6 5 3 11 -7 5 -9 7 -22 4 -27 -3 -6 -2 -10 2 -10 5 0 14 9 21 20 10 16 21 19
57 16 41 -3 45 -1 40 15 -7 22 16 35 43 23 9 -4 23 -6 31 -5 7 1 10 -2 6 -8
-3 -6 -13 -11 -21 -11 -17 0 -19 -16 -2 -26 6 -4 8 -3 4 4 -3 6 3 14 15 17 13
4 24 2 29 -4 5 -9 14 -9 34 -1 35 13 37 13 34 -2 -2 -7 2 -12 9 -11 7 2 10 -4
7 -12 -4 -8 -1 -15 5 -15 6 0 11 4 11 10 0 18 42 32 76 25 19 -3 33 -9 33 -13
-3 -21 3 -24 15 -6 9 12 11 21 4 25 -5 4 7 6 29 5 21 -1 44 -5 50 -9 7 -4 28
-5 47 -2 41 8 87 -11 65 -27 -12 -8 -11 -9 1 -5 8 2 14 12 12 22 -2 10 1 14 7
10 14 -8 14 0 0 28 -9 20 -9 20 4 5 13 -16 16 -16 33 -2 10 9 13 12 5 8 -10
-5 -12 -3 -7 5 6 9 11 9 21 1 8 -7 23 -9 35 -5z m720 0 c0 -8 -7 -15 -15 -15
-13 0 -14 3 -3 15 16 18 18 18 18 0z m-240 1 c0 -3 -4 -8 -10 -11 -5 -3 -10
-1 -10 4 0 6 5 11 10 11 6 0 10 -2 10 -4z m127 -11 c0 -8 -4 -12 -9 -9 -5 3
-6 10 -3 15 9 13 12 11 12 -6z m426 8 c-7 -2 -19 -2 -25 0 -7 3 -2 5 12 5 14
0 19 -2 13 -5z m-1882 -21 c-7 -2 -18 1 -23 6 -8 8 -4 9 13 5 13 -4 18 -8 10
-11z m694 8 c3 -6 -1 -7 -9 -4 -18 7 -21 14 -7 14 6 0 13 -4 16 -10z m830 -8
c-3 -3 -11 0 -18 7 -9 10 -8 11 6 5 10 -3 15 -9 12 -12z m2289 -4 c-10 -13
-23 -27 -29 -33 -18 -16 -55 -85 -55 -101 0 -8 -4 -14 -10 -14 -5 0 -10 3 -10
6 0 13 57 102 84 132 35 36 49 44 20 10z m-3639 2 c3 -6 -1 -7 -9 -4 -18 7
-21 14 -7 14 6 0 13 -4 16 -10z m1188 3 c-7 -2 -19 -2 -25 0 -7 3 -2 5 12 5
14 0 19 -2 13 -5z m524 1 c-3 -3 -12 -4 -19 -1 -8 3 -5 6 6 6 11 1 17 -2 13
-5z m-1440 -10 c-3 -3 -12 -4 -19 -1 -8 3 -5 6 6 6 11 1 17 -2 13 -5z m1680
-26 c-3 -7 -5 -2 -5 12 0 14 2 19 5 13 2 -7 2 -19 0 -25z m-202 -44 c1 -13 0
-24 -2 -24 -8 0 -23 42 -17 51 9 15 19 1 19 -27z m182 -6 c-3 -8 -6 -5 -6 6
-1 11 2 17 5 13 3 -3 4 -12 1 -19z m-4 -53 c-3 -8 -10 -15 -15 -15 -7 0 -6 5
1 13 6 8 7 18 3 22 -4 5 -2 5 5 1 7 -4 10 -13 6 -21z m-549 -24 c-2 -3 -12 3
-22 13 -16 17 -16 18 5 5 12 -7 20 -15 17 -18z m-319 10 c3 -5 1 -12 -5 -16
-5 -3 -10 1 -10 9 0 18 6 21 15 7z m-1068 -7 c-3 -3 -12 -4 -19 -1 -8 3 -5 6
6 6 11 1 17 -2 13 -5z m230 0 c-3 -3 -12 -4 -19 -1 -8 3 -5 6 6 6 11 1 17 -2
13 -5z m190 0 c-3 -3 -12 -4 -19 -1 -8 3 -5 6 6 6 11 1 17 -2 13 -5z m796 -1
c-7 -2 -21 -2 -30 0 -10 3 -4 5 12 5 17 0 24 -2 18 -5z m120 0 c-7 -2 -19 -2
-25 0 -7 3 -2 5 12 5 14 0 19 -2 13 -5z m324 1 c-3 -3 -12 -4 -19 -1 -8 3 -5
6 6 6 11 1 17 -2 13 -5z m-2167 -14 c0 -5 -2 -10 -4 -10 -3 0 -8 5 -11 10 -3
6 -1 10 4 10 6 0 11 -4 11 -10z m217 4 c-3 -3 -12 -4 -19 -1 -8 3 -5 6 6 6 11
1 17 -2 13 -5z m450 0 c-3 -3 -12 -4 -19 -1 -8 3 -5 6 6 6 11 1 17 -2 13 -5z
m376 -1 c-7 -2 -19 -2 -25 0 -7 3 -2 5 12 5 14 0 19 -2 13 -5z m567 3 c0 -3
-4 -8 -10 -11 -5 -3 -10 -1 -10 4 0 6 5 11 10 11 6 0 10 -2 10 -4z m800 -11
c-7 -9 -15 -13 -17 -11 -7 7 7 26 19 26 6 0 6 -6 -2 -15z m-1693 -1 c-3 -3
-12 -4 -19 -1 -8 3 -5 6 6 6 11 1 17 -2 13 -5z m116 -1 c-7 -2 -21 -2 -30 0
-10 3 -4 5 12 5 17 0 24 -2 18 -5z m92 -11 c-3 -3 -11 0 -18 7 -9 10 -8 11 6
5 10 -3 15 -9 12 -12z m285 8 c0 -5 -2 -10 -4 -10 -3 0 -8 5 -11 10 -3 6 -1
10 4 10 6 0 11 -4 11 -10z m237 4 c-3 -3 -12 -4 -19 -1 -8 3 -5 6 6 6 11 1 17
-2 13 -5z m306 -1 c-7 -2 -21 -2 -30 0 -10 3 -4 5 12 5 17 0 24 -2 18 -5z
m-1096 -9 c-3 -3 -12 -4 -19 -1 -8 3 -5 6 6 6 11 1 17 -2 13 -5z m3343 -35
c-12 -16 -25 -28 -28 -25 -5 6 36 56 45 56 3 0 -5 -14 -17 -31z m-3857 4 c-7
-2 -19 -2 -25 0 -7 3 -2 5 12 5 14 0 19 -2 13 -5z m2237 3 c0 -2 -7 -7 -16
-10 -8 -3 -12 -2 -9 4 6 10 25 14 25 6z m-2280 -26 c18 -12 2 -12 -25 0 -13 6
-15 9 -5 9 8 0 22 -4 30 -9z m2230 0 c-8 -5 -22 -9 -30 -9 -10 0 -8 3 5 9 27
12 43 12 25 0z m-567 -17 c-287 -2 -759 -2 -1050 0 -290 1 -55 2 522 2 578 0
815 -1 528 -2z m2197 -7 c0 -2 -8 -10 -17 -17 -16 -13 -17 -12 -4 4 13 16 21
21 21 13z m2180 -21 c0 -18 -5 -25 -20 -25 -20 0 -28 28 -13 43 15 16 33 6 33
-18z m32 0 c-2 -14 -6 -25 -7 -25 -1 0 -5 11 -7 25 -3 16 -1 25 7 25 8 0 10
-9 7 -25z m41 18 c-7 -2 -13 -11 -13 -18 0 -7 6 -16 13 -18 9 -4 9 -6 0 -6 -6
-1 -15 4 -18 9 -9 15 2 40 17 39 10 0 10 -2 1 -6z m92 -18 c0 -12 -7 -20 -18
-21 -12 -1 -13 -1 -2 3 8 2 15 11 15 19 0 17 -16 19 -23 2 -3 -8 -6 -5 -6 5
-1 12 5 17 17 15 9 -2 17 -12 17 -23z m31 16 c-4 -5 -2 -11 3 -13 5 -1 3 -9
-5 -16 -12 -11 -14 -9 -14 13 0 14 5 25 11 25 5 0 8 -4 5 -9z m39 -16 c0 -14
-3 -25 -7 -25 -5 0 -8 11 -8 25 0 14 3 25 8 25 4 0 7 -11 7 -25z m-289 3 c4
-7 3 -8 -4 -4 -7 4 -12 3 -12 -3 0 -5 6 -12 13 -14 7 -3 5 -6 -5 -6 -18 -1
-24 19 -11 32 9 9 11 9 19 -5z m-2168 -40 c-7 -13 -11 -26 -10 -30 1 -5 -2 -8
-8 -8 -14 0 -13 7 6 35 20 31 29 33 12 3z m3911 -25 c-6 -7 -16 -13 -22 -13
-7 0 -7 4 1 12 8 8 8 17 0 32 -11 21 -11 21 11 2 16 -15 18 -22 10 -33z m-503
2 c-3 -8 -11 -15 -18 -14 -10 0 -10 2 0 6 6 2 12 14 13 26 0 12 3 16 6 9 3 -7
2 -19 -1 -27z m153 8 c0 -25 -1 -25 -8 -8 -5 11 -7 23 -4 28 8 14 13 7 12 -20z
m48 -5 c-3 -8 -6 -5 -6 6 -1 11 2 17 5 13 3 -3 4 -12 1 -19z m-140 -14 c-3 -3
-12 -4 -19 -1 -8 3 -5 6 6 6 11 1 17 -2 13 -5z m50 0 c-3 -3 -12 -4 -19 -1 -8
3 -5 6 6 6 11 1 17 -2 13 -5z m-3517 -24 c0 -5 -5 -10 -11 -10 -5 0 -7 5 -4
10 3 6 8 10 11 10 2 0 4 -4 4 -10z m-54 -34 c0 -14 -5 -21 -9 -17 -4 4 -5 15
-1 24 9 24 12 21 10 -7z m-82 -172 c3 -8 2 -12 -4 -9 -5 3 -17 -11 -26 -31
-10 -21 -20 -32 -22 -26 -2 8 37 81 44 82 1 0 5 -7 8 -16z m2388 -61 c-10 -4
-9 -8 4 -17 17 -13 12 -36 -8 -36 -7 0 -6 5 1 14 10 12 8 16 -10 21 -17 6 -19
9 -8 16 8 5 19 8 24 8 6 0 4 -3 -3 -6z m65 -9 c3 -8 1 -20 -5 -26 -8 -8 -9 -5
-5 11 3 11 1 21 -5 21 -6 0 -13 -12 -15 -27 -4 -26 -4 -26 -6 5 -1 23 3 32 14
32 9 0 18 -7 22 -16z m36 -4 c-3 -11 -7 -20 -8 -20 -1 0 -5 9 -8 20 -3 12 0
20 8 20 8 0 11 -8 8 -20z m119 13 c-6 -2 -10 -9 -7 -13 3 -5 1 -11 -5 -15 -5
-3 -10 3 -10 14 0 14 6 21 18 20 10 0 12 -3 4 -6z m33 -22 c-2 -35 -15 -36
-15 -2 0 18 4 30 8 27 5 -3 8 -14 7 -25z m-296 -18 c9 -7 11 -13 6 -13 -16 0
-35 22 -34 40 0 13 1 13 6 0 4 -8 13 -20 22 -27z m-62 5 c-3 -8 -6 -5 -6 6 -1
11 2 17 5 13 3 -3 4 -12 1 -19z m284 -1 c-10 -9 -11 -8 -5 6 3 10 9 15 12 12
3 -3 0 -11 -7 -18z m-461 -27 c0 -52 32 -45 43 10 3 14 4 8 4 -15 -2 -34 -6
-41 -26 -43 -13 -2 -28 2 -32 10 -12 19 -11 81 1 73 6 -3 10 -19 10 -35z m438
15 c-3 -3 -9 2 -12 12 -6 14 -5 15 5 6 7 -7 10 -15 7 -18z m999 -24 c3 -20 1
-21 -12 -7 -18 17 -20 39 -3 34 6 -2 13 -14 15 -27z m50 22 c-4 -3 1 -11 10
-18 13 -9 13 -14 3 -20 -9 -5 -11 -4 -6 3 4 7 3 12 -3 12 -5 0 -12 -6 -15 -12
-2 -7 -3 -2 -1 12 4 32 4 30 12 30 3 0 3 -3 0 -7z m100 -30 c-3 -10 -5 -4 -5
12 0 17 2 24 5 18 2 -7 2 -21 0 -30z m138 27 c3 -6 -1 -7 -9 -4 -18 7 -21 14
-7 14 6 0 13 -4 16 -10z m42 4 c-3 -3 -12 -4 -19 -1 -8 3 -5 6 6 6 11 1 17 -2
13 -5z m35 -1 c-10 -4 -9 -9 5 -20 10 -8 12 -11 4 -7 -7 3 -17 1 -21 -6 -5 -7
-7 -2 -7 14 0 18 5 26 16 25 11 0 12 -2 3 -6z m137 -6 c8 -10 7 -17 -1 -25
-16 -16 -33 -15 -19 1 8 10 7 17 -1 25 -8 8 -8 12 -1 12 6 0 15 -6 22 -13z
m-4125 -10 c-3 -8 -12 -14 -21 -14 -13 0 -13 2 3 14 22 16 25 16 18 0z m3863
-9 c2 -17 0 -19 -7 -8 -5 8 -6 18 -4 22 8 12 10 10 11 -14z m-3897 -27 c0 -5
-9 -19 -20 -32 l-20 -24 17 32 c19 34 23 39 23 24z m7 -63 c-3 -7 -5 -2 -5 12
0 14 2 19 5 13 2 -7 2 -19 0 -25z m-86 -71 c-10 -9 -11 -8 -5 6 3 10 9 15 12
12 3 -3 0 -11 -7 -18z"/>
<path d="M3285 6410 c-8 -24 1 -40 21 -40 19 0 19 46 0 53 -9 4 -17 -2 -21
-13z"/>
<path d="M1590 6415 c0 -39 3 -46 18 -43 13 2 17 13 17 43 0 30 -4 41 -17 43
-15 3 -18 -4 -18 -43z"/>
<path d="M1770 6420 c0 -5 7 -10 15 -10 8 0 15 5 15 10 0 6 -7 10 -15 10 -8 0
-15 -4 -15 -10z"/>
<path d="M2070 6420 c0 -5 7 -10 15 -10 8 0 15 5 15 10 0 6 -7 10 -15 10 -8 0
-15 -4 -15 -10z"/>
<path d="M2657 6383 c-10 -9 -9 -23 2 -23 5 0 11 7 15 15 5 15 -5 20 -17 8z"/>
<path d="M3130 6420 c0 -5 7 -10 15 -10 8 0 15 5 15 10 0 6 -7 10 -15 10 -8 0
-15 -4 -15 -10z"/>
<path d="M3937 6383 c-10 -9 -9 -23 2 -23 5 0 11 7 15 15 5 15 -5 20 -17 8z"/>
<path d="M4410 6420 c0 -5 7 -10 15 -10 8 0 15 5 15 10 0 6 -7 10 -15 10 -8 0
-15 -4 -15 -10z"/>
<path d="M5265 6379 c-4 -6 -5 -13 -2 -16 7 -7 27 6 27 18 0 12 -17 12 -25 -2z"/>
<path d="M5595 6430 c-4 -6 -3 -16 3 -22 6 -6 12 -6 17 2 4 6 3 16 -3 22 -6 6
-12 6 -17 -2z"/>
<path d="M5585 6310 c3 -5 12 -10 20 -10 8 0 17 5 20 10 4 6 -5 10 -20 10 -15
0 -24 -4 -20 -10z"/>
<path d="M5750 6420 c0 -5 7 -10 15 -10 8 0 15 5 15 10 0 6 -7 10 -15 10 -8 0
-15 -4 -15 -10z"/>
<path d="M11610 5405 c0 -6 9 -11 20 -12 11 -1 20 4 20 10 0 7 -9 13 -20 13
-11 0 -20 -5 -20 -11z"/>
<path d="M11200 5225 l0 -35 85 0 85 0 0 35 0 35 -85 0 -85 0 0 -35z"/>
<path d="M11560 5110 l0 -50 90 0 90 0 0 50 0 50 -90 0 -90 0 0 -50z"/>
<path d="M11780 5110 l0 -50 90 0 90 0 0 50 0 50 -90 0 -90 0 0 -50z"/>
<path d="M10450 5030 l0 -90 115 0 115 0 0 90 0 90 -115 0 -115 0 0 -90z"/>
<path d="M10740 5030 l0 -90 115 0 115 0 0 90 0 90 -115 0 -115 0 0 -90z"/>
<path d="M11200 5090 l0 -30 85 0 85 0 0 30 0 30 -85 0 -85 0 0 -30z"/>
<path d="M11560 4920 l0 -90 90 0 90 0 0 90 0 90 -90 0 -90 0 0 -90z"/>
<path d="M11780 4920 l0 -90 90 0 90 0 0 90 0 90 -90 0 -90 0 0 -90z"/>
<path d="M11200 4955 l0 -35 85 0 85 0 0 35 0 35 -85 0 -85 0 0 -35z"/>
<path d="M10450 4780 l0 -90 115 0 115 0 0 90 0 90 -115 0 -115 0 0 -90z"/>
<path d="M10738 4860 c-1 -5 -2 -46 0 -90 l4 -80 114 0 114 0 0 90 0 90 -114
0 c-66 0 -116 -4 -118 -10z"/>
<path d="M11200 4825 l0 -35 85 0 85 0 0 35 0 35 -85 0 -85 0 0 -35z"/>
<path d="M11200 4695 l0 -35 85 0 85 0 0 35 0 35 -85 0 -85 0 0 -35z"/>
<path d="M10450 4520 l0 -90 115 0 115 0 0 90 0 90 -115 0 -115 0 0 -90z"/>
<path d="M10738 4536 c-5 -114 -13 -106 118 -106 l114 0 0 90 0 90 -114 0
-114 0 -4 -74z"/>
<path d="M11200 4565 l0 -35 85 0 85 0 0 35 0 35 -85 0 -85 0 0 -35z"/>
<path d="M11200 4430 l0 -30 85 0 85 0 0 30 0 30 -85 0 -85 0 0 -30z"/>
<path d="M6825 4120 c3 -5 8 -10 11 -10 2 0 4 5 4 10 0 6 -5 10 -11 10 -5 0
-7 -4 -4 -10z"/>
<path d="M10940 3521 c0 -25 -3 -28 -27 -23 -32 6 -53 -18 -53 -61 0 -52 15
-66 70 -65 l50 1 0 89 c0 81 -2 88 -20 88 -15 0 -20 -7 -20 -29z m3 -73 c8
-30 -3 -49 -27 -46 -13 2 -22 12 -24 26 -7 47 40 65 51 20z"/>
<path d="M11287 3543 c-4 -3 -7 -14 -7 -24 0 -9 -6 -19 -12 -22 -10 -3 -10 -7
0 -20 8 -9 12 -34 11 -59 -3 -34 0 -43 14 -46 14 -3 17 5 17 48 0 36 4 52 15
56 20 8 19 24 -1 24 -9 0 -14 6 -11 13 2 6 10 12 17 12 7 0 15 6 18 13 4 13
-49 18 -61 5z"/>
<path d="M11383 3538 c-22 -34 -31 -58 -22 -58 5 0 9 -25 9 -55 0 -42 3 -55
15 -55 11 0 15 12 15 49 0 42 3 50 23 55 21 6 21 7 3 20 -18 14 -14 42 5 31 5
-4 9 1 9 9 0 19 -45 22 -57 4z"/>
<path d="M8900 3455 l0 -85 50 0 c38 0 50 4 50 15 0 10 -10 15 -30 15 -23 0
-30 4 -30 20 0 15 9 22 30 27 17 3 30 9 30 14 0 5 -13 9 -30 9 -23 0 -30 4
-30 20 0 16 7 20 30 20 20 0 30 5 30 15 0 11 -12 15 -50 15 l-50 0 0 -85z"/>
<path d="M9500 3455 c0 -69 3 -85 15 -85 10 0 15 11 15 35 0 32 2 35 30 35 20
0 30 5 30 15 0 10 -10 15 -30 15 -23 0 -30 4 -30 20 0 16 7 20 30 20 20 0 30
5 30 15 0 11 -12 15 -45 15 l-45 0 0 -85z"/>
<path d="M9630 3455 c0 -78 2 -85 20 -85 18 0 20 7 20 85 0 78 -2 85 -20 85
-18 0 -20 -7 -20 -85z"/>
<path d="M9720 3468 c-34 -101 -34 -98 -11 -98 14 0 21 6 21 20 0 16 7 20 34
20 26 0 36 -5 41 -20 3 -11 15 -20 25 -20 18 0 18 3 -5 68 -34 100 -35 102
-59 102 -18 0 -26 -12 -46 -72z m64 0 c5 -24 3 -28 -15 -28 -17 0 -20 4 -15
23 3 12 6 29 6 37 0 21 16 0 24 -32z"/>
<path d="M9860 3525 c0 -9 9 -15 25 -15 24 0 25 -2 25 -70 0 -56 3 -70 15 -70
12 0 15 14 15 70 0 68 1 70 25 70 16 0 25 6 25 15 0 12 -14 15 -65 15 -51 0
-65 -3 -65 -15z"/>
<path d="M10091 3514 c-65 -83 31 -187 113 -123 20 16 26 29 26 58 0 56 -31
91 -80 91 -30 0 -43 -6 -59 -26z m97 -56 c3 -44 1 -48 -23 -54 -33 -8 -55 11
-55 46 0 49 10 61 44 58 29 -3 31 -5 34 -50z"/>
<path d="M11101 3521 c-29 -29 -29 -103 -1 -131 22 -22 69 -26 100 -10 11 6
24 27 29 47 9 30 7 44 -7 73 -15 31 -22 35 -59 38 -32 2 -47 -2 -62 -17z m87
-23 c17 -17 15 -73 -2 -88 -42 -34 -92 22 -68 75 13 27 49 34 70 13z"/>
<path d="M9045 3490 c-7 -11 -3 -12 34 -14 32 -1 40 -26 9 -26 -36 0 -60 -22
-56 -51 3 -27 40 -38 63 -19 9 7 15 8 20 0 3 -5 10 -10 16 -10 13 0 11 104 -3
118 -15 15 -74 16 -83 2z m65 -69 c0 -5 -7 -14 -15 -21 -18 -15 -42 1 -31 19
8 13 46 15 46 2z"/>
<path d="M9182 3488 c-20 -20 -14 -38 23 -59 41 -24 37 -43 -7 -34 -23 6 -29
4 -26 -6 7 -20 72 -23 87 -5 17 21 6 51 -24 64 -33 15 -33 36 0 28 18 -5 25
-2 25 9 0 19 -60 21 -78 3z"/>
<path d="M9280 3495 c0 -3 11 -33 25 -67 26 -63 22 -88 -12 -88 -8 0 -13 -6
-10 -12 4 -13 46 -13 59 0 4 4 20 44 37 90 28 75 29 82 12 82 -13 0 -22 -13
-32 -47 l-13 -48 -15 48 c-10 33 -20 47 -33 47 -10 0 -18 -2 -18 -5z"/>
<path d="M10269 3496 c-1 -1 -3 -29 -4 -63 -3 -57 -1 -63 16 -63 16 0 19 7 19
43 0 46 14 69 36 60 9 -3 14 -22 14 -54 0 -38 4 -49 15 -49 13 0 15 11 13 63
l-3 62 -52 1 c-29 0 -54 0 -54 0z"/>
<path d="M10570 3486 c0 -10 9 -14 26 -13 15 1 29 -4 31 -10 3 -8 -5 -13 -20
-13 -27 0 -57 -23 -57 -44 0 -24 24 -34 74 -34 l48 1 -4 55 c-3 31 -11 58 -19
63 -23 15 -79 11 -79 -5z m60 -70 c0 -17 -27 -29 -35 -16 -4 6 -3 15 0 20 9
15 35 12 35 -4z"/>
<path d="M10700 3449 c0 -56 7 -79 26 -79 8 0 14 16 16 48 3 40 6 47 26 50 20
3 22 0 22 -47 0 -39 4 -51 15 -51 12 0 15 13 15 59 0 67 -3 70 -77 69 l-43 -1
0 -48z"/>
<path d="M11450 3451 c0 -58 7 -81 26 -81 8 0 14 16 16 48 3 40 6 47 26 50 12
2 22 10 22 18 0 17 -31 19 -48 2 -9 -9 -12 -9 -12 0 0 7 -7 12 -15 12 -11 0
-15 -12 -15 -49z"/>
<path d="M11577 3494 c-13 -13 5 -24 27 -18 16 4 25 0 29 -10 5 -12 0 -16 -16
-16 -35 0 -59 -22 -55 -51 3 -27 40 -38 63 -19 9 7 15 8 20 0 3 -5 10 -10 16
-10 13 0 11 104 -3 118 -13 13 -70 17 -81 6z m63 -74 c0 -15 -38 -32 -45 -20
-3 5 -3 15 0 20 8 13 45 13 45 0z"/>
<path d="M11710 3433 c0 -49 3 -63 15 -63 11 0 15 11 15 36 0 45 16 75 35 68
10 -4 15 -21 15 -55 0 -35 4 -49 14 -49 15 0 26 30 26 73 0 20 5 27 20 27 17
0 20 -7 20 -50 0 -43 3 -50 20 -50 17 0 20 7 20 46 0 77 -6 82 -110 81 l-90
-1 0 -63z"/>
<path d="M11945 3490 c-1 -3 -2 -43 -1 -90 1 -72 4 -85 19 -88 13 -3 17 4 17
31 0 31 2 34 25 29 14 -2 32 1 40 8 19 15 20 93 2 108 -13 11 -96 13 -102 2z
m83 -59 c-4 -38 -42 -36 -46 3 -2 16 2 32 9 37 20 12 40 -11 37 -40z"/>
<path d="M10410 3435 c0 -10 10 -15 30 -15 20 0 30 5 30 15 0 10 -10 15 -30
15 -20 0 -30 -5 -30 -15z"/>
<path d="M9153 3175 c0 -44 2 -61 4 -37 2 23 2 59 0 80 -2 20 -4 1 -4 -43z"/>
<path d="M9203 3175 c0 -44 2 -61 4 -37 2 23 2 59 0 80 -2 20 -4 1 -4 -43z"/>
<path d="M8902 3173 l-2 -73 33 1 c29 2 30 2 5 6 -26 4 -27 7 -31 71 l-3 67
-2 -72z"/>
<path d="M8945 3231 c17 -4 35 -17 45 -34 14 -25 13 -30 -3 -60 l-17 -32 21
25 c38 45 7 111 -50 109 -25 -1 -24 -2 4 -8z"/>
<path d="M9506 3218 c-9 -12 -16 -34 -16 -48 0 -44 26 -70 68 -69 l37 2 -40 6
c-31 5 -42 12 -49 32 -12 36 0 78 27 89 16 6 18 9 5 9 -9 1 -24 -9 -32 -21z"/>
<path d="M9987 3213 c-8 -15 -17 -37 -21 -48 -5 -19 -3 -21 29 -17 30 4 36 1
45 -22 5 -14 12 -26 15 -26 5 0 -33 101 -42 110 -2 3 -2 -7 2 -23 6 -23 4 -27
-14 -27 -25 0 -27 17 -5 48 9 13 14 26 11 29 -3 2 -12 -8 -20 -24z"/>
<path d="M9828 3219 c-2 -6 -1 -34 2 -62 3 -36 9 -52 20 -53 9 0 10 1 3 3 -15
5 -18 89 -4 95 5 2 3 8 -4 15 -9 8 -15 9 -17 2z"/>
<path d="M9283 3199 c24 -14 21 -37 -5 -42 -20 -4 -19 -4 5 -6 22 -1 27 3 27
23 0 13 -7 27 -16 30 -24 9 -31 7 -11 -5z"/>
<path d="M10398 3200 c18 -8 22 -18 24 -57 l1 -48 4 43 c4 46 -9 72 -36 71
-11 0 -9 -3 7 -9z"/>
<path d="M10470 3195 c-7 -8 -10 -25 -6 -39 5 -19 10 -23 28 -18 l23 7 -23 3
c-17 3 -22 9 -20 25 4 31 36 34 47 5 10 -23 10 -23 10 5 1 22 -3 27 -23 27
-13 0 -29 -7 -36 -15z"/>
<path d="M10618 3194 c32 -22 27 -34 -13 -34 -34 0 -35 1 -25 23 11 21 10 21
-4 3 -27 -33 -20 -43 26 -37 23 3 43 11 45 17 5 14 -23 44 -40 44 -6 0 -1 -7
11 -16z"/>
<path d="M9040 3179 c-6 -11 -10 -25 -8 -30 2 -5 8 4 15 21 13 34 9 40 -7 9z"/>
<path d="M9107 3179 c4 -13 8 -18 11 -10 2 7 -1 18 -6 23 -8 8 -9 4 -5 -13z"/>
<path d="M9352 3146 c1 -47 2 -48 5 -11 3 22 9 45 14 51 5 7 3 11 -6 11 -12 0
-15 -12 -13 -51z"/>
<path d="M9620 3179 c-6 -11 -10 -25 -8 -30 2 -5 8 4 15 21 13 34 9 40 -7 9z"/>
<path d="M9687 3179 c4 -13 8 -18 11 -10 2 7 -1 18 -6 23 -8 8 -9 4 -5 -13z"/>
<path d="M9731 3184 c-1 -20 26 -41 37 -29 3 3 0 5 -7 5 -6 0 -16 10 -21 23
-9 22 -9 22 -9 1z"/>
<path d="M10129 3174 c-5 -15 -8 -29 -5 -31 2 -2 8 10 14 26 13 38 5 41 -9 5z"/>
<path d="M10237 3180 c4 -17 0 -20 -25 -20 -17 0 -33 6 -35 13 -3 6 -6 -2 -6
-18 -1 -38 15 -55 49 -54 23 1 23 2 -5 8 -17 3 -31 14 -33 24 -3 14 4 17 32
17 29 0 36 4 36 19 0 11 -4 22 -9 25 -5 4 -7 -3 -4 -14z"/>
<path d="M10280 3188 c0 -4 4 -8 9 -8 6 0 12 4 15 8 3 5 -1 9 -9 9 -8 0 -15
-4 -15 -9z"/>
<path d="M10071 3188 c-2 -18 32 -87 40 -82 5 3 9 10 9 16 0 6 -3 8 -7 4 -4
-4 -15 10 -25 31 -9 21 -17 35 -17 31z"/>
<path d="M10283 3135 c0 -22 2 -30 4 -17 2 12 2 30 0 40 -3 9 -5 -1 -4 -23z"/>
<path d="M9428 3153 c6 -2 18 -2 25 0 6 3 1 5 -13 5 -14 0 -19 -2 -12 -5z"/>
<path d="M9898 3153 c6 -2 18 -2 25 0 6 3 1 5 -13 5 -14 0 -19 -2 -12 -5z"/>
<path d="M10360 3145 c-17 -21 -5 -45 22 -44 l23 0 -23 10 c-29 11 -24 31 9
40 22 6 22 7 3 8 -12 1 -27 -6 -34 -14z"/>
<path d="M9688 3132 c-7 -24 -36 -29 -58 -9 -12 10 -12 9 -1 -5 7 -10 21 -18
31 -18 21 0 43 25 38 42 -3 7 -7 2 -10 -10z"/>
<path d="M9783 3134 c2 -13 -7 -20 -28 -25 l-30 -7 31 -1 c33 -1 54 23 35 42
-6 6 -9 2 -8 -9z"/>
<path d="M9107 3125 c-8 -18 -38 -20 -57 -2 -12 10 -12 9 -1 -5 7 -10 21 -18
31 -18 18 0 47 27 38 36 -3 3 -8 -2 -11 -11z"/>
<path d="M9301 3124 c0 -11 3 -14 6 -6 3 7 2 16 -1 19 -3 4 -6 -2 -5 -13z"/>
<path d="M9946 3113 c-6 -14 -5 -15 5 -6 7 7 10 15 7 18 -3 3 -9 -2 -12 -12z"/>
<path d="M10570 3122 c0 -13 43 -26 62 -19 7 3 2 6 -12 6 -15 1 -31 6 -38 13
-9 9 -12 9 -12 0z"/>
<path d="M9248 3108 c6 -6 18 -8 28 -6 14 3 12 5 -9 10 -19 3 -25 2 -19 -4z"/>
<path d="M10470 3109 c0 -5 5 -7 10 -4 6 3 10 8 10 11 0 2 -4 4 -10 4 -5 0
-10 -5 -10 -11z"/>
<path d="M10519 3101 c8 -5 11 -16 8 -26 -4 -9 -3 -14 3 -10 17 11 11 45 -7
45 -15 0 -15 -2 -4 -9z"/>
<path d="M10450 3084 c0 -18 27 -36 47 -31 14 4 14 5 -4 6 -12 0 -27 9 -32 19
-6 9 -11 12 -11 6z"/>
<path d="M2781 3266 c-7 -8 -11 -30 -9 -48 2 -28 7 -33 28 -33 21 0 26 5 28
33 3 31 -11 62 -28 62 -4 0 -13 -6 -19 -14z"/>
<path d="M3504 3272 c-36 -23 -20 -96 19 -90 17 2 23 11 25 36 5 45 -17 72
-44 54z"/>
<path d="M997 3274 c-15 -15 -6 -24 24 -24 20 0 29 4 27 13 -5 14 -40 21 -51
11z"/>
<path d="M1577 3274 c-15 -15 -6 -24 24 -24 20 0 29 4 27 13 -5 14 -40 21 -51
11z"/>
<path d="M1760 3205 c-10 -12 -10 -19 -1 -28 14 -14 44 2 49 27 4 21 -31 22
-48 1z"/>
<path d="M2371 3266 c-7 -8 -11 -30 -9 -48 2 -28 7 -34 30 -36 22 -3 29 2 34
23 13 52 -27 95 -55 61z"/>
<path d="M2971 3266 c-7 -8 -11 -30 -9 -48 2 -28 7 -34 30 -36 22 -3 29 2 34
23 13 52 -27 95 -55 61z"/>
<path d="M3161 3206 c-17 -20 13 -43 34 -26 8 7 15 19 15 26 0 18 -34 18 -49
0z"/>
<path d="M3990 3275 c-16 -19 -5 -47 17 -43 22 4 29 43 9 51 -8 3 -20 -1 -26
-8z"/>
<path d="M3971 3127 c-6 -8 -8 -17 -4 -20 11 -11 71 -8 79 4 15 25 -54 40 -75
16z"/>
<path d="M1640 2705 c-16 -19 -15 -82 1 -101 15 -19 44 -18 63 2 18 18 21 66
6 95 -13 23 -53 25 -70 4z"/>
<path d="M1342 2641 c-22 -13 -10 -46 18 -49 24 -4 50 19 50 45 0 15 -47 18
-68 4z"/>
<path d="M1827 2702 c-34 -38 -9 -112 38 -112 27 0 45 26 45 65 0 60 -47 86
-83 47z"/>
<path d="M9037 2514 c-9 -10 2 -24 19 -24 8 0 14 7 14 15 0 15 -21 21 -33 9z"/>
<path d="M9420 2505 c0 -8 7 -15 15 -15 8 0 15 7 15 15 0 8 -7 15 -15 15 -8 0
-15 -7 -15 -15z"/>
<path d="M9570 2490 c0 -27 -2 -29 -29 -24 -50 10 -79 -56 -46 -103 12 -17 24
-21 60 -20 l45 2 0 88 c0 71 -3 87 -15 87 -10 0 -15 -10 -15 -30z m-5 -85 c0
-23 -5 -31 -22 -33 -20 -3 -23 1 -23 33 0 32 3 36 23 33 17 -2 22 -10 22 -33z"/>
<path d="M9640 2505 c0 -8 7 -15 15 -15 8 0 15 7 15 15 0 8 -7 15 -15 15 -8 0
-15 -7 -15 -15z"/>
<path d="M10247 2514 c-9 -10 2 -24 19 -24 8 0 14 7 14 15 0 15 -21 21 -33 9z"/>
<path d="M10477 2514 c-9 -10 2 -24 19 -24 8 0 14 7 14 15 0 15 -21 21 -33 9z"/>
<path d="M8900 2425 l0 -85 55 0 c42 0 55 3 55 15 0 10 -11 15 -35 15 l-35 0
0 70 c0 63 -2 70 -20 70 -18 0 -20 -7 -20 -85z"/>
<path d="M10020 2426 c0 -69 3 -86 15 -86 10 0 15 16 17 63 l3 62 19 -62 c14
-46 24 -63 37 -63 12 0 23 17 37 63 l20 62 1 -62 c1 -49 4 -63 16 -63 12 0 15
16 15 85 0 82 -1 85 -23 85 -20 0 -27 -9 -42 -60 -10 -33 -22 -57 -26 -53 -4
4 -14 31 -22 58 -12 42 -18 50 -40 53 l-27 3 0 -85z"/>
<path d="M9716 2473 c-14 -18 -16 -28 -8 -31 7 -2 12 -19 12 -37 0 -18 3 -40
6 -49 8 -21 64 -22 64 -1 0 8 -9 15 -21 15 -17 0 -20 5 -17 38 2 28 7 37 21
36 9 -1 17 4 17 12 0 8 -9 14 -20 14 -11 0 -20 7 -20 15 0 22 -13 18 -34 -12z"/>
<path d="M9037 2463 c-3 -5 -4 -33 -3 -63 1 -44 5 -55 19 -58 15 -3 17 5 17
62 0 51 -3 66 -14 66 -8 0 -17 -3 -19 -7z"/>
<path d="M9110 2450 c-27 -51 -1 -116 43 -108 23 4 26 2 29 -26 2 -20 9 -31
18 -31 12 0 16 18 18 91 l3 91 -51 1 c-39 1 -52 -3 -60 -18z m73 -24 c11 -27
-4 -57 -27 -54 -36 5 -34 68 3 68 10 0 21 -6 24 -14z"/>
<path d="M9260 2417 c0 -57 12 -77 45 -77 12 0 26 5 33 12 9 9 12 9 12 0 0 -7
7 -12 15 -12 12 0 15 14 15 65 0 58 -2 65 -20 65 -17 0 -20 -7 -20 -50 0 -42
-3 -50 -19 -50 -22 0 -31 19 -31 66 0 24 -5 34 -15 34 -11 0 -15 -13 -15 -53z"/>
<path d="M9415 2458 c-2 -7 -3 -35 -2 -63 2 -38 6 -50 20 -53 15 -3 17 5 17
62 0 53 -3 66 -15 66 -9 0 -18 -6 -20 -12z"/>
<path d="M9640 2405 c0 -51 3 -65 15 -65 12 0 15 14 15 65 0 51 -3 65 -15 65
-12 0 -15 -14 -15 -65z"/>
<path d="M9822 2418 c32 -82 34 -98 9 -105 -23 -6 -29 -33 -7 -33 27 0 54 36
80 105 30 82 31 85 11 85 -9 0 -20 -12 -26 -27 -5 -16 -12 -35 -15 -43 -4 -10
-11 0 -21 28 -10 29 -20 42 -34 42 -18 0 -18 -2 3 -52z"/>
<path d="M10242 2405 c2 -55 5 -65 20 -65 15 0 18 9 18 65 0 58 -2 65 -20 65
-18 0 -20 -6 -18 -65z"/>
<path d="M10320 2403 c0 -49 3 -63 15 -63 10 0 15 10 15 34 0 19 3 41 6 50 8
22 44 20 45 -1 1 -10 2 -31 3 -48 1 -20 7 -31 19 -33 14 -3 17 5 17 51 0 31
-5 59 -12 65 -7 6 -34 10 -60 10 l-48 -1 0 -64z"/>
<path d="M10477 2463 c-2 -5 -4 -34 -5 -65 0 -51 2 -58 19 -58 17 0 19 7 19
65 0 50 -3 65 -14 65 -8 0 -17 -3 -19 -7z"/>
<path d="M10550 2403 c0 -47 4 -63 14 -63 9 0 15 16 19 46 2 25 9 50 15 56 13
13 43 -18 35 -37 -8 -23 6 -65 22 -65 11 0 15 12 15 46 0 70 -11 83 -70 82
l-50 -1 0 -64z"/>
<path d="M10711 2456 c-7 -8 -10 -34 -7 -65 3 -30 1 -51 -5 -51 -6 0 -9 -10
-7 -22 4 -30 49 -44 85 -26 52 25 35 77 -26 79 -23 0 -22 2 9 13 26 10 36 19
38 39 2 15 8 27 13 27 5 0 9 5 9 10 0 16 -96 12 -109 -4z m57 -29 c2 -12 -3
-17 -17 -17 -15 0 -21 6 -21 21 0 25 33 22 38 -4z m12 -102 c0 -10 -10 -15
-30 -15 -29 0 -38 9 -23 23 13 13 53 7 53 -8z"/>
<path d="M9439 2213 c-13 -16 -12 -17 3 -5 16 13 17 8 21 -55 l3 -68 2 73 c2
73 -5 86 -29 55z"/>
<path d="M9553 2223 c9 -2 25 -2 35 0 9 3 1 5 -18 5 -19 0 -27 -2 -17 -5z"/>
<path d="M9587 2167 c-15 -34 -27 -66 -27 -72 0 -5 14 21 31 58 17 38 29 70
27 72 -2 3 -16 -24 -31 -58z"/>
<path d="M9655 2219 c-11 -16 -1 -19 13 -3 7 8 8 14 3 14 -5 0 -13 -5 -16 -11z"/>
<path d="M9690 2226 c0 -2 7 -7 16 -10 8 -3 12 -2 9 4 -6 10 -25 14 -25 6z"/>
<path d="M9763 2215 c-3 -9 -3 -18 -1 -21 3 -3 8 4 11 16 6 23 -1 27 -10 5z"/>
<path d="M9795 2190 c0 -21 3 -36 8 -33 4 2 7 17 7 33 0 16 -3 31 -7 33 -5 3
-8 -12 -8 -33z"/>
<path d="M10010 2221 c0 -5 -3 -18 -6 -28 -6 -16 -5 -16 9 2 19 23 21 35 7 35
-5 0 -10 -4 -10 -9z"/>
<path d="M10102 2158 c0 -40 3 -58 5 -40 3 23 9 32 23 32 27 0 50 11 50 23 0
7 -4 7 -12 -1 -7 -7 -23 -12 -36 -12 -22 0 -24 4 -20 35 2 19 0 35 -4 35 -4 0
-7 -33 -6 -72z"/>
<path d="M10145 2223 c11 -3 24 -10 28 -17 6 -7 7 -6 4 4 -2 8 -14 16 -28 17
-19 1 -20 1 -4 -4z"/>
<path d="M10228 2223 c7 -3 16 -2 19 1 4 3 -2 6 -13 5 -11 0 -14 -3 -6 -6z"/>
<path d="M10273 2219 c9 -5 17 -18 18 -27 0 -11 2 -12 6 -4 6 15 -14 42 -31
42 -6 0 -3 -5 7 -11z"/>
<path d="M8968 2153 c-3 -44 -5 -48 -30 -51 -17 -2 -28 2 -31 13 -4 12 -5 11
-3 -2 1 -14 11 -18 39 -19 l37 -1 0 53 c0 67 -8 71 -12 7z"/>
<path d="M9060 2190 c8 -5 20 -10 25 -10 6 0 3 5 -5 10 -8 5 -19 10 -25 10 -5
0 -3 -5 5 -10z"/>
<path d="M9180 2157 c0 -45 13 -67 40 -66 9 0 5 4 -9 10 -20 8 -23 15 -19 54
2 25 0 45 -4 45 -5 0 -8 -19 -8 -43z"/>
<path d="M9308 2184 c38 -27 24 -89 -19 -82 -19 2 -25 11 -30 38 -6 35 -6 35
-8 5 -1 -36 14 -55 46 -55 24 0 43 26 43 58 0 19 -29 52 -46 52 -4 0 2 -7 14
-16z"/>
<path d="M9722 2168 c-3 -50 -11 -68 -32 -68 -23 0 -32 13 -41 60 -7 34 -7 34
-8 5 -2 -61 55 -100 79 -55 6 12 9 38 7 58 l-4 37 -1 -37z"/>
<path d="M9825 2170 c-9 -16 -13 -30 -11 -30 3 0 12 14 21 30 9 17 13 30 11
30 -3 0 -12 -13 -21 -30z"/>
<path d="M10035 2177 c6 -23 4 -27 -14 -27 -12 0 -21 5 -21 12 0 6 -2 9 -5 7
-8 -9 -35 -79 -30 -79 3 0 10 11 15 25 7 19 17 25 40 25 23 0 33 -6 40 -25 5
-14 12 -25 15 -25 5 0 -33 101 -42 110 -2 3 -2 -7 2 -23z"/>
<path d="M9011 2116 c1 -52 3 -63 9 -41 4 17 5 42 2 57 -2 16 0 34 7 41 8 10
7 14 -4 14 -12 0 -15 -15 -14 -71z"/>
<path d="M9760 2171 c0 -6 4 -13 10 -16 6 -3 7 1 4 9 -7 18 -14 21 -14 7z"/>
<path d="M9851 2166 c-19 -23 -10 -71 13 -71 11 0 20 6 22 13 1 7 0 8 -3 2 -2
-5 -11 -10 -19 -10 -17 0 -19 51 -2 68 7 7 9 12 6 12 -3 0 -11 -6 -17 -14z"/>
<path d="M9089 2140 c-3 -26 -10 -36 -29 -41 -22 -6 -22 -7 -4 -8 29 -1 46 22
42 56 -4 27 -4 26 -9 -7z"/>
<path d="M10220 2159 c0 -5 8 -9 18 -9 9 0 30 -14 45 -32 l28 -33 -21 36 c-13
23 -30 39 -45 42 -14 2 -25 0 -25 -4z"/>
<path d="M1156 2264 c-26 -25 -19 -34 29 -34 46 0 58 13 33 38 -17 17 -44 15
-62 -4z"/>
<path d="M1972 2201 c-20 -12 -10 -46 14 -49 24 -3 54 21 54 44 0 16 -46 19
-68 5z"/>
<path d="M2262 2268 c-24 -24 -13 -38 28 -38 26 0 40 5 40 13 0 18 -21 37 -40
37 -9 0 -21 -5 -28 -12z"/>
<path d="M2515 2263 c-20 -19 -15 -90 7 -104 40 -26 78 2 78 56 0 59 -47 86
-85 48z"/>
<path d="M3310 2270 c-10 -6 -15 -25 -15 -55 0 -47 13 -65 47 -65 40 0 63 64
38 111 -11 20 -45 25 -70 9z"/>
<path d="M3630 2261 c-24 -46 -5 -111 33 -111 13 0 28 5 35 12 16 16 16 90 0
106 -18 18 -56 14 -68 -7z"/>
<path d="M3815 2263 c-20 -19 -15 -90 7 -104 53 -34 101 39 68 102 -13 24 -53
25 -75 2z"/>
<path d="M4121 2196 c-16 -19 -3 -46 23 -46 27 0 46 18 46 42 0 22 -51 25 -69
4z"/>
<path d="M4497 2262 c-35 -38 -13 -112 33 -112 42 0 65 63 40 111 -13 24 -52
25 -73 1z"/>
<path d="M6826 2251 c-4 -7 -5 -15 -2 -18 9 -9 19 4 14 18 -4 11 -6 11 -12 0z"/>
<path d="M1146 1824 c-26 -25 -19 -34 29 -34 49 0 50 1 35 31 -13 23 -43 25
-64 3z"/>
<path d="M1852 1761 c-20 -12 -10 -46 14 -49 24 -3 54 21 54 44 0 16 -46 19
-68 5z"/>
<path d="M2216 1824 c-20 -20 -20 -63 0 -92 30 -44 84 -17 84 43 0 37 -21 65
-50 65 -10 0 -26 -7 -34 -16z"/>
<path d="M9280 1410 c0 -71 3 -90 14 -90 8 0 16 10 18 22 4 31 26 34 39 4 7
-14 20 -26 31 -26 22 0 23 13 3 30 -27 22 -28 50 -4 76 22 24 22 24 1 24 -11
0 -29 -11 -40 -25 -11 -14 -23 -25 -26 -25 -3 0 -6 23 -6 50 0 38 -4 50 -15
50 -12 0 -15 -17 -15 -90z"/>
<path d="M9430 1485 c0 -8 7 -15 15 -15 8 0 15 7 15 15 0 8 -7 15 -15 15 -8 0
-15 -7 -15 -15z"/>
<path d="M8914 1483 c-29 -21 -24 -46 17 -84 34 -31 39 -40 25 -45 -9 -3 -28
-3 -42 0 -21 6 -25 4 -22 -11 4 -22 57 -30 88 -13 32 17 23 60 -17 85 -41 26
-42 43 0 47 17 2 32 8 32 13 0 12 -66 18 -81 8z"/>
<path d="M9039 1458 c-14 -26 -12 -93 3 -121 6 -12 18 -17 35 -15 32 4 44 28
14 28 -18 0 -21 6 -21 40 0 29 4 40 15 40 8 0 15 5 15 10 0 6 -7 10 -15 10 -8
0 -15 7 -15 15 0 22 -18 18 -31 -7z"/>
<path d="M9145 1440 c-7 -11 -3 -12 34 -14 32 -1 40 -26 9 -26 -36 0 -60 -22
-56 -51 3 -22 8 -24 56 -24 l52 -1 0 51 c0 28 -5 56 -12 63 -15 15 -74 16 -83
2z m65 -69 c0 -5 -7 -14 -15 -21 -18 -15 -42 1 -31 19 8 13 46 15 46 2z"/>
<path d="M9430 1385 c0 -51 3 -65 15 -65 12 0 15 14 15 65 0 51 -3 65 -15 65
-12 0 -15 -14 -15 -65z"/>
<path d="M9500 1383 c0 -49 3 -63 15 -63 10 0 15 10 15 34 0 47 9 66 31 66 19
0 21 -5 23 -65 1 -20 7 -31 19 -33 14 -3 17 4 17 51 0 31 -5 59 -12 65 -7 6
-34 10 -60 10 l-48 -1 0 -64z"/>
<path d="M9658 1425 c-8 -18 -8 -28 0 -38 11 -13 6 -53 -10 -73 -26 -34 40
-66 89 -42 51 24 35 78 -24 78 -13 0 -23 5 -23 10 0 6 11 10 25 10 25 0 51 32
40 50 -3 6 -1 10 4 10 6 0 11 5 11 10 0 6 -23 10 -50 10 -44 0 -52 -3 -62 -25z
m62 -15 c0 -11 -6 -20 -13 -20 -19 0 -27 10 -20 26 8 21 33 17 33 -6z m18
-107 c2 -9 -8 -13 -32 -13 -34 0 -44 8 -29 24 11 11 56 2 61 -11z"/>
<path d="M9461 1178 c-13 -21 -13 -22 2 -10 14 12 16 7 20 -50 l3 -63 2 73 c2
76 -4 87 -27 50z"/>
<path d="M9542 1163 c1 -37 1 -37 5 -6 4 27 9 32 36 36 31 4 31 4 -5 5 -38 2
-38 2 -36 -35z"/>
<path d="M9675 1190 c3 -5 8 -10 11 -10 2 0 4 5 4 10 0 6 -5 10 -11 10 -5 0
-7 -4 -4 -10z"/>
<path d="M9891 1174 c-6 -15 -10 -29 -7 -31 2 -2 7 6 11 18 l7 22 15 -24 14
-24 -7 25 c-10 39 -19 43 -33 14z"/>
<path d="M10030 1191 c19 -5 25 -14 25 -33 -1 -15 3 -24 7 -22 12 8 10 38 -4
52 -7 7 -21 12 -32 11 -18 -1 -17 -2 4 -8z"/>
<path d="M10090 1197 c0 -4 8 -22 17 -40 9 -18 20 -48 24 -67 l7 -35 1 33 c0
18 6 43 12 55 9 21 9 21 -5 4 -14 -18 -16 -17 -35 20 -11 21 -20 34 -21 30z"/>
<path d="M9642 1160 c0 -14 2 -19 5 -12 2 6 2 18 0 25 -3 6 -5 1 -5 -13z"/>
<path d="M9180 1127 c0 -45 13 -67 40 -66 9 0 6 4 -7 9 -19 8 -23 17 -23 49 0
22 5 42 13 44 7 3 5 6 -5 6 -15 1 -18 -7 -18 -42z"/>
<path d="M9683 1144 c-6 -13 -7 -24 -3 -24 9 0 25 39 18 45 -2 2 -8 -7 -15
-21z"/>
<path d="M8904 1110 c1 -45 1 -45 39 -46 l37 -1 -2 51 -1 51 -6 -45 c-5 -40
-9 -45 -33 -48 -25 -3 -27 0 -31 40 l-4 43 1 -45z"/>
<path d="M9011 1086 c1 -52 3 -63 9 -41 4 17 5 42 2 57 -2 16 0 34 7 41 8 10
7 14 -4 14 -12 0 -15 -15 -14 -71z"/>
<path d="M9320 1144 c8 -13 10 -32 6 -48 -5 -22 -11 -27 -34 -24 -22 2 -28 9
-33 38 -6 35 -6 35 -8 5 -1 -36 14 -55 44 -55 12 0 26 5 33 12 17 17 15 63 -5
79 -15 13 -15 12 -3 -7z"/>
<path d="M9757 1140 c6 -8 13 -26 16 -40 l4 -25 2 26 c0 15 -7 33 -16 40 -16
12 -17 12 -6 -1z"/>
<path d="M9089 1110 c-3 -26 -10 -36 -29 -41 -22 -6 -22 -7 -4 -8 29 -1 46 22
42 56 -4 27 -4 26 -9 -7z"/>
<path d="M9600 1124 c19 -31 6 -54 -32 -55 -31 -2 -32 -2 -5 -6 50 -8 77 38
40 68 -15 13 -15 12 -3 -7z"/>
<path d="M9700 1120 c-6 -11 -8 -20 -6 -20 3 0 10 9 16 20 6 11 8 20 6 20 -3
0 -10 -9 -16 -20z"/>
<path d="M9990 1125 c0 -8 9 -10 25 -7 14 2 25 6 25 7 0 1 -11 5 -25 7 -16 3
-25 1 -25 -7z"/>
<path d="M9859 1097 c-6 -15 -9 -30 -7 -33 3 -3 8 7 12 21 5 21 12 25 41 25
20 0 35 -5 35 -12 0 -6 3 -9 6 -5 13 13 -13 32 -43 32 -26 0 -35 -5 -44 -28z"/>
<path d="M9415 1110 c-3 -5 -1 -10 4 -10 6 0 11 5 11 10 0 6 -2 10 -4 10 -3 0
-8 -4 -11 -10z"/>
<path d="M9733 1080 c2 -8 12 -16 23 -17 13 -2 15 -1 4 4 -8 3 -19 11 -23 17
-6 7 -7 6 -4 -4z"/>
<path d="M6650 1006 c0 -9 30 -14 35 -6 4 6 -3 10 -14 10 -12 0 -21 -2 -21 -4z"/>
<path d="M6671 944 c0 -11 3 -14 6 -6 3 7 2 16 -1 19 -3 4 -6 -2 -5 -13z"/>
<path d="M6980 1015 c0 -8 5 -15 10 -15 6 0 10 7 10 15 0 8 -4 15 -10 15 -5 0
-10 -7 -10 -15z"/>
<path d="M2165 910 c3 -5 8 -10 11 -10 2 0 4 5 4 10 0 6 -5 10 -11 10 -5 0 -7
-4 -4 -10z"/>
<path d="M2768 903 c6 -3 12 -21 12 -41 0 -33 3 -37 26 -38 25 -2 25 -2 5 13
-25 17 -27 48 -5 61 12 7 8 9 -18 9 -18 1 -27 -1 -20 -4z"/>
<path d="M1140 876 c0 -8 4 -17 8 -20 4 -2 8 4 8 15 0 10 -4 19 -8 19 -4 0 -8
-6 -8 -14z"/>
<path d="M1313 876 c-9 -11 -9 -18 1 -31 11 -16 13 -14 13 14 0 17 -1 31 -1
31 -1 -1 -6 -7 -13 -14z"/>
<path d="M1736 875 c-11 -8 -15 -15 -9 -15 5 0 14 -10 20 -22 6 -15 12 -18 17
-10 4 7 3 12 -2 12 -5 0 -7 11 -4 25 5 29 4 29 -22 10z"/>
<path d="M1379 832 c-2 -32 0 -52 6 -52 7 0 9 16 7 38 -6 65 -8 68 -13 14z"/>
<path d="M2880 870 c-11 -7 -12 -12 -4 -17 7 -5 14 -17 17 -28 3 -11 4 -3 3
17 0 21 -1 38 -1 38 0 0 -7 -5 -15 -10z"/>
<path d="M1206 833 c6 -32 14 -44 14 -20 0 10 5 17 11 17 8 0 8 5 -1 15 -19
23 -29 18 -24 -12z"/>
<path d="M1441 823 c0 -31 2 -34 9 -18 12 28 12 55 0 55 -5 0 -10 -17 -9 -37z"/>
<path d="M1637 841 c-3 -12 -1 -21 3 -21 15 0 23 21 12 32 -6 6 -11 2 -15 -11z"/>
<path d="M1847 840 c3 -11 7 -20 9 -20 2 0 4 9 4 20 0 11 -4 20 -9 20 -5 0 -7
-9 -4 -20z"/>
<path d="M2090 845 c0 -8 4 -15 8 -15 5 0 9 7 9 15 0 8 -4 15 -9 15 -4 0 -8
-7 -8 -15z"/>
<path d="M2621 824 c0 -11 3 -14 6 -6 3 7 2 16 -1 19 -3 4 -6 -2 -5 -13z"/>
</g>
</svg>
