<svg width="491" height="386" viewBox="0 0 491 386" fill="none" xmlns="http://www.w3.org/2000/svg">
<g clip-path="url(#clip0_967_771)">
<rect x="343.303" y="1.86084" width="146.963" height="323.634" rx="15" fill="white" stroke="#E3E7ED" stroke-width="3"/>
<path d="M152.761 1.86084H17.3093C9.02505 1.86084 2.30933 8.57656 2.30933 16.8608V142.386C2.30933 150.67 9.02503 157.386 17.3093 157.386H152.761C161.046 157.386 167.761 150.67 167.761 142.386V16.8608C167.761 8.57657 161.046 1.86084 152.761 1.86084Z" stroke="#0A355C" stroke-width="3" stroke-miterlimit="10"/>
<path d="M152.639 95.4073V92.76L132.553 84.5205L110.614 93.8851V97.0949L132.553 87.6972L152.639 95.4073Z" fill="#0A355C"/>
<path d="M152.573 101.893V99.2792L132.454 91.0066L110.548 100.404V103.581L132.454 94.2164L152.573 101.893Z" fill="#0A355C"/>
<path d="M110.614 106.824V110L132.52 100.636L152.639 108.313V105.698L132.52 97.459L110.614 106.824Z" fill="#0A355C"/>
<path d="M152.54 114.798V112.184L132.454 103.945L110.515 113.309V116.486L132.454 107.121L152.54 114.798Z" fill="#0A355C"/>
<path d="M110.548 119.928V123.104L132.487 113.74L152.573 121.417V118.802L132.487 110.563L110.548 119.928Z" fill="#0A355C"/>
<path d="M152.507 127.935V125.288L132.388 117.048L110.482 126.413V129.623L132.388 120.225L152.507 127.935Z" fill="#0A355C"/>
<path d="M110.548 132.766V135.943L132.454 126.579L152.573 134.255V131.641L132.454 123.402L110.548 132.766Z" fill="#0A355C"/>
<path d="M152.474 140.741V138.127L132.388 129.887L110.449 139.252V142.429L132.388 133.064L152.474 140.741Z" fill="#0A355C"/>
<path d="M110.482 145.87V149.047L132.421 139.682L152.507 147.359V144.745L132.421 136.506L110.482 145.87Z" fill="#0A355C"/>
<path d="M152.441 153.878V151.231L132.322 142.991L110.416 152.356V155.566L132.322 146.168L152.441 153.878Z" fill="#0A355C"/>
<path d="M57.6694 110.232V108.015L41.422 101L23.6855 108.941V111.655L41.422 103.713L57.6694 110.232Z" fill="#0A355C"/>
<path d="M23.719 114.401V117.115L41.4554 109.173L57.7359 115.692V113.442L41.4554 106.459L23.719 114.401Z" fill="#0A355C"/>
<path d="M57.6695 121.185V118.968L41.389 111.952L23.6526 119.894V122.607L41.389 114.666L57.6695 121.185Z" fill="#0A355C"/>
<path d="M23.6855 125.52V128.233L41.422 120.258L57.7025 126.777V124.56L41.422 117.578L23.6855 125.52Z" fill="#0A355C"/>
<path d="M57.6037 132.303V130.053L41.3563 123.071L23.6199 131.013V133.726L41.3563 125.784L57.6037 132.303Z" fill="#0A355C"/>
<path d="M23.6855 136.406V139.087L41.422 131.145L57.6694 137.664V135.447L41.422 128.431L23.6855 136.406Z" fill="#0A355C"/>
<path d="M57.6037 143.157V140.94L41.3563 133.958L23.6199 141.9V144.58L41.3563 136.638L57.6037 143.157Z" fill="#0A355C"/>
<path d="M23.6526 147.492V150.205L41.389 142.263L57.6364 148.782V146.532L41.389 139.55L23.6526 147.492Z" fill="#0A355C"/>
<path d="M57.5702 154.275V152.058L41.3229 145.043L23.5864 153.018V155.698L41.3229 147.756L57.5702 154.275Z" fill="#0A355C"/>
<path d="M151.448 156.426L132.818 150.37L118.026 156.426H103.136L84.3073 150.37L66.9018 156.426H57.5703L40.7273 150.37L25.1748 156.426H17.8618V158.047H156.974V156.426H151.448Z" fill="#0A355C"/>
<path d="M109.059 70.0269V66.9164L85.3662 57.2209L59.5557 68.24V72.0123L85.3662 60.9932L109.059 70.0269Z" fill="#F5516C"/>
<path d="M108.96 77.671V74.5605L85.2668 64.865L59.4563 75.8841V79.6564L85.2668 68.6042L108.96 77.671Z" fill="#F5516C"/>
<path d="M59.4895 83.6602V87.4325L85.3331 76.3803L109.026 85.4471V82.3366L85.3331 72.6411L59.4895 83.6602Z" fill="#F5516C"/>
<path d="M108.927 93.0911V89.9806L85.234 80.2852L59.3904 91.3042V95.0765L85.234 84.0244L108.927 93.0911Z" fill="#F5516C"/>
<path d="M59.4563 98.8816V102.621L85.2999 91.6018L108.993 100.635V97.558L85.2999 87.8625L59.4563 98.8816Z" fill="#F5516C"/>
<path d="M108.893 108.28V105.202L85.2008 95.4736L59.3572 106.526V110.265L85.2008 99.2459L108.893 108.28Z" fill="#F5516C"/>
<path d="M59.4233 114.302V118.041L85.2669 107.022L108.927 116.056V112.978L85.2669 103.283L59.4233 114.302Z" fill="#F5516C"/>
<path d="M108.827 123.7V120.622L85.1678 110.894L59.3242 121.946V125.685L85.1678 114.666L108.827 123.7Z" fill="#F5516C"/>
<path d="M59.3904 129.391V133.13L85.234 122.111L108.927 131.145V128.067L85.234 118.372L59.3904 129.391Z" fill="#F5516C"/>
<path d="M108.828 138.789V135.711L85.1348 126.016L59.2913 137.035V140.774L85.1348 129.755L108.828 138.789Z" fill="#F5516C"/>
<path d="M59.3572 144.811V148.55L85.1677 137.531L108.86 146.565V143.487L85.1677 133.792L59.3572 144.811Z" fill="#F5516C"/>
<path d="M108.761 154.209V151.131L85.0686 141.436L59.2581 152.455V156.194L85.0686 145.175L108.761 154.209Z" fill="#F5516C"/>
<path d="M101.117 50.8348V48.717L85.3 42.0327L68.093 49.6435V52.2246L85.3 44.6138L101.117 50.8348Z" fill="#F5516C"/>
<path d="M101.051 56.1288V53.978L85.2339 47.2937L68.0269 54.9045V57.4855L85.2339 49.8748L101.051 56.1288Z" fill="#F5516C"/>
<path d="M68.093 60.133V62.7141L85.3 55.1033L101.084 61.3243V59.2065L85.3 52.5222L68.093 60.133Z" fill="#F5516C"/>
<path d="M96.9148 37.433V35.9109L85.2339 31.179L72.4941 36.5727V38.3927L85.2339 32.9989L96.9148 37.433Z" fill="#F5516C"/>
<path d="M96.8488 41.1723V39.6501L85.201 34.9182L72.4612 40.3119V42.1319L85.201 36.7382L96.8488 41.1723Z" fill="#F5516C"/>
<path d="M72.4941 44.0178V45.8377L85.2339 40.444L96.8817 44.8781V43.3559L85.2339 38.624L72.4941 44.0178Z" fill="#F5516C"/>
<path fill-rule="evenodd" clip-rule="evenodd" d="M406.642 46.231C406.642 45.1264 407.537 44.231 408.642 44.231H441.784C442.889 44.231 443.784 45.1264 443.784 46.231V46.6825C443.784 47.787 442.889 48.6825 441.784 48.6825H408.642C407.537 48.6825 406.642 47.787 406.642 46.6825V46.231ZM408.642 50.8039C407.537 50.8039 406.642 51.6993 406.642 52.8039V53.0009C410.197 52.9946 413.789 53.7257 417.181 55.2554H441.784C442.889 55.2554 443.784 54.36 443.784 53.2554V52.8039C443.784 51.6993 442.889 50.8039 441.784 50.8039H408.642ZM425.95 61.8286C424.52 60.1591 422.856 58.6569 420.974 57.3771H441.784C442.889 57.3771 443.784 58.2725 443.784 59.3771V59.8286C443.784 60.9332 442.889 61.8286 441.784 61.8286H425.95ZM430.033 68.4013C429.367 66.8464 428.547 65.3538 427.581 63.9497H441.784C442.889 63.9497 443.784 64.8452 443.784 65.9497V66.4013C443.784 67.5058 442.889 68.4013 441.784 68.4013H430.033ZM431.872 74.9742C431.658 73.462 431.31 71.9718 430.834 70.5227H441.784C442.889 70.5227 443.784 71.4181 443.784 72.5227V72.9742C443.784 74.0788 442.889 74.9742 441.784 74.9742H431.872ZM431.955 81.5471C432.128 80.0628 432.169 78.5732 432.083 77.0956H441.784C442.889 77.0956 443.784 77.991 443.784 79.0956V79.5471C443.784 80.6517 442.889 81.5471 441.784 81.5471H431.955ZM430.273 88.1198C430.864 86.6625 431.31 85.1725 431.616 83.6683H441.784C442.889 83.6683 443.784 84.5637 443.784 85.6683V86.1198C443.784 87.2244 442.889 88.1198 441.784 88.1198H430.273ZM426.37 94.6925C427.237 93.6361 428.028 92.4955 428.733 91.2739C428.93 90.9322 429.118 90.5878 429.297 90.241H441.784C442.889 90.241 443.784 91.1364 443.784 92.241V92.6925C443.784 93.797 442.889 94.6925 441.784 94.6925H426.37ZM418.115 101.265C420.405 100.123 422.536 98.6319 424.415 96.8139H441.784C442.889 96.8139 443.784 97.7093 443.784 98.8139V99.2654C443.784 100.37 442.889 101.265 441.784 101.265H418.115Z" fill="#F5516C"/>
<path fill-rule="evenodd" clip-rule="evenodd" d="M395.177 98.2805C406.097 104.57 420.163 100.87 426.455 89.9557C432.748 79.041 428.954 64.9813 418.127 58.6914C407.207 52.4016 393.141 56.1015 386.849 67.0162C380.556 77.931 384.258 91.9907 395.177 98.2805ZM406.801 75.9841V62.5698C415.642 62.5698 422.778 69.7028 422.671 78.5392C422.671 87.3757 415.535 94.5087 406.695 94.5087V81.0944L404.458 83.3301C404.352 84.6076 404.139 88.2274 404.139 88.2274L406.162 94.5087C404.884 94.5087 403.606 94.2958 402.434 93.9764L401.369 90.889L398.493 92.273C397.322 91.6342 396.363 90.7825 395.405 89.9308L400.73 87.2692L400.943 84.0753L397.748 84.2883L395.085 89.6114C394.127 88.7597 393.381 87.6951 392.742 86.6304L394.233 83.7559L391.144 82.6913C390.825 81.4137 390.612 80.1362 390.612 78.8586L397.002 80.8814L402.115 80.6685L404.245 78.5392L402.115 76.41L397.002 76.1971L390.612 78.2199C390.612 76.8358 390.825 75.5583 391.144 74.3872L394.34 73.3225L392.848 70.3416C393.487 69.1705 394.34 68.2124 395.192 67.2542L395.192 67.2541L397.854 72.5773L401.05 72.7902L400.837 69.5963L395.511 66.9348C396.47 65.9766 397.535 65.2313 398.6 64.5926L401.582 66.083L402.647 62.9956C403.819 62.6762 405.097 62.4633 406.375 62.4633L404.245 68.8511C404.245 68.8511 404.458 72.4708 404.565 73.7484L406.801 75.9841ZM410.423 66.6154V90.4631C414.257 89.6114 419.582 85.14 419.369 78.1134C419.156 71.7256 414.257 67.4671 410.423 66.6154Z" fill="#F5516C"/>
<path d="M387.417 126.126C387.417 125.834 387.372 125.572 387.282 125.34C387.2 125.101 387.042 124.883 386.81 124.689C386.578 124.487 386.253 124.288 385.833 124.094C385.414 123.899 384.871 123.697 384.205 123.487C383.464 123.247 382.76 122.978 382.094 122.678C381.435 122.379 380.851 122.031 380.342 121.634C379.84 121.23 379.443 120.762 379.151 120.23C378.867 119.699 378.724 119.081 378.724 118.377C378.724 117.696 378.874 117.078 379.174 116.524C379.473 115.963 379.892 115.483 380.431 115.087C380.971 114.682 381.607 114.372 382.341 114.155C383.082 113.937 383.894 113.829 384.778 113.829C385.983 113.829 387.035 114.046 387.933 114.48C388.832 114.914 389.528 115.51 390.022 116.266C390.524 117.022 390.775 117.887 390.775 118.86H387.428C387.428 118.381 387.327 117.962 387.125 117.602C386.93 117.235 386.631 116.947 386.226 116.738C385.83 116.528 385.328 116.423 384.721 116.423C384.138 116.423 383.651 116.513 383.262 116.693C382.872 116.865 382.58 117.101 382.386 117.4C382.191 117.692 382.094 118.022 382.094 118.388C382.094 118.665 382.161 118.916 382.296 119.141C382.438 119.365 382.648 119.575 382.925 119.77C383.202 119.964 383.542 120.148 383.947 120.32C384.351 120.492 384.819 120.661 385.35 120.825C386.241 121.095 387.024 121.398 387.698 121.735C388.379 122.072 388.948 122.45 389.405 122.869C389.861 123.289 390.206 123.764 390.438 124.296C390.67 124.827 390.786 125.43 390.786 126.104C390.786 126.815 390.647 127.451 390.37 128.013C390.093 128.574 389.693 129.05 389.169 129.439C388.645 129.829 388.02 130.124 387.293 130.326C386.567 130.529 385.755 130.63 384.856 130.63C384.048 130.63 383.25 130.525 382.464 130.315C381.678 130.098 380.963 129.772 380.319 129.338C379.683 128.904 379.174 128.35 378.792 127.676C378.41 127.002 378.219 126.205 378.219 125.284H381.599C381.599 125.793 381.678 126.224 381.835 126.575C381.992 126.927 382.213 127.212 382.498 127.429C382.79 127.646 383.134 127.803 383.531 127.901C383.935 127.998 384.377 128.047 384.856 128.047C385.44 128.047 385.919 127.964 386.294 127.8C386.676 127.635 386.956 127.406 387.136 127.115C387.323 126.823 387.417 126.493 387.417 126.126ZM398.827 118.254V120.545H391.752V118.254H398.827ZM393.504 115.255H396.738V126.744C396.738 127.096 396.783 127.365 396.873 127.552C396.97 127.74 397.112 127.871 397.3 127.946C397.487 128.013 397.723 128.047 398.007 128.047C398.209 128.047 398.389 128.039 398.546 128.024C398.711 128.002 398.849 127.979 398.962 127.957L398.973 130.338C398.696 130.427 398.396 130.499 398.075 130.551C397.753 130.603 397.397 130.63 397.008 130.63C396.296 130.63 395.675 130.514 395.143 130.281C394.619 130.042 394.215 129.66 393.93 129.136C393.646 128.612 393.504 127.923 393.504 127.07V115.255ZM407.227 127.665V122.252C407.227 121.862 407.164 121.529 407.036 121.252C406.909 120.968 406.711 120.747 406.441 120.59C406.179 120.432 405.839 120.354 405.419 120.354C405.06 120.354 404.749 120.417 404.487 120.545C404.225 120.664 404.023 120.84 403.881 121.073C403.738 121.297 403.667 121.563 403.667 121.87H400.433C400.433 121.353 400.553 120.863 400.792 120.399C401.032 119.934 401.38 119.526 401.837 119.175C402.293 118.815 402.836 118.534 403.465 118.332C404.102 118.13 404.813 118.029 405.599 118.029C406.542 118.029 407.381 118.186 408.115 118.501C408.848 118.815 409.425 119.287 409.844 119.916C410.271 120.545 410.484 121.331 410.484 122.274V127.474C410.484 128.14 410.525 128.687 410.608 129.114C410.69 129.533 410.81 129.9 410.967 130.214V130.405H407.699C407.542 130.076 407.422 129.664 407.34 129.17C407.265 128.668 407.227 128.166 407.227 127.665ZM407.654 123.004L407.677 124.835H405.868C405.442 124.835 405.071 124.883 404.757 124.981C404.442 125.078 404.184 125.217 403.982 125.396C403.78 125.568 403.63 125.771 403.533 126.003C403.443 126.235 403.398 126.489 403.398 126.766C403.398 127.043 403.461 127.294 403.589 127.519C403.716 127.736 403.899 127.908 404.139 128.035C404.379 128.155 404.659 128.215 404.981 128.215C405.468 128.215 405.891 128.118 406.25 127.923C406.61 127.728 406.887 127.489 407.081 127.204C407.284 126.92 407.388 126.65 407.396 126.396L408.249 127.766C408.13 128.073 407.965 128.391 407.755 128.72C407.553 129.05 407.295 129.361 406.98 129.653C406.666 129.937 406.288 130.173 405.846 130.36C405.404 130.54 404.88 130.63 404.274 130.63C403.503 130.63 402.803 130.476 402.174 130.169C401.552 129.855 401.058 129.424 400.691 128.878C400.332 128.324 400.152 127.695 400.152 126.991C400.152 126.355 400.272 125.789 400.512 125.295C400.751 124.801 401.103 124.385 401.567 124.049C402.039 123.704 402.627 123.446 403.33 123.274C404.034 123.094 404.85 123.004 405.779 123.004H407.654ZM416.212 113.144V130.405H412.977V113.144H416.212ZM423.871 118.254L418.593 124.273L415.763 127.137L414.583 124.801L416.829 121.948L419.985 118.254H423.871ZM420.513 130.405L416.919 124.79L419.154 122.836L424.242 130.405H420.513ZM428.678 118.254V130.405H425.432V118.254H428.678ZM425.23 115.087C425.23 114.615 425.395 114.226 425.724 113.919C426.053 113.612 426.495 113.458 427.049 113.458C427.596 113.458 428.034 113.612 428.363 113.919C428.7 114.226 428.868 114.615 428.868 115.087C428.868 115.558 428.7 115.948 428.363 116.255C428.034 116.562 427.596 116.715 427.049 116.715C426.495 116.715 426.053 116.562 425.724 116.255C425.395 115.948 425.23 115.558 425.23 115.087ZM434.517 120.848V130.405H431.283V118.254H434.315L434.517 120.848ZM434.046 123.903H433.17C433.17 123.004 433.286 122.196 433.518 121.477C433.75 120.751 434.076 120.133 434.495 119.624C434.914 119.107 435.412 118.714 435.989 118.445C436.573 118.168 437.224 118.029 437.943 118.029C438.512 118.029 439.032 118.111 439.504 118.276C439.975 118.441 440.38 118.703 440.717 119.062C441.061 119.422 441.323 119.897 441.503 120.489C441.69 121.08 441.784 121.802 441.784 122.656V130.405H438.527V122.645C438.527 122.106 438.452 121.686 438.302 121.387C438.152 121.087 437.931 120.878 437.639 120.758C437.355 120.631 437.003 120.567 436.584 120.567C436.15 120.567 435.771 120.653 435.45 120.825C435.135 120.998 434.873 121.237 434.663 121.544C434.461 121.844 434.308 122.196 434.203 122.6C434.098 123.004 434.046 123.438 434.046 123.903ZM451.936 118.254H454.867V130.001C454.867 131.109 454.62 132.048 454.126 132.82C453.639 133.598 452.958 134.186 452.082 134.583C451.206 134.987 450.188 135.189 449.027 135.189C448.518 135.189 447.979 135.122 447.41 134.987C446.848 134.852 446.309 134.643 445.793 134.358C445.284 134.074 444.857 133.714 444.513 133.28L445.939 131.371C446.313 131.805 446.747 132.142 447.242 132.382C447.736 132.629 448.282 132.752 448.881 132.752C449.465 132.752 449.959 132.644 450.364 132.427C450.768 132.217 451.079 131.906 451.296 131.494C451.513 131.09 451.621 130.6 451.621 130.023V121.061L451.936 118.254ZM443.76 124.475V124.24C443.76 123.311 443.872 122.469 444.097 121.713C444.329 120.949 444.655 120.294 445.074 119.747C445.501 119.201 446.017 118.778 446.624 118.478C447.23 118.179 447.915 118.029 448.679 118.029C449.488 118.029 450.165 118.179 450.712 118.478C451.258 118.778 451.707 119.205 452.059 119.759C452.411 120.305 452.685 120.953 452.879 121.701C453.081 122.443 453.239 123.255 453.351 124.138V124.655C453.239 125.501 453.07 126.287 452.846 127.013C452.621 127.74 452.325 128.376 451.958 128.923C451.591 129.462 451.135 129.881 450.588 130.18C450.049 130.48 449.405 130.63 448.657 130.63C447.908 130.63 447.23 130.476 446.624 130.169C446.025 129.862 445.512 129.432 445.085 128.878C444.659 128.324 444.329 127.672 444.097 126.924C443.872 126.175 443.76 125.359 443.76 124.475ZM446.994 124.24V124.475C446.994 124.977 447.043 125.445 447.14 125.879C447.238 126.313 447.388 126.699 447.59 127.036C447.799 127.365 448.058 127.624 448.365 127.811C448.679 127.99 449.05 128.08 449.476 128.08C450.068 128.08 450.551 127.957 450.925 127.71C451.299 127.455 451.58 127.107 451.767 126.665C451.955 126.224 452.063 125.714 452.093 125.138V123.667C452.078 123.195 452.014 122.772 451.902 122.398C451.79 122.016 451.633 121.69 451.43 121.421C451.228 121.151 450.966 120.941 450.644 120.792C450.322 120.642 449.941 120.567 449.499 120.567C449.072 120.567 448.701 120.664 448.387 120.859C448.08 121.046 447.822 121.305 447.612 121.634C447.41 121.963 447.256 122.353 447.152 122.802C447.047 123.244 446.994 123.723 446.994 124.24Z" fill="#0A355C"/>
<path d="M196.994 375.309H202.463C202.39 376.892 201.963 378.288 201.182 379.496C200.4 380.704 199.317 381.647 197.932 382.324C196.557 382.991 194.932 383.324 193.057 383.324C191.536 383.324 190.176 383.069 188.979 382.559C187.791 382.048 186.781 381.314 185.947 380.355C185.124 379.397 184.494 378.236 184.057 376.871C183.63 375.507 183.416 373.97 183.416 372.262V371.027C183.416 369.319 183.64 367.783 184.088 366.418C184.546 365.043 185.192 363.876 186.025 362.918C186.869 361.949 187.88 361.21 189.057 360.699C190.234 360.189 191.541 359.934 192.979 359.934C194.958 359.934 196.63 360.288 197.994 360.996C199.359 361.704 200.416 362.678 201.166 363.918C201.916 365.147 202.359 366.548 202.494 368.121H197.025C197.005 367.267 196.859 366.553 196.588 365.98C196.317 365.397 195.89 364.96 195.307 364.668C194.723 364.376 193.947 364.23 192.979 364.23C192.301 364.23 191.713 364.355 191.213 364.605C190.713 364.855 190.296 365.251 189.963 365.793C189.63 366.335 189.38 367.038 189.213 367.902C189.057 368.757 188.979 369.788 188.979 370.996V372.262C188.979 373.47 189.051 374.501 189.197 375.355C189.343 376.21 189.577 376.908 189.9 377.449C190.223 377.991 190.64 378.392 191.15 378.652C191.671 378.902 192.307 379.027 193.057 379.027C193.89 379.027 194.593 378.897 195.166 378.637C195.739 378.366 196.182 377.96 196.494 377.418C196.807 376.866 196.973 376.163 196.994 375.309ZM213.588 378.762V371.793C213.588 371.314 213.52 370.902 213.385 370.559C213.249 370.215 213.036 369.949 212.744 369.762C212.452 369.564 212.062 369.465 211.572 369.465C211.176 369.465 210.838 369.533 210.557 369.668C210.275 369.803 210.062 370.007 209.916 370.277C209.77 370.548 209.697 370.892 209.697 371.309H204.432C204.432 370.527 204.604 369.803 204.947 369.137C205.301 368.46 205.801 367.871 206.447 367.371C207.104 366.871 207.885 366.486 208.791 366.215C209.708 365.934 210.729 365.793 211.854 365.793C213.197 365.793 214.395 366.017 215.447 366.465C216.51 366.913 217.348 367.585 217.963 368.48C218.577 369.366 218.885 370.48 218.885 371.824V378.746C218.885 379.85 218.947 380.689 219.072 381.262C219.197 381.824 219.374 382.319 219.604 382.746V383.012H214.322C214.072 382.491 213.885 381.855 213.76 381.105C213.645 380.345 213.588 379.564 213.588 378.762ZM214.229 372.684L214.26 375.496H211.932C211.442 375.496 211.025 375.564 210.682 375.699C210.348 375.835 210.077 376.022 209.869 376.262C209.671 376.491 209.525 376.751 209.432 377.043C209.348 377.335 209.307 377.642 209.307 377.965C209.307 378.277 209.38 378.559 209.525 378.809C209.682 379.048 209.89 379.236 210.15 379.371C210.411 379.507 210.702 379.574 211.025 379.574C211.609 379.574 212.104 379.465 212.51 379.246C212.926 379.017 213.244 378.741 213.463 378.418C213.682 378.095 213.791 377.793 213.791 377.512L214.947 379.668C214.739 380.085 214.499 380.507 214.229 380.934C213.968 381.361 213.64 381.757 213.244 382.121C212.859 382.475 212.385 382.767 211.822 382.996C211.26 383.215 210.577 383.324 209.775 383.324C208.734 383.324 207.775 383.111 206.9 382.684C206.036 382.257 205.343 381.663 204.822 380.902C204.301 380.132 204.041 379.246 204.041 378.246C204.041 377.371 204.197 376.59 204.51 375.902C204.833 375.215 205.317 374.632 205.963 374.152C206.609 373.673 207.432 373.309 208.432 373.059C209.432 372.809 210.609 372.684 211.963 372.684H214.229ZM230.666 378.262C230.666 377.97 230.567 377.72 230.369 377.512C230.182 377.293 229.848 377.095 229.369 376.918C228.89 376.73 228.218 376.543 227.354 376.355C226.531 376.178 225.755 375.944 225.025 375.652C224.307 375.361 223.676 375.007 223.135 374.59C222.593 374.173 222.166 373.678 221.854 373.105C221.551 372.533 221.4 371.876 221.4 371.137C221.4 370.418 221.551 369.741 221.854 369.105C222.166 368.46 222.619 367.892 223.213 367.402C223.817 366.902 224.551 366.512 225.416 366.23C226.281 365.939 227.265 365.793 228.369 365.793C229.89 365.793 231.202 366.027 232.307 366.496C233.411 366.954 234.26 367.6 234.854 368.434C235.458 369.257 235.76 370.21 235.76 371.293H230.494C230.494 370.866 230.421 370.501 230.275 370.199C230.14 369.897 229.916 369.668 229.604 369.512C229.291 369.345 228.874 369.262 228.354 369.262C227.989 369.262 227.656 369.329 227.354 369.465C227.062 369.6 226.827 369.788 226.65 370.027C226.473 370.267 226.385 370.548 226.385 370.871C226.385 371.1 226.437 371.309 226.541 371.496C226.656 371.673 226.827 371.84 227.057 371.996C227.286 372.142 227.577 372.277 227.932 372.402C228.286 372.517 228.713 372.621 229.213 372.715C230.348 372.923 231.411 373.22 232.4 373.605C233.39 373.991 234.192 374.538 234.807 375.246C235.432 375.954 235.744 376.908 235.744 378.105C235.744 378.855 235.572 379.548 235.229 380.184C234.885 380.809 234.39 381.361 233.744 381.84C233.098 382.309 232.322 382.673 231.416 382.934C230.51 383.194 229.489 383.324 228.354 383.324C226.739 383.324 225.374 383.038 224.26 382.465C223.145 381.882 222.301 381.152 221.729 380.277C221.166 379.392 220.885 378.496 220.885 377.59H225.791C225.812 378.111 225.937 378.538 226.166 378.871C226.406 379.204 226.723 379.449 227.119 379.605C227.515 379.762 227.973 379.84 228.494 379.84C228.973 379.84 229.369 379.772 229.682 379.637C230.005 379.501 230.249 379.319 230.416 379.09C230.583 378.85 230.666 378.574 230.666 378.262ZM243.369 359.012V383.012H238.104V359.012H243.369ZM242.744 373.98L241.51 374.012C241.51 372.824 241.656 371.73 241.947 370.73C242.239 369.73 242.656 368.861 243.197 368.121C243.739 367.382 244.39 366.809 245.15 366.402C245.911 365.996 246.755 365.793 247.682 365.793C248.515 365.793 249.275 365.913 249.963 366.152C250.661 366.392 251.26 366.777 251.76 367.309C252.27 367.84 252.661 368.533 252.932 369.387C253.213 370.241 253.354 371.283 253.354 372.512V383.012H248.057V372.48C248.057 371.793 247.958 371.262 247.76 370.887C247.572 370.501 247.301 370.236 246.947 370.09C246.593 369.934 246.161 369.855 245.65 369.855C245.036 369.855 244.536 369.96 244.15 370.168C243.765 370.376 243.468 370.668 243.26 371.043C243.062 371.408 242.926 371.84 242.854 372.34C242.781 372.84 242.744 373.387 242.744 373.98ZM262.729 383.012H257.432V365.043C257.432 363.668 257.729 362.512 258.322 361.574C258.916 360.626 259.775 359.908 260.9 359.418C262.036 358.928 263.395 358.684 264.979 358.684C265.666 358.684 266.525 358.704 267.557 358.746C268.588 358.777 269.624 358.819 270.666 358.871C271.718 358.913 272.609 358.96 273.338 359.012L271.213 363.246C270.286 363.1 269.374 362.98 268.479 362.887C267.583 362.793 266.687 362.746 265.791 362.746C265.135 362.746 264.577 362.835 264.119 363.012C263.671 363.189 263.327 363.449 263.088 363.793C262.848 364.126 262.729 364.543 262.729 365.043V383.012ZM268.057 383.012V359.012H273.338V383.012H268.057ZM266.01 366.105V369.762H254.994V366.105H266.01ZM275.932 374.73V374.402C275.932 373.163 276.109 372.022 276.463 370.98C276.817 369.928 277.338 369.017 278.025 368.246C278.713 367.475 279.562 366.876 280.572 366.449C281.583 366.012 282.749 365.793 284.072 365.793C285.406 365.793 286.577 366.012 287.588 366.449C288.609 366.876 289.463 367.475 290.15 368.246C290.838 369.017 291.359 369.928 291.713 370.98C292.067 372.022 292.244 373.163 292.244 374.402V374.73C292.244 375.96 292.067 377.1 291.713 378.152C291.359 379.194 290.838 380.105 290.15 380.887C289.463 381.658 288.614 382.257 287.604 382.684C286.593 383.111 285.426 383.324 284.104 383.324C282.781 383.324 281.609 383.111 280.588 382.684C279.567 382.257 278.713 381.658 278.025 380.887C277.338 380.105 276.817 379.194 276.463 378.152C276.109 377.1 275.932 375.96 275.932 374.73ZM281.197 374.402V374.73C281.197 375.366 281.244 375.96 281.338 376.512C281.432 377.064 281.588 377.548 281.807 377.965C282.025 378.371 282.322 378.689 282.697 378.918C283.072 379.147 283.541 379.262 284.104 379.262C284.656 379.262 285.114 379.147 285.479 378.918C285.854 378.689 286.15 378.371 286.369 377.965C286.588 377.548 286.744 377.064 286.838 376.512C286.932 375.96 286.979 375.366 286.979 374.73V374.402C286.979 373.788 286.932 373.21 286.838 372.668C286.744 372.116 286.588 371.632 286.369 371.215C286.15 370.788 285.854 370.454 285.479 370.215C285.104 369.975 284.635 369.855 284.072 369.855C283.52 369.855 283.057 369.975 282.682 370.215C282.317 370.454 282.025 370.788 281.807 371.215C281.588 371.632 281.432 372.116 281.338 372.668C281.244 373.21 281.197 373.788 281.197 374.402ZM299.729 377.98L302.854 366.105H306.15L304.979 372.059L301.885 383.012H299.244L299.729 377.98ZM298.494 366.105L300.432 377.887L300.65 383.012H297.447L293.447 366.105H298.494ZM308.932 377.637L310.885 366.105H315.932L311.963 383.012H308.76L308.932 377.637ZM306.525 366.105L309.682 377.949L310.166 383.012H307.494L304.463 372.09L303.338 366.105H306.525Z" fill="#0A355C"/>
<path d="M302.862 38.9099L194.71 38.3381" stroke="#F5516C" stroke-width="5" stroke-linecap="round" stroke-dasharray="0.01 12"/>
<path d="M306.555 49.2211L316.849 38.927L306.555 28.6329" stroke="#F5516C" stroke-width="3"/>
<path d="M98.7914 282.013L88.4973 271.719L78.2033 282.013" stroke="#F5516C" stroke-width="3"/>
<path d="M384.295 255.145V257.772H376.063V255.145H384.295ZM377.152 241.421V257.772H373.783V241.421H377.152ZM389.438 245.621V257.772H386.193V245.621H389.438ZM385.991 242.454C385.991 241.982 386.155 241.593 386.485 241.286C386.814 240.979 387.256 240.826 387.81 240.826C388.356 240.826 388.794 240.979 389.124 241.286C389.461 241.593 389.629 241.982 389.629 242.454C389.629 242.926 389.461 243.315 389.124 243.622C388.794 243.929 388.356 244.083 387.81 244.083C387.256 244.083 386.814 243.929 386.485 243.622C386.155 243.315 385.991 242.926 385.991 242.454ZM399.287 262.444V248.103L399.703 245.621H402.544V262.444H399.287ZM391.606 251.82V251.584C391.606 250.656 391.707 249.814 391.909 249.058C392.119 248.294 392.426 247.643 392.83 247.104C393.234 246.557 393.728 246.138 394.312 245.846C394.904 245.546 395.585 245.396 396.356 245.396C397.097 245.396 397.738 245.546 398.277 245.846C398.816 246.145 399.269 246.568 399.636 247.115C400.01 247.661 400.309 248.305 400.534 249.046C400.759 249.788 400.931 250.6 401.051 251.483V252C400.938 252.846 400.766 253.632 400.534 254.358C400.309 255.085 400.01 255.721 399.636 256.268C399.269 256.814 398.812 257.241 398.265 257.548C397.726 257.847 397.082 257.997 396.334 257.997C395.578 257.997 394.904 257.844 394.312 257.537C393.728 257.222 393.234 256.788 392.83 256.234C392.426 255.68 392.119 255.028 391.909 254.28C391.707 253.524 391.606 252.704 391.606 251.82ZM394.84 251.584V251.82C394.84 252.322 394.881 252.794 394.964 253.235C395.046 253.67 395.177 254.055 395.357 254.392C395.544 254.729 395.784 254.995 396.076 255.189C396.367 255.377 396.727 255.47 397.154 255.47C397.745 255.47 398.221 255.343 398.58 255.088C398.947 254.826 399.216 254.471 399.388 254.021C399.568 253.572 399.673 253.059 399.703 252.483V251.012C399.68 250.54 399.617 250.117 399.512 249.743C399.415 249.361 399.265 249.035 399.063 248.766C398.868 248.496 398.614 248.29 398.299 248.148C397.992 247.998 397.618 247.923 397.176 247.923C396.757 247.923 396.397 248.017 396.098 248.204C395.798 248.391 395.555 248.653 395.368 248.99C395.188 249.32 395.054 249.705 394.964 250.147C394.881 250.589 394.84 251.068 394.84 251.584ZM412.281 254.864V245.621H415.515V257.772H412.472L412.281 254.864ZM412.64 252.371L413.595 252.348C413.595 253.157 413.501 253.909 413.314 254.605C413.127 255.294 412.846 255.893 412.472 256.402C412.098 256.904 411.626 257.297 411.057 257.582C410.488 257.859 409.818 257.997 409.047 257.997C408.455 257.997 407.909 257.915 407.407 257.75C406.913 257.578 406.486 257.312 406.127 256.953C405.775 256.586 405.498 256.118 405.296 255.549C405.101 254.972 405.004 254.28 405.004 253.471V245.621H408.238V253.494C408.238 253.853 408.279 254.156 408.362 254.403C408.451 254.65 408.575 254.853 408.732 255.01C408.889 255.167 409.073 255.279 409.283 255.347C409.5 255.414 409.739 255.448 410.001 255.448C410.668 255.448 411.192 255.313 411.574 255.043C411.963 254.774 412.236 254.407 412.393 253.943C412.558 253.471 412.64 252.947 412.64 252.371ZM421.4 245.621V257.772H418.155V245.621H421.4ZM417.952 242.454C417.952 241.982 418.117 241.593 418.447 241.286C418.776 240.979 419.218 240.826 419.772 240.826C420.318 240.826 420.756 240.979 421.086 241.286C421.423 241.593 421.591 241.982 421.591 242.454C421.591 242.926 421.423 243.315 421.086 243.622C420.756 243.929 420.318 244.083 419.772 244.083C419.218 244.083 418.776 243.929 418.447 243.622C418.117 243.315 417.952 242.926 417.952 242.454ZM431.249 255.122V240.522H434.506V257.772H431.575L431.249 255.122ZM423.568 251.843V251.607C423.568 250.679 423.673 249.836 423.882 249.08C424.092 248.316 424.399 247.661 424.803 247.115C425.207 246.568 425.705 246.145 426.297 245.846C426.888 245.546 427.562 245.396 428.318 245.396C429.029 245.396 429.651 245.546 430.182 245.846C430.721 246.145 431.178 246.572 431.553 247.126C431.934 247.673 432.241 248.32 432.473 249.069C432.706 249.81 432.874 250.622 432.979 251.506V252.022C432.874 252.868 432.706 253.655 432.473 254.381C432.241 255.107 431.934 255.743 431.553 256.29C431.178 256.829 430.721 257.248 430.182 257.548C429.643 257.847 429.014 257.997 428.296 257.997C427.54 257.997 426.866 257.844 426.274 257.537C425.69 257.23 425.196 256.799 424.792 256.245C424.395 255.691 424.092 255.04 423.882 254.291C423.673 253.542 423.568 252.726 423.568 251.843ZM426.802 251.607V251.843C426.802 252.344 426.839 252.812 426.914 253.247C426.997 253.681 427.128 254.066 427.307 254.403C427.495 254.733 427.734 254.991 428.026 255.178C428.326 255.358 428.689 255.448 429.116 255.448C429.67 255.448 430.126 255.324 430.486 255.077C430.845 254.823 431.118 254.474 431.305 254.033C431.5 253.591 431.612 253.082 431.642 252.505V251.034C431.62 250.562 431.553 250.139 431.44 249.765C431.335 249.383 431.178 249.058 430.969 248.788C430.766 248.519 430.512 248.309 430.205 248.159C429.905 248.009 429.55 247.935 429.138 247.935C428.719 247.935 428.359 248.032 428.06 248.227C427.76 248.414 427.517 248.672 427.33 249.001C427.15 249.331 427.015 249.72 426.926 250.169C426.843 250.611 426.802 251.09 426.802 251.607ZM440.447 245.621V257.772H437.201V245.621H440.447ZM436.999 242.454C436.999 241.982 437.164 241.593 437.493 241.286C437.823 240.979 438.265 240.826 438.819 240.826C439.365 240.826 439.803 240.979 440.133 241.286C440.47 241.593 440.638 241.982 440.638 242.454C440.638 242.926 440.47 243.315 440.133 243.622C439.803 243.929 439.365 244.083 438.819 244.083C438.265 244.083 437.823 243.929 437.493 243.622C437.164 243.315 436.999 242.926 436.999 242.454ZM449.072 245.621V247.912H441.997V245.621H449.072ZM443.749 242.623H446.983V254.111C446.983 254.463 447.028 254.733 447.118 254.92C447.215 255.107 447.358 255.238 447.545 255.313C447.732 255.38 447.968 255.414 448.252 255.414C448.454 255.414 448.634 255.407 448.791 255.392C448.956 255.369 449.095 255.347 449.207 255.324L449.218 257.705C448.941 257.795 448.642 257.866 448.32 257.918C447.998 257.971 447.642 257.997 447.253 257.997C446.541 257.997 445.92 257.881 445.388 257.649C444.864 257.409 444.46 257.028 444.176 256.503C443.891 255.979 443.749 255.291 443.749 254.437V242.623ZM454.519 256.402L457.742 245.621H461.212L456.327 259.603C456.222 259.91 456.08 260.239 455.9 260.591C455.728 260.943 455.492 261.276 455.193 261.591C454.901 261.913 454.53 262.175 454.081 262.377C453.639 262.579 453.096 262.68 452.452 262.68C452.145 262.68 451.895 262.661 451.7 262.624C451.505 262.587 451.273 262.534 451.004 262.467V260.097C451.086 260.097 451.172 260.097 451.262 260.097C451.352 260.105 451.438 260.108 451.52 260.108C451.947 260.108 452.295 260.06 452.565 259.962C452.834 259.865 453.051 259.715 453.216 259.513C453.381 259.319 453.512 259.064 453.609 258.75L454.519 256.402ZM453.171 245.621L455.81 254.426L456.271 257.851L454.07 258.087L449.701 245.621H453.171ZM384.16 268.421H387.013L391.213 280.426L395.413 268.421H398.265L392.358 284.772H390.067L384.16 268.421ZM382.621 268.421H385.463L385.979 280.123V284.772H382.621V268.421ZM396.963 268.421H399.815V284.772H396.446V280.123L396.963 268.421ZM405.981 272.621V284.772H402.735V272.621H405.981ZM402.533 269.454C402.533 268.982 402.698 268.593 403.027 268.286C403.357 267.979 403.798 267.826 404.352 267.826C404.899 267.826 405.337 267.979 405.666 268.286C406.003 268.593 406.172 268.982 406.172 269.454C406.172 269.926 406.003 270.315 405.666 270.622C405.337 270.929 404.899 271.083 404.352 271.083C403.798 271.083 403.357 270.929 403.027 270.622C402.698 270.315 402.533 269.926 402.533 269.454ZM411.821 275.215V284.772H408.586V272.621H411.618L411.821 275.215ZM411.349 278.27H410.473C410.473 277.372 410.589 276.563 410.821 275.844C411.053 275.118 411.379 274.5 411.798 273.991C412.217 273.475 412.715 273.082 413.292 272.812C413.876 272.535 414.527 272.396 415.246 272.396C415.815 272.396 416.335 272.479 416.807 272.644C417.279 272.808 417.683 273.07 418.02 273.43C418.364 273.789 418.626 274.264 418.806 274.856C418.993 275.447 419.087 276.17 419.087 277.023V284.772H415.83V277.012C415.83 276.473 415.755 276.054 415.605 275.754C415.456 275.455 415.235 275.245 414.943 275.125C414.658 274.998 414.306 274.935 413.887 274.935C413.453 274.935 413.075 275.021 412.753 275.193C412.438 275.365 412.176 275.605 411.967 275.912C411.764 276.211 411.611 276.563 411.506 276.967C411.401 277.372 411.349 277.806 411.349 278.27ZM424.96 272.621V284.772H421.715V272.621H424.96ZM421.513 269.454C421.513 268.982 421.677 268.593 422.007 268.286C422.336 267.979 422.778 267.826 423.332 267.826C423.878 267.826 424.316 267.979 424.646 268.286C424.983 268.593 425.151 268.982 425.151 269.454C425.151 269.926 424.983 270.315 424.646 270.622C424.316 270.929 423.878 271.083 423.332 271.083C422.778 271.083 422.336 270.929 422.007 270.622C421.677 270.315 421.513 269.926 421.513 269.454ZM430.8 275.215V284.772H427.566V272.621H430.598L430.8 275.215ZM430.328 278.27H429.452C429.452 277.372 429.569 276.563 429.801 275.844C430.033 275.118 430.358 274.5 430.778 273.991C431.197 273.475 431.695 273.082 432.271 272.812C432.855 272.535 433.507 272.396 434.225 272.396C434.794 272.396 435.315 272.479 435.786 272.644C436.258 272.808 436.662 273.07 436.999 273.43C437.344 273.789 437.606 274.264 437.785 274.856C437.973 275.447 438.066 276.17 438.066 277.023V284.772H434.809V277.012C434.809 276.473 434.735 276.054 434.585 275.754C434.435 275.455 434.214 275.245 433.922 275.125C433.638 274.998 433.286 274.935 432.867 274.935C432.432 274.935 432.054 275.021 431.732 275.193C431.418 275.365 431.156 275.605 430.946 275.912C430.744 276.211 430.59 276.563 430.486 276.967C430.381 277.372 430.328 277.806 430.328 278.27ZM448.219 272.621H451.15V284.368C451.15 285.476 450.903 286.416 450.409 287.187C449.922 287.966 449.241 288.553 448.365 288.95C447.489 289.354 446.47 289.557 445.31 289.557C444.801 289.557 444.262 289.489 443.693 289.354C443.131 289.22 442.592 289.01 442.076 288.726C441.566 288.441 441.14 288.082 440.795 287.647L442.221 285.738C442.596 286.173 443.03 286.509 443.524 286.749C444.018 286.996 444.565 287.12 445.164 287.12C445.748 287.12 446.242 287.011 446.646 286.794C447.051 286.584 447.361 286.274 447.578 285.862C447.796 285.458 447.904 284.967 447.904 284.391V275.429L448.219 272.621ZM440.043 278.843V278.607C440.043 277.679 440.155 276.836 440.38 276.08C440.612 275.316 440.937 274.661 441.357 274.115C441.784 273.568 442.3 273.145 442.907 272.846C443.513 272.546 444.198 272.396 444.962 272.396C445.77 272.396 446.448 272.546 446.994 272.846C447.541 273.145 447.99 273.572 448.342 274.126C448.694 274.673 448.967 275.32 449.162 276.069C449.364 276.81 449.521 277.622 449.634 278.506V279.022C449.521 279.868 449.353 280.655 449.128 281.381C448.904 282.107 448.608 282.743 448.241 283.29C447.874 283.829 447.417 284.248 446.871 284.548C446.332 284.847 445.688 284.997 444.939 284.997C444.191 284.997 443.513 284.844 442.907 284.537C442.308 284.23 441.795 283.799 441.368 283.245C440.941 282.691 440.612 282.04 440.38 281.291C440.155 280.542 440.043 279.726 440.043 278.843ZM443.277 278.607V278.843C443.277 279.344 443.326 279.812 443.423 280.247C443.52 280.681 443.67 281.066 443.872 281.403C444.082 281.733 444.34 281.991 444.647 282.178C444.962 282.358 445.332 282.448 445.759 282.448C446.351 282.448 446.833 282.324 447.208 282.077C447.582 281.823 447.863 281.474 448.05 281.033C448.237 280.591 448.346 280.082 448.376 279.505V278.034C448.361 277.562 448.297 277.139 448.185 276.765C448.073 276.383 447.915 276.058 447.713 275.788C447.511 275.519 447.249 275.309 446.927 275.159C446.605 275.009 446.223 274.935 445.782 274.935C445.355 274.935 444.984 275.032 444.67 275.227C444.363 275.414 444.104 275.672 443.895 276.001C443.693 276.331 443.539 276.72 443.434 277.169C443.33 277.611 443.277 278.09 443.277 278.607Z" fill="#0A355C"/>
<path fill-rule="evenodd" clip-rule="evenodd" d="M419.651 200.41H445.713C444.348 186.823 433.364 176.039 419.651 175.177V200.41ZM415.057 175.248C400.841 176.614 389.784 188.619 389.784 203.141C389.784 217.734 400.841 229.668 415.057 231.033V175.248ZM419.651 231.178V205.01H445.784C444.851 219.029 433.651 230.243 419.651 231.178Z" fill="#F5516C"/>
<path d="M167.761 373.83H99.4973C93.4222 373.83 88.4973 368.905 88.4973 362.83V284.307" stroke="#F5516C" stroke-width="5" stroke-linecap="round" stroke-dasharray="0.01 12"/>
<path d="M328.032 373.83H406.784C412.86 373.83 417.784 368.906 417.784 362.83V334.186" stroke="#F5516C" stroke-width="5" stroke-linecap="round" stroke-dasharray="0.01 12"/>
<path d="M154.644 208.663C147.762 220.601 132.378 224.648 120.435 217.769C108.492 210.889 104.443 195.512 111.325 183.574C118.208 171.636 133.592 167.589 145.535 174.469C157.377 181.348 161.527 196.726 154.644 208.663Z" fill="#F5516C"/>
<path d="M133.141 179.487V193.504C132.362 192.726 131.694 192.058 130.803 191.168C130.692 189.833 130.47 186.051 130.47 186.051L132.696 179.375C131.36 179.375 130.024 179.598 128.8 179.932L127.687 183.158L124.571 181.601C123.458 182.268 122.345 183.047 121.343 184.048L126.908 186.829L127.131 190.167L123.792 189.944L121.009 184.382C120.119 185.383 119.228 186.384 118.56 187.608L120.119 190.723L116.78 191.836C116.446 193.059 116.223 194.394 116.223 195.841L122.901 193.727L128.244 193.949L130.47 196.174L128.244 198.399L122.901 198.622L116.223 196.508C116.223 197.843 116.446 199.178 116.78 200.513L120.007 201.626L118.449 204.629C119.117 205.742 119.896 206.854 120.898 207.744L123.68 202.182L127.019 201.959L126.797 205.297L121.232 208.078C122.233 208.968 123.235 209.858 124.459 210.526L127.464 209.079L128.577 212.306C129.802 212.639 131.137 212.862 132.473 212.862L130.358 206.298C130.358 206.298 130.581 202.516 130.692 201.181C131.471 200.402 132.139 199.734 133.029 198.844V212.862C142.267 212.862 149.724 205.408 149.724 196.174C149.836 186.941 142.379 179.487 133.141 179.487ZM136.925 208.634C136.925 200.291 136.925 192.058 136.925 183.714C140.932 184.604 146.052 189.054 146.274 195.729C146.497 203.072 140.932 207.744 136.925 208.634Z" fill="#F5F5F5"/>
<path d="M44.8208 234.201L87.9215 260.706C87.9247 260.708 87.9288 260.708 87.932 260.706L129.927 234.201" stroke="#F5516C" stroke-width="5" stroke-linecap="round" stroke-dasharray="0.01 12"/>
<path d="M66.5557 186.313V216.375H22.6182V211.75H61.9307V186.313H66.5557ZM57.3057 207.125H15.6807V179.375H57.3057V207.125ZM43.4307 193.25C43.4307 189.412 40.3319 186.313 36.4932 186.313C32.6544 186.313 29.5557 189.412 29.5557 193.25C29.5557 197.089 32.6544 200.188 36.4932 200.188C40.3319 200.188 43.4307 197.089 43.4307 193.25Z" fill="#F5516C"/>
</g>
<defs>
<clipPath id="clip0_967_771">
<rect width="491" height="385.808" fill="white"/>
</clipPath>
</defs>
</svg>
