<svg width="577" height="254" viewBox="0 0 577 254" fill="none" xmlns="http://www.w3.org/2000/svg">
<g clip-path="url(#clip0)">
<path d="M19.4 189.9L19.5 192.8C19.5 194.2 19.2 195.2 18.7 196H28.4V198.1H14.7V196H15.7C16.1 195.9 16.3 195.6 16.6 195C16.8 194.4 16.9 193.7 17 192.9V192.8L16.9 189.9H14.7V187.8H16.8L16.7 184.4C16.7 182.7 17.2 181.3 18.3 180.2C19.4 179.2 20.8 178.6 22.6 178.6C24.3 178.6 25.6 179.1 26.6 180C27.6 180.9 28.1 182.2 28.1 183.7H25.6C25.6 182.8 25.3 182 24.8 181.5C24.2 181 23.5 180.7 22.5 180.7C21.6 180.7 20.8 181 20.3 181.7C19.8 182.4 19.4 183.3 19.4 184.4L19.5 187.8H23.7V189.9H19.4Z" fill="#063E62"/>
<path d="M56.6 194.5H52.2V198.1H49.7V194.5H47V192.4H49.7V190.6H47V188.5H49.7V178.9H56.8C58.9 178.9 60.5 179.4 61.7 180.5C62.9 181.5 63.5 183 63.5 184.7C63.5 186.6 62.9 188 61.8 189C60.6 190 59 190.5 56.9 190.5H52.3V192.3H56.7V194.5H56.6ZM52.2 188.5H56.8C58.2 188.5 59.2 188.2 59.9 187.5C60.6 186.8 61 185.9 61 184.7C61 183.6 60.6 182.7 59.9 182C59.2 181.3 58.2 181 56.9 181H52.3V188.5H52.2Z" fill="#063E62"/>
<path d="M94.7 188V189.3C94.7 191.1 94.4 192.8 93.7 194.1C93.1 195.5 92.2 196.5 91 197.3C89.8 198 88.5 198.4 86.9 198.4C86.2 198.4 85.4 198.3 84.4 198.2V190.3L81.2 191.8V189.5L84.4 188V186L81.2 187.5V185L84.4 183.5V179H86.9V182.4L90.2 180.9V183.2L86.9 184.7V186.7L90.2 185.2V187.5L86.9 189V196.2C88.6 196.2 89.8 195.6 90.7 194.4C91.6 193.2 92 191.4 92 189.1V188H94.7Z" fill="#063E62"/>
<path d="M40.2 160.1H35.1C35.1 161.8 35.5 163.1 36.3 164C37.1 164.9 38.2 165.4 39.7 165.4C40.7 165.4 41.7 165.3 42.6 165L42.9 167.1C41.8 167.4 40.8 167.5 39.7 167.5C37.5 167.5 35.8 166.9 34.6 165.6C33.3 164.3 32.7 162.5 32.6 160.1H30.3V158.5H32.6V156.7H30.3V155.1H32.6C32.7 152.8 33.4 151 34.6 149.8C35.9 148.5 37.5 147.9 39.7 147.9C40.6 147.9 41.7 148 42.9 148.3L42.6 150.4C41.6 150.1 40.7 149.9 39.7 149.9C38.3 149.9 37.1 150.3 36.4 151.2C35.6 152.1 35.2 153.4 35.2 155H40.2V156.6H35.1V158.4H40.2V160.1Z" fill="#063E62"/>
<path d="M74.8 161.2C74.6 163.2 73.8 164.8 72.6 165.9C71.3 167 69.7 167.6 67.6 167.6C65.3 167.6 63.5 166.8 62.1 165.2C60.7 163.6 60 161.4 60 158.7V156.9C60 155.1 60.3 153.5 61 152.2C61.6 150.8 62.5 149.8 63.7 149.1C64.9 148.4 66.2 148 67.8 148C69.8 148 71.5 148.6 72.7 149.7C73.9 150.8 74.6 152.4 74.8 154.4H72.3C72.1 152.9 71.6 151.8 70.9 151.1C70.2 150.4 69.1 150.1 67.8 150.1C66.2 150.1 64.9 150.7 64 151.9C63.1 153.1 62.6 154.8 62.6 157V158.9C62.6 161 63 162.6 63.9 163.9C64.8 165.2 66 165.7 67.6 165.7C69 165.7 70.1 165.4 70.8 164.7C71.6 164.1 72.1 163 72.3 161.4H74.8V161.2Z" fill="#063E62"/>
<path d="M93 167.3H90.5V158.4H80.8V167.3H78.3V148.1H80.8V156.4H90.5V148.1H93V167.3Z" fill="#063E62"/>
<path d="M108.1 158.8H100V167.3H97.5V148.1H109.4V150.2H100V156.8H108.1V158.8Z" fill="#063E62"/>
<path d="M9.8 162.3C9.8 161.5 9.5 160.8 8.9 160.3C8.3 159.7 7.4 159.2 6 158.8C4.1 158.2 2.8 157.5 1.9 156.6C1 155.7 0.6 154.5 0.6 153.1C0.6 151.7 1 150.5 1.9 149.6C2.8 148.7 3.9 148.1 5.4 148V145H7.4V147.9C8.9 148.1 10 148.7 10.8 149.8C11.6 150.8 12 152.3 12 154.1H9.7C9.7 152.9 9.4 151.9 8.8 151.1C8.2 150.4 7.4 150 6.4 150C5.4 150 4.6 150.3 4 150.8C3.4 151.3 3.2 152.1 3.2 153.1C3.2 154 3.5 154.7 4.1 155.2C4.7 155.7 5.6 156.2 7 156.7C8.3 157.1 9.4 157.6 10.1 158.1C10.9 158.6 11.4 159.2 11.8 159.9C12.2 160.6 12.3 161.4 12.3 162.3C12.3 163.8 11.9 165 11 165.9C10.1 166.8 8.9 167.3 7.2 167.5V170H5.2V167.5C3.6 167.3 2.3 166.8 1.4 165.8C0.5 164.8 0 163.4 0 161.7H2.4C2.4 162.9 2.7 163.9 3.4 164.5C4 165.2 5 165.5 6.1 165.5C7.3 165.5 8.2 165.2 8.8 164.7C9.5 164 9.8 163.3 9.8 162.3Z" fill="#063E62"/>
<path d="M189.7 152.5C175.8 152.5 164.6 141.2 164.6 127.4C164.6 113.6 175.9 102.3 189.7 102.3H328.7C342.6 102.3 353.8 113.6 353.8 127.4C353.8 141.2 342.5 152.5 328.7 152.5H189.7Z" fill="url(#paint0_linear)"/>
<path d="M328.7 103.7C341.7 103.7 352.3 114.3 352.3 127.3C352.3 140.3 341.7 150.9 328.7 150.9H189.7C176.7 150.9 166.1 140.3 166.1 127.3C166.1 114.3 176.7 103.7 189.7 103.7H328.7ZM328.7 100.7H189.7C175 100.7 163.1 112.7 163.1 127.3C163.1 142 175.1 153.9 189.7 153.9H328.7C343.4 153.9 355.3 141.9 355.3 127.3C355.3 112.7 343.3 100.7 328.7 100.7Z" fill="#F5516C"/>
<path d="M189.7 145.4C179.8 145.4 171.7 137.3 171.7 127.4C171.7 117.5 179.8 109.4 189.7 109.4C199.6 109.4 207.7 117.5 207.7 127.4C207.7 137.3 199.6 145.4 189.7 145.4Z" fill="#F5516C"/>
<path d="M228.7 136.5H224.7V117.3H228.7V136.5Z" fill="#F5516C"/>
<path d="M250.4 136.5H246.4L238.7 123.9V136.5H234.7V117.3H238.7L246.4 130V117.3H250.3V136.5H250.4Z" fill="#F5516C"/>
<path d="M263.4 131.7L267.8 117.3H272.2L265.5 136.5H261.4L254.7 117.3H259.1L263.4 131.7Z" fill="#F5516C"/>
<path d="M287.9 128.2H280.3V133.3H289.2V136.5H276.3V117.3H289.1V120.5H280.2V125.1H287.8V128.2H287.9Z" fill="#F5516C"/>
<path d="M303.9 131.5C303.9 130.8 303.6 130.2 303.1 129.8C302.6 129.4 301.6 129 300.3 128.5C298.9 128.1 297.8 127.6 297 127.2C294.8 126 293.7 124.4 293.7 122.4C293.7 121.4 294 120.4 294.6 119.6C295.2 118.8 296 118.2 297.1 117.7C298.2 117.2 299.4 117 300.8 117C302.2 117 303.4 117.2 304.5 117.7C305.6 118.2 306.4 118.9 307 119.8C307.6 120.7 307.9 121.7 307.9 122.9H303.9C303.9 122 303.6 121.3 303.1 120.9C302.5 120.4 301.8 120.2 300.8 120.2C299.8 120.2 299.1 120.4 298.5 120.8C298 121.2 297.7 121.7 297.7 122.4C297.7 123 298 123.5 298.6 124C299.2 124.5 300.2 124.8 301.4 125.2C303.6 125.9 305.3 126.7 306.3 127.7C307.3 128.7 307.8 129.9 307.8 131.4C307.8 133.1 307.2 134.4 305.9 135.3C304.6 136.2 303 136.7 300.8 136.7C299.3 136.7 298 136.4 296.8 135.9C295.6 135.4 294.7 134.6 294 133.7C293.3 132.8 293 131.7 293 130.4H297C297 132.5 298.3 133.6 300.8 133.6C301.7 133.6 302.5 133.4 303 133C303.6 132.7 303.9 132.1 303.9 131.5Z" fill="#F5516C"/>
<path d="M327.4 120.5H321.5V136.5H317.5V120.5H311.7V117.3H327.3V120.5H327.4Z" fill="#F5516C"/>
<path d="M527.7 150.2C540.513 150.2 550.9 139.813 550.9 127C550.9 114.187 540.513 103.8 527.7 103.8C514.887 103.8 504.5 114.187 504.5 127C504.5 139.813 514.887 150.2 527.7 150.2Z" fill="#072440"/>
<path d="M527.7 105.3C539.7 105.3 549.4 115 549.4 127C549.4 139 539.7 148.7 527.7 148.7C515.7 148.7 506 139 506 127C506 115 515.7 105.3 527.7 105.3ZM527.7 102.3C514.1 102.3 503 113.4 503 127C503 140.6 514.1 151.7 527.7 151.7C541.3 151.7 552.4 140.6 552.4 127C552.4 113.4 541.3 102.3 527.7 102.3Z" fill="#F5516C"/>
<path d="M423.2 127H503.6" stroke="#F5516C" stroke-width="3" stroke-miterlimit="10"/>
<path d="M420.4 127H355.3" stroke="#F5516C" stroke-width="2.6933" stroke-miterlimit="10"/>
<path d="M544.1 208.9C533.7 204.1 529.2 191.6 534 181.2C538.8 170.8 551.3 166.3 561.7 171.1C572.1 175.9 576.6 188.4 571.8 198.8C567 209.2 554.5 213.7 544.1 208.9Z" stroke="#CCCCCC" stroke-width="1.7596" stroke-miterlimit="10"/>
<path d="M423.2 127L534.6 181.4" stroke="#CCCCCC" stroke-width="1.7596" stroke-miterlimit="10"/>
<path d="M540.2 31.5C528.9 38 525 52.5 531.5 63.8C538 75.1 552.5 79 563.8 72.5C575.1 66 579 51.5 572.5 40.2C566 28.9 551.4 25 540.2 31.5Z" stroke="#CCCCCC" stroke-width="2" stroke-miterlimit="10"/>
<path d="M422.3 126.9L532.1 63.5" stroke="#CCCCCC" stroke-width="2" stroke-miterlimit="10"/>
<path d="M480.5 236L489.4 230.7L480.5 243.2L471.5 230.7L480.5 236Z" fill="#F5516C"/>
<path d="M480.4 213.7L471.4 228.5L480.4 233.8L489.3 228.5L480.4 213.7Z" fill="#F5516C"/>
<path d="M43.8 83H36.6V118.2H43.8V83Z" fill="#063E62"/>
<path d="M57 83H49.8V118.2H57V83Z" fill="#063E62"/>
<path d="M30.5 83H23.3V118.2H30.5V83Z" fill="#063E62"/>
<path d="M83.5 83H76.3V118.2H83.5V83Z" fill="#063E62"/>
<path d="M70.2 83H63V118.2H70.2V83Z" fill="#063E62"/>
<path d="M86.9 77.1H19.8V80.7H86.9V77.1Z" fill="#063E62"/>
<path d="M53.4 50.1L13.9 74.7H92.8L53.4 50.1ZM53.4 54.3L80.4 71.1H26.4L53.4 54.3Z" fill="#063E62"/>
<path d="M53.4 67.1C55.7748 67.1 57.7 65.1748 57.7 62.8C57.7 60.4252 55.7748 58.5 53.4 58.5C51.0252 58.5 49.1 60.4252 49.1 62.8C49.1 65.1748 51.0252 67.1 53.4 67.1Z" fill="#063E62"/>
<path d="M53.4 120.6H19.8V124.2H53.4H86.9V120.6H53.4Z" fill="#063E62"/>
<path d="M91.4 126.5H15.4V130.1H91.4V126.5Z" fill="#063E62"/>
<path d="M98 129.4H97.5C96.7 129.4 96 128.7 96 127.9C96 127.1 96.7 126.4 97.5 126.4H98C98.8 126.4 99.5 127.1 99.5 127.9C99.5 128.7 98.8 129.4 98 129.4Z" fill="#063E62"/>
<path d="M151 129.4H150.1C149.3 129.4 148.6 128.7 148.6 127.9C148.6 127.1 149.3 126.4 150.1 126.4H151C151.8 126.4 152.5 127.1 152.5 127.9C152.5 128.7 151.8 129.4 151 129.4ZM144.4 129.4H143.5C142.7 129.4 142 128.7 142 127.9C142 127.1 142.7 126.4 143.5 126.4H144.4C145.2 126.4 145.9 127.1 145.9 127.9C145.9 128.7 145.2 129.4 144.4 129.4ZM137.7 129.4H136.8C136 129.4 135.3 128.7 135.3 127.9C135.3 127.1 136 126.4 136.8 126.4H137.7C138.5 126.4 139.2 127.1 139.2 127.9C139.2 128.7 138.6 129.4 137.7 129.4ZM131.1 129.4H130.2C129.4 129.4 128.7 128.7 128.7 127.9C128.7 127.1 129.4 126.4 130.2 126.4H131.1C131.9 126.4 132.6 127.1 132.6 127.9C132.6 128.7 131.9 129.4 131.1 129.4ZM124.5 129.4H123.6C122.8 129.4 122.1 128.7 122.1 127.9C122.1 127.1 122.8 126.4 123.6 126.4H124.5C125.3 126.4 126 127.1 126 127.9C126 128.7 125.3 129.4 124.5 129.4ZM117.9 129.4H117C116.2 129.4 115.5 128.7 115.5 127.9C115.5 127.1 116.2 126.4 117 126.4H117.9C118.7 126.4 119.4 127.1 119.4 127.9C119.4 128.7 118.7 129.4 117.9 129.4ZM111.2 129.4H110.3C109.5 129.4 108.8 128.7 108.8 127.9C108.8 127.1 109.5 126.4 110.3 126.4H111.2C112 126.4 112.7 127.1 112.7 127.9C112.7 128.7 112.1 129.4 111.2 129.4ZM104.6 129.4H103.7C102.9 129.4 102.2 128.7 102.2 127.9C102.2 127.1 102.9 126.4 103.7 126.4H104.6C105.4 126.4 106.1 127.1 106.1 127.9C106.1 128.7 105.4 129.4 104.6 129.4Z" fill="#063E62"/>
<path d="M157.2 129.4H156.7C155.9 129.4 155.2 128.7 155.2 127.9C155.2 127.1 155.9 126.4 156.7 126.4H157.2C158 126.4 158.7 127.1 158.7 127.9C158.7 128.7 158 129.4 157.2 129.4Z" fill="#063E62"/>
<path d="M480.5 9.69998V22.3C479.8 21.6 479.2 21 478.4 20.2C478.3 19 478.1 15.6 478.1 15.6L480.1 9.59998C478.9 9.59998 477.7 9.79998 476.6 10.1L475.6 13L472.8 11.6C471.8 12.2 470.8 12.9 469.9 13.8L474.9 16.3L475.1 19.3L472.1 19.1L469.6 14.1C468.8 15 468 15.9 467.4 17L468.8 19.8L465.8 20.8C465.5 21.9 465.3 23.1 465.3 24.4L471.3 22.5L476.1 22.7L478.1 24.7L476.1 26.7L471.3 26.9L465.3 25C465.3 26.2 465.5 27.4 465.8 28.6L468.7 29.6L467.3 32.3C467.9 33.3 468.6 34.3 469.5 35.1L472 30.1L475 29.9L474.8 32.9L469.8 35.4C470.7 36.2 471.6 37 472.7 37.6L475.4 36.3L476.4 39.2C477.5 39.5 478.7 39.7 479.9 39.7L478 33.8C478 33.8 478.2 30.4 478.3 29.2C479 28.5 479.6 27.9 480.4 27.1V39.7C488.7 39.7 495.4 33 495.4 24.7C495.5 16.4 488.8 9.69998 480.5 9.69998ZM483.9 35.9C483.9 28.4 483.9 21 483.9 13.5C487.5 14.3 492.1 18.3 492.3 24.3C492.5 30.9 487.5 35.1 483.9 35.9Z" fill="#F5516C"/>
<path d="M533.1 117.4L534.2 113L531.5 112.3L530.4 116.7C529.7 116.5 529 116.4 528.2 116.2L529.3 111.8L526.6 111.1L525.5 115.6C524.9 115.5 524.3 115.3 523.8 115.2L520.1 114.3L519.4 117.2L521.4 117.7C522.5 118 522.7 118.7 522.7 119.3L519.7 131.5C519.5 131.8 519.2 132.3 518.4 132.1L516.4 131.6L515 134.7L518.5 135.6L520.4 136.1L519.3 140.6L522 141.3L523.1 136.8C523.8 137 524.5 137.2 525.3 137.4L524.3 141.8L527 142.5L528.1 138C532.7 138.9 536.2 138.5 537.7 134.3C538.9 130.9 537.6 129 535.2 127.7C537 127.3 538.3 126.1 538.7 123.7C539.1 120.3 536.6 118.5 533.1 117.4ZM532.4 132.3C531.6 135.7 525.9 133.8 524 133.4L525.5 127.4C527.3 127.9 533.2 128.8 532.4 132.3ZM533.2 123.5C532.4 126.6 527.7 125 526.2 124.6L527.6 119.2C529.1 119.6 534 120.3 533.2 123.5Z" fill="#F5516C"/>
<path d="M480.4 47.9C476.4 47.9 472.4 46.8 468.9 44.8C457.8 38.4 454 24.2 460.4 13.1C464.5 6 472.3 1.5 480.6 1.5C484.6 1.5 488.6 2.6 492.1 4.6C497.4 7.7 501.3 12.7 502.9 18.7C504.5 24.7 503.7 31 500.6 36.3C496.5 43.5 488.8 47.9 480.4 47.9Z" fill="#072440"/>
<path d="M480.6 3C484.4 3 488.1 4 491.4 5.9C501.8 11.9 505.3 25.2 499.4 35.6C495.5 42.3 488.3 46.4 480.5 46.4C476.7 46.4 473 45.4 469.7 43.5C459.3 37.5 455.8 24.2 461.7 13.8C465.6 7.2 472.8 3 480.6 3ZM480.6 0C472 0 463.7 4.4 459.1 12.3C452.3 24.1 456.4 39.3 468.1 46.1C472 48.3 476.2 49.4 480.4 49.4C489 49.4 497.3 45 501.9 37.1C508.7 25.3 504.6 10.1 492.9 3.3C489 1.1 484.8 0 480.6 0Z" fill="#F5516C"/>
<path d="M421.6 126.7L468.5 45.5" stroke="#F5516C" stroke-width="3" stroke-miterlimit="10"/>
<path d="M480.6 251.9C472.3 251.9 464.5 247.5 460.4 240.3C457.3 235 456.5 228.7 458.1 222.7C459.7 216.7 463.5 211.7 468.9 208.6C472.4 206.6 476.4 205.5 480.4 205.5C488.7 205.5 496.5 209.9 500.6 217.1C507 228.2 503.2 242.4 492.1 248.8C488.6 250.8 484.6 251.9 480.6 251.9Z" fill="#072440"/>
<path d="M480.4 207C488.2 207 495.4 211.2 499.3 217.8C505.3 228.2 501.7 241.5 491.3 247.5C488 249.4 484.3 250.4 480.5 250.4C472.7 250.4 465.5 246.2 461.6 239.6C458.7 234.6 458 228.7 459.5 223.1C461 217.5 464.6 212.8 469.6 209.9C472.9 208 476.7 207 480.4 207ZM480.4 204C476.2 204 472 205.1 468.1 207.3C456.3 214.1 452.3 229.3 459.1 241.1C463.7 249 472 253.4 480.6 253.4C484.8 253.4 489 252.3 492.9 250.1C504.7 243.3 508.7 228.1 501.9 216.3C497.3 208.4 489 204 480.4 204Z" fill="#F5516C"/>
<path d="M421.6 126.6L468.5 207.8" stroke="#F5516C" stroke-width="3" stroke-miterlimit="10"/>
<path d="M422.3 135C426.718 135 430.3 131.418 430.3 127C430.3 122.582 426.718 119 422.3 119C417.882 119 414.3 122.582 414.3 127C414.3 131.418 417.882 135 422.3 135Z" fill="#F5516C"/>
</g>
<defs>
<linearGradient id="paint0_linear" x1="164.524" y1="127.377" x2="353.796" y2="127.377" gradientUnits="userSpaceOnUse">
<stop offset="0.0340695" stop-color="#072440"/>
<stop offset="0.2695" stop-color="#063E62"/>
<stop offset="0.4706" stop-color="#383F60"/>
<stop offset="0.7169" stop-color="#6F405E"/>
<stop offset="0.9008" stop-color="#92415D"/>
<stop offset="1" stop-color="#9F415C"/>
</linearGradient>
<clipPath id="clip0">
<rect width="576.6" height="253.4" fill="white"/>
</clipPath>
</defs>
</svg>
