<svg xmlns="http://www.w3.org/2000/svg" xmlns:xlink="http://www.w3.org/1999/xlink" viewBox="0 0 652.53331 348.14743"><defs><style>.cls-1{fill:#063e62;}.cls-2{fill:#f5516c;}.cls-3{fill:url(#Unbenannter_Verlauf_22);}.cls-4,.cls-5,.cls-6{fill:none;stroke:#f5516c;stroke-miterlimit:10;}.cls-4{stroke-width:3px;}.cls-5{stroke-width:2.6933px;}.cls-6{stroke-width:1.5px;}.cls-7{fill:#fff;}</style><linearGradient id="Unbenannter_Verlauf_22" x1="266.53357" y1="172.17699" x2="375.13397" y2="172.17699" gradientUnits="userSpaceOnUse"><stop offset="0.05815" stop-color="#063e62"/><stop offset="0.35279" stop-color="#694666"/><stop offset="0.59621" stop-color="#b54c69"/><stop offset="0.7689" stop-color="#e3506b"/><stop offset="0.85505" stop-color="#f5516c"/></linearGradient></defs><title>2021_09_20_invest-in-crypto</title><g id="_deep_blue" data-name="! deep blue"><path class="cls-1" d="M80.54952,262.70922l.10547,2.90039a5.64855,5.64855,0,0,1-.81739,3.22949h9.66358l-.01319,2.07031H75.88253V268.8391h1.01513q.52736-.11718.85694-.98144a6.389,6.389,0,0,0,.356-2.12989v-.10546l-.10547-2.91309H75.82979v-2.06934h2.10938l-.11866-3.42773a5.57855,5.57855,0,0,1,1.61524-4.19336,5.8449,5.8449,0,0,1,4.25146-1.56836,5.50768,5.50768,0,0,1,3.96827,1.39746,4.91761,4.91761,0,0,1,1.46337,3.73145H86.60079a2.99332,2.99332,0,0,0-.83692-2.23828,3.147,3.147,0,0,0-2.30078-.82032,2.7905,2.7905,0,0,0-2.24121,1.0166,4.00061,4.00061,0,0,0-.85693,2.668l.11865,3.43457h4.20557v2.06934Z"/><path class="cls-1" d="M117.78633,267.27074h-4.4165v3.63867h-2.51807v-3.63867h-2.729v-2.07031h2.729v-1.80566h-2.729v-2.06934h2.729V251.7141h7.07959a7.207,7.207,0,0,1,4.89112,1.56836,5.33834,5.33834,0,0,1,1.80615,4.2461,5.45692,5.45692,0,0,1-1.73389,4.33007,7.27136,7.27136,0,0,1-4.92383,1.53614h-4.60107v1.80566h4.4165Zm-4.4165-5.94531h4.56152a4.49732,4.49732,0,0,0,3.11133-.96484,3.59475,3.59475,0,0,0,1.06787-2.8125,3.54563,3.54563,0,0,0-1.10742-2.71387,4.248,4.248,0,0,0-2.99267-1.04981h-4.64063Z"/><path class="cls-1" d="M155.93331,260.74535v1.31836a11.72992,11.72992,0,0,1-.97559,4.83106,7.1163,7.1163,0,0,1-2.69629,3.15722,7.46649,7.46649,0,0,1-4.05371,1.09473,15.34807,15.34807,0,0,1-2.47851-.23731v-7.93652l-3.2168,1.46387V262.0891l3.2168-1.46289v-2.01758l-3.2168,1.46387v-2.34668l3.2168-1.46289V251.7141h2.53125v3.38867l3.30908-1.5166v2.34668l-3.30908,1.51563v2.01758l3.30908-1.51563v2.3457l-3.30908,1.51661V269.011a4.53516,4.53516,0,0,0,3.83007-1.81934,8.8341,8.8341,0,0,0,1.32471-5.28613v-1.16016Z"/><path class="cls-1" d="M101.44112,232.9182h-5.0625a6.08434,6.08434,0,0,0,1.23926,3.94629,4.19305,4.19305,0,0,0,3.36181,1.37989,9.03089,9.03089,0,0,0,2.874-.44727l.26367,2.11914a12.91164,12.91164,0,0,1-3.16406.39844,6.84892,6.84892,0,0,1-5.14844-1.93164,7.7774,7.7774,0,0,1-1.95752-5.46485H91.50069v-1.63476h2.34668v-1.80567H91.50069v-1.64746h2.34668a7.70487,7.70487,0,0,1,2.01025-5.34668,6.84363,6.84363,0,0,1,5.08252-1.8916,14.47066,14.47066,0,0,1,3.17725.40625l-.26367,2.125a9.394,9.394,0,0,0-2.88721-.46094,4.172,4.172,0,0,0-3.32861,1.34082,5.957,5.957,0,0,0-1.2461,3.82715h5.04932v1.64746h-5.0625v1.80567h5.0625Z"/><path class="cls-1" d="M135.97237,233.9602a7.0641,7.0641,0,0,1-2.24805,4.70019,7.36817,7.36817,0,0,1-5.02929,1.6543,6.76041,6.76041,0,0,1-5.45118-2.43945,9.80681,9.80681,0,0,1-2.05029-6.5254v-1.8457a10.94205,10.94205,0,0,1,.95557-4.707,7.1406,7.1406,0,0,1,2.70947-3.11719,7.5394,7.5394,0,0,1,4.06055-1.08789,6.93821,6.93821,0,0,1,4.90429,1.707,7.14875,7.14875,0,0,1,2.14893,4.72657h-2.54443a5.516,5.516,0,0,0-1.43018-3.332,4.32976,4.32976,0,0,0-3.07861-1.03125,4.52741,4.52741,0,0,0-3.80323,1.79395,8.23486,8.23486,0,0,0-1.37793,5.10645v1.86035a8.4682,8.4682,0,0,0,1.30518,4.97461,4.21694,4.21694,0,0,0,3.65186,1.84668,4.87191,4.87191,0,0,0,3.23632-.95508,5.30364,5.30364,0,0,0,1.49659-3.3291Z"/><path class="cls-1" d="M154.17891,240.051h-2.54443V231.178h-9.67676V240.051h-2.53125V220.8557h2.53125v8.25293h9.67676V220.8557h2.54443Z"/><path class="cls-1" d="M169.26094,231.57445h-8.05517V240.051h-2.53125V220.8557h11.8916V222.926h-9.36035v6.57812h8.05517Z"/><path class="cls-1" d="M71.03194,235.10863a2.74406,2.74406,0,0,0-.85059-2.04394,7.60129,7.60129,0,0,0-2.86718-1.50293,9.20066,9.20066,0,0,1-4.09375-2.23438,4.9305,4.9305,0,0,1-1.28516-3.5,5.06865,5.06865,0,0,1,1.25879-3.54687,5.35575,5.35575,0,0,1,3.46094-1.64844v-2.88672h1.96435v2.90039a5.083,5.083,0,0,1,3.44776,1.85938,6.68193,6.68193,0,0,1,1.23242,4.25781H70.87374a4.5938,4.5938,0,0,0-.8833-2.96289,2.903,2.903,0,0,0-2.38623-1.09766,3.29073,3.29073,0,0,0-2.39942.8125,3.02084,3.02084,0,0,0-.83056,2.26465,2.76224,2.76224,0,0,0,.87646,2.14649,8.0941,8.0941,0,0,0,2.8877,1.45312,12.17782,12.17782,0,0,1,3.13769,1.4375,5.0607,5.0607,0,0,1,1.66113,1.82617,5.28514,5.28514,0,0,1,.53369,2.43848,4.8846,4.8846,0,0,1-1.33837,3.58594A5.93334,5.93334,0,0,1,68.382,240.2766v2.51758H66.43087V240.2766a5.69227,5.69227,0,0,1-3.84327-1.74707,5.897,5.897,0,0,1-1.39062-4.13379h2.439a3.88193,3.88193,0,0,0,.96241,2.82227,3.63728,3.63728,0,0,0,2.729.98828,4.09866,4.09866,0,0,0,2.71582-.83008A2.806,2.806,0,0,0,71.03194,235.10863Z"/><path class="cls-2" d="M369.84806,149.00717a23.64515,23.64515,0,0,1,0,47.29029H240.86639a23.64515,23.64515,0,0,1,0-47.29029H369.84806m0-3H240.86639a26.72335,26.72335,0,0,0-26.645,26.645v.00025a26.72335,26.72335,0,0,0,26.64505,26.645H369.84806a26.72335,26.72335,0,0,0,26.64505-26.645v-.00025a26.72335,26.72335,0,0,0-26.64505-26.645Z"/><rect class="cls-2" x="222.86642" y="154.6523" width="36" height="36" rx="17.99998" ry="17.99998"/><path class="cls-3" d="M272.86592,181.77465h-3.95507V162.57934h3.95507Z"/><path class="cls-3" d="M294.57051,181.77465h-3.95507l-7.69922-12.62988v12.62988h-3.95508V162.57934h3.95508l7.7124,12.65625V162.57934h3.94189Z"/><path class="cls-3" d="M307.54708,177.01488l4.35058-14.43554H316.301l-6.68408,19.19531h-4.12646l-6.65772-19.19531h4.39014Z"/><path class="cls-3" d="M332.08614,173.45629h-7.59375v5.14062h8.91211v3.17774H320.53731V162.57934h12.84082v3.20312h-8.88574v4.5752h7.59375Z"/><path class="cls-3" d="M348.1086,176.73852a2.03066,2.03066,0,0,0-.791-1.72071,10.4051,10.4051,0,0,0-2.84765-1.26562,20.14369,20.14369,0,0,1-3.25635-1.31153q-3.26954-1.76659-3.26953-4.75976a4.63108,4.63108,0,0,1,.877-2.77441,5.714,5.714,0,0,1,2.51758-1.90528,9.48067,9.48067,0,0,1,3.68506-.68555,8.61945,8.61945,0,0,1,3.665.74512,5.8356,5.8356,0,0,1,2.49853,2.10254,5.506,5.506,0,0,1,.88965,3.085h-3.95508a2.58718,2.58718,0,0,0-.83056-2.0498,3.412,3.412,0,0,0-2.3335-.73242,3.65077,3.65077,0,0,0-2.25439.61328,1.93465,1.93465,0,0,0-.8042,1.61523,1.85092,1.85092,0,0,0,.94238,1.56836,10.64868,10.64868,0,0,0,2.77539,1.1875,11.99071,11.99071,0,0,1,4.91748,2.51758,5.01476,5.01476,0,0,1,1.54248,3.74414,4.62052,4.62052,0,0,1-1.88525,3.90918,8.25641,8.25641,0,0,1-5.07569,1.417,9.80916,9.80916,0,0,1-4.03418-.81055,6.38831,6.38831,0,0,1-2.77539-2.22168,5.68879,5.68879,0,0,1-.95556-3.26953h3.96826q0,3.17726,3.79687,3.17676a3.69009,3.69009,0,0,0,2.20166-.57324A1.86473,1.86473,0,0,0,348.1086,176.73852Z"/><path class="cls-3" d="M371.632,165.78246h-5.87989v15.99219h-3.95507V165.78246H355.9963v-3.20312H371.632Z"/><path class="cls-2" d="M543.85878,147.59463h0a24.72054,24.72054,0,0,1,24.72054,24.72054v0a24.72054,24.72054,0,0,1-24.72054,24.72054h0a24.72054,24.72054,0,0,1-24.72054-24.72054v0A24.72055,24.72055,0,0,1,543.85878,147.59463Z"/><line class="cls-4" x1="439.368" y1="172.3152" x2="519.82299" y2="172.3152"/><line class="cls-5" x1="436.56451" y1="172.31517" x2="396.49312" y2="172.31517"/><rect class="cls-6" x="548.32473" y="214.4613" width="41.614" height="41.614" rx="20.80698" ry="20.80698" transform="translate(152.75192 -218.48268) rotate(25)"/><line class="cls-6" x1="439.368" y1="172.3152" x2="550.79653" y2="226.71846"/><rect class="cls-6" x="544.53676" y="73.6491" width="47.29861" height="47.29861" rx="23.64928" ry="23.64928" transform="translate(27.47331 297.12859) rotate(-30)"/><line class="cls-6" x1="438.49255" y1="172.17699" x2="548.27248" y2="108.79552"/><rect class="cls-1" x="97.76206" y="155.78649" width="7.17354" height="35.21115"/><rect class="cls-1" x="110.99825" y="155.78649" width="7.17355" height="35.21115"/><rect class="cls-1" x="84.52687" y="155.78649" width="7.17354" height="35.21115"/><rect class="cls-1" x="137.46763" y="155.78649" width="7.17354" height="35.21115"/><rect class="cls-1" x="124.23344" y="155.78649" width="7.17354" height="35.21115"/><rect class="cls-1" x="81.02578" y="149.85437" width="67.11648" height="3.58677"/><path class="cls-1" d="M114.584,122.835,75.11956,147.49607h78.92893Zm0,4.2304,26.95659,16.84488H87.62843Z"/><circle class="cls-1" cx="114.58402" cy="135.59795" r="4.29317"/><polygon class="cls-1" points="114.584 193.345 81.027 193.345 81.027 196.932 114.584 196.932 148.141 196.932 148.141 193.345 114.584 193.345"/><rect class="cls-1" x="76.57922" y="199.2482" width="76.00961" height="3.58681"/><path class="cls-7" d="M549.32389,162.62935l1.11408-4.44263-2.7172-.68548-1.07857,4.35281c-.71023-.18568-1.44983-.34662-2.19265-.5153l1.08169-4.393-2.725-.67623-1.11257,4.46425c-.588-.1377-1.15894-.27389-1.73308-.41008l-3.73844-.93614-.72581,2.91062s2.01632.45806,1.96683.48281a1.45271,1.45271,0,0,1,1.275,1.57988l-3.04681,12.21674a1.01514,1.01514,0,0,1-1.26425.64525c.02475.03872-1.98222-.49055-1.98222-.49055l-1.36172,3.10877,3.52962.87891,1.91725.49981-1.12031,4.523,2.72494.66848,1.12032-4.47351c.7412.21043,1.44992.39459,2.15864.56479l-1.04607,4.43951,2.72343.68548,1.12031-4.52c4.62519.8774,8.10835.53079,9.57528-3.65958,1.176-3.37794-.06649-5.31842-2.50678-6.59192a4.35044,4.35044,0,0,0,3.46464-3.98146h.02786C555.26282,165.59409,552.75605,163.82239,549.32389,162.62935Zm-.76595,14.95707c-.82942,3.38418-6.51146,1.5474-8.356,1.08783l1.49016-5.97917C543.53816,173.17014,549.43685,174.08,548.55794,177.58642Zm.84793-8.76134v.00925c-.76746,3.0778-5.49012,1.52266-7.02977,1.1343l1.35548-5.44687C545.262,164.89161,550.20129,165.60033,549.40587,168.82508Z"/><path class="cls-2" d="M496.70125,45.25636h.00005a24.72054,24.72054,0,0,1,24.72054,24.72054v0A24.72055,24.72055,0,0,1,496.7013,94.6975h-.00005A24.72054,24.72054,0,0,1,471.98071,69.977v-.00005a24.72054,24.72054,0,0,1,24.72054-24.72054Z" transform="matrix(0.5, -0.86603, 0.86603, 0.5, 187.74885, 465.1444)"/><line class="cls-4" x1="437.7882" y1="172.01738" x2="484.68337" y2="90.79256"/><path class="cls-2" d="M496.70126,249.2172h.00005a24.72054,24.72054,0,0,1,24.72054,24.72054v0a24.72055,24.72055,0,0,1-24.72055,24.72055h0a24.72054,24.72054,0,0,1-24.72054-24.72054v0a24.72055,24.72055,0,0,1,24.72055-24.72055Z" transform="translate(-70.42353 285.05132) rotate(-30)"/><line class="cls-4" x1="437.7882" y1="171.89732" x2="484.68337" y2="253.12214"/><circle class="cls-2" cx="438.49255" cy="172.3152" r="8"/><polygon class="cls-7" points="496.696 281.247 505.601 275.945 496.696 288.52 487.724 275.945 496.696 281.247"/><path class="cls-7" d="M496.57322,259.00731l-8.97248,14.81819,8.97248,5.30192,8.90451-5.30192Z"/><path class="cls-7" d="M496.73688,54.97714V67.61085l-2.05264-2.05679c-.0697-1.21885-.25684-4.57358-.25684-4.57358l1.96683-5.99994a15.00549,15.00549,0,0,0-3.50213.48426L491.88146,58.409l-2.75677-1.38086a15.05594,15.05594,0,0,0-2.85522,2.16948l5.00948,2.5492.17207,2.95446-2.96413-.16562-2.54-5.01617a15.056,15.056,0,0,0-2.18215,2.85873l1.38891,2.75988L482.19314,66.148a15.00724,15.00724,0,0,0-.49067,3.56573l5.98574-1.9234,4.81433.20916,2.0193,2.0193-2.0193,2.0193-4.81433.20917-5.98467-1.92307a14.99657,14.99657,0,0,0,.5144,3.57385l2.93576,1.00143-1.36629,2.71492a15.0576,15.0576,0,0,0,2.18728,2.84888l2.5122-4.96137,2.96413-.16562-.17207,2.95447L486.3255,80.8114a15.05354,15.05354,0,0,0,2.87538,2.15982l2.68058-1.34269.97914,2.85245a15.00158,15.00158,0,0,0,3.50624.49243L494.4274,79.057s.18714-3.35473.25684-4.57357l2.05264-2.0568V84.97714a15,15,0,0,0,0-30Zm3.32255,26.19531V58.78185a11.64854,11.64854,0,0,1,0,22.3906Z"/><circle class="cls-1" cx="159.83797" cy="173.70277" r="2.02577"/><circle class="cls-1" cx="168.95883" cy="173.70277" r="2.02577"/><circle class="cls-1" cx="178.07968" cy="173.70277" r="2.02577"/><circle class="cls-1" cx="187.20054" cy="173.70277" r="2.02577"/><circle class="cls-1" cx="196.32139" cy="173.70277" r="2.02577"/><circle class="cls-1" cx="205.44225" cy="173.70277" r="2.02577"/></g></svg>