<svg width="501" height="264" viewBox="0 0 501 264" fill="none" xmlns="http://www.w3.org/2000/svg">
<g clip-path="url(#clip0_1042_1014)">
<path d="M490.66 121.634L500.816 131.79L465.625 166.627L439.29 140.293L449.446 130.137L465.625 146.316L490.66 121.634Z" fill="#EA5068"/>
<path d="M476.253 130.846L482.158 125.059V94.8276L476.253 100.732V130.846Z" fill="#072440"/>
<path d="M490.66 181.979L500.816 192.135L465.625 227.09L439.29 200.756L449.446 190.6L465.625 206.778L490.66 181.979Z" fill="#EA5068"/>
<path d="M476.253 191.308L482.158 185.404V155.29L476.253 161.195V191.308Z" fill="#072440"/>
<path d="M461.019 26.8068H440.943V17.7137C440.943 14.5253 438.345 11.9273 435.157 11.9273H410.83C407.524 4.95985 400.556 0 392.29 0C384.023 0 377.056 4.95985 373.867 11.9273H349.541C346.352 11.9273 343.754 14.5253 343.754 17.7137V26.8068H323.678C311.987 26.8068 302.54 36.2541 302.54 47.9452V242.915C302.54 254.606 311.987 264.053 323.678 264.053H461.137C472.828 264.053 482.276 254.606 482.276 242.915V215.753L476.371 221.658V243.033C476.371 251.417 469.522 258.266 461.137 258.266H323.56C315.176 258.266 308.327 251.417 308.327 243.033V47.9452C308.327 39.5607 315.176 32.7114 323.56 32.7114H343.636V42.6311C343.636 45.8196 346.234 48.4176 349.422 48.4176H434.921C438.109 48.4176 440.707 45.8196 440.707 42.6311V32.7114H460.783C469.167 32.7114 476.017 39.5607 476.017 47.9452V70.3826L481.921 64.478V47.9452C482.157 36.3722 472.71 26.8068 461.019 26.8068ZM392.29 5.90458C397.131 5.90458 401.383 8.26642 403.981 11.9273H380.717C383.315 8.26642 387.566 5.90458 392.29 5.90458Z" fill="#072440"/>
<path d="M344.58 94.3552C344.58 96.599 343.518 98.3703 341.392 99.4332C343.045 100.732 343.872 102.504 343.872 104.747C343.872 106.873 343.045 108.644 341.392 109.825C339.739 111.006 337.377 111.715 334.543 111.715C331.472 111.715 328.992 111.006 327.221 109.707C325.45 108.408 324.505 106.401 324.505 103.803H328.992C328.992 105.22 329.465 106.282 330.409 106.991C331.354 107.7 332.771 108.172 334.425 108.172C335.96 108.172 337.141 107.818 337.967 107.227C338.794 106.637 339.266 105.81 339.266 104.865C339.266 103.921 338.794 103.094 337.967 102.622C337.141 102.149 335.605 101.441 333.244 100.732C330.882 100.142 329.11 99.4332 327.93 98.7246C326.749 98.0161 325.922 97.1894 325.332 96.2447C324.741 95.3 324.505 94.119 324.505 92.82C324.505 90.5763 325.568 88.8049 327.693 87.7421C326.867 87.1516 326.276 86.325 325.804 85.4983C325.332 84.6717 325.213 83.6089 325.213 82.3099C325.213 80.1842 326.04 78.5309 327.811 77.2319C329.583 75.9329 331.827 75.3425 334.661 75.3425C337.613 75.3425 339.975 76.051 341.628 77.4681C343.281 78.8852 344.108 80.8928 344.108 83.3727H339.739C339.739 82.0737 339.266 81.0109 338.44 80.1842C337.613 79.3576 336.314 79.0033 334.897 79.0033C333.362 79.0033 332.181 79.3576 331.354 79.948C330.528 80.5385 330.055 81.3651 330.055 82.428C330.055 83.4908 330.409 84.3174 331.236 84.7898C331.945 85.3803 333.598 85.9707 335.96 86.5612C338.322 87.1516 340.211 87.8602 341.392 88.5687C342.573 89.2773 343.518 90.1039 343.99 91.0487C344.344 91.8753 344.58 92.9381 344.58 94.3552ZM334.07 90.222C333.007 89.9858 332.063 89.6316 331.118 89.2773C329.819 89.7496 329.11 90.8125 329.11 92.3477C329.11 93.4105 329.465 94.119 330.055 94.7095C330.646 95.2999 331.945 95.7723 333.716 96.3628L337.023 97.3075L337.849 97.6618C339.266 97.0713 339.975 96.0085 339.975 94.5914C339.975 93.5286 339.503 92.82 338.676 92.1115C337.849 91.4029 336.432 90.9306 334.07 90.222Z" fill="#EA5068"/>
<path d="M344.58 152.456C344.58 154.7 343.518 156.471 341.392 157.534C343.045 158.833 343.872 160.605 343.872 162.848C343.872 164.974 343.045 166.745 341.392 167.926C339.739 169.107 337.377 169.816 334.543 169.816C331.472 169.816 328.992 169.107 327.221 167.808C325.45 166.509 324.505 164.502 324.505 161.904H328.992C328.992 163.321 329.465 164.384 330.409 165.092C331.354 165.801 332.771 166.273 334.425 166.273C335.96 166.273 337.141 165.919 337.967 165.328C338.794 164.738 339.266 163.911 339.266 162.966C339.266 162.022 338.794 161.195 337.967 160.723C337.141 160.132 335.605 159.542 333.244 158.833C330.882 158.243 329.11 157.534 327.93 156.826C326.749 156.117 325.922 155.291 325.332 154.346C324.741 153.401 324.505 152.22 324.505 150.921C324.505 148.677 325.568 146.906 327.693 145.843C326.867 145.253 326.276 144.426 325.804 143.599C325.332 142.773 325.213 141.71 325.213 140.411C325.213 138.285 326.04 136.632 327.811 135.333C329.583 134.034 331.827 133.444 334.661 133.444C337.613 133.444 339.975 134.152 341.628 135.569C343.281 136.986 344.108 138.994 344.108 141.474H339.739C339.739 140.175 339.266 139.112 338.44 138.285C337.495 137.459 336.314 137.104 334.897 137.104C333.362 137.104 332.181 137.459 331.354 138.049C330.528 138.64 330.055 139.466 330.055 140.529C330.055 141.592 330.409 142.419 331.236 142.891C331.945 143.481 333.598 144.072 335.96 144.662C338.322 145.253 340.211 145.961 341.392 146.67C342.573 147.378 343.518 148.205 343.99 149.15C344.344 149.976 344.58 151.039 344.58 152.456ZM334.07 148.323C333.007 148.087 332.063 147.733 331.118 147.378C329.819 147.851 329.11 148.914 329.11 150.449C329.11 151.512 329.465 152.22 330.055 152.811C330.646 153.401 331.945 153.873 333.716 154.464L337.023 155.409L337.849 155.763C339.266 155.172 339.975 154.11 339.975 152.692C339.975 151.63 339.503 150.921 338.676 150.213C337.849 149.504 336.432 149.032 334.07 148.323Z" fill="#EA5068"/>
<path d="M344.58 210.557C344.58 212.801 343.518 214.573 341.392 215.635C343.045 216.934 343.872 218.706 343.872 220.949C343.872 223.075 343.045 224.846 341.392 226.027C339.739 227.208 337.377 227.917 334.543 227.917C331.472 227.917 328.992 227.208 327.221 225.909C325.45 224.61 324.505 222.603 324.505 220.005H328.992C328.992 221.422 329.465 222.485 330.409 223.193C331.354 223.902 332.771 224.374 334.425 224.374C335.96 224.374 337.141 224.02 337.967 223.429C338.794 222.839 339.266 222.012 339.266 221.068C339.266 220.123 338.794 219.296 337.967 218.824C337.141 218.233 335.605 217.643 333.244 216.934C330.882 216.344 329.11 215.635 327.93 214.927C326.749 214.218 325.922 213.392 325.332 212.447C324.741 211.502 324.505 210.321 324.505 209.022C324.505 206.778 325.568 205.007 327.693 203.944C326.867 203.354 326.276 202.527 325.804 201.701C325.332 200.874 325.213 199.811 325.213 198.512C325.213 196.386 326.04 194.733 327.811 193.434C329.583 192.135 331.827 191.545 334.661 191.545C337.613 191.545 339.975 192.253 341.628 193.67C343.281 195.087 344.108 197.095 344.108 199.575H339.739C339.739 198.276 339.266 197.213 338.44 196.386C337.495 195.56 336.314 195.205 334.897 195.205C333.362 195.205 332.181 195.56 331.354 196.15C330.528 196.741 330.055 197.567 330.055 198.63C330.055 199.693 330.409 200.52 331.236 200.992C331.945 201.582 333.598 202.173 335.96 202.763C338.322 203.354 340.211 204.062 341.392 204.771C342.573 205.479 343.518 206.306 343.99 207.251C344.344 208.077 344.58 209.14 344.58 210.557ZM334.07 206.424C333.007 206.188 332.063 205.834 331.118 205.479C329.819 205.952 329.11 207.015 329.11 208.55C329.11 209.613 329.465 210.321 330.055 210.912C330.646 211.502 331.945 211.975 333.716 212.565L337.023 213.51L337.849 213.864C339.266 213.274 339.975 212.211 339.975 210.794C339.975 209.731 339.503 209.022 338.676 208.314C338.085 207.841 336.432 207.133 334.07 206.424Z" fill="#EA5068"/>
<path d="M424.529 85.026H355.445V90.9306H424.529V85.026Z" fill="#072440"/>
<path d="M384.496 95.2999H355.445V101.205H384.496V95.2999Z" fill="#072440"/>
<path d="M412.956 95.2999H395.124V101.205H412.956V95.2999Z" fill="#072440"/>
<path d="M424.529 143.481H355.445V149.386H424.529V143.481Z" fill="#072440"/>
<path d="M384.496 153.755H355.445V159.66H384.496V153.755Z" fill="#072440"/>
<path d="M401.973 153.755H391.581V159.66H401.973V153.755Z" fill="#072440"/>
<path d="M424.529 201.582H355.445V207.487H424.529V201.582Z" fill="#072440"/>
<path d="M384.496 211.856H355.445V217.761H384.496V211.856Z" fill="#072440"/>
<path d="M412.956 211.856H395.124V217.761H412.956V211.856Z" fill="#072440"/>
<path d="M490.66 61.1715L500.816 71.3274L465.625 106.282L439.29 79.948L449.446 69.7922L465.625 85.9707L490.66 61.1715Z" fill="#EA5068"/>
<path d="M371.151 30.2315C371.151 33.3018 368.671 35.7818 365.601 35.7818C362.531 35.7818 360.051 33.3018 360.051 30.2315C360.051 27.1611 362.531 24.6812 365.601 24.6812C368.671 24.6812 371.151 27.1611 371.151 30.2315Z" fill="#EA5068"/>
<path d="M374.576 20.1937H367.254V24.2088H373.395C376.702 24.2088 379.3 26.9249 379.3 30.1134C379.3 33.3018 376.584 36.018 373.395 36.018H367.254V40.1512H374.34C379.89 40.1512 384.378 35.6637 384.378 30.1134C384.496 24.6812 380.126 20.1937 374.576 20.1937Z" fill="white"/>
<path d="M391.817 23.8545V29.1686H400.438V32.9476H391.817V40.2692H387.094V20.0756H402.446V23.8545H391.817Z" fill="white"/>
<path d="M419.215 40.3873L414.373 33.4199L409.531 40.3873H404.099L411.539 30.1134L404.453 20.1937H409.768L414.373 26.8068L418.979 20.1937H424.057L416.971 29.9953L424.529 40.5054H419.215V40.3873Z" fill="white"/>
<path d="M371.151 25.2716C370.679 25.2716 370.089 25.3897 369.734 25.5078C371.033 26.6887 371.86 28.342 371.86 30.2315C371.86 32.1209 371.033 33.7742 369.734 34.9551C370.207 35.0732 370.679 35.1913 371.151 35.1913C373.868 35.1913 376.111 32.9476 376.111 30.2315C376.111 27.5154 373.868 25.2716 371.151 25.2716Z" fill="#EA5068"/>
<path d="M104.618 246.457C161.947 246.457 208.421 199.983 208.421 142.655C208.421 85.3261 161.947 38.8521 104.618 38.8521C47.2899 38.8521 0.815918 85.3261 0.815918 142.655C0.815918 199.983 47.2899 246.457 104.618 246.457Z" fill="#274677"/>
<path d="M111.467 66.6037L109.106 59.282L115.364 54.6764H107.57L105.209 47.3547L102.847 54.6764H95.0527L101.312 59.282L98.9498 66.6037L105.209 62.1162L111.467 66.6037Z" fill="#EBAD10"/>
<path d="M111.467 231.46L109.106 224.02L115.364 219.532H107.57L105.209 212.211L102.847 219.532H95.0527L101.312 224.02L98.9498 231.46L105.209 226.972L111.467 231.46Z" fill="#EBAD10"/>
<path d="M29.0397 149.15L26.6779 141.592L32.9368 137.104H25.1427L22.7809 129.783L20.419 137.104H12.625L19.0019 141.592L16.522 149.032L22.7809 144.544L29.0397 149.15Z" fill="#EBAD10"/>
<path d="M70.2536 77.8224L67.8918 70.3826L74.2687 65.777H66.3566L63.9947 58.3373L61.6329 65.777H53.8389L60.2158 70.2645L57.7359 77.8224L63.9947 73.3349L70.2536 77.8224Z" fill="#EBAD10"/>
<path d="M40.1403 107.936L37.6604 100.496L43.9193 95.8904H36.2433L33.8815 88.5687L31.4015 95.8904H23.7256L29.9844 100.496L27.5045 107.936L33.8815 103.33L40.1403 107.936Z" fill="#EBAD10"/>
<path d="M40.1403 190.246L37.6604 182.806L43.9193 178.318H36.2433L33.8815 170.997L31.4015 178.318H23.7256L29.9844 182.806L27.5045 190.246L33.8815 185.758L40.1403 190.246Z" fill="#EBAD10"/>
<path d="M70.2536 220.477L67.8918 213.037L74.2687 208.55H66.3566L63.9947 201.11L61.6329 208.55H53.8389L60.0977 213.037L57.7359 220.477L63.9947 215.872L70.2536 220.477Z" fill="#EBAD10"/>
<path d="M193.896 149.032L191.416 141.592L197.675 137.104H189.999L187.637 129.783L185.157 137.104H177.481L183.622 141.592L181.26 149.15L187.637 144.544L193.896 149.032Z" fill="#EBAD10"/>
<path d="M152.682 77.8224L150.202 70.2645L156.579 65.777H148.785L146.423 58.3373L143.943 65.777H136.149L142.526 70.3826L140.164 77.8224L146.423 73.3349L152.682 77.8224Z" fill="#EBAD10"/>
<path d="M186.692 95.8904H179.016L176.536 88.5687L174.293 95.8904H166.38L172.639 100.496L170.277 107.936L176.536 103.33L182.795 107.936L180.433 100.496L186.692 95.8904Z" fill="#EBAD10"/>
<path d="M186.692 178.318H179.016L176.536 170.997L174.293 178.318H166.38L172.639 182.806L170.277 190.246L176.536 185.758L182.795 190.246L180.433 182.806L186.692 178.318Z" fill="#EBAD10"/>
<path d="M152.682 220.477L150.202 213.037L156.579 208.55H148.785L146.423 201.11L143.943 208.55H136.149L142.526 213.037L140.164 220.477L146.423 215.872L152.682 220.477Z" fill="#EBAD10"/>
<path d="M138.156 175.13V104.511C138.156 98.3703 134.614 93.4105 130.362 93.4105H66.4747C62.2234 93.4105 58.9168 98.1342 58.6807 104.275V105.338H72.1431V175.957V176.311C72.2612 182.452 75.6859 187.175 79.9372 187.175H143.234H143.943C148.194 187.175 151.501 182.452 151.737 176.311V175.248L138.156 175.13ZM143.943 184.932H84.6608C86.3141 183.16 87.495 180.444 87.7312 177.256H149.493C149.021 181.507 146.541 184.932 143.943 184.932ZM60.9244 103.094C61.3968 98.8427 63.7586 95.418 66.4747 95.418H66.7109C69.427 95.418 71.7888 98.7246 72.2612 103.094H60.9244Z" fill="white"/>
<path d="M95.5254 145.843H126.229V147.378H95.5254V145.843Z" fill="#C7C7C7"/>
<path d="M95.5254 151.393H126.229V152.929H95.5254V151.393Z" fill="#C7C7C7"/>
<path d="M95.5254 156.944H126.229V158.479H95.5254V156.944Z" fill="#C7C7C7"/>
<path d="M95.5254 162.494H113.593V164.029H95.5254V162.494Z" fill="#C7C7C7"/>
<path d="M90.92 150.449C90.92 151.275 90.5657 151.866 89.8571 152.22C90.4476 152.692 90.6838 153.283 90.6838 154.11C90.6838 154.818 90.4476 155.409 89.8571 155.881C89.2667 156.353 88.44 156.471 87.4953 156.471C86.4325 156.471 85.6058 156.235 84.8973 155.763C84.3068 155.29 83.9526 154.582 83.9526 153.755H85.4877C85.4877 154.228 85.6058 154.582 85.9601 154.818C86.3144 155.054 86.7868 155.172 87.3772 155.172C87.8496 155.172 88.322 155.054 88.6762 154.818C89.0305 154.582 89.1486 154.346 89.1486 153.991C89.1486 153.637 89.0305 153.401 88.6762 153.165C88.322 152.929 87.8496 152.692 87.0229 152.456C86.1963 152.22 85.6058 151.984 85.1335 151.748C84.7792 151.512 84.4249 151.275 84.1887 150.921C83.9526 150.567 83.8345 150.213 83.8345 149.74C83.8345 148.914 84.1887 148.323 84.8973 147.969C84.6611 147.733 84.4249 147.496 84.3068 147.142C84.1887 146.788 84.0707 146.434 84.0707 146.079C84.0707 145.371 84.4249 144.78 85.0154 144.308C85.6058 143.836 86.4325 143.599 87.3772 143.599C88.44 143.599 89.2667 143.836 89.8571 144.308C90.4476 144.78 90.6838 145.489 90.6838 146.316H89.1486C89.1486 145.843 89.0305 145.489 88.6762 145.253C88.322 145.017 87.9677 144.78 87.3772 144.78C86.7868 144.78 86.4325 144.898 86.0782 145.135C85.7239 145.371 85.6058 145.607 85.6058 145.961C85.6058 146.316 85.7239 146.552 85.9601 146.788C86.1963 147.024 86.7868 147.142 87.6134 147.378C88.44 147.615 89.0305 147.851 89.5029 148.087C89.9752 148.323 90.2114 148.677 90.4476 148.914C90.6838 149.15 90.92 149.976 90.92 150.449ZM87.2591 149.032C86.9048 148.914 86.5506 148.795 86.1963 148.677C85.7239 148.795 85.4877 149.15 85.4877 149.74C85.4877 150.094 85.6058 150.331 85.842 150.567C86.0782 150.803 86.4325 150.921 87.141 151.157L88.3219 151.512L88.6762 151.63C89.1486 151.393 89.3848 151.039 89.3848 150.567C89.3848 150.213 89.2667 149.976 88.9124 149.74C88.5581 149.504 88.0858 149.268 87.2591 149.032Z" fill="#C7C7C7"/>
<g opacity="0.3">
<path opacity="0.3" d="M222.474 145.135C223.844 145.135 224.954 144.024 224.954 142.655C224.954 141.285 223.844 140.175 222.474 140.175C221.104 140.175 219.994 141.285 219.994 142.655C219.994 144.024 221.104 145.135 222.474 145.135Z" fill="#274677"/>
<path opacity="0.3" d="M239.361 145.135C240.731 145.135 241.841 144.024 241.841 142.655C241.841 141.285 240.731 140.175 239.361 140.175C237.992 140.175 236.881 141.285 236.881 142.655C236.881 144.024 237.992 145.135 239.361 145.135Z" fill="#274677"/>
<path opacity="0.3" d="M256.13 145.135C257.5 145.135 258.61 144.024 258.61 142.655C258.61 141.285 257.5 140.175 256.13 140.175C254.761 140.175 253.65 141.285 253.65 142.655C253.65 144.024 254.761 145.135 256.13 145.135Z" fill="#274677"/>
<path opacity="0.3" d="M272.899 145.135C274.269 145.135 275.379 144.024 275.379 142.655C275.379 141.285 274.269 140.175 272.899 140.175C271.53 140.175 270.419 141.285 270.419 142.655C270.419 144.024 271.53 145.135 272.899 145.135Z" fill="#274677"/>
<path opacity="0.3" d="M289.668 145.135C291.038 145.135 292.148 144.024 292.148 142.655C292.148 141.285 291.038 140.175 289.668 140.175C288.299 140.175 287.188 141.285 287.188 142.655C287.188 144.024 288.299 145.135 289.668 145.135Z" fill="#274677"/>
</g>
<path d="M124.34 119.154H123.631V114.667C123.631 112.659 121.978 111.006 119.97 111.006H118.789V109.353C118.789 108.408 118.435 107.463 117.727 106.755C117.018 106.046 116.073 105.692 115.129 105.692H95.7615C92.6912 105.692 90.6836 107.109 90.6836 109.235V109.353V132.499C90.6836 134.506 92.6912 136.632 96.4701 136.632H119.97C121.978 136.632 123.631 134.979 123.631 132.971V127.421H124.34V119.154ZM122.568 120.926V125.413H118.317C117.018 125.413 116.073 124.35 116.073 123.17C116.073 121.871 117.136 120.926 118.317 120.926H122.568ZM95.7615 107.345H115.01C115.483 107.345 116.073 107.581 116.428 107.936C116.782 108.29 117.018 108.762 117.018 109.353V111.006H95.7615C93.754 111.006 92.455 110.298 92.455 109.235C92.455 108.054 93.8721 107.345 95.7615 107.345ZM121.86 132.735C121.86 133.798 121.033 134.624 119.97 134.624H96.4701C93.8721 134.624 92.455 133.444 92.455 132.263V111.951C93.2816 112.423 94.3444 112.659 95.7615 112.659H119.852C120.915 112.659 121.742 113.486 121.742 114.549V119.036H118.199C115.955 119.036 114.184 120.808 114.184 123.051C114.184 125.295 115.955 127.067 118.199 127.067H121.742V132.735H121.86Z" fill="#C7C7C7"/>
</g>
<defs>
<clipPath id="clip0_1042_1014">
<rect width="500" height="263.935" fill="white" transform="translate(0.815918)"/>
</clipPath>
</defs>
</svg>
