<svg xmlns="http://www.w3.org/2000/svg" xmlns:xlink="http://www.w3.org/1999/xlink" viewBox="0 0 652.53331 348.14743"><defs><style>.cls-1,.cls-3,.cls-7{fill:none;}.cls-2{clip-path:url(#clip-path);}.cls-3{stroke:#063e62;stroke-width:0.87445px;}.cls-3,.cls-7{stroke-miterlimit:10;}.cls-4{fill:#f5516c;}.cls-5{fill:#fff;}.cls-6{fill:#072440;}.cls-7{stroke:#f5516c;stroke-width:3.47222px;}.cls-8{fill:#063e62;}</style><clipPath id="clip-path"><rect class="cls-1" x="92.76206" y="45.18254" width="471.36967" height="262.41544" transform="translate(656.89379 352.78053) rotate(180)"/></clipPath></defs><title>2021_09_20_your-keys-your-coins</title><g id="_deep_blue" data-name="! deep blue"><g class="cls-2"><polyline class="cls-3" points="517.746 76.39 487.849 76.39 458.982 126.39"/><polyline class="cls-3" points="228.042 226.39 199.174 276.39 228.042 326.39 199.174 276.39 141.439 276.39 141.294 276.39"/><polyline class="cls-3" points="141.294 76.39 141.439 76.39 199.174 76.39 228.042 126.39 199.174 176.39 228.042 226.39 285.777 226.39 314.644 276.39 372.379 276.39 314.644 276.39 285.777 326.39"/><line class="cls-3" x1="228.0415" y1="26.39026" x2="199.17399" y2="76.39027"/><polyline class="cls-3" points="487.849 276.39 458.982 226.39 401.247 226.39 372.379 276.39 401.247 326.39 372.379 276.39 401.247 226.39 372.379 176.39 401.247 126.39 372.379 76.39 401.247 26.39 372.379 76.39 314.644 76.39 285.777 126.39 314.644 76.39 285.777 26.39"/><path class="cls-4" d="M291.89434,230.4342H158.59845a10.23023,10.23023,0,0,1-10.21828-10.21828V132.5645a10.23024,10.23024,0,0,1,10.21828-10.21829H291.89434a10.22979,10.22979,0,0,1,10.21744,10.21829v87.65142A10.22978,10.22978,0,0,1,291.89434,230.4342Z"/><path class="cls-5" d="M158.59845,126.361h133.295a6.20353,6.20353,0,0,1,6.20353,6.20353v87.65227a6.20269,6.20269,0,0,1-6.20269,6.20269H158.59845a6.20353,6.20353,0,0,1-6.20353-6.20353V132.5645A6.20353,6.20353,0,0,1,158.59845,126.361Z"/><path class="cls-4" d="M190.44878,139.76283h-.00006A16.95087,16.95087,0,0,0,173.54753,156.664h0a16.95087,16.95087,0,0,0,16.90119,16.90113h.00006A16.95088,16.95088,0,0,0,207.35,156.664h0A16.95088,16.95088,0,0,0,190.44878,139.76283Zm-.02136,5.44668,6.912,11.5024-6.912,4.11576-6.96479-4.11576Zm.09551,22.90889-6.96478-9.76128,6.96478,4.1155,6.912-4.1155Z"/><path class="cls-4" d="M178.9371,186.7857h0a16.95091,16.95091,0,0,0-16.90121,16.90121v0a16.95091,16.95091,0,0,0,16.90121,16.90121h0A16.9509,16.9509,0,0,0,195.83831,203.687v0A16.95089,16.95089,0,0,0,178.9371,186.7857Zm.02532,27.42182V205.2762l-1.46072,1.46369c-.04962.86736-.18279,3.2547-.18279,3.2547l1.38018,4.21027a10.67542,10.67542,0,0,1-2.49516-.35042l-.69678-2.02989-1.90758.95551a10.71434,10.71434,0,0,1-2.04623-1.537l3.525-1.7938.12247-2.1025-2.10937.11786-1.78777,3.53066a10.71543,10.71543,0,0,1-1.55652-2.02734l.97228-1.932-2.08916-.71266a10.67235,10.67235,0,0,1-.36608-2.54326l4.25888,1.36852,3.426-.14886,1.437-1.437-1.437-1.437-3.426-.14882-4.25964,1.36875a10.68008,10.68008,0,0,1,.34918-2.53749l2.10682-.71866-.98838-1.964a10.71436,10.71436,0,0,1,1.55288-2.03436l1.80751,3.56967,2.10937.11786-.12247-2.1025-3.56488-1.81408a10.71338,10.71338,0,0,1,2.03185-1.54386l1.96181.98265.7192-2.09516a10.67967,10.67967,0,0,1,2.49222-.34462l-1.39966,4.26976s.13317,2.38732.18279,3.25468l1.46072,1.46369V192.8586a10.67449,10.67449,0,0,1,0,21.34892Z"/><path class="cls-4" d="M181.32684,195.56615V211.5a8.28945,8.28945,0,0,0,0-15.93383Z"/><path class="cls-4" d="M226.711,187.07146l-.97473,3.91688c1.10716.27928,4.50324,1.39759,5.05514-.81566V190.166C231.3634,187.84707,227.8115,187.33745,226.711,187.07146Z"/><path class="cls-4" d="M225.24441,192.94893l-1.07159,4.29966c1.3264.3305,5.41239,1.65129,6.00883-.78225C230.81369,193.94488,226.5719,193.29058,225.24441,192.94893Z"/><path class="cls-4" d="M226.56434,175.80442h0a16.9509,16.9509,0,0,0-16.9012,16.90119v.00008a16.95091,16.95091,0,0,0,16.9012,16.90119h0a16.95089,16.95089,0,0,0,16.90121-16.90119v-.00008A16.95089,16.95089,0,0,0,226.56434,175.80442Zm8.08607,14.39719h-.02a3.1285,3.1285,0,0,1-2.49145,2.86307c1.75482.91577,2.64833,2.31119,1.80264,4.74031-1.05489,3.01331-3.55965,3.26254-6.88564,2.63161l-.80563,3.25033-1.95844-.49294.75225-3.19248c-.50964-.12235-1.01928-.25483-1.55229-.40615l-.80562,3.21693-1.95953-.48069.80563-3.25251-1.3787-.35942-2.53818-.632.97923-2.23557s1.44322.38061,1.42541.35277a.73.73,0,0,0,.90913-.464l2.191-8.7851a1.04465,1.04465,0,0,0-.91688-1.13612c.0356-.01776-1.41435-.34717-1.41435-.34717l.522-2.09306,2.68833.67319c.41285.0979.82341.19589,1.24627.29492l.8-3.21033,1.95959.48629-.77785,3.15908c.53416.12127,1.066.237,1.57676.37058l.77559-3.13015,1.954.4929-.80115,3.19478C233.20052,186.56857,235.00316,187.84259,234.65041,190.20161Z"/><path class="cls-4" d="M250.66764,176.39013a19.72616,19.72616,0,0,0,19.72617,19.72617h36.24358V156.664H270.39381A19.72616,19.72616,0,0,0,250.66764,176.39013Z"/><circle class="cls-6" cx="278.65251" cy="172.26376" r="5.20832"/><path class="cls-6" d="M279.98544,187.11747h-2.66585a1.2859,1.2859,0,0,1-1.27664-1.44006l1.25891-10.42572h2.70131l1.25891,10.42572A1.28591,1.28591,0,0,1,279.98544,187.11747Z"/><polyline class="cls-7" points="517.746 176.361 487.849 176.361 458.982 126.361 401.247 126.39 372.379 176.39 286.576 176.39"/><circle class="cls-4" cx="372.37906" cy="176.39027" r="6.10583"/><circle class="cls-4" cx="401.24657" cy="126.39042" r="6.10583"/><circle class="cls-4" cx="458.98159" cy="126.39042" r="6.10583"/><circle class="cls-8" cx="372.37906" cy="276.39011" r="3.90624"/><circle class="cls-8" cx="314.64404" cy="76.39041" r="3.90624"/><circle class="cls-8" cx="199.17399" cy="276.39011" r="3.90624"/><circle class="cls-8" cx="199.17399" cy="76.39011" r="3.90624"/></g></g></svg>