<?xml version="1.0" standalone="no"?>
<!DOCTYPE svg PUBLIC "-//W3C//DTD SVG 20010904//EN"
 "http://www.w3.org/TR/2001/REC-SVG-20010904/DTD/svg10.dtd">
<svg version="1.0" xmlns="http://www.w3.org/2000/svg"
 width="1280.000000pt" height="720.000000pt" viewBox="0 0 1280.000000 720.000000"
 preserveAspectRatio="xMidYMid meet">

<g transform="translate(0.000000,720.000000) scale(0.100000,-0.100000)"
fill="#000000" stroke="none">
<path d="M0 3600 l0 -3600 6400 0 6400 0 0 3600 0 3600 -6400 0 -6400 0 0
-3600z m4617 2388 c-3 -8 -6 -5 -6 6 -1 11 2 17 5 13 3 -3 4 -12 1 -19z m364
-35 c13 -16 12 -17 -3 -4 -10 7 -18 15 -18 17 0 8 8 3 21 -13z m516 -5 c-3 -8
-6 -5 -6 6 -1 11 2 17 5 13 3 -3 4 -12 1 -19z m448 4 c-3 -3 -11 0 -18 7 -9
10 -8 11 6 5 10 -3 15 -9 12 -12z m1480 8 c3 -6 -1 -7 -9 -4 -18 7 -21 14 -7
14 6 0 13 -4 16 -10z m699 2 c2 -4 -5 -9 -17 -9 -17 -2 -19 0 -7 7 18 12 18
12 24 2z m-469 -11 c3 -5 0 -13 -6 -17 -7 -4 -9 -3 -5 4 3 5 0 13 -6 15 -9 4
-10 6 -1 6 6 1 14 -3 18 -8z m-1301 -9 c3 -5 -1 -9 -9 -9 -8 0 -12 4 -9 9 3 4
7 8 9 8 2 0 6 -4 9 -8z m366 -37 c14 -19 14 -19 -2 -6 -10 7 -18 18 -18 24 0
6 1 8 3 6 1 -2 9 -13 17 -24z m-933 -1 c-8 -8 -48 -13 -43 -6 2 4 14 8 26 9
12 1 20 0 17 -3z m1897 -6 c-3 -4 -11 -5 -19 -1 -21 7 -19 12 4 10 11 0 18 -5
15 -9z m-2393 -71 c-10 -9 -11 -8 -5 6 3 10 9 15 12 12 3 -3 0 -11 -7 -18z
m519 14 c0 -5 -7 -12 -16 -15 -14 -5 -15 -4 -4 9 14 17 20 19 20 6z m-675 -11
c3 -6 -1 -7 -9 -4 -18 7 -21 14 -7 14 6 0 13 -4 16 -10z m1145 0 c0 -5 -5 -10
-11 -10 -5 0 -7 5 -4 10 3 6 8 10 11 10 2 0 4 -4 4 -10z m1430 6 c0 -2 -7 -7
-16 -10 -8 -3 -12 -2 -9 4 6 10 25 14 25 6z m-2642 -1344 c13 -10 25 -33 28
-54 9 -53 -27 -88 -91 -88 l-45 0 0 80 0 80 43 0 c24 0 51 -8 65 -18z m189 9
c5 -3 13 -15 17 -26 6 -18 8 -17 30 10 16 19 28 26 40 22 15 -6 14 -10 -8 -44
l-25 -37 24 -32 c31 -41 31 -44 0 -44 -17 0 -29 8 -37 25 l-11 24 -19 -24
c-11 -14 -29 -25 -40 -25 -19 0 -20 1 -4 25 9 14 14 31 10 37 -4 7 -3 8 4 4
15 -9 16 18 1 42 -8 13 -21 16 -50 14 -45 -5 -54 -29 -12 -34 39 -4 42 -28 4
-28 -28 0 -31 -3 -31 -30 0 -23 -4 -30 -20 -30 -18 0 -20 7 -20 80 l0 80 69
-1 c38 -1 73 -4 78 -8z m1644 -7 c17 -20 22 -114 7 -131 -6 -7 -32 -13 -59
-13 l-49 0 0 80 0 80 44 0 c28 0 48 -6 57 -16z m116 4 c5 -7 21 -42 34 -78
l24 -65 3 78 c2 51 7 77 15 77 6 0 28 -19 49 -42 l37 -43 1 43 c0 36 3 43 18
40 14 -3 18 -17 22 -74 l5 -71 22 34 c12 18 17 33 11 33 -6 0 -8 3 -5 6 3 4 0
16 -8 28 -33 46 -2 66 34 20 l20 -25 17 25 c9 14 25 26 35 26 24 0 24 -5 -1
-40 -22 -31 -20 -70 5 -90 10 -9 15 -4 20 19 12 55 44 111 64 111 14 0 25 -18
45 -72 14 -40 26 -76 26 -80 0 -15 -38 -8 -44 7 -3 8 -17 15 -31 15 -14 0 -28
-7 -31 -15 -4 -10 -20 -15 -43 -15 -31 0 -40 5 -50 27 -12 27 -13 27 -27 8 -8
-10 -14 -22 -14 -27 0 -11 -81 -10 -98 1 -8 4 -12 10 -10 12 1 3 -7 17 -19 33
l-23 29 0 -42 0 -41 -44 0 c-30 0 -46 5 -50 15 -3 8 -17 15 -31 15 -14 0 -28
-7 -31 -15 -4 -8 -15 -15 -26 -15 -16 0 -18 4 -12 23 5 12 8 32 9 44 0 11 3
19 6 17 3 -2 13 14 22 36 15 40 36 51 54 28z m1783 -12 c0 -19 -4 -23 -20 -19
-18 5 -20 0 -20 -57 0 -58 -1 -61 -22 -58 -23 3 -24 6 -27 91 -1 20 -6 27 -21
27 -13 0 -20 7 -20 20 0 18 7 20 65 20 62 0 65 -1 65 -24z m102 12 c16 -13 32
-81 17 -72 -16 10 -19 -17 -5 -38 15 -21 16 -21 21 -2 13 38 39 99 48 112 20
26 42 6 69 -63 l28 -70 -3 68 c-2 59 0 68 17 73 13 4 24 0 33 -12 8 -11 19
-18 24 -16 6 1 8 -1 5 -6 -3 -5 1 -18 9 -28 13 -18 14 -16 15 19 0 24 5 40 15
44 23 8 25 3 26 -65 2 -59 10 -75 25 -51 4 8 9 8 17 0 6 -6 17 -11 24 -11 22
0 14 18 -14 32 -40 19 -45 73 -9 89 33 15 78 4 74 -19 -3 -12 -12 -16 -31 -14
-15 1 -27 -2 -27 -8 0 -6 5 -8 10 -5 6 3 10 1 10 -4 0 -6 7 -11 15 -11 17 0
34 -29 29 -50 -5 -19 32 57 45 93 11 29 32 35 49 15 5 -7 20 -41 32 -75 13
-35 25 -63 27 -63 2 0 3 33 2 73 -2 65 -1 72 17 72 13 0 20 -9 24 -30 l5 -30
25 33 c22 30 48 41 63 25 4 -4 -4 -19 -19 -34 -30 -31 -27 -50 12 -92 l26 -28
-41 2 c-22 2 -38 6 -35 10 2 4 -5 18 -16 30 -14 16 -20 19 -19 9 4 -45 0 -50
-45 -50 -30 0 -46 5 -50 15 -3 8 -16 15 -30 15 -13 0 -26 -7 -30 -15 -6 -18
-46 -20 -46 -3 0 9 -3 9 -12 0 -15 -15 -70 -16 -85 -1 -9 9 -16 8 -27 -4 -15
-14 -18 -14 -41 9 -14 14 -25 29 -25 33 0 5 -7 14 -15 21 -13 11 -15 7 -15
-29 l0 -41 -40 0 c-27 0 -43 5 -46 15 -4 8 -17 15 -30 15 -14 0 -27 -7 -30
-15 -4 -9 -19 -15 -42 -15 -27 0 -42 7 -59 28 l-22 27 -1 -27 c0 -21 -5 -28
-20 -28 -18 0 -20 7 -20 80 l0 80 38 0 c21 0 45 -6 54 -12z m-7613 -41 c-2 -1
-13 -9 -24 -17 -19 -14 -19 -14 -6 3 7 9 18 17 24 17 6 0 8 -1 6 -3z m471 -7
c8 -5 11 -10 5 -10 -5 0 -17 5 -25 10 -8 5 -10 10 -5 10 6 0 17 -5 25 -10z
m-400 -46 c0 -8 -4 -14 -8 -14 -4 0 -8 9 -8 19 0 11 4 17 8 15 4 -3 8 -12 8
-20z m406 -40 c1 -9 0 -13 -4 -10 -3 4 -7 14 -8 22 -1 9 0 13 4 10 3 -4 7 -14
8 -22z m-886 -19 c-7 -8 -17 -15 -22 -15 -11 0 14 29 26 30 5 0 3 -7 -4 -15z
m475 -5 c-3 -5 -12 -10 -18 -10 -7 0 -6 4 3 10 19 12 23 12 15 0z m4715 -360
c0 -11 -4 -20 -9 -20 -5 0 -7 9 -4 20 3 11 7 20 9 20 2 0 4 -9 4 -20z m-477
-257 c-232 -2 -614 -2 -850 0 -235 1 -45 2 422 2 468 0 660 -1 428 -2z m471
-2 c3 -4 -6 -6 -19 -3 -14 2 -25 6 -25 8 0 8 39 4 44 -5z m216 0 c0 -5 -9 -7
-20 -4 -11 3 -20 7 -20 9 0 2 9 4 20 4 11 0 20 -4 20 -9z m30 -1 c0 -5 -2 -10
-4 -10 -3 0 -8 5 -11 10 -3 6 -1 10 4 10 6 0 11 -4 11 -10z m1690 0 c0 -7
-279 -10 -841 -10 -539 0 -838 3 -834 10 8 13 1675 14 1675 0z m70 2 c0 -5 -7
-9 -15 -9 -8 0 -15 4 -15 9 0 4 7 8 15 8 8 0 15 -4 15 -8z m1940 -2 c-20 -13
-1783 -12 -1775 1 4 5 358 9 898 9 591 0 887 -4 877 -10z m-3943 -2587 c-1
-472 -2 -88 -2 852 0 941 1 1327 2 858 2 -468 2 -1238 0 -1710z m170 30 c-1
-466 -2 -87 -2 842 0 930 1 1311 2 848 2 -463 2 -1223 0 -1690z m-5407 2403
c0 -2 -8 -10 -17 -17 -16 -13 -17 -12 -4 4 13 16 21 21 21 13z m1487 -88 c-3
-7 -5 -2 -5 12 0 14 2 19 5 13 2 -7 2 -19 0 -25z m-896 -15 c13 -16 12 -17 -3
-4 -10 7 -18 15 -18 17 0 8 8 3 21 -13z m3739 -77 c0 -2 -8 -10 -17 -17 -16
-13 -17 -12 -4 4 13 16 21 21 21 13z m4080 -11 c0 -7 -30 -13 -34 -7 -3 4 4 9
15 9 10 1 19 0 19 -2z m-4250 -19 c0 -3 -4 -8 -10 -11 -5 -3 -10 -1 -10 4 0 6
5 11 10 11 6 0 10 -2 10 -4z m156 -18 c3 -4 -2 -5 -13 -4 -10 2 -25 -2 -33 -8
-13 -9 -13 -9 -2 6 12 16 35 18 48 6z m5684 -28 c6 -11 8 -20 6 -20 -3 0 -10
9 -16 20 -6 11 -8 20 -6 20 3 0 10 -9 16 -20z m877 -2 c-3 -8 -6 -5 -6 6 -1
11 2 17 5 13 3 -3 4 -12 1 -19z m-4507 -3 c11 -13 10 -14 -4 -9 -9 3 -16 10
-16 15 0 13 6 11 20 -6z m5107 -7 c-3 -8 -6 -5 -6 6 -1 11 2 17 5 13 3 -3 4
-12 1 -19z m-7256 -5 c13 -16 12 -17 -3 -4 -10 7 -18 15 -18 17 0 8 8 3 21
-13z m-3714 -25 c-3 -8 -6 -5 -6 6 -1 11 2 17 5 13 3 -3 4 -12 1 -19z m9510
-25 c-3 -10 -5 -4 -5 12 0 17 2 24 5 18 2 -7 2 -21 0 -30z m-10087 2 c14 -19
14 -19 -2 -6 -10 7 -18 18 -18 24 0 6 1 8 3 6 1 -2 9 -13 17 -24z m255 15 c3
-6 -1 -7 -9 -4 -18 7 -21 14 -7 14 6 0 13 -4 16 -10z m4065 6 c0 -2 -8 -10
-17 -17 -16 -13 -17 -12 -4 4 13 16 21 21 21 13z m7087 -28 c-3 -7 -5 -2 -5
12 0 14 2 19 5 13 2 -7 2 -19 0 -25z m-546 -1 c-10 -9 -11 -8 -5 6 3 10 9 15
12 12 3 -3 0 -11 -7 -18z m-10284 -9 c-3 -8 -6 -5 -6 6 -1 11 2 17 5 13 3 -3
4 -12 1 -19z m7918 12 c3 -6 -1 -7 -9 -4 -18 7 -21 14 -7 14 6 0 13 -4 16 -10z
m2366 -127 c13 -16 12 -17 -3 -4 -10 7 -18 15 -18 17 0 8 8 3 21 -13z m-533
-48 c-3 -3 -9 2 -12 12 -6 14 -5 15 5 6 7 -7 10 -15 7 -18z m-9431 -347 c-3
-7 -5 -2 -5 12 0 14 2 19 5 13 2 -7 2 -19 0 -25z m540 0 c-3 -8 -6 -5 -6 6 -1
11 2 17 5 13 3 -3 4 -12 1 -19z m-540 -50 c-3 -8 -6 -5 -6 6 -1 11 2 17 5 13
3 -3 4 -12 1 -19z m7418 -39 c-4 -5 -12 -9 -18 -8 -9 0 -8 2 1 6 6 2 9 10 6
15 -4 7 -2 8 5 4 6 -4 9 -12 6 -17z m-1854 -26 c13 -16 12 -17 -3 -4 -17 13
-22 21 -14 21 2 0 10 -8 17 -17z m2044 -501 c-3 -3 -11 0 -18 7 -9 10 -8 11 6
5 10 -3 15 -9 12 -12z m-2055 4 c0 -2 -8 -10 -17 -17 -16 -13 -17 -12 -4 4 13
16 21 21 21 13z m-6399 -69 c-10 -9 -11 -8 -5 6 3 10 9 15 12 12 3 -3 0 -11
-7 -18z m1486 -34 c-3 -10 -5 -2 -5 17 0 19 2 27 5 18 2 -10 2 -26 0 -35z
m-160 0 c-3 -10 -5 -4 -5 12 0 17 2 24 5 18 2 -7 2 -21 0 -30z m-1280 -5 c-3
-8 -6 -5 -6 6 -1 11 2 17 5 13 3 -3 4 -12 1 -19z m6273 -21 c0 -2 -10 -12 -22
-23 l-23 -19 19 23 c18 21 26 27 26 19z m1931 -44 c13 -16 12 -17 -3 -4 -10 7
-18 15 -18 17 0 8 8 3 21 -13z m-1821 -9 c0 -8 -19 -13 -24 -6 -3 5 1 9 9 9 8
0 15 -2 15 -3z m1840 -478 c0 -2 -8 -10 -17 -17 -16 -13 -17 -12 -4 4 13 16
21 21 21 13z m-8123 -148 c-3 -7 -5 -2 -5 12 0 14 2 19 5 13 2 -7 2 -19 0 -25z
m917 6 c3 -8 2 -12 -4 -9 -6 3 -10 10 -10 16 0 14 7 11 14 -7z m5247 -21 c13
-16 12 -17 -3 -4 -17 13 -22 21 -14 21 2 0 10 -8 17 -17z m-5894 -35 c-3 -8
-6 -5 -6 6 -1 11 2 17 5 13 3 -3 4 -12 1 -19z m8043 9 c0 -2 -10 -12 -22 -23
l-23 -19 19 23 c18 21 26 27 26 19z m-4198 -34 c-6 -3 -9 -10 -5 -16 4 -7 -1
-6 -10 2 -21 17 -21 17 6 18 12 0 16 -1 9 -4z m4012 -541 c3 -5 -1 -9 -9 -9
-8 0 -12 4 -9 9 3 4 7 8 9 8 2 0 6 -4 9 -8z m-7341 -9 c-7 -2 -19 -2 -25 0 -7
3 -2 5 12 5 14 0 19 -2 13 -5z m-566 -25 c-3 -8 -6 -5 -6 6 -1 11 2 17 5 13 3
-3 4 -12 1 -19z m60 -55 c-3 -10 -5 -2 -5 17 0 19 2 27 5 18 2 -10 2 -26 0
-35z m940 -10 c-3 -10 -5 -4 -5 12 0 17 2 24 5 18 2 -7 2 -21 0 -30z m-1423 1
c3 -8 2 -12 -4 -9 -6 3 -10 10 -10 16 0 14 7 11 14 -7z m7496 -294 c0 -5 -5
-10 -11 -10 -5 0 -7 5 -4 10 3 6 8 10 11 10 2 0 4 -4 4 -10z m-180 -20 c0 -13
-6 -20 -17 -19 -11 0 -13 3 -5 6 6 2 12 11 12 19 0 8 2 14 5 14 3 0 5 -9 5
-20z m-2005 -10 c-3 -5 -16 -10 -28 -9 -20 1 -20 2 3 9 14 4 26 8 28 9 2 1 0
-3 -3 -9z m298 3 c-13 -2 -33 -2 -45 0 -13 2 -3 4 22 4 25 0 35 -2 23 -4z
m1240 0 c-222 -2 -584 -2 -805 0 -222 1 -41 2 402 2 443 0 624 -1 403 -2z
m1542 -3 c-462 -3 -849 -2 -860 2 -11 3 367 6 840 5 l860 -2 -840 -5z m915 -6
c0 -2 -7 -4 -15 -4 -8 0 -15 4 -15 10 0 5 7 7 15 4 8 -4 15 -8 15 -10z m-4497
-1 c-233 -2 -613 -2 -845 0 -233 1 -43 2 422 2 465 0 655 -1 423 -2z"/>
<path d="M5000 4424 c0 -38 3 -45 16 -40 9 3 19 6 24 6 13 0 20 42 9 62 -5 10
-19 18 -29 18 -17 0 -20 -7 -20 -46z"/>
<path d="M6840 4455 c0 -8 7 -15 15 -15 8 0 15 7 15 15 0 8 -7 15 -15 15 -8 0
-15 -7 -15 -15z"/>
<path d="M6840 4394 c0 -9 7 -14 17 -12 25 5 28 28 4 28 -12 0 -21 -6 -21 -16z"/>
<path d="M6986 4435 c-3 -9 0 -15 9 -15 9 0 12 6 9 15 -4 8 -7 15 -9 15 -2 0
-5 -7 -9 -15z"/>
<path d="M7430 4435 c0 -8 4 -15 10 -15 5 0 7 7 4 15 -4 8 -8 15 -10 15 -2 0
-4 -7 -4 -15z"/>
<path d="M8850 4455 c0 -8 7 -15 15 -15 8 0 15 7 15 15 0 8 -7 15 -15 15 -8 0
-15 -7 -15 -15z"/>
<path d="M8996 4435 c-3 -8 -1 -15 4 -15 6 0 10 7 10 15 0 8 -2 15 -4 15 -2 0
-6 -7 -10 -15z"/>
<path d="M9410 4435 c0 -8 4 -15 10 -15 5 0 7 7 4 15 -4 8 -8 15 -10 15 -2 0
-4 -7 -4 -15z"/>
</g>
</svg>
