<svg width="601" height="470" viewBox="0 0 601 470" fill="none" xmlns="http://www.w3.org/2000/svg">
<path d="M54.6588 212H47.1162V251.878H54.6588V212Z" fill="#0A355C"/>
<path d="M68.481 212H60.9385V251.878H68.481V212Z" fill="#0A355C"/>
<path d="M40.7213 212H33.1787V251.878H40.7213V212Z" fill="#0A355C"/>
<path d="M96.2359 212H88.6934V251.878H96.2359V212Z" fill="#0A355C"/>
<path d="M82.3121 212H74.7695V251.878H82.3121V212Z" fill="#0A355C"/>
<path fill-rule="evenodd" clip-rule="evenodd" d="M23.3158 204.288L64.6918 185.612L105.963 204.288H105.969V209.438H23.3154V204.289V204.288H23.3158Z" fill="#0A355C"/>
<path d="M104.496 254.69H24.8799V261.282H104.496V254.69Z" fill="#0A355C"/>
<path d="M352.619 198.7L303.633 221.542" stroke="#F5516C" stroke-width="3" stroke-miterlimit="10"/>
<path d="M352.619 269.174L303.633 246.332" stroke="#F5516C" stroke-width="3" stroke-miterlimit="10"/>
<path d="M303.281 130.622L282.598 207.813" stroke="#F5516C" stroke-width="3" stroke-miterlimit="10"/>
<path d="M108.386 233.676C109.81 233.676 110.966 232.521 110.966 231.096C110.966 229.671 109.81 228.516 108.386 228.516C106.961 228.516 105.806 229.671 105.806 231.096C105.806 232.521 106.961 233.676 108.386 233.676Z" fill="#063E62"/>
<path d="M120.124 233.676C121.549 233.676 122.704 232.521 122.704 231.096C122.704 229.671 121.549 228.516 120.124 228.516C118.699 228.516 117.544 229.671 117.544 231.096C117.544 232.521 118.699 233.676 120.124 233.676Z" fill="#063E62"/>
<path d="M131.864 233.676C133.289 233.676 134.444 232.521 134.444 231.096C134.444 229.671 133.289 228.516 131.864 228.516C130.439 228.516 129.284 229.671 129.284 231.096C129.284 232.521 130.439 233.676 131.864 233.676Z" fill="#063E62"/>
<path d="M143.601 233.676C145.026 233.676 146.181 232.521 146.181 231.096C146.181 229.671 145.026 228.516 143.601 228.516C142.177 228.516 141.021 229.671 141.021 231.096C141.021 232.521 142.177 233.676 143.601 233.676Z" fill="#063E62"/>
<rect x="355.813" y="83.4297" width="147.969" height="45.2289" rx="21.75" stroke="#F5516C" stroke-width="2.5"/>
<path d="M392.558 111.375V94.1794H396.394V114.496H392.942L392.558 111.375ZM383.511 107.512V107.235C383.511 106.141 383.634 105.149 383.881 104.259C384.128 103.359 384.49 102.587 384.966 101.944C385.442 101.3 386.028 100.802 386.725 100.449C387.422 100.096 388.215 99.92 389.106 99.92C389.944 99.92 390.675 100.096 391.302 100.449C391.936 100.802 392.474 101.304 392.915 101.957C393.365 102.601 393.727 103.363 394 104.245C394.273 105.118 394.472 106.075 394.595 107.116V107.724C394.472 108.721 394.273 109.646 394 110.502C393.727 111.357 393.365 112.107 392.915 112.75C392.474 113.385 391.936 113.879 391.302 114.232C390.667 114.585 389.926 114.761 389.079 114.761C388.189 114.761 387.395 114.58 386.699 114.219C386.011 113.857 385.429 113.35 384.953 112.698C384.485 112.045 384.128 111.278 383.881 110.396C383.634 109.514 383.511 108.553 383.511 107.512ZM387.32 107.235V107.512C387.32 108.103 387.364 108.654 387.452 109.166C387.549 109.677 387.704 110.131 387.915 110.528C388.136 110.916 388.418 111.22 388.762 111.441C389.115 111.653 389.542 111.758 390.045 111.758C390.698 111.758 391.235 111.613 391.659 111.322C392.082 111.022 392.404 110.612 392.624 110.092C392.854 109.571 392.986 108.972 393.021 108.293V106.56C392.995 106.005 392.915 105.506 392.783 105.065C392.66 104.616 392.474 104.232 392.227 103.915C391.989 103.597 391.69 103.35 391.328 103.174C390.975 102.998 390.556 102.909 390.071 102.909C389.578 102.909 389.154 103.024 388.802 103.253C388.449 103.474 388.162 103.778 387.942 104.166C387.73 104.554 387.572 105.012 387.466 105.542C387.369 106.062 387.32 106.626 387.32 107.235Z" fill="#0A355C"/>
<path d="M409.635 109.457C409.635 109.113 409.582 108.804 409.476 108.531C409.379 108.249 409.194 107.993 408.92 107.764C408.647 107.526 408.263 107.292 407.77 107.063C407.276 106.833 406.636 106.595 405.852 106.348C404.979 106.066 404.15 105.749 403.365 105.396C402.589 105.043 401.901 104.633 401.301 104.166C400.711 103.69 400.243 103.139 399.899 102.513C399.564 101.886 399.397 101.159 399.397 100.33C399.397 99.5276 399.573 98.8001 399.926 98.1475C400.278 97.4862 400.772 96.9218 401.407 96.4545C402.042 95.9783 402.792 95.6123 403.656 95.3566C404.529 95.1009 405.486 94.973 406.526 94.973C407.946 94.973 409.185 95.2287 410.243 95.7402C411.301 96.2516 412.121 96.9527 412.703 97.8433C413.294 98.7339 413.589 99.7524 413.589 100.899H409.648C409.648 100.334 409.529 99.8406 409.291 99.4174C409.061 98.9853 408.709 98.6458 408.232 98.3989C407.765 98.1519 407.174 98.0285 406.46 98.0285C405.772 98.0285 405.199 98.1343 404.74 98.3459C404.282 98.5488 403.938 98.8265 403.709 99.1793C403.479 99.5232 403.365 99.9112 403.365 100.343C403.365 100.67 403.444 100.965 403.603 101.229C403.77 101.494 404.017 101.741 404.344 101.97C404.67 102.199 405.071 102.416 405.547 102.618C406.024 102.821 406.575 103.02 407.201 103.214C408.25 103.531 409.172 103.888 409.965 104.285C410.768 104.682 411.438 105.127 411.976 105.621C412.514 106.115 412.919 106.675 413.193 107.301C413.466 107.927 413.603 108.637 413.603 109.43C413.603 110.268 413.44 111.018 413.113 111.679C412.787 112.34 412.315 112.9 411.698 113.359C411.081 113.817 410.344 114.166 409.489 114.404C408.634 114.642 407.677 114.761 406.619 114.761C405.666 114.761 404.727 114.638 403.801 114.391C402.875 114.135 402.033 113.751 401.275 113.24C400.525 112.728 399.926 112.076 399.476 111.282C399.026 110.489 398.801 109.549 398.801 108.465H402.783C402.783 109.064 402.875 109.571 403.061 109.986C403.246 110.4 403.506 110.735 403.841 110.991C404.185 111.247 404.591 111.432 405.058 111.547C405.534 111.661 406.054 111.719 406.619 111.719C407.307 111.719 407.871 111.622 408.312 111.428C408.762 111.234 409.092 110.965 409.304 110.621C409.524 110.277 409.635 109.889 409.635 109.457Z" fill="#0A355C"/>
<path d="M423.073 100.185V102.883H414.74V100.185H423.073ZM416.804 96.6529H420.613V110.184C420.613 110.599 420.666 110.916 420.772 111.137C420.887 111.357 421.054 111.511 421.275 111.6C421.495 111.679 421.773 111.719 422.108 111.719C422.346 111.719 422.558 111.71 422.743 111.692C422.937 111.666 423.1 111.639 423.232 111.613L423.245 114.417C422.919 114.523 422.566 114.607 422.187 114.668C421.808 114.73 421.389 114.761 420.931 114.761C420.093 114.761 419.361 114.624 418.735 114.351C418.118 114.069 417.641 113.619 417.306 113.002C416.971 112.384 416.804 111.573 416.804 110.568V96.6529Z" fill="#0A355C"/>
<path d="M424.29 107.486V107.208C424.29 106.159 424.44 105.193 424.74 104.311C425.04 103.421 425.476 102.649 426.05 101.997C426.623 101.344 427.328 100.837 428.166 100.476C429.004 100.105 429.965 99.92 431.049 99.92C432.134 99.92 433.1 100.105 433.946 100.476C434.793 100.837 435.503 101.344 436.076 101.997C436.658 102.649 437.099 103.421 437.399 104.311C437.698 105.193 437.848 106.159 437.848 107.208V107.486C437.848 108.527 437.698 109.492 437.399 110.383C437.099 111.265 436.658 112.036 436.076 112.698C435.503 113.35 434.797 113.857 433.959 114.219C433.122 114.58 432.161 114.761 431.076 114.761C429.991 114.761 429.026 114.58 428.179 114.219C427.341 113.857 426.632 113.35 426.05 112.698C425.476 112.036 425.04 111.265 424.74 110.383C424.44 109.492 424.29 108.527 424.29 107.486ZM428.1 107.208V107.486C428.1 108.086 428.153 108.646 428.259 109.166C428.364 109.686 428.532 110.145 428.761 110.541C428.999 110.929 429.308 111.234 429.687 111.454C430.066 111.675 430.529 111.785 431.076 111.785C431.605 111.785 432.059 111.675 432.438 111.454C432.817 111.234 433.122 110.929 433.351 110.541C433.58 110.145 433.748 109.686 433.854 109.166C433.968 108.646 434.026 108.086 434.026 107.486V107.208C434.026 106.626 433.968 106.079 433.854 105.568C433.748 105.048 433.576 104.589 433.338 104.192C433.108 103.787 432.804 103.469 432.425 103.24C432.046 103.011 431.587 102.896 431.049 102.896C430.512 102.896 430.053 103.011 429.674 103.24C429.303 103.469 428.999 103.787 428.761 104.192C428.532 104.589 428.364 105.048 428.259 105.568C428.153 106.079 428.1 106.626 428.1 107.208Z" fill="#0A355C"/>
<path d="M446.102 111.785C446.569 111.785 446.984 111.697 447.345 111.52C447.707 111.335 447.989 111.079 448.192 110.753C448.404 110.418 448.514 110.026 448.523 109.576H452.107C452.098 110.581 451.829 111.476 451.3 112.261C450.771 113.037 450.061 113.65 449.171 114.1C448.28 114.541 447.284 114.761 446.181 114.761C445.07 114.761 444.1 114.576 443.271 114.205C442.451 113.835 441.768 113.324 441.221 112.671C440.674 112.01 440.264 111.243 439.991 110.37C439.718 109.488 439.581 108.544 439.581 107.539V107.155C439.581 106.141 439.718 105.198 439.991 104.325C440.264 103.443 440.674 102.676 441.221 102.023C441.768 101.362 442.451 100.846 443.271 100.476C444.092 100.105 445.053 99.92 446.155 99.92C447.328 99.92 448.355 100.145 449.237 100.595C450.128 101.044 450.824 101.688 451.327 102.526C451.838 103.355 452.098 104.338 452.107 105.475H448.523C448.514 104.999 448.412 104.567 448.218 104.179C448.033 103.791 447.76 103.483 447.398 103.253C447.046 103.015 446.609 102.896 446.089 102.896C445.533 102.896 445.079 103.015 444.726 103.253C444.374 103.483 444.1 103.8 443.906 104.206C443.712 104.602 443.576 105.057 443.496 105.568C443.426 106.071 443.39 106.6 443.39 107.155V107.539C443.39 108.094 443.426 108.628 443.496 109.139C443.567 109.651 443.699 110.105 443.893 110.502C444.096 110.899 444.374 111.212 444.726 111.441C445.079 111.67 445.538 111.785 446.102 111.785Z" fill="#0A355C"/>
<path d="M458.126 94.1661V114.496H454.316V94.1661H458.126ZM467.147 100.185L460.93 107.274L457.597 110.647L456.208 107.896L458.853 104.536L462.57 100.185H467.147ZM463.192 114.496L458.959 107.883L461.591 105.581L467.583 114.496H463.192Z" fill="#0A355C"/>
<path d="M476.525 110.541C476.525 110.268 476.445 110.021 476.287 109.801C476.128 109.58 475.832 109.377 475.4 109.192C474.977 108.998 474.364 108.822 473.562 108.663C472.839 108.504 472.164 108.306 471.538 108.068C470.921 107.821 470.383 107.526 469.924 107.182C469.475 106.838 469.122 106.432 468.866 105.965C468.61 105.489 468.483 104.946 468.483 104.338C468.483 103.738 468.61 103.174 468.866 102.645C469.131 102.116 469.505 101.648 469.99 101.243C470.484 100.828 471.084 100.506 471.789 100.277C472.504 100.039 473.306 99.92 474.197 99.92C475.44 99.92 476.507 100.118 477.398 100.515C478.297 100.912 478.985 101.459 479.461 102.155C479.946 102.843 480.189 103.628 480.189 104.51H476.379C476.379 104.139 476.3 103.809 476.141 103.518C475.991 103.218 475.753 102.984 475.427 102.817C475.109 102.64 474.695 102.552 474.183 102.552C473.76 102.552 473.394 102.627 473.086 102.777C472.777 102.918 472.539 103.112 472.371 103.359C472.213 103.597 472.133 103.862 472.133 104.153C472.133 104.373 472.177 104.572 472.266 104.748C472.363 104.915 472.517 105.07 472.728 105.211C472.94 105.352 473.213 105.484 473.549 105.608C473.892 105.722 474.316 105.828 474.818 105.925C475.85 106.137 476.772 106.415 477.583 106.758C478.394 107.094 479.038 107.552 479.514 108.134C479.99 108.707 480.228 109.461 480.228 110.396C480.228 111.031 480.087 111.613 479.805 112.142C479.523 112.671 479.117 113.134 478.588 113.531C478.059 113.919 477.424 114.223 476.683 114.444C475.952 114.655 475.127 114.761 474.21 114.761C472.878 114.761 471.75 114.523 470.824 114.047C469.907 113.571 469.21 112.966 468.734 112.235C468.267 111.494 468.033 110.735 468.033 109.959H471.644C471.661 110.48 471.794 110.899 472.041 111.216C472.296 111.534 472.618 111.763 473.006 111.904C473.403 112.045 473.831 112.116 474.289 112.116C474.783 112.116 475.193 112.049 475.519 111.917C475.846 111.776 476.093 111.591 476.26 111.362C476.437 111.123 476.525 110.85 476.525 110.541Z" fill="#0A355C"/>
<rect x="389.41" y="252.07" width="142.426" height="45.2289" rx="21.75" stroke="#F5516C" stroke-width="2.5"/>
<path d="M426.686 278.098C426.686 277.754 426.633 277.445 426.527 277.172C426.43 276.889 426.245 276.634 425.971 276.404C425.698 276.166 425.314 275.933 424.821 275.703C424.327 275.474 423.687 275.236 422.903 274.989C422.03 274.707 421.201 274.39 420.416 274.037C419.64 273.684 418.952 273.274 418.352 272.807C417.762 272.331 417.294 271.779 416.95 271.153C416.615 270.527 416.448 269.8 416.448 268.971C416.448 268.168 416.624 267.441 416.977 266.788C417.33 266.127 417.823 265.563 418.458 265.095C419.093 264.619 419.843 264.253 420.707 263.997C421.58 263.742 422.537 263.614 423.577 263.614C424.997 263.614 426.236 263.869 427.294 264.381C428.352 264.892 429.172 265.593 429.754 266.484C430.345 267.375 430.641 268.393 430.641 269.54H426.699C426.699 268.975 426.58 268.481 426.342 268.058C426.112 267.626 425.76 267.287 425.284 267.04C424.816 266.793 424.225 266.669 423.511 266.669C422.823 266.669 422.25 266.775 421.792 266.987C421.333 267.19 420.989 267.467 420.76 267.82C420.531 268.164 420.416 268.552 420.416 268.984C420.416 269.31 420.495 269.606 420.654 269.87C420.822 270.135 421.068 270.382 421.395 270.611C421.721 270.84 422.122 271.056 422.598 271.259C423.075 271.462 423.626 271.66 424.252 271.854C425.301 272.172 426.223 272.529 427.016 272.926C427.819 273.323 428.489 273.768 429.027 274.262C429.565 274.755 429.97 275.315 430.244 275.942C430.517 276.568 430.654 277.277 430.654 278.071C430.654 278.909 430.491 279.658 430.164 280.32C429.838 280.981 429.366 281.541 428.749 282C428.132 282.458 427.396 282.806 426.54 283.045C425.685 283.283 424.728 283.402 423.67 283.402C422.717 283.402 421.778 283.278 420.852 283.031C419.927 282.776 419.084 282.392 418.326 281.881C417.576 281.369 416.977 280.717 416.527 279.923C416.077 279.129 415.853 278.19 415.853 277.106H419.834C419.834 277.705 419.927 278.212 420.112 278.627C420.297 279.041 420.557 279.376 420.892 279.632C421.236 279.888 421.642 280.073 422.109 280.187C422.585 280.302 423.105 280.359 423.67 280.359C424.358 280.359 424.922 280.262 425.363 280.068C425.813 279.874 426.143 279.605 426.355 279.262C426.575 278.918 426.686 278.53 426.686 278.098Z" fill="#0A355C"/>
<path d="M440.125 268.825V271.524H431.791V268.825H440.125ZM433.855 265.294H437.664V278.825C437.664 279.24 437.717 279.557 437.823 279.777C437.938 279.998 438.105 280.152 438.326 280.24C438.546 280.32 438.824 280.359 439.159 280.359C439.397 280.359 439.609 280.351 439.794 280.333C439.988 280.307 440.151 280.28 440.283 280.254L440.296 283.058C439.97 283.164 439.617 283.247 439.238 283.309C438.859 283.371 438.44 283.402 437.982 283.402C437.144 283.402 436.412 283.265 435.786 282.992C435.169 282.709 434.693 282.26 434.357 281.642C434.022 281.025 433.855 280.214 433.855 279.209V265.294Z" fill="#0A355C"/>
<path d="M450.019 279.91V273.534C450.019 273.076 449.944 272.683 449.794 272.357C449.644 272.022 449.41 271.762 449.093 271.577C448.784 271.391 448.383 271.299 447.889 271.299C447.466 271.299 447.1 271.374 446.791 271.524C446.482 271.665 446.244 271.872 446.077 272.145C445.909 272.41 445.825 272.723 445.825 273.084H442.016C442.016 272.476 442.157 271.898 442.439 271.352C442.721 270.805 443.132 270.324 443.669 269.91C444.207 269.487 444.847 269.156 445.587 268.918C446.337 268.68 447.175 268.561 448.101 268.561C449.212 268.561 450.199 268.746 451.063 269.116C451.928 269.487 452.607 270.042 453.1 270.783C453.603 271.524 453.854 272.45 453.854 273.561V279.685C453.854 280.47 453.903 281.113 454 281.616C454.097 282.11 454.238 282.542 454.423 282.912V283.137H450.574C450.389 282.749 450.248 282.264 450.151 281.682C450.063 281.091 450.019 280.501 450.019 279.91ZM450.521 274.42L450.548 276.576H448.418C447.915 276.576 447.479 276.634 447.109 276.748C446.738 276.863 446.434 277.026 446.196 277.238C445.958 277.441 445.781 277.679 445.667 277.952C445.561 278.225 445.508 278.525 445.508 278.852C445.508 279.178 445.583 279.473 445.733 279.738C445.883 279.993 446.099 280.196 446.381 280.346C446.663 280.487 446.994 280.558 447.373 280.558C447.946 280.558 448.444 280.443 448.868 280.214C449.291 279.985 449.617 279.702 449.847 279.367C450.085 279.032 450.208 278.715 450.217 278.415L451.222 280.029C451.081 280.39 450.887 280.765 450.64 281.153C450.402 281.541 450.098 281.907 449.728 282.251C449.357 282.586 448.912 282.864 448.392 283.084C447.871 283.296 447.254 283.402 446.54 283.402C445.631 283.402 444.807 283.221 444.066 282.859C443.334 282.489 442.752 281.982 442.32 281.338C441.897 280.686 441.685 279.945 441.685 279.116C441.685 278.367 441.826 277.701 442.109 277.119C442.391 276.537 442.805 276.047 443.352 275.651C443.908 275.245 444.6 274.941 445.429 274.738C446.258 274.526 447.219 274.42 448.312 274.42H450.521Z" fill="#0A355C"/>
<path d="M460.6 262.807V283.137H456.791V262.807H460.6ZM469.621 268.825L463.404 275.915L460.071 279.288L458.682 276.537L461.328 273.177L465.045 268.825H469.621ZM465.666 283.137L461.434 276.524L464.066 274.222L470.058 283.137H465.666Z" fill="#0A355C"/>
<path d="M475.283 268.825V283.137H471.46V268.825H475.283ZM471.222 265.095C471.222 264.54 471.416 264.081 471.804 263.72C472.192 263.358 472.712 263.177 473.365 263.177C474.008 263.177 474.524 263.358 474.912 263.72C475.309 264.081 475.507 264.54 475.507 265.095C475.507 265.651 475.309 266.109 474.912 266.471C474.524 266.832 474.008 267.013 473.365 267.013C472.712 267.013 472.192 266.832 471.804 266.471C471.416 266.109 471.222 265.651 471.222 265.095Z" fill="#0A355C"/>
<path d="M482.161 271.881V283.137H478.351V268.825H481.923L482.161 271.881ZM481.605 275.479H480.573C480.573 274.42 480.71 273.468 480.983 272.621C481.257 271.766 481.64 271.039 482.134 270.439C482.628 269.831 483.214 269.368 483.893 269.05C484.581 268.724 485.348 268.561 486.195 268.561C486.865 268.561 487.478 268.658 488.034 268.852C488.589 269.046 489.065 269.354 489.462 269.778C489.868 270.201 490.176 270.761 490.388 271.458C490.608 272.154 490.719 273.005 490.719 274.01V283.137H486.883V273.997C486.883 273.362 486.795 272.868 486.618 272.516C486.442 272.163 486.182 271.916 485.838 271.775C485.503 271.625 485.088 271.55 484.595 271.55C484.083 271.55 483.638 271.652 483.259 271.854C482.888 272.057 482.58 272.339 482.333 272.701C482.095 273.054 481.914 273.468 481.79 273.944C481.667 274.42 481.605 274.932 481.605 275.479Z" fill="#0A355C"/>
<path d="M502.676 268.825H506.128V282.661C506.128 283.966 505.837 285.073 505.255 285.981C504.682 286.898 503.88 287.59 502.848 288.058C501.816 288.534 500.617 288.772 499.25 288.772C498.651 288.772 498.016 288.693 497.346 288.534C496.684 288.375 496.049 288.128 495.441 287.793C494.841 287.458 494.339 287.035 493.933 286.523L495.613 284.275C496.054 284.786 496.565 285.183 497.147 285.465C497.729 285.756 498.373 285.902 499.078 285.902C499.766 285.902 500.348 285.774 500.824 285.518C501.301 285.271 501.666 284.905 501.922 284.42C502.178 283.944 502.306 283.366 502.306 282.687V272.132L502.676 268.825ZM493.047 276.153V275.875C493.047 274.782 493.179 273.79 493.444 272.899C493.717 272 494.1 271.228 494.594 270.585C495.097 269.941 495.705 269.443 496.42 269.09C497.134 268.737 497.941 268.561 498.84 268.561C499.793 268.561 500.591 268.737 501.234 269.09C501.878 269.443 502.407 269.945 502.822 270.598C503.236 271.241 503.558 272.004 503.787 272.886C504.025 273.759 504.211 274.716 504.343 275.756V276.365C504.211 277.361 504.012 278.287 503.748 279.143C503.483 279.998 503.135 280.747 502.703 281.391C502.271 282.026 501.733 282.52 501.089 282.873C500.454 283.225 499.696 283.402 498.814 283.402C497.932 283.402 497.134 283.221 496.42 282.859C495.714 282.498 495.11 281.991 494.608 281.338C494.105 280.686 493.717 279.919 493.444 279.037C493.179 278.155 493.047 277.194 493.047 276.153ZM496.856 275.875V276.153C496.856 276.744 496.913 277.295 497.028 277.807C497.143 278.318 497.319 278.772 497.557 279.169C497.804 279.557 498.108 279.861 498.47 280.082C498.84 280.293 499.277 280.399 499.779 280.399C500.476 280.399 501.045 280.254 501.486 279.963C501.927 279.663 502.257 279.253 502.478 278.732C502.698 278.212 502.826 277.613 502.861 276.934V275.201C502.844 274.645 502.769 274.147 502.636 273.706C502.504 273.256 502.319 272.873 502.081 272.555C501.843 272.238 501.534 271.991 501.155 271.815C500.776 271.638 500.326 271.55 499.806 271.55C499.303 271.55 498.867 271.665 498.496 271.894C498.135 272.114 497.831 272.419 497.584 272.807C497.346 273.195 497.165 273.653 497.041 274.182C496.918 274.703 496.856 275.267 496.856 275.875Z" fill="#0A355C"/>
<rect x="322.432" y="334.701" width="242.227" height="45.2289" rx="21.75" stroke="#F5516C" stroke-width="2.5"/>
<path d="M362.059 362.672V365.767H352.364V362.672H362.059ZM353.647 346.508V365.767H349.679V346.508H353.647Z" fill="#0A355C"/>
<path d="M368.117 351.455V365.767H364.295V351.455H368.117ZM364.057 347.725C364.057 347.17 364.251 346.711 364.639 346.35C365.027 345.988 365.547 345.807 366.2 345.807C366.843 345.807 367.359 345.988 367.747 346.35C368.144 346.711 368.342 347.17 368.342 347.725C368.342 348.281 368.144 348.739 367.747 349.101C367.359 349.462 366.843 349.643 366.2 349.643C365.547 349.643 365.027 349.462 364.639 349.101C364.251 348.739 364.057 348.281 364.057 347.725Z" fill="#0A355C"/>
<path d="M379.718 371.27V354.379L380.207 351.455H383.554V371.27H379.718ZM370.67 358.757V358.479C370.67 357.386 370.789 356.394 371.027 355.503C371.274 354.603 371.636 353.836 372.112 353.201C372.588 352.558 373.17 352.064 373.858 351.72C374.555 351.367 375.357 351.191 376.265 351.191C377.138 351.191 377.892 351.367 378.527 351.72C379.162 352.073 379.696 352.571 380.128 353.215C380.569 353.858 380.921 354.617 381.186 355.49C381.451 356.363 381.653 357.319 381.794 358.36V358.968C381.662 359.965 381.459 360.891 381.186 361.746C380.921 362.602 380.569 363.351 380.128 363.995C379.696 364.639 379.158 365.141 378.514 365.503C377.879 365.855 377.121 366.032 376.239 366.032C375.348 366.032 374.555 365.851 373.858 365.489C373.17 365.119 372.588 364.608 372.112 363.955C371.636 363.303 371.274 362.535 371.027 361.654C370.789 360.763 370.67 359.797 370.67 358.757ZM374.48 358.479V358.757C374.48 359.348 374.528 359.903 374.625 360.423C374.722 360.935 374.877 361.389 375.088 361.786C375.309 362.183 375.591 362.496 375.935 362.725C376.279 362.945 376.702 363.056 377.205 363.056C377.901 363.056 378.461 362.906 378.884 362.606C379.317 362.297 379.634 361.878 379.837 361.349C380.048 360.82 380.172 360.216 380.207 359.537V357.804C380.181 357.249 380.106 356.751 379.982 356.31C379.868 355.86 379.691 355.476 379.453 355.159C379.224 354.842 378.924 354.599 378.554 354.431C378.192 354.255 377.751 354.167 377.231 354.167C376.737 354.167 376.314 354.277 375.961 354.498C375.609 354.718 375.322 355.027 375.101 355.424C374.89 355.812 374.731 356.266 374.625 356.786C374.528 357.306 374.48 357.871 374.48 358.479Z" fill="#0A355C"/>
<path d="M395.022 362.341V351.455H398.831V365.767H395.247L395.022 362.341ZM395.445 359.405L396.569 359.378C396.569 360.331 396.459 361.217 396.239 362.037C396.018 362.848 395.687 363.554 395.247 364.154C394.806 364.744 394.25 365.207 393.58 365.542C392.91 365.869 392.121 366.032 391.212 366.032C390.516 366.032 389.872 365.935 389.281 365.741C388.699 365.538 388.196 365.225 387.773 364.802C387.359 364.37 387.032 363.818 386.794 363.148C386.565 362.469 386.45 361.654 386.45 360.701V351.455H390.26V360.728C390.26 361.151 390.308 361.508 390.405 361.799C390.511 362.09 390.657 362.328 390.842 362.513C391.027 362.699 391.243 362.831 391.49 362.91C391.746 362.99 392.028 363.029 392.337 363.029C393.121 363.029 393.739 362.87 394.188 362.553C394.647 362.236 394.969 361.803 395.154 361.257C395.348 360.701 395.445 360.084 395.445 359.405Z" fill="#0A355C"/>
<path d="M405.762 351.455V365.767H401.94V351.455H405.762ZM401.701 347.725C401.701 347.17 401.895 346.711 402.283 346.35C402.671 345.988 403.192 345.807 403.844 345.807C404.488 345.807 405.004 345.988 405.392 346.35C405.789 346.711 405.987 347.17 405.987 347.725C405.987 348.281 405.789 348.739 405.392 349.101C405.004 349.462 404.488 349.643 403.844 349.643C403.192 349.643 402.671 349.462 402.283 349.101C401.895 348.739 401.701 348.281 401.701 347.725Z" fill="#0A355C"/>
<path d="M417.363 362.646V345.45H421.198V365.767H417.746L417.363 362.646ZM408.315 358.783V358.505C408.315 357.412 408.439 356.42 408.685 355.529C408.932 354.63 409.294 353.858 409.77 353.215C410.246 352.571 410.833 352.073 411.529 351.72C412.226 351.367 413.02 351.191 413.91 351.191C414.748 351.191 415.48 351.367 416.106 351.72C416.741 352.073 417.279 352.575 417.72 353.228C418.169 353.872 418.531 354.634 418.804 355.516C419.078 356.389 419.276 357.346 419.4 358.386V358.995C419.276 359.991 419.078 360.917 418.804 361.773C418.531 362.628 418.169 363.378 417.72 364.021C417.279 364.656 416.741 365.15 416.106 365.503C415.471 365.855 414.73 366.032 413.884 366.032C412.993 366.032 412.199 365.851 411.503 365.489C410.815 365.128 410.233 364.621 409.757 363.968C409.289 363.316 408.932 362.549 408.685 361.667C408.439 360.785 408.315 359.824 408.315 358.783ZM412.125 358.505V358.783C412.125 359.374 412.169 359.925 412.257 360.437C412.354 360.948 412.508 361.402 412.72 361.799C412.94 362.187 413.222 362.491 413.566 362.712C413.919 362.923 414.347 363.029 414.849 363.029C415.502 363.029 416.04 362.884 416.463 362.593C416.886 362.293 417.208 361.883 417.429 361.363C417.658 360.842 417.79 360.243 417.825 359.564V357.831C417.799 357.275 417.72 356.777 417.587 356.336C417.464 355.886 417.279 355.503 417.032 355.185C416.794 354.868 416.494 354.621 416.132 354.445C415.78 354.268 415.361 354.18 414.876 354.18C414.382 354.18 413.959 354.295 413.606 354.524C413.253 354.745 412.967 355.049 412.746 355.437C412.535 355.825 412.376 356.283 412.27 356.812C412.173 357.333 412.125 357.897 412.125 358.505Z" fill="#0A355C"/>
<path d="M428.196 351.455V365.767H424.373V351.455H428.196ZM424.135 347.725C424.135 347.17 424.329 346.711 424.717 346.35C425.105 345.988 425.625 345.807 426.278 345.807C426.921 345.807 427.437 345.988 427.825 346.35C428.222 346.711 428.42 347.17 428.42 347.725C428.42 348.281 428.222 348.739 427.825 349.101C427.437 349.462 426.921 349.643 426.278 349.643C425.625 349.643 425.105 349.462 424.717 349.101C424.329 348.739 424.135 348.281 424.135 347.725Z" fill="#0A355C"/>
<path d="M438.354 351.455V354.154H430.021V351.455H438.354ZM432.084 347.924H435.894V361.455C435.894 361.87 435.947 362.187 436.053 362.408C436.167 362.628 436.335 362.782 436.555 362.87C436.776 362.95 437.053 362.99 437.389 362.99C437.627 362.99 437.838 362.981 438.023 362.963C438.217 362.937 438.381 362.91 438.513 362.884L438.526 365.688C438.2 365.794 437.847 365.877 437.468 365.939C437.089 366.001 436.67 366.032 436.211 366.032C435.374 366.032 434.642 365.895 434.016 365.622C433.398 365.34 432.922 364.89 432.587 364.273C432.252 363.655 432.084 362.844 432.084 361.839V347.924Z" fill="#0A355C"/>
<path d="M444.769 364.154L448.566 351.455H452.653L446.899 367.923C446.775 368.285 446.608 368.673 446.396 369.087C446.193 369.502 445.916 369.894 445.563 370.265C445.219 370.644 444.783 370.952 444.253 371.19C443.733 371.429 443.094 371.548 442.336 371.548C441.974 371.548 441.679 371.526 441.449 371.481C441.22 371.437 440.947 371.376 440.629 371.296V368.505C440.726 368.505 440.828 368.505 440.933 368.505C441.039 368.514 441.141 368.519 441.238 368.519C441.74 368.519 442.15 368.461 442.468 368.347C442.785 368.232 443.041 368.056 443.235 367.817C443.429 367.588 443.583 367.288 443.698 366.918L444.769 364.154ZM443.182 351.455L446.29 361.826L446.833 365.86L444.24 366.138L439.095 351.455H443.182Z" fill="#0A355C"/>
<path d="M462.97 346.508H466.33L471.277 360.648L476.224 346.508H479.583L472.626 365.767H469.928L462.97 346.508ZM461.158 346.508H464.504L465.113 360.291V365.767H461.158V346.508ZM478.049 346.508H481.409V365.767H477.441V360.291L478.049 346.508Z" fill="#0A355C"/>
<path d="M488.671 351.455V365.767H484.848V351.455H488.671ZM484.61 347.725C484.61 347.17 484.804 346.711 485.192 346.35C485.58 345.988 486.1 345.807 486.753 345.807C487.396 345.807 487.912 345.988 488.3 346.35C488.697 346.711 488.895 347.17 488.895 347.725C488.895 348.281 488.697 348.739 488.3 349.101C487.912 349.462 487.396 349.643 486.753 349.643C486.1 349.643 485.58 349.462 485.192 349.101C484.804 348.739 484.61 348.281 484.61 347.725Z" fill="#0A355C"/>
<path d="M495.549 354.511V365.767H491.739V351.455H495.311L495.549 354.511ZM494.993 358.109H493.961C493.961 357.05 494.098 356.098 494.372 355.252C494.645 354.396 495.028 353.669 495.522 353.069C496.016 352.461 496.603 351.998 497.282 351.68C497.969 351.354 498.736 351.191 499.583 351.191C500.253 351.191 500.866 351.288 501.422 351.482C501.977 351.676 502.453 351.984 502.85 352.408C503.256 352.831 503.564 353.391 503.776 354.088C503.997 354.784 504.107 355.635 504.107 356.64V365.767H500.271V356.627C500.271 355.992 500.183 355.498 500.006 355.146C499.83 354.793 499.57 354.546 499.226 354.405C498.891 354.255 498.476 354.18 497.983 354.18C497.471 354.18 497.026 354.282 496.647 354.484C496.276 354.687 495.968 354.969 495.721 355.331C495.483 355.684 495.302 356.098 495.178 356.574C495.055 357.05 494.993 357.562 494.993 358.109Z" fill="#0A355C"/>
<path d="M511.025 351.455V365.767H507.202V351.455H511.025ZM506.964 347.725C506.964 347.17 507.158 346.711 507.546 346.35C507.934 345.988 508.454 345.807 509.107 345.807C509.75 345.807 510.266 345.988 510.654 346.35C511.051 346.711 511.249 347.17 511.249 347.725C511.249 348.281 511.051 348.739 510.654 349.101C510.266 349.462 509.75 349.643 509.107 349.643C508.454 349.643 507.934 349.462 507.546 349.101C507.158 348.739 506.964 348.281 506.964 347.725Z" fill="#0A355C"/>
<path d="M517.903 354.511V365.767H514.093V351.455H517.665L517.903 354.511ZM517.347 358.109H516.316C516.316 357.05 516.452 356.098 516.726 355.252C516.999 354.396 517.382 353.669 517.876 353.069C518.37 352.461 518.957 351.998 519.636 351.68C520.323 351.354 521.091 351.191 521.937 351.191C522.607 351.191 523.22 351.288 523.776 351.482C524.331 351.676 524.807 351.984 525.204 352.408C525.61 352.831 525.918 353.391 526.13 354.088C526.351 354.784 526.461 355.635 526.461 356.64V365.767H522.625V356.627C522.625 355.992 522.537 355.498 522.36 355.146C522.184 354.793 521.924 354.546 521.58 354.405C521.245 354.255 520.83 354.18 520.337 354.18C519.825 354.18 519.38 354.282 519.001 354.484C518.63 354.687 518.322 354.969 518.075 355.331C517.837 355.684 517.656 356.098 517.532 356.574C517.409 357.05 517.347 357.562 517.347 358.109Z" fill="#0A355C"/>
<path d="M538.418 351.455H541.871V365.291C541.871 366.596 541.58 367.703 540.998 368.611C540.424 369.528 539.622 370.22 538.59 370.688C537.558 371.164 536.359 371.402 534.992 371.402C534.393 371.402 533.758 371.323 533.088 371.164C532.426 371.005 531.791 370.758 531.183 370.423C530.583 370.088 530.081 369.665 529.675 369.153L531.355 366.905C531.796 367.416 532.307 367.813 532.889 368.095C533.471 368.386 534.115 368.532 534.82 368.532C535.508 368.532 536.09 368.404 536.566 368.148C537.043 367.901 537.409 367.535 537.664 367.05C537.92 366.574 538.048 365.997 538.048 365.318V354.762L538.418 351.455ZM528.789 358.783V358.505C528.789 357.412 528.921 356.42 529.186 355.529C529.459 354.63 529.843 353.858 530.336 353.215C530.839 352.571 531.447 352.073 532.162 351.72C532.876 351.367 533.683 351.191 534.582 351.191C535.535 351.191 536.333 351.367 536.976 351.72C537.62 352.073 538.149 352.575 538.564 353.228C538.978 353.872 539.3 354.634 539.529 355.516C539.767 356.389 539.953 357.346 540.085 358.386V358.995C539.953 359.991 539.754 360.917 539.49 361.773C539.225 362.628 538.877 363.378 538.445 364.021C538.013 364.656 537.475 365.15 536.831 365.503C536.196 365.855 535.438 366.032 534.556 366.032C533.674 366.032 532.876 365.851 532.162 365.489C531.456 365.128 530.852 364.621 530.35 363.968C529.847 363.316 529.459 362.549 529.186 361.667C528.921 360.785 528.789 359.824 528.789 358.783ZM532.598 358.505V358.783C532.598 359.374 532.656 359.925 532.77 360.437C532.885 360.948 533.061 361.402 533.299 361.799C533.546 362.187 533.85 362.491 534.212 362.712C534.582 362.923 535.019 363.029 535.521 363.029C536.218 363.029 536.787 362.884 537.228 362.593C537.669 362.293 537.999 361.883 538.22 361.363C538.44 360.842 538.568 360.243 538.603 359.564V357.831C538.586 357.275 538.511 356.777 538.379 356.336C538.246 355.886 538.061 355.503 537.823 355.185C537.585 354.868 537.276 354.621 536.897 354.445C536.518 354.268 536.068 354.18 535.548 354.18C535.045 354.18 534.609 354.295 534.238 354.524C533.877 354.745 533.573 355.049 533.326 355.437C533.088 355.825 532.907 356.283 532.783 356.812C532.66 357.333 532.598 357.897 532.598 358.505Z" fill="#0A355C"/>
<path d="M301.056 331.881L280.373 254.69" stroke="#F5516C" stroke-width="3" stroke-miterlimit="10"/>
<path d="M322.696 94.4495C315.937 106.234 319.919 121.318 331.712 128.083C343.332 134.846 358.586 130.859 365.35 119.066C372.109 107.281 368.126 92.1955 356.331 85.4308C344.546 78.6716 329.46 82.6547 322.696 94.4495Z" fill="#F5516C" stroke="#F5F5F5" stroke-width="1.5" stroke-miterlimit="10"/>
<path d="M347.894 101.051H347.474L347.401 101.464L344.027 120.534L340.653 101.464L340.58 101.051H340.161C338.327 101.051 337.016 101.13 336.139 101.462C335.681 101.635 335.313 101.887 335.05 102.253C334.92 102.435 334.824 102.635 334.755 102.848C334.535 102.736 334.265 102.589 333.974 102.408C333.373 102.035 332.708 101.533 332.194 100.921C334.389 100.006 336.55 99.4933 338.208 99.2074C339.107 99.0523 339.856 98.9645 340.378 98.9157C340.615 98.8935 340.806 98.8793 340.942 98.8705L343.639 102.202L344.027 102.682L344.416 102.202L347.113 98.8705C347.249 98.8793 347.439 98.8935 347.676 98.9157C348.199 98.9645 348.947 99.0523 349.847 99.2074C351.505 99.4933 353.666 100.006 355.861 100.921C355.347 101.533 354.682 102.035 354.081 102.408C353.79 102.589 353.52 102.736 353.3 102.848C353.231 102.635 353.135 102.435 353.005 102.253C352.742 101.887 352.373 101.635 351.916 101.462C351.039 101.13 349.728 101.051 347.894 101.051Z" fill="white" stroke="#F5F5F5"/>
<path d="M330.712 98.8177C335.679 96.96 340.167 96.3363 344.026 96.3363C348.04 96.3363 352.519 96.9577 357.315 98.8029C357.225 98.9928 357.097 99.2474 356.919 99.5726C352.3 97.6612 348 97.0173 344.026 97.0173C340.069 97.0173 335.596 97.4973 331.1 99.5664C330.921 99.2653 330.796 99.011 330.712 98.8177Z" fill="white" stroke="#F5F5F5"/>
<path d="M297.258 85.5023C285.466 92.2574 281.484 107.318 288.243 119.085C295.008 130.862 310.093 134.838 321.877 128.09C333.672 121.336 337.656 106.273 330.896 94.505C324.137 82.7373 309.054 78.5772 297.258 85.5023Z" fill="#F5516C" stroke="#F5F5F5" stroke-width="1.5" stroke-miterlimit="10"/>
<path d="M321.283 104.613H309.87V109.145H316.416C316.08 110.655 315.241 111.83 313.898 112.837C312.724 113.508 311.381 114.012 309.702 114.012C306.514 114.012 303.828 111.83 302.821 108.977C302.485 108.306 302.485 107.466 302.485 106.627C302.485 105.788 302.653 104.949 302.821 104.277C303.66 101.256 306.514 99.2423 309.702 99.2423C311.549 99.2423 313.059 99.9136 314.402 101.089L317.926 97.5639C315.912 95.5499 313.059 94.375 309.87 94.375C305.171 94.375 300.975 97.0604 298.961 101.089C298.122 102.767 297.618 104.613 297.618 106.627C297.618 108.641 298.122 110.487 298.961 112.166C300.975 116.194 305.003 118.879 309.87 118.879C313.059 118.879 315.912 117.704 317.926 115.858C320.276 113.676 321.619 110.655 321.619 106.963C321.451 106.124 321.451 105.284 321.283 104.613Z" fill="white"/>
<path d="M355.162 262.377C348.403 274.161 352.385 289.245 364.178 296.011C375.798 302.773 391.052 298.786 397.815 286.993C404.575 275.208 400.592 260.123 388.797 253.358C377.011 246.599 361.926 250.582 355.162 262.377Z" fill="#F5516C" stroke="#F5F5F5" stroke-width="1.5" stroke-miterlimit="10"/>
<rect x="370.726" y="286.88" width="19.6251" height="2.35207" rx="1.17603" fill="white"/>
<rect x="370.726" y="283.407" width="19.6251" height="2.35207" rx="1.17603" fill="white"/>
<rect x="370.726" y="279.934" width="19.6251" height="2.35207" rx="1.17603" fill="white"/>
<rect x="370.726" y="276.461" width="19.6251" height="2.35207" rx="1.17603" fill="white"/>
<rect x="370.726" y="272.988" width="19.6251" height="2.35207" rx="1.17603" fill="white"/>
<rect x="370.726" y="269.516" width="19.6251" height="2.35207" rx="1.17603" fill="white"/>
<rect x="370.726" y="266.043" width="19.6251" height="2.35207" rx="1.17603" fill="white"/>
<rect x="370.726" y="262.57" width="19.6251" height="2.35207" rx="1.17603" fill="white"/>
<rect x="370.726" y="259.097" width="19.6251" height="2.35207" rx="1.17603" fill="white"/>
<path d="M381.63 283.508C378.17 289.511 370.429 291.55 364.419 288.087C358.414 284.628 356.374 276.892 359.838 270.884C363.298 264.882 371.038 262.843 377.048 266.305C383.004 269.765 385.092 277.503 381.63 283.508Z" fill="#F5516C" stroke="#F5F5F5"/>
<path d="M370.807 268.496V275.828C370.4 275.421 370.05 275.072 369.585 274.606C369.526 273.908 369.41 271.93 369.41 271.93L370.574 268.438C369.876 268.438 369.177 268.554 368.537 268.729L367.954 270.417L366.324 269.602C365.742 269.951 365.16 270.358 364.636 270.882L367.547 272.337L367.663 274.083L365.917 273.966L364.461 271.057C363.996 271.58 363.53 272.104 363.181 272.744L363.996 274.374L362.249 274.956C362.074 275.596 361.958 276.294 361.958 277.051L365.451 275.945L368.246 276.061L369.41 277.225L368.246 278.389L365.451 278.505L361.958 277.4C361.958 278.098 362.074 278.796 362.249 279.495L363.937 280.077L363.122 281.648C363.472 282.23 363.879 282.812 364.403 283.277L365.859 280.367L367.605 280.251L367.489 281.997L364.578 283.452C365.102 283.917 365.626 284.383 366.266 284.732L367.838 283.975L368.42 285.663C369.061 285.838 369.759 285.954 370.458 285.954L369.352 282.521C369.352 282.521 369.468 280.542 369.526 279.844C369.934 279.436 370.283 279.087 370.749 278.622V285.954C375.581 285.954 379.482 282.055 379.482 277.225C379.54 272.395 375.639 268.496 370.807 268.496ZM372.787 283.743C372.787 279.378 372.787 275.072 372.787 270.708C374.882 271.173 377.56 273.501 377.677 276.992C377.793 280.833 374.882 283.277 372.787 283.743Z" fill="white"/>
<rect x="424.746" y="166.642" width="139.647" height="45.2289" rx="21.75" stroke="#F5516C" stroke-width="2.5"/>
<path d="M461.493 194.587V177.392H465.329V197.709H461.876L461.493 194.587ZM452.445 190.725V190.447C452.445 189.354 452.569 188.362 452.816 187.471C453.063 186.572 453.424 185.8 453.9 185.156C454.376 184.513 454.963 184.014 455.66 183.662C456.356 183.309 457.15 183.133 458.04 183.133C458.878 183.133 459.61 183.309 460.236 183.662C460.871 184.014 461.409 184.517 461.85 185.17C462.3 185.813 462.661 186.576 462.935 187.458C463.208 188.331 463.406 189.288 463.53 190.328V190.937C463.406 191.933 463.208 192.859 462.935 193.714C462.661 194.57 462.3 195.319 461.85 195.963C461.409 196.598 460.871 197.092 460.236 197.445C459.601 197.797 458.861 197.974 458.014 197.974C457.123 197.974 456.33 197.793 455.633 197.431C454.945 197.07 454.363 196.563 453.887 195.91C453.42 195.258 453.063 194.49 452.816 193.609C452.569 192.727 452.445 191.766 452.445 190.725ZM456.255 190.447V190.725C456.255 191.316 456.299 191.867 456.387 192.378C456.484 192.89 456.638 193.344 456.85 193.741C457.07 194.129 457.353 194.433 457.697 194.654C458.049 194.865 458.477 194.971 458.98 194.971C459.632 194.971 460.17 194.826 460.593 194.535C461.017 194.235 461.338 193.825 461.559 193.304C461.788 192.784 461.92 192.184 461.956 191.505V189.773C461.929 189.217 461.85 188.719 461.718 188.278C461.594 187.828 461.409 187.445 461.162 187.127C460.924 186.81 460.624 186.563 460.263 186.387C459.91 186.21 459.491 186.122 459.006 186.122C458.512 186.122 458.089 186.237 457.736 186.466C457.383 186.686 457.097 186.991 456.876 187.379C456.665 187.767 456.506 188.225 456.4 188.754C456.303 189.274 456.255 189.839 456.255 190.447Z" fill="#0A355C"/>
<path d="M477.154 178.45V197.709H473.199V178.45H477.154ZM483.08 178.45V181.559H467.366V178.45H483.08Z" fill="#0A355C"/>
<path d="M482.193 190.699V190.421C482.193 189.371 482.343 188.406 482.643 187.524C482.943 186.633 483.379 185.862 483.953 185.209C484.526 184.557 485.231 184.05 486.069 183.688C486.907 183.318 487.868 183.133 488.953 183.133C490.037 183.133 491.003 183.318 491.849 183.688C492.696 184.05 493.406 184.557 493.979 185.209C494.561 185.862 495.002 186.633 495.302 187.524C495.601 188.406 495.751 189.371 495.751 190.421V190.699C495.751 191.739 495.601 192.705 495.302 193.595C495.002 194.477 494.561 195.249 493.979 195.91C493.406 196.563 492.7 197.07 491.862 197.431C491.025 197.793 490.064 197.974 488.979 197.974C487.894 197.974 486.929 197.793 486.082 197.431C485.244 197.07 484.535 196.563 483.953 195.91C483.379 195.249 482.943 194.477 482.643 193.595C482.343 192.705 482.193 191.739 482.193 190.699ZM486.003 190.421V190.699C486.003 191.298 486.056 191.858 486.162 192.378C486.267 192.899 486.435 193.357 486.664 193.754C486.902 194.142 487.211 194.446 487.59 194.667C487.969 194.887 488.432 194.997 488.979 194.997C489.508 194.997 489.962 194.887 490.341 194.667C490.721 194.446 491.025 194.142 491.254 193.754C491.483 193.357 491.651 192.899 491.757 192.378C491.871 191.858 491.929 191.298 491.929 190.699V190.421C491.929 189.839 491.871 189.292 491.757 188.781C491.651 188.26 491.479 187.802 491.241 187.405C491.012 186.999 490.707 186.682 490.328 186.453C489.949 186.223 489.49 186.109 488.953 186.109C488.415 186.109 487.956 186.223 487.577 186.453C487.207 186.682 486.902 186.999 486.664 187.405C486.435 187.802 486.267 188.26 486.162 188.781C486.056 189.292 486.003 189.839 486.003 190.421Z" fill="#0A355C"/>
<path d="M501.902 177.379V197.709H498.093V177.379H501.902ZM510.923 183.397L504.706 190.487L501.373 193.86L499.984 191.109L502.629 187.749L506.346 183.397H510.923ZM506.968 197.709L502.735 191.095L505.368 188.794L511.359 197.709H506.968Z" fill="#0A355C"/>
<path d="M518.886 197.974C517.775 197.974 516.778 197.797 515.896 197.445C515.015 197.083 514.265 196.585 513.648 195.95C513.039 195.315 512.572 194.579 512.246 193.741C511.919 192.894 511.756 191.995 511.756 191.043V190.513C511.756 189.429 511.911 188.437 512.219 187.537C512.528 186.638 512.969 185.857 513.542 185.196C514.124 184.535 514.829 184.028 515.658 183.675C516.487 183.313 517.422 183.133 518.462 183.133C519.477 183.133 520.376 183.3 521.161 183.635C521.946 183.97 522.603 184.447 523.132 185.064C523.67 185.681 524.075 186.422 524.349 187.286C524.622 188.141 524.759 189.094 524.759 190.143V191.73H513.383V189.191H521.015V188.9C521.015 188.371 520.918 187.899 520.724 187.484C520.539 187.061 520.257 186.726 519.878 186.479C519.499 186.232 519.014 186.109 518.423 186.109C517.92 186.109 517.488 186.219 517.127 186.439C516.765 186.66 516.47 186.969 516.24 187.365C516.02 187.762 515.852 188.23 515.738 188.767C515.632 189.297 515.579 189.879 515.579 190.513V191.043C515.579 191.616 515.658 192.145 515.817 192.63C515.985 193.115 516.218 193.534 516.518 193.886C516.827 194.239 517.197 194.512 517.629 194.706C518.07 194.9 518.568 194.997 519.124 194.997C519.812 194.997 520.451 194.865 521.042 194.601C521.641 194.327 522.157 193.917 522.589 193.371L524.441 195.381C524.141 195.813 523.731 196.228 523.211 196.624C522.7 197.021 522.082 197.348 521.359 197.603C520.636 197.85 519.812 197.974 518.886 197.974Z" fill="#0A355C"/>
<path d="M530.658 186.453V197.709H526.849V183.397H530.42L530.658 186.453ZM530.102 190.05H529.071C529.071 188.992 529.207 188.04 529.481 187.193C529.754 186.338 530.138 185.611 530.632 185.011C531.125 184.402 531.712 183.939 532.391 183.622C533.079 183.296 533.846 183.133 534.692 183.133C535.362 183.133 535.975 183.23 536.531 183.424C537.086 183.618 537.563 183.926 537.959 184.35C538.365 184.773 538.674 185.333 538.885 186.029C539.106 186.726 539.216 187.577 539.216 188.582V197.709H535.38V188.569C535.38 187.934 535.292 187.44 535.116 187.088C534.939 186.735 534.679 186.488 534.335 186.347C534 186.197 533.586 186.122 533.092 186.122C532.58 186.122 532.135 186.223 531.756 186.426C531.385 186.629 531.077 186.911 530.83 187.273C530.592 187.625 530.411 188.04 530.288 188.516C530.164 188.992 530.102 189.504 530.102 190.05Z" fill="#0A355C"/>
<path d="M388.208 189.546C388.208 203.101 399.268 214.161 412.822 214.161C426.379 214.161 437.437 203.002 437.437 189.546C437.437 175.992 426.377 164.932 412.822 164.932C399.268 164.932 388.208 175.992 388.208 189.546Z" fill="#F5516C" stroke="#F5F5F5" stroke-width="1.5"/>
<path d="M418.04 180.175L419.103 175.924L416.495 175.247L415.432 179.498C414.755 179.305 414.079 179.209 413.306 179.015L414.369 174.764L411.76 174.088L410.698 178.436C410.118 178.339 409.538 178.146 409.055 178.049L405.48 177.18L404.804 179.982L406.736 180.465C407.799 180.754 407.992 181.431 407.992 182.011L405.094 193.798C404.901 194.088 404.611 194.571 403.838 194.378L401.905 193.894L400.553 196.89L403.934 197.759L405.77 198.242L404.707 202.59L407.316 203.266L408.379 198.919C409.055 199.112 409.731 199.305 410.504 199.498L409.538 203.749L412.147 204.426L413.21 200.078C417.654 200.947 421.036 200.561 422.485 196.503C423.644 193.218 422.388 191.382 420.069 190.126C421.809 189.74 423.065 188.58 423.451 186.262C423.838 182.977 421.422 181.238 418.04 180.175ZM417.364 194.571C416.591 197.856 411.084 196.02 409.248 195.634L410.698 189.837C412.437 190.32 418.137 191.189 417.364 194.571ZM418.137 186.068C417.364 189.064 412.823 187.518 411.374 187.131L412.727 181.914C414.176 182.3 418.91 182.977 418.137 186.068Z" fill="white"/>
<path d="M389.502 168.231L389.499 168.23C377.744 161.459 362.598 165.438 355.819 177.197C349.045 188.947 353.026 204.087 364.79 210.863C376.545 217.634 391.691 213.654 398.47 201.896C405.247 190.142 401.162 175.006 389.502 168.231Z" fill="#F5516C" stroke="#F5F5F5" stroke-width="1.5"/>
<path d="M377.143 175.061V187.229C376.466 186.553 375.887 185.974 375.114 185.201C375.017 184.042 374.824 180.759 374.824 180.759L376.756 174.964C375.597 174.964 374.437 175.157 373.375 175.447L372.408 178.248L369.703 176.896C368.737 177.475 367.771 178.151 366.901 179.02L371.732 181.435L371.925 184.332L369.027 184.139L366.612 179.31C365.839 180.179 365.066 181.048 364.486 182.111L365.839 184.815L362.94 185.78C362.65 186.843 362.457 188.002 362.457 189.257L368.254 187.422L372.891 187.615L374.824 189.547L372.891 191.478L368.254 191.671L362.457 189.836C362.457 190.995 362.65 192.154 362.94 193.313L365.742 194.279L364.389 196.886C364.969 197.852 365.645 198.818 366.515 199.59L368.93 194.762L371.829 194.568L371.635 197.466L366.805 199.88C367.674 200.653 368.544 201.425 369.607 202.005L372.215 200.749L373.181 203.55C374.244 203.839 375.403 204.033 376.563 204.033L374.727 198.335C374.727 198.335 374.92 195.051 375.017 193.892C375.693 193.216 376.273 192.637 377.046 191.864V204.033C385.065 204.033 391.538 197.562 391.538 189.547C391.635 181.531 385.162 175.061 377.143 175.061ZM380.427 200.363C380.427 193.12 380.427 185.974 380.427 178.731C383.906 179.503 388.35 183.366 388.543 189.16C388.736 195.534 383.906 199.59 380.427 200.363Z" fill="white"/>
<circle cx="307.56" cy="357.315" r="24.6145" fill="white" stroke="#F5F5F5" stroke-width="1.5"/>
<path d="M305.235 333.512C293.119 334.676 283.695 344.908 283.695 357.284C283.695 369.722 293.119 379.893 305.235 381.057V333.512Z" fill="#F5516C"/>
<path d="M309.149 354.956H331.362C330.199 343.376 320.837 334.186 309.149 333.451V354.956Z" fill="#F5516C"/>
<path d="M309.149 358.878V381.18C321.082 380.383 330.627 370.825 331.423 358.878H309.149Z" fill="#F5516C"/>
<rect x="154.446" y="207.812" width="154.702" height="47.7289" rx="23.8645" fill="url(#paint0_linear_623_2006)"/>
<path d="M178.961 248.262C169.839 248.262 162.376 240.798 162.376 231.676C162.376 222.554 169.839 215.091 178.961 215.091C188.083 215.091 195.547 222.554 195.547 231.676C195.547 240.798 188.083 248.262 178.961 248.262Z" fill="white"/>
<path d="M181.108 222.466H174.383V226.21H180.03C183.012 226.21 185.486 228.684 185.486 231.666C185.486 234.648 183.012 237.123 180.03 237.123H174.383V240.866H180.918C186.057 240.866 190.181 236.742 190.181 231.603C190.181 226.527 186.121 222.466 181.108 222.466Z" fill="#0A355C"/>
<path d="M176.467 226.909C176.34 226.909 176.213 226.909 176.022 226.909C177.482 227.924 178.497 229.637 178.497 231.604C178.497 233.571 177.545 235.284 176.022 236.299C176.149 236.299 176.276 236.299 176.467 236.299C179.068 236.299 181.162 234.205 181.162 231.604C181.162 229.002 179.068 226.909 176.467 226.909Z" fill="#0A355C"/>
<path d="M177.869 231.603C177.869 234.395 175.584 236.679 172.793 236.679C170.001 236.679 167.717 234.395 167.717 231.603C167.717 228.811 170.001 226.527 172.793 226.527C175.648 226.527 177.869 228.811 177.869 231.603Z" fill="#0A355C"/>
<path fill-rule="evenodd" clip-rule="evenodd" d="M273.891 235.381C273.891 234.736 273.615 234.183 273.154 233.814C272.694 233.446 271.772 233.077 270.574 232.617C269.284 232.248 268.271 231.787 267.534 231.419C265.507 230.313 264.493 228.839 264.493 226.996C264.493 226.075 264.769 225.153 265.322 224.416C265.875 223.679 266.612 223.126 267.626 222.665C268.639 222.205 269.745 222.02 271.035 222.02C272.325 222.02 273.431 222.205 274.444 222.665C275.458 223.126 276.195 223.771 276.748 224.6C277.301 225.43 277.577 226.351 277.577 227.457H273.891C273.891 226.627 273.615 225.982 273.154 225.614C272.601 225.153 271.956 224.969 271.035 224.969C270.114 224.969 269.469 225.153 268.916 225.522C268.455 225.89 268.179 226.351 268.179 226.996C268.179 227.549 268.455 228.01 269.008 228.47C269.51 228.888 270.315 229.155 271.286 229.476L271.288 229.476C271.386 229.509 271.486 229.542 271.588 229.576C273.615 230.221 275.181 230.958 276.103 231.879C277.024 232.801 277.485 233.907 277.485 235.289C277.485 236.855 276.932 238.053 275.734 238.882C274.536 239.711 273.062 240.172 271.035 240.172C269.653 240.172 268.455 239.896 267.349 239.435C266.244 238.974 265.414 238.237 264.769 237.408C264.124 236.579 263.848 235.565 263.848 234.367H267.534C267.534 236.302 268.731 237.316 271.035 237.316C271.864 237.316 272.601 237.131 273.062 236.763C273.615 236.486 273.891 235.934 273.891 235.381ZM204.789 239.988H208.475V222.297H204.789V239.988ZM222.942 239.988H226.536V222.297H222.942V233.999L215.847 222.297H212.162V239.988H215.847V228.378L222.942 239.988ZM237.405 235.565L241.46 222.297H245.514L239.34 239.988H235.563L229.389 222.297H233.443L237.405 235.565ZM251.967 232.34H258.878V229.484H251.875V225.245H260.076V222.297H248.282V239.988H260.168V237.039H251.967V232.34ZM289.372 225.245H294.716V222.297H280.342V225.245H285.686V239.988H289.372V225.245Z" fill="url(#paint1_linear_623_2006)"/>
<path d="M32.8463 278.985H28.5623C28.5623 280.413 28.8983 281.505 29.5703 282.261C30.2423 283.017 31.1663 283.437 32.4263 283.437C33.2663 283.437 34.1063 283.353 34.8623 283.101L35.1143 284.865C34.1903 285.117 33.3503 285.201 32.4263 285.201C30.5783 285.201 29.1503 284.697 28.1423 283.605C27.0503 282.513 26.5463 281.001 26.4623 278.985H24.5303V277.641H26.4623V276.129H24.5303V274.785H26.4623C26.5463 272.853 27.1343 271.341 28.1423 270.333C29.2343 269.241 30.5783 268.737 32.4263 268.737C33.1823 268.737 34.1063 268.821 35.1143 269.073L34.8623 270.837C34.0223 270.585 33.2663 270.417 32.4263 270.417C31.2503 270.417 30.2423 270.753 29.6543 271.509C28.9823 272.265 28.6463 273.357 28.6463 274.701H32.8463V276.045H28.5623V277.557H32.8463V278.985Z" fill="#063E62"/>
<path d="M76.9125 279.909C76.7445 281.589 76.0725 282.933 75.0645 283.857C73.9725 284.781 72.6285 285.285 70.8645 285.285C68.9325 285.285 67.4205 284.613 66.2445 283.269C65.0685 281.925 64.4805 280.077 64.4805 277.809V276.297C64.4805 274.785 64.7325 273.441 65.3205 272.349C65.8245 271.173 66.5805 270.333 67.5885 269.745C68.5965 269.157 69.6885 268.821 71.0325 268.821C72.7125 268.821 74.1405 269.325 75.1485 270.249C76.1565 271.173 76.7445 272.517 76.9125 274.197H74.8125C74.6445 272.937 74.2245 272.013 73.6365 271.425C73.0485 270.837 72.1245 270.585 71.0325 270.585C69.6885 270.585 68.5965 271.089 67.8405 272.097C67.0845 273.105 66.6645 274.533 66.6645 276.381V277.977C66.6645 279.741 67.0005 281.085 67.7565 282.177C68.5125 283.269 69.5205 283.689 70.8645 283.689C72.0405 283.689 72.9645 283.437 73.5525 282.849C74.2245 282.345 74.6445 281.421 74.8125 280.077H76.9125V279.909Z" fill="#063E62"/>
<path d="M91.1996 285.033H89.0996V277.557H80.9516V285.033H78.8516V268.905H80.9516V275.877H89.0996V268.905H91.1996V285.033Z" fill="#063E62"/>
<path d="M102.884 277.893H96.0805V285.033H93.9805V268.905H103.976V270.669H96.0805V276.213H102.884V277.893Z" fill="#063E62"/>
<path d="M53.3101 280.833C53.3101 280.161 53.0581 279.573 52.5541 279.153C52.0501 278.649 51.2941 278.229 50.1181 277.893C48.5221 277.389 47.4301 276.801 46.6741 276.045C45.9181 275.289 45.5821 274.281 45.5821 273.105C45.5821 271.929 45.9181 270.921 46.6741 270.165C47.4301 269.409 48.3541 268.905 49.6141 268.821V266.385H51.2941V268.821C52.5541 268.989 53.4781 269.493 54.1501 270.417C54.8221 271.257 55.1581 272.517 55.1581 274.029H53.2261C53.2261 273.021 52.9741 272.181 52.4701 271.509C51.9661 270.921 51.2941 270.585 50.4541 270.585C49.6141 270.585 48.9421 270.837 48.4381 271.257C47.9341 271.677 47.7661 272.349 47.7661 273.189C47.7661 273.945 48.0181 274.533 48.5221 274.953C49.0261 275.373 49.7821 275.793 50.9581 276.213C52.0501 276.549 52.9741 276.969 53.5621 277.389C54.2341 277.809 54.6541 278.313 54.9901 278.901C55.3261 279.489 55.4101 280.161 55.4101 280.917C55.4101 282.177 55.0741 283.185 54.3181 283.941C53.5621 284.697 52.5541 285.117 51.1261 285.285V287.385H49.4461V285.201C48.1021 285.033 47.0101 284.613 46.2541 283.773C45.4981 282.933 45.0781 281.757 45.0781 280.329H47.0941C47.0941 281.337 47.3461 282.177 47.9341 282.681C48.4381 283.269 49.2781 283.521 50.2021 283.521C51.2101 283.521 51.9661 283.269 52.4701 282.849C53.0581 282.261 53.3101 281.673 53.3101 280.833Z" fill="#063E62"/>
<defs>
<linearGradient id="paint0_linear_623_2006" x1="290.848" y1="255.541" x2="173.671" y2="255.541" gradientUnits="userSpaceOnUse">
<stop stop-color="#F5515C"/>
<stop offset="1" stop-color="#0A355C"/>
</linearGradient>
<linearGradient id="paint1_linear_623_2006" x1="282.607" y1="240.172" x2="181.564" y2="240.172" gradientUnits="userSpaceOnUse">
<stop stop-color="white"/>
<stop offset="0.453125" stop-color="white" stop-opacity="0.462428"/>
<stop offset="1" stop-color="white" stop-opacity="0"/>
</linearGradient>
</defs>
</svg>
