<svg width="601" height="470" viewBox="0 0 601 470" fill="none" xmlns="http://www.w3.org/2000/svg">
<path d="M267.223 287.003C265.883 287.003 264.797 288.089 264.797 289.429C264.797 290.769 265.883 291.855 267.223 291.855C268.563 291.855 269.649 290.769 269.649 289.429C269.649 288.089 268.563 287.003 267.223 287.003Z" fill="#F5516C"/>
<path d="M255.09 287.003C253.75 287.003 252.664 288.089 252.664 289.429C252.664 290.769 253.75 291.855 255.09 291.855C256.43 291.855 257.517 290.769 257.517 289.429C257.517 288.089 256.43 287.003 255.09 287.003Z" fill="#F5516C"/>
<path d="M291.484 287.003C290.144 287.003 289.057 288.089 289.057 289.429C289.057 290.769 290.144 291.855 291.484 291.855C292.824 291.855 293.91 290.769 293.91 289.429C293.91 288.089 292.824 287.003 291.484 287.003Z" fill="#F5516C"/>
<path d="M279.352 287.003C278.012 287.003 276.926 288.089 276.926 289.429C276.926 290.769 278.012 291.855 279.352 291.855C280.692 291.855 281.778 290.769 281.778 289.429C281.778 288.089 280.692 287.003 279.352 287.003Z" fill="#F5516C"/>
<path d="M316.04 287.003C314.7 287.003 313.614 288.089 313.614 289.429C313.614 290.769 314.7 291.855 316.04 291.855C317.38 291.855 318.467 290.769 318.467 289.429C318.467 288.089 317.38 287.003 316.04 287.003Z" fill="#F5516C"/>
<path d="M303.909 287.003C302.569 287.003 301.482 288.089 301.482 289.429C301.482 290.769 302.569 291.855 303.909 291.855C305.249 291.855 306.335 290.769 306.335 289.429C306.335 288.089 305.249 287.003 303.909 287.003Z" fill="#F5516C"/>
<path d="M340.301 287.003C338.961 287.003 337.875 288.089 337.875 289.429C337.875 290.769 338.961 291.855 340.301 291.855C341.641 291.855 342.728 290.769 342.728 289.429C342.728 288.089 341.641 287.003 340.301 287.003Z" fill="#F5516C"/>
<path d="M364.56 287.003C363.22 287.003 362.134 288.089 362.134 289.429C362.134 290.769 363.22 291.855 364.56 291.855C365.9 291.855 366.986 290.769 366.986 289.429C366.986 288.089 365.9 287.003 364.56 287.003Z" fill="#F5516C"/>
<path d="M328.17 287.003C326.83 287.003 325.744 288.089 325.744 289.429C325.744 290.769 326.83 291.855 328.17 291.855C329.51 291.855 330.597 290.769 330.597 289.429C330.597 288.089 329.51 287.003 328.17 287.003Z" fill="#F5516C"/>
<path d="M352.429 287.003C351.089 287.003 350.003 288.089 350.003 289.429C350.003 290.769 351.089 291.855 352.429 291.855C353.769 291.855 354.855 290.769 354.855 289.429C354.855 288.089 353.769 287.003 352.429 287.003Z" fill="#F5516C"/>
<path d="M242.959 287.003C241.619 287.003 240.533 288.089 240.533 289.429C240.533 290.769 241.619 291.855 242.959 291.855C244.299 291.855 245.386 290.769 245.386 289.429C245.386 288.089 244.299 287.003 242.959 287.003Z" fill="#F5516C"/>
<path d="M230.827 287.003C229.487 287.003 228.4 288.089 228.4 289.429C228.4 290.769 229.487 291.855 230.827 291.855C232.167 291.855 233.253 290.769 233.253 289.429C233.253 288.089 232.167 287.003 230.827 287.003Z" fill="#F5516C"/>
<path d="M218.694 287.003C217.354 287.003 216.267 288.089 216.267 289.429C216.267 290.769 217.354 291.855 218.694 291.855C220.034 291.855 221.12 290.769 221.12 289.429C221.12 288.089 220.034 287.003 218.694 287.003Z" fill="#F5516C"/>
<path d="M206.561 287.003C205.221 287.003 204.135 288.089 204.135 289.429C204.135 290.769 205.221 291.855 206.561 291.855C207.901 291.855 208.987 290.769 208.987 289.429C208.987 288.089 207.901 287.003 206.561 287.003Z" fill="#F5516C"/>
<path d="M194.433 287.003C193.093 287.003 192.007 288.089 192.007 289.429C192.007 290.769 193.093 291.855 194.433 291.855C195.773 291.855 196.859 290.769 196.859 289.429C196.859 288.089 195.773 287.003 194.433 287.003Z" fill="#F5516C"/>
<path d="M182.301 287.003C180.961 287.003 179.875 288.089 179.875 289.429C179.875 290.769 180.961 291.855 182.301 291.855C183.641 291.855 184.728 290.769 184.728 289.429C184.728 288.089 183.641 287.003 182.301 287.003Z" fill="#F5516C"/>
<path d="M176.651 279.135L166.357 289.429L176.651 299.723" stroke="#F5516C" stroke-width="3"/>
<path d="M112.903 161.472L102.609 151.178L92.3153 161.472" stroke="#F5516C" stroke-width="3"/>
<path d="M105.037 178.122C105.037 176.782 103.951 175.695 102.611 175.695C101.271 175.695 100.185 176.782 100.185 178.122C100.185 179.462 101.271 180.548 102.611 180.548C103.951 180.548 105.037 179.462 105.037 178.122Z" fill="#F5516C"/>
<path d="M105.037 166.468C105.037 165.128 103.951 164.041 102.611 164.041C101.271 164.041 100.185 165.128 100.185 166.468C100.185 167.808 101.271 168.894 102.611 168.894C103.951 168.894 105.037 167.808 105.037 166.468Z" fill="#F5516C"/>
<path d="M105.037 190.254C105.037 188.914 103.951 187.828 102.611 187.828C101.271 187.828 100.185 188.914 100.185 190.254C100.185 191.594 101.271 192.681 102.611 192.681C103.951 192.681 105.037 191.594 105.037 190.254Z" fill="#F5516C"/>
<path d="M200.254 187.828C198.914 187.828 197.828 188.914 197.828 190.254C197.828 191.594 198.914 192.681 200.254 192.681C201.594 192.681 202.681 191.594 202.681 190.254C202.681 188.914 201.594 187.828 200.254 187.828Z" fill="#F5516C"/>
<path d="M188.122 187.828C186.782 187.828 185.696 188.914 185.696 190.254C185.696 191.594 186.782 192.681 188.122 192.681C189.463 192.681 190.549 191.594 190.549 190.254C190.549 188.914 189.463 187.828 188.122 187.828Z" fill="#F5516C"/>
<path d="M224.514 187.828C223.174 187.828 222.088 188.914 222.088 190.254C222.088 191.594 223.174 192.681 224.514 192.681C225.854 192.681 226.94 191.594 226.94 190.254C226.94 188.914 225.854 187.828 224.514 187.828Z" fill="#F5516C"/>
<path d="M212.383 187.828C211.043 187.828 209.957 188.914 209.957 190.254C209.957 191.594 211.043 192.681 212.383 192.681C213.723 192.681 214.81 191.594 214.81 190.254C214.81 188.914 213.723 187.828 212.383 187.828Z" fill="#F5516C"/>
<path d="M249.071 187.828C247.731 187.828 246.644 188.914 246.644 190.254C246.644 191.594 247.731 192.681 249.071 192.681C250.411 192.681 251.497 191.594 251.497 190.254C251.497 188.914 250.411 187.828 249.071 187.828Z" fill="#F5516C"/>
<path d="M236.939 187.828C235.599 187.828 234.513 188.914 234.513 190.254C234.513 191.594 235.599 192.681 236.939 192.681C238.279 192.681 239.365 191.594 239.365 190.254C239.365 188.914 238.279 187.828 236.939 187.828Z" fill="#F5516C"/>
<path d="M273.331 187.828C271.991 187.828 270.905 188.914 270.905 190.254C270.905 191.594 271.991 192.681 273.331 192.681C274.672 192.681 275.758 191.594 275.758 190.254C275.758 188.914 274.672 187.828 273.331 187.828Z" fill="#F5516C"/>
<path d="M297.59 187.828C296.25 187.828 295.164 188.914 295.164 190.254C295.164 191.594 296.25 192.681 297.59 192.681C298.93 192.681 300.017 191.594 300.017 190.254C300.017 188.914 298.93 187.828 297.59 187.828Z" fill="#F5516C"/>
<path d="M261.201 187.828C259.861 187.828 258.774 188.914 258.774 190.254C258.774 191.594 259.861 192.681 261.201 192.681C262.541 192.681 263.627 191.594 263.627 190.254C263.627 188.914 262.541 187.828 261.201 187.828Z" fill="#F5516C"/>
<path d="M285.459 187.828C284.119 187.828 283.033 188.914 283.033 190.254C283.033 191.594 284.119 192.681 285.459 192.681C286.799 192.681 287.886 191.594 287.886 190.254C287.886 188.914 286.799 187.828 285.459 187.828Z" fill="#F5516C"/>
<path d="M175.991 187.828C174.651 187.828 173.564 188.914 173.564 190.254C173.564 191.594 174.651 192.681 175.991 192.681C177.331 192.681 178.417 191.594 178.417 190.254C178.417 188.914 177.331 187.828 175.991 187.828Z" fill="#F5516C"/>
<path d="M163.858 187.828C162.518 187.828 161.432 188.914 161.432 190.254C161.432 191.594 162.518 192.681 163.858 192.681C165.198 192.681 166.284 191.594 166.284 190.254C166.284 188.914 165.198 187.828 163.858 187.828Z" fill="#F5516C"/>
<path d="M151.724 187.828C150.384 187.828 149.298 188.914 149.298 190.254C149.298 191.594 150.384 192.681 151.724 192.681C153.064 192.681 154.15 191.594 154.15 190.254C154.15 188.914 153.064 187.828 151.724 187.828Z" fill="#F5516C"/>
<path d="M139.591 187.828C138.251 187.828 137.165 188.914 137.165 190.254C137.165 191.594 138.251 192.681 139.591 192.681C140.931 192.681 142.018 191.594 142.018 190.254C142.018 188.914 140.931 187.828 139.591 187.828Z" fill="#F5516C"/>
<path d="M127.463 187.828C126.123 187.828 125.037 188.914 125.037 190.254C125.037 191.594 126.123 192.681 127.463 192.681C128.803 192.681 129.89 191.594 129.89 190.254C129.89 188.914 128.803 187.828 127.463 187.828Z" fill="#F5516C"/>
<path d="M115.331 187.828C113.991 187.828 112.905 188.914 112.905 190.254C112.905 191.594 113.991 192.681 115.331 192.681C116.672 192.681 117.758 191.594 117.758 190.254C117.758 188.914 116.672 187.828 115.331 187.828Z" fill="#F5516C"/>
<path d="M394.519 187.828C393.179 187.828 392.093 188.914 392.093 190.254C392.093 191.594 393.179 192.681 394.519 192.681C395.859 192.681 396.945 191.594 396.945 190.254C396.945 188.914 395.859 187.828 394.519 187.828Z" fill="#F5516C"/>
<path d="M382.386 187.828C381.046 187.828 379.96 188.914 379.96 190.254C379.96 191.594 381.046 192.681 382.386 192.681C383.726 192.681 384.812 191.594 384.812 190.254C384.812 188.914 383.726 187.828 382.386 187.828Z" fill="#F5516C"/>
<path d="M418.78 187.828C417.44 187.828 416.353 188.914 416.353 190.254C416.353 191.594 417.44 192.681 418.78 192.681C420.12 192.681 421.206 191.594 421.206 190.254C421.206 188.914 420.12 187.828 418.78 187.828Z" fill="#F5516C"/>
<path d="M406.648 187.828C405.308 187.828 404.222 188.914 404.222 190.254C404.222 191.594 405.308 192.681 406.648 192.681C407.988 192.681 409.074 191.594 409.074 190.254C409.074 188.914 407.988 187.828 406.648 187.828Z" fill="#F5516C"/>
<path d="M431.203 199.681C429.863 199.681 428.776 200.767 428.776 202.107C428.776 203.447 429.863 204.533 431.203 204.533C432.543 204.533 433.629 203.447 433.629 202.107C433.629 200.767 432.543 199.681 431.203 199.681Z" fill="#F5516C"/>
<path d="M431.203 211.533C429.863 211.533 428.776 212.62 428.776 213.96C428.776 215.3 429.863 216.386 431.203 216.386C432.543 216.386 433.629 215.3 433.629 213.96C433.629 212.62 432.543 211.533 431.203 211.533Z" fill="#F5516C"/>
<path d="M431.205 187.828C429.864 187.828 428.778 188.914 428.778 190.254C428.778 191.594 429.864 192.681 431.205 192.681C432.545 192.681 433.631 191.594 433.631 190.254C433.631 188.914 432.545 187.828 431.205 187.828Z" fill="#F5516C"/>
<path d="M370.255 187.828C368.915 187.828 367.829 188.914 367.829 190.254C367.829 191.594 368.915 192.681 370.255 192.681C371.595 192.681 372.682 191.594 372.682 190.254C372.682 188.914 371.595 187.828 370.255 187.828Z" fill="#F5516C"/>
<path d="M358.122 187.828C356.782 187.828 355.696 188.914 355.696 190.254C355.696 191.594 356.782 192.681 358.122 192.681C359.463 192.681 360.549 191.594 360.549 190.254C360.549 188.914 359.463 187.828 358.122 187.828Z" fill="#F5516C"/>
<path d="M345.99 187.828C344.65 187.828 343.563 188.914 343.563 190.254C343.563 191.594 344.65 192.681 345.99 192.681C347.33 192.681 348.416 191.594 348.416 190.254C348.416 188.914 347.33 187.828 345.99 187.828Z" fill="#F5516C"/>
<path d="M333.856 187.828C332.516 187.828 331.43 188.914 331.43 190.254C331.43 191.594 332.516 192.681 333.856 192.681C335.196 192.681 336.282 191.594 336.282 190.254C336.282 188.914 335.196 187.828 333.856 187.828Z" fill="#F5516C"/>
<path d="M321.728 187.828C320.388 187.828 319.302 188.914 319.302 190.254C319.302 191.594 320.388 192.681 321.728 192.681C323.068 192.681 324.154 191.594 324.154 190.254C324.154 188.914 323.068 187.828 321.728 187.828Z" fill="#F5516C"/>
<path d="M309.596 187.828C308.256 187.828 307.17 188.914 307.17 190.254C307.17 191.594 308.256 192.681 309.596 192.681C310.936 192.681 312.022 191.594 312.022 190.254C312.022 188.914 310.936 187.828 309.596 187.828Z" fill="#F5516C"/>
<path d="M313.316 390.478C311.976 390.478 310.89 391.564 310.89 392.904C310.89 394.244 311.976 395.33 313.316 395.33C314.656 395.33 315.742 394.244 315.742 392.904C315.742 391.564 314.656 390.478 313.316 390.478Z" fill="#F5516C"/>
<path d="M301.183 390.478C299.843 390.478 298.757 391.564 298.757 392.904C298.757 394.244 299.843 395.33 301.183 395.33C302.523 395.33 303.609 394.244 303.609 392.904C303.609 391.564 302.523 390.478 301.183 390.478Z" fill="#F5516C"/>
<path d="M337.577 390.478C336.237 390.478 335.15 391.564 335.15 392.904C335.15 394.244 336.237 395.33 337.577 395.33C338.917 395.33 340.003 394.244 340.003 392.904C340.003 391.564 338.917 390.478 337.577 390.478Z" fill="#F5516C"/>
<path d="M325.445 390.478C324.105 390.478 323.018 391.564 323.018 392.904C323.018 394.244 324.105 395.33 325.445 395.33C326.785 395.33 327.871 394.244 327.871 392.904C327.871 391.564 326.785 390.478 325.445 390.478Z" fill="#F5516C"/>
<path d="M362.133 390.478C360.793 390.478 359.707 391.564 359.707 392.904C359.707 394.244 360.793 395.33 362.133 395.33C363.473 395.33 364.56 394.244 364.56 392.904C364.56 391.564 363.473 390.478 362.133 390.478Z" fill="#F5516C"/>
<path d="M350.001 390.478C348.661 390.478 347.575 391.564 347.575 392.904C347.575 394.244 348.661 395.33 350.001 395.33C351.341 395.33 352.428 394.244 352.428 392.904C352.428 391.564 351.341 390.478 350.001 390.478Z" fill="#F5516C"/>
<path d="M289.052 390.478C287.712 390.478 286.626 391.564 286.626 392.904C286.626 394.244 287.712 395.33 289.052 395.33C290.392 395.33 291.479 394.244 291.479 392.904C291.479 391.564 290.392 390.478 289.052 390.478Z" fill="#F5516C"/>
<path d="M276.919 390.478C275.579 390.478 274.493 391.564 274.493 392.904C274.493 394.244 275.579 395.33 276.919 395.33C278.259 395.33 279.346 394.244 279.346 392.904C279.346 391.564 278.259 390.478 276.919 390.478Z" fill="#F5516C"/>
<path d="M264.787 390.478C263.447 390.478 262.36 391.564 262.36 392.904C262.36 394.244 263.447 395.33 264.787 395.33C266.127 395.33 267.213 394.244 267.213 392.904C267.213 391.564 266.127 390.478 264.787 390.478Z" fill="#F5516C"/>
<path d="M252.654 390.478C251.314 390.478 250.227 391.564 250.227 392.904C250.227 394.244 251.314 395.33 252.654 395.33C253.994 395.33 255.08 394.244 255.08 392.904C255.08 391.564 253.994 390.478 252.654 390.478Z" fill="#F5516C"/>
<path d="M240.526 390.478C239.186 390.478 238.099 391.564 238.099 392.904C238.099 394.244 239.186 395.33 240.526 395.33C241.866 395.33 242.952 394.244 242.952 392.904C242.952 391.564 241.866 390.478 240.526 390.478Z" fill="#F5516C"/>
<path d="M228.394 390.478C227.054 390.478 225.968 391.564 225.968 392.904C225.968 394.244 227.054 395.33 228.394 395.33C229.734 395.33 230.82 394.244 230.82 392.904C230.82 391.564 229.734 390.478 228.394 390.478Z" fill="#F5516C"/>
<path d="M222.744 382.61L212.45 392.904L222.744 403.198" stroke="#F5516C" stroke-width="3"/>
<path d="M190.309 415.752C191.649 415.752 192.735 414.666 192.735 413.326C192.735 411.986 191.649 410.9 190.309 410.9C188.969 410.9 187.883 411.986 187.883 413.326C187.883 414.666 188.969 415.752 190.309 415.752Z" fill="#0A355C"/>
<path d="M202.442 415.752C203.782 415.752 204.868 414.666 204.868 413.326C204.868 411.986 203.782 410.9 202.442 410.9C201.102 410.9 200.016 411.986 200.016 413.326C200.016 414.666 201.102 415.752 202.442 415.752Z" fill="#0A355C"/>
<path d="M166.048 415.752C167.388 415.752 168.475 414.666 168.475 413.326C168.475 411.986 167.388 410.9 166.048 410.9C164.708 410.9 163.622 411.986 163.622 413.326C163.622 414.666 164.708 415.752 166.048 415.752Z" fill="#0A355C"/>
<path d="M178.18 415.752C179.52 415.752 180.607 414.666 180.607 413.326C180.607 411.986 179.52 410.9 178.18 410.9C176.84 410.9 175.754 411.986 175.754 413.326C175.754 414.666 176.84 415.752 178.18 415.752Z" fill="#0A355C"/>
<path d="M141.492 415.752C142.832 415.752 143.918 414.666 143.918 413.326C143.918 411.986 142.832 410.9 141.492 410.9C140.152 410.9 139.065 411.986 139.065 413.326C139.065 414.666 140.152 415.752 141.492 415.752Z" fill="#0A355C"/>
<path d="M153.624 415.752C154.964 415.752 156.05 414.666 156.05 413.326C156.05 411.986 154.964 410.9 153.624 410.9C152.284 410.9 151.197 411.986 151.197 413.326C151.197 414.666 152.284 415.752 153.624 415.752Z" fill="#0A355C"/>
<path d="M214.573 415.752C215.913 415.752 216.999 414.666 216.999 413.326C216.999 411.986 215.913 410.9 214.573 410.9C213.233 410.9 212.146 411.986 212.146 413.326C212.146 414.666 213.233 415.752 214.573 415.752Z" fill="#0A355C"/>
<path d="M226.706 415.752C228.046 415.752 229.132 414.666 229.132 413.326C229.132 411.986 228.046 410.9 226.706 410.9C225.366 410.9 224.279 411.986 224.279 413.326C224.279 414.666 225.366 415.752 226.706 415.752Z" fill="#0A355C"/>
<path d="M238.838 415.752C240.178 415.752 241.265 414.666 241.265 413.326C241.265 411.986 240.178 410.9 238.838 410.9C237.498 410.9 236.412 411.986 236.412 413.326C236.412 414.666 237.498 415.752 238.838 415.752Z" fill="#0A355C"/>
<path d="M250.971 415.752C252.311 415.752 253.398 414.666 253.398 413.326C253.398 411.986 252.311 410.9 250.971 410.9C249.631 410.9 248.545 411.986 248.545 413.326C248.545 414.666 249.631 415.752 250.971 415.752Z" fill="#0A355C"/>
<path d="M263.099 415.752C264.439 415.752 265.526 414.666 265.526 413.326C265.526 411.986 264.439 410.9 263.099 410.9C261.759 410.9 260.673 411.986 260.673 413.326C260.673 414.666 261.759 415.752 263.099 415.752Z" fill="#0A355C"/>
<path d="M275.231 415.752C276.571 415.752 277.657 414.666 277.657 413.326C277.657 411.986 276.571 410.9 275.231 410.9C273.891 410.9 272.805 411.986 272.805 413.326C272.805 414.666 273.891 415.752 275.231 415.752Z" fill="#0A355C"/>
<path d="M280.881 423.62L291.175 413.326L280.881 403.032" stroke="#0A355C" stroke-width="3"/>
<path d="M248.117 76.8855L168.913 76.8858" stroke="#0A355C" stroke-width="3"/>
<path d="M250.036 87.1797L260.33 76.8856L250.036 66.5916" stroke="#0A355C" stroke-width="3"/>
<path d="M497.853 199.746L497.44 128.755" stroke="#9AA5B8" stroke-width="3"/>
<path d="M487.558 201.668L497.853 211.963L508.147 201.668" stroke="#9AA5B8" stroke-width="3"/>
<path d="M416.263 87.1797L426.557 76.8856L416.263 66.5916" stroke="#9AA5B8" stroke-width="3"/>
<rect x="279.63" y="35.8269" width="124.838" height="82.1177" rx="13.5" stroke="#0A355C" stroke-width="3"/>
<rect x="435.433" y="35.8269" width="124.838" height="82.1177" rx="13.5" stroke="#9AA5B8" stroke-width="3"/>
<rect x="377.771" y="227.033" width="182" height="210.95" rx="23" stroke="#F5516C" stroke-width="4"/>
<rect x="449.261" y="392.461" width="70.6854" height="8.47165" rx="2" fill="#F5516C"/>
<rect x="449.261" y="379.953" width="70.6854" height="8.47165" rx="2" fill="#F5516C"/>
<rect x="449.261" y="367.444" width="70.6854" height="8.47165" rx="2" fill="#F5516C"/>
<rect x="449.261" y="354.935" width="70.6854" height="8.47165" rx="2" fill="#F5516C"/>
<rect x="449.261" y="342.426" width="70.6854" height="8.47165" rx="2" fill="#F5516C"/>
<rect x="449.261" y="329.917" width="70.6854" height="8.47165" rx="2" fill="#F5516C"/>
<rect x="449.261" y="317.409" width="70.6854" height="8.47165" rx="2" fill="#F5516C"/>
<rect x="449.261" y="304.9" width="70.6854" height="8.47165" rx="2" fill="#F5516C"/>
<rect x="449.261" y="292.391" width="70.6854" height="8.47165" rx="2" fill="#F5516C"/>
<path d="M488.79 380.466C476.242 402.231 448.179 409.622 426.388 397.07C404.613 384.527 397.22 356.477 409.777 334.696C422.324 312.932 450.386 305.541 472.177 318.091C493.772 330.638 501.343 358.694 488.79 380.466Z" fill="#F5516C" stroke="#F5F5F5" stroke-width="3"/>
<path d="M449.578 326.247V352.656C448.11 351.189 446.852 349.931 445.174 348.254C444.965 345.739 444.545 338.613 444.545 338.613L448.739 326.037C446.223 326.037 443.706 326.456 441.4 327.085L439.303 333.163L433.432 330.229C431.335 331.487 429.238 332.954 427.351 334.84L437.835 340.08L438.255 346.368L431.964 345.949L426.722 335.469C425.044 337.355 423.367 339.242 422.109 341.547L425.044 347.416L418.754 349.512C418.124 351.817 417.705 354.332 417.705 357.057L430.286 353.075L440.351 353.494L444.545 357.686L440.351 361.878L430.286 362.297L417.705 358.315C417.705 360.83 418.124 363.345 418.754 365.86L424.835 367.956L421.899 373.615C423.157 375.711 424.625 377.807 426.512 379.484L431.754 369.004L438.045 368.585L437.625 374.873L427.141 380.113C429.028 381.789 430.915 383.466 433.222 384.724L438.884 381.999L440.98 388.077C443.287 388.706 445.803 389.125 448.32 389.125L444.335 376.759C444.335 376.759 444.755 369.633 444.965 367.118C446.432 365.651 447.69 364.393 449.368 362.716V389.125C466.772 389.125 480.821 375.082 480.821 357.686C481.031 340.29 466.982 326.247 449.578 326.247ZM456.707 381.161C456.707 365.441 456.707 349.931 456.707 334.211C464.256 335.888 473.901 344.272 474.321 356.848C474.74 370.681 464.256 379.484 456.707 381.161Z" fill="#F5F5F5"/>
<path d="M407.221 260.955H410.073L414.274 272.961L418.474 260.955H421.326L415.419 277.307H413.128L407.221 260.955ZM405.682 260.955H408.524L409.04 272.658V277.307H405.682V260.955ZM420.024 260.955H422.876V277.307H419.507V272.658L420.024 260.955ZM431.956 274.567V269.154C431.956 268.764 431.892 268.431 431.765 268.154C431.638 267.87 431.44 267.649 431.17 267.492C430.908 267.334 430.567 267.256 430.148 267.256C429.789 267.256 429.478 267.319 429.216 267.447C428.954 267.566 428.752 267.742 428.609 267.974C428.467 268.199 428.396 268.465 428.396 268.772H425.162C425.162 268.255 425.281 267.765 425.521 267.301C425.761 266.836 426.109 266.428 426.566 266.077C427.022 265.717 427.565 265.436 428.194 265.234C428.83 265.032 429.542 264.931 430.328 264.931C431.271 264.931 432.11 265.088 432.843 265.403C433.577 265.717 434.154 266.189 434.573 266.818C435 267.447 435.213 268.233 435.213 269.176V274.376C435.213 275.042 435.254 275.589 435.337 276.016C435.419 276.435 435.539 276.802 435.696 277.116V277.307H432.428C432.271 276.978 432.151 276.566 432.068 276.072C431.994 275.57 431.956 275.068 431.956 274.567ZM432.383 269.906L432.405 271.737H430.597C430.17 271.737 429.8 271.785 429.485 271.883C429.171 271.98 428.913 272.119 428.711 272.298C428.508 272.47 428.359 272.673 428.261 272.905C428.171 273.137 428.127 273.391 428.127 273.668C428.127 273.945 428.19 274.196 428.317 274.421C428.445 274.638 428.628 274.81 428.868 274.937C429.107 275.057 429.388 275.117 429.71 275.117C430.197 275.117 430.62 275.02 430.979 274.825C431.338 274.63 431.615 274.391 431.81 274.106C432.012 273.822 432.117 273.552 432.125 273.298L432.978 274.668C432.858 274.975 432.694 275.293 432.484 275.622C432.282 275.952 432.024 276.263 431.709 276.555C431.395 276.839 431.017 277.075 430.575 277.262C430.133 277.442 429.609 277.532 429.003 277.532C428.231 277.532 427.531 277.378 426.902 277.071C426.281 276.757 425.787 276.326 425.42 275.78C425.061 275.226 424.881 274.597 424.881 273.893C424.881 273.257 425.001 272.691 425.24 272.197C425.48 271.703 425.832 271.287 426.296 270.951C426.768 270.606 427.355 270.348 428.059 270.176C428.763 269.996 429.579 269.906 430.507 269.906H432.383ZM444.046 273.949C444.046 273.717 443.979 273.507 443.844 273.32C443.709 273.133 443.458 272.961 443.091 272.804C442.732 272.639 442.212 272.489 441.53 272.354C440.916 272.22 440.344 272.051 439.812 271.849C439.288 271.639 438.831 271.389 438.442 271.097C438.06 270.805 437.761 270.46 437.544 270.063C437.326 269.659 437.218 269.199 437.218 268.682C437.218 268.173 437.326 267.694 437.544 267.245C437.768 266.795 438.086 266.398 438.498 266.054C438.917 265.702 439.426 265.429 440.025 265.234C440.632 265.032 441.313 264.931 442.069 264.931C443.125 264.931 444.031 265.099 444.787 265.436C445.551 265.773 446.135 266.238 446.539 266.829C446.951 267.413 447.157 268.079 447.157 268.828H443.922C443.922 268.514 443.855 268.233 443.72 267.986C443.593 267.731 443.391 267.533 443.114 267.391C442.844 267.241 442.492 267.166 442.058 267.166C441.699 267.166 441.388 267.23 441.126 267.357C440.864 267.477 440.662 267.641 440.52 267.851C440.385 268.053 440.317 268.278 440.317 268.525C440.317 268.712 440.355 268.88 440.43 269.03C440.512 269.172 440.643 269.303 440.823 269.423C441.003 269.543 441.235 269.655 441.519 269.76C441.811 269.857 442.17 269.947 442.597 270.03C443.473 270.209 444.256 270.445 444.944 270.737C445.633 271.022 446.18 271.411 446.584 271.905C446.988 272.392 447.19 273.032 447.19 273.826C447.19 274.365 447.071 274.859 446.831 275.308C446.592 275.757 446.247 276.15 445.798 276.487C445.349 276.817 444.81 277.075 444.181 277.262C443.559 277.442 442.859 277.532 442.081 277.532C440.95 277.532 439.992 277.329 439.206 276.925C438.427 276.521 437.836 276.008 437.431 275.387C437.034 274.758 436.836 274.114 436.836 273.455H439.902C439.917 273.897 440.029 274.252 440.239 274.522C440.456 274.791 440.729 274.986 441.059 275.106C441.396 275.226 441.759 275.286 442.148 275.286C442.567 275.286 442.915 275.229 443.192 275.117C443.469 274.997 443.679 274.84 443.821 274.645C443.971 274.443 444.046 274.211 444.046 273.949ZM455.013 265.156V267.447H447.938V265.156H455.013ZM449.689 262.157H452.924V273.646C452.924 273.998 452.969 274.267 453.059 274.454C453.156 274.642 453.298 274.773 453.485 274.848C453.673 274.915 453.908 274.949 454.193 274.949C454.395 274.949 454.575 274.941 454.732 274.926C454.897 274.904 455.035 274.881 455.148 274.859L455.159 277.24C454.882 277.329 454.582 277.401 454.26 277.453C453.938 277.505 453.583 277.532 453.193 277.532C452.482 277.532 451.861 277.416 451.329 277.183C450.805 276.944 450.401 276.562 450.116 276.038C449.832 275.514 449.689 274.825 449.689 273.972V262.157ZM462.217 277.532C461.274 277.532 460.428 277.382 459.679 277.082C458.931 276.775 458.294 276.352 457.77 275.813C457.253 275.274 456.857 274.649 456.58 273.938C456.303 273.219 456.164 272.455 456.164 271.647V271.198C456.164 270.277 456.295 269.434 456.557 268.671C456.819 267.907 457.194 267.245 457.68 266.683C458.174 266.121 458.773 265.691 459.477 265.391C460.181 265.085 460.974 264.931 461.858 264.931C462.719 264.931 463.483 265.073 464.149 265.358C464.815 265.642 465.373 266.047 465.822 266.571C466.279 267.095 466.623 267.724 466.855 268.457C467.088 269.184 467.204 269.992 467.204 270.883V272.231H457.545V270.075H464.025V269.828C464.025 269.378 463.943 268.978 463.778 268.626C463.621 268.266 463.382 267.982 463.06 267.772C462.738 267.563 462.326 267.458 461.824 267.458C461.397 267.458 461.031 267.551 460.724 267.739C460.417 267.926 460.166 268.188 459.971 268.525C459.784 268.862 459.642 269.259 459.544 269.715C459.455 270.164 459.41 270.659 459.41 271.198V271.647C459.41 272.134 459.477 272.583 459.612 272.995C459.754 273.406 459.952 273.762 460.207 274.061C460.469 274.361 460.784 274.593 461.15 274.758C461.525 274.922 461.948 275.005 462.419 275.005C463.003 275.005 463.546 274.892 464.048 274.668C464.557 274.436 464.995 274.088 465.362 273.623L466.934 275.33C466.68 275.697 466.331 276.049 465.89 276.386C465.455 276.723 464.931 277 464.317 277.217C463.703 277.427 463.003 277.532 462.217 277.532ZM472.05 267.806V277.307H468.815V265.156H471.859L472.05 267.806ZM475.711 265.077L475.655 268.076C475.498 268.053 475.307 268.034 475.082 268.019C474.865 267.997 474.667 267.986 474.487 267.986C474.03 267.986 473.633 268.046 473.296 268.165C472.967 268.278 472.69 268.446 472.465 268.671C472.248 268.895 472.083 269.169 471.971 269.491C471.866 269.813 471.806 270.179 471.792 270.591L471.14 270.389C471.14 269.603 471.219 268.88 471.376 268.222C471.533 267.555 471.762 266.975 472.061 266.481C472.368 265.987 472.742 265.605 473.184 265.335C473.626 265.066 474.131 264.931 474.7 264.931C474.88 264.931 475.063 264.946 475.25 264.976C475.438 264.998 475.591 265.032 475.711 265.077ZM496.016 260.955V277.307H492.647L486.077 266.346V277.307H482.708V260.955H486.077L492.658 271.928V260.955H496.016ZM497.998 271.355V271.119C497.998 270.228 498.126 269.408 498.38 268.66C498.635 267.903 499.005 267.248 499.492 266.694C499.979 266.14 500.578 265.71 501.289 265.403C502 265.088 502.816 264.931 503.737 264.931C504.658 264.931 505.478 265.088 506.197 265.403C506.915 265.71 507.518 266.14 508.005 266.694C508.499 267.248 508.873 267.903 509.128 268.66C509.382 269.408 509.51 270.228 509.51 271.119V271.355C509.51 272.238 509.382 273.058 509.128 273.814C508.873 274.563 508.499 275.218 508.005 275.78C507.518 276.334 506.919 276.764 506.208 277.071C505.497 277.378 504.681 277.532 503.76 277.532C502.839 277.532 502.019 277.378 501.3 277.071C500.589 276.764 499.986 276.334 499.492 275.78C499.005 275.218 498.635 274.563 498.38 273.814C498.126 273.058 497.998 272.238 497.998 271.355ZM501.233 271.119V271.355C501.233 271.864 501.278 272.339 501.368 272.781C501.457 273.223 501.6 273.612 501.794 273.949C501.997 274.279 502.259 274.537 502.581 274.724C502.902 274.911 503.296 275.005 503.76 275.005C504.209 275.005 504.595 274.911 504.916 274.724C505.238 274.537 505.497 274.279 505.691 273.949C505.886 273.612 506.028 273.223 506.118 272.781C506.215 272.339 506.264 271.864 506.264 271.355V271.119C506.264 270.625 506.215 270.161 506.118 269.726C506.028 269.285 505.882 268.895 505.68 268.558C505.485 268.214 505.227 267.945 504.905 267.75C504.583 267.555 504.194 267.458 503.737 267.458C503.281 267.458 502.891 267.555 502.569 267.75C502.255 267.945 501.997 268.214 501.794 268.558C501.6 268.895 501.457 269.285 501.368 269.726C501.278 270.161 501.233 270.625 501.233 271.119ZM518.444 274.657V260.057H521.701V277.307H518.769L518.444 274.657ZM510.762 271.377V271.141C510.762 270.213 510.867 269.371 511.077 268.615C511.286 267.851 511.593 267.196 511.997 266.649C512.402 266.103 512.9 265.68 513.491 265.38C514.083 265.081 514.756 264.931 515.513 264.931C516.224 264.931 516.845 265.081 517.377 265.38C517.916 265.68 518.373 266.106 518.747 266.661C519.129 267.207 519.436 267.855 519.668 268.603C519.9 269.345 520.068 270.157 520.173 271.04V271.557C520.068 272.403 519.9 273.189 519.668 273.915C519.436 274.642 519.129 275.278 518.747 275.825C518.373 276.364 517.916 276.783 517.377 277.082C516.838 277.382 516.209 277.532 515.49 277.532C514.734 277.532 514.06 277.378 513.469 277.071C512.885 276.764 512.391 276.334 511.986 275.78C511.589 275.226 511.286 274.574 511.077 273.826C510.867 273.077 510.762 272.261 510.762 271.377ZM513.997 271.141V271.377C513.997 271.879 514.034 272.347 514.109 272.781C514.191 273.215 514.322 273.601 514.502 273.938C514.689 274.267 514.929 274.526 515.221 274.713C515.52 274.892 515.883 274.982 516.31 274.982C516.864 274.982 517.321 274.859 517.68 274.612C518.039 274.357 518.313 274.009 518.5 273.567C518.695 273.126 518.807 272.616 518.837 272.04V270.569C518.814 270.097 518.747 269.674 518.635 269.3C518.53 268.918 518.373 268.592 518.163 268.323C517.961 268.053 517.706 267.843 517.399 267.694C517.1 267.544 516.744 267.469 516.332 267.469C515.913 267.469 515.554 267.566 515.254 267.761C514.955 267.948 514.712 268.207 514.524 268.536C514.345 268.865 514.21 269.255 514.12 269.704C514.038 270.146 513.997 270.625 513.997 271.141ZM529.59 277.532C528.647 277.532 527.801 277.382 527.052 277.082C526.303 276.775 525.667 276.352 525.143 275.813C524.626 275.274 524.23 274.649 523.953 273.938C523.676 273.219 523.537 272.455 523.537 271.647V271.198C523.537 270.277 523.668 269.434 523.93 268.671C524.192 267.907 524.566 267.245 525.053 266.683C525.547 266.121 526.146 265.691 526.85 265.391C527.554 265.085 528.347 264.931 529.231 264.931C530.092 264.931 530.856 265.073 531.522 265.358C532.188 265.642 532.746 266.047 533.195 266.571C533.652 267.095 533.996 267.724 534.228 268.457C534.461 269.184 534.577 269.992 534.577 270.883V272.231H524.918V270.075H531.398V269.828C531.398 269.378 531.316 268.978 531.151 268.626C530.994 268.266 530.754 267.982 530.433 267.772C530.111 267.563 529.699 267.458 529.197 267.458C528.77 267.458 528.404 267.551 528.097 267.739C527.79 267.926 527.539 268.188 527.344 268.525C527.157 268.862 527.015 269.259 526.917 269.715C526.828 270.164 526.783 270.659 526.783 271.198V271.647C526.783 272.134 526.85 272.583 526.985 272.995C527.127 273.406 527.325 273.762 527.58 274.061C527.842 274.361 528.156 274.593 528.523 274.758C528.898 274.922 529.321 275.005 529.792 275.005C530.376 275.005 530.919 274.892 531.421 274.668C531.93 274.436 532.368 274.088 532.735 273.623L534.307 275.33C534.052 275.697 533.704 276.049 533.263 276.386C532.828 276.723 532.304 277 531.69 277.217C531.076 277.427 530.376 277.532 529.59 277.532Z" fill="#65728A"/>
<path d="M94.1376 274.483H87.6699V306.102H94.1376V274.483Z" fill="#F5516C"/>
<path d="M105.989 274.483H99.5215V306.102H105.989V274.483Z" fill="#F5516C"/>
<path d="M82.1903 274.483H75.7227V306.102H82.1903V274.483Z" fill="#F5516C"/>
<path d="M129.789 274.483H123.321V306.102H129.789V274.483Z" fill="#F5516C"/>
<path d="M117.854 274.483H111.387V306.102H117.854V274.483Z" fill="#F5516C"/>
<path fill-rule="evenodd" clip-rule="evenodd" d="M67.26 268.367L102.74 253.558L138.13 268.367H138.135V272.451H67.2598V268.367V268.367H67.26Z" fill="#F5516C"/>
<path d="M136.876 308.332H68.6064V313.558H136.876V308.332Z" fill="#F5516C"/>
<path d="M32.0332 239.373H28.3809L28.3613 237.361H31.4277C31.9681 237.361 32.4108 237.293 32.7559 237.156C33.1009 237.013 33.3581 236.808 33.5273 236.541C33.7031 236.267 33.791 235.935 33.791 235.545C33.791 235.102 33.7064 234.744 33.5371 234.471C33.3743 234.197 33.1172 233.999 32.7656 233.875C32.4206 233.751 31.9746 233.689 31.4277 233.689H29.3965V245.613H26.4668V231.394H31.4277C32.2546 231.394 32.9935 231.473 33.6445 231.629C34.3021 231.785 34.8587 232.023 35.3145 232.342C35.7702 232.661 36.1185 233.064 36.3594 233.553C36.6003 234.034 36.7207 234.607 36.7207 235.271C36.7207 235.857 36.5872 236.398 36.3203 236.892C36.0599 237.387 35.6465 237.791 35.0801 238.103C34.5202 238.416 33.7878 238.588 32.8828 238.621L32.0332 239.373ZM31.9062 245.613H27.5801L28.7227 243.328H31.9062C32.4206 243.328 32.8405 243.247 33.166 243.084C33.4915 242.915 33.7324 242.687 33.8887 242.4C34.0449 242.114 34.123 241.785 34.123 241.414C34.123 240.997 34.0514 240.636 33.9082 240.33C33.7715 240.024 33.5501 239.79 33.2441 239.627C32.9382 239.458 32.5345 239.373 32.0332 239.373H29.2109L29.2305 237.361H32.7461L33.4199 238.152C34.2858 238.139 34.9824 238.292 35.5098 238.611C36.0436 238.924 36.431 239.331 36.6719 239.832C36.9193 240.333 37.043 240.87 37.043 241.443C37.043 242.355 36.8444 243.123 36.4473 243.748C36.0501 244.366 35.4674 244.832 34.6992 245.144C33.9375 245.457 33.0065 245.613 31.9062 245.613ZM45.0215 233.826L41.1543 245.613H38.0391L43.3223 231.394H45.3047L45.0215 233.826ZM48.2344 245.613L44.3574 233.826L44.0449 231.394H46.0469L51.3594 245.613H48.2344ZM48.0586 240.32V242.615H40.5488V240.32H48.0586ZM64.25 231.394V245.613H61.3203L55.6074 236.082V245.613H52.6777V231.394H55.6074L61.3301 240.935V231.394H64.25ZM69.7285 231.394V245.613H66.7988V231.394H69.7285ZM78.2441 231.394L72.6094 238.416L69.3574 241.912L68.8301 239.139L71.0273 236.131L74.6504 231.394H78.2441ZM74.9141 245.613L70.7246 239.041L72.8926 237.224L78.3809 245.613H74.9141ZM90.2754 233.826L86.4082 245.613H83.293L88.5762 231.394H90.5586L90.2754 233.826ZM93.4883 245.613L89.6113 233.826L89.2988 231.394H91.3008L96.6133 245.613H93.4883ZM93.3125 240.32V242.615H85.8027V240.32H93.3125ZM105.998 240.896H108.918C108.859 241.853 108.596 242.703 108.127 243.445C107.665 244.187 107.017 244.767 106.184 245.183C105.357 245.6 104.361 245.808 103.195 245.808C102.284 245.808 101.467 245.652 100.744 245.34C100.021 245.021 99.403 244.565 98.8887 243.973C98.3809 243.38 97.9935 242.664 97.7266 241.824C97.4596 240.984 97.3262 240.043 97.3262 239.002V238.016C97.3262 236.974 97.4629 236.033 97.7363 235.193C98.0163 234.347 98.4134 233.627 98.9277 233.035C99.4486 232.443 100.07 231.987 100.793 231.668C101.516 231.349 102.323 231.189 103.215 231.189C104.4 231.189 105.399 231.404 106.213 231.834C107.033 232.264 107.668 232.856 108.117 233.611C108.573 234.366 108.846 235.226 108.938 236.189H106.008C105.975 235.616 105.861 235.131 105.666 234.734C105.471 234.331 105.174 234.028 104.777 233.826C104.387 233.618 103.866 233.514 103.215 233.514C102.727 233.514 102.3 233.605 101.936 233.787C101.571 233.969 101.265 234.246 101.018 234.617C100.77 234.988 100.585 235.457 100.461 236.023C100.344 236.583 100.285 237.241 100.285 237.996V239.002C100.285 239.738 100.34 240.385 100.451 240.945C100.562 241.499 100.731 241.967 100.959 242.351C101.193 242.729 101.493 243.016 101.857 243.211C102.229 243.4 102.674 243.494 103.195 243.494C103.807 243.494 104.312 243.396 104.709 243.201C105.106 243.006 105.409 242.716 105.617 242.332C105.832 241.948 105.959 241.469 105.998 240.896ZM119.084 240.896H122.004C121.945 241.853 121.682 242.703 121.213 243.445C120.751 244.187 120.103 244.767 119.27 245.183C118.443 245.6 117.447 245.808 116.281 245.808C115.37 245.808 114.553 245.652 113.83 245.34C113.107 245.021 112.489 244.565 111.975 243.973C111.467 243.38 111.079 242.664 110.812 241.824C110.546 240.984 110.412 240.043 110.412 239.002V238.016C110.412 236.974 110.549 236.033 110.822 235.193C111.102 234.347 111.499 233.627 112.014 233.035C112.535 232.443 113.156 231.987 113.879 231.668C114.602 231.349 115.409 231.189 116.301 231.189C117.486 231.189 118.485 231.404 119.299 231.834C120.119 232.264 120.754 232.856 121.203 233.611C121.659 234.366 121.932 235.226 122.023 236.189H119.094C119.061 235.616 118.947 235.131 118.752 234.734C118.557 234.331 118.26 234.028 117.863 233.826C117.473 233.618 116.952 233.514 116.301 233.514C115.812 233.514 115.386 233.605 115.021 233.787C114.657 233.969 114.351 234.246 114.104 234.617C113.856 234.988 113.671 235.457 113.547 236.023C113.43 236.583 113.371 237.241 113.371 237.996V239.002C113.371 239.738 113.426 240.385 113.537 240.945C113.648 241.499 113.817 241.967 114.045 242.351C114.279 242.729 114.579 243.016 114.943 243.211C115.314 243.4 115.76 243.494 116.281 243.494C116.893 243.494 117.398 243.396 117.795 243.201C118.192 243.006 118.495 242.716 118.703 242.332C118.918 241.948 119.045 241.469 119.084 240.896ZM135.607 238.172V238.846C135.607 239.926 135.461 240.896 135.168 241.756C134.875 242.615 134.462 243.348 133.928 243.953C133.394 244.552 132.756 245.011 132.014 245.33C131.278 245.649 130.461 245.808 129.562 245.808C128.671 245.808 127.854 245.649 127.111 245.33C126.376 245.011 125.738 244.552 125.197 243.953C124.657 243.348 124.237 242.615 123.938 241.756C123.645 240.896 123.498 239.926 123.498 238.846V238.172C123.498 237.085 123.645 236.114 123.938 235.262C124.23 234.402 124.644 233.67 125.178 233.064C125.718 232.459 126.356 231.997 127.092 231.678C127.834 231.359 128.651 231.199 129.543 231.199C130.441 231.199 131.258 231.359 131.994 231.678C132.736 231.997 133.374 232.459 133.908 233.064C134.449 233.67 134.865 234.402 135.158 235.262C135.458 236.114 135.607 237.085 135.607 238.172ZM132.648 238.846V238.152C132.648 237.397 132.58 236.733 132.443 236.16C132.307 235.587 132.105 235.105 131.838 234.715C131.571 234.324 131.245 234.031 130.861 233.836C130.477 233.634 130.038 233.533 129.543 233.533C129.048 233.533 128.609 233.634 128.225 233.836C127.847 234.031 127.525 234.324 127.258 234.715C126.997 235.105 126.799 235.587 126.662 236.16C126.525 236.733 126.457 237.397 126.457 238.152V238.846C126.457 239.594 126.525 240.258 126.662 240.838C126.799 241.411 127.001 241.896 127.268 242.293C127.535 242.683 127.86 242.98 128.244 243.182C128.628 243.383 129.068 243.484 129.562 243.484C130.057 243.484 130.497 243.383 130.881 243.182C131.265 242.98 131.587 242.683 131.848 242.293C132.108 241.896 132.307 241.411 132.443 240.838C132.58 240.258 132.648 239.594 132.648 238.846ZM145.568 231.394H148.488V240.789C148.488 241.883 148.254 242.804 147.785 243.553C147.323 244.301 146.682 244.864 145.861 245.242C145.048 245.62 144.11 245.808 143.049 245.808C141.988 245.808 141.044 245.62 140.217 245.242C139.396 244.864 138.752 244.301 138.283 243.553C137.821 242.804 137.59 241.883 137.59 240.789V231.394H140.52V240.789C140.52 241.427 140.62 241.948 140.822 242.351C141.024 242.755 141.314 243.051 141.691 243.24C142.076 243.429 142.528 243.523 143.049 243.523C143.583 243.523 144.035 243.429 144.406 243.24C144.784 243.051 145.07 242.755 145.266 242.351C145.467 241.948 145.568 241.427 145.568 240.789V231.394ZM162.473 231.394V245.613H159.543L153.83 236.082V245.613H150.9V231.394H153.83L159.553 240.935V231.394H162.473ZM171.086 231.394V245.613H168.166V231.394H171.086ZM175.461 231.394V233.689H163.859V231.394H175.461Z" fill="#0A355C"/>
<path d="M306.627 70.8857H303.067L303.089 68.2578H306.627C307.51 68.2578 308.255 68.0594 308.862 67.6626C309.468 67.2583 309.925 66.6706 310.232 65.8994C310.546 65.1283 310.704 64.1961 310.704 63.103V62.3057C310.704 61.4671 310.614 60.7297 310.434 60.0933C310.262 59.4569 310.004 58.9215 309.659 58.4873C309.315 58.0531 308.892 57.7274 308.39 57.5103C307.889 57.2856 307.312 57.1733 306.661 57.1733H303V54.5342H306.661C307.754 54.5342 308.753 54.7214 309.659 55.0957C310.573 55.4626 311.362 55.9904 312.029 56.6792C312.695 57.368 313.208 58.1916 313.567 59.1499C313.934 60.1007 314.118 61.1602 314.118 62.3281V63.103C314.118 64.2635 313.934 65.3229 313.567 66.2812C313.208 67.2396 312.695 68.0632 312.029 68.752C311.37 69.4333 310.58 69.9611 309.659 70.3354C308.746 70.7023 307.735 70.8857 306.627 70.8857ZM304.976 54.5342V70.8857H301.607V54.5342H304.976ZM321.957 71.1104C321.013 71.1104 320.167 70.9606 319.418 70.6611C318.67 70.3542 318.033 69.9312 317.509 69.3921C316.993 68.853 316.596 68.2279 316.319 67.5166C316.042 66.7979 315.903 66.0342 315.903 65.2256V64.7764C315.903 63.8555 316.034 63.0132 316.296 62.2495C316.558 61.4858 316.933 60.8232 317.419 60.2617C317.914 59.7002 318.513 59.2697 319.216 58.9702C319.92 58.6632 320.714 58.5098 321.597 58.5098C322.458 58.5098 323.222 58.652 323.888 58.9365C324.555 59.221 325.112 59.6253 325.562 60.1494C326.018 60.6735 326.363 61.3024 326.595 62.0361C326.827 62.7624 326.943 63.571 326.943 64.4619V65.8096H317.285V63.6533H323.765V63.4062C323.765 62.957 323.682 62.5565 323.518 62.2046C323.36 61.8452 323.121 61.5607 322.799 61.3511C322.477 61.1414 322.065 61.0366 321.563 61.0366C321.137 61.0366 320.77 61.1302 320.463 61.3174C320.156 61.5046 319.905 61.7666 319.71 62.1035C319.523 62.4404 319.381 62.8372 319.284 63.2939C319.194 63.7432 319.149 64.2373 319.149 64.7764V65.2256C319.149 65.7122 319.216 66.1615 319.351 66.5732C319.493 66.985 319.692 67.3407 319.946 67.6401C320.208 67.9396 320.523 68.1717 320.89 68.3364C321.264 68.5011 321.687 68.5835 322.159 68.5835C322.743 68.5835 323.285 68.4712 323.787 68.2466C324.296 68.0145 324.734 67.6663 325.101 67.2021L326.673 68.9092C326.419 69.276 326.071 69.6279 325.629 69.9648C325.195 70.3018 324.671 70.5788 324.057 70.7959C323.443 71.0055 322.743 71.1104 321.957 71.1104ZM332.019 61.0703V75.5576H328.785V58.7344H331.783L332.019 61.0703ZM339.712 64.6753V64.9111C339.712 65.7946 339.607 66.6144 339.397 67.3706C339.195 68.1268 338.896 68.7856 338.499 69.3472C338.102 69.9012 337.608 70.3354 337.017 70.6499C336.433 70.9569 335.759 71.1104 334.995 71.1104C334.254 71.1104 333.61 70.9606 333.063 70.6611C332.517 70.3617 332.056 69.9424 331.682 69.4033C331.315 68.8568 331.02 68.2241 330.795 67.5054C330.57 66.7866 330.398 66.0155 330.278 65.1919V64.5742C330.398 63.6908 330.57 62.8822 330.795 62.1484C331.02 61.4072 331.315 60.7671 331.682 60.228C332.056 59.6815 332.513 59.2585 333.052 58.959C333.599 58.6595 334.239 58.5098 334.973 58.5098C335.744 58.5098 336.421 58.6558 337.005 58.9478C337.597 59.2397 338.091 59.659 338.488 60.2056C338.892 60.7521 339.195 61.4035 339.397 62.1597C339.607 62.9159 339.712 63.7544 339.712 64.6753ZM336.466 64.9111V64.6753C336.466 64.1587 336.421 63.6833 336.332 63.249C336.249 62.8073 336.114 62.4217 335.927 62.0923C335.748 61.7629 335.508 61.5083 335.208 61.3286C334.917 61.1414 334.561 61.0479 334.142 61.0479C333.7 61.0479 333.322 61.119 333.007 61.2612C332.7 61.4035 332.45 61.6094 332.255 61.8789C332.06 62.1484 331.914 62.4704 331.817 62.8447C331.72 63.2191 331.66 63.6421 331.637 64.1138V65.6748C331.675 66.2288 331.779 66.7267 331.952 67.1685C332.124 67.6027 332.39 67.9471 332.749 68.2017C333.108 68.4562 333.58 68.5835 334.164 68.5835C334.591 68.5835 334.95 68.4899 335.242 68.3027C335.534 68.1081 335.77 67.8423 335.95 67.5054C336.137 67.1685 336.268 66.7791 336.343 66.3374C336.425 65.8957 336.466 65.4202 336.466 64.9111ZM341.206 64.9336V64.6978C341.206 63.8068 341.333 62.987 341.587 62.2383C341.842 61.4821 342.213 60.827 342.699 60.2729C343.186 59.7189 343.785 59.2884 344.496 58.9814C345.207 58.667 346.023 58.5098 346.944 58.5098C347.865 58.5098 348.685 58.667 349.404 58.9814C350.123 59.2884 350.725 59.7189 351.212 60.2729C351.706 60.827 352.08 61.4821 352.335 62.2383C352.59 62.987 352.717 63.8068 352.717 64.6978V64.9336C352.717 65.8171 352.59 66.6369 352.335 67.3931C352.08 68.1418 351.706 68.7969 351.212 69.3584C350.725 69.9124 350.126 70.3429 349.415 70.6499C348.704 70.9569 347.888 71.1104 346.967 71.1104C346.046 71.1104 345.226 70.9569 344.507 70.6499C343.796 70.3429 343.193 69.9124 342.699 69.3584C342.213 68.7969 341.842 68.1418 341.587 67.3931C341.333 66.6369 341.206 65.8171 341.206 64.9336ZM344.44 64.6978V64.9336C344.44 65.4427 344.485 65.9181 344.575 66.3599C344.665 66.8016 344.807 67.1909 345.001 67.5278C345.204 67.8573 345.466 68.1156 345.788 68.3027C346.11 68.4899 346.503 68.5835 346.967 68.5835C347.416 68.5835 347.802 68.4899 348.124 68.3027C348.445 68.1156 348.704 67.8573 348.898 67.5278C349.093 67.1909 349.235 66.8016 349.325 66.3599C349.423 65.9181 349.471 65.4427 349.471 64.9336V64.6978C349.471 64.2036 349.423 63.7394 349.325 63.3052C349.235 62.8634 349.089 62.4741 348.887 62.1372C348.693 61.7928 348.434 61.5233 348.112 61.3286C347.79 61.134 347.401 61.0366 346.944 61.0366C346.488 61.0366 346.098 61.134 345.776 61.3286C345.462 61.5233 345.204 61.7928 345.001 62.1372C344.807 62.4741 344.665 62.8634 344.575 63.3052C344.485 63.7394 344.44 64.2036 344.44 64.6978ZM361.274 67.5278C361.274 67.2957 361.207 67.0861 361.072 66.8989C360.938 66.7118 360.687 66.5396 360.32 66.3823C359.96 66.2176 359.44 66.0679 358.759 65.9331C358.145 65.7983 357.572 65.6299 357.041 65.4277C356.516 65.2181 356.06 64.9673 355.67 64.6753C355.289 64.3833 354.989 64.0389 354.772 63.6421C354.555 63.2378 354.446 62.7773 354.446 62.2607C354.446 61.7516 354.555 61.2725 354.772 60.8232C354.997 60.374 355.315 59.9772 355.727 59.6328C356.146 59.2809 356.655 59.0076 357.254 58.813C357.86 58.6108 358.542 58.5098 359.298 58.5098C360.354 58.5098 361.259 58.6782 362.016 59.0151C362.779 59.3521 363.363 59.8162 363.768 60.4077C364.179 60.9917 364.385 61.658 364.385 62.4067H361.151C361.151 62.0923 361.083 61.8115 360.949 61.5645C360.821 61.3099 360.619 61.1115 360.342 60.9692C360.073 60.8195 359.721 60.7446 359.287 60.7446C358.927 60.7446 358.617 60.8083 358.354 60.9355C358.092 61.0553 357.89 61.2201 357.748 61.4297C357.613 61.6318 357.546 61.8564 357.546 62.1035C357.546 62.2907 357.583 62.4591 357.658 62.6089C357.741 62.7511 357.872 62.8822 358.051 63.002C358.231 63.1217 358.463 63.234 358.748 63.3389C359.04 63.4362 359.399 63.526 359.826 63.6084C360.702 63.7881 361.484 64.0239 362.173 64.3159C362.862 64.6004 363.408 64.9897 363.812 65.4839C364.217 65.9705 364.419 66.6107 364.419 67.4043C364.419 67.9434 364.299 68.4375 364.06 68.8867C363.82 69.3359 363.476 69.729 363.026 70.0659C362.577 70.3953 362.038 70.6536 361.409 70.8408C360.788 71.0205 360.088 71.1104 359.309 71.1104C358.179 71.1104 357.22 70.9082 356.434 70.5039C355.655 70.0996 355.064 69.5868 354.66 68.9653C354.263 68.3364 354.064 67.6925 354.064 67.0337H357.13C357.145 67.4754 357.258 67.8311 357.467 68.1006C357.684 68.3701 357.958 68.5648 358.287 68.6846C358.624 68.8044 358.987 68.8643 359.376 68.8643C359.796 68.8643 360.144 68.8081 360.421 68.6958C360.698 68.576 360.908 68.4188 361.05 68.2241C361.2 68.022 361.274 67.7899 361.274 67.5278ZM369.933 58.7344V70.8857H366.688V58.7344H369.933ZM366.485 55.5674C366.485 55.0957 366.65 54.7064 366.979 54.3994C367.309 54.0924 367.751 53.939 368.305 53.939C368.851 53.939 369.289 54.0924 369.619 54.3994C369.956 54.7064 370.124 55.0957 370.124 55.5674C370.124 56.0391 369.956 56.4284 369.619 56.7354C369.289 57.0423 368.851 57.1958 368.305 57.1958C367.751 57.1958 367.309 57.0423 366.979 56.7354C366.65 56.4284 366.485 56.0391 366.485 55.5674ZM378.558 58.7344V61.0254H371.483V58.7344H378.558ZM373.235 55.7358H376.469V67.2246C376.469 67.5765 376.514 67.846 376.604 68.0332C376.701 68.2204 376.844 68.3514 377.031 68.4263C377.218 68.4937 377.454 68.5273 377.738 68.5273C377.94 68.5273 378.12 68.5199 378.277 68.5049C378.442 68.4824 378.581 68.46 378.693 68.4375L378.704 70.8184C378.427 70.9082 378.128 70.9793 377.806 71.0317C377.484 71.0841 377.128 71.1104 376.739 71.1104C376.028 71.1104 375.406 70.9943 374.875 70.7622C374.35 70.5226 373.946 70.1408 373.662 69.6167C373.377 69.0926 373.235 68.4038 373.235 67.5503V55.7358ZM306.223 95.1455V89.7324C306.223 89.3431 306.159 89.0099 306.032 88.7329C305.904 88.4484 305.706 88.2275 305.437 88.0703C305.174 87.9131 304.834 87.8345 304.415 87.8345C304.055 87.8345 303.744 87.8981 303.482 88.0254C303.22 88.1452 303.018 88.3211 302.876 88.5532C302.734 88.7778 302.663 89.0436 302.663 89.3506H299.428C299.428 88.834 299.548 88.3436 299.788 87.8794C300.027 87.4152 300.375 87.0072 300.832 86.6553C301.289 86.2959 301.832 86.0151 302.46 85.813C303.097 85.6108 303.808 85.5098 304.594 85.5098C305.538 85.5098 306.376 85.667 307.11 85.9814C307.844 86.2959 308.42 86.7676 308.839 87.3965C309.266 88.0254 309.479 88.8115 309.479 89.7549V94.9546C309.479 95.6209 309.521 96.1675 309.603 96.5942C309.685 97.0135 309.805 97.3804 309.962 97.6948V97.8857H306.694C306.537 97.5563 306.417 97.1445 306.335 96.6504C306.26 96.1488 306.223 95.6471 306.223 95.1455ZM306.649 90.4849L306.672 92.3154H304.864C304.437 92.3154 304.066 92.3641 303.752 92.4614C303.438 92.5588 303.179 92.6973 302.977 92.877C302.775 93.0492 302.625 93.2513 302.528 93.4834C302.438 93.7155 302.393 93.9701 302.393 94.2471C302.393 94.5241 302.457 94.7749 302.584 94.9995C302.711 95.2166 302.895 95.3888 303.134 95.5161C303.374 95.6359 303.655 95.6958 303.977 95.6958C304.463 95.6958 304.886 95.5985 305.246 95.4038C305.605 95.2091 305.882 94.9696 306.077 94.6851C306.279 94.4006 306.384 94.131 306.391 93.8765L307.245 95.2466C307.125 95.5535 306.96 95.8717 306.75 96.2012C306.548 96.5306 306.29 96.8413 305.976 97.1333C305.661 97.4178 305.283 97.6536 304.841 97.8408C304.4 98.0205 303.875 98.1104 303.269 98.1104C302.498 98.1104 301.798 97.9569 301.169 97.6499C300.548 97.3354 300.053 96.9049 299.687 96.3584C299.327 95.8044 299.147 95.1755 299.147 94.4717C299.147 93.8353 299.267 93.27 299.507 92.7759C299.746 92.2817 300.098 91.8662 300.562 91.5293C301.034 91.1849 301.622 90.9266 302.326 90.7544C303.029 90.5747 303.846 90.4849 304.774 90.4849H306.649ZM319.149 95.2354V80.6357H322.406V97.8857H319.475L319.149 95.2354ZM311.467 91.9561V91.7202C311.467 90.7918 311.572 89.9495 311.782 89.1934C311.991 88.4297 312.298 87.7746 312.703 87.228C313.107 86.6815 313.605 86.2585 314.196 85.959C314.788 85.6595 315.462 85.5098 316.218 85.5098C316.929 85.5098 317.55 85.6595 318.082 85.959C318.621 86.2585 319.078 86.6852 319.452 87.2393C319.834 87.7858 320.141 88.4334 320.373 89.1821C320.605 89.9233 320.774 90.7357 320.878 91.6191V92.1357C320.774 92.9818 320.605 93.7679 320.373 94.4941C320.141 95.2204 319.834 95.8568 319.452 96.4033C319.078 96.9424 318.621 97.3617 318.082 97.6611C317.543 97.9606 316.914 98.1104 316.195 98.1104C315.439 98.1104 314.765 97.9569 314.174 97.6499C313.59 97.3429 313.096 96.9124 312.691 96.3584C312.295 95.8044 311.991 95.153 311.782 94.4043C311.572 93.6556 311.467 92.8395 311.467 91.9561ZM314.702 91.7202V91.9561C314.702 92.4577 314.739 92.9256 314.814 93.3599C314.896 93.7941 315.027 94.1797 315.207 94.5166C315.394 94.846 315.634 95.1043 315.926 95.2915C316.225 95.4712 316.588 95.561 317.015 95.561C317.569 95.561 318.026 95.4375 318.385 95.1904C318.745 94.9359 319.018 94.5877 319.205 94.146C319.4 93.7043 319.512 93.1951 319.542 92.6187V91.1475C319.52 90.6758 319.452 90.2528 319.34 89.8784C319.235 89.4966 319.078 89.1709 318.868 88.9014C318.666 88.6318 318.411 88.4222 318.104 88.2725C317.805 88.1227 317.449 88.0479 317.038 88.0479C316.618 88.0479 316.259 88.1452 315.959 88.3398C315.66 88.527 315.417 88.7853 315.229 89.1147C315.05 89.4442 314.915 89.8335 314.825 90.2827C314.743 90.7244 314.702 91.2036 314.702 91.7202ZM332.109 95.2354V80.6357H335.366V97.8857H332.435L332.109 95.2354ZM324.427 91.9561V91.7202C324.427 90.7918 324.532 89.9495 324.742 89.1934C324.951 88.4297 325.258 87.7746 325.663 87.228C326.067 86.6815 326.565 86.2585 327.156 85.959C327.748 85.6595 328.422 85.5098 329.178 85.5098C329.889 85.5098 330.51 85.6595 331.042 85.959C331.581 86.2585 332.038 86.6852 332.412 87.2393C332.794 87.7858 333.101 88.4334 333.333 89.1821C333.565 89.9233 333.734 90.7357 333.838 91.6191V92.1357C333.734 92.9818 333.565 93.7679 333.333 94.4941C333.101 95.2204 332.794 95.8568 332.412 96.4033C332.038 96.9424 331.581 97.3617 331.042 97.6611C330.503 97.9606 329.874 98.1104 329.155 98.1104C328.399 98.1104 327.725 97.9569 327.134 97.6499C326.55 97.3429 326.056 96.9124 325.651 96.3584C325.255 95.8044 324.951 95.153 324.742 94.4043C324.532 93.6556 324.427 92.8395 324.427 91.9561ZM327.662 91.7202V91.9561C327.662 92.4577 327.699 92.9256 327.774 93.3599C327.856 93.7941 327.987 94.1797 328.167 94.5166C328.354 94.846 328.594 95.1043 328.886 95.2915C329.185 95.4712 329.548 95.561 329.975 95.561C330.529 95.561 330.986 95.4375 331.345 95.1904C331.705 94.9359 331.978 94.5877 332.165 94.146C332.36 93.7043 332.472 93.1951 332.502 92.6187V91.1475C332.479 90.6758 332.412 90.2528 332.3 89.8784C332.195 89.4966 332.038 89.1709 331.828 88.9014C331.626 88.6318 331.371 88.4222 331.064 88.2725C330.765 88.1227 330.409 88.0479 329.998 88.0479C329.578 88.0479 329.219 88.1452 328.919 88.3398C328.62 88.527 328.377 88.7853 328.189 89.1147C328.01 89.4442 327.875 89.8335 327.785 90.2827C327.703 90.7244 327.662 91.2036 327.662 91.7202ZM341.127 88.3848V97.8857H337.893V85.7344H340.936L341.127 88.3848ZM344.788 85.6558L344.732 88.6543C344.575 88.6318 344.384 88.6131 344.159 88.5981C343.942 88.5757 343.744 88.5645 343.564 88.5645C343.107 88.5645 342.71 88.6243 342.374 88.7441C342.044 88.8564 341.767 89.0249 341.542 89.2495C341.325 89.4741 341.161 89.7474 341.048 90.0693C340.944 90.3913 340.884 90.7581 340.869 91.1699L340.217 90.9678C340.217 90.1816 340.296 89.4591 340.453 88.8003C340.61 88.134 340.839 87.5537 341.138 87.0596C341.445 86.5654 341.819 86.1836 342.261 85.9141C342.703 85.6445 343.208 85.5098 343.777 85.5098C343.957 85.5098 344.14 85.5247 344.328 85.5547C344.515 85.5771 344.668 85.6108 344.788 85.6558ZM351.684 98.1104C350.74 98.1104 349.894 97.9606 349.146 97.6611C348.397 97.3542 347.76 96.9312 347.236 96.3921C346.72 95.853 346.323 95.2279 346.046 94.5166C345.769 93.7979 345.63 93.0342 345.63 92.2256V91.7764C345.63 90.8555 345.761 90.0132 346.023 89.2495C346.285 88.4858 346.66 87.8232 347.146 87.2617C347.641 86.7002 348.24 86.2697 348.943 85.9702C349.647 85.6632 350.441 85.5098 351.324 85.5098C352.185 85.5098 352.949 85.652 353.615 85.9365C354.282 86.221 354.839 86.6253 355.289 87.1494C355.745 87.6735 356.09 88.3024 356.322 89.0361C356.554 89.7624 356.67 90.571 356.67 91.4619V92.8096H347.012V90.6533H353.492V90.4062C353.492 89.957 353.409 89.5565 353.245 89.2046C353.087 88.8452 352.848 88.5607 352.526 88.3511C352.204 88.1414 351.792 88.0366 351.291 88.0366C350.864 88.0366 350.497 88.1302 350.19 88.3174C349.883 88.5046 349.632 88.7666 349.438 89.1035C349.25 89.4404 349.108 89.8372 349.011 90.2939C348.921 90.7432 348.876 91.2373 348.876 91.7764V92.2256C348.876 92.7122 348.943 93.1615 349.078 93.5732C349.22 93.985 349.419 94.3407 349.673 94.6401C349.935 94.9396 350.25 95.1717 350.617 95.3364C350.991 95.5011 351.414 95.5835 351.886 95.5835C352.47 95.5835 353.013 95.4712 353.514 95.2466C354.023 95.0145 354.461 94.6663 354.828 94.2021L356.4 95.9092C356.146 96.276 355.798 96.6279 355.356 96.9648C354.922 97.3018 354.398 97.5788 353.784 97.7959C353.17 98.0055 352.47 98.1104 351.684 98.1104ZM365.082 94.5278C365.082 94.2957 365.014 94.0861 364.879 93.8989C364.745 93.7118 364.494 93.5396 364.127 93.3823C363.768 93.2176 363.247 93.0679 362.566 92.9331C361.952 92.7983 361.379 92.6299 360.848 92.4277C360.324 92.2181 359.867 91.9673 359.478 91.6753C359.096 91.3833 358.796 91.0389 358.579 90.6421C358.362 90.2378 358.253 89.7773 358.253 89.2607C358.253 88.7516 358.362 88.2725 358.579 87.8232C358.804 87.374 359.122 86.9772 359.534 86.6328C359.953 86.2809 360.462 86.0076 361.061 85.813C361.667 85.6108 362.349 85.5098 363.105 85.5098C364.161 85.5098 365.067 85.6782 365.823 86.0151C366.586 86.3521 367.17 86.8162 367.575 87.4077C367.986 87.9917 368.192 88.658 368.192 89.4067H364.958C364.958 89.0923 364.891 88.8115 364.756 88.5645C364.629 88.3099 364.426 88.1115 364.149 87.9692C363.88 87.8195 363.528 87.7446 363.094 87.7446C362.734 87.7446 362.424 87.8083 362.162 87.9355C361.9 88.0553 361.697 88.2201 361.555 88.4297C361.42 88.6318 361.353 88.8564 361.353 89.1035C361.353 89.2907 361.39 89.4591 361.465 89.6089C361.548 89.7511 361.679 89.8822 361.858 90.002C362.038 90.1217 362.27 90.234 362.555 90.3389C362.847 90.4362 363.206 90.526 363.633 90.6084C364.509 90.7881 365.291 91.0239 365.98 91.3159C366.669 91.6004 367.215 91.9897 367.62 92.4839C368.024 92.9705 368.226 93.6107 368.226 94.4043C368.226 94.9434 368.106 95.4375 367.867 95.8867C367.627 96.3359 367.283 96.729 366.833 97.0659C366.384 97.3953 365.845 97.6536 365.216 97.8408C364.595 98.0205 363.895 98.1104 363.116 98.1104C361.986 98.1104 361.027 97.9082 360.241 97.5039C359.463 97.0996 358.871 96.5868 358.467 95.9653C358.07 95.3364 357.872 94.6925 357.872 94.0337H360.938C360.952 94.4754 361.065 94.8311 361.274 95.1006C361.492 95.3701 361.765 95.5648 362.094 95.6846C362.431 95.8044 362.794 95.8643 363.184 95.8643C363.603 95.8643 363.951 95.8081 364.228 95.6958C364.505 95.576 364.715 95.4188 364.857 95.2241C365.007 95.022 365.082 94.7899 365.082 94.5278ZM376.896 94.5278C376.896 94.2957 376.829 94.0861 376.694 93.8989C376.559 93.7118 376.308 93.5396 375.941 93.3823C375.582 93.2176 375.062 93.0679 374.38 92.9331C373.766 92.7983 373.194 92.6299 372.662 92.4277C372.138 92.2181 371.681 91.9673 371.292 91.6753C370.91 91.3833 370.611 91.0389 370.394 90.6421C370.176 90.2378 370.068 89.7773 370.068 89.2607C370.068 88.7516 370.176 88.2725 370.394 87.8232C370.618 87.374 370.936 86.9772 371.348 86.6328C371.767 86.2809 372.277 86.0076 372.875 85.813C373.482 85.6108 374.163 85.5098 374.919 85.5098C375.975 85.5098 376.881 85.6782 377.637 86.0151C378.401 86.3521 378.985 86.8162 379.389 87.4077C379.801 87.9917 380.007 88.658 380.007 89.4067H376.772C376.772 89.0923 376.705 88.8115 376.57 88.5645C376.443 88.3099 376.241 88.1115 375.964 87.9692C375.694 87.8195 375.342 87.7446 374.908 87.7446C374.549 87.7446 374.238 87.8083 373.976 87.9355C373.714 88.0553 373.512 88.2201 373.37 88.4297C373.235 88.6318 373.167 88.8564 373.167 89.1035C373.167 89.2907 373.205 89.4591 373.28 89.6089C373.362 89.7511 373.493 89.8822 373.673 90.002C373.853 90.1217 374.085 90.234 374.369 90.3389C374.661 90.4362 375.021 90.526 375.447 90.6084C376.323 90.7881 377.106 91.0239 377.794 91.3159C378.483 91.6004 379.03 91.9897 379.434 92.4839C379.838 92.9705 380.041 93.6107 380.041 94.4043C380.041 94.9434 379.921 95.4375 379.681 95.8867C379.442 96.3359 379.097 96.729 378.648 97.0659C378.199 97.3953 377.66 97.6536 377.031 97.8408C376.409 98.0205 375.709 98.1104 374.931 98.1104C373.8 98.1104 372.842 97.9082 372.056 97.5039C371.277 97.0996 370.686 96.5868 370.281 95.9653C369.884 95.3364 369.686 94.6925 369.686 94.0337H372.752C372.767 94.4754 372.879 94.8311 373.089 95.1006C373.306 95.3701 373.579 95.5648 373.909 95.6846C374.246 95.8044 374.609 95.8643 374.998 95.8643C375.417 95.8643 375.765 95.8081 376.042 95.6958C376.319 95.576 376.529 95.4188 376.671 95.2241C376.821 95.022 376.896 94.7899 376.896 94.5278Z" fill="#0A355C"/>
<path d="M481.915 77.0571H477.748V74.4292H481.915C482.558 74.4292 483.083 74.3244 483.487 74.1147C483.891 73.8976 484.187 73.5981 484.374 73.2163C484.561 72.8345 484.655 72.404 484.655 71.9248C484.655 71.4382 484.561 70.9852 484.374 70.5659C484.187 70.1466 483.891 69.8097 483.487 69.5552C483.083 69.3006 482.558 69.1733 481.915 69.1733H478.916V82.8857H475.547V66.5342H481.915C483.195 66.5342 484.292 66.7663 485.205 67.2305C486.126 67.6872 486.83 68.3198 487.316 69.1284C487.803 69.937 488.046 70.8617 488.046 71.9023C488.046 72.958 487.803 73.8714 487.316 74.6426C486.83 75.4137 486.126 76.009 485.205 76.4282C484.292 76.8475 483.195 77.0571 481.915 77.0571ZM489.495 76.9336V76.6978C489.495 75.8068 489.622 74.987 489.877 74.2383C490.132 73.4821 490.502 72.827 490.989 72.2729C491.475 71.7189 492.074 71.2884 492.786 70.9814C493.497 70.667 494.313 70.5098 495.234 70.5098C496.155 70.5098 496.975 70.667 497.693 70.9814C498.412 71.2884 499.015 71.7189 499.501 72.2729C499.996 72.827 500.37 73.4821 500.625 74.2383C500.879 74.987 501.006 75.8068 501.006 76.6978V76.9336C501.006 77.8171 500.879 78.6369 500.625 79.3931C500.37 80.1418 499.996 80.7969 499.501 81.3584C499.015 81.9124 498.416 82.3429 497.705 82.6499C496.993 82.9569 496.177 83.1104 495.256 83.1104C494.335 83.1104 493.516 82.9569 492.797 82.6499C492.086 82.3429 491.483 81.9124 490.989 81.3584C490.502 80.7969 490.132 80.1418 489.877 79.3931C489.622 78.6369 489.495 77.8171 489.495 76.9336ZM492.729 76.6978V76.9336C492.729 77.4427 492.774 77.9181 492.864 78.3599C492.954 78.8016 493.096 79.1909 493.291 79.5278C493.493 79.8573 493.755 80.1156 494.077 80.3027C494.399 80.4899 494.792 80.5835 495.256 80.5835C495.706 80.5835 496.091 80.4899 496.413 80.3027C496.735 80.1156 496.993 79.8573 497.188 79.5278C497.383 79.1909 497.525 78.8016 497.615 78.3599C497.712 77.9181 497.761 77.4427 497.761 76.9336V76.6978C497.761 76.2036 497.712 75.7394 497.615 75.3052C497.525 74.8634 497.379 74.4741 497.177 74.1372C496.982 73.7928 496.724 73.5233 496.402 73.3286C496.08 73.134 495.691 73.0366 495.234 73.0366C494.777 73.0366 494.388 73.134 494.066 73.3286C493.751 73.5233 493.493 73.7928 493.291 74.1372C493.096 74.4741 492.954 74.8634 492.864 75.3052C492.774 75.7394 492.729 76.2036 492.729 76.6978ZM502.478 76.9336V76.6978C502.478 75.8068 502.605 74.987 502.859 74.2383C503.114 73.4821 503.485 72.827 503.971 72.2729C504.458 71.7189 505.057 71.2884 505.768 70.9814C506.479 70.667 507.295 70.5098 508.216 70.5098C509.137 70.5098 509.957 70.667 510.676 70.9814C511.395 71.2884 511.997 71.7189 512.484 72.2729C512.978 72.827 513.352 73.4821 513.607 74.2383C513.861 74.987 513.989 75.8068 513.989 76.6978V76.9336C513.989 77.8171 513.861 78.6369 513.607 79.3931C513.352 80.1418 512.978 80.7969 512.484 81.3584C511.997 81.9124 511.398 82.3429 510.687 82.6499C509.976 82.9569 509.16 83.1104 508.239 83.1104C507.318 83.1104 506.498 82.9569 505.779 82.6499C505.068 82.3429 504.465 81.9124 503.971 81.3584C503.485 80.7969 503.114 80.1418 502.859 79.3931C502.605 78.6369 502.478 77.8171 502.478 76.9336ZM505.712 76.6978V76.9336C505.712 77.4427 505.757 77.9181 505.847 78.3599C505.937 78.8016 506.079 79.1909 506.273 79.5278C506.476 79.8573 506.738 80.1156 507.06 80.3027C507.382 80.4899 507.775 80.5835 508.239 80.5835C508.688 80.5835 509.074 80.4899 509.396 80.3027C509.717 80.1156 509.976 79.8573 510.17 79.5278C510.365 79.1909 510.507 78.8016 510.597 78.3599C510.694 77.9181 510.743 77.4427 510.743 76.9336V76.6978C510.743 76.2036 510.694 75.7394 510.597 75.3052C510.507 74.8634 510.361 74.4741 510.159 74.1372C509.965 73.7928 509.706 73.5233 509.384 73.3286C509.062 73.134 508.673 73.0366 508.216 73.0366C507.76 73.0366 507.37 73.134 507.048 73.3286C506.734 73.5233 506.476 73.7928 506.273 74.1372C506.079 74.4741 505.937 74.8634 505.847 75.3052C505.757 75.7394 505.712 76.2036 505.712 76.6978ZM519.391 65.6357V82.8857H516.145V65.6357H519.391Z" fill="#65728A"/>
<path d="M54.209 358.963H57.1289C57.0703 359.92 56.8066 360.77 56.3379 361.512C55.8757 362.254 55.2279 362.833 54.3945 363.25C53.5677 363.667 52.5716 363.875 51.4062 363.875C50.4948 363.875 49.6777 363.719 48.9551 363.406C48.2324 363.087 47.6139 362.632 47.0996 362.039C46.5918 361.447 46.2044 360.73 45.9375 359.891C45.6706 359.051 45.5371 358.11 45.5371 357.068V356.082C45.5371 355.04 45.6738 354.1 45.9473 353.26C46.2272 352.413 46.6243 351.694 47.1387 351.102C47.6595 350.509 48.2812 350.053 49.0039 349.734C49.7266 349.415 50.5339 349.256 51.4258 349.256C52.6107 349.256 53.61 349.471 54.4238 349.9C55.2441 350.33 55.8789 350.923 56.3281 351.678C56.7839 352.433 57.0573 353.292 57.1484 354.256H54.2188C54.1862 353.683 54.0723 353.198 53.877 352.801C53.6816 352.397 53.3854 352.094 52.9883 351.893C52.5977 351.684 52.0768 351.58 51.4258 351.58C50.9375 351.58 50.5111 351.671 50.1465 351.854C49.7819 352.036 49.4759 352.312 49.2285 352.684C48.9811 353.055 48.7956 353.523 48.6719 354.09C48.5547 354.65 48.4961 355.307 48.4961 356.062V357.068C48.4961 357.804 48.5514 358.452 48.6621 359.012C48.7728 359.565 48.9421 360.034 49.1699 360.418C49.4043 360.796 49.7038 361.082 50.0684 361.277C50.4395 361.466 50.8854 361.561 51.4062 361.561C52.0182 361.561 52.5228 361.463 52.9199 361.268C53.3171 361.072 53.6198 360.783 53.8281 360.398C54.043 360.014 54.1699 359.536 54.209 358.963ZM70.7324 356.238V356.912C70.7324 357.993 70.5859 358.963 70.293 359.822C70 360.682 69.5866 361.414 69.0527 362.02C68.5189 362.618 67.8809 363.077 67.1387 363.396C66.403 363.715 65.5859 363.875 64.6875 363.875C63.7956 363.875 62.9785 363.715 62.2363 363.396C61.5007 363.077 60.8626 362.618 60.3223 362.02C59.7819 361.414 59.362 360.682 59.0625 359.822C58.7695 358.963 58.623 357.993 58.623 356.912V356.238C58.623 355.151 58.7695 354.181 59.0625 353.328C59.3555 352.469 59.7689 351.736 60.3027 351.131C60.8431 350.525 61.4811 350.063 62.2168 349.744C62.959 349.425 63.776 349.266 64.668 349.266C65.5664 349.266 66.3835 349.425 67.1191 349.744C67.8613 350.063 68.4993 350.525 69.0332 351.131C69.5736 351.736 69.9902 352.469 70.2832 353.328C70.5827 354.181 70.7324 355.151 70.7324 356.238ZM67.7734 356.912V356.219C67.7734 355.464 67.7051 354.799 67.5684 354.227C67.4316 353.654 67.2298 353.172 66.9629 352.781C66.696 352.391 66.3704 352.098 65.9863 351.902C65.6022 351.701 65.1628 351.6 64.668 351.6C64.1732 351.6 63.7337 351.701 63.3496 351.902C62.972 352.098 62.6497 352.391 62.3828 352.781C62.1224 353.172 61.9238 353.654 61.7871 354.227C61.6504 354.799 61.582 355.464 61.582 356.219V356.912C61.582 357.661 61.6504 358.325 61.7871 358.904C61.9238 359.477 62.1257 359.962 62.3926 360.359C62.6595 360.75 62.985 361.046 63.3691 361.248C63.7533 361.45 64.1927 361.551 64.6875 361.551C65.1823 361.551 65.6217 361.45 66.0059 361.248C66.39 361.046 66.7122 360.75 66.9727 360.359C67.2331 359.962 67.4316 359.477 67.5684 358.904C67.7051 358.325 67.7734 357.661 67.7734 356.912ZM74.1797 349.461H76.6602L80.3125 359.9L83.9648 349.461H86.4453L81.3086 363.68H79.3164L74.1797 349.461ZM72.8418 349.461H75.3125L75.7617 359.637V363.68H72.8418V349.461ZM85.3125 349.461H87.793V363.68H84.8633V359.637L85.3125 349.461ZM95.8984 358.611H92.2754V356.326H95.8984C96.4583 356.326 96.9141 356.235 97.2656 356.053C97.6172 355.864 97.8743 355.604 98.0371 355.271C98.1999 354.939 98.2812 354.565 98.2812 354.148C98.2812 353.725 98.1999 353.331 98.0371 352.967C97.8743 352.602 97.6172 352.309 97.2656 352.088C96.9141 351.867 96.4583 351.756 95.8984 351.756H93.291V363.68H90.3613V349.461H95.8984C97.0117 349.461 97.9655 349.663 98.7598 350.066C99.5605 350.464 100.173 351.014 100.596 351.717C101.019 352.42 101.23 353.224 101.23 354.129C101.23 355.047 101.019 355.841 100.596 356.512C100.173 357.182 99.5605 357.7 98.7598 358.064C97.9655 358.429 97.0117 358.611 95.8984 358.611ZM114.932 356.238V356.912C114.932 357.993 114.785 358.963 114.492 359.822C114.199 360.682 113.786 361.414 113.252 362.02C112.718 362.618 112.08 363.077 111.338 363.396C110.602 363.715 109.785 363.875 108.887 363.875C107.995 363.875 107.178 363.715 106.436 363.396C105.7 363.077 105.062 362.618 104.521 362.02C103.981 361.414 103.561 360.682 103.262 359.822C102.969 358.963 102.822 357.993 102.822 356.912V356.238C102.822 355.151 102.969 354.181 103.262 353.328C103.555 352.469 103.968 351.736 104.502 351.131C105.042 350.525 105.68 350.063 106.416 349.744C107.158 349.425 107.975 349.266 108.867 349.266C109.766 349.266 110.583 349.425 111.318 349.744C112.061 350.063 112.699 350.525 113.232 351.131C113.773 351.736 114.189 352.469 114.482 353.328C114.782 354.181 114.932 355.151 114.932 356.238ZM111.973 356.912V356.219C111.973 355.464 111.904 354.799 111.768 354.227C111.631 353.654 111.429 353.172 111.162 352.781C110.895 352.391 110.57 352.098 110.186 351.902C109.801 351.701 109.362 351.6 108.867 351.6C108.372 351.6 107.933 351.701 107.549 351.902C107.171 352.098 106.849 352.391 106.582 352.781C106.322 353.172 106.123 353.654 105.986 354.227C105.85 354.799 105.781 355.464 105.781 356.219V356.912C105.781 357.661 105.85 358.325 105.986 358.904C106.123 359.477 106.325 359.962 106.592 360.359C106.859 360.75 107.184 361.046 107.568 361.248C107.952 361.45 108.392 361.551 108.887 361.551C109.382 361.551 109.821 361.45 110.205 361.248C110.589 361.046 110.911 360.75 111.172 360.359C111.432 359.962 111.631 359.477 111.768 358.904C111.904 358.325 111.973 357.661 111.973 356.912ZM124.893 349.461H127.812V358.855C127.812 359.949 127.578 360.87 127.109 361.619C126.647 362.368 126.006 362.931 125.186 363.309C124.372 363.686 123.434 363.875 122.373 363.875C121.312 363.875 120.368 363.686 119.541 363.309C118.721 362.931 118.076 362.368 117.607 361.619C117.145 360.87 116.914 359.949 116.914 358.855V349.461H119.844V358.855C119.844 359.493 119.945 360.014 120.146 360.418C120.348 360.822 120.638 361.118 121.016 361.307C121.4 361.495 121.852 361.59 122.373 361.59C122.907 361.59 123.359 361.495 123.73 361.307C124.108 361.118 124.395 360.822 124.59 360.418C124.792 360.014 124.893 359.493 124.893 358.855V349.461ZM141.797 349.461V363.68H138.867L133.154 354.148V363.68H130.225V349.461H133.154L138.877 359.002V349.461H141.797ZM148.711 363.68H145.615L145.635 361.395H148.711C149.479 361.395 150.127 361.222 150.654 360.877C151.182 360.525 151.579 360.014 151.846 359.344C152.119 358.673 152.256 357.863 152.256 356.912V356.219C152.256 355.49 152.178 354.848 152.021 354.295C151.872 353.742 151.647 353.276 151.348 352.898C151.048 352.521 150.68 352.238 150.244 352.049C149.808 351.854 149.307 351.756 148.74 351.756H145.557V349.461H148.74C149.691 349.461 150.56 349.624 151.348 349.949C152.142 350.268 152.829 350.727 153.408 351.326C153.988 351.925 154.434 352.641 154.746 353.475C155.065 354.301 155.225 355.223 155.225 356.238V356.912C155.225 357.921 155.065 358.842 154.746 359.676C154.434 360.509 153.988 361.225 153.408 361.824C152.835 362.417 152.148 362.876 151.348 363.201C150.553 363.52 149.674 363.68 148.711 363.68ZM147.275 349.461V363.68H144.346V349.461H147.275Z" fill="#0A355C"/>
<path d="M129.569 418.539C121.034 433.341 101.958 438.359 87.1485 429.829C72.3392 421.298 67.319 402.23 75.8532 387.427C84.3875 372.625 103.464 367.607 118.273 376.137C132.957 384.668 138.103 403.736 129.569 418.539Z" fill="#F5516C"/>
<path d="M102.905 382.359V399.741C101.939 398.775 101.11 397.948 100.006 396.844C99.8683 395.189 99.5923 390.498 99.5923 390.498L102.353 382.221C100.696 382.221 99.0403 382.497 97.5221 382.911L96.142 386.912L92.2777 384.98C90.8975 385.808 89.5174 386.774 88.2753 388.015L95.1759 391.464L95.452 395.603L91.3116 395.327L87.8613 388.429C86.7572 389.671 85.6531 390.912 84.825 392.43L86.7572 396.292L82.6168 397.672C82.2028 399.189 81.9268 400.845 81.9268 402.638L90.2075 400.017L96.8321 400.293L99.5923 403.052L96.8321 405.811L90.2075 406.087L81.9268 403.466C81.9268 405.121 82.2028 406.777 82.6168 408.432L86.6192 409.811L84.687 413.536C85.5151 414.916 86.4812 416.295 87.7233 417.399L91.1736 410.501L95.3139 410.225L95.0379 414.364L88.1373 417.813C89.3794 418.916 90.6215 420.02 92.1397 420.848L95.866 419.054L97.2461 423.055C98.7642 423.469 100.42 423.745 102.077 423.745L99.4543 415.605C99.4543 415.605 99.7303 410.915 99.8683 409.26C100.834 408.294 101.662 407.466 102.767 406.363V423.745C114.222 423.745 123.468 414.502 123.468 403.052C123.606 391.602 114.36 382.359 102.905 382.359ZM107.597 418.502C107.597 408.156 107.597 397.948 107.597 387.601C112.565 388.705 118.914 394.223 119.19 402.5C119.466 411.605 112.565 417.399 107.597 418.502Z" fill="#F5F5F5"/>
<path d="M216.704 61.1581C213.263 67.127 205.571 69.1504 199.599 65.7107C193.628 62.271 191.604 54.5822 195.045 48.6133C198.486 42.6445 206.178 40.6211 212.15 44.0608C218.071 47.5005 220.146 55.1892 216.704 61.1581Z" fill="#F5516C"/>
<path d="M220.549 42.9361L220.546 42.9346C213.958 39.1394 205.467 41.3681 201.665 47.9629C197.868 54.5493 200.098 63.0366 206.695 66.8369C213.284 70.6321 221.775 68.4033 225.577 61.8086C229.376 55.2183 227.087 46.7343 220.549 42.9361Z" fill="#F5516C" stroke="#F5F5F5" stroke-width="1.6"/>
<path d="M213.7 46.237V53.5262C213.295 53.1213 212.948 52.7742 212.485 52.3113C212.427 51.6171 212.311 49.6502 212.311 49.6502L213.469 46.1792C212.774 46.1792 212.08 46.2949 211.443 46.4685L210.865 48.1461L209.244 47.3362C208.665 47.6833 208.087 48.0883 207.566 48.6089L210.459 50.0552L210.575 51.7907L208.839 51.675L207.392 48.7825C206.929 49.3031 206.466 49.8238 206.119 50.4601L206.929 52.0799L205.193 52.6584C205.019 53.2948 204.903 53.989 204.903 54.7411L208.376 53.6419L211.154 53.7576L212.311 54.9146L211.154 56.0716L208.376 56.1873L204.903 55.0882C204.903 55.7824 205.019 56.4766 205.193 57.1708L206.871 57.7493L206.061 59.3112C206.408 59.8898 206.813 60.4683 207.334 60.9311L208.781 58.0385L210.517 57.9228L210.402 59.6584L207.508 61.1046C208.029 61.5674 208.55 62.0302 209.186 62.3773L210.749 61.6253L211.328 63.3029C211.964 63.4765 212.659 63.5922 213.353 63.5922L212.254 60.179C212.254 60.179 212.369 58.2121 212.427 57.5179C212.832 57.1129 213.18 56.7658 213.643 56.303V63.5922C218.446 63.5922 222.324 59.7162 222.324 54.9146C222.382 50.113 218.504 46.237 213.7 46.237ZM215.668 61.3939C215.668 57.0551 215.668 52.7741 215.668 48.4354C217.752 48.8982 220.414 51.2122 220.53 54.6832C220.646 58.5013 217.752 60.9311 215.668 61.3939Z" fill="#F5F5F5"/>
<path d="M67.3945 134.718L70.2266 122.755H71.8086L72.1699 124.747L69.1523 136.974H67.4531L67.3945 134.718ZM65.9395 122.755L68.2832 134.718L68.0879 136.974H66.1934L63.0391 122.755H65.9395ZM74.6602 134.669L76.9746 122.755H79.875L76.7305 136.974H74.8359L74.6602 134.669ZM72.6973 122.755L75.5488 134.766L75.4707 136.974H73.7715L70.7344 124.737L71.125 122.755H72.6973ZM86.8184 125.186L82.9512 136.974H79.8359L85.1191 122.755H87.1016L86.8184 125.186ZM90.0312 136.974L86.1543 125.186L85.8418 122.755H87.8438L93.1562 136.974H90.0312ZM89.8555 131.681V133.975H82.3457V131.681H89.8555ZM103.615 134.688V136.974H96.457V134.688H103.615ZM97.4043 122.755V136.974H94.4746V122.755H97.4043ZM114.436 134.688V136.974H107.277V134.688H114.436ZM108.225 122.755V136.974H105.295V122.755H108.225ZM125.656 134.688V136.974H118.088V134.688H125.656ZM119.045 122.755V136.974H116.115V122.755H119.045ZM124.67 128.546V130.772H118.088V128.546H124.67ZM125.646 122.755V125.05H118.088V122.755H125.646ZM133.918 122.755V136.974H130.998V122.755H133.918ZM138.293 122.755V125.05H126.691V122.755H138.293Z" fill="#0A355C"/>
<path fill-rule="evenodd" clip-rule="evenodd" d="M53.6176 112.886H145.42C147.924 112.886 149.981 110.55 149.981 107.655V90.0751H134.025C127.022 90.0751 121.368 84.4211 121.368 77.418C121.368 70.4148 127.022 64.7609 134.025 64.6966H149.981V47.0661C149.981 44.222 147.924 41.8857 145.42 41.8857H53.6176C51.1135 41.8857 49.0566 44.222 49.0566 47.0661V107.705C49.0566 110.55 51.1135 112.886 53.6176 112.886Z" fill="#F5516C"/>
<path d="M124.668 77.4101C124.668 82.7126 128.949 86.9935 134.251 86.9935H153.711V67.7781L134.251 67.7781C128.949 67.8267 124.668 72.1076 124.668 77.4101Z" fill="#F5516C"/>
<path d="M85.0611 59.675H72.1143V66.8813H82.9847C88.7253 66.8813 93.4888 71.6448 93.4888 77.3854C93.4888 83.126 88.7253 87.8894 82.9847 87.8894H72.1143V95.0957H84.6947C94.588 95.0957 102.527 87.1566 102.527 77.2632C102.527 67.492 94.7102 59.675 85.0611 59.675Z" fill="white"/>
<path d="M76.1265 68.2258C75.8822 68.2258 75.6379 68.2258 75.2715 68.2258C78.0807 70.1801 80.035 73.4779 80.035 77.2642C80.035 81.0505 78.2028 84.3483 75.2715 86.3026C75.5158 86.3026 75.76 86.3026 76.1265 86.3026C81.1342 86.3026 85.1648 82.2719 85.1648 77.2642C85.1648 72.2564 81.1342 68.2258 76.1265 68.2258Z" fill="white"/>
<path d="M78.8247 77.2638C78.8247 82.6379 74.4276 87.035 69.0534 87.035C63.6793 87.035 59.2822 82.6379 59.2822 77.2638C59.2822 71.8896 63.6793 67.4926 69.0534 67.4926C74.5497 67.4926 78.8247 71.8896 78.8247 77.2638Z" fill="white"/>
</svg>
