<svg width="601" height="470" viewBox="0 0 601 470" fill="none" xmlns="http://www.w3.org/2000/svg">
<path d="M266.897 287.003C265.557 287.003 264.471 288.089 264.471 289.429C264.471 290.769 265.557 291.855 266.897 291.855C268.237 291.855 269.323 290.769 269.323 289.429C269.323 288.089 268.237 287.003 266.897 287.003Z" fill="#F5516C"/>
<path d="M254.764 287.003C253.424 287.003 252.338 288.089 252.338 289.429C252.338 290.769 253.424 291.855 254.764 291.855C256.104 291.855 257.19 290.769 257.19 289.429C257.19 288.089 256.104 287.003 254.764 287.003Z" fill="#F5516C"/>
<path d="M291.158 287.003C289.818 287.003 288.731 288.089 288.731 289.429C288.731 290.769 289.818 291.855 291.158 291.855C292.498 291.855 293.584 290.769 293.584 289.429C293.584 288.089 292.498 287.003 291.158 287.003Z" fill="#F5516C"/>
<path d="M279.026 287.003C277.686 287.003 276.599 288.089 276.599 289.429C276.599 290.769 277.686 291.855 279.026 291.855C280.366 291.855 281.452 290.769 281.452 289.429C281.452 288.089 280.366 287.003 279.026 287.003Z" fill="#F5516C"/>
<path d="M315.714 287.003C314.374 287.003 313.288 288.089 313.288 289.429C313.288 290.769 314.374 291.855 315.714 291.855C317.054 291.855 318.141 290.769 318.141 289.429C318.141 288.089 317.054 287.003 315.714 287.003Z" fill="#F5516C"/>
<path d="M303.582 287.003C302.242 287.003 301.156 288.089 301.156 289.429C301.156 290.769 302.242 291.855 303.582 291.855C304.922 291.855 306.009 290.769 306.009 289.429C306.009 288.089 304.922 287.003 303.582 287.003Z" fill="#F5516C"/>
<path d="M339.975 287.003C338.635 287.003 337.549 288.089 337.549 289.429C337.549 290.769 338.635 291.855 339.975 291.855C341.315 291.855 342.401 290.769 342.401 289.429C342.401 288.089 341.315 287.003 339.975 287.003Z" fill="#F5516C"/>
<path d="M364.234 287.003C362.894 287.003 361.807 288.089 361.807 289.429C361.807 290.769 362.894 291.855 364.234 291.855C365.574 291.855 366.66 290.769 366.66 289.429C366.66 288.089 365.574 287.003 364.234 287.003Z" fill="#F5516C"/>
<path d="M327.844 287.003C326.504 287.003 325.418 288.089 325.418 289.429C325.418 290.769 326.504 291.855 327.844 291.855C329.184 291.855 330.271 290.769 330.271 289.429C330.271 288.089 329.184 287.003 327.844 287.003Z" fill="#F5516C"/>
<path d="M352.103 287.003C350.763 287.003 349.677 288.089 349.677 289.429C349.677 290.769 350.763 291.855 352.103 291.855C353.443 291.855 354.529 290.769 354.529 289.429C354.529 288.089 353.443 287.003 352.103 287.003Z" fill="#F5516C"/>
<path d="M242.633 287.003C241.293 287.003 240.207 288.089 240.207 289.429C240.207 290.769 241.293 291.855 242.633 291.855C243.973 291.855 245.06 290.769 245.06 289.429C245.06 288.089 243.973 287.003 242.633 287.003Z" fill="#F5516C"/>
<path d="M230.5 287.003C229.16 287.003 228.074 288.089 228.074 289.429C228.074 290.769 229.16 291.855 230.5 291.855C231.84 291.855 232.927 290.769 232.927 289.429C232.927 288.089 231.84 287.003 230.5 287.003Z" fill="#F5516C"/>
<path d="M218.368 287.003C217.028 287.003 215.941 288.089 215.941 289.429C215.941 290.769 217.028 291.855 218.368 291.855C219.708 291.855 220.794 290.769 220.794 289.429C220.794 288.089 219.708 287.003 218.368 287.003Z" fill="#F5516C"/>
<path d="M206.235 287.003C204.895 287.003 203.808 288.089 203.808 289.429C203.808 290.769 204.895 291.855 206.235 291.855C207.575 291.855 208.661 290.769 208.661 289.429C208.661 288.089 207.575 287.003 206.235 287.003Z" fill="#F5516C"/>
<path d="M194.107 287.003C192.767 287.003 191.681 288.089 191.681 289.429C191.681 290.769 192.767 291.855 194.107 291.855C195.447 291.855 196.533 290.769 196.533 289.429C196.533 288.089 195.447 287.003 194.107 287.003Z" fill="#F5516C"/>
<path d="M181.975 287.003C180.635 287.003 179.549 288.089 179.549 289.429C179.549 290.769 180.635 291.855 181.975 291.855C183.315 291.855 184.401 290.769 184.401 289.429C184.401 288.089 183.315 287.003 181.975 287.003Z" fill="#F5516C"/>
<path d="M176.325 279.135L166.031 289.429L176.325 299.723" stroke="#F5516C" stroke-width="3"/>
<path d="M111.577 161.472L101.283 151.178L90.9891 161.472" stroke="#F5516C" stroke-width="3"/>
<path d="M103.711 178.122C103.711 176.782 102.625 175.695 101.285 175.695C99.9447 175.695 98.8584 176.782 98.8584 178.122C98.8584 179.462 99.9447 180.548 101.285 180.548C102.625 180.548 103.711 179.462 103.711 178.122Z" fill="#F5516C"/>
<path d="M103.711 166.468C103.711 165.128 102.625 164.041 101.285 164.041C99.9447 164.041 98.8584 165.128 98.8584 166.468C98.8584 167.808 99.9447 168.894 101.285 168.894C102.625 168.894 103.711 167.808 103.711 166.468Z" fill="#F5516C"/>
<path d="M103.711 190.254C103.711 188.914 102.625 187.828 101.285 187.828C99.9447 187.828 98.8584 188.914 98.8584 190.254C98.8584 191.594 99.9447 192.681 101.285 192.681C102.625 192.681 103.711 191.594 103.711 190.254Z" fill="#F5516C"/>
<path d="M198.928 187.828C197.588 187.828 196.502 188.914 196.502 190.254C196.502 191.594 197.588 192.681 198.928 192.681C200.268 192.681 201.354 191.594 201.354 190.254C201.354 188.914 200.268 187.828 198.928 187.828Z" fill="#F5516C"/>
<path d="M186.796 187.828C185.456 187.828 184.37 188.914 184.37 190.254C184.37 191.594 185.456 192.681 186.796 192.681C188.136 192.681 189.223 191.594 189.223 190.254C189.223 188.914 188.136 187.828 186.796 187.828Z" fill="#F5516C"/>
<path d="M223.188 187.828C221.848 187.828 220.762 188.914 220.762 190.254C220.762 191.594 221.848 192.681 223.188 192.681C224.528 192.681 225.614 191.594 225.614 190.254C225.614 188.914 224.528 187.828 223.188 187.828Z" fill="#F5516C"/>
<path d="M211.057 187.828C209.717 187.828 208.631 188.914 208.631 190.254C208.631 191.594 209.717 192.681 211.057 192.681C212.397 192.681 213.483 191.594 213.483 190.254C213.483 188.914 212.397 187.828 211.057 187.828Z" fill="#F5516C"/>
<path d="M247.745 187.828C246.405 187.828 245.318 188.914 245.318 190.254C245.318 191.594 246.405 192.681 247.745 192.681C249.085 192.681 250.171 191.594 250.171 190.254C250.171 188.914 249.085 187.828 247.745 187.828Z" fill="#F5516C"/>
<path d="M235.613 187.828C234.273 187.828 233.186 188.914 233.186 190.254C233.186 191.594 234.273 192.681 235.613 192.681C236.953 192.681 238.039 191.594 238.039 190.254C238.039 188.914 236.953 187.828 235.613 187.828Z" fill="#F5516C"/>
<path d="M272.005 187.828C270.665 187.828 269.579 188.914 269.579 190.254C269.579 191.594 270.665 192.681 272.005 192.681C273.345 192.681 274.432 191.594 274.432 190.254C274.432 188.914 273.345 187.828 272.005 187.828Z" fill="#F5516C"/>
<path d="M296.264 187.828C294.924 187.828 293.838 188.914 293.838 190.254C293.838 191.594 294.924 192.681 296.264 192.681C297.604 192.681 298.69 191.594 298.69 190.254C298.69 188.914 297.604 187.828 296.264 187.828Z" fill="#F5516C"/>
<path d="M259.874 187.828C258.534 187.828 257.448 188.914 257.448 190.254C257.448 191.594 258.534 192.681 259.874 192.681C261.214 192.681 262.301 191.594 262.301 190.254C262.301 188.914 261.214 187.828 259.874 187.828Z" fill="#F5516C"/>
<path d="M284.133 187.828C282.793 187.828 281.707 188.914 281.707 190.254C281.707 191.594 282.793 192.681 284.133 192.681C285.473 192.681 286.56 191.594 286.56 190.254C286.56 188.914 285.473 187.828 284.133 187.828Z" fill="#F5516C"/>
<path d="M174.664 187.828C173.324 187.828 172.238 188.914 172.238 190.254C172.238 191.594 173.324 192.681 174.664 192.681C176.005 192.681 177.091 191.594 177.091 190.254C177.091 188.914 176.005 187.828 174.664 187.828Z" fill="#F5516C"/>
<path d="M162.532 187.828C161.192 187.828 160.105 188.914 160.105 190.254C160.105 191.594 161.192 192.681 162.532 192.681C163.872 192.681 164.958 191.594 164.958 190.254C164.958 188.914 163.872 187.828 162.532 187.828Z" fill="#F5516C"/>
<path d="M150.398 187.828C149.058 187.828 147.972 188.914 147.972 190.254C147.972 191.594 149.058 192.681 150.398 192.681C151.738 192.681 152.824 191.594 152.824 190.254C152.824 188.914 151.738 187.828 150.398 187.828Z" fill="#F5516C"/>
<path d="M138.265 187.828C136.925 187.828 135.839 188.914 135.839 190.254C135.839 191.594 136.925 192.681 138.265 192.681C139.605 192.681 140.691 191.594 140.691 190.254C140.691 188.914 139.605 187.828 138.265 187.828Z" fill="#F5516C"/>
<path d="M126.137 187.828C124.797 187.828 123.711 188.914 123.711 190.254C123.711 191.594 124.797 192.681 126.137 192.681C127.477 192.681 128.563 191.594 128.563 190.254C128.563 188.914 127.477 187.828 126.137 187.828Z" fill="#F5516C"/>
<path d="M114.005 187.828C112.665 187.828 111.579 188.914 111.579 190.254C111.579 191.594 112.665 192.681 114.005 192.681C115.345 192.681 116.432 191.594 116.432 190.254C116.432 188.914 115.345 187.828 114.005 187.828Z" fill="#F5516C"/>
<path d="M393.193 187.828C391.853 187.828 390.766 188.914 390.766 190.254C390.766 191.594 391.853 192.681 393.193 192.681C394.533 192.681 395.619 191.594 395.619 190.254C395.619 188.914 394.533 187.828 393.193 187.828Z" fill="#F5516C"/>
<path d="M381.06 187.828C379.72 187.828 378.634 188.914 378.634 190.254C378.634 191.594 379.72 192.681 381.06 192.681C382.4 192.681 383.486 191.594 383.486 190.254C383.486 188.914 382.4 187.828 381.06 187.828Z" fill="#F5516C"/>
<path d="M417.454 187.828C416.114 187.828 415.027 188.914 415.027 190.254C415.027 191.594 416.114 192.681 417.454 192.681C418.794 192.681 419.88 191.594 419.88 190.254C419.88 188.914 418.794 187.828 417.454 187.828Z" fill="#F5516C"/>
<path d="M405.322 187.828C403.982 187.828 402.895 188.914 402.895 190.254C402.895 191.594 403.982 192.681 405.322 192.681C406.662 192.681 407.748 191.594 407.748 190.254C407.748 188.914 406.662 187.828 405.322 187.828Z" fill="#F5516C"/>
<path d="M429.876 199.681C428.536 199.681 427.45 200.767 427.45 202.107C427.45 203.447 428.536 204.533 429.876 204.533C431.216 204.533 432.303 203.447 432.303 202.107C432.303 200.767 431.216 199.681 429.876 199.681Z" fill="#F5516C"/>
<path d="M429.876 211.533C428.536 211.533 427.45 212.62 427.45 213.96C427.45 215.3 428.536 216.386 429.876 216.386C431.216 216.386 432.303 215.3 432.303 213.96C432.303 212.62 431.216 211.533 429.876 211.533Z" fill="#F5516C"/>
<path d="M429.878 187.828C428.538 187.828 427.452 188.914 427.452 190.254C427.452 191.594 428.538 192.681 429.878 192.681C431.218 192.681 432.305 191.594 432.305 190.254C432.305 188.914 431.218 187.828 429.878 187.828Z" fill="#F5516C"/>
<path d="M368.929 187.828C367.589 187.828 366.503 188.914 366.503 190.254C366.503 191.594 367.589 192.681 368.929 192.681C370.269 192.681 371.355 191.594 371.355 190.254C371.355 188.914 370.269 187.828 368.929 187.828Z" fill="#F5516C"/>
<path d="M356.796 187.828C355.456 187.828 354.37 188.914 354.37 190.254C354.37 191.594 355.456 192.681 356.796 192.681C358.136 192.681 359.223 191.594 359.223 190.254C359.223 188.914 358.136 187.828 356.796 187.828Z" fill="#F5516C"/>
<path d="M344.664 187.828C343.323 187.828 342.237 188.914 342.237 190.254C342.237 191.594 343.323 192.681 344.664 192.681C346.004 192.681 347.09 191.594 347.09 190.254C347.09 188.914 346.004 187.828 344.664 187.828Z" fill="#F5516C"/>
<path d="M332.53 187.828C331.19 187.828 330.103 188.914 330.103 190.254C330.103 191.594 331.19 192.681 332.53 192.681C333.87 192.681 334.956 191.594 334.956 190.254C334.956 188.914 333.87 187.828 332.53 187.828Z" fill="#F5516C"/>
<path d="M320.402 187.828C319.062 187.828 317.975 188.914 317.975 190.254C317.975 191.594 319.062 192.681 320.402 192.681C321.742 192.681 322.828 191.594 322.828 190.254C322.828 188.914 321.742 187.828 320.402 187.828Z" fill="#F5516C"/>
<path d="M308.27 187.828C306.93 187.828 305.844 188.914 305.844 190.254C305.844 191.594 306.93 192.681 308.27 192.681C309.61 192.681 310.696 191.594 310.696 190.254C310.696 188.914 309.61 187.828 308.27 187.828Z" fill="#F5516C"/>
<path d="M312.99 390.478C311.65 390.478 310.563 391.564 310.563 392.904C310.563 394.244 311.65 395.33 312.99 395.33C314.33 395.33 315.416 394.244 315.416 392.904C315.416 391.564 314.33 390.478 312.99 390.478Z" fill="#F5516C"/>
<path d="M300.857 390.478C299.517 390.478 298.431 391.564 298.431 392.904C298.431 394.244 299.517 395.33 300.857 395.33C302.197 395.33 303.283 394.244 303.283 392.904C303.283 391.564 302.197 390.478 300.857 390.478Z" fill="#F5516C"/>
<path d="M337.25 390.478C335.91 390.478 334.824 391.564 334.824 392.904C334.824 394.244 335.91 395.33 337.25 395.33C338.59 395.33 339.677 394.244 339.677 392.904C339.677 391.564 338.59 390.478 337.25 390.478Z" fill="#F5516C"/>
<path d="M325.119 390.478C323.779 390.478 322.692 391.564 322.692 392.904C322.692 394.244 323.779 395.33 325.119 395.33C326.459 395.33 327.545 394.244 327.545 392.904C327.545 391.564 326.459 390.478 325.119 390.478Z" fill="#F5516C"/>
<path d="M361.807 390.478C360.467 390.478 359.381 391.564 359.381 392.904C359.381 394.244 360.467 395.33 361.807 395.33C363.147 395.33 364.233 394.244 364.233 392.904C364.233 391.564 363.147 390.478 361.807 390.478Z" fill="#F5516C"/>
<path d="M349.675 390.478C348.335 390.478 347.249 391.564 347.249 392.904C347.249 394.244 348.335 395.33 349.675 395.33C351.015 395.33 352.102 394.244 352.102 392.904C352.102 391.564 351.015 390.478 349.675 390.478Z" fill="#F5516C"/>
<path d="M288.726 390.478C287.386 390.478 286.3 391.564 286.3 392.904C286.3 394.244 287.386 395.33 288.726 395.33C290.066 395.33 291.152 394.244 291.152 392.904C291.152 391.564 290.066 390.478 288.726 390.478Z" fill="#F5516C"/>
<path d="M276.593 390.478C275.253 390.478 274.167 391.564 274.167 392.904C274.167 394.244 275.253 395.33 276.593 395.33C277.933 395.33 279.02 394.244 279.02 392.904C279.02 391.564 277.933 390.478 276.593 390.478Z" fill="#F5516C"/>
<path d="M264.46 390.478C263.12 390.478 262.034 391.564 262.034 392.904C262.034 394.244 263.12 395.33 264.46 395.33C265.8 395.33 266.887 394.244 266.887 392.904C266.887 391.564 265.8 390.478 264.46 390.478Z" fill="#F5516C"/>
<path d="M252.328 390.478C250.988 390.478 249.901 391.564 249.901 392.904C249.901 394.244 250.988 395.33 252.328 395.33C253.668 395.33 254.754 394.244 254.754 392.904C254.754 391.564 253.668 390.478 252.328 390.478Z" fill="#F5516C"/>
<path d="M240.2 390.478C238.86 390.478 237.773 391.564 237.773 392.904C237.773 394.244 238.86 395.33 240.2 395.33C241.54 395.33 242.626 394.244 242.626 392.904C242.626 391.564 241.54 390.478 240.2 390.478Z" fill="#F5516C"/>
<path d="M228.068 390.478C226.728 390.478 225.641 391.564 225.641 392.904C225.641 394.244 226.728 395.33 228.068 395.33C229.408 395.33 230.494 394.244 230.494 392.904C230.494 391.564 229.408 390.478 228.068 390.478Z" fill="#F5516C"/>
<path d="M222.418 382.61L212.124 392.904L222.418 403.198" stroke="#F5516C" stroke-width="3"/>
<path d="M189.983 415.752C191.323 415.752 192.409 414.666 192.409 413.326C192.409 411.986 191.323 410.9 189.983 410.9C188.643 410.9 187.557 411.986 187.557 413.326C187.557 414.666 188.643 415.752 189.983 415.752Z" fill="#0A355C"/>
<path d="M202.116 415.752C203.456 415.752 204.542 414.666 204.542 413.326C204.542 411.986 203.456 410.9 202.116 410.9C200.776 410.9 199.689 411.986 199.689 413.326C199.689 414.666 200.776 415.752 202.116 415.752Z" fill="#0A355C"/>
<path d="M165.722 415.752C167.062 415.752 168.149 414.666 168.149 413.326C168.149 411.986 167.062 410.9 165.722 410.9C164.382 410.9 163.296 411.986 163.296 413.326C163.296 414.666 164.382 415.752 165.722 415.752Z" fill="#0A355C"/>
<path d="M177.854 415.752C179.194 415.752 180.28 414.666 180.28 413.326C180.28 411.986 179.194 410.9 177.854 410.9C176.514 410.9 175.428 411.986 175.428 413.326C175.428 414.666 176.514 415.752 177.854 415.752Z" fill="#0A355C"/>
<path d="M141.166 415.752C142.506 415.752 143.592 414.666 143.592 413.326C143.592 411.986 142.506 410.9 141.166 410.9C139.826 410.9 138.739 411.986 138.739 413.326C138.739 414.666 139.826 415.752 141.166 415.752Z" fill="#0A355C"/>
<path d="M153.297 415.752C154.637 415.752 155.724 414.666 155.724 413.326C155.724 411.986 154.637 410.9 153.297 410.9C151.957 410.9 150.871 411.986 150.871 413.326C150.871 414.666 151.957 415.752 153.297 415.752Z" fill="#0A355C"/>
<path d="M214.247 415.752C215.587 415.752 216.673 414.666 216.673 413.326C216.673 411.986 215.587 410.9 214.247 410.9C212.907 410.9 211.82 411.986 211.82 413.326C211.82 414.666 212.907 415.752 214.247 415.752Z" fill="#0A355C"/>
<path d="M226.379 415.752C227.719 415.752 228.806 414.666 228.806 413.326C228.806 411.986 227.719 410.9 226.379 410.9C225.039 410.9 223.953 411.986 223.953 413.326C223.953 414.666 225.039 415.752 226.379 415.752Z" fill="#0A355C"/>
<path d="M238.512 415.752C239.852 415.752 240.939 414.666 240.939 413.326C240.939 411.986 239.852 410.9 238.512 410.9C237.172 410.9 236.086 411.986 236.086 413.326C236.086 414.666 237.172 415.752 238.512 415.752Z" fill="#0A355C"/>
<path d="M250.645 415.752C251.985 415.752 253.071 414.666 253.071 413.326C253.071 411.986 251.985 410.9 250.645 410.9C249.305 410.9 248.219 411.986 248.219 413.326C248.219 414.666 249.305 415.752 250.645 415.752Z" fill="#0A355C"/>
<path d="M262.773 415.752C264.113 415.752 265.199 414.666 265.199 413.326C265.199 411.986 264.113 410.9 262.773 410.9C261.433 410.9 260.347 411.986 260.347 413.326C260.347 414.666 261.433 415.752 262.773 415.752Z" fill="#0A355C"/>
<path d="M274.905 415.752C276.245 415.752 277.331 414.666 277.331 413.326C277.331 411.986 276.245 410.9 274.905 410.9C273.565 410.9 272.479 411.986 272.479 413.326C272.479 414.666 273.565 415.752 274.905 415.752Z" fill="#0A355C"/>
<path d="M280.555 423.62L290.849 413.326L280.555 403.032" stroke="#0A355C" stroke-width="3"/>
<path d="M247.791 76.8855L168.587 76.8858" stroke="#0A355C" stroke-width="3"/>
<path d="M249.71 87.1797L260.004 76.8856L249.71 66.5916" stroke="#0A355C" stroke-width="3"/>
<path d="M497.526 199.746L497.114 128.755" stroke="#9AA5B8" stroke-width="3"/>
<path d="M487.232 201.668L497.526 211.963L507.82 201.668" stroke="#9AA5B8" stroke-width="3"/>
<path d="M415.936 87.1797L426.23 76.8856L415.936 66.5916" stroke="#9AA5B8" stroke-width="3"/>
<rect x="279.304" y="35.8269" width="124.838" height="82.1177" rx="13.5" stroke="#0A355C" stroke-width="3"/>
<rect x="435.106" y="35.8269" width="124.838" height="82.1177" rx="13.5" stroke="#9AA5B8" stroke-width="3"/>
<rect x="377.445" y="227.033" width="182" height="210.95" rx="23" stroke="#F5516C" stroke-width="4"/>
<rect x="448.935" y="392.461" width="70.6854" height="8.47165" rx="2" fill="#F5516C"/>
<rect x="448.935" y="379.953" width="70.6854" height="8.47165" rx="2" fill="#F5516C"/>
<rect x="448.935" y="367.444" width="70.6854" height="8.47165" rx="2" fill="#F5516C"/>
<rect x="448.935" y="354.935" width="70.6854" height="8.47165" rx="2" fill="#F5516C"/>
<rect x="448.935" y="342.426" width="70.6854" height="8.47165" rx="2" fill="#F5516C"/>
<rect x="448.935" y="329.917" width="70.6854" height="8.47165" rx="2" fill="#F5516C"/>
<rect x="448.935" y="317.409" width="70.6854" height="8.47165" rx="2" fill="#F5516C"/>
<rect x="448.935" y="304.9" width="70.6854" height="8.47165" rx="2" fill="#F5516C"/>
<rect x="448.935" y="292.391" width="70.6854" height="8.47165" rx="2" fill="#F5516C"/>
<path d="M488.464 380.466C475.916 402.231 447.853 409.622 426.061 397.07C404.287 384.527 396.894 356.477 409.451 334.696C421.998 312.932 450.06 305.541 471.851 318.091C493.446 330.638 501.017 358.694 488.464 380.466Z" fill="#F5516C" stroke="#F5F5F5" stroke-width="3"/>
<path d="M449.252 326.247V352.656C447.784 351.189 446.526 349.931 444.848 348.254C444.638 345.739 444.219 338.613 444.219 338.613L448.413 326.037C445.897 326.037 443.38 326.456 441.074 327.085L438.977 333.163L433.106 330.229C431.009 331.487 428.912 332.954 427.025 334.84L437.509 340.08L437.928 346.368L431.638 345.949L426.396 335.469C424.718 337.355 423.04 339.242 421.782 341.547L424.718 347.416L418.427 349.512C417.798 351.817 417.379 354.332 417.379 357.057L429.96 353.075L440.025 353.494L444.219 357.686L440.025 361.878L429.96 362.297L417.379 358.315C417.379 360.83 417.798 363.345 418.427 365.86L424.508 367.956L421.573 373.615C422.831 375.711 424.299 377.807 426.186 379.484L431.428 369.004L437.719 368.585L437.299 374.873L426.815 380.113C428.702 381.789 430.589 383.466 432.896 384.724L438.557 381.999L440.654 388.077C442.961 388.706 445.477 389.125 447.993 389.125L444.009 376.759C444.009 376.759 444.429 369.633 444.638 367.118C446.106 365.651 447.364 364.393 449.042 362.716V389.125C466.446 389.125 480.495 375.082 480.495 357.686C480.705 340.29 466.656 326.247 449.252 326.247ZM456.381 381.161C456.381 365.441 456.381 349.931 456.381 334.211C463.93 335.888 473.575 344.272 473.995 356.848C474.414 370.681 463.93 379.484 456.381 381.161Z" fill="#F5F5F5"/>
<path d="M406.895 260.955H409.747L413.947 272.961L418.148 260.955H421L415.093 277.307H412.802L406.895 260.955ZM405.356 260.955H408.197L408.714 272.658V277.307H405.356V260.955ZM419.697 260.955H422.55V277.307H419.181V272.658L419.697 260.955ZM431.63 274.567V269.154C431.63 268.764 431.566 268.431 431.439 268.154C431.312 267.87 431.113 267.649 430.844 267.492C430.582 267.334 430.241 267.256 429.822 267.256C429.462 267.256 429.152 267.319 428.89 267.447C428.628 267.566 428.426 267.742 428.283 267.974C428.141 268.199 428.07 268.465 428.07 268.772H424.836C424.836 268.255 424.955 267.765 425.195 267.301C425.434 266.836 425.783 266.428 426.239 266.077C426.696 265.717 427.239 265.436 427.868 265.234C428.504 265.032 429.215 264.931 430.002 264.931C430.945 264.931 431.783 265.088 432.517 265.403C433.251 265.717 433.827 266.189 434.247 266.818C434.673 267.447 434.887 268.233 434.887 269.176V274.376C434.887 275.042 434.928 275.589 435.01 276.016C435.093 276.435 435.212 276.802 435.37 277.116V277.307H432.102C431.944 276.978 431.825 276.566 431.742 276.072C431.667 275.57 431.63 275.068 431.63 274.567ZM432.057 269.906L432.079 271.737H430.271C429.844 271.737 429.474 271.785 429.159 271.883C428.845 271.98 428.587 272.119 428.384 272.298C428.182 272.47 428.032 272.673 427.935 272.905C427.845 273.137 427.8 273.391 427.8 273.668C427.8 273.945 427.864 274.196 427.991 274.421C428.119 274.638 428.302 274.81 428.542 274.937C428.781 275.057 429.062 275.117 429.384 275.117C429.871 275.117 430.294 275.02 430.653 274.825C431.012 274.63 431.289 274.391 431.484 274.106C431.686 273.822 431.791 273.552 431.798 273.298L432.652 274.668C432.532 274.975 432.367 275.293 432.158 275.622C431.956 275.952 431.697 276.263 431.383 276.555C431.068 276.839 430.69 277.075 430.249 277.262C429.807 277.442 429.283 277.532 428.676 277.532C427.905 277.532 427.205 277.378 426.576 277.071C425.955 276.757 425.461 276.326 425.094 275.78C424.734 275.226 424.555 274.597 424.555 273.893C424.555 273.257 424.675 272.691 424.914 272.197C425.154 271.703 425.506 271.287 425.97 270.951C426.441 270.606 427.029 270.348 427.733 270.176C428.437 269.996 429.253 269.906 430.181 269.906H432.057ZM443.72 273.949C443.72 273.717 443.652 273.507 443.518 273.32C443.383 273.133 443.132 272.961 442.765 272.804C442.406 272.639 441.885 272.489 441.204 272.354C440.59 272.22 440.017 272.051 439.486 271.849C438.962 271.639 438.505 271.389 438.116 271.097C437.734 270.805 437.434 270.46 437.217 270.063C437 269.659 436.892 269.199 436.892 268.682C436.892 268.173 437 267.694 437.217 267.245C437.442 266.795 437.76 266.398 438.172 266.054C438.591 265.702 439.1 265.429 439.699 265.234C440.306 265.032 440.987 264.931 441.743 264.931C442.799 264.931 443.705 265.099 444.461 265.436C445.225 265.773 445.809 266.238 446.213 266.829C446.625 267.413 446.831 268.079 446.831 268.828H443.596C443.596 268.514 443.529 268.233 443.394 267.986C443.267 267.731 443.065 267.533 442.788 267.391C442.518 267.241 442.166 267.166 441.732 267.166C441.373 267.166 441.062 267.23 440.8 267.357C440.538 267.477 440.336 267.641 440.193 267.851C440.059 268.053 439.991 268.278 439.991 268.525C439.991 268.712 440.029 268.88 440.104 269.03C440.186 269.172 440.317 269.303 440.497 269.423C440.676 269.543 440.908 269.655 441.193 269.76C441.485 269.857 441.844 269.947 442.271 270.03C443.147 270.209 443.929 270.445 444.618 270.737C445.307 271.022 445.854 271.411 446.258 271.905C446.662 272.392 446.864 273.032 446.864 273.826C446.864 274.365 446.745 274.859 446.505 275.308C446.265 275.757 445.921 276.15 445.472 276.487C445.023 276.817 444.483 277.075 443.855 277.262C443.233 277.442 442.533 277.532 441.754 277.532C440.624 277.532 439.666 277.329 438.879 276.925C438.101 276.521 437.509 276.008 437.105 275.387C436.708 274.758 436.51 274.114 436.51 273.455H439.576C439.591 273.897 439.703 274.252 439.913 274.522C440.13 274.791 440.403 274.986 440.732 275.106C441.069 275.226 441.433 275.286 441.822 275.286C442.241 275.286 442.589 275.229 442.866 275.117C443.143 274.997 443.353 274.84 443.495 274.645C443.645 274.443 443.72 274.211 443.72 273.949ZM454.687 265.156V267.447H447.611V265.156H454.687ZM449.363 262.157H452.598V273.646C452.598 273.998 452.643 274.267 452.732 274.454C452.83 274.642 452.972 274.773 453.159 274.848C453.346 274.915 453.582 274.949 453.867 274.949C454.069 274.949 454.249 274.941 454.406 274.926C454.571 274.904 454.709 274.881 454.821 274.859L454.833 277.24C454.556 277.329 454.256 277.401 453.934 277.453C453.612 277.505 453.257 277.532 452.867 277.532C452.156 277.532 451.535 277.416 451.003 277.183C450.479 276.944 450.075 276.562 449.79 276.038C449.506 275.514 449.363 274.825 449.363 273.972V262.157ZM461.891 277.532C460.948 277.532 460.102 277.382 459.353 277.082C458.604 276.775 457.968 276.352 457.444 275.813C456.927 275.274 456.53 274.649 456.253 273.938C455.976 273.219 455.838 272.455 455.838 271.647V271.198C455.838 270.277 455.969 269.434 456.231 268.671C456.493 267.907 456.867 267.245 457.354 266.683C457.848 266.121 458.447 265.691 459.151 265.391C459.855 265.085 460.648 264.931 461.532 264.931C462.393 264.931 463.156 265.073 463.823 265.358C464.489 265.642 465.047 266.047 465.496 266.571C465.953 267.095 466.297 267.724 466.529 268.457C466.761 269.184 466.877 269.992 466.877 270.883V272.231H457.219V270.075H463.699V269.828C463.699 269.378 463.617 268.978 463.452 268.626C463.295 268.266 463.055 267.982 462.733 267.772C462.411 267.563 462 267.458 461.498 267.458C461.071 267.458 460.704 267.551 460.397 267.739C460.091 267.926 459.84 268.188 459.645 268.525C459.458 268.862 459.316 269.259 459.218 269.715C459.128 270.164 459.084 270.659 459.084 271.198V271.647C459.084 272.134 459.151 272.583 459.286 272.995C459.428 273.406 459.626 273.762 459.881 274.061C460.143 274.361 460.457 274.593 460.824 274.758C461.199 274.922 461.622 275.005 462.093 275.005C462.677 275.005 463.22 274.892 463.722 274.668C464.231 274.436 464.669 274.088 465.036 273.623L466.608 275.33C466.353 275.697 466.005 276.049 465.563 276.386C465.129 276.723 464.605 277 463.991 277.217C463.377 277.427 462.677 277.532 461.891 277.532ZM471.724 267.806V277.307H468.489V265.156H471.533L471.724 267.806ZM475.385 265.077L475.329 268.076C475.171 268.053 474.98 268.034 474.756 268.019C474.539 267.997 474.34 267.986 474.161 267.986C473.704 267.986 473.307 268.046 472.97 268.165C472.641 268.278 472.364 268.446 472.139 268.671C471.922 268.895 471.757 269.169 471.645 269.491C471.54 269.813 471.48 270.179 471.465 270.591L470.814 270.389C470.814 269.603 470.893 268.88 471.05 268.222C471.207 267.555 471.435 266.975 471.735 266.481C472.042 265.987 472.416 265.605 472.858 265.335C473.3 265.066 473.805 264.931 474.374 264.931C474.554 264.931 474.737 264.946 474.924 264.976C475.111 264.998 475.265 265.032 475.385 265.077ZM495.69 260.955V277.307H492.321L485.751 266.346V277.307H482.382V260.955H485.751L492.332 271.928V260.955H495.69ZM497.672 271.355V271.119C497.672 270.228 497.8 269.408 498.054 268.66C498.309 267.903 498.679 267.248 499.166 266.694C499.653 266.14 500.252 265.71 500.963 265.403C501.674 265.088 502.49 264.931 503.411 264.931C504.332 264.931 505.152 265.088 505.871 265.403C506.589 265.71 507.192 266.14 507.679 266.694C508.173 267.248 508.547 267.903 508.802 268.66C509.056 269.408 509.184 270.228 509.184 271.119V271.355C509.184 272.238 509.056 273.058 508.802 273.814C508.547 274.563 508.173 275.218 507.679 275.78C507.192 276.334 506.593 276.764 505.882 277.071C505.171 277.378 504.354 277.532 503.434 277.532C502.513 277.532 501.693 277.378 500.974 277.071C500.263 276.764 499.66 276.334 499.166 275.78C498.679 275.218 498.309 274.563 498.054 273.814C497.8 273.058 497.672 272.238 497.672 271.355ZM500.907 271.119V271.355C500.907 271.864 500.952 272.339 501.041 272.781C501.131 273.223 501.274 273.612 501.468 273.949C501.67 274.279 501.932 274.537 502.254 274.724C502.576 274.911 502.969 275.005 503.434 275.005C503.883 275.005 504.268 274.911 504.59 274.724C504.912 274.537 505.171 274.279 505.365 273.949C505.56 273.612 505.702 273.223 505.792 272.781C505.889 272.339 505.938 271.864 505.938 271.355V271.119C505.938 270.625 505.889 270.161 505.792 269.726C505.702 269.285 505.556 268.895 505.354 268.558C505.159 268.214 504.901 267.945 504.579 267.75C504.257 267.555 503.868 267.458 503.411 267.458C502.954 267.458 502.565 267.555 502.243 267.75C501.929 267.945 501.67 268.214 501.468 268.558C501.274 268.895 501.131 269.285 501.041 269.726C500.952 270.161 500.907 270.625 500.907 271.119ZM518.118 274.657V260.057H521.374V277.307H518.443L518.118 274.657ZM510.436 271.377V271.141C510.436 270.213 510.541 269.371 510.75 268.615C510.96 267.851 511.267 267.196 511.671 266.649C512.076 266.103 512.573 265.68 513.165 265.38C513.756 265.081 514.43 264.931 515.186 264.931C515.898 264.931 516.519 265.081 517.051 265.38C517.59 265.68 518.046 266.106 518.421 266.661C518.803 267.207 519.11 267.855 519.342 268.603C519.574 269.345 519.742 270.157 519.847 271.04V271.557C519.742 272.403 519.574 273.189 519.342 273.915C519.11 274.642 518.803 275.278 518.421 275.825C518.046 276.364 517.59 276.783 517.051 277.082C516.512 277.382 515.883 277.532 515.164 277.532C514.408 277.532 513.734 277.378 513.143 277.071C512.559 276.764 512.064 276.334 511.66 275.78C511.263 275.226 510.96 274.574 510.75 273.826C510.541 273.077 510.436 272.261 510.436 271.377ZM513.67 271.141V271.377C513.67 271.879 513.708 272.347 513.783 272.781C513.865 273.215 513.996 273.601 514.176 273.938C514.363 274.267 514.602 274.526 514.894 274.713C515.194 274.892 515.557 274.982 515.984 274.982C516.538 274.982 516.995 274.859 517.354 274.612C517.713 274.357 517.987 274.009 518.174 273.567C518.368 273.126 518.481 272.616 518.511 272.04V270.569C518.488 270.097 518.421 269.674 518.309 269.3C518.204 268.918 518.046 268.592 517.837 268.323C517.635 268.053 517.38 267.843 517.073 267.694C516.774 267.544 516.418 267.469 516.006 267.469C515.587 267.469 515.228 267.566 514.928 267.761C514.629 267.948 514.385 268.207 514.198 268.536C514.018 268.865 513.884 269.255 513.794 269.704C513.712 270.146 513.67 270.625 513.67 271.141ZM529.264 277.532C528.321 277.532 527.475 277.382 526.726 277.082C525.977 276.775 525.341 276.352 524.817 275.813C524.3 275.274 523.903 274.649 523.626 273.938C523.349 273.219 523.211 272.455 523.211 271.647V271.198C523.211 270.277 523.342 269.434 523.604 268.671C523.866 267.907 524.24 267.245 524.727 266.683C525.221 266.121 525.82 265.691 526.524 265.391C527.228 265.085 528.021 264.931 528.905 264.931C529.766 264.931 530.529 265.073 531.196 265.358C531.862 265.642 532.42 266.047 532.869 266.571C533.326 267.095 533.67 267.724 533.902 268.457C534.134 269.184 534.25 269.992 534.25 270.883V272.231H524.592V270.075H531.072V269.828C531.072 269.378 530.99 268.978 530.825 268.626C530.668 268.266 530.428 267.982 530.106 267.772C529.784 267.563 529.373 267.458 528.871 267.458C528.444 267.458 528.077 267.551 527.77 267.739C527.463 267.926 527.213 268.188 527.018 268.525C526.831 268.862 526.689 269.259 526.591 269.715C526.501 270.164 526.456 270.659 526.456 271.198V271.647C526.456 272.134 526.524 272.583 526.659 272.995C526.801 273.406 526.999 273.762 527.254 274.061C527.516 274.361 527.83 274.593 528.197 274.758C528.572 274.922 528.995 275.005 529.466 275.005C530.05 275.005 530.593 274.892 531.095 274.668C531.604 274.436 532.042 274.088 532.409 273.623L533.981 275.33C533.726 275.697 533.378 276.049 532.936 276.386C532.502 276.723 531.978 277 531.364 277.217C530.75 277.427 530.05 277.532 529.264 277.532Z" fill="#65728A"/>
<path d="M93.8114 274.483H87.3438V306.102H93.8114V274.483Z" fill="#F5516C"/>
<path d="M105.663 274.483H99.1953V306.102H105.663V274.483Z" fill="#F5516C"/>
<path d="M81.8642 274.483H75.3965V306.102H81.8642V274.483Z" fill="#F5516C"/>
<path d="M129.463 274.483H122.995V306.102H129.463V274.483Z" fill="#F5516C"/>
<path d="M117.528 274.483H111.061V306.102H117.528V274.483Z" fill="#F5516C"/>
<path fill-rule="evenodd" clip-rule="evenodd" d="M66.9339 268.367L102.414 253.558L137.803 268.367H137.809V272.451H66.9336V268.367V268.367H66.9339Z" fill="#F5516C"/>
<path d="M136.55 308.332H68.2803V313.558H136.55V308.332Z" fill="#F5516C"/>
<path d="M48.707 239.373H45.0547L45.0352 237.361H48.1016C48.6419 237.361 49.0846 237.293 49.4297 237.156C49.7747 237.013 50.0319 236.808 50.2012 236.541C50.377 236.267 50.4648 235.935 50.4648 235.545C50.4648 235.102 50.3802 234.744 50.2109 234.471C50.0482 234.197 49.791 233.999 49.4395 233.875C49.0944 233.751 48.6484 233.689 48.1016 233.689H46.0703V245.613H43.1406V231.394H48.1016C48.9284 231.394 49.6673 231.473 50.3184 231.629C50.9759 231.785 51.5326 232.023 51.9883 232.342C52.444 232.661 52.7923 233.064 53.0332 233.553C53.2741 234.034 53.3945 234.607 53.3945 235.271C53.3945 235.857 53.2611 236.398 52.9941 236.892C52.7337 237.387 52.3203 237.791 51.7539 238.103C51.194 238.416 50.4616 238.588 49.5566 238.621L48.707 239.373ZM48.5801 245.613H44.2539L45.3965 243.328H48.5801C49.0944 243.328 49.5143 243.247 49.8398 243.084C50.1654 242.915 50.4062 242.687 50.5625 242.4C50.7188 242.114 50.7969 241.785 50.7969 241.414C50.7969 240.997 50.7253 240.636 50.582 240.33C50.4453 240.024 50.224 239.79 49.918 239.627C49.612 239.458 49.2083 239.373 48.707 239.373H45.8848L45.9043 237.361H49.4199L50.0938 238.152C50.9596 238.139 51.6562 238.292 52.1836 238.611C52.7174 238.924 53.1048 239.331 53.3457 239.832C53.5931 240.333 53.7168 240.87 53.7168 241.443C53.7168 242.355 53.5182 243.123 53.1211 243.748C52.724 244.366 52.1413 244.832 51.373 245.144C50.6113 245.457 49.6803 245.613 48.5801 245.613ZM61.6953 233.826L57.8281 245.613H54.7129L59.9961 231.394H61.9785L61.6953 233.826ZM64.9082 245.613L61.0312 233.826L60.7188 231.394H62.7207L68.0332 245.613H64.9082ZM64.7324 240.32V242.615H57.2227V240.32H64.7324ZM80.9238 231.394V245.613H77.9941L72.2812 236.082V245.613H69.3516V231.394H72.2812L78.0039 240.935V231.394H80.9238ZM86.4023 231.394V245.613H83.4727V231.394H86.4023ZM94.918 231.394L89.2832 238.416L86.0312 241.912L85.5039 239.139L87.7012 236.131L91.3242 231.394H94.918ZM91.5879 245.613L87.3984 239.041L89.5664 237.224L95.0547 245.613H91.5879ZM99.1172 231.394V245.613H96.1875V231.394H99.1172ZM107.633 231.394L101.998 238.416L98.7461 241.912L98.2188 239.139L100.416 236.131L104.039 231.394H107.633ZM104.303 245.613L100.113 239.041L102.281 237.224L107.77 245.613H104.303ZM120.27 238.172V238.846C120.27 239.926 120.123 240.896 119.83 241.756C119.537 242.615 119.124 243.348 118.59 243.953C118.056 244.552 117.418 245.011 116.676 245.33C115.94 245.649 115.123 245.808 114.225 245.808C113.333 245.808 112.516 245.649 111.773 245.33C111.038 245.011 110.4 244.552 109.859 243.953C109.319 243.348 108.899 242.615 108.6 241.756C108.307 240.896 108.16 239.926 108.16 238.846V238.172C108.16 237.085 108.307 236.114 108.6 235.262C108.893 234.402 109.306 233.67 109.84 233.064C110.38 232.459 111.018 231.997 111.754 231.678C112.496 231.359 113.313 231.199 114.205 231.199C115.104 231.199 115.921 231.359 116.656 231.678C117.398 231.997 118.036 232.459 118.57 233.064C119.111 233.67 119.527 234.402 119.82 235.262C120.12 236.114 120.27 237.085 120.27 238.172ZM117.311 238.846V238.152C117.311 237.397 117.242 236.733 117.105 236.16C116.969 235.587 116.767 235.105 116.5 234.715C116.233 234.324 115.908 234.031 115.523 233.836C115.139 233.634 114.7 233.533 114.205 233.533C113.71 233.533 113.271 233.634 112.887 233.836C112.509 234.031 112.187 234.324 111.92 234.715C111.66 235.105 111.461 235.587 111.324 236.16C111.188 236.733 111.119 237.397 111.119 238.152V238.846C111.119 239.594 111.188 240.258 111.324 240.838C111.461 241.411 111.663 241.896 111.93 242.293C112.197 242.683 112.522 242.98 112.906 243.182C113.29 243.383 113.73 243.484 114.225 243.484C114.719 243.484 115.159 243.383 115.543 243.182C115.927 242.98 116.249 242.683 116.51 242.293C116.77 241.896 116.969 241.411 117.105 240.838C117.242 240.258 117.311 239.594 117.311 238.846ZM133.951 231.394V245.613H131.021L125.309 236.082V245.613H122.379V231.394H125.309L131.031 240.935V231.394H133.951ZM142.564 231.394V245.613H139.645V231.394H142.564ZM146.939 231.394V233.689H135.338V231.394H146.939ZM160.016 238.172V238.846C160.016 239.926 159.869 240.896 159.576 241.756C159.283 242.615 158.87 243.348 158.336 243.953C157.802 244.552 157.164 245.011 156.422 245.33C155.686 245.649 154.869 245.808 153.971 245.808C153.079 245.808 152.262 245.649 151.52 245.33C150.784 245.011 150.146 244.552 149.605 243.953C149.065 243.348 148.645 242.615 148.346 241.756C148.053 240.896 147.906 239.926 147.906 238.846V238.172C147.906 237.085 148.053 236.114 148.346 235.262C148.639 234.402 149.052 233.67 149.586 233.064C150.126 232.459 150.764 231.997 151.5 231.678C152.242 231.359 153.059 231.199 153.951 231.199C154.85 231.199 155.667 231.359 156.402 231.678C157.145 231.997 157.783 232.459 158.316 233.064C158.857 233.67 159.273 234.402 159.566 235.262C159.866 236.114 160.016 237.085 160.016 238.172ZM157.057 238.846V238.152C157.057 237.397 156.988 236.733 156.852 236.16C156.715 235.587 156.513 235.105 156.246 234.715C155.979 234.324 155.654 234.031 155.27 233.836C154.885 233.634 154.446 233.533 153.951 233.533C153.456 233.533 153.017 233.634 152.633 233.836C152.255 234.031 151.933 234.324 151.666 234.715C151.406 235.105 151.207 235.587 151.07 236.16C150.934 236.733 150.865 237.397 150.865 238.152V238.846C150.865 239.594 150.934 240.258 151.07 240.838C151.207 241.411 151.409 241.896 151.676 242.293C151.943 242.683 152.268 242.98 152.652 243.182C153.036 243.383 153.476 243.484 153.971 243.484C154.465 243.484 154.905 243.383 155.289 243.182C155.673 242.98 155.995 242.683 156.256 242.293C156.516 241.896 156.715 241.411 156.852 240.838C156.988 240.258 157.057 239.594 157.057 238.846Z" fill="#0A355C"/>
<path d="M306.301 70.8857H302.741L302.763 68.2578H306.301C307.184 68.2578 307.929 68.0594 308.536 67.6626C309.142 67.2583 309.599 66.6706 309.906 65.8994C310.22 65.1283 310.377 64.1961 310.377 63.103V62.3057C310.377 61.4671 310.288 60.7297 310.108 60.0933C309.936 59.4569 309.677 58.9215 309.333 58.4873C308.989 58.0531 308.566 57.7274 308.064 57.5103C307.562 57.2856 306.986 57.1733 306.334 57.1733H302.673V54.5342H306.334C307.428 54.5342 308.427 54.7214 309.333 55.0957C310.246 55.4626 311.036 55.9904 311.703 56.6792C312.369 57.368 312.882 58.1916 313.241 59.1499C313.608 60.1007 313.792 61.1602 313.792 62.3281V63.103C313.792 64.2635 313.608 65.3229 313.241 66.2812C312.882 67.2396 312.369 68.0632 311.703 68.752C311.044 69.4333 310.254 69.9611 309.333 70.3354C308.42 70.7023 307.409 70.8857 306.301 70.8857ZM304.65 54.5342V70.8857H301.281V54.5342H304.65ZM321.63 71.1104C320.687 71.1104 319.841 70.9606 319.092 70.6611C318.344 70.3542 317.707 69.9312 317.183 69.3921C316.667 68.853 316.27 68.2279 315.993 67.5166C315.716 66.7979 315.577 66.0342 315.577 65.2256V64.7764C315.577 63.8555 315.708 63.0132 315.97 62.2495C316.232 61.4858 316.607 60.8232 317.093 60.2617C317.587 59.7002 318.186 59.2697 318.89 58.9702C319.594 58.6632 320.388 58.5098 321.271 58.5098C322.132 58.5098 322.896 58.652 323.562 58.9365C324.228 59.221 324.786 59.6253 325.235 60.1494C325.692 60.6735 326.036 61.3024 326.269 62.0361C326.501 62.7624 326.617 63.571 326.617 64.4619V65.8096H316.958V63.6533H323.438V63.4062C323.438 62.957 323.356 62.5565 323.191 62.2046C323.034 61.8452 322.795 61.5607 322.473 61.3511C322.151 61.1414 321.739 61.0366 321.237 61.0366C320.811 61.0366 320.444 61.1302 320.137 61.3174C319.83 61.5046 319.579 61.7666 319.384 62.1035C319.197 62.4404 319.055 62.8372 318.958 63.2939C318.868 63.7432 318.823 64.2373 318.823 64.7764V65.2256C318.823 65.7122 318.89 66.1615 319.025 66.5732C319.167 66.985 319.366 67.3407 319.62 67.6401C319.882 67.9396 320.197 68.1717 320.563 68.3364C320.938 68.5011 321.361 68.5835 321.833 68.5835C322.417 68.5835 322.959 68.4712 323.461 68.2466C323.97 68.0145 324.408 67.6663 324.775 67.2021L326.347 68.9092C326.093 69.276 325.744 69.6279 325.303 69.9648C324.868 70.3018 324.344 70.5788 323.73 70.7959C323.117 71.0055 322.417 71.1104 321.63 71.1104ZM331.693 61.0703V75.5576H328.458V58.7344H331.457L331.693 61.0703ZM339.386 64.6753V64.9111C339.386 65.7946 339.281 66.6144 339.071 67.3706C338.869 68.1268 338.57 68.7856 338.173 69.3472C337.776 69.9012 337.282 70.3354 336.69 70.6499C336.106 70.9569 335.433 71.1104 334.669 71.1104C333.928 71.1104 333.284 70.9606 332.737 70.6611C332.191 70.3617 331.73 69.9424 331.356 69.4033C330.989 68.8568 330.693 68.2241 330.469 67.5054C330.244 66.7866 330.072 66.0155 329.952 65.1919V64.5742C330.072 63.6908 330.244 62.8822 330.469 62.1484C330.693 61.4072 330.989 60.7671 331.356 60.228C331.73 59.6815 332.187 59.2585 332.726 58.959C333.273 58.6595 333.913 58.5098 334.646 58.5098C335.418 58.5098 336.095 58.6558 336.679 58.9478C337.271 59.2397 337.765 59.659 338.162 60.2056C338.566 60.7521 338.869 61.4035 339.071 62.1597C339.281 62.9159 339.386 63.7544 339.386 64.6753ZM336.14 64.9111V64.6753C336.14 64.1587 336.095 63.6833 336.005 63.249C335.923 62.8073 335.788 62.4217 335.601 62.0923C335.421 61.7629 335.182 61.5083 334.882 61.3286C334.59 61.1414 334.235 61.0479 333.815 61.0479C333.374 61.0479 332.996 61.119 332.681 61.2612C332.374 61.4035 332.123 61.6094 331.929 61.8789C331.734 62.1484 331.588 62.4704 331.491 62.8447C331.393 63.2191 331.333 63.6421 331.311 64.1138V65.6748C331.348 66.2288 331.453 66.7267 331.625 67.1685C331.798 67.6027 332.063 67.9471 332.423 68.2017C332.782 68.4562 333.254 68.5835 333.838 68.5835C334.265 68.5835 334.624 68.4899 334.916 68.3027C335.208 68.1081 335.444 67.8423 335.624 67.5054C335.811 67.1685 335.942 66.7791 336.017 66.3374C336.099 65.8957 336.14 65.4202 336.14 64.9111ZM340.879 64.9336V64.6978C340.879 63.8068 341.007 62.987 341.261 62.2383C341.516 61.4821 341.886 60.827 342.373 60.2729C342.86 59.7189 343.459 59.2884 344.17 58.9814C344.881 58.667 345.697 58.5098 346.618 58.5098C347.539 58.5098 348.359 58.667 349.078 58.9814C349.796 59.2884 350.399 59.7189 350.886 60.2729C351.38 60.827 351.754 61.4821 352.009 62.2383C352.263 62.987 352.391 63.8068 352.391 64.6978V64.9336C352.391 65.8171 352.263 66.6369 352.009 67.3931C351.754 68.1418 351.38 68.7969 350.886 69.3584C350.399 69.9124 349.8 70.3429 349.089 70.6499C348.378 70.9569 347.562 71.1104 346.641 71.1104C345.72 71.1104 344.9 70.9569 344.181 70.6499C343.47 70.3429 342.867 69.9124 342.373 69.3584C341.886 68.7969 341.516 68.1418 341.261 67.3931C341.007 66.6369 340.879 65.8171 340.879 64.9336ZM344.114 64.6978V64.9336C344.114 65.4427 344.159 65.9181 344.249 66.3599C344.338 66.8016 344.481 67.1909 344.675 67.5278C344.877 67.8573 345.139 68.1156 345.461 68.3027C345.783 68.4899 346.176 68.5835 346.641 68.5835C347.09 68.5835 347.475 68.4899 347.797 68.3027C348.119 68.1156 348.378 67.8573 348.572 67.5278C348.767 67.1909 348.909 66.8016 348.999 66.3599C349.096 65.9181 349.145 65.4427 349.145 64.9336V64.6978C349.145 64.2036 349.096 63.7394 348.999 63.3052C348.909 62.8634 348.763 62.4741 348.561 62.1372C348.366 61.7928 348.108 61.5233 347.786 61.3286C347.464 61.134 347.075 61.0366 346.618 61.0366C346.161 61.0366 345.772 61.134 345.45 61.3286C345.136 61.5233 344.877 61.7928 344.675 62.1372C344.481 62.4741 344.338 62.8634 344.249 63.3052C344.159 63.7394 344.114 64.2036 344.114 64.6978ZM360.948 67.5278C360.948 67.2957 360.881 67.0861 360.746 66.8989C360.611 66.7118 360.361 66.5396 359.994 66.3823C359.634 66.2176 359.114 66.0679 358.433 65.9331C357.819 65.7983 357.246 65.6299 356.714 65.4277C356.19 65.2181 355.734 64.9673 355.344 64.6753C354.962 64.3833 354.663 64.0389 354.446 63.6421C354.229 63.2378 354.12 62.7773 354.12 62.2607C354.12 61.7516 354.229 61.2725 354.446 60.8232C354.67 60.374 354.989 59.9772 355.4 59.6328C355.82 59.2809 356.329 59.0076 356.928 58.813C357.534 58.6108 358.215 58.5098 358.972 58.5098C360.027 58.5098 360.933 58.6782 361.689 59.0151C362.453 59.3521 363.037 59.8162 363.441 60.4077C363.853 60.9917 364.059 61.658 364.059 62.4067H360.825C360.825 62.0923 360.757 61.8115 360.623 61.5645C360.495 61.3099 360.293 61.1115 360.016 60.9692C359.747 60.8195 359.395 60.7446 358.96 60.7446C358.601 60.7446 358.29 60.8083 358.028 60.9355C357.766 61.0553 357.564 61.2201 357.422 61.4297C357.287 61.6318 357.22 61.8564 357.22 62.1035C357.22 62.2907 357.257 62.4591 357.332 62.6089C357.414 62.7511 357.545 62.8822 357.725 63.002C357.905 63.1217 358.137 63.234 358.421 63.3389C358.713 63.4362 359.073 63.526 359.5 63.6084C360.375 63.7881 361.158 64.0239 361.847 64.3159C362.535 64.6004 363.082 64.9897 363.486 65.4839C363.891 65.9705 364.093 66.6107 364.093 67.4043C364.093 67.9434 363.973 68.4375 363.733 68.8867C363.494 69.3359 363.149 69.729 362.7 70.0659C362.251 70.3953 361.712 70.6536 361.083 70.8408C360.462 71.0205 359.762 71.1104 358.983 71.1104C357.852 71.1104 356.894 70.9082 356.108 70.5039C355.329 70.0996 354.738 69.5868 354.333 68.9653C353.937 68.3364 353.738 67.6925 353.738 67.0337H356.804C356.819 67.4754 356.931 67.8311 357.141 68.1006C357.358 68.3701 357.632 68.5648 357.961 68.6846C358.298 68.8044 358.661 68.8643 359.05 68.8643C359.47 68.8643 359.818 68.8081 360.095 68.6958C360.372 68.576 360.581 68.4188 360.724 68.2241C360.873 68.022 360.948 67.7899 360.948 67.5278ZM369.607 58.7344V70.8857H366.361V58.7344H369.607ZM366.159 55.5674C366.159 55.0957 366.324 54.7064 366.653 54.3994C366.983 54.0924 367.424 53.939 367.979 53.939C368.525 53.939 368.963 54.0924 369.292 54.3994C369.629 54.7064 369.798 55.0957 369.798 55.5674C369.798 56.0391 369.629 56.4284 369.292 56.7354C368.963 57.0423 368.525 57.1958 367.979 57.1958C367.424 57.1958 366.983 57.0423 366.653 56.7354C366.324 56.4284 366.159 56.0391 366.159 55.5674ZM378.232 58.7344V61.0254H371.157V58.7344H378.232ZM372.909 55.7358H376.143V67.2246C376.143 67.5765 376.188 67.846 376.278 68.0332C376.375 68.2204 376.517 68.3514 376.705 68.4263C376.892 68.4937 377.128 68.5273 377.412 68.5273C377.614 68.5273 377.794 68.5199 377.951 68.5049C378.116 68.4824 378.254 68.46 378.367 68.4375L378.378 70.8184C378.101 70.9082 377.801 70.9793 377.479 71.0317C377.158 71.0841 376.802 71.1104 376.413 71.1104C375.701 71.1104 375.08 70.9943 374.548 70.7622C374.024 70.5226 373.62 70.1408 373.335 69.6167C373.051 69.0926 372.909 68.4038 372.909 67.5503V55.7358ZM304.886 84.3306L300.438 97.8857H296.856L302.932 81.5342H305.211L304.886 84.3306ZM308.581 97.8857L304.122 84.3306L303.763 81.5342H306.065L312.174 97.8857H308.581ZM308.378 91.7988V94.438H299.742V91.7988H308.378ZM320.665 95.2354V80.6357H323.921V97.8857H320.99L320.665 95.2354ZM312.983 91.9561V91.7202C312.983 90.7918 313.088 89.9495 313.297 89.1934C313.507 88.4297 313.814 87.7746 314.218 87.228C314.623 86.6815 315.12 86.2585 315.712 85.959C316.303 85.6595 316.977 85.5098 317.733 85.5098C318.445 85.5098 319.066 85.6595 319.598 85.959C320.137 86.2585 320.593 86.6852 320.968 87.2393C321.35 87.7858 321.657 88.4334 321.889 89.1821C322.121 89.9233 322.289 90.7357 322.394 91.6191V92.1357C322.289 92.9818 322.121 93.7679 321.889 94.4941C321.657 95.2204 321.35 95.8568 320.968 96.4033C320.593 96.9424 320.137 97.3617 319.598 97.6611C319.059 97.9606 318.43 98.1104 317.711 98.1104C316.955 98.1104 316.281 97.9569 315.689 97.6499C315.105 97.3429 314.611 96.9124 314.207 96.3584C313.81 95.8044 313.507 95.153 313.297 94.4043C313.088 93.6556 312.983 92.8395 312.983 91.9561ZM316.217 91.7202V91.9561C316.217 92.4577 316.255 92.9256 316.33 93.3599C316.412 93.7941 316.543 94.1797 316.723 94.5166C316.91 94.846 317.149 95.1043 317.441 95.2915C317.741 95.4712 318.104 95.561 318.531 95.561C319.085 95.561 319.542 95.4375 319.901 95.1904C320.26 94.9359 320.534 94.5877 320.721 94.146C320.915 93.7043 321.028 93.1951 321.058 92.6187V91.1475C321.035 90.6758 320.968 90.2528 320.855 89.8784C320.751 89.4966 320.593 89.1709 320.384 88.9014C320.182 88.6318 319.927 88.4222 319.62 88.2725C319.321 88.1227 318.965 88.0479 318.553 88.0479C318.134 88.0479 317.775 88.1452 317.475 88.3398C317.176 88.527 316.932 88.7853 316.745 89.1147C316.565 89.4442 316.431 89.8335 316.341 90.2827C316.258 90.7244 316.217 91.2036 316.217 91.7202ZM329.683 88.3848V97.8857H326.448V85.7344H329.492L329.683 88.3848ZM333.344 85.6558L333.288 88.6543C333.13 88.6318 332.939 88.6131 332.715 88.5981C332.498 88.5757 332.299 88.5645 332.12 88.5645C331.663 88.5645 331.266 88.6243 330.929 88.7441C330.6 88.8564 330.323 89.0249 330.098 89.2495C329.881 89.4741 329.716 89.7474 329.604 90.0693C329.499 90.3913 329.439 90.7581 329.424 91.1699L328.773 90.9678C328.773 90.1816 328.852 89.4591 329.009 88.8003C329.166 88.134 329.394 87.5537 329.694 87.0596C330.001 86.5654 330.375 86.1836 330.817 85.9141C331.259 85.6445 331.764 85.5098 332.333 85.5098C332.513 85.5098 332.696 85.5247 332.883 85.5547C333.07 85.5771 333.224 85.6108 333.344 85.6558ZM340.239 98.1104C339.296 98.1104 338.45 97.9606 337.701 97.6611C336.952 97.3542 336.316 96.9312 335.792 96.3921C335.275 95.853 334.879 95.2279 334.602 94.5166C334.325 93.7979 334.186 93.0342 334.186 92.2256V91.7764C334.186 90.8555 334.317 90.0132 334.579 89.2495C334.841 88.4858 335.215 87.8232 335.702 87.2617C336.196 86.7002 336.795 86.2697 337.499 85.9702C338.203 85.6632 338.996 85.5098 339.88 85.5098C340.741 85.5098 341.505 85.652 342.171 85.9365C342.837 86.221 343.395 86.6253 343.844 87.1494C344.301 87.6735 344.645 88.3024 344.877 89.0361C345.11 89.7624 345.226 90.571 345.226 91.4619V92.8096H335.567V90.6533H342.047V90.4062C342.047 89.957 341.965 89.5565 341.8 89.2046C341.643 88.8452 341.403 88.5607 341.082 88.3511C340.76 88.1414 340.348 88.0366 339.846 88.0366C339.419 88.0366 339.053 88.1302 338.746 88.3174C338.439 88.5046 338.188 88.7666 337.993 89.1035C337.806 89.4404 337.664 89.8372 337.566 90.2939C337.477 90.7432 337.432 91.2373 337.432 91.7764V92.2256C337.432 92.7122 337.499 93.1615 337.634 93.5732C337.776 93.985 337.974 94.3407 338.229 94.6401C338.491 94.9396 338.806 95.1717 339.172 95.3364C339.547 95.5011 339.97 95.5835 340.441 95.5835C341.025 95.5835 341.568 95.4712 342.07 95.2466C342.579 95.0145 343.017 94.6663 343.384 94.2021L344.956 95.9092C344.701 96.276 344.353 96.6279 343.912 96.9648C343.477 97.3018 342.953 97.5788 342.339 97.7959C341.725 98.0055 341.025 98.1104 340.239 98.1104ZM353.637 94.5278C353.637 94.2957 353.57 94.0861 353.435 93.8989C353.3 93.7118 353.049 93.5396 352.683 93.3823C352.323 93.2176 351.803 93.0679 351.122 92.9331C350.508 92.7983 349.935 92.6299 349.403 92.4277C348.879 92.2181 348.423 91.9673 348.033 91.6753C347.651 91.3833 347.352 91.0389 347.135 90.6421C346.918 90.2378 346.809 89.7773 346.809 89.2607C346.809 88.7516 346.918 88.2725 347.135 87.8232C347.359 87.374 347.678 86.9772 348.089 86.6328C348.509 86.2809 349.018 86.0076 349.617 85.813C350.223 85.6108 350.904 85.5098 351.661 85.5098C352.716 85.5098 353.622 85.6782 354.378 86.0151C355.142 86.3521 355.726 86.8162 356.13 87.4077C356.542 87.9917 356.748 88.658 356.748 89.4067H353.514C353.514 89.0923 353.446 88.8115 353.312 88.5645C353.184 88.3099 352.982 88.1115 352.705 87.9692C352.436 87.8195 352.084 87.7446 351.649 87.7446C351.29 87.7446 350.979 87.8083 350.717 87.9355C350.455 88.0553 350.253 88.2201 350.111 88.4297C349.976 88.6318 349.909 88.8564 349.909 89.1035C349.909 89.2907 349.946 89.4591 350.021 89.6089C350.103 89.7511 350.234 89.8822 350.414 90.002C350.594 90.1217 350.826 90.234 351.11 90.3389C351.402 90.4362 351.762 90.526 352.188 90.6084C353.064 90.7881 353.847 91.0239 354.536 91.3159C355.224 91.6004 355.771 91.9897 356.175 92.4839C356.58 92.9705 356.782 93.6107 356.782 94.4043C356.782 94.9434 356.662 95.4375 356.422 95.8867C356.183 96.3359 355.838 96.729 355.389 97.0659C354.94 97.3953 354.401 97.6536 353.772 97.8408C353.151 98.0205 352.451 98.1104 351.672 98.1104C350.541 98.1104 349.583 97.9082 348.797 97.5039C348.018 97.0996 347.427 96.5868 347.022 95.9653C346.626 95.3364 346.427 94.6925 346.427 94.0337H349.493C349.508 94.4754 349.62 94.8311 349.83 95.1006C350.047 95.3701 350.32 95.5648 350.65 95.6846C350.987 95.8044 351.35 95.8643 351.739 95.8643C352.159 95.8643 352.507 95.8081 352.784 95.6958C353.061 95.576 353.27 95.4188 353.413 95.2241C353.562 95.022 353.637 94.7899 353.637 94.5278ZM365.452 94.5278C365.452 94.2957 365.384 94.0861 365.25 93.8989C365.115 93.7118 364.864 93.5396 364.497 93.3823C364.138 93.2176 363.617 93.0679 362.936 92.9331C362.322 92.7983 361.749 92.6299 361.218 92.4277C360.694 92.2181 360.237 91.9673 359.848 91.6753C359.466 91.3833 359.166 91.0389 358.949 90.6421C358.732 90.2378 358.624 89.7773 358.624 89.2607C358.624 88.7516 358.732 88.2725 358.949 87.8232C359.174 87.374 359.492 86.9772 359.904 86.6328C360.323 86.2809 360.832 86.0076 361.431 85.813C362.038 85.6108 362.719 85.5098 363.475 85.5098C364.531 85.5098 365.437 85.6782 366.193 86.0151C366.957 86.3521 367.541 86.8162 367.945 87.4077C368.357 87.9917 368.562 88.658 368.562 89.4067H365.328C365.328 89.0923 365.261 88.8115 365.126 88.5645C364.999 88.3099 364.797 88.1115 364.52 87.9692C364.25 87.8195 363.898 87.7446 363.464 87.7446C363.104 87.7446 362.794 87.8083 362.532 87.9355C362.27 88.0553 362.068 88.2201 361.925 88.4297C361.791 88.6318 361.723 88.8564 361.723 89.1035C361.723 89.2907 361.761 89.4591 361.835 89.6089C361.918 89.7511 362.049 89.8822 362.229 90.002C362.408 90.1217 362.64 90.234 362.925 90.3389C363.217 90.4362 363.576 90.526 364.003 90.6084C364.879 90.7881 365.661 91.0239 366.35 91.3159C367.039 91.6004 367.585 91.9897 367.99 92.4839C368.394 92.9705 368.596 93.6107 368.596 94.4043C368.596 94.9434 368.476 95.4375 368.237 95.8867C367.997 96.3359 367.653 96.729 367.204 97.0659C366.754 97.3953 366.215 97.6536 365.586 97.8408C364.965 98.0205 364.265 98.1104 363.486 98.1104C362.356 98.1104 361.397 97.9082 360.611 97.5039C359.833 97.0996 359.241 96.5868 358.837 95.9653C358.44 95.3364 358.242 94.6925 358.242 94.0337H361.308C361.323 94.4754 361.435 94.8311 361.645 95.1006C361.862 95.3701 362.135 95.5648 362.464 95.6846C362.801 95.8044 363.164 95.8643 363.554 95.8643C363.973 95.8643 364.321 95.8081 364.598 95.6958C364.875 95.576 365.085 95.4188 365.227 95.2241C365.377 95.022 365.452 94.7899 365.452 94.5278ZM376.289 98.1104C375.346 98.1104 374.5 97.9606 373.751 97.6611C373.002 97.3542 372.366 96.9312 371.842 96.3921C371.325 95.853 370.928 95.2279 370.651 94.5166C370.374 93.7979 370.236 93.0342 370.236 92.2256V91.7764C370.236 90.8555 370.367 90.0132 370.629 89.2495C370.891 88.4858 371.265 87.8232 371.752 87.2617C372.246 86.7002 372.845 86.2697 373.549 85.9702C374.253 85.6632 375.046 85.5098 375.93 85.5098C376.791 85.5098 377.554 85.652 378.221 85.9365C378.887 86.221 379.445 86.6253 379.894 87.1494C380.351 87.6735 380.695 88.3024 380.927 89.0361C381.159 89.7624 381.275 90.571 381.275 91.4619V92.8096H371.617V90.6533H378.097V90.4062C378.097 89.957 378.015 89.5565 377.85 89.2046C377.693 88.8452 377.453 88.5607 377.131 88.3511C376.809 88.1414 376.398 88.0366 375.896 88.0366C375.469 88.0366 375.102 88.1302 374.795 88.3174C374.488 88.5046 374.238 88.7666 374.043 89.1035C373.856 89.4404 373.714 89.8372 373.616 90.2939C373.526 90.7432 373.481 91.2373 373.481 91.7764V92.2256C373.481 92.7122 373.549 93.1615 373.684 93.5732C373.826 93.985 374.024 94.3407 374.279 94.6401C374.541 94.9396 374.855 95.1717 375.222 95.3364C375.597 95.5011 376.02 95.5835 376.491 95.5835C377.075 95.5835 377.618 95.4712 378.12 95.2466C378.629 95.0145 379.067 94.6663 379.434 94.2021L381.006 95.9092C380.751 96.276 380.403 96.6279 379.961 96.9648C379.527 97.3018 379.003 97.5788 378.389 97.7959C377.775 98.0055 377.075 98.1104 376.289 98.1104Z" fill="#0A355C"/>
<path d="M481.588 77.0571H477.422V74.4292H481.588C482.232 74.4292 482.756 74.3244 483.161 74.1147C483.565 73.8976 483.861 73.5981 484.048 73.2163C484.235 72.8345 484.329 72.404 484.329 71.9248C484.329 71.4382 484.235 70.9852 484.048 70.5659C483.861 70.1466 483.565 69.8097 483.161 69.5552C482.756 69.3006 482.232 69.1733 481.588 69.1733H478.59V82.8857H475.221V66.5342H481.588C482.869 66.5342 483.965 66.7663 484.879 67.2305C485.8 67.6872 486.504 68.3198 486.99 69.1284C487.477 69.937 487.72 70.8617 487.72 71.9023C487.72 72.958 487.477 73.8714 486.99 74.6426C486.504 75.4137 485.8 76.009 484.879 76.4282C483.965 76.8475 482.869 77.0571 481.588 77.0571ZM489.169 76.9336V76.6978C489.169 75.8068 489.296 74.987 489.551 74.2383C489.805 73.4821 490.176 72.827 490.663 72.2729C491.149 71.7189 491.748 71.2884 492.459 70.9814C493.171 70.667 493.987 70.5098 494.908 70.5098C495.829 70.5098 496.648 70.667 497.367 70.9814C498.086 71.2884 498.689 71.7189 499.175 72.2729C499.669 72.827 500.044 73.4821 500.298 74.2383C500.553 74.987 500.68 75.8068 500.68 76.6978V76.9336C500.68 77.8171 500.553 78.6369 500.298 79.3931C500.044 80.1418 499.669 80.7969 499.175 81.3584C498.689 81.9124 498.09 82.3429 497.378 82.6499C496.667 82.9569 495.851 83.1104 494.93 83.1104C494.009 83.1104 493.189 82.9569 492.471 82.6499C491.759 82.3429 491.157 81.9124 490.663 81.3584C490.176 80.7969 489.805 80.1418 489.551 79.3931C489.296 78.6369 489.169 77.8171 489.169 76.9336ZM492.403 76.6978V76.9336C492.403 77.4427 492.448 77.9181 492.538 78.3599C492.628 78.8016 492.77 79.1909 492.965 79.5278C493.167 79.8573 493.429 80.1156 493.751 80.3027C494.073 80.4899 494.466 80.5835 494.93 80.5835C495.379 80.5835 495.765 80.4899 496.087 80.3027C496.409 80.1156 496.667 79.8573 496.862 79.5278C497.056 79.1909 497.199 78.8016 497.289 78.3599C497.386 77.9181 497.435 77.4427 497.435 76.9336V76.6978C497.435 76.2036 497.386 75.7394 497.289 75.3052C497.199 74.8634 497.053 74.4741 496.851 74.1372C496.656 73.7928 496.398 73.5233 496.076 73.3286C495.754 73.134 495.364 73.0366 494.908 73.0366C494.451 73.0366 494.062 73.134 493.74 73.3286C493.425 73.5233 493.167 73.7928 492.965 74.1372C492.77 74.4741 492.628 74.8634 492.538 75.3052C492.448 75.7394 492.403 76.2036 492.403 76.6978ZM502.151 76.9336V76.6978C502.151 75.8068 502.279 74.987 502.533 74.2383C502.788 73.4821 503.158 72.827 503.645 72.2729C504.132 71.7189 504.731 71.2884 505.442 70.9814C506.153 70.667 506.969 70.5098 507.89 70.5098C508.811 70.5098 509.631 70.667 510.35 70.9814C511.068 71.2884 511.671 71.7189 512.158 72.2729C512.652 72.827 513.026 73.4821 513.281 74.2383C513.535 74.987 513.663 75.8068 513.663 76.6978V76.9336C513.663 77.8171 513.535 78.6369 513.281 79.3931C513.026 80.1418 512.652 80.7969 512.158 81.3584C511.671 81.9124 511.072 82.3429 510.361 82.6499C509.65 82.9569 508.833 83.1104 507.913 83.1104C506.992 83.1104 506.172 82.9569 505.453 82.6499C504.742 82.3429 504.139 81.9124 503.645 81.3584C503.158 80.7969 502.788 80.1418 502.533 79.3931C502.279 78.6369 502.151 77.8171 502.151 76.9336ZM505.386 76.6978V76.9336C505.386 77.4427 505.431 77.9181 505.521 78.3599C505.61 78.8016 505.753 79.1909 505.947 79.5278C506.149 79.8573 506.411 80.1156 506.733 80.3027C507.055 80.4899 507.448 80.5835 507.913 80.5835C508.362 80.5835 508.747 80.4899 509.069 80.3027C509.391 80.1156 509.65 79.8573 509.844 79.5278C510.039 79.1909 510.181 78.8016 510.271 78.3599C510.368 77.9181 510.417 77.4427 510.417 76.9336V76.6978C510.417 76.2036 510.368 75.7394 510.271 75.3052C510.181 74.8634 510.035 74.4741 509.833 74.1372C509.638 73.7928 509.38 73.5233 509.058 73.3286C508.736 73.134 508.347 73.0366 507.89 73.0366C507.433 73.0366 507.044 73.134 506.722 73.3286C506.408 73.5233 506.149 73.7928 505.947 74.1372C505.753 74.4741 505.61 74.8634 505.521 75.3052C505.431 75.7394 505.386 76.2036 505.386 76.6978ZM519.064 65.6357V82.8857H515.819V65.6357H519.064Z" fill="#65728A"/>
<path d="M55.6406 349.461H60.9434C62.0306 349.461 62.9648 349.624 63.7461 349.949C64.5339 350.275 65.1393 350.757 65.5625 351.395C65.9857 352.033 66.1973 352.817 66.1973 353.748C66.1973 354.51 66.0671 355.164 65.8066 355.711C65.5527 356.251 65.1914 356.704 64.7227 357.068C64.2604 357.426 63.7168 357.713 63.0918 357.928L62.1641 358.416H57.5547L57.5352 356.131H60.9629C61.4772 356.131 61.9036 356.04 62.2422 355.857C62.5807 355.675 62.8346 355.421 63.0039 355.096C63.1797 354.77 63.2676 354.393 63.2676 353.963C63.2676 353.507 63.1829 353.113 63.0137 352.781C62.8444 352.449 62.5872 352.195 62.2422 352.02C61.8971 351.844 61.4642 351.756 60.9434 351.756H58.5703V363.68H55.6406V349.461ZM63.5898 363.68L60.3477 357.342L63.4434 357.322L66.7246 363.543V363.68H63.5898ZM77.9941 361.395V363.68H70.4258V361.395H77.9941ZM71.3828 349.461V363.68H68.4531V349.461H71.3828ZM77.0078 355.252V357.479H70.4258V355.252H77.0078ZM77.9844 349.461V351.756H70.4258V349.461H77.9844ZM82.8184 349.461V363.68H79.8984V349.461H82.8184ZM97.1348 349.461V363.68H94.2051L88.4922 354.148V363.68H85.5625V349.461H88.4922L94.2148 359.002V349.461H97.1348ZM104.811 360.711L108.16 349.461H111.422L106.471 363.68H104.322L104.811 360.711ZM101.725 349.461L105.064 360.711L105.572 363.68H103.404L98.4824 349.461H101.725ZM122.291 361.395V363.68H114.723V361.395H122.291ZM115.68 349.461V363.68H112.75V349.461H115.68ZM121.305 355.252V357.479H114.723V355.252H121.305ZM122.281 349.461V351.756H114.723V349.461H122.281ZM131.402 359.959C131.402 359.705 131.363 359.477 131.285 359.275C131.214 359.067 131.077 358.878 130.875 358.709C130.673 358.533 130.39 358.361 130.025 358.191C129.661 358.022 129.189 357.846 128.609 357.664C127.965 357.456 127.353 357.221 126.773 356.961C126.201 356.701 125.693 356.398 125.25 356.053C124.814 355.701 124.469 355.294 124.215 354.832C123.967 354.37 123.844 353.833 123.844 353.221C123.844 352.628 123.974 352.091 124.234 351.609C124.495 351.121 124.859 350.704 125.328 350.359C125.797 350.008 126.35 349.738 126.988 349.549C127.633 349.36 128.339 349.266 129.107 349.266C130.156 349.266 131.07 349.454 131.852 349.832C132.633 350.21 133.238 350.727 133.668 351.385C134.104 352.042 134.322 352.794 134.322 353.641H131.412C131.412 353.224 131.324 352.859 131.148 352.547C130.979 352.228 130.719 351.977 130.367 351.795C130.022 351.613 129.586 351.521 129.059 351.521C128.551 351.521 128.128 351.6 127.789 351.756C127.451 351.906 127.197 352.111 127.027 352.371C126.858 352.625 126.773 352.911 126.773 353.23C126.773 353.471 126.832 353.689 126.949 353.885C127.073 354.08 127.255 354.262 127.496 354.432C127.737 354.601 128.033 354.76 128.385 354.91C128.736 355.06 129.143 355.206 129.605 355.35C130.38 355.584 131.061 355.848 131.646 356.141C132.239 356.434 132.734 356.762 133.131 357.127C133.528 357.492 133.827 357.905 134.029 358.367C134.231 358.829 134.332 359.354 134.332 359.939C134.332 360.558 134.212 361.111 133.971 361.6C133.73 362.088 133.382 362.501 132.926 362.84C132.47 363.178 131.926 363.436 131.295 363.611C130.663 363.787 129.957 363.875 129.176 363.875C128.473 363.875 127.779 363.784 127.096 363.602C126.412 363.413 125.79 363.13 125.23 362.752C124.677 362.374 124.234 361.893 123.902 361.307C123.57 360.721 123.404 360.027 123.404 359.227H126.344C126.344 359.669 126.412 360.044 126.549 360.35C126.686 360.656 126.878 360.903 127.125 361.092C127.379 361.281 127.678 361.417 128.023 361.502C128.375 361.587 128.759 361.629 129.176 361.629C129.684 361.629 130.1 361.557 130.426 361.414C130.758 361.271 131.002 361.072 131.158 360.818C131.321 360.564 131.402 360.278 131.402 359.959ZM142.682 349.461V363.68H139.762V349.461H142.682ZM147.057 349.461V351.756H135.455V349.461H147.057Z" fill="#0A355C"/>
<path d="M129.242 418.539C120.708 433.341 101.632 438.359 86.8224 429.829C72.013 421.298 66.9928 402.23 75.5271 387.427C84.0613 372.625 103.138 367.607 117.947 376.137C132.631 384.668 137.777 403.736 129.242 418.539Z" fill="#F5516C"/>
<path d="M102.578 382.359V399.741C101.612 398.775 100.784 397.948 99.6802 396.844C99.5422 395.189 99.2661 390.498 99.2661 390.498L102.026 382.221C100.37 382.221 98.7141 382.497 97.196 382.911L95.8158 386.912L91.9515 384.98C90.5714 385.808 89.1913 386.774 87.9491 388.015L94.8497 391.464L95.1258 395.603L90.9854 395.327L87.5351 388.429C86.431 389.671 85.3269 390.912 84.4988 392.43L86.431 396.292L82.2906 397.672C81.8766 399.189 81.6006 400.845 81.6006 402.638L89.8813 400.017L96.5059 400.293L99.2661 403.052L96.5059 405.811L89.8813 406.087L81.6006 403.466C81.6006 405.121 81.8766 406.777 82.2906 408.432L86.293 409.811L84.3608 413.536C85.1889 414.916 86.155 416.295 87.3971 417.399L90.8474 410.501L94.9878 410.225L94.7117 414.364L87.8111 417.813C89.0532 418.916 90.2954 420.02 91.8135 420.848L95.5398 419.054L96.9199 423.055C98.4381 423.469 100.094 423.745 101.75 423.745L99.1281 415.605C99.1281 415.605 99.4041 410.915 99.5421 409.26C100.508 408.294 101.336 407.466 102.44 406.363V423.745C113.895 423.745 123.142 414.502 123.142 403.052C123.28 391.602 114.033 382.359 102.578 382.359ZM107.271 418.502C107.271 408.156 107.271 397.948 107.271 387.601C112.239 388.705 118.588 394.223 118.864 402.5C119.14 411.605 112.239 417.399 107.271 418.502Z" fill="#F5F5F5"/>
<path d="M216.378 61.1581C212.937 67.127 205.245 69.1504 199.273 65.7107C193.302 62.271 191.278 54.5822 194.719 48.6133C198.16 42.6445 205.852 40.6211 211.824 44.0608C217.745 47.5005 219.819 55.1892 216.378 61.1581Z" fill="#F5516C"/>
<path d="M220.223 42.9361L220.22 42.9346C213.632 39.1394 205.141 41.3681 201.339 47.9629C197.542 54.5493 199.772 63.0366 206.369 66.8369C212.958 70.6321 221.449 68.4033 225.251 61.8086C229.05 55.2183 226.761 46.7343 220.223 42.9361Z" fill="#F5516C" stroke="#F5F5F5" stroke-width="1.6"/>
<path d="M213.374 46.237V53.5262C212.969 53.1213 212.622 52.7742 212.159 52.3113C212.101 51.6171 211.985 49.6502 211.985 49.6502L213.143 46.1792C212.448 46.1792 211.754 46.2949 211.117 46.4685L210.538 48.1461L208.918 47.3362C208.339 47.6833 207.76 48.0883 207.239 48.6089L210.133 50.0552L210.249 51.7907L208.513 51.675L207.066 48.7825C206.603 49.3031 206.14 49.8238 205.793 50.4601L206.603 52.0799L204.867 52.6584C204.693 53.2948 204.577 53.989 204.577 54.7411L208.05 53.6419L210.828 53.7576L211.985 54.9146L210.828 56.0716L208.05 56.1873L204.577 55.0882C204.577 55.7824 204.693 56.4766 204.867 57.1708L206.545 57.7493L205.735 59.3112C206.082 59.8898 206.487 60.4683 207.008 60.9311L208.455 58.0385L210.191 57.9228L210.075 59.6584L207.182 61.1046C207.702 61.5674 208.223 62.0302 208.86 62.3773L210.423 61.6253L211.001 63.3029C211.638 63.4765 212.333 63.5922 213.027 63.5922L211.927 60.179C211.927 60.179 212.043 58.2121 212.101 57.5179C212.506 57.1129 212.853 56.7658 213.316 56.303V63.5922C218.12 63.5922 221.998 59.7162 221.998 54.9146C222.056 50.113 218.178 46.237 213.374 46.237ZM215.342 61.3939C215.342 57.0551 215.342 52.7741 215.342 48.4354C217.426 48.8982 220.088 51.2122 220.204 54.6832C220.319 58.5013 217.426 60.9311 215.342 61.3939Z" fill="#F5F5F5"/>
<path d="M66.0713 134.718L68.9033 122.755H70.4854L70.8467 124.747L67.8291 136.974H66.1299L66.0713 134.718ZM64.6162 122.755L66.96 134.718L66.7646 136.974H64.8701L61.7158 122.755H64.6162ZM73.3369 134.669L75.6514 122.755H78.5518L75.4072 136.974H73.5127L73.3369 134.669ZM71.374 122.755L74.2256 134.766L74.1475 136.974H72.4482L69.4111 124.737L69.8018 122.755H71.374ZM85.4951 125.186L81.6279 136.974H78.5127L83.7959 122.755H85.7783L85.4951 125.186ZM88.708 136.974L84.8311 125.186L84.5186 122.755H86.5205L91.833 136.974H88.708ZM88.5322 131.681V133.975H81.0225V131.681H88.5322ZM102.292 134.688V136.974H95.1338V134.688H102.292ZM96.0811 122.755V136.974H93.1514V122.755H96.0811ZM113.112 134.688V136.974H105.954V134.688H113.112ZM106.901 122.755V136.974H103.972V122.755H106.901ZM124.333 134.688V136.974H116.765V134.688H124.333ZM117.722 122.755V136.974H114.792V122.755H117.722ZM123.347 128.546V130.772H116.765V128.546H123.347ZM124.323 122.755V125.05H116.765V122.755H124.323ZM132.595 122.755V136.974H129.675V122.755H132.595ZM136.97 122.755V125.05H125.368V122.755H136.97Z" fill="#0A355C"/>
<path fill-rule="evenodd" clip-rule="evenodd" d="M53.2914 112.886H145.094C147.598 112.886 149.655 110.55 149.655 107.655V90.0751H133.699C126.696 90.0751 121.042 84.4211 121.042 77.418C121.042 70.4148 126.696 64.7609 133.699 64.6966H149.655V47.0661C149.655 44.222 147.598 41.8857 145.094 41.8857H53.2914C50.7874 41.8857 48.7305 44.222 48.7305 47.0661V107.705C48.7305 110.55 50.7874 112.886 53.2914 112.886Z" fill="#F5516C"/>
<path d="M124.342 77.4101C124.342 82.7126 128.623 86.9935 133.925 86.9935H153.385V67.7781L133.925 67.7781C128.623 67.8267 124.342 72.1076 124.342 77.4101Z" fill="#F5516C"/>
<path d="M84.7349 59.675H71.7881V66.8813H82.6585C88.3991 66.8813 93.1626 71.6448 93.1626 77.3854C93.1626 83.126 88.3991 87.8894 82.6585 87.8894H71.7881V95.0957H84.3685C94.2619 95.0957 102.201 87.1566 102.201 77.2632C102.201 67.492 94.384 59.675 84.7349 59.675Z" fill="white"/>
<path d="M75.8003 68.2258C75.556 68.2258 75.3117 68.2258 74.9453 68.2258C77.7545 70.1801 79.7088 73.4779 79.7088 77.2642C79.7088 81.0505 77.8767 84.3483 74.9453 86.3026C75.1896 86.3026 75.4339 86.3026 75.8003 86.3026C80.808 86.3026 84.8387 82.2719 84.8387 77.2642C84.8387 72.2564 80.808 68.2258 75.8003 68.2258Z" fill="white"/>
<path d="M78.4985 77.2638C78.4985 82.6379 74.1014 87.035 68.7273 87.035C63.3531 87.035 58.9561 82.6379 58.9561 77.2638C58.9561 71.8896 63.3531 67.4926 68.7273 67.4926C74.2236 67.4926 78.4985 71.8896 78.4985 77.2638Z" fill="white"/>
</svg>
