<svg width="601" height="471" viewBox="0 0 601 471" fill="none" xmlns="http://www.w3.org/2000/svg">
<path d="M269.861 278.535C268.704 278.535 267.767 279.472 267.767 280.628C267.767 281.785 268.704 282.722 269.861 282.722C271.017 282.722 271.954 281.785 271.954 280.628C271.954 279.472 271.017 278.535 269.861 278.535Z" fill="#F5516C"/>
<path d="M259.393 278.535C258.237 278.535 257.299 279.472 257.299 280.628C257.299 281.785 258.237 282.722 259.393 282.722C260.549 282.722 261.486 281.785 261.486 280.628C261.486 279.472 260.549 278.535 259.393 278.535Z" fill="#F5516C"/>
<path d="M290.793 278.535C289.637 278.535 288.7 279.472 288.7 280.628C288.7 281.785 289.637 282.722 290.793 282.722C291.949 282.722 292.887 281.785 292.887 280.628C292.887 279.472 291.949 278.535 290.793 278.535Z" fill="#F5516C"/>
<path d="M280.326 278.535C279.169 278.535 278.232 279.472 278.232 280.628C278.232 281.785 279.169 282.722 280.326 282.722C281.482 282.722 282.419 281.785 282.419 280.628C282.419 279.472 281.482 278.535 280.326 278.535Z" fill="#F5516C"/>
<path d="M311.981 278.535C310.825 278.535 309.887 279.472 309.887 280.628C309.887 281.785 310.825 282.722 311.981 282.722C313.137 282.722 314.074 281.785 314.074 280.628C314.074 279.472 313.137 278.535 311.981 278.535Z" fill="#F5516C"/>
<path d="M301.513 278.535C300.357 278.535 299.42 279.472 299.42 280.628C299.42 281.785 300.357 282.722 301.513 282.722C302.669 282.722 303.606 281.785 303.606 280.628C303.606 279.472 302.669 278.535 301.513 278.535Z" fill="#F5516C"/>
<path d="M332.912 278.535C331.756 278.535 330.819 279.472 330.819 280.628C330.819 281.785 331.756 282.722 332.912 282.722C334.069 282.722 335.006 281.785 335.006 280.628C335.006 279.472 334.069 278.535 332.912 278.535Z" fill="#F5516C"/>
<path d="M353.843 278.535C352.687 278.535 351.75 279.472 351.75 280.628C351.75 281.785 352.687 282.722 353.843 282.722C354.999 282.722 355.937 281.785 355.937 280.628C355.937 279.472 354.999 278.535 353.843 278.535Z" fill="#F5516C"/>
<path d="M322.446 278.535C321.289 278.535 320.352 279.472 320.352 280.628C320.352 281.785 321.289 282.722 322.446 282.722C323.602 282.722 324.539 281.785 324.539 280.628C324.539 279.472 323.602 278.535 322.446 278.535Z" fill="#F5516C"/>
<path d="M343.376 278.535C342.22 278.535 341.283 279.472 341.283 280.628C341.283 281.785 342.22 282.722 343.376 282.722C344.532 282.722 345.47 281.785 345.47 280.628C345.47 279.472 344.532 278.535 343.376 278.535Z" fill="#F5516C"/>
<path d="M248.926 278.535C247.77 278.535 246.833 279.472 246.833 280.628C246.833 281.785 247.77 282.722 248.926 282.722C250.082 282.722 251.02 281.785 251.02 280.628C251.02 279.472 250.082 278.535 248.926 278.535Z" fill="#F5516C"/>
<path d="M238.458 278.535C237.302 278.535 236.365 279.472 236.365 280.628C236.365 281.785 237.302 282.722 238.458 282.722C239.614 282.722 240.552 281.785 240.552 280.628C240.552 279.472 239.614 278.535 238.458 278.535Z" fill="#F5516C"/>
<path d="M227.99 278.535C226.833 278.535 225.896 279.472 225.896 280.628C225.896 281.785 226.833 282.722 227.99 282.722C229.146 282.722 230.083 281.785 230.083 280.628C230.083 279.472 229.146 278.535 227.99 278.535Z" fill="#F5516C"/>
<path d="M217.522 278.535C216.366 278.535 215.428 279.472 215.428 280.628C215.428 281.785 216.366 282.722 217.522 282.722C218.678 282.722 219.615 281.785 219.615 280.628C219.615 279.472 218.678 278.535 217.522 278.535Z" fill="#F5516C"/>
<path d="M207.058 278.535C205.902 278.535 204.964 279.472 204.964 280.628C204.964 281.785 205.902 282.722 207.058 282.722C208.214 282.722 209.151 281.785 209.151 280.628C209.151 279.472 208.214 278.535 207.058 278.535Z" fill="#F5516C"/>
<path d="M196.59 278.535C195.434 278.535 194.497 279.472 194.497 280.628C194.497 281.785 195.434 282.722 196.59 282.722C197.746 282.722 198.684 281.785 198.684 280.628C198.684 279.472 197.746 278.535 196.59 278.535Z" fill="#F5516C"/>
<path d="M191.716 271.747L182.834 280.628L191.716 289.51" stroke="#F5516C" stroke-width="3"/>
<path d="M135.85 170.227L126.969 161.345L118.087 170.227" stroke="#F5516C" stroke-width="3"/>
<path d="M129.064 184.592C129.064 183.436 128.127 182.499 126.97 182.499C125.814 182.499 124.877 183.436 124.877 184.592C124.877 185.748 125.814 186.686 126.97 186.686C128.127 186.686 129.064 185.748 129.064 184.592Z" fill="#F5516C"/>
<path d="M129.064 174.537C129.064 173.381 128.127 172.444 126.97 172.444C125.814 172.444 124.877 173.381 124.877 174.537C124.877 175.693 125.814 176.631 126.97 176.631C128.127 176.631 129.064 175.693 129.064 174.537Z" fill="#F5516C"/>
<path d="M129.064 195.06C129.064 193.904 128.127 192.967 126.97 192.967C125.814 192.967 124.877 193.904 124.877 195.06C124.877 196.216 125.814 197.154 126.97 197.154C128.127 197.154 129.064 196.216 129.064 195.06Z" fill="#F5516C"/>
<path d="M211.217 192.967C210.061 192.967 209.124 193.904 209.124 195.06C209.124 196.217 210.061 197.154 211.217 197.154C212.373 197.154 213.311 196.217 213.311 195.06C213.311 193.904 212.373 192.967 211.217 192.967Z" fill="#F5516C"/>
<path d="M200.749 192.967C199.593 192.967 198.656 193.904 198.656 195.06C198.656 196.217 199.593 197.154 200.749 197.154C201.906 197.154 202.843 196.217 202.843 195.06C202.843 193.904 201.906 192.967 200.749 192.967Z" fill="#F5516C"/>
<path d="M232.148 192.967C230.992 192.967 230.054 193.904 230.054 195.06C230.054 196.217 230.992 197.154 232.148 197.154C233.304 197.154 234.241 196.217 234.241 195.06C234.241 193.904 233.304 192.967 232.148 192.967Z" fill="#F5516C"/>
<path d="M221.682 192.967C220.526 192.967 219.589 193.904 219.589 195.06C219.589 196.217 220.526 197.154 221.682 197.154C222.838 197.154 223.775 196.217 223.775 195.06C223.775 193.904 222.838 192.967 221.682 192.967Z" fill="#F5516C"/>
<path d="M253.335 192.967C252.179 192.967 251.242 193.904 251.242 195.06C251.242 196.217 252.179 197.154 253.335 197.154C254.491 197.154 255.429 196.217 255.429 195.06C255.429 193.904 254.491 192.967 253.335 192.967Z" fill="#F5516C"/>
<path d="M242.868 192.967C241.712 192.967 240.775 193.904 240.775 195.06C240.775 196.217 241.712 197.154 242.868 197.154C244.025 197.154 244.962 196.217 244.962 195.06C244.962 193.904 244.025 192.967 242.868 192.967Z" fill="#F5516C"/>
<path d="M274.268 192.967C273.112 192.967 272.174 193.904 272.174 195.06C272.174 196.217 273.112 197.154 274.268 197.154C275.424 197.154 276.361 196.217 276.361 195.06C276.361 193.904 275.424 192.967 274.268 192.967Z" fill="#F5516C"/>
<path d="M295.199 192.967C294.042 192.967 293.105 193.904 293.105 195.06C293.105 196.217 294.042 197.154 295.199 197.154C296.355 197.154 297.292 196.217 297.292 195.06C297.292 193.904 296.355 192.967 295.199 192.967Z" fill="#F5516C"/>
<path d="M263.801 192.967C262.645 192.967 261.708 193.904 261.708 195.06C261.708 196.217 262.645 197.154 263.801 197.154C264.957 197.154 265.895 196.217 265.895 195.06C265.895 193.904 264.957 192.967 263.801 192.967Z" fill="#F5516C"/>
<path d="M284.732 192.967C283.576 192.967 282.638 193.904 282.638 195.06C282.638 196.217 283.576 197.154 284.732 197.154C285.888 197.154 286.825 196.217 286.825 195.06C286.825 193.904 285.888 192.967 284.732 192.967Z" fill="#F5516C"/>
<path d="M190.282 192.967C189.125 192.967 188.188 193.904 188.188 195.06C188.188 196.217 189.125 197.154 190.282 197.154C191.438 197.154 192.375 196.217 192.375 195.06C192.375 193.904 191.438 192.967 190.282 192.967Z" fill="#F5516C"/>
<path d="M179.814 192.967C178.658 192.967 177.72 193.904 177.72 195.06C177.72 196.217 178.658 197.154 179.814 197.154C180.97 197.154 181.907 196.217 181.907 195.06C181.907 193.904 180.97 192.967 179.814 192.967Z" fill="#F5516C"/>
<path d="M169.345 192.967C168.189 192.967 167.252 193.904 167.252 195.06C167.252 196.217 168.189 197.154 169.345 197.154C170.501 197.154 171.438 196.217 171.438 195.06C171.438 193.904 170.501 192.967 169.345 192.967Z" fill="#F5516C"/>
<path d="M158.876 192.967C157.72 192.967 156.783 193.904 156.783 195.06C156.783 196.217 157.72 197.154 158.876 197.154C160.032 197.154 160.97 196.217 160.97 195.06C160.97 193.904 160.032 192.967 158.876 192.967Z" fill="#F5516C"/>
<path d="M148.412 192.967C147.256 192.967 146.319 193.904 146.319 195.06C146.319 196.217 147.256 197.154 148.412 197.154C149.569 197.154 150.506 196.217 150.506 195.06C150.506 193.904 149.569 192.967 148.412 192.967Z" fill="#F5516C"/>
<path d="M137.946 192.967C136.789 192.967 135.852 193.904 135.852 195.06C135.852 196.217 136.789 197.154 137.946 197.154C139.102 197.154 140.039 196.217 140.039 195.06C140.039 193.904 139.102 192.967 137.946 192.967Z" fill="#F5516C"/>
<path d="M378.828 192.967C377.672 192.967 376.735 193.904 376.735 195.06C376.735 196.217 377.672 197.154 378.828 197.154C379.985 197.154 380.922 196.217 380.922 195.06C380.922 193.904 379.985 192.967 378.828 192.967Z" fill="#F5516C"/>
<path d="M368.36 192.967C367.204 192.967 366.266 193.904 366.266 195.06C366.266 196.217 367.204 197.154 368.36 197.154C369.516 197.154 370.453 196.217 370.453 195.06C370.453 193.904 369.516 192.967 368.36 192.967Z" fill="#F5516C"/>
<path d="M399.76 192.967C398.604 192.967 397.667 193.904 397.667 195.06C397.667 196.217 398.604 197.154 399.76 197.154C400.916 197.154 401.854 196.217 401.854 195.06C401.854 193.904 400.916 192.967 399.76 192.967Z" fill="#F5516C"/>
<path d="M389.293 192.967C388.137 192.967 387.2 193.904 387.2 195.06C387.2 196.217 388.137 197.154 389.293 197.154C390.449 197.154 391.387 196.217 391.387 195.06C391.387 193.904 390.449 192.967 389.293 192.967Z" fill="#F5516C"/>
<path d="M410.479 203.193C409.323 203.193 408.385 204.131 408.385 205.287C408.385 206.443 409.323 207.38 410.479 207.38C411.635 207.38 412.572 206.443 412.572 205.287C412.572 204.131 411.635 203.193 410.479 203.193Z" fill="#F5516C"/>
<path d="M410.479 213.42C409.323 213.42 408.385 214.357 408.385 215.513C408.385 216.67 409.323 217.607 410.479 217.607C411.635 217.607 412.572 216.67 412.572 215.513C412.572 214.357 411.635 213.42 410.479 213.42Z" fill="#F5516C"/>
<path d="M410.481 192.967C409.325 192.967 408.387 193.904 408.387 195.06C408.387 196.217 409.325 197.154 410.481 197.154C411.637 197.154 412.574 196.217 412.574 195.06C412.574 193.904 411.637 192.967 410.481 192.967Z" fill="#F5516C"/>
<path d="M357.894 192.967C356.738 192.967 355.8 193.904 355.8 195.06C355.8 196.217 356.738 197.154 357.894 197.154C359.05 197.154 359.987 196.217 359.987 195.06C359.987 193.904 359.05 192.967 357.894 192.967Z" fill="#F5516C"/>
<path d="M347.425 192.967C346.269 192.967 345.332 193.904 345.332 195.06C345.332 196.217 346.269 197.154 347.425 197.154C348.581 197.154 349.519 196.217 349.519 195.06C349.519 193.904 348.581 192.967 347.425 192.967Z" fill="#F5516C"/>
<path d="M336.957 192.967C335.801 192.967 334.864 193.904 334.864 195.06C334.864 196.217 335.801 197.154 336.957 197.154C338.114 197.154 339.051 196.217 339.051 195.06C339.051 193.904 338.114 192.967 336.957 192.967Z" fill="#F5516C"/>
<path d="M326.488 192.967C325.331 192.967 324.394 193.904 324.394 195.06C324.394 196.217 325.331 197.154 326.488 197.154C327.644 197.154 328.581 196.217 328.581 195.06C328.581 193.904 327.644 192.967 326.488 192.967Z" fill="#F5516C"/>
<path d="M316.024 192.967C314.868 192.967 313.93 193.904 313.93 195.06C313.93 196.217 314.868 197.154 316.024 197.154C317.18 197.154 318.117 196.217 318.117 195.06C318.117 193.904 317.18 192.967 316.024 192.967Z" fill="#F5516C"/>
<path d="M305.557 192.967C304.401 192.967 303.464 193.904 303.464 195.06C303.464 196.217 304.401 197.154 305.557 197.154C306.713 197.154 307.65 196.217 307.65 195.06C307.65 193.904 306.713 192.967 305.557 192.967Z" fill="#F5516C"/>
<path d="M309.629 367.813C308.473 367.813 307.536 368.75 307.536 369.906C307.536 371.062 308.473 372 309.629 372C310.785 372 311.723 371.062 311.723 369.906C311.723 368.75 310.785 367.813 309.629 367.813Z" fill="#F5516C"/>
<path d="M299.16 367.813C298.004 367.813 297.067 368.75 297.067 369.906C297.067 371.062 298.004 372 299.16 372C300.317 372 301.254 371.062 301.254 369.906C301.254 368.75 300.317 367.813 299.16 367.813Z" fill="#F5516C"/>
<path d="M330.561 367.813C329.405 367.813 328.467 368.75 328.467 369.906C328.467 371.062 329.405 372 330.561 372C331.717 372 332.654 371.062 332.654 369.906C332.654 368.75 331.717 367.813 330.561 367.813Z" fill="#F5516C"/>
<path d="M320.093 367.813C318.937 367.813 318 368.75 318 369.906C318 371.062 318.937 372 320.093 372C321.249 372 322.187 371.062 322.187 369.906C322.187 368.75 321.249 367.813 320.093 367.813Z" fill="#F5516C"/>
<path d="M351.748 367.813C350.592 367.813 349.655 368.75 349.655 369.906C349.655 371.062 350.592 372 351.748 372C352.905 372 353.842 371.062 353.842 369.906C353.842 368.75 352.905 367.813 351.748 367.813Z" fill="#F5516C"/>
<path d="M341.281 367.813C340.124 367.813 339.187 368.75 339.187 369.906C339.187 371.062 340.124 372 341.281 372C342.437 372 343.374 371.062 343.374 369.906C343.374 368.75 342.437 367.813 341.281 367.813Z" fill="#F5516C"/>
<path d="M288.694 367.813C287.537 367.813 286.6 368.75 286.6 369.906C286.6 371.062 287.537 372 288.694 372C289.85 372 290.787 371.062 290.787 369.906C290.787 368.75 289.85 367.813 288.694 367.813Z" fill="#F5516C"/>
<path d="M278.226 367.813C277.07 367.813 276.132 368.75 276.132 369.906C276.132 371.062 277.07 372 278.226 372C279.382 372 280.319 371.062 280.319 369.906C280.319 368.75 279.382 367.813 278.226 367.813Z" fill="#F5516C"/>
<path d="M267.758 367.813C266.602 367.813 265.665 368.75 265.665 369.906C265.665 371.062 266.602 372 267.758 372C268.914 372 269.852 371.062 269.852 369.906C269.852 368.75 268.914 367.813 267.758 367.813Z" fill="#F5516C"/>
<path d="M257.289 367.813C256.133 367.813 255.196 368.75 255.196 369.906C255.196 371.062 256.133 372 257.289 372C258.446 372 259.383 371.062 259.383 369.906C259.383 368.75 258.446 367.813 257.289 367.813Z" fill="#F5516C"/>
<path d="M246.826 367.813C245.669 367.813 244.732 368.75 244.732 369.906C244.732 371.062 245.669 372 246.826 372C247.982 372 248.919 371.062 248.919 369.906C248.919 368.75 247.982 367.813 246.826 367.813Z" fill="#F5516C"/>
<path d="M236.358 367.813C235.202 367.813 234.264 368.75 234.264 369.906C234.264 371.062 235.202 372 236.358 372C237.514 372 238.451 371.062 238.451 369.906C238.451 368.75 237.514 367.813 236.358 367.813Z" fill="#F5516C"/>
<path d="M231.483 361.024L222.602 369.906L231.483 378.788" stroke="#F5516C" stroke-width="3"/>
<path d="M203.5 389.62C204.656 389.62 205.593 388.683 205.593 387.526C205.593 386.37 204.656 385.433 203.5 385.433C202.344 385.433 201.406 386.37 201.406 387.526C201.406 388.683 202.344 389.62 203.5 389.62Z" fill="#0A355C"/>
<path d="M213.967 389.62C215.124 389.62 216.061 388.683 216.061 387.526C216.061 386.37 215.124 385.433 213.967 385.433C212.811 385.433 211.874 386.37 211.874 387.526C211.874 388.683 212.811 389.62 213.967 389.62Z" fill="#0A355C"/>
<path d="M182.567 389.62C183.723 389.62 184.661 388.683 184.661 387.526C184.661 386.37 183.723 385.433 182.567 385.433C181.411 385.433 180.474 386.37 180.474 387.526C180.474 388.683 181.411 389.62 182.567 389.62Z" fill="#0A355C"/>
<path d="M193.035 389.62C194.191 389.62 195.128 388.683 195.128 387.526C195.128 386.37 194.191 385.433 193.035 385.433C191.879 385.433 190.941 386.37 190.941 387.526C190.941 388.683 191.879 389.62 193.035 389.62Z" fill="#0A355C"/>
<path d="M161.38 389.62C162.536 389.62 163.473 388.683 163.473 387.526C163.473 386.37 162.536 385.433 161.38 385.433C160.223 385.433 159.286 386.37 159.286 387.526C159.286 388.683 160.223 389.62 161.38 389.62Z" fill="#0A355C"/>
<path d="M171.847 389.62C173.004 389.62 173.941 388.683 173.941 387.526C173.941 386.37 173.004 385.433 171.847 385.433C170.691 385.433 169.754 386.37 169.754 387.526C169.754 388.683 170.691 389.62 171.847 389.62Z" fill="#0A355C"/>
<path d="M224.434 389.62C225.59 389.62 226.528 388.683 226.528 387.526C226.528 386.37 225.59 385.433 224.434 385.433C223.278 385.433 222.341 386.37 222.341 387.526C222.341 388.683 223.278 389.62 224.434 389.62Z" fill="#0A355C"/>
<path d="M234.902 389.62C236.058 389.62 236.995 388.683 236.995 387.526C236.995 386.37 236.058 385.433 234.902 385.433C233.746 385.433 232.809 386.37 232.809 387.526C232.809 388.683 233.746 389.62 234.902 389.62Z" fill="#0A355C"/>
<path d="M245.371 389.62C246.527 389.62 247.464 388.683 247.464 387.526C247.464 386.37 246.527 385.433 245.371 385.433C244.215 385.433 243.277 386.37 243.277 387.526C243.277 388.683 244.215 389.62 245.371 389.62Z" fill="#0A355C"/>
<path d="M255.839 389.62C256.995 389.62 257.932 388.683 257.932 387.526C257.932 386.37 256.995 385.433 255.839 385.433C254.682 385.433 253.745 386.37 253.745 387.526C253.745 388.683 254.682 389.62 255.839 389.62Z" fill="#0A355C"/>
<path d="M266.302 389.62C267.459 389.62 268.396 388.683 268.396 387.526C268.396 386.37 267.459 385.433 266.302 385.433C265.146 385.433 264.209 386.37 264.209 387.526C264.209 388.683 265.146 389.62 266.302 389.62Z" fill="#0A355C"/>
<path d="M276.77 389.62C277.926 389.62 278.864 388.683 278.864 387.526C278.864 386.37 277.926 385.433 276.77 385.433C275.614 385.433 274.677 386.37 274.677 387.526C274.677 388.683 275.614 389.62 276.77 389.62Z" fill="#0A355C"/>
<path d="M281.645 396.408L290.526 387.526L281.645 378.645" stroke="#0A355C" stroke-width="3"/>
<path d="M253.375 97.2457L185.038 97.246" stroke="#0A355C" stroke-width="3"/>
<path d="M255.03 106.128L263.912 97.2458L255.03 88.3641" stroke="#0A355C" stroke-width="3"/>
<path d="M468.848 203.25L468.492 141.999" stroke="#9AA5B8" stroke-width="3"/>
<path d="M459.966 204.908L468.848 213.79L477.729 204.908" stroke="#9AA5B8" stroke-width="3"/>
<path d="M398.452 106.128L407.334 97.2458L398.452 88.3641" stroke="#9AA5B8" stroke-width="3"/>
<rect x="280.771" y="62.0261" width="107.299" height="70.4396" rx="13.5" stroke="#0A355C" stroke-width="3"/>
<rect x="415.197" y="62.0261" width="107.299" height="70.4396" rx="13.5" stroke="#9AA5B8" stroke-width="3"/>
<rect x="365.516" y="227.067" width="156.481" height="181.459" rx="23" stroke="#F5516C" stroke-width="4"/>
<rect x="426.922" y="369.525" width="60.9874" height="7.30933" rx="2" fill="#F5516C"/>
<rect x="426.922" y="358.732" width="60.9874" height="7.30933" rx="2" fill="#F5516C"/>
<rect x="426.922" y="347.939" width="60.9874" height="7.30933" rx="2" fill="#F5516C"/>
<rect x="426.922" y="337.147" width="60.9874" height="7.30933" rx="2" fill="#F5516C"/>
<rect x="426.922" y="326.354" width="60.9874" height="7.30933" rx="2" fill="#F5516C"/>
<rect x="426.922" y="315.562" width="60.9874" height="7.30933" rx="2" fill="#F5516C"/>
<rect x="426.922" y="304.769" width="60.9874" height="7.30933" rx="2" fill="#F5516C"/>
<rect x="426.922" y="293.976" width="60.9874" height="7.30933" rx="2" fill="#F5516C"/>
<rect x="426.922" y="283.184" width="60.9874" height="7.30933" rx="2" fill="#F5516C"/>
<path d="M460.849 359.072C450.08 377.752 425.993 384.096 407.289 373.322C388.601 362.558 382.255 338.482 393.033 319.787C403.801 301.109 427.886 294.764 446.59 305.536C465.124 316.305 471.622 340.386 460.849 359.072Z" fill="#F5516C" stroke="#F5F5F5" stroke-width="3"/>
<path d="M427.195 312.394V335.18C425.929 333.914 424.843 332.829 423.396 331.383C423.215 329.212 422.853 323.064 422.853 323.064L426.471 312.214C424.3 312.214 422.129 312.575 420.139 313.118L418.33 318.362L413.264 315.83C411.455 316.915 409.646 318.181 408.018 319.809L417.064 324.33L417.425 329.755L411.998 329.393L407.475 320.351C406.028 321.979 404.58 323.606 403.495 325.596L406.027 330.659L400.6 332.468C400.057 334.457 399.695 336.627 399.695 338.978L410.55 335.542L419.235 335.904L422.853 339.52L419.235 343.137L410.55 343.499L399.695 340.063C399.695 342.233 400.057 344.403 400.6 346.573L405.847 348.381L403.314 353.264C404.399 355.072 405.666 356.881 407.294 358.328L411.817 349.286L417.244 348.924L416.883 354.349L407.837 358.87C409.465 360.317 411.093 361.764 413.083 362.849L417.968 360.498L419.777 365.742C421.767 366.284 423.938 366.646 426.109 366.646L422.672 355.977C422.672 355.977 423.034 349.828 423.215 347.658C424.481 346.392 425.567 345.307 427.014 343.86V366.646C442.03 366.646 454.152 354.53 454.152 339.52C454.333 324.511 442.211 312.394 427.195 312.394ZM433.346 359.774C433.346 346.211 433.346 332.829 433.346 319.266C439.859 320.713 448.182 327.947 448.543 338.797C448.905 350.732 439.859 358.328 433.346 359.774Z" fill="#F5F5F5"/>
<path d="M390.651 256.061H393.112L396.736 266.419L400.36 256.061H402.821L397.724 270.169H395.747L390.651 256.061ZM389.323 256.061H391.775L392.22 266.158V270.169H389.323V256.061ZM401.697 256.061H404.158V270.169H401.251V266.158L401.697 256.061Z" fill="#0A355C"/>
<path d="M411.992 267.805V263.135C411.992 262.799 411.937 262.511 411.828 262.272C411.718 262.027 411.547 261.836 411.314 261.701C411.088 261.565 410.794 261.497 410.432 261.497C410.122 261.497 409.854 261.552 409.628 261.662C409.402 261.765 409.228 261.917 409.105 262.117C408.982 262.311 408.921 262.54 408.921 262.805H406.13C406.13 262.359 406.233 261.936 406.44 261.536C406.647 261.135 406.947 260.783 407.341 260.48C407.735 260.17 408.204 259.927 408.746 259.753C409.295 259.579 409.909 259.491 410.587 259.491C411.401 259.491 412.125 259.627 412.758 259.898C413.391 260.17 413.888 260.577 414.25 261.119C414.618 261.662 414.802 262.34 414.802 263.154V267.64C414.802 268.215 414.838 268.687 414.909 269.055C414.98 269.417 415.083 269.733 415.219 270.005V270.169H412.399C412.264 269.885 412.16 269.53 412.089 269.103C412.025 268.671 411.992 268.238 411.992 267.805ZM412.361 263.784L412.38 265.363H410.82C410.452 265.363 410.132 265.405 409.861 265.489C409.589 265.573 409.366 265.693 409.192 265.848C409.018 265.996 408.888 266.171 408.804 266.371C408.727 266.571 408.688 266.791 408.688 267.03C408.688 267.269 408.743 267.485 408.853 267.679C408.963 267.866 409.121 268.015 409.328 268.125C409.534 268.228 409.777 268.28 410.054 268.28C410.474 268.28 410.839 268.196 411.149 268.028C411.459 267.86 411.698 267.653 411.866 267.408C412.041 267.162 412.131 266.93 412.138 266.71L412.874 267.892C412.771 268.157 412.629 268.432 412.448 268.716C412.273 269 412.051 269.268 411.779 269.52C411.508 269.766 411.182 269.969 410.801 270.131C410.419 270.286 409.967 270.363 409.444 270.363C408.779 270.363 408.175 270.231 407.632 269.966C407.096 269.695 406.67 269.323 406.353 268.852C406.043 268.373 405.888 267.831 405.888 267.224C405.888 266.675 405.991 266.187 406.198 265.761C406.405 265.334 406.708 264.976 407.109 264.685C407.516 264.388 408.023 264.165 408.63 264.016C409.237 263.861 409.941 263.784 410.742 263.784H412.361Z" fill="#0A355C"/>
<path d="M422.423 267.272C422.423 267.072 422.365 266.891 422.249 266.729C422.133 266.568 421.916 266.419 421.6 266.284C421.29 266.142 420.841 266.012 420.253 265.896C419.723 265.78 419.229 265.635 418.77 265.46C418.318 265.279 417.924 265.063 417.588 264.811C417.259 264.559 417 264.262 416.813 263.919C416.626 263.571 416.532 263.173 416.532 262.728C416.532 262.288 416.626 261.875 416.813 261.487C417.007 261.1 417.281 260.757 417.637 260.46C417.999 260.157 418.438 259.921 418.955 259.753C419.478 259.579 420.066 259.491 420.718 259.491C421.629 259.491 422.411 259.637 423.063 259.927C423.722 260.218 424.226 260.619 424.575 261.129C424.93 261.633 425.107 262.208 425.107 262.854H422.317C422.317 262.582 422.259 262.34 422.142 262.127C422.033 261.907 421.858 261.736 421.619 261.613C421.387 261.484 421.083 261.42 420.708 261.42C420.398 261.42 420.13 261.474 419.904 261.584C419.678 261.688 419.504 261.83 419.381 262.011C419.265 262.185 419.206 262.379 419.206 262.592C419.206 262.753 419.239 262.899 419.303 263.028C419.374 263.151 419.487 263.264 419.643 263.367C419.798 263.471 419.998 263.567 420.243 263.658C420.495 263.742 420.805 263.819 421.173 263.89C421.929 264.045 422.604 264.249 423.199 264.501C423.793 264.746 424.264 265.082 424.613 265.509C424.962 265.928 425.137 266.481 425.137 267.166C425.137 267.631 425.033 268.057 424.826 268.445C424.62 268.832 424.323 269.171 423.935 269.462C423.547 269.746 423.082 269.969 422.54 270.131C422.004 270.286 421.4 270.363 420.728 270.363C419.752 270.363 418.925 270.189 418.247 269.84C417.575 269.491 417.065 269.049 416.716 268.512C416.374 267.97 416.203 267.414 416.203 266.846H418.848C418.861 267.227 418.958 267.534 419.139 267.766C419.326 267.999 419.562 268.167 419.846 268.27C420.137 268.373 420.45 268.425 420.786 268.425C421.148 268.425 421.448 268.377 421.687 268.28C421.926 268.176 422.107 268.041 422.23 267.873C422.359 267.698 422.423 267.498 422.423 267.272Z" fill="#0A355C"/>
<path d="M431.886 259.685V261.662H425.781V259.685H431.886ZM427.293 257.098H430.083V267.01C430.083 267.314 430.122 267.547 430.2 267.708C430.284 267.87 430.406 267.983 430.568 268.047C430.729 268.105 430.933 268.134 431.178 268.134C431.353 268.134 431.508 268.128 431.643 268.115C431.785 268.096 431.905 268.076 432.002 268.057L432.012 270.111C431.773 270.189 431.514 270.25 431.236 270.295C430.959 270.34 430.652 270.363 430.316 270.363C429.702 270.363 429.166 270.263 428.707 270.063C428.255 269.856 427.906 269.527 427.661 269.074C427.415 268.622 427.293 268.028 427.293 267.291V257.098Z" fill="#0A355C"/>
<path d="M438.102 270.363C437.288 270.363 436.558 270.234 435.912 269.976C435.266 269.711 434.717 269.346 434.265 268.881C433.819 268.415 433.477 267.876 433.237 267.262C432.998 266.642 432.879 265.983 432.879 265.286V264.898C432.879 264.104 432.992 263.377 433.218 262.718C433.444 262.059 433.767 261.487 434.187 261.003C434.613 260.518 435.13 260.147 435.737 259.889C436.345 259.624 437.029 259.491 437.792 259.491C438.535 259.491 439.193 259.614 439.768 259.86C440.343 260.105 440.824 260.454 441.212 260.906C441.606 261.358 441.903 261.901 442.104 262.534C442.304 263.16 442.404 263.858 442.404 264.627V265.79H434.071V263.929H439.662V263.716C439.662 263.328 439.591 262.983 439.449 262.679C439.313 262.369 439.106 262.124 438.828 261.943C438.551 261.762 438.195 261.671 437.763 261.671C437.394 261.671 437.078 261.752 436.813 261.914C436.548 262.075 436.332 262.301 436.164 262.592C436.002 262.883 435.88 263.225 435.796 263.619C435.718 264.007 435.679 264.433 435.679 264.898V265.286C435.679 265.706 435.737 266.093 435.854 266.448C435.976 266.804 436.148 267.111 436.367 267.369C436.593 267.627 436.865 267.828 437.181 267.97C437.504 268.112 437.869 268.183 438.276 268.183C438.78 268.183 439.248 268.086 439.681 267.892C440.12 267.692 440.498 267.392 440.815 266.991L442.171 268.464C441.952 268.78 441.651 269.084 441.27 269.375C440.896 269.665 440.443 269.904 439.914 270.092C439.384 270.273 438.78 270.363 438.102 270.363Z" fill="#0A355C"/>
<path d="M446.585 261.972V270.169H443.795V259.685H446.42L446.585 261.972ZM449.744 259.617L449.696 262.204C449.56 262.185 449.395 262.169 449.201 262.156C449.014 262.137 448.843 262.127 448.688 262.127C448.294 262.127 447.951 262.179 447.661 262.282C447.376 262.379 447.137 262.524 446.944 262.718C446.756 262.912 446.614 263.148 446.517 263.425C446.427 263.703 446.375 264.02 446.362 264.375L445.8 264.2C445.8 263.522 445.868 262.899 446.004 262.33C446.139 261.755 446.336 261.255 446.595 260.828C446.86 260.402 447.183 260.073 447.564 259.84C447.945 259.608 448.381 259.491 448.872 259.491C449.027 259.491 449.185 259.504 449.347 259.53C449.508 259.549 449.641 259.579 449.744 259.617Z" fill="#0A355C"/>
<path d="M467.263 256.061V270.169H464.356L458.688 260.712V270.169H455.781V256.061H458.688L464.366 265.528V256.061H467.263Z" fill="#0A355C"/>
<path d="M468.974 265.034V264.83C468.974 264.062 469.084 263.354 469.303 262.708C469.523 262.056 469.843 261.491 470.262 261.013C470.682 260.535 471.199 260.163 471.813 259.898C472.426 259.627 473.131 259.491 473.925 259.491C474.72 259.491 475.427 259.627 476.047 259.898C476.667 260.163 477.187 260.535 477.607 261.013C478.034 261.491 478.356 262.056 478.576 262.708C478.796 263.354 478.906 264.062 478.906 264.83V265.034C478.906 265.796 478.796 266.503 478.576 267.156C478.356 267.802 478.034 268.367 477.607 268.852C477.187 269.33 476.67 269.701 476.057 269.966C475.443 270.231 474.739 270.363 473.944 270.363C473.15 270.363 472.443 270.231 471.822 269.966C471.209 269.701 470.689 269.33 470.262 268.852C469.843 268.367 469.523 267.802 469.303 267.156C469.084 266.503 468.974 265.796 468.974 265.034ZM471.764 264.83V265.034C471.764 265.473 471.803 265.883 471.881 266.264C471.958 266.646 472.081 266.981 472.249 267.272C472.423 267.556 472.649 267.779 472.927 267.941C473.205 268.102 473.544 268.183 473.944 268.183C474.332 268.183 474.665 268.102 474.943 267.941C475.22 267.779 475.443 267.556 475.611 267.272C475.779 266.981 475.902 266.646 475.979 266.264C476.063 265.883 476.105 265.473 476.105 265.034V264.83C476.105 264.404 476.063 264.003 475.979 263.629C475.902 263.248 475.776 262.912 475.601 262.621C475.433 262.324 475.211 262.091 474.933 261.923C474.655 261.755 474.319 261.671 473.925 261.671C473.531 261.671 473.195 261.755 472.917 261.923C472.646 262.091 472.423 262.324 472.249 262.621C472.081 262.912 471.958 263.248 471.881 263.629C471.803 264.003 471.764 264.404 471.764 264.83Z" fill="#0A355C"/>
<path d="M486.614 267.883V255.286H489.424V270.169H486.895L486.614 267.883ZM479.986 265.053V264.85C479.986 264.049 480.077 263.322 480.257 262.67C480.438 262.011 480.703 261.445 481.052 260.974C481.401 260.502 481.83 260.137 482.341 259.879C482.851 259.621 483.432 259.491 484.085 259.491C484.699 259.491 485.235 259.621 485.693 259.879C486.158 260.137 486.553 260.505 486.875 260.984C487.205 261.455 487.47 262.014 487.67 262.66C487.87 263.299 488.016 264 488.106 264.762V265.208C488.016 265.938 487.87 266.616 487.67 267.243C487.47 267.87 487.205 268.419 486.875 268.89C486.553 269.355 486.158 269.717 485.693 269.976C485.228 270.234 484.686 270.363 484.065 270.363C483.413 270.363 482.832 270.231 482.321 269.966C481.818 269.701 481.391 269.33 481.042 268.852C480.7 268.373 480.438 267.811 480.257 267.166C480.077 266.52 479.986 265.815 479.986 265.053ZM482.777 264.85V265.053C482.777 265.486 482.809 265.89 482.874 266.264C482.945 266.639 483.058 266.972 483.213 267.262C483.374 267.547 483.581 267.77 483.833 267.931C484.091 268.086 484.405 268.164 484.773 268.164C485.251 268.164 485.645 268.057 485.955 267.844C486.265 267.624 486.501 267.324 486.662 266.943C486.83 266.562 486.927 266.122 486.953 265.625V264.356C486.934 263.949 486.875 263.584 486.779 263.261C486.688 262.931 486.553 262.65 486.372 262.418C486.197 262.185 485.978 262.004 485.713 261.875C485.454 261.746 485.148 261.681 484.792 261.681C484.43 261.681 484.12 261.765 483.862 261.933C483.604 262.095 483.394 262.317 483.232 262.602C483.077 262.886 482.961 263.222 482.883 263.609C482.812 263.991 482.777 264.404 482.777 264.85Z" fill="#0A355C"/>
<path d="M496.231 270.363C495.417 270.363 494.687 270.234 494.041 269.976C493.395 269.711 492.846 269.346 492.394 268.881C491.948 268.415 491.606 267.876 491.367 267.262C491.128 266.642 491.008 265.983 491.008 265.286V264.898C491.008 264.104 491.121 263.377 491.347 262.718C491.574 262.059 491.897 261.487 492.316 261.003C492.743 260.518 493.26 260.147 493.867 259.889C494.474 259.624 495.159 259.491 495.921 259.491C496.664 259.491 497.323 259.614 497.898 259.86C498.473 260.105 498.954 260.454 499.341 260.906C499.735 261.358 500.033 261.901 500.233 262.534C500.433 263.16 500.533 263.858 500.533 264.627V265.79H492.2V263.929H497.791V263.716C497.791 263.328 497.72 262.983 497.578 262.679C497.442 262.369 497.236 262.124 496.958 261.943C496.68 261.762 496.325 261.671 495.892 261.671C495.524 261.671 495.207 261.752 494.942 261.914C494.677 262.075 494.461 262.301 494.293 262.592C494.132 262.883 494.009 263.225 493.925 263.619C493.847 264.007 493.809 264.433 493.809 264.898V265.286C493.809 265.706 493.867 266.093 493.983 266.448C494.106 266.804 494.277 267.111 494.497 267.369C494.723 267.627 494.994 267.828 495.311 267.97C495.634 268.112 495.998 268.183 496.405 268.183C496.909 268.183 497.378 268.086 497.81 267.892C498.25 267.692 498.628 267.392 498.944 266.991L500.301 268.464C500.081 268.78 499.781 269.084 499.4 269.375C499.025 269.665 498.573 269.904 498.043 270.092C497.513 270.273 496.909 270.363 496.231 270.363Z" fill="#0A355C"/>
<path d="M120.523 267.733H114.942V295.014H120.523V267.733Z" fill="#F5516C"/>
<path d="M130.748 267.733H125.168V295.014H130.748V267.733Z" fill="#F5516C"/>
<path d="M110.215 267.733H104.635V295.014H110.215V267.733Z" fill="#F5516C"/>
<path d="M151.283 267.733H145.703V295.014H151.283V267.733Z" fill="#F5516C"/>
<path d="M140.986 267.733H135.405V295.014H140.986V267.733Z" fill="#F5516C"/>
<path fill-rule="evenodd" clip-rule="evenodd" d="M97.3334 262.456L127.945 249.679L158.479 262.456H158.484V265.979H97.333V262.456V262.456H97.3334Z" fill="#F5516C"/>
<path d="M157.398 296.938H98.4951V301.447H157.398V296.938Z" fill="#F5516C"/>
<path d="M81.6064 237.44H78.4552L78.4383 235.704H81.084C81.5502 235.704 81.9322 235.645 82.2299 235.527C82.5276 235.404 82.7495 235.227 82.8955 234.996C83.0472 234.76 83.123 234.474 83.123 234.137C83.123 233.755 83.05 233.446 82.904 233.21C82.7635 232.974 82.5417 232.803 82.2383 232.696C81.9406 232.589 81.5559 232.536 81.084 232.536H79.3314V242.824H76.8037V230.556H81.084C81.7974 230.556 82.4349 230.623 82.9967 230.758C83.564 230.893 84.0443 231.098 84.4375 231.373C84.8307 231.649 85.1312 231.997 85.339 232.418C85.5469 232.834 85.6508 233.328 85.6508 233.901C85.6508 234.407 85.5356 234.873 85.3053 235.3C85.0806 235.727 84.7239 236.075 84.2352 236.344C83.7522 236.614 83.1202 236.763 82.3394 236.791L81.6064 237.44ZM81.4969 242.824H77.7642L78.7501 240.852H81.4969C81.9406 240.852 82.3029 240.782 82.5838 240.642C82.8647 240.496 83.0725 240.299 83.2073 240.052C83.3421 239.805 83.4095 239.521 83.4095 239.201C83.4095 238.841 83.3477 238.53 83.2242 238.266C83.1062 238.002 82.9152 237.799 82.6512 237.659C82.3872 237.513 82.0389 237.44 81.6064 237.44H79.1714L79.1882 235.704H82.2215L82.8029 236.387C83.55 236.375 84.151 236.507 84.606 236.783C85.0666 237.052 85.4008 237.403 85.6087 237.836C85.8221 238.268 85.9288 238.732 85.9288 239.226C85.9288 240.012 85.7575 240.675 85.4149 241.215C85.0722 241.748 84.5695 242.15 83.9066 242.419C83.2494 242.689 82.4462 242.824 81.4969 242.824Z" fill="#0A355C"/>
<path d="M92.8127 232.654L89.4761 242.824H86.7883L91.3466 230.556H93.057L92.8127 232.654ZM95.5848 242.824L92.2397 232.654L91.9701 230.556H93.6974L98.281 242.824H95.5848ZM95.4331 238.257V240.237H88.9537V238.257H95.4331Z" fill="#0A355C"/>
<path d="M109.403 230.556V242.824H106.875L101.946 234.6V242.824H99.4185V230.556H101.946L106.884 238.788V230.556H109.403Z" fill="#0A355C"/>
<path d="M114.13 230.556V242.824H111.602V230.556H114.13ZM121.477 230.556L116.616 236.614L113.81 239.631L113.355 237.238L115.251 234.642L118.377 230.556H121.477ZM118.604 242.824L114.989 237.153L116.86 235.586L121.595 242.824H118.604Z" fill="#0A355C"/>
<path d="M125.1 230.556V242.824H122.573V230.556H125.1ZM132.448 230.556L127.586 236.614L124.78 239.631L124.325 237.238L126.221 234.642L129.347 230.556H132.448ZM129.574 242.824L125.96 237.153L127.83 235.586L132.566 242.824H129.574Z" fill="#0A355C"/>
<path d="M143.351 236.403V236.985C143.351 237.917 143.224 238.754 142.971 239.496C142.719 240.237 142.362 240.869 141.901 241.392C141.441 241.908 140.89 242.304 140.25 242.58C139.615 242.855 138.91 242.992 138.135 242.992C137.365 242.992 136.66 242.855 136.02 242.58C135.385 242.304 134.835 241.908 134.369 241.392C133.902 240.869 133.54 240.237 133.282 239.496C133.029 238.754 132.903 237.917 132.903 236.985V236.403C132.903 235.465 133.029 234.628 133.282 233.893C133.534 233.151 133.891 232.519 134.352 231.997C134.818 231.474 135.368 231.076 136.003 230.8C136.644 230.525 137.349 230.387 138.118 230.387C138.893 230.387 139.598 230.525 140.233 230.8C140.873 231.076 141.424 231.474 141.884 231.997C142.351 232.519 142.71 233.151 142.963 233.893C143.221 234.628 143.351 235.465 143.351 236.403ZM140.798 236.985V236.387C140.798 235.735 140.739 235.162 140.621 234.668C140.503 234.173 140.328 233.758 140.098 233.421C139.868 233.084 139.587 232.831 139.256 232.662C138.924 232.488 138.545 232.401 138.118 232.401C137.691 232.401 137.312 232.488 136.981 232.662C136.655 232.831 136.377 233.084 136.146 233.421C135.922 233.758 135.75 234.173 135.633 234.668C135.515 235.162 135.456 235.735 135.456 236.387V236.985C135.456 237.631 135.515 238.204 135.633 238.704C135.75 239.198 135.925 239.616 136.155 239.959C136.385 240.296 136.666 240.552 136.997 240.726C137.329 240.9 137.708 240.987 138.135 240.987C138.562 240.987 138.941 240.9 139.272 240.726C139.604 240.552 139.882 240.296 140.107 239.959C140.331 239.616 140.503 239.198 140.621 238.704C140.739 238.204 140.798 237.631 140.798 236.985Z" fill="#0A355C"/>
<path d="M155.155 230.556V242.824H152.627L147.698 234.6V242.824H145.17V230.556H147.698L152.636 238.788V230.556H155.155Z" fill="#0A355C"/>
<path d="M162.587 230.556V242.824H160.067V230.556H162.587ZM166.361 230.556V232.536H156.351V230.556H166.361Z" fill="#0A355C"/>
<path d="M177.643 236.403V236.985C177.643 237.917 177.517 238.754 177.264 239.496C177.012 240.237 176.655 240.869 176.194 241.392C175.734 241.908 175.183 242.304 174.543 242.58C173.908 242.855 173.203 242.992 172.428 242.992C171.658 242.992 170.953 242.855 170.313 242.58C169.678 242.304 169.128 241.908 168.662 241.392C168.195 240.869 167.833 240.237 167.575 239.496C167.322 238.754 167.195 237.917 167.195 236.985V236.403C167.195 235.465 167.322 234.628 167.575 233.893C167.827 233.151 168.184 232.519 168.645 231.997C169.111 231.474 169.661 231.076 170.296 230.8C170.937 230.525 171.641 230.387 172.411 230.387C173.186 230.387 173.891 230.525 174.526 230.8C175.166 231.076 175.717 231.474 176.177 231.997C176.644 232.519 177.003 233.151 177.256 233.893C177.514 234.628 177.643 235.465 177.643 236.403ZM175.09 236.985V236.387C175.09 235.735 175.031 235.162 174.913 234.668C174.796 234.173 174.621 233.758 174.391 233.421C174.161 233.084 173.88 232.831 173.549 232.662C173.217 232.488 172.838 232.401 172.411 232.401C171.984 232.401 171.605 232.488 171.274 232.662C170.948 232.831 170.67 233.084 170.439 233.421C170.215 233.758 170.043 234.173 169.925 234.668C169.807 235.162 169.748 235.735 169.748 236.387V236.985C169.748 237.631 169.807 238.204 169.925 238.704C170.043 239.198 170.218 239.616 170.448 239.959C170.678 240.296 170.959 240.552 171.29 240.726C171.622 240.9 172.001 240.987 172.428 240.987C172.855 240.987 173.234 240.9 173.565 240.726C173.897 240.552 174.175 240.296 174.4 239.959C174.624 239.616 174.796 239.198 174.913 238.704C175.031 238.204 175.09 237.631 175.09 236.985Z" fill="#0A355C"/>
<path d="M303.858 92.0691H300.786L300.806 89.8017H303.858C304.62 89.8017 305.263 89.6305 305.786 89.2881C306.309 88.9393 306.704 88.4322 306.968 87.7669C307.24 87.1015 307.375 86.2973 307.375 85.3541V84.6662C307.375 83.9427 307.298 83.3064 307.143 82.7573C306.994 82.2082 306.771 81.7464 306.474 81.3717C306.177 80.997 305.812 80.716 305.379 80.5287C304.946 80.3349 304.449 80.238 303.887 80.238H300.728V77.9609H303.887C304.83 77.9609 305.693 78.1224 306.474 78.4454C307.262 78.7619 307.944 79.2174 308.519 79.8117C309.094 80.406 309.536 81.1165 309.846 81.9434C310.163 82.7638 310.321 83.6778 310.321 84.6856V85.3541C310.321 86.3554 310.163 87.2695 309.846 88.0963C309.536 88.9232 309.094 89.6337 308.519 90.228C307.95 90.8159 307.269 91.2713 306.474 91.5943C305.686 91.9108 304.814 92.0691 303.858 92.0691ZM302.434 77.9609V92.0691H299.527V77.9609H302.434Z" fill="#0A355C"/>
<path d="M317.084 92.2629C316.27 92.2629 315.54 92.1337 314.894 91.8753C314.249 91.6104 313.699 91.2454 313.247 90.7803C312.802 90.3152 312.459 89.7758 312.22 89.1622C311.981 88.542 311.862 87.8831 311.862 87.1855V86.7979C311.862 86.0033 311.975 85.2766 312.201 84.6177C312.427 83.9588 312.75 83.3871 313.17 82.9027C313.596 82.4182 314.113 82.0467 314.72 81.7883C315.327 81.5235 316.012 81.3911 316.774 81.3911C317.517 81.3911 318.176 81.5138 318.751 81.7593C319.326 82.0048 319.807 82.3536 320.195 82.8058C320.589 83.2579 320.886 83.8006 321.086 84.4336C321.286 85.0602 321.387 85.7579 321.387 86.5266V87.6893H313.053V85.8289H318.644V85.6158C318.644 85.2282 318.573 84.8826 318.431 84.579C318.296 84.2689 318.089 84.0234 317.811 83.8426C317.533 83.6617 317.178 83.5712 316.745 83.5712C316.377 83.5712 316.06 83.652 315.796 83.8135C315.531 83.975 315.314 84.2011 315.146 84.4918C314.985 84.7825 314.862 85.1248 314.778 85.5189C314.701 85.9064 314.662 86.3328 314.662 86.7979V87.1855C314.662 87.6054 314.72 87.993 314.836 88.3482C314.959 88.7035 315.13 89.0104 315.35 89.2688C315.576 89.5271 315.847 89.7274 316.164 89.8695C316.487 90.0116 316.852 90.0827 317.259 90.0827C317.763 90.0827 318.231 89.9858 318.664 89.792C319.103 89.5917 319.481 89.2914 319.797 88.8909L321.154 90.3637C320.934 90.6802 320.634 90.9838 320.253 91.2745C319.878 91.5652 319.426 91.8042 318.896 91.9915C318.367 92.1724 317.763 92.2629 317.084 92.2629Z" fill="#0A355C"/>
<path d="M325.766 83.6003V96.1H322.976V81.5849H325.563L325.766 83.6003ZM332.404 86.7107V86.9142C332.404 87.6764 332.313 88.3838 332.132 89.0362C331.958 89.6886 331.7 90.2571 331.357 90.7416C331.015 91.2196 330.588 91.5943 330.078 91.8656C329.574 92.1304 328.993 92.2629 328.334 92.2629C327.695 92.2629 327.139 92.1337 326.667 91.8753C326.196 91.6169 325.799 91.2551 325.476 90.79C325.159 90.3185 324.904 89.7726 324.71 89.1525C324.516 88.5323 324.368 87.867 324.264 87.1564V86.6235C324.368 85.8612 324.516 85.1636 324.71 84.5305C324.904 83.891 325.159 83.3387 325.476 82.8736C325.799 82.402 326.193 82.0371 326.658 81.7787C327.129 81.5203 327.682 81.3911 328.315 81.3911C328.98 81.3911 329.565 81.517 330.068 81.769C330.579 82.0209 331.005 82.3826 331.348 82.8542C331.696 83.3258 331.958 83.8878 332.132 84.5402C332.313 85.1926 332.404 85.9161 332.404 86.7107ZM329.603 86.9142V86.7107C329.603 86.265 329.565 85.8548 329.487 85.4801C329.416 85.099 329.3 84.7663 329.138 84.4821C328.983 84.1978 328.777 83.9782 328.518 83.8232C328.266 83.6617 327.959 83.5809 327.598 83.5809C327.216 83.5809 326.89 83.6423 326.619 83.765C326.354 83.8878 326.138 84.0654 325.97 84.298C325.802 84.5305 325.676 84.8083 325.592 85.1313C325.508 85.4543 325.456 85.8192 325.437 86.2262V87.5731C325.469 88.0511 325.56 88.4807 325.708 88.8618C325.857 89.2365 326.086 89.5336 326.396 89.7532C326.706 89.9729 327.113 90.0827 327.617 90.0827C327.985 90.0827 328.295 90.0019 328.547 89.8404C328.799 89.6725 329.003 89.4432 329.158 89.1525C329.319 88.8618 329.432 88.5259 329.497 88.1448C329.568 87.7636 329.603 87.3534 329.603 86.9142Z" fill="#0A355C"/>
<path d="M333.692 86.9336V86.7301C333.692 85.9614 333.802 85.254 334.022 84.608C334.241 83.9556 334.561 83.3904 334.981 82.9123C335.401 82.4343 335.918 82.0629 336.531 81.798C337.145 81.5267 337.849 81.3911 338.644 81.3911C339.438 81.3911 340.146 81.5267 340.766 81.798C341.386 82.0629 341.906 82.4343 342.326 82.9123C342.752 83.3904 343.075 83.9556 343.295 84.608C343.514 85.254 343.624 85.9614 343.624 86.7301V86.9336C343.624 87.6958 343.514 88.4031 343.295 89.0556C343.075 89.7016 342.752 90.2668 342.326 90.7513C341.906 91.2293 341.389 91.6007 340.776 91.8656C340.162 92.1304 339.458 92.2629 338.663 92.2629C337.869 92.2629 337.161 92.1304 336.541 91.8656C335.927 91.6007 335.407 91.2293 334.981 90.7513C334.561 90.2668 334.241 89.7016 334.022 89.0556C333.802 88.4031 333.692 87.6958 333.692 86.9336ZM336.483 86.7301V86.9336C336.483 87.3728 336.522 87.783 336.599 88.1641C336.677 88.5453 336.8 88.8812 336.967 89.1719C337.142 89.4561 337.368 89.679 337.646 89.8404C337.924 90.0019 338.263 90.0827 338.663 90.0827C339.051 90.0827 339.383 90.0019 339.661 89.8404C339.939 89.679 340.162 89.4561 340.33 89.1719C340.498 88.8812 340.62 88.5453 340.698 88.1641C340.782 87.783 340.824 87.3728 340.824 86.9336V86.7301C340.824 86.3037 340.782 85.9032 340.698 85.5286C340.62 85.1474 340.495 84.8115 340.32 84.5208C340.152 84.2237 339.929 83.9911 339.652 83.8232C339.374 83.6552 339.038 83.5712 338.644 83.5712C338.25 83.5712 337.914 83.6552 337.636 83.8232C337.365 83.9911 337.142 84.2237 336.967 84.5208C336.8 84.8115 336.677 85.1474 336.599 85.5286C336.522 85.9032 336.483 86.3037 336.483 86.7301Z" fill="#0A355C"/>
<path d="M351.008 89.1719C351.008 88.9716 350.95 88.7907 350.833 88.6292C350.717 88.4677 350.501 88.3192 350.184 88.1835C349.874 88.0414 349.425 87.9122 348.837 87.7959C348.308 87.6797 347.813 87.5343 347.355 87.3599C346.903 87.179 346.509 86.9626 346.173 86.7107C345.843 86.4588 345.585 86.1616 345.397 85.8192C345.21 85.4704 345.116 85.0731 345.116 84.6274C345.116 84.1882 345.21 83.7747 345.397 83.3871C345.591 82.9996 345.866 82.6572 346.221 82.36C346.583 82.0564 347.022 81.8206 347.539 81.6527C348.062 81.4783 348.65 81.3911 349.302 81.3911C350.213 81.3911 350.995 81.5364 351.647 81.8271C352.306 82.1178 352.81 82.5183 353.159 83.0286C353.514 83.5325 353.692 84.1074 353.692 84.7534H350.901C350.901 84.4821 350.843 84.2398 350.727 84.0267C350.617 83.807 350.443 83.6358 350.204 83.5131C349.971 83.3839 349.667 83.3193 349.293 83.3193C348.983 83.3193 348.715 83.3742 348.488 83.484C348.262 83.5874 348.088 83.7295 347.965 83.9104C347.849 84.0848 347.791 84.2786 347.791 84.4918C347.791 84.6533 347.823 84.7986 347.888 84.9278C347.959 85.0505 348.072 85.1636 348.227 85.2669C348.382 85.3703 348.582 85.4672 348.828 85.5576C349.08 85.6416 349.39 85.7191 349.758 85.7902C350.514 85.9452 351.189 86.1487 351.783 86.4006C352.377 86.6461 352.849 86.982 353.198 87.4083C353.546 87.8282 353.721 88.3805 353.721 89.0653C353.721 89.5304 353.618 89.9567 353.411 90.3443C353.204 90.7319 352.907 91.071 352.519 91.3617C352.132 91.6459 351.667 91.8688 351.124 92.0303C350.588 92.1853 349.984 92.2629 349.312 92.2629C348.337 92.2629 347.51 92.0884 346.832 91.7396C346.16 91.3908 345.649 90.9483 345.301 90.4121C344.958 89.8695 344.787 89.314 344.787 88.7455H347.432C347.445 89.1266 347.542 89.4335 347.723 89.666C347.91 89.8986 348.146 90.0665 348.43 90.1699C348.721 90.2732 349.034 90.3249 349.37 90.3249C349.732 90.3249 350.032 90.2765 350.271 90.1796C350.51 90.0762 350.691 89.9406 350.814 89.7726C350.943 89.5982 351.008 89.398 351.008 89.1719Z" fill="#0A355C"/>
<path d="M358.479 81.5849V92.0691H355.678V81.5849H358.479ZM355.504 78.8524C355.504 78.4454 355.646 78.1095 355.93 77.8447C356.214 77.5798 356.595 77.4474 357.074 77.4474C357.545 77.4474 357.923 77.5798 358.207 77.8447C358.498 78.1095 358.643 78.4454 358.643 78.8524C358.643 79.2594 358.498 79.5953 358.207 79.8601C357.923 80.125 357.545 80.2574 357.074 80.2574C356.595 80.2574 356.214 80.125 355.93 79.8601C355.646 79.5953 355.504 79.2594 355.504 78.8524Z" fill="#0A355C"/>
<path d="M365.92 81.5849V83.5616H359.816V81.5849H365.92ZM361.327 78.9977H364.118V88.9102C364.118 89.2138 364.157 89.4464 364.234 89.6079C364.318 89.7694 364.441 89.8824 364.602 89.947C364.764 90.0052 364.967 90.0342 365.213 90.0342C365.387 90.0342 365.542 90.0278 365.678 90.0149C365.82 89.9955 365.94 89.9761 366.036 89.9567L366.046 92.0109C365.807 92.0884 365.549 92.1498 365.271 92.195C364.993 92.2402 364.686 92.2629 364.35 92.2629C363.737 92.2629 363.201 92.1627 362.742 91.9625C362.29 91.7558 361.941 91.4263 361.695 90.9741C361.45 90.522 361.327 89.9277 361.327 89.1912V78.9977Z" fill="#0A355C"/>
<path d="M302.637 103.669L298.8 115.365H295.709L300.951 101.257H302.918L302.637 103.669ZM305.825 115.365L301.978 103.669L301.668 101.257H303.654L308.926 115.365H305.825ZM305.651 110.113V112.39H298.199V110.113H305.651Z" fill="#0A355C"/>
<path d="M316.251 113.078V100.481H319.061V115.365H316.532L316.251 113.078ZM309.623 110.249V110.045C309.623 109.244 309.714 108.517 309.895 107.865C310.076 107.206 310.34 106.641 310.689 106.169C311.038 105.698 311.468 105.333 311.978 105.074C312.488 104.816 313.07 104.687 313.722 104.687C314.336 104.687 314.872 104.816 315.331 105.074C315.796 105.333 316.19 105.701 316.513 106.179C316.842 106.65 317.107 107.209 317.307 107.855C317.507 108.495 317.653 109.196 317.743 109.958V110.404C317.653 111.134 317.507 111.812 317.307 112.438C317.107 113.065 316.842 113.614 316.513 114.086C316.19 114.551 315.796 114.912 315.331 115.171C314.865 115.429 314.323 115.558 313.703 115.558C313.05 115.558 312.469 115.426 311.959 115.161C311.455 114.896 311.028 114.525 310.679 114.047C310.337 113.569 310.076 113.007 309.895 112.361C309.714 111.715 309.623 111.011 309.623 110.249ZM312.414 110.045V110.249C312.414 110.681 312.446 111.085 312.511 111.46C312.582 111.834 312.695 112.167 312.85 112.458C313.011 112.742 313.218 112.965 313.47 113.126C313.728 113.281 314.042 113.359 314.41 113.359C314.888 113.359 315.282 113.252 315.592 113.039C315.902 112.82 316.138 112.519 316.299 112.138C316.467 111.757 316.564 111.318 316.59 110.82V109.551C316.571 109.144 316.513 108.779 316.416 108.456C316.325 108.126 316.19 107.845 316.009 107.613C315.834 107.38 315.615 107.2 315.35 107.07C315.092 106.941 314.785 106.877 314.429 106.877C314.068 106.877 313.758 106.961 313.499 107.128C313.241 107.29 313.031 107.513 312.869 107.797C312.714 108.081 312.598 108.417 312.521 108.805C312.449 109.186 312.414 109.599 312.414 110.045Z" fill="#0A355C"/>
<path d="M324.032 107.167V115.365H321.241V104.88H323.867L324.032 107.167ZM327.191 104.813L327.142 107.4C327.007 107.38 326.842 107.364 326.648 107.351C326.461 107.332 326.29 107.322 326.134 107.322C325.74 107.322 325.398 107.374 325.107 107.477C324.823 107.574 324.584 107.72 324.39 107.913C324.203 108.107 324.061 108.343 323.964 108.621C323.874 108.898 323.822 109.215 323.809 109.57L323.247 109.396C323.247 108.718 323.315 108.094 323.45 107.526C323.586 106.951 323.783 106.45 324.042 106.024C324.306 105.597 324.629 105.268 325.01 105.035C325.392 104.803 325.828 104.687 326.319 104.687C326.474 104.687 326.632 104.7 326.793 104.725C326.955 104.745 327.087 104.774 327.191 104.813Z" fill="#0A355C"/>
<path d="M333.14 115.558C332.326 115.558 331.596 115.429 330.95 115.171C330.304 114.906 329.755 114.541 329.303 114.076C328.857 113.611 328.515 113.071 328.276 112.458C328.037 111.838 327.917 111.179 327.917 110.481V110.093C327.917 109.299 328.03 108.572 328.257 107.913C328.483 107.254 328.806 106.683 329.225 106.198C329.652 105.714 330.169 105.342 330.776 105.084C331.383 104.819 332.068 104.687 332.83 104.687C333.573 104.687 334.232 104.809 334.807 105.055C335.382 105.3 335.863 105.649 336.25 106.101C336.645 106.554 336.942 107.096 337.142 107.729C337.342 108.356 337.442 109.053 337.442 109.822V110.985H329.109V109.125H334.7V108.911C334.7 108.524 334.629 108.178 334.487 107.875C334.351 107.564 334.145 107.319 333.867 107.138C333.589 106.957 333.234 106.867 332.801 106.867C332.433 106.867 332.116 106.948 331.851 107.109C331.587 107.271 331.37 107.497 331.202 107.787C331.041 108.078 330.918 108.42 330.834 108.814C330.756 109.202 330.718 109.628 330.718 110.093V110.481C330.718 110.901 330.776 111.289 330.892 111.644C331.015 111.999 331.186 112.306 331.406 112.564C331.632 112.823 331.903 113.023 332.22 113.165C332.543 113.307 332.908 113.378 333.315 113.378C333.818 113.378 334.287 113.281 334.72 113.088C335.159 112.887 335.537 112.587 335.853 112.186L337.21 113.659C336.99 113.976 336.69 114.279 336.309 114.57C335.934 114.861 335.482 115.1 334.952 115.287C334.422 115.468 333.818 115.558 333.14 115.558Z" fill="#0A355C"/>
<path d="M344.7 112.467C344.7 112.267 344.642 112.086 344.525 111.925C344.409 111.763 344.193 111.615 343.876 111.479C343.566 111.337 343.117 111.208 342.529 111.092C342 110.975 341.505 110.83 341.047 110.655C340.595 110.475 340.201 110.258 339.865 110.006C339.535 109.754 339.277 109.457 339.09 109.115C338.902 108.766 338.809 108.369 338.809 107.923C338.809 107.484 338.902 107.07 339.09 106.683C339.283 106.295 339.558 105.953 339.913 105.656C340.275 105.352 340.714 105.116 341.231 104.948C341.754 104.774 342.342 104.687 342.994 104.687C343.905 104.687 344.687 104.832 345.339 105.123C345.998 105.413 346.502 105.814 346.851 106.324C347.206 106.828 347.384 107.403 347.384 108.049H344.593C344.593 107.778 344.535 107.535 344.419 107.322C344.309 107.103 344.135 106.931 343.896 106.809C343.663 106.68 343.359 106.615 342.985 106.615C342.675 106.615 342.407 106.67 342.181 106.78C341.954 106.883 341.78 107.025 341.657 107.206C341.541 107.38 341.483 107.574 341.483 107.787C341.483 107.949 341.515 108.094 341.58 108.223C341.651 108.346 341.764 108.459 341.919 108.563C342.074 108.666 342.274 108.763 342.52 108.853C342.772 108.937 343.082 109.015 343.45 109.086C344.206 109.241 344.881 109.444 345.475 109.696C346.069 109.942 346.541 110.278 346.89 110.704C347.239 111.124 347.413 111.676 347.413 112.361C347.413 112.826 347.31 113.252 347.103 113.64C346.896 114.027 346.599 114.367 346.211 114.657C345.824 114.942 345.359 115.164 344.816 115.326C344.28 115.481 343.676 115.558 343.004 115.558C342.029 115.558 341.202 115.384 340.524 115.035C339.852 114.686 339.341 114.244 338.993 113.708C338.65 113.165 338.479 112.61 338.479 112.041H341.124C341.137 112.422 341.234 112.729 341.415 112.962C341.602 113.194 341.838 113.362 342.122 113.465C342.413 113.569 342.726 113.621 343.062 113.621C343.424 113.621 343.724 113.572 343.963 113.475C344.202 113.372 344.383 113.236 344.506 113.068C344.635 112.894 344.7 112.694 344.7 112.467Z" fill="#0A355C"/>
<path d="M354.893 112.467C354.893 112.267 354.835 112.086 354.719 111.925C354.603 111.763 354.386 111.615 354.07 111.479C353.76 111.337 353.311 111.208 352.723 111.092C352.193 110.975 351.699 110.83 351.24 110.655C350.788 110.475 350.394 110.258 350.058 110.006C349.729 109.754 349.47 109.457 349.283 109.115C349.096 108.766 349.002 108.369 349.002 107.923C349.002 107.484 349.096 107.07 349.283 106.683C349.477 106.295 349.751 105.953 350.107 105.656C350.468 105.352 350.908 105.116 351.424 104.948C351.948 104.774 352.536 104.687 353.188 104.687C354.099 104.687 354.88 104.832 355.533 105.123C356.192 105.413 356.696 105.814 357.044 106.324C357.4 106.828 357.577 107.403 357.577 108.049H354.787C354.787 107.778 354.729 107.535 354.612 107.322C354.503 107.103 354.328 106.931 354.089 106.809C353.857 106.68 353.553 106.615 353.178 106.615C352.868 106.615 352.6 106.67 352.374 106.78C352.148 106.883 351.974 107.025 351.851 107.206C351.735 107.38 351.676 107.574 351.676 107.787C351.676 107.949 351.709 108.094 351.773 108.223C351.844 108.346 351.957 108.459 352.112 108.563C352.267 108.666 352.468 108.763 352.713 108.853C352.965 108.937 353.275 109.015 353.643 109.086C354.399 109.241 355.074 109.444 355.669 109.696C356.263 109.942 356.734 110.278 357.083 110.704C357.432 111.124 357.606 111.676 357.606 112.361C357.606 112.826 357.503 113.252 357.296 113.64C357.09 114.027 356.793 114.367 356.405 114.657C356.017 114.942 355.552 115.164 355.01 115.326C354.473 115.481 353.869 115.558 353.198 115.558C352.222 115.558 351.395 115.384 350.717 115.035C350.045 114.686 349.535 114.244 349.186 113.708C348.844 113.165 348.673 112.61 348.673 112.041H351.318C351.331 112.422 351.428 112.729 351.609 112.962C351.796 113.194 352.032 113.362 352.316 113.465C352.607 113.569 352.92 113.621 353.256 113.621C353.618 113.621 353.918 113.572 354.157 113.475C354.396 113.372 354.577 113.236 354.7 113.068C354.829 112.894 354.893 112.694 354.893 112.467Z" fill="#0A355C"/>
<path d="M364.244 115.558C363.43 115.558 362.7 115.429 362.054 115.171C361.408 114.906 360.859 114.541 360.407 114.076C359.961 113.611 359.619 113.071 359.38 112.458C359.141 111.838 359.021 111.179 359.021 110.481V110.093C359.021 109.299 359.134 108.572 359.36 107.913C359.586 107.254 359.909 106.683 360.329 106.198C360.756 105.714 361.272 105.342 361.88 105.084C362.487 104.819 363.172 104.687 363.934 104.687C364.677 104.687 365.336 104.809 365.91 105.055C366.485 105.3 366.967 105.649 367.354 106.101C367.748 106.554 368.045 107.096 368.246 107.729C368.446 108.356 368.546 109.053 368.546 109.822V110.985H360.213V109.125H365.804V108.911C365.804 108.524 365.733 108.178 365.591 107.875C365.455 107.564 365.248 107.319 364.971 107.138C364.693 106.957 364.338 106.867 363.905 106.867C363.537 106.867 363.22 106.948 362.955 107.109C362.69 107.271 362.474 107.497 362.306 107.787C362.144 108.078 362.022 108.42 361.938 108.814C361.86 109.202 361.821 109.628 361.821 110.093V110.481C361.821 110.901 361.88 111.289 361.996 111.644C362.119 111.999 362.29 112.306 362.509 112.564C362.735 112.823 363.007 113.023 363.323 113.165C363.646 113.307 364.011 113.378 364.418 113.378C364.922 113.378 365.39 113.281 365.823 113.088C366.263 112.887 366.64 112.587 366.957 112.186L368.314 113.659C368.094 113.976 367.793 114.279 367.412 114.57C367.038 114.861 366.586 115.1 366.056 115.287C365.526 115.468 364.922 115.558 364.244 115.558Z" fill="#0A355C"/>
<path d="M455.097 97.3938H451.502V95.1264H455.097C455.652 95.1264 456.104 95.036 456.453 94.8551C456.802 94.6678 457.057 94.4094 457.219 94.0799C457.38 93.7505 457.461 93.3791 457.461 92.9656C457.461 92.5457 457.38 92.1549 457.219 91.7932C457.057 91.4314 456.802 91.1407 456.453 90.9211C456.104 90.7015 455.652 90.5917 455.097 90.5917H452.509V102.423H449.603V88.3146H455.097C456.201 88.3146 457.148 88.5149 457.936 88.9154C458.73 89.3094 459.337 89.8553 459.757 90.5529C460.177 91.2506 460.387 92.0483 460.387 92.9463C460.387 93.8571 460.177 94.6452 459.757 95.3105C459.337 95.9759 458.73 96.4894 457.936 96.8512C457.148 97.2129 456.201 97.3938 455.097 97.3938Z" fill="#65728A"/>
<path d="M461.637 97.2872V97.0837C461.637 96.315 461.747 95.6077 461.967 94.9617C462.186 94.3093 462.506 93.744 462.926 93.266C463.346 92.788 463.862 92.4166 464.476 92.1517C465.09 91.8804 465.794 91.7447 466.588 91.7447C467.383 91.7447 468.09 91.8804 468.711 92.1517C469.331 92.4166 469.851 92.788 470.271 93.266C470.697 93.744 471.02 94.3093 471.24 94.9617C471.459 95.6077 471.569 96.315 471.569 97.0837V97.2872C471.569 98.0495 471.459 98.7568 471.24 99.4092C471.02 100.055 470.697 100.62 470.271 101.105C469.851 101.583 469.334 101.954 468.72 102.219C468.107 102.484 467.402 102.617 466.608 102.617C465.813 102.617 465.106 102.484 464.486 102.219C463.872 101.954 463.352 101.583 462.926 101.105C462.506 100.62 462.186 100.055 461.967 99.4092C461.747 98.7568 461.637 98.0495 461.637 97.2872ZM464.428 97.0837V97.2872C464.428 97.7265 464.466 98.1367 464.544 98.5178C464.621 98.8989 464.744 99.2348 464.912 99.5255C465.087 99.8098 465.313 100.033 465.59 100.194C465.868 100.356 466.207 100.436 466.608 100.436C466.995 100.436 467.328 100.356 467.606 100.194C467.884 100.033 468.107 99.8098 468.274 99.5255C468.442 99.2348 468.565 98.8989 468.643 98.5178C468.727 98.1367 468.769 97.7265 468.769 97.2872V97.0837C468.769 96.6574 468.727 96.2569 468.643 95.8822C468.565 95.5011 468.439 95.1652 468.265 94.8745C468.097 94.5773 467.874 94.3448 467.596 94.1768C467.318 94.0089 466.983 93.9249 466.588 93.9249C466.194 93.9249 465.859 94.0089 465.581 94.1768C465.309 94.3448 465.087 94.5773 464.912 94.8745C464.744 95.1652 464.621 95.5011 464.544 95.8822C464.466 96.2569 464.428 96.6574 464.428 97.0837Z" fill="#65728A"/>
<path d="M472.838 97.2872V97.0837C472.838 96.315 472.948 95.6077 473.168 94.9617C473.387 94.3093 473.707 93.744 474.127 93.266C474.547 92.788 475.064 92.4166 475.677 92.1517C476.291 91.8804 476.995 91.7447 477.79 91.7447C478.584 91.7447 479.292 91.8804 479.912 92.1517C480.532 92.4166 481.052 92.788 481.472 93.266C481.898 93.744 482.221 94.3093 482.441 94.9617C482.66 95.6077 482.77 96.315 482.77 97.0837V97.2872C482.77 98.0495 482.66 98.7568 482.441 99.4092C482.221 100.055 481.898 100.62 481.472 101.105C481.052 101.583 480.535 101.954 479.921 102.219C479.308 102.484 478.604 102.617 477.809 102.617C477.015 102.617 476.307 102.484 475.687 102.219C475.073 101.954 474.553 101.583 474.127 101.105C473.707 100.62 473.387 100.055 473.168 99.4092C472.948 98.7568 472.838 98.0495 472.838 97.2872ZM475.629 97.0837V97.2872C475.629 97.7265 475.668 98.1367 475.745 98.5178C475.823 98.8989 475.945 99.2348 476.113 99.5255C476.288 99.8098 476.514 100.033 476.792 100.194C477.069 100.356 477.409 100.436 477.809 100.436C478.197 100.436 478.529 100.356 478.807 100.194C479.085 100.033 479.308 99.8098 479.476 99.5255C479.644 99.2348 479.766 98.8989 479.844 98.5178C479.928 98.1367 479.97 97.7265 479.97 97.2872V97.0837C479.97 96.6574 479.928 96.2569 479.844 95.8822C479.766 95.5011 479.64 95.1652 479.466 94.8745C479.298 94.5773 479.075 94.3448 478.797 94.1768C478.52 94.0089 478.184 93.9249 477.79 93.9249C477.396 93.9249 477.06 94.0089 476.782 94.1768C476.511 94.3448 476.288 94.5773 476.113 94.8745C475.945 95.1652 475.823 95.5011 475.745 95.8822C475.668 96.2569 475.629 96.6574 475.629 97.0837Z" fill="#65728A"/>
<path d="M487.431 87.5394V102.423H484.631V87.5394H487.431Z" fill="#65728A"/>
<path d="M87.5889 332.424H92.1641C93.1021 332.424 93.9082 332.564 94.5823 332.845C95.2619 333.126 95.7843 333.541 96.1495 334.092C96.5146 334.642 96.6971 335.319 96.6971 336.123C96.6971 336.78 96.5848 337.344 96.3601 337.816C96.141 338.282 95.8293 338.673 95.4248 338.987C95.026 339.296 94.557 339.543 94.0177 339.729L93.2173 340.15H89.2403L89.2235 338.178H92.1809C92.6247 338.178 92.9926 338.1 93.2847 337.943C93.5768 337.785 93.7959 337.566 93.9419 337.285C94.0936 337.004 94.1694 336.679 94.1694 336.308C94.1694 335.915 94.0964 335.575 93.9503 335.288C93.8043 335.002 93.5824 334.783 93.2847 334.631C92.987 334.48 92.6134 334.404 92.1641 334.404H90.1166V344.692H87.5889V332.424ZM94.4475 344.692L91.6501 339.223L94.3211 339.206L97.1521 344.574V344.692H94.4475Z" fill="#0A355C"/>
<path d="M106.875 342.72V344.692H100.345V342.72H106.875ZM101.171 332.424V344.692H98.6435V332.424H101.171ZM106.024 337.42V339.341H100.345V337.42H106.024ZM106.867 332.424V334.404H100.345V332.424H106.867Z" fill="#0A355C"/>
<path d="M111.038 332.424V344.692H108.519V332.424H111.038Z" fill="#0A355C"/>
<path d="M123.39 332.424V344.692H120.862L115.933 336.468V344.692H113.405V332.424H115.933L120.871 340.656V332.424H123.39Z" fill="#0A355C"/>
<path d="M130.013 342.13L132.903 332.424H135.717L131.445 344.692H129.591L130.013 342.13ZM127.35 332.424L130.232 342.13L130.67 344.692H128.799L124.553 332.424H127.35Z" fill="#0A355C"/>
<path d="M145.095 342.72V344.692H138.565V342.72H145.095ZM139.391 332.424V344.692H136.863V332.424H139.391ZM144.244 337.42V339.341H138.565V337.42H144.244ZM145.086 332.424V334.404H138.565V332.424H145.086Z" fill="#0A355C"/>
<path d="M152.956 341.481C152.956 341.262 152.922 341.066 152.855 340.892C152.793 340.712 152.675 340.549 152.501 340.403C152.327 340.251 152.083 340.102 151.768 339.956C151.453 339.81 151.046 339.659 150.546 339.501C149.99 339.322 149.462 339.119 148.962 338.895C148.468 338.67 148.03 338.409 147.648 338.111C147.271 337.808 146.974 337.457 146.755 337.058C146.541 336.659 146.435 336.196 146.435 335.668C146.435 335.156 146.547 334.693 146.772 334.277C146.996 333.856 147.311 333.497 147.715 333.199C148.12 332.895 148.597 332.662 149.148 332.499C149.704 332.337 150.313 332.255 150.976 332.255C151.88 332.255 152.67 332.418 153.344 332.744C154.018 333.07 154.54 333.516 154.911 334.084C155.287 334.651 155.475 335.3 155.475 336.03H152.964C152.964 335.67 152.889 335.356 152.737 335.086C152.591 334.811 152.366 334.595 152.063 334.437C151.765 334.28 151.389 334.201 150.934 334.201C150.496 334.201 150.131 334.269 149.839 334.404C149.546 334.533 149.327 334.71 149.181 334.935C149.035 335.154 148.962 335.401 148.962 335.676C148.962 335.884 149.013 336.072 149.114 336.241C149.221 336.409 149.378 336.566 149.586 336.712C149.794 336.858 150.049 336.996 150.352 337.125C150.656 337.254 151.007 337.381 151.406 337.504C152.074 337.707 152.661 337.934 153.167 338.187C153.678 338.44 154.105 338.723 154.447 339.038C154.79 339.352 155.048 339.709 155.223 340.108C155.397 340.507 155.484 340.959 155.484 341.465C155.484 341.998 155.38 342.476 155.172 342.897C154.964 343.318 154.664 343.675 154.27 343.967C153.877 344.259 153.408 344.481 152.863 344.633C152.319 344.784 151.709 344.86 151.035 344.86C150.428 344.86 149.83 344.781 149.24 344.624C148.65 344.461 148.114 344.217 147.631 343.891C147.154 343.565 146.772 343.15 146.485 342.644C146.199 342.139 146.055 341.54 146.055 340.849H148.592C148.592 341.231 148.65 341.554 148.768 341.818C148.886 342.082 149.052 342.296 149.266 342.459C149.485 342.622 149.743 342.74 150.041 342.813C150.344 342.886 150.675 342.922 151.035 342.922C151.473 342.922 151.833 342.86 152.113 342.737C152.4 342.613 152.611 342.442 152.745 342.223C152.886 342.004 152.956 341.757 152.956 341.481Z" fill="#0A355C"/>
<path d="M162.688 332.424V344.692H160.169V332.424H162.688ZM166.463 332.424V334.404H156.453V332.424H166.463Z" fill="#0A355C"/>
<path d="M151.092 392.024C143.728 404.796 127.269 409.125 114.492 401.765C101.714 394.405 97.3826 377.953 104.746 365.181C112.109 352.409 128.568 348.08 141.346 355.44C154.015 362.8 158.455 379.252 151.092 392.024Z" fill="#F5516C"/>
<path d="M128.086 360.808V375.805C127.252 374.972 126.538 374.258 125.585 373.306C125.466 371.877 125.228 367.831 125.228 367.831L127.61 360.689C126.181 360.689 124.752 360.927 123.442 361.284L122.251 364.736L118.917 363.07C117.726 363.784 116.536 364.617 115.464 365.688L121.418 368.664L121.656 372.234L118.084 371.996L115.107 366.045C114.154 367.116 113.201 368.188 112.487 369.497L114.154 372.83L110.582 374.02C110.224 375.329 109.986 376.757 109.986 378.305L117.131 376.043L122.847 376.281L125.228 378.662L122.847 381.042L117.131 381.28L109.986 379.019C109.986 380.447 110.224 381.875 110.582 383.304L114.035 384.494L112.368 387.708C113.082 388.898 113.916 390.088 114.988 391.04L117.964 385.089L121.537 384.851L121.299 388.422L115.345 391.397C116.416 392.35 117.488 393.302 118.798 394.016L122.013 392.469L123.204 395.92C124.514 396.277 125.943 396.515 127.372 396.515L125.109 389.493C125.109 389.493 125.347 385.446 125.466 384.018C126.3 383.185 127.014 382.471 127.967 381.518V396.515C137.85 396.515 145.828 388.541 145.828 378.662C145.948 368.783 137.969 360.808 128.086 360.808ZM132.135 391.992C132.135 383.066 132.135 374.258 132.135 365.331C136.421 366.283 141.899 371.044 142.137 378.186C142.375 386.041 136.421 391.04 132.135 391.992Z" fill="#F5F5F5"/>
<path d="M226.273 83.6762C223.304 88.8262 216.667 90.5719 211.515 87.6041C206.363 84.6364 204.616 78.0025 207.586 72.8525C210.555 67.7026 217.191 65.9568 222.344 68.9246C227.452 71.8924 229.242 78.5262 226.273 83.6762Z" fill="#F5516C"/>
<path d="M229.646 67.8593L229.643 67.8578C223.906 64.5534 216.513 66.4935 213.202 72.2365C209.896 77.9712 211.837 85.3615 217.583 88.6709C223.32 91.9753 230.713 90.0353 234.024 84.2922C237.332 78.5536 235.339 71.1667 229.646 67.8593Z" fill="#F5516C" stroke="#F5F5F5" stroke-width="1.6"/>
<path d="M223.682 70.8022V77.0913C223.332 76.7419 223.033 76.4424 222.633 76.0431C222.583 75.4442 222.484 73.7471 222.484 73.7471L223.482 70.7523C222.883 70.7523 222.284 70.8521 221.735 71.0019L221.235 72.4494L219.837 71.7506C219.338 72.0501 218.838 72.3995 218.389 72.8487L220.886 74.0965L220.985 75.5939L219.487 75.4941L218.239 72.9984C217.84 73.4476 217.44 73.8969 217.14 74.4459L217.84 75.8435L216.341 76.3426C216.192 76.8917 216.092 77.4906 216.092 78.1395L219.088 77.1911L221.485 77.291L222.484 78.2892L221.485 79.2875L219.088 79.3873L216.092 78.439C216.092 79.0379 216.192 79.6369 216.341 80.2359L217.79 80.735L217.091 82.0827C217.39 82.5818 217.74 83.0809 218.189 83.4802L219.437 80.9846L220.936 80.8847L220.836 82.3821L218.339 83.63C218.788 84.0293 219.238 84.4286 219.787 84.7281L221.135 84.0792L221.635 85.5267C222.184 85.6764 222.783 85.7762 223.382 85.7762L222.434 82.8314C222.434 82.8314 222.533 81.1343 222.583 80.5353C222.933 80.1859 223.233 79.8865 223.632 79.4872V85.7762C227.777 85.7762 231.122 82.432 231.122 78.2892C231.172 74.1464 227.827 70.8022 223.682 70.8022ZM225.38 83.8795C225.38 80.136 225.38 76.4424 225.38 72.6989C227.177 73.0982 229.474 75.0948 229.574 78.0896C229.674 81.3839 227.177 83.4802 225.38 83.8795Z" fill="#F5F5F5"/>
<path d="M96.588 147.143L99.0315 136.822H100.396L100.708 138.541L98.1046 149.09H96.6385L96.588 147.143ZM95.3325 136.822L97.3547 147.143L97.1862 149.09H95.5516L92.8301 136.822H95.3325ZM102.857 147.101L104.854 136.822H107.356L104.643 149.09H103.008L102.857 147.101ZM101.163 136.822L103.624 147.185L103.556 149.09H102.09L99.4696 138.532L99.8066 136.822H101.163Z" fill="#0A355C"/>
<path d="M113.347 138.92L110.01 149.09H107.322L111.881 136.822H113.591L113.347 138.92ZM116.119 149.09L112.774 138.92L112.504 136.822H114.232L118.815 149.09H116.119ZM115.967 144.523V146.503H109.488V144.523H115.967Z" fill="#0A355C"/>
<path d="M127.839 147.118V149.09H121.663V147.118H127.839ZM122.48 136.822V149.09H119.953V136.822H122.48Z" fill="#0A355C"/>
<path d="M137.175 147.118V149.09H130.999V147.118H137.175ZM131.816 136.822V149.09H129.288V136.822H131.816Z" fill="#0A355C"/>
<path d="M146.856 147.118V149.09H140.326V147.118H146.856ZM141.152 136.822V149.09H138.624V136.822H141.152ZM146.005 141.818V143.739H140.326V141.818H146.005ZM146.848 136.822V138.802H140.326V136.822H146.848Z" fill="#0A355C"/>
<path d="M153.984 136.822V149.09H151.465V136.822H153.984ZM157.759 136.822V138.802H147.749V136.822H157.759Z" fill="#0A355C"/>
<path fill-rule="evenodd" clip-rule="evenodd" d="M85.5612 128.307H164.769C166.929 128.307 168.704 126.291 168.704 123.793V108.626H154.937C148.895 108.626 144.017 103.748 144.017 97.7052C144.017 91.6629 148.895 86.7847 154.937 86.7292H168.704V71.5176C168.704 69.0637 166.929 67.048 164.769 67.048H85.5612C83.4007 67.048 81.626 69.0637 81.626 71.5176V123.837C81.626 126.291 83.4007 128.307 85.5612 128.307Z" fill="#F5516C"/>
<path d="M146.863 97.6983C146.863 102.273 150.557 105.967 155.132 105.967H171.921V89.3878L155.132 89.3878C150.557 89.4298 146.863 93.1234 146.863 97.6983Z" fill="#F5516C"/>
<path d="M112.691 82.3965H101.521V88.614H110.9C115.853 88.614 119.962 92.724 119.962 97.6769C119.962 102.63 115.853 106.74 110.9 106.74H101.521V112.957H112.375C120.911 112.957 127.761 106.108 127.761 97.5716C127.761 89.141 121.016 82.3965 112.691 82.3965Z" fill="white"/>
<path d="M104.982 89.774C104.771 89.774 104.56 89.774 104.244 89.774C106.668 91.4602 108.354 94.3055 108.354 97.5723C108.354 100.839 106.773 103.685 104.244 105.371C104.455 105.371 104.666 105.371 104.982 105.371C109.302 105.371 112.78 101.893 112.78 97.5723C112.78 93.2517 109.302 89.774 104.982 89.774Z" fill="white"/>
<path d="M107.31 97.5721C107.31 102.209 103.517 106.003 98.8798 106.003C94.243 106.003 90.4492 102.209 90.4492 97.5721C90.4492 92.9352 94.243 89.1415 98.8798 89.1415C103.622 89.1415 107.31 92.9352 107.31 97.5721Z" fill="white"/>
</svg>
