<svg width="601" height="471" viewBox="0 0 601 471" fill="none" xmlns="http://www.w3.org/2000/svg">
<path d="M277.201 278.688C276.044 278.688 275.107 279.626 275.107 280.782C275.107 281.938 276.044 282.875 277.201 282.875C278.357 282.875 279.294 281.938 279.294 280.782C279.294 279.626 278.357 278.688 277.201 278.688Z" fill="#F5516C"/>
<path d="M266.733 278.688C265.577 278.688 264.639 279.626 264.639 280.782C264.639 281.938 265.577 282.875 266.733 282.875C267.889 282.875 268.826 281.938 268.826 280.782C268.826 279.626 267.889 278.688 266.733 278.688Z" fill="#F5516C"/>
<path d="M298.133 278.688C296.977 278.688 296.04 279.626 296.04 280.782C296.04 281.938 296.977 282.875 298.133 282.875C299.289 282.875 300.227 281.938 300.227 280.782C300.227 279.626 299.289 278.688 298.133 278.688Z" fill="#F5516C"/>
<path d="M287.665 278.688C286.509 278.688 285.572 279.626 285.572 280.782C285.572 281.938 286.509 282.875 287.665 282.875C288.822 282.875 289.759 281.938 289.759 280.782C289.759 279.626 288.822 278.688 287.665 278.688Z" fill="#F5516C"/>
<path d="M319.321 278.688C318.164 278.688 317.227 279.626 317.227 280.782C317.227 281.938 318.164 282.875 319.321 282.875C320.477 282.875 321.414 281.938 321.414 280.782C321.414 279.626 320.477 278.688 319.321 278.688Z" fill="#F5516C"/>
<path d="M308.853 278.688C307.697 278.688 306.759 279.626 306.759 280.782C306.759 281.938 307.697 282.875 308.853 282.875C310.009 282.875 310.946 281.938 310.946 280.782C310.946 279.626 310.009 278.688 308.853 278.688Z" fill="#F5516C"/>
<path d="M340.252 278.688C339.096 278.688 338.159 279.626 338.159 280.782C338.159 281.938 339.096 282.875 340.252 282.875C341.408 282.875 342.346 281.938 342.346 280.782C342.346 279.626 341.408 278.688 340.252 278.688Z" fill="#F5516C"/>
<path d="M361.183 278.688C360.027 278.688 359.089 279.626 359.089 280.782C359.089 281.938 360.027 282.875 361.183 282.875C362.339 282.875 363.276 281.938 363.276 280.782C363.276 279.626 362.339 278.688 361.183 278.688Z" fill="#F5516C"/>
<path d="M329.785 278.688C328.629 278.688 327.692 279.626 327.692 280.782C327.692 281.938 328.629 282.875 329.785 282.875C330.942 282.875 331.879 281.938 331.879 280.782C331.879 279.626 330.942 278.688 329.785 278.688Z" fill="#F5516C"/>
<path d="M350.716 278.688C349.56 278.688 348.623 279.626 348.623 280.782C348.623 281.938 349.56 282.875 350.716 282.875C351.872 282.875 352.81 281.938 352.81 280.782C352.81 279.626 351.872 278.688 350.716 278.688Z" fill="#F5516C"/>
<path d="M256.266 278.688C255.11 278.688 254.172 279.626 254.172 280.782C254.172 281.938 255.11 282.875 256.266 282.875C257.422 282.875 258.359 281.938 258.359 280.782C258.359 279.626 257.422 278.688 256.266 278.688Z" fill="#F5516C"/>
<path d="M245.798 278.688C244.642 278.688 243.705 279.626 243.705 280.782C243.705 281.938 244.642 282.875 245.798 282.875C246.954 282.875 247.892 281.938 247.892 280.782C247.892 279.626 246.954 278.688 245.798 278.688Z" fill="#F5516C"/>
<path d="M235.329 278.688C234.173 278.688 233.236 279.626 233.236 280.782C233.236 281.938 234.173 282.875 235.329 282.875C236.486 282.875 237.423 281.938 237.423 280.782C237.423 279.626 236.486 278.688 235.329 278.688Z" fill="#F5516C"/>
<path d="M224.862 278.688C223.705 278.688 222.768 279.626 222.768 280.782C222.768 281.938 223.705 282.875 224.862 282.875C226.018 282.875 226.955 281.938 226.955 280.782C226.955 279.626 226.018 278.688 224.862 278.688Z" fill="#F5516C"/>
<path d="M214.398 278.688C213.242 278.688 212.304 279.626 212.304 280.782C212.304 281.938 213.242 282.875 214.398 282.875C215.554 282.875 216.491 281.938 216.491 280.782C216.491 279.626 215.554 278.688 214.398 278.688Z" fill="#F5516C"/>
<path d="M203.93 278.688C202.774 278.688 201.837 279.626 201.837 280.782C201.837 281.938 202.774 282.875 203.93 282.875C205.086 282.875 206.023 281.938 206.023 280.782C206.023 279.626 205.086 278.688 203.93 278.688Z" fill="#F5516C"/>
<path d="M199.056 271.9L190.174 280.782L199.056 289.663" stroke="#F5516C" stroke-width="3"/>
<path d="M144.053 170.38L135.171 161.499L126.289 170.38" stroke="#F5516C" stroke-width="3"/>
<path d="M137.266 184.746C137.266 183.59 136.329 182.652 135.173 182.652C134.016 182.652 133.079 183.59 133.079 184.746C133.079 185.902 134.016 186.839 135.173 186.839C136.329 186.839 137.266 185.902 137.266 184.746Z" fill="#F5516C"/>
<path d="M137.266 174.691C137.266 173.535 136.329 172.597 135.173 172.597C134.016 172.597 133.079 173.535 133.079 174.691C133.079 175.847 134.016 176.784 135.173 176.784C136.329 176.784 137.266 175.847 137.266 174.691Z" fill="#F5516C"/>
<path d="M137.266 195.214C137.266 194.058 136.329 193.12 135.173 193.12C134.016 193.12 133.079 194.058 133.079 195.214C133.079 196.37 134.016 197.307 135.173 197.307C136.329 197.307 137.266 196.37 137.266 195.214Z" fill="#F5516C"/>
<path d="M219.419 193.121C218.263 193.121 217.326 194.058 217.326 195.214C217.326 196.37 218.263 197.307 219.419 197.307C220.575 197.307 221.513 196.37 221.513 195.214C221.513 194.058 220.575 193.121 219.419 193.121Z" fill="#F5516C"/>
<path d="M208.951 193.121C207.795 193.121 206.858 194.058 206.858 195.214C206.858 196.37 207.795 197.307 208.951 197.307C210.108 197.307 211.045 196.37 211.045 195.214C211.045 194.058 210.108 193.121 208.951 193.121Z" fill="#F5516C"/>
<path d="M240.35 193.121C239.194 193.121 238.256 194.058 238.256 195.214C238.256 196.37 239.194 197.307 240.35 197.307C241.506 197.307 242.443 196.37 242.443 195.214C242.443 194.058 241.506 193.121 240.35 193.121Z" fill="#F5516C"/>
<path d="M229.884 193.121C228.728 193.121 227.791 194.058 227.791 195.214C227.791 196.37 228.728 197.307 229.884 197.307C231.04 197.307 231.978 196.37 231.978 195.214C231.978 194.058 231.04 193.121 229.884 193.121Z" fill="#F5516C"/>
<path d="M261.537 193.121C260.381 193.121 259.444 194.058 259.444 195.214C259.444 196.37 260.381 197.307 261.537 197.307C262.694 197.307 263.631 196.37 263.631 195.214C263.631 194.058 262.694 193.121 261.537 193.121Z" fill="#F5516C"/>
<path d="M251.071 193.121C249.914 193.121 248.977 194.058 248.977 195.214C248.977 196.37 249.914 197.307 251.071 197.307C252.227 197.307 253.164 196.37 253.164 195.214C253.164 194.058 252.227 193.121 251.071 193.121Z" fill="#F5516C"/>
<path d="M282.47 193.121C281.314 193.121 280.377 194.058 280.377 195.214C280.377 196.37 281.314 197.307 282.47 197.307C283.626 197.307 284.563 196.37 284.563 195.214C284.563 194.058 283.626 193.121 282.47 193.121Z" fill="#F5516C"/>
<path d="M303.401 193.121C302.245 193.121 301.307 194.058 301.307 195.214C301.307 196.37 302.245 197.307 303.401 197.307C304.557 197.307 305.494 196.37 305.494 195.214C305.494 194.058 304.557 193.121 303.401 193.121Z" fill="#F5516C"/>
<path d="M272.003 193.121C270.847 193.121 269.91 194.058 269.91 195.214C269.91 196.37 270.847 197.307 272.003 197.307C273.159 197.307 274.097 196.37 274.097 195.214C274.097 194.058 273.159 193.121 272.003 193.121Z" fill="#F5516C"/>
<path d="M292.934 193.121C291.778 193.121 290.84 194.058 290.84 195.214C290.84 196.37 291.778 197.307 292.934 197.307C294.09 197.307 295.027 196.37 295.027 195.214C295.027 194.058 294.09 193.121 292.934 193.121Z" fill="#F5516C"/>
<path d="M198.484 193.121C197.328 193.121 196.39 194.058 196.39 195.214C196.39 196.37 197.328 197.307 198.484 197.307C199.64 197.307 200.577 196.37 200.577 195.214C200.577 194.058 199.64 193.121 198.484 193.121Z" fill="#F5516C"/>
<path d="M188.016 193.121C186.86 193.121 185.922 194.058 185.922 195.214C185.922 196.37 186.86 197.307 188.016 197.307C189.172 197.307 190.109 196.37 190.109 195.214C190.109 194.058 189.172 193.121 188.016 193.121Z" fill="#F5516C"/>
<path d="M177.547 193.121C176.391 193.121 175.454 194.058 175.454 195.214C175.454 196.37 176.391 197.307 177.547 197.307C178.703 197.307 179.641 196.37 179.641 195.214C179.641 194.058 178.703 193.121 177.547 193.121Z" fill="#F5516C"/>
<path d="M167.078 193.121C165.922 193.121 164.985 194.058 164.985 195.214C164.985 196.37 165.922 197.307 167.078 197.307C168.235 197.307 169.172 196.37 169.172 195.214C169.172 194.058 168.235 193.121 167.078 193.121Z" fill="#F5516C"/>
<path d="M156.615 193.121C155.458 193.121 154.521 194.058 154.521 195.214C154.521 196.37 155.458 197.307 156.615 197.307C157.771 197.307 158.708 196.37 158.708 195.214C158.708 194.058 157.771 193.121 156.615 193.121Z" fill="#F5516C"/>
<path d="M146.148 193.121C144.992 193.121 144.054 194.058 144.054 195.214C144.054 196.37 144.992 197.307 146.148 197.307C147.304 197.307 148.241 196.37 148.241 195.214C148.241 194.058 147.304 193.121 146.148 193.121Z" fill="#F5516C"/>
<path d="M387.031 193.121C385.874 193.121 384.937 194.058 384.937 195.214C384.937 196.37 385.874 197.307 387.031 197.307C388.187 197.307 389.124 196.37 389.124 195.214C389.124 194.058 388.187 193.121 387.031 193.121Z" fill="#F5516C"/>
<path d="M376.562 193.121C375.406 193.121 374.468 194.058 374.468 195.214C374.468 196.37 375.406 197.307 376.562 197.307C377.718 197.307 378.655 196.37 378.655 195.214C378.655 194.058 377.718 193.121 376.562 193.121Z" fill="#F5516C"/>
<path d="M407.962 193.121C406.806 193.121 405.869 194.058 405.869 195.214C405.869 196.37 406.806 197.307 407.962 197.307C409.118 197.307 410.056 196.37 410.056 195.214C410.056 194.058 409.118 193.121 407.962 193.121Z" fill="#F5516C"/>
<path d="M397.495 193.121C396.339 193.121 395.402 194.058 395.402 195.214C395.402 196.37 396.339 197.307 397.495 197.307C398.652 197.307 399.589 196.37 399.589 195.214C399.589 194.058 398.652 193.121 397.495 193.121Z" fill="#F5516C"/>
<path d="M418.682 203.347C417.526 203.347 416.589 204.284 416.589 205.44C416.589 206.597 417.526 207.534 418.682 207.534C419.838 207.534 420.775 206.597 420.775 205.44C420.775 204.284 419.838 203.347 418.682 203.347Z" fill="#F5516C"/>
<path d="M418.682 213.573C417.526 213.573 416.589 214.511 416.589 215.667C416.589 216.823 417.526 217.76 418.682 217.76C419.838 217.76 420.775 216.823 420.775 215.667C420.775 214.511 419.838 213.573 418.682 213.573Z" fill="#F5516C"/>
<path d="M418.683 193.121C417.527 193.121 416.589 194.058 416.589 195.214C416.589 196.37 417.527 197.307 418.683 197.307C419.839 197.307 420.776 196.37 420.776 195.214C420.776 194.058 419.839 193.121 418.683 193.121Z" fill="#F5516C"/>
<path d="M366.096 193.121C364.94 193.121 364.003 194.058 364.003 195.214C364.003 196.37 364.94 197.307 366.096 197.307C367.252 197.307 368.189 196.37 368.189 195.214C368.189 194.058 367.252 193.121 366.096 193.121Z" fill="#F5516C"/>
<path d="M355.627 193.121C354.471 193.121 353.534 194.058 353.534 195.214C353.534 196.37 354.471 197.307 355.627 197.307C356.783 197.307 357.721 196.37 357.721 195.214C357.721 194.058 356.783 193.121 355.627 193.121Z" fill="#F5516C"/>
<path d="M345.159 193.121C344.003 193.121 343.066 194.058 343.066 195.214C343.066 196.37 344.003 197.307 345.159 197.307C346.316 197.307 347.253 196.37 347.253 195.214C347.253 194.058 346.316 193.121 345.159 193.121Z" fill="#F5516C"/>
<path d="M334.69 193.121C333.534 193.121 332.596 194.058 332.596 195.214C332.596 196.37 333.534 197.307 334.69 197.307C335.846 197.307 336.783 196.37 336.783 195.214C336.783 194.058 335.846 193.121 334.69 193.121Z" fill="#F5516C"/>
<path d="M324.226 193.121C323.07 193.121 322.132 194.058 322.132 195.214C322.132 196.37 323.07 197.307 324.226 197.307C325.382 197.307 326.319 196.37 326.319 195.214C326.319 194.058 325.382 193.121 324.226 193.121Z" fill="#F5516C"/>
<path d="M313.759 193.121C312.603 193.121 311.666 194.058 311.666 195.214C311.666 196.37 312.603 197.307 313.759 197.307C314.915 197.307 315.853 196.37 315.853 195.214C315.853 194.058 314.915 193.121 313.759 193.121Z" fill="#F5516C"/>
<path d="M316.969 367.966C315.813 367.966 314.876 368.904 314.876 370.06C314.876 371.216 315.813 372.153 316.969 372.153C318.125 372.153 319.062 371.216 319.062 370.06C319.062 368.904 318.125 367.966 316.969 367.966Z" fill="#F5516C"/>
<path d="M306.501 367.966C305.345 367.966 304.408 368.904 304.408 370.06C304.408 371.216 305.345 372.153 306.501 372.153C307.657 372.153 308.595 371.216 308.595 370.06C308.595 368.904 307.657 367.966 306.501 367.966Z" fill="#F5516C"/>
<path d="M337.902 367.966C336.746 367.966 335.808 368.904 335.808 370.06C335.808 371.216 336.746 372.153 337.902 372.153C339.058 372.153 339.995 371.216 339.995 370.06C339.995 368.904 339.058 367.966 337.902 367.966Z" fill="#F5516C"/>
<path d="M327.434 367.966C326.278 367.966 325.34 368.904 325.34 370.06C325.34 371.216 326.278 372.153 327.434 372.153C328.59 372.153 329.527 371.216 329.527 370.06C329.527 368.904 328.59 367.966 327.434 367.966Z" fill="#F5516C"/>
<path d="M359.089 367.966C357.933 367.966 356.996 368.904 356.996 370.06C356.996 371.216 357.933 372.153 359.089 372.153C360.245 372.153 361.183 371.216 361.183 370.06C361.183 368.904 360.245 367.966 359.089 367.966Z" fill="#F5516C"/>
<path d="M348.621 367.966C347.465 367.966 346.528 368.904 346.528 370.06C346.528 371.216 347.465 372.153 348.621 372.153C349.778 372.153 350.715 371.216 350.715 370.06C350.715 368.904 349.778 367.966 348.621 367.966Z" fill="#F5516C"/>
<path d="M296.034 367.966C294.878 367.966 293.941 368.904 293.941 370.06C293.941 371.216 294.878 372.153 296.034 372.153C297.191 372.153 298.128 371.216 298.128 370.06C298.128 368.904 297.191 367.966 296.034 367.966Z" fill="#F5516C"/>
<path d="M285.567 367.966C284.411 367.966 283.473 368.904 283.473 370.06C283.473 371.216 284.411 372.153 285.567 372.153C286.723 372.153 287.66 371.216 287.66 370.06C287.66 368.904 286.723 367.966 285.567 367.966Z" fill="#F5516C"/>
<path d="M275.099 367.966C273.943 367.966 273.006 368.904 273.006 370.06C273.006 371.216 273.943 372.153 275.099 372.153C276.255 372.153 277.192 371.216 277.192 370.06C277.192 368.904 276.255 367.966 275.099 367.966Z" fill="#F5516C"/>
<path d="M264.63 367.966C263.474 367.966 262.537 368.904 262.537 370.06C262.537 371.216 263.474 372.153 264.63 372.153C265.786 372.153 266.724 371.216 266.724 370.06C266.724 368.904 265.786 367.966 264.63 367.966Z" fill="#F5516C"/>
<path d="M254.166 367.966C253.01 367.966 252.073 368.904 252.073 370.06C252.073 371.216 253.01 372.153 254.166 372.153C255.323 372.153 256.26 371.216 256.26 370.06C256.26 368.904 255.323 367.966 254.166 367.966Z" fill="#F5516C"/>
<path d="M243.699 367.966C242.542 367.966 241.605 368.904 241.605 370.06C241.605 371.216 242.542 372.153 243.699 372.153C244.855 372.153 245.792 371.216 245.792 370.06C245.792 368.904 244.855 367.966 243.699 367.966Z" fill="#F5516C"/>
<path d="M238.824 361.178L229.942 370.06L238.824 378.941" stroke="#F5516C" stroke-width="3"/>
<path d="M210.838 389.773C211.994 389.773 212.931 388.836 212.931 387.68C212.931 386.524 211.994 385.587 210.838 385.587C209.681 385.587 208.744 386.524 208.744 387.68C208.744 388.836 209.681 389.773 210.838 389.773Z" fill="#0A355C"/>
<path d="M221.306 389.773C222.463 389.773 223.4 388.836 223.4 387.68C223.4 386.524 222.463 385.587 221.306 385.587C220.15 385.587 219.213 386.524 219.213 387.68C219.213 388.836 220.15 389.773 221.306 389.773Z" fill="#0A355C"/>
<path d="M189.906 389.773C191.062 389.773 191.999 388.836 191.999 387.68C191.999 386.524 191.062 385.587 189.906 385.587C188.75 385.587 187.812 386.524 187.812 387.68C187.812 388.836 188.75 389.773 189.906 389.773Z" fill="#0A355C"/>
<path d="M200.374 389.773C201.53 389.773 202.467 388.836 202.467 387.68C202.467 386.524 201.53 385.587 200.374 385.587C199.218 385.587 198.28 386.524 198.28 387.68C198.28 388.836 199.218 389.773 200.374 389.773Z" fill="#0A355C"/>
<path d="M168.718 389.773C169.875 389.773 170.812 388.836 170.812 387.68C170.812 386.524 169.875 385.587 168.718 385.587C167.562 385.587 166.625 386.524 166.625 387.68C166.625 388.836 167.562 389.773 168.718 389.773Z" fill="#0A355C"/>
<path d="M179.186 389.773C180.342 389.773 181.28 388.836 181.28 387.68C181.28 386.524 180.342 385.587 179.186 385.587C178.03 385.587 177.093 386.524 177.093 387.68C177.093 388.836 178.03 389.773 179.186 389.773Z" fill="#0A355C"/>
<path d="M231.773 389.773C232.929 389.773 233.867 388.836 233.867 387.68C233.867 386.524 232.929 385.587 231.773 385.587C230.617 385.587 229.68 386.524 229.68 387.68C229.68 388.836 230.617 389.773 231.773 389.773Z" fill="#0A355C"/>
<path d="M242.241 389.773C243.397 389.773 244.334 388.836 244.334 387.68C244.334 386.524 243.397 385.587 242.241 385.587C241.085 385.587 240.147 386.524 240.147 387.68C240.147 388.836 241.085 389.773 242.241 389.773Z" fill="#0A355C"/>
<path d="M252.709 389.773C253.865 389.773 254.802 388.836 254.802 387.68C254.802 386.524 253.865 385.587 252.709 385.587C251.552 385.587 250.615 386.524 250.615 387.68C250.615 388.836 251.552 389.773 252.709 389.773Z" fill="#0A355C"/>
<path d="M263.177 389.773C264.334 389.773 265.271 388.836 265.271 387.68C265.271 386.524 264.334 385.587 263.177 385.587C262.021 385.587 261.084 386.524 261.084 387.68C261.084 388.836 262.021 389.773 263.177 389.773Z" fill="#0A355C"/>
<path d="M273.641 389.773C274.797 389.773 275.735 388.836 275.735 387.68C275.735 386.524 274.797 385.587 273.641 385.587C272.485 385.587 271.548 386.524 271.548 387.68C271.548 388.836 272.485 389.773 273.641 389.773Z" fill="#0A355C"/>
<path d="M284.109 389.773C285.265 389.773 286.203 388.836 286.203 387.68C286.203 386.524 285.265 385.587 284.109 385.587C282.953 385.587 282.016 386.524 282.016 387.68C282.016 388.836 282.953 389.773 284.109 389.773Z" fill="#0A355C"/>
<path d="M288.984 396.562L297.865 387.68L288.984 378.798" stroke="#0A355C" stroke-width="3"/>
<path d="M260.716 97.3992L192.379 97.3995" stroke="#0A355C" stroke-width="3"/>
<path d="M262.371 106.281L271.253 97.3994L262.371 88.5176" stroke="#0A355C" stroke-width="3"/>
<path d="M476.188 203.403L475.831 142.152" stroke="#9AA5B8" stroke-width="3"/>
<path d="M467.306 205.062L476.188 213.944L485.069 205.062" stroke="#9AA5B8" stroke-width="3"/>
<path d="M405.791 106.281L414.673 97.3994L405.791 88.5176" stroke="#9AA5B8" stroke-width="3"/>
<rect x="288.11" y="62.1797" width="107.299" height="70.4396" rx="13.5" stroke="#0A355C" stroke-width="3"/>
<rect x="422.537" y="62.1797" width="107.299" height="70.4396" rx="13.5" stroke="#9AA5B8" stroke-width="3"/>
<rect x="372.855" y="227.221" width="156.481" height="181.459" rx="23" stroke="#F5516C" stroke-width="4"/>
<rect x="434.263" y="369.678" width="60.9874" height="7.30933" rx="2" fill="#F5516C"/>
<rect x="434.263" y="358.886" width="60.9874" height="7.30933" rx="2" fill="#F5516C"/>
<rect x="434.263" y="348.093" width="60.9874" height="7.30933" rx="2" fill="#F5516C"/>
<rect x="434.263" y="337.3" width="60.9874" height="7.30933" rx="2" fill="#F5516C"/>
<rect x="434.263" y="326.508" width="60.9874" height="7.30933" rx="2" fill="#F5516C"/>
<rect x="434.263" y="315.715" width="60.9874" height="7.30933" rx="2" fill="#F5516C"/>
<rect x="434.263" y="304.923" width="60.9874" height="7.30933" rx="2" fill="#F5516C"/>
<rect x="434.263" y="294.13" width="60.9874" height="7.30933" rx="2" fill="#F5516C"/>
<rect x="434.263" y="283.338" width="60.9874" height="7.30933" rx="2" fill="#F5516C"/>
<path d="M468.191 359.226C457.422 377.905 433.335 384.25 414.631 373.476C395.943 362.711 389.596 338.636 400.374 319.941C411.143 301.263 435.228 294.918 453.932 305.69C472.466 316.459 478.964 340.539 468.191 359.226Z" fill="#F5516C" stroke="#F5F5F5" stroke-width="3"/>
<path d="M434.536 312.548V335.334C433.269 334.068 432.184 332.983 430.737 331.536C430.556 329.366 430.194 323.218 430.194 323.218L433.812 312.367C431.641 312.367 429.47 312.729 427.48 313.271L425.671 318.516L420.605 315.984C418.796 317.069 416.987 318.335 415.358 319.962L424.404 324.483L424.766 329.909L419.339 329.547L414.816 320.505C413.368 322.133 411.921 323.76 410.835 325.749L413.368 330.813L407.941 332.621C407.398 334.61 407.036 336.781 407.036 339.131L417.891 335.695L426.575 336.057L430.194 339.674L426.575 343.291L417.891 343.652L407.036 340.216C407.036 342.387 407.398 344.557 407.941 346.727L413.187 348.535L410.655 353.418C411.74 355.226 413.006 357.034 414.635 358.481L419.158 349.439L424.585 349.078L424.223 354.503L415.177 359.024C416.806 360.47 418.434 361.917 420.424 363.002L425.309 360.651L427.118 365.896C429.108 366.438 431.279 366.8 433.45 366.8L430.013 356.13C430.013 356.13 430.375 349.982 430.556 347.812C431.822 346.546 432.908 345.461 434.355 344.014V366.8C449.371 366.8 461.493 354.684 461.493 339.674C461.674 324.664 449.552 312.548 434.536 312.548ZM440.687 359.928C440.687 346.365 440.687 332.983 440.687 319.42C447.2 320.867 455.522 328.1 455.884 338.951C456.246 350.886 447.2 358.481 440.687 359.928Z" fill="#F5F5F5"/>
<path d="M397.991 256.215H400.452L404.076 266.573L407.7 256.215H410.161L405.064 270.323H403.087L397.991 256.215ZM396.663 256.215H399.115L399.56 266.311V270.323H396.663V256.215ZM409.037 256.215H411.498V270.323H408.591V266.311L409.037 256.215Z" fill="#0A355C"/>
<path d="M419.332 267.959V263.288C419.332 262.952 419.277 262.665 419.167 262.426C419.058 262.18 418.886 261.99 418.654 261.854C418.428 261.719 418.134 261.651 417.772 261.651C417.462 261.651 417.194 261.706 416.968 261.815C416.742 261.919 416.567 262.071 416.445 262.271C416.322 262.465 416.261 262.694 416.261 262.959H413.47C413.47 262.513 413.573 262.09 413.78 261.689C413.987 261.289 414.287 260.937 414.681 260.633C415.075 260.323 415.544 260.081 416.086 259.907C416.635 259.732 417.249 259.645 417.927 259.645C418.741 259.645 419.465 259.781 420.098 260.052C420.731 260.323 421.228 260.73 421.59 261.273C421.958 261.815 422.142 262.494 422.142 263.308V267.794C422.142 268.369 422.178 268.84 422.249 269.209C422.32 269.57 422.423 269.887 422.559 270.158V270.323H419.739C419.604 270.039 419.5 269.683 419.429 269.257C419.365 268.824 419.332 268.391 419.332 267.959ZM419.7 263.937L419.72 265.517H418.16C417.792 265.517 417.472 265.559 417.2 265.643C416.929 265.727 416.706 265.846 416.532 266.001C416.357 266.15 416.228 266.324 416.144 266.525C416.067 266.725 416.028 266.944 416.028 267.183C416.028 267.422 416.083 267.639 416.193 267.833C416.303 268.02 416.461 268.169 416.668 268.278C416.874 268.382 417.117 268.433 417.394 268.433C417.814 268.433 418.179 268.349 418.489 268.182C418.799 268.014 419.038 267.807 419.206 267.561C419.381 267.316 419.471 267.083 419.478 266.864L420.214 268.046C420.111 268.311 419.968 268.585 419.788 268.869C419.613 269.154 419.39 269.422 419.119 269.674C418.848 269.919 418.522 270.123 418.14 270.284C417.759 270.439 417.307 270.517 416.784 270.517C416.118 270.517 415.514 270.384 414.972 270.119C414.436 269.848 414.009 269.477 413.693 269.005C413.383 268.527 413.228 267.984 413.228 267.377C413.228 266.828 413.331 266.34 413.538 265.914C413.745 265.488 414.048 265.129 414.449 264.839C414.856 264.541 415.363 264.319 415.97 264.17C416.577 264.015 417.281 263.937 418.082 263.937H419.7Z" fill="#0A355C"/>
<path d="M429.763 267.426C429.763 267.225 429.705 267.045 429.589 266.883C429.473 266.722 429.256 266.573 428.94 266.437C428.63 266.295 428.181 266.166 427.593 266.05C427.063 265.934 426.569 265.788 426.11 265.614C425.658 265.433 425.264 265.216 424.928 264.965C424.599 264.713 424.34 264.415 424.153 264.073C423.966 263.724 423.872 263.327 423.872 262.881C423.872 262.442 423.966 262.029 424.153 261.641C424.347 261.253 424.621 260.911 424.977 260.614C425.338 260.31 425.778 260.075 426.294 259.907C426.818 259.732 427.405 259.645 428.058 259.645C428.969 259.645 429.75 259.79 430.403 260.081C431.062 260.372 431.566 260.772 431.914 261.282C432.27 261.786 432.447 262.361 432.447 263.007H429.657C429.657 262.736 429.599 262.494 429.482 262.281C429.372 262.061 429.198 261.89 428.959 261.767C428.727 261.638 428.423 261.573 428.048 261.573C427.738 261.573 427.47 261.628 427.244 261.738C427.018 261.841 426.843 261.983 426.721 262.164C426.604 262.339 426.546 262.532 426.546 262.746C426.546 262.907 426.579 263.052 426.643 263.182C426.714 263.304 426.827 263.417 426.982 263.521C427.137 263.624 427.338 263.721 427.583 263.811C427.835 263.895 428.145 263.973 428.513 264.044C429.269 264.199 429.944 264.403 430.538 264.654C431.133 264.9 431.604 265.236 431.953 265.662C432.302 266.082 432.476 266.634 432.476 267.319C432.476 267.784 432.373 268.211 432.166 268.598C431.96 268.986 431.662 269.325 431.275 269.616C430.887 269.9 430.422 270.123 429.88 270.284C429.343 270.439 428.739 270.517 428.068 270.517C427.092 270.517 426.265 270.342 425.587 269.993C424.915 269.645 424.405 269.202 424.056 268.666C423.714 268.123 423.543 267.568 423.543 266.999H426.188C426.201 267.381 426.298 267.687 426.479 267.92C426.666 268.152 426.902 268.32 427.186 268.424C427.477 268.527 427.79 268.579 428.126 268.579C428.488 268.579 428.788 268.53 429.027 268.433C429.266 268.33 429.447 268.194 429.57 268.026C429.699 267.852 429.763 267.652 429.763 267.426Z" fill="#0A355C"/>
<path d="M439.225 259.839V261.815H433.121V259.839H439.225ZM434.633 257.252H437.423V267.164C437.423 267.468 437.462 267.7 437.539 267.862C437.623 268.023 437.746 268.136 437.908 268.201C438.069 268.259 438.273 268.288 438.518 268.288C438.693 268.288 438.848 268.282 438.983 268.269C439.125 268.249 439.245 268.23 439.342 268.211L439.351 270.265C439.112 270.342 438.854 270.404 438.576 270.449C438.298 270.494 437.992 270.517 437.656 270.517C437.042 270.517 436.506 270.417 436.047 270.216C435.595 270.01 435.246 269.68 435.001 269.228C434.755 268.776 434.633 268.182 434.633 267.445V257.252Z" fill="#0A355C"/>
<path d="M445.442 270.517C444.628 270.517 443.898 270.388 443.252 270.129C442.606 269.864 442.057 269.499 441.604 269.034C441.159 268.569 440.816 268.03 440.577 267.416C440.338 266.796 440.219 266.137 440.219 265.439V265.052C440.219 264.257 440.332 263.53 440.558 262.872C440.784 262.213 441.107 261.641 441.527 261.157C441.953 260.672 442.47 260.301 443.077 260.042C443.684 259.777 444.369 259.645 445.131 259.645C445.874 259.645 446.533 259.768 447.108 260.013C447.683 260.259 448.164 260.607 448.552 261.06C448.946 261.512 449.243 262.054 449.443 262.687C449.644 263.314 449.744 264.012 449.744 264.78V265.943H441.411V264.083H447.002V263.87C447.002 263.482 446.931 263.136 446.788 262.833C446.653 262.523 446.446 262.277 446.168 262.096C445.89 261.916 445.535 261.825 445.102 261.825C444.734 261.825 444.418 261.906 444.153 262.067C443.888 262.229 443.672 262.455 443.504 262.746C443.342 263.036 443.219 263.379 443.135 263.773C443.058 264.16 443.019 264.587 443.019 265.052V265.439C443.019 265.859 443.077 266.247 443.194 266.602C443.316 266.957 443.487 267.264 443.707 267.523C443.933 267.781 444.204 267.981 444.521 268.123C444.844 268.265 445.209 268.337 445.616 268.337C446.12 268.337 446.588 268.24 447.021 268.046C447.46 267.846 447.838 267.545 448.155 267.145L449.511 268.618C449.292 268.934 448.991 269.238 448.61 269.528C448.235 269.819 447.783 270.058 447.254 270.245C446.724 270.426 446.12 270.517 445.442 270.517Z" fill="#0A355C"/>
<path d="M453.925 262.125V270.323H451.134V259.839H453.76L453.925 262.125ZM457.084 259.771L457.035 262.358C456.9 262.339 456.735 262.323 456.541 262.31C456.354 262.29 456.183 262.281 456.028 262.281C455.634 262.281 455.291 262.332 455.001 262.436C454.716 262.532 454.477 262.678 454.284 262.872C454.096 263.065 453.954 263.301 453.857 263.579C453.767 263.857 453.715 264.173 453.702 264.529L453.14 264.354C453.14 263.676 453.208 263.052 453.344 262.484C453.479 261.909 453.676 261.408 453.935 260.982C454.2 260.556 454.523 260.226 454.904 259.994C455.285 259.761 455.721 259.645 456.212 259.645C456.367 259.645 456.525 259.658 456.687 259.684C456.848 259.703 456.98 259.732 457.084 259.771Z" fill="#0A355C"/>
<path d="M474.603 256.215V270.323H471.696L466.028 260.866V270.323H463.121V256.215H466.028L471.706 265.682V256.215H474.603Z" fill="#0A355C"/>
<path d="M476.314 265.187V264.984C476.314 264.215 476.423 263.508 476.643 262.862C476.863 262.209 477.182 261.644 477.602 261.166C478.022 260.688 478.539 260.317 479.153 260.052C479.766 259.781 480.47 259.645 481.265 259.645C482.059 259.645 482.767 259.781 483.387 260.052C484.007 260.317 484.527 260.688 484.947 261.166C485.373 261.644 485.696 262.209 485.916 262.862C486.136 263.508 486.245 264.215 486.245 264.984V265.187C486.245 265.95 486.136 266.657 485.916 267.309C485.696 267.955 485.373 268.521 484.947 269.005C484.527 269.483 484.01 269.855 483.397 270.119C482.783 270.384 482.079 270.517 481.284 270.517C480.49 270.517 479.782 270.384 479.162 270.119C478.549 269.855 478.029 269.483 477.602 269.005C477.182 268.521 476.863 267.955 476.643 267.309C476.423 266.657 476.314 265.95 476.314 265.187ZM479.104 264.984V265.187C479.104 265.627 479.143 266.037 479.22 266.418C479.298 266.799 479.421 267.135 479.589 267.426C479.763 267.71 479.989 267.933 480.267 268.094C480.545 268.256 480.884 268.337 481.284 268.337C481.672 268.337 482.005 268.256 482.282 268.094C482.56 267.933 482.783 267.71 482.951 267.426C483.119 267.135 483.242 266.799 483.319 266.418C483.403 266.037 483.445 265.627 483.445 265.187V264.984C483.445 264.558 483.403 264.157 483.319 263.782C483.242 263.401 483.116 263.065 482.941 262.775C482.773 262.478 482.55 262.245 482.273 262.077C481.995 261.909 481.659 261.825 481.265 261.825C480.871 261.825 480.535 261.909 480.257 262.077C479.986 262.245 479.763 262.478 479.589 262.775C479.421 263.065 479.298 263.401 479.22 263.782C479.143 264.157 479.104 264.558 479.104 264.984Z" fill="#0A355C"/>
<path d="M493.954 268.036V255.44H496.764V270.323H494.235L493.954 268.036ZM487.326 265.207V265.003C487.326 264.202 487.416 263.476 487.597 262.823C487.778 262.164 488.043 261.599 488.392 261.127C488.741 260.656 489.17 260.291 489.681 260.033C490.191 259.774 490.772 259.645 491.425 259.645C492.038 259.645 492.575 259.774 493.033 260.033C493.498 260.291 493.892 260.659 494.215 261.137C494.545 261.609 494.81 262.167 495.01 262.813C495.21 263.453 495.355 264.154 495.446 264.916V265.362C495.355 266.092 495.21 266.77 495.01 267.397C494.81 268.023 494.545 268.572 494.215 269.044C493.892 269.509 493.498 269.871 493.033 270.129C492.568 270.388 492.025 270.517 491.405 270.517C490.753 270.517 490.172 270.384 489.661 270.119C489.157 269.855 488.731 269.483 488.382 269.005C488.04 268.527 487.778 267.965 487.597 267.319C487.416 266.673 487.326 265.969 487.326 265.207ZM490.117 265.003V265.207C490.117 265.64 490.149 266.043 490.214 266.418C490.285 266.793 490.398 267.125 490.553 267.416C490.714 267.7 490.921 267.923 491.173 268.085C491.431 268.24 491.744 268.317 492.113 268.317C492.591 268.317 492.985 268.211 493.295 267.997C493.605 267.778 493.841 267.477 494.002 267.096C494.17 266.715 494.267 266.276 494.293 265.778V264.509C494.273 264.102 494.215 263.737 494.118 263.414C494.028 263.085 493.892 262.804 493.711 262.571C493.537 262.339 493.317 262.158 493.053 262.029C492.794 261.899 492.487 261.835 492.132 261.835C491.77 261.835 491.46 261.919 491.202 262.087C490.943 262.248 490.734 262.471 490.572 262.755C490.417 263.04 490.301 263.375 490.223 263.763C490.152 264.144 490.117 264.558 490.117 265.003Z" fill="#0A355C"/>
<path d="M503.571 270.517C502.757 270.517 502.027 270.388 501.381 270.129C500.735 269.864 500.186 269.499 499.734 269.034C499.288 268.569 498.946 268.03 498.707 267.416C498.468 266.796 498.348 266.137 498.348 265.439V265.052C498.348 264.257 498.461 263.53 498.687 262.872C498.913 262.213 499.236 261.641 499.656 261.157C500.083 260.672 500.599 260.301 501.207 260.042C501.814 259.777 502.499 259.645 503.261 259.645C504.004 259.645 504.663 259.768 505.238 260.013C505.812 260.259 506.294 260.607 506.681 261.06C507.075 261.512 507.372 262.054 507.573 262.687C507.773 263.314 507.873 264.012 507.873 264.78V265.943H499.54V264.083H505.131V263.87C505.131 263.482 505.06 263.136 504.918 262.833C504.782 262.523 504.575 262.277 504.298 262.096C504.02 261.916 503.665 261.825 503.232 261.825C502.864 261.825 502.547 261.906 502.282 262.067C502.017 262.229 501.801 262.455 501.633 262.746C501.471 263.036 501.349 263.379 501.265 263.773C501.187 264.16 501.148 264.587 501.148 265.052V265.439C501.148 265.859 501.207 266.247 501.323 266.602C501.446 266.957 501.617 267.264 501.836 267.523C502.063 267.781 502.334 267.981 502.65 268.123C502.973 268.265 503.338 268.337 503.745 268.337C504.249 268.337 504.717 268.24 505.15 268.046C505.59 267.846 505.967 267.545 506.284 267.145L507.641 268.618C507.421 268.934 507.121 269.238 506.739 269.528C506.365 269.819 505.913 270.058 505.383 270.245C504.853 270.426 504.249 270.517 503.571 270.517Z" fill="#0A355C"/>
<path d="M127.861 267.886H122.28V295.168H127.861V267.886Z" fill="#F5516C"/>
<path d="M138.086 267.886H132.506V295.168H138.086V267.886Z" fill="#F5516C"/>
<path d="M117.553 267.886H111.973V295.168H117.553V267.886Z" fill="#F5516C"/>
<path d="M158.621 267.886H153.041V295.168H158.621V267.886Z" fill="#F5516C"/>
<path d="M148.323 267.886H142.743V295.168H148.323V267.886Z" fill="#F5516C"/>
<path fill-rule="evenodd" clip-rule="evenodd" d="M104.671 262.61L135.283 249.833L165.817 262.61H165.822V266.133H104.671V262.61V262.61H104.671Z" fill="#F5516C"/>
<path d="M164.736 297.091H105.833V301.6H164.736V297.091Z" fill="#F5516C"/>
<path d="M74.2783 237.593H71.127L71.1102 235.858H73.7559C74.2221 235.858 74.6041 235.799 74.9018 235.681C75.1995 235.557 75.4214 235.38 75.5674 235.15C75.7191 234.914 75.7949 234.627 75.7949 234.29C75.7949 233.908 75.7219 233.6 75.5758 233.364C75.4354 233.128 75.2135 232.956 74.9102 232.85C74.6125 232.743 74.2277 232.69 73.7559 232.69H72.0033V242.977H69.4756V230.709H73.7559C74.4693 230.709 75.1068 230.777 75.6685 230.912C76.2359 231.047 76.7161 231.252 77.1093 231.527C77.5025 231.802 77.8031 232.15 78.0109 232.572C78.2187 232.987 78.3227 233.482 78.3227 234.055C78.3227 234.56 78.2075 235.026 77.9772 235.453C77.7525 235.88 77.3958 236.228 76.9071 236.498C76.424 236.768 75.7921 236.916 75.0113 236.945L74.2783 237.593ZM74.1687 242.977H70.4361L71.4219 241.006H74.1687C74.6125 241.006 74.9748 240.936 75.2557 240.795C75.5365 240.649 75.7444 240.452 75.8792 240.205C76.014 239.958 76.0814 239.675 76.0814 239.354C76.0814 238.995 76.0196 238.683 75.896 238.419C75.7781 238.155 75.5871 237.953 75.3231 237.812C75.0591 237.666 74.7108 237.593 74.2783 237.593H71.8432L71.8601 235.858H74.8934L75.4747 236.54C76.2218 236.529 76.8229 236.661 77.2779 236.936C77.7385 237.206 78.0727 237.557 78.2805 237.989C78.494 238.422 78.6007 238.885 78.6007 239.38C78.6007 240.166 78.4294 240.829 78.0867 241.368C77.7441 241.902 77.2413 242.303 76.5785 242.573C75.9213 242.843 75.118 242.977 74.1687 242.977Z" fill="#0A355C"/>
<path d="M85.4846 232.807L82.148 242.977H79.4601L84.0185 230.709H85.7289L85.4846 232.807ZM88.2566 242.977L84.9116 232.807L84.642 230.709H86.3693L90.9529 242.977H88.2566ZM88.105 238.411V240.391H81.6256V238.411H88.105Z" fill="#0A355C"/>
<path d="M102.075 230.709V242.977H99.5472L94.6181 234.754V242.977H92.0904V230.709H94.6181L99.5556 238.941V230.709H102.075Z" fill="#0A355C"/>
<path d="M106.802 230.709V242.977H104.274V230.709H106.802ZM114.149 230.709L109.287 236.768L106.482 239.784L106.027 237.391L107.922 234.796L111.048 230.709H114.149ZM111.276 242.977L107.661 237.307L109.532 235.74L114.267 242.977H111.276Z" fill="#0A355C"/>
<path d="M124.53 232.807L121.193 242.977H118.505L123.064 230.709H124.774L124.53 232.807ZM127.302 242.977L123.957 232.807L123.687 230.709H125.414L129.998 242.977H127.302ZM127.15 238.411V240.391H120.671V238.411H127.15Z" fill="#0A355C"/>
<path d="M138.095 238.908H140.614C140.564 239.733 140.336 240.467 139.932 241.107C139.533 241.747 138.974 242.247 138.255 242.607C137.542 242.966 136.682 243.146 135.677 243.146C134.891 243.146 134.186 243.011 133.562 242.741C132.939 242.466 132.405 242.073 131.961 241.562C131.523 241.051 131.189 240.433 130.958 239.708C130.728 238.984 130.613 238.172 130.613 237.273V236.422C130.613 235.523 130.731 234.712 130.967 233.987C131.208 233.257 131.551 232.636 131.995 232.125C132.444 231.614 132.981 231.221 133.604 230.945C134.228 230.67 134.924 230.533 135.694 230.533C136.716 230.533 137.578 230.718 138.28 231.089C138.988 231.459 139.536 231.971 139.924 232.622C140.317 233.274 140.553 234.015 140.631 234.847H138.104C138.075 234.352 137.977 233.934 137.809 233.591C137.64 233.243 137.385 232.982 137.042 232.807C136.705 232.628 136.256 232.538 135.694 232.538C135.272 232.538 134.905 232.617 134.59 232.774C134.275 232.931 134.011 233.17 133.798 233.49C133.585 233.81 133.424 234.215 133.318 234.703C133.217 235.186 133.166 235.754 133.166 236.405V237.273C133.166 237.908 133.214 238.467 133.309 238.95C133.405 239.427 133.551 239.832 133.747 240.163C133.95 240.489 134.208 240.736 134.523 240.905C134.843 241.068 135.228 241.149 135.677 241.149C136.205 241.149 136.64 241.065 136.983 240.896C137.326 240.728 137.587 240.478 137.767 240.146C137.952 239.815 138.061 239.402 138.095 238.908Z" fill="#0A355C"/>
<path d="M149.386 238.908H151.905C151.854 239.733 151.627 240.467 151.222 241.107C150.824 241.747 150.265 242.247 149.546 242.607C148.832 242.966 147.973 243.146 146.967 243.146C146.181 243.146 145.476 243.011 144.853 242.741C144.229 242.466 143.695 242.073 143.252 241.562C142.814 241.051 142.479 240.433 142.249 239.708C142.019 238.984 141.904 238.172 141.904 237.273V236.422C141.904 235.523 142.022 234.712 142.257 233.987C142.499 233.257 142.842 232.636 143.285 232.125C143.735 231.614 144.271 231.221 144.895 230.945C145.518 230.67 146.215 230.533 146.984 230.533C148.007 230.533 148.869 230.718 149.571 231.089C150.279 231.459 150.826 231.971 151.214 232.622C151.607 233.274 151.843 234.015 151.922 234.847H149.394C149.366 234.352 149.268 233.934 149.099 233.591C148.931 233.243 148.675 232.982 148.332 232.807C147.995 232.628 147.546 232.538 146.984 232.538C146.563 232.538 146.195 232.617 145.881 232.774C145.566 232.931 145.302 233.17 145.089 233.49C144.875 233.81 144.715 234.215 144.608 234.703C144.507 235.186 144.457 235.754 144.457 236.405V237.273C144.457 237.908 144.504 238.467 144.6 238.95C144.695 239.427 144.841 239.832 145.038 240.163C145.24 240.489 145.499 240.736 145.813 240.905C146.133 241.068 146.518 241.149 146.967 241.149C147.495 241.149 147.931 241.065 148.273 240.896C148.616 240.728 148.877 240.478 149.057 240.146C149.242 239.815 149.352 239.402 149.386 238.908Z" fill="#0A355C"/>
<path d="M163.642 236.557V237.138C163.642 238.071 163.516 238.908 163.263 239.649C163.01 240.391 162.653 241.023 162.193 241.545C161.732 242.062 161.182 242.458 160.541 242.733C159.907 243.008 159.202 243.146 158.427 243.146C157.657 243.146 156.952 243.008 156.312 242.733C155.677 242.458 155.126 242.062 154.66 241.545C154.194 241.023 153.832 240.391 153.573 239.649C153.321 238.908 153.194 238.071 153.194 237.138V236.557C153.194 235.619 153.321 234.782 153.573 234.046C153.826 233.305 154.183 232.673 154.643 232.15C155.11 231.628 155.66 231.229 156.295 230.954C156.935 230.679 157.64 230.541 158.41 230.541C159.185 230.541 159.89 230.679 160.525 230.954C161.165 231.229 161.715 231.628 162.176 232.15C162.642 232.673 163.002 233.305 163.255 234.046C163.513 234.782 163.642 235.619 163.642 236.557ZM161.089 237.138V236.54C161.089 235.889 161.03 235.316 160.912 234.821C160.794 234.327 160.62 233.911 160.39 233.574C160.159 233.237 159.879 232.984 159.547 232.816C159.216 232.642 158.837 232.555 158.41 232.555C157.983 232.555 157.604 232.642 157.272 232.816C156.946 232.984 156.668 233.237 156.438 233.574C156.213 233.911 156.042 234.327 155.924 234.821C155.806 235.316 155.747 235.889 155.747 236.54V237.138C155.747 237.784 155.806 238.357 155.924 238.857C156.042 239.352 156.216 239.77 156.446 240.113C156.677 240.45 156.958 240.705 157.289 240.879C157.62 241.054 158 241.141 158.427 241.141C158.853 241.141 159.233 241.054 159.564 240.879C159.895 240.705 160.173 240.45 160.398 240.113C160.623 239.77 160.794 239.352 160.912 238.857C161.03 238.357 161.089 237.784 161.089 237.138Z" fill="#0A355C"/>
<path d="M172.236 230.709H174.756V238.815C174.756 239.759 174.553 240.554 174.149 241.2C173.75 241.846 173.197 242.331 172.489 242.657C171.787 242.983 170.978 243.146 170.063 243.146C169.147 243.146 168.332 242.983 167.619 242.657C166.911 242.331 166.355 241.846 165.951 241.2C165.552 240.554 165.353 239.759 165.353 238.815V230.709H167.88V238.815C167.88 239.366 167.967 239.815 168.141 240.163C168.316 240.511 168.566 240.767 168.891 240.93C169.223 241.093 169.613 241.174 170.063 241.174C170.523 241.174 170.914 241.093 171.234 240.93C171.56 240.767 171.807 240.511 171.975 240.163C172.149 239.815 172.236 239.366 172.236 238.815V230.709Z" fill="#0A355C"/>
<path d="M186.821 230.709V242.977H184.294L179.365 234.754V242.977H176.837V230.709H179.365L184.302 238.941V230.709H186.821Z" fill="#0A355C"/>
<path d="M194.253 230.709V242.977H191.734V230.709H194.253ZM198.028 230.709V232.69H188.018V230.709H198.028Z" fill="#0A355C"/>
<path d="M311.197 92.2226H308.126L308.145 89.9553H311.197C311.96 89.9553 312.602 89.7841 313.126 89.4417C313.649 89.0929 314.043 88.5858 314.308 87.9204C314.579 87.2551 314.715 86.4508 314.715 85.5077V84.8197C314.715 84.0962 314.637 83.46 314.482 82.9109C314.334 82.3618 314.111 81.8999 313.814 81.5253C313.517 81.1506 313.152 80.8696 312.719 80.6823C312.286 80.4885 311.789 80.3916 311.227 80.3916H308.068V78.1145H311.227C312.17 78.1145 313.032 78.276 313.814 78.599C314.602 78.9155 315.283 79.3709 315.858 79.9652C316.433 80.5595 316.876 81.2701 317.186 82.0969C317.502 82.9173 317.66 83.8314 317.66 84.8391V85.5077C317.66 86.509 317.502 87.423 317.186 88.2499C316.876 89.0767 316.433 89.7873 315.858 90.3816C315.29 90.9694 314.608 91.4248 313.814 91.7478C313.026 92.0644 312.153 92.2226 311.197 92.2226ZM309.773 78.1145V92.2226H306.866V78.1145H309.773Z" fill="#0A355C"/>
<path d="M324.424 92.4164C323.61 92.4164 322.88 92.2872 322.234 92.0288C321.588 91.764 321.039 91.399 320.587 90.9339C320.141 90.4688 319.799 89.9294 319.56 89.3157C319.321 88.6956 319.201 88.0367 319.201 87.339V86.9515C319.201 86.1569 319.314 85.4302 319.54 84.7713C319.766 84.1124 320.089 83.5407 320.509 83.0562C320.936 82.5717 321.452 82.2003 322.06 81.9419C322.667 81.6771 323.351 81.5446 324.114 81.5446C324.857 81.5446 325.516 81.6674 326.09 81.9128C326.665 82.1583 327.147 82.5071 327.534 82.9593C327.928 83.4115 328.225 83.9541 328.426 84.5872C328.626 85.2138 328.726 85.9114 328.726 86.6802V87.8429H320.393V85.9825H325.984V85.7693C325.984 85.3817 325.913 85.0361 325.771 84.7325C325.635 84.4225 325.428 84.177 325.151 83.9961C324.873 83.8152 324.517 83.7248 324.085 83.7248C323.716 83.7248 323.4 83.8056 323.135 83.967C322.87 84.1285 322.654 84.3546 322.486 84.6453C322.324 84.936 322.202 85.2784 322.118 85.6724C322.04 86.06 322.001 86.4864 322.001 86.9515V87.339C322.001 87.7589 322.06 88.1465 322.176 88.5018C322.299 88.8571 322.47 89.1639 322.689 89.4223C322.915 89.6807 323.187 89.881 323.503 90.0231C323.826 90.1652 324.191 90.2363 324.598 90.2363C325.102 90.2363 325.57 90.1394 326.003 89.9456C326.442 89.7453 326.82 89.4449 327.137 89.0444L328.493 90.5173C328.274 90.8338 327.973 91.1374 327.592 91.4281C327.218 91.7188 326.765 91.9578 326.236 92.1451C325.706 92.326 325.102 92.4164 324.424 92.4164Z" fill="#0A355C"/>
<path d="M333.106 83.7539V96.2535H330.315V81.7384H332.902L333.106 83.7539ZM339.743 86.8643V87.0677C339.743 87.83 339.653 88.5373 339.472 89.1898C339.297 89.8422 339.039 90.4107 338.697 90.8951C338.354 91.3732 337.928 91.7478 337.418 92.0191C336.914 92.284 336.332 92.4164 335.673 92.4164C335.034 92.4164 334.478 92.2872 334.007 92.0288C333.535 91.7704 333.138 91.4087 332.815 90.9436C332.499 90.472 332.243 89.9262 332.05 89.306C331.856 88.6859 331.707 88.0206 331.604 87.31V86.777C331.707 86.0148 331.856 85.3171 332.05 84.6841C332.243 84.0446 332.499 83.4923 332.815 83.0272C333.138 82.5556 333.532 82.1906 333.997 81.9322C334.469 81.6738 335.021 81.5446 335.654 81.5446C336.319 81.5446 336.904 81.6706 337.408 81.9225C337.918 82.1745 338.345 82.5362 338.687 83.0078C339.036 83.4793 339.297 84.0413 339.472 84.6938C339.653 85.3462 339.743 86.0697 339.743 86.8643ZM336.943 87.0677V86.8643C336.943 86.4185 336.904 86.0083 336.827 85.6337C336.756 85.2525 336.639 84.9199 336.478 84.6356C336.323 84.3514 336.116 84.1318 335.858 83.9767C335.606 83.8152 335.299 83.7345 334.937 83.7345C334.556 83.7345 334.23 83.7959 333.958 83.9186C333.694 84.0413 333.477 84.219 333.309 84.4515C333.141 84.6841 333.015 84.9619 332.931 85.2848C332.847 85.6078 332.796 85.9728 332.776 86.3798V87.7266C332.809 88.2047 332.899 88.6342 333.048 89.0154C333.196 89.39 333.425 89.6872 333.736 89.9068C334.046 90.1264 334.453 90.2363 334.956 90.2363C335.325 90.2363 335.635 90.1555 335.887 89.994C336.139 89.8261 336.342 89.5967 336.497 89.306C336.659 89.0154 336.772 88.6794 336.836 88.2983C336.907 87.9172 336.943 87.507 336.943 87.0677Z" fill="#0A355C"/>
<path d="M341.032 87.0871V86.8836C341.032 86.1149 341.142 85.4076 341.361 84.7616C341.581 84.1092 341.901 83.5439 342.321 83.0659C342.74 82.5879 343.257 82.2165 343.871 81.9516C344.485 81.6803 345.189 81.5446 345.983 81.5446C346.778 81.5446 347.485 81.6803 348.105 81.9516C348.725 82.2165 349.245 82.5879 349.665 83.0659C350.092 83.5439 350.415 84.1092 350.634 84.7616C350.854 85.4076 350.964 86.1149 350.964 86.8836V87.0871C350.964 87.8494 350.854 88.5567 350.634 89.2091C350.415 89.8551 350.092 90.4204 349.665 90.9048C349.245 91.3829 348.729 91.7543 348.115 92.0191C347.501 92.284 346.797 92.4164 346.003 92.4164C345.208 92.4164 344.501 92.284 343.881 92.0191C343.267 91.7543 342.747 91.3829 342.321 90.9048C341.901 90.4204 341.581 89.8551 341.361 89.2091C341.142 88.5567 341.032 87.8494 341.032 87.0871ZM343.822 86.8836V87.0871C343.822 87.5264 343.861 87.9366 343.939 88.3177C344.016 88.6988 344.139 89.0347 344.307 89.3254C344.481 89.6097 344.707 89.8325 344.985 89.994C345.263 90.1555 345.602 90.2363 346.003 90.2363C346.39 90.2363 346.723 90.1555 347.001 89.994C347.278 89.8325 347.501 89.6097 347.669 89.3254C347.837 89.0347 347.96 88.6988 348.037 88.3177C348.121 87.9366 348.163 87.5264 348.163 87.0871V86.8836C348.163 86.4573 348.121 86.0568 348.037 85.6821C347.96 85.301 347.834 84.9651 347.66 84.6744C347.492 84.3772 347.269 84.1447 346.991 83.9767C346.713 83.8088 346.377 83.7248 345.983 83.7248C345.589 83.7248 345.253 83.8088 344.976 83.9767C344.704 84.1447 344.481 84.3772 344.307 84.6744C344.139 84.9651 344.016 85.301 343.939 85.6821C343.861 86.0568 343.822 86.4573 343.822 86.8836Z" fill="#0A355C"/>
<path d="M358.347 89.3254C358.347 89.1252 358.289 88.9443 358.173 88.7828C358.057 88.6213 357.84 88.4727 357.524 88.3371C357.214 88.195 356.765 88.0658 356.177 87.9495C355.647 87.8332 355.153 87.6879 354.694 87.5135C354.242 87.3326 353.848 87.1162 353.512 86.8643C353.183 86.6123 352.924 86.3152 352.737 85.9728C352.55 85.624 352.456 85.2267 352.456 84.781C352.456 84.3417 352.55 83.9283 352.737 83.5407C352.931 83.1531 353.205 82.8108 353.561 82.5136C353.922 82.21 354.362 81.9742 354.878 81.8063C355.402 81.6318 355.989 81.5446 356.642 81.5446C357.553 81.5446 358.334 81.69 358.987 81.9807C359.646 82.2714 360.15 82.6719 360.498 83.1822C360.854 83.6861 361.031 84.261 361.031 84.9069H358.241C358.241 84.6356 358.183 84.3934 358.066 84.1802C357.956 83.9606 357.782 83.7894 357.543 83.6667C357.31 83.5375 357.007 83.4729 356.632 83.4729C356.322 83.4729 356.054 83.5278 355.828 83.6376C355.602 83.741 355.427 83.8831 355.305 84.0639C355.188 84.2384 355.13 84.4322 355.13 84.6453C355.13 84.8068 355.163 84.9522 355.227 85.0814C355.298 85.2041 355.411 85.3171 355.566 85.4205C355.721 85.5239 355.922 85.6207 356.167 85.7112C356.419 85.7952 356.729 85.8727 357.097 85.9437C357.853 86.0988 358.528 86.3023 359.122 86.5542C359.717 86.7997 360.188 87.1356 360.537 87.5619C360.886 87.9818 361.06 88.5341 361.06 89.2188C361.06 89.6839 360.957 90.1103 360.75 90.4979C360.544 90.8855 360.246 91.2246 359.859 91.5153C359.471 91.7995 359.006 92.0224 358.464 92.1839C357.927 92.3389 357.323 92.4164 356.652 92.4164C355.676 92.4164 354.849 92.242 354.171 91.8932C353.499 91.5444 352.989 91.1019 352.64 90.5657C352.298 90.0231 352.127 89.4675 352.127 88.8991H354.772C354.785 89.2802 354.882 89.587 355.062 89.8196C355.25 90.0521 355.486 90.2201 355.77 90.3235C356.061 90.4268 356.374 90.4785 356.71 90.4785C357.071 90.4785 357.372 90.43 357.611 90.3331C357.85 90.2298 358.031 90.0941 358.153 89.9262C358.283 89.7518 358.347 89.5515 358.347 89.3254Z" fill="#0A355C"/>
<path d="M365.818 81.7384V92.2226H363.018V81.7384H365.818ZM362.843 79.006C362.843 78.599 362.985 78.2631 363.27 77.9982C363.554 77.7334 363.935 77.601 364.413 77.601C364.885 77.601 365.262 77.7334 365.547 77.9982C365.837 78.2631 365.983 78.599 365.983 79.006C365.983 79.4129 365.837 79.7488 365.547 80.0137C365.262 80.2785 364.885 80.4109 364.413 80.4109C363.935 80.4109 363.554 80.2785 363.27 80.0137C362.985 79.7488 362.843 79.4129 362.843 79.006Z" fill="#0A355C"/>
<path d="M373.26 81.7384V83.7151H367.155V81.7384H373.26ZM368.667 79.1513H371.457V89.0638C371.457 89.3674 371.496 89.6 371.574 89.7615C371.658 89.923 371.78 90.036 371.942 90.1006C372.103 90.1587 372.307 90.1878 372.552 90.1878C372.727 90.1878 372.882 90.1813 373.017 90.1684C373.16 90.149 373.279 90.1297 373.376 90.1103L373.386 92.1645C373.147 92.242 372.888 92.3034 372.61 92.3486C372.333 92.3938 372.026 92.4164 371.69 92.4164C371.076 92.4164 370.54 92.3163 370.081 92.116C369.629 91.9093 369.28 91.5799 369.035 91.1277C368.789 90.6755 368.667 90.0812 368.667 89.3448V79.1513Z" fill="#0A355C"/>
<path d="M310.849 113.154V108.484C310.849 108.148 310.794 107.86 310.684 107.621C310.574 107.376 310.403 107.185 310.17 107.049C309.944 106.914 309.65 106.846 309.289 106.846C308.979 106.846 308.71 106.901 308.484 107.011C308.258 107.114 308.084 107.266 307.961 107.466C307.838 107.66 307.777 107.889 307.777 108.154H304.986C304.986 107.708 305.09 107.285 305.296 106.885C305.503 106.484 305.804 106.132 306.198 105.829C306.592 105.519 307.06 105.276 307.603 105.102C308.152 104.927 308.765 104.84 309.444 104.84C310.258 104.84 310.981 104.976 311.614 105.247C312.247 105.519 312.745 105.925 313.106 106.468C313.475 107.011 313.659 107.689 313.659 108.503V112.989C313.659 113.564 313.694 114.036 313.765 114.404C313.836 114.766 313.94 115.082 314.075 115.353V115.518H311.256C311.12 115.234 311.017 114.879 310.946 114.452C310.881 114.02 310.849 113.587 310.849 113.154ZM311.217 109.133L311.236 110.712H309.676C309.308 110.712 308.988 110.754 308.717 110.838C308.446 110.922 308.223 111.042 308.048 111.197C307.874 111.345 307.745 111.52 307.661 111.72C307.583 111.92 307.544 112.14 307.544 112.379C307.544 112.618 307.599 112.834 307.709 113.028C307.819 113.215 307.977 113.364 308.184 113.474C308.391 113.577 308.633 113.629 308.911 113.629C309.331 113.629 309.696 113.545 310.006 113.377C310.316 113.209 310.555 113.002 310.723 112.757C310.897 112.511 310.988 112.279 310.994 112.059L311.73 113.241C311.627 113.506 311.485 113.781 311.304 114.065C311.13 114.349 310.907 114.617 310.635 114.869C310.364 115.114 310.038 115.318 309.657 115.479C309.276 115.634 308.823 115.712 308.3 115.712C307.635 115.712 307.031 115.58 306.488 115.315C305.952 115.043 305.526 114.672 305.209 114.2C304.899 113.722 304.744 113.18 304.744 112.573C304.744 112.023 304.847 111.536 305.054 111.109C305.261 110.683 305.565 110.325 305.965 110.034C306.372 109.737 306.879 109.514 307.486 109.365C308.094 109.21 308.798 109.133 309.599 109.133H311.217Z" fill="#0A355C"/>
<path d="M322.001 113.231V100.635H324.811V115.518H322.282L322.001 113.231ZM315.374 110.402V110.199C315.374 109.398 315.464 108.671 315.645 108.018C315.826 107.36 316.091 106.794 316.44 106.323C316.788 105.851 317.218 105.486 317.728 105.228C318.239 104.969 318.82 104.84 319.472 104.84C320.086 104.84 320.622 104.969 321.081 105.228C321.546 105.486 321.94 105.854 322.263 106.332C322.592 106.804 322.857 107.363 323.058 108.009C323.258 108.648 323.403 109.349 323.494 110.111V110.557C323.403 111.287 323.258 111.965 323.058 112.592C322.857 113.219 322.592 113.768 322.263 114.239C321.94 114.704 321.546 115.066 321.081 115.324C320.616 115.583 320.073 115.712 319.453 115.712C318.801 115.712 318.219 115.58 317.709 115.315C317.205 115.05 316.779 114.678 316.43 114.2C316.087 113.722 315.826 113.16 315.645 112.514C315.464 111.868 315.374 111.164 315.374 110.402ZM318.164 110.199V110.402C318.164 110.835 318.197 111.239 318.261 111.613C318.332 111.988 318.445 112.321 318.6 112.611C318.762 112.896 318.969 113.118 319.22 113.28C319.479 113.435 319.792 113.512 320.16 113.512C320.638 113.512 321.032 113.406 321.343 113.193C321.653 112.973 321.888 112.673 322.05 112.292C322.218 111.91 322.315 111.471 322.341 110.974V109.704C322.321 109.297 322.263 108.932 322.166 108.61C322.076 108.28 321.94 107.999 321.759 107.767C321.585 107.534 321.365 107.353 321.1 107.224C320.842 107.095 320.535 107.03 320.18 107.03C319.818 107.03 319.508 107.114 319.25 107.282C318.991 107.444 318.781 107.666 318.62 107.951C318.465 108.235 318.348 108.571 318.271 108.958C318.2 109.339 318.164 109.753 318.164 110.199Z" fill="#0A355C"/>
<path d="M333.183 113.231V100.635H335.993V115.518H333.464L333.183 113.231ZM326.556 110.402V110.199C326.556 109.398 326.646 108.671 326.827 108.018C327.008 107.36 327.273 106.794 327.621 106.323C327.97 105.851 328.4 105.486 328.91 105.228C329.42 104.969 330.002 104.84 330.654 104.84C331.268 104.84 331.804 104.969 332.263 105.228C332.728 105.486 333.122 105.854 333.445 106.332C333.774 106.804 334.039 107.363 334.239 108.009C334.44 108.648 334.585 109.349 334.675 110.111V110.557C334.585 111.287 334.44 111.965 334.239 112.592C334.039 113.219 333.774 113.768 333.445 114.239C333.122 114.704 332.728 115.066 332.263 115.324C331.798 115.583 331.255 115.712 330.635 115.712C329.982 115.712 329.401 115.58 328.891 115.315C328.387 115.05 327.961 114.678 327.612 114.2C327.269 113.722 327.008 113.16 326.827 112.514C326.646 111.868 326.556 111.164 326.556 110.402ZM329.346 110.199V110.402C329.346 110.835 329.378 111.239 329.443 111.613C329.514 111.988 329.627 112.321 329.782 112.611C329.944 112.896 330.15 113.118 330.402 113.28C330.661 113.435 330.974 113.512 331.342 113.512C331.82 113.512 332.214 113.406 332.524 113.193C332.834 112.973 333.07 112.673 333.232 112.292C333.4 111.91 333.497 111.471 333.522 110.974V109.704C333.503 109.297 333.445 108.932 333.348 108.61C333.258 108.28 333.122 107.999 332.941 107.767C332.767 107.534 332.547 107.353 332.282 107.224C332.024 107.095 331.717 107.03 331.362 107.03C331 107.03 330.69 107.114 330.431 107.282C330.173 107.444 329.963 107.666 329.802 107.951C329.647 108.235 329.53 108.571 329.453 108.958C329.382 109.339 329.346 109.753 329.346 110.199Z" fill="#0A355C"/>
<path d="M340.964 107.321V115.518H338.173V105.034H340.799L340.964 107.321ZM344.123 104.966L344.074 107.553C343.939 107.534 343.774 107.518 343.58 107.505C343.393 107.486 343.222 107.476 343.067 107.476C342.673 107.476 342.33 107.527 342.04 107.631C341.755 107.728 341.516 107.873 341.323 108.067C341.135 108.261 340.993 108.496 340.896 108.774C340.806 109.052 340.754 109.369 340.741 109.724L340.179 109.549C340.179 108.871 340.247 108.248 340.383 107.679C340.518 107.104 340.715 106.604 340.974 106.177C341.239 105.751 341.562 105.422 341.943 105.189C342.324 104.957 342.76 104.84 343.251 104.84C343.406 104.84 343.564 104.853 343.726 104.879C343.887 104.898 344.02 104.927 344.123 104.966Z" fill="#0A355C"/>
<path d="M350.072 115.712C349.258 115.712 348.528 115.583 347.882 115.324C347.236 115.06 346.687 114.695 346.235 114.23C345.789 113.764 345.447 113.225 345.208 112.611C344.969 111.991 344.85 111.332 344.85 110.635V110.247C344.85 109.453 344.963 108.726 345.189 108.067C345.415 107.408 345.738 106.836 346.158 106.352C346.584 105.867 347.101 105.496 347.708 105.238C348.315 104.973 349 104.84 349.762 104.84C350.505 104.84 351.164 104.963 351.739 105.208C352.314 105.454 352.795 105.803 353.183 106.255C353.577 106.707 353.874 107.25 354.074 107.883C354.274 108.509 354.375 109.207 354.375 109.976V111.139H346.041V109.278H351.632V109.065C351.632 108.677 351.561 108.332 351.419 108.028C351.284 107.718 351.077 107.473 350.799 107.292C350.521 107.111 350.166 107.02 349.733 107.02C349.365 107.02 349.048 107.101 348.784 107.263C348.519 107.424 348.302 107.65 348.134 107.941C347.973 108.232 347.85 108.574 347.766 108.968C347.689 109.356 347.65 109.782 347.65 110.247V110.635C347.65 111.055 347.708 111.442 347.824 111.797C347.947 112.153 348.118 112.46 348.338 112.718C348.564 112.976 348.835 113.177 349.152 113.319C349.475 113.461 349.84 113.532 350.247 113.532C350.751 113.532 351.219 113.435 351.652 113.241C352.091 113.041 352.469 112.741 352.785 112.34L354.142 113.813C353.922 114.129 353.622 114.433 353.241 114.724C352.866 115.014 352.414 115.253 351.884 115.441C351.355 115.622 350.751 115.712 350.072 115.712Z" fill="#0A355C"/>
<path d="M361.632 112.621C361.632 112.421 361.574 112.24 361.458 112.078C361.341 111.917 361.125 111.768 360.808 111.633C360.498 111.491 360.049 111.361 359.462 111.245C358.932 111.129 358.438 110.983 357.979 110.809C357.527 110.628 357.133 110.412 356.797 110.16C356.467 109.908 356.209 109.611 356.022 109.268C355.834 108.92 355.741 108.522 355.741 108.077C355.741 107.637 355.834 107.224 356.022 106.836C356.216 106.449 356.49 106.106 356.845 105.809C357.207 105.506 357.646 105.27 358.163 105.102C358.686 104.927 359.274 104.84 359.927 104.84C360.838 104.84 361.619 104.986 362.272 105.276C362.93 105.567 363.434 105.967 363.783 106.478C364.138 106.982 364.316 107.557 364.316 108.203H361.525C361.525 107.931 361.467 107.689 361.351 107.476C361.241 107.256 361.067 107.085 360.828 106.962C360.595 106.833 360.292 106.768 359.917 106.768C359.607 106.768 359.339 106.823 359.113 106.933C358.887 107.037 358.712 107.179 358.59 107.36C358.473 107.534 358.415 107.728 358.415 107.941C358.415 108.102 358.447 108.248 358.512 108.377C358.583 108.5 358.696 108.613 358.851 108.716C359.006 108.819 359.206 108.916 359.452 109.007C359.704 109.091 360.014 109.168 360.382 109.239C361.138 109.394 361.813 109.598 362.407 109.85C363.002 110.095 363.473 110.431 363.822 110.858C364.171 111.277 364.345 111.83 364.345 112.514C364.345 112.98 364.242 113.406 364.035 113.793C363.828 114.181 363.531 114.52 363.144 114.811C362.756 115.095 362.291 115.318 361.748 115.479C361.212 115.634 360.608 115.712 359.936 115.712C358.961 115.712 358.134 115.538 357.456 115.189C356.784 114.84 356.274 114.397 355.925 113.861C355.582 113.319 355.411 112.763 355.411 112.195H358.057C358.069 112.576 358.166 112.883 358.347 113.115C358.535 113.348 358.77 113.516 359.055 113.619C359.345 113.722 359.659 113.774 359.995 113.774C360.356 113.774 360.657 113.726 360.896 113.629C361.135 113.525 361.316 113.39 361.438 113.222C361.567 113.047 361.632 112.847 361.632 112.621Z" fill="#0A355C"/>
<path d="M371.826 112.621C371.826 112.421 371.767 112.24 371.651 112.078C371.535 111.917 371.318 111.768 371.002 111.633C370.692 111.491 370.243 111.361 369.655 111.245C369.125 111.129 368.631 110.983 368.173 110.809C367.72 110.628 367.326 110.412 366.99 110.16C366.661 109.908 366.403 109.611 366.215 109.268C366.028 108.92 365.934 108.522 365.934 108.077C365.934 107.637 366.028 107.224 366.215 106.836C366.409 106.449 366.684 106.106 367.039 105.809C367.401 105.506 367.84 105.27 368.357 105.102C368.88 104.927 369.468 104.84 370.12 104.84C371.031 104.84 371.813 104.986 372.465 105.276C373.124 105.567 373.628 105.967 373.977 106.478C374.332 106.982 374.51 107.557 374.51 108.203H371.719C371.719 107.931 371.661 107.689 371.545 107.476C371.435 107.256 371.26 107.085 371.021 106.962C370.789 106.833 370.485 106.768 370.11 106.768C369.8 106.768 369.532 106.823 369.306 106.933C369.08 107.037 368.906 107.179 368.783 107.36C368.667 107.534 368.609 107.728 368.609 107.941C368.609 108.102 368.641 108.248 368.705 108.377C368.777 108.5 368.89 108.613 369.045 108.716C369.2 108.819 369.4 108.916 369.645 109.007C369.897 109.091 370.207 109.168 370.576 109.239C371.331 109.394 372.006 109.598 372.601 109.85C373.195 110.095 373.667 110.431 374.015 110.858C374.364 111.277 374.539 111.83 374.539 112.514C374.539 112.98 374.435 113.406 374.229 113.793C374.022 114.181 373.725 114.52 373.337 114.811C372.95 115.095 372.484 115.318 371.942 115.479C371.406 115.634 370.802 115.712 370.13 115.712C369.154 115.712 368.328 115.538 367.649 115.189C366.978 114.84 366.467 114.397 366.118 113.861C365.776 113.319 365.605 112.763 365.605 112.195H368.25C368.263 112.576 368.36 112.883 368.541 113.115C368.728 113.348 368.964 113.516 369.248 113.619C369.539 113.722 369.852 113.774 370.188 113.774C370.55 113.774 370.85 113.726 371.089 113.629C371.328 113.525 371.509 113.39 371.632 113.222C371.761 113.047 371.826 112.847 371.826 112.621Z" fill="#0A355C"/>
<path d="M462.435 97.5473H458.841V95.2799H462.435C462.991 95.2799 463.443 95.1895 463.792 95.0086C464.141 94.8213 464.396 94.5629 464.557 94.2334C464.719 93.904 464.8 93.5326 464.8 93.1191C464.8 92.6992 464.719 92.3084 464.557 91.9467C464.396 91.5849 464.141 91.2943 463.792 91.0746C463.443 90.855 462.991 90.7452 462.435 90.7452H459.848V102.576H456.941V88.4681H462.435C463.54 88.4681 464.486 88.6684 465.275 89.0689C466.069 89.4629 466.676 90.0088 467.096 90.7064C467.516 91.4041 467.726 92.2018 467.726 93.0998C467.726 94.0106 467.516 94.7987 467.096 95.464C466.676 96.1294 466.069 96.6429 465.275 97.0047C464.486 97.3664 463.54 97.5473 462.435 97.5473Z" fill="#65728A"/>
<path d="M468.976 97.4407V97.2372C468.976 96.4685 469.086 95.7612 469.305 95.1152C469.525 94.4628 469.845 93.8975 470.265 93.4195C470.685 92.9415 471.201 92.5701 471.815 92.3052C472.429 92.0339 473.133 91.8982 473.927 91.8982C474.722 91.8982 475.429 92.0339 476.049 92.3052C476.67 92.5701 477.19 92.9415 477.609 93.4195C478.036 93.8975 478.359 94.4628 478.578 95.1152C478.798 95.7612 478.908 96.4685 478.908 97.2372V97.4407C478.908 98.203 478.798 98.9103 478.578 99.5627C478.359 100.209 478.036 100.774 477.609 101.258C477.19 101.736 476.673 102.108 476.059 102.373C475.445 102.638 474.741 102.77 473.947 102.77C473.152 102.77 472.445 102.638 471.825 102.373C471.211 102.108 470.691 101.736 470.265 101.258C469.845 100.774 469.525 100.209 469.305 99.5627C469.086 98.9103 468.976 98.203 468.976 97.4407ZM471.767 97.2372V97.4407C471.767 97.88 471.805 98.2902 471.883 98.6713C471.96 99.0524 472.083 99.3883 472.251 99.679C472.425 99.9633 472.652 100.186 472.929 100.348C473.207 100.509 473.546 100.59 473.947 100.59C474.334 100.59 474.667 100.509 474.945 100.348C475.223 100.186 475.445 99.9633 475.613 99.679C475.781 99.3883 475.904 99.0524 475.982 98.6713C476.066 98.2902 476.108 97.88 476.108 97.4407V97.2372C476.108 96.8109 476.066 96.4104 475.982 96.0357C475.904 95.6546 475.778 95.3187 475.604 95.028C475.436 94.7308 475.213 94.4983 474.935 94.3303C474.657 94.1624 474.321 94.0784 473.927 94.0784C473.533 94.0784 473.197 94.1624 472.92 94.3303C472.648 94.4983 472.425 94.7308 472.251 95.028C472.083 95.3187 471.96 95.6546 471.883 96.0357C471.805 96.4104 471.767 96.8109 471.767 97.2372Z" fill="#65728A"/>
<path d="M480.177 97.4407V97.2372C480.177 96.4685 480.287 95.7612 480.507 95.1152C480.726 94.4628 481.046 93.8975 481.466 93.4195C481.886 92.9415 482.403 92.5701 483.016 92.3052C483.63 92.0339 484.334 91.8982 485.129 91.8982C485.923 91.8982 486.63 92.0339 487.251 92.3052C487.871 92.5701 488.391 92.9415 488.811 93.4195C489.237 93.8975 489.56 94.4628 489.78 95.1152C489.999 95.7612 490.109 96.4685 490.109 97.2372V97.4407C490.109 98.203 489.999 98.9103 489.78 99.5627C489.56 100.209 489.237 100.774 488.811 101.258C488.391 101.736 487.874 102.108 487.26 102.373C486.647 102.638 485.943 102.77 485.148 102.77C484.353 102.77 483.646 102.638 483.026 102.373C482.412 102.108 481.892 101.736 481.466 101.258C481.046 100.774 480.726 100.209 480.507 99.5627C480.287 98.9103 480.177 98.203 480.177 97.4407ZM482.968 97.2372V97.4407C482.968 97.88 483.007 98.2902 483.084 98.6713C483.162 99.0524 483.284 99.3883 483.452 99.679C483.627 99.9633 483.853 100.186 484.131 100.348C484.408 100.509 484.747 100.59 485.148 100.59C485.536 100.59 485.868 100.509 486.146 100.348C486.424 100.186 486.647 99.9633 486.815 99.679C486.983 99.3883 487.105 99.0524 487.183 98.6713C487.267 98.2902 487.309 97.88 487.309 97.4407V97.2372C487.309 96.8109 487.267 96.4104 487.183 96.0357C487.105 95.6546 486.979 95.3187 486.805 95.028C486.637 94.7308 486.414 94.4983 486.136 94.3303C485.859 94.1624 485.523 94.0784 485.129 94.0784C484.735 94.0784 484.399 94.1624 484.121 94.3303C483.85 94.4983 483.627 94.7308 483.452 95.028C483.284 95.3187 483.162 95.6546 483.084 96.0357C483.007 96.4104 482.968 96.8109 482.968 97.2372Z" fill="#65728A"/>
<path d="M494.77 87.6929V102.576H491.969V87.6929H494.77Z" fill="#65728A"/>
<path d="M93.4118 340.776H95.9311C95.8805 341.601 95.653 342.334 95.2486 342.975C94.8498 343.615 94.2909 344.115 93.5719 344.474C92.8585 344.834 91.9991 345.014 90.9936 345.014C90.2072 345.014 89.5022 344.879 88.8787 344.609C88.2552 344.334 87.7216 343.941 87.2778 343.43C86.8397 342.919 86.5054 342.301 86.2751 341.576C86.0448 340.851 85.9297 340.04 85.9297 339.141V338.29C85.9297 337.391 86.0476 336.58 86.2836 335.855C86.5251 335.125 86.8678 334.504 87.3115 333.993C87.7609 333.482 88.2973 333.088 88.9208 332.813C89.5443 332.538 90.2409 332.4 91.0104 332.4C92.0328 332.4 92.895 332.586 93.5971 332.956C94.3049 333.327 94.8526 333.838 95.2402 334.49C95.6334 335.142 95.8693 335.883 95.9479 336.714H93.4202C93.3921 336.22 93.2938 335.802 93.1253 335.459C92.9568 335.111 92.7012 334.849 92.3586 334.675C92.0215 334.496 91.5722 334.406 91.0104 334.406C90.5891 334.406 90.2212 334.484 89.9067 334.642C89.5921 334.799 89.3281 335.038 89.1146 335.358C88.9012 335.678 88.7411 336.082 88.6344 336.571C88.5333 337.054 88.4827 337.622 88.4827 338.273V339.141C88.4827 339.776 88.5304 340.335 88.6259 340.818C88.7214 341.295 88.8675 341.7 89.0641 342.031C89.2663 342.357 89.5247 342.604 89.8392 342.772C90.1594 342.935 90.5442 343.017 90.9936 343.017C91.5216 343.017 91.9569 342.933 92.2996 342.764C92.6422 342.596 92.9034 342.346 93.0832 342.014C93.2685 341.683 93.3781 341.27 93.4118 340.776Z" fill="#0A355C"/>
<path d="M107.668 338.425V339.006C107.668 339.939 107.542 340.776 107.289 341.517C107.036 342.258 106.68 342.89 106.219 343.413C105.758 343.93 105.208 344.326 104.568 344.601C103.933 344.876 103.228 345.014 102.453 345.014C101.683 345.014 100.978 344.876 100.338 344.601C99.703 344.326 99.1525 343.93 98.6863 343.413C98.2201 342.89 97.8578 342.258 97.5994 341.517C97.3466 340.776 97.2202 339.939 97.2202 339.006V338.425C97.2202 337.487 97.3466 336.65 97.5994 335.914C97.8522 335.172 98.2089 334.54 98.6695 334.018C99.1357 333.496 99.6862 333.097 100.321 332.822C100.961 332.546 101.666 332.409 102.436 332.409C103.211 332.409 103.916 332.546 104.551 332.822C105.191 333.097 105.742 333.496 106.202 334.018C106.668 334.54 107.028 335.172 107.281 335.914C107.539 336.65 107.668 337.487 107.668 338.425ZM105.115 339.006V338.408C105.115 337.756 105.056 337.183 104.938 336.689C104.82 336.195 104.646 335.779 104.416 335.442C104.186 335.105 103.905 334.852 103.573 334.684C103.242 334.51 102.863 334.423 102.436 334.423C102.009 334.423 101.63 334.51 101.298 334.684C100.973 334.852 100.694 335.105 100.464 335.442C100.239 335.779 100.068 336.195 99.9502 336.689C99.8322 337.183 99.7732 337.756 99.7732 338.408V339.006C99.7732 339.652 99.8322 340.225 99.9502 340.725C100.068 341.219 100.242 341.638 100.473 341.98C100.703 342.317 100.984 342.573 101.315 342.747C101.647 342.921 102.026 343.008 102.453 343.008C102.88 343.008 103.259 342.921 103.59 342.747C103.922 342.573 104.2 342.317 104.424 341.98C104.649 341.638 104.82 341.219 104.938 340.725C105.056 340.225 105.115 339.652 105.115 339.006Z" fill="#0A355C"/>
<path d="M110.642 332.577H112.783L115.934 341.584L119.085 332.577H121.225L116.793 344.845H115.074L110.642 332.577ZM109.488 332.577H111.62L112.007 341.357V344.845H109.488V332.577ZM120.248 332.577H122.388V344.845H119.86V341.357L120.248 332.577Z" fill="#0A355C"/>
<path d="M129.381 340.472H126.255V338.501H129.381C129.865 338.501 130.258 338.422 130.561 338.265C130.864 338.102 131.086 337.877 131.227 337.591C131.367 337.304 131.437 336.981 131.437 336.622C131.437 336.257 131.367 335.917 131.227 335.602C131.086 335.288 130.864 335.035 130.561 334.844C130.258 334.653 129.865 334.557 129.381 334.557H127.132V344.845H124.604V332.577H129.381C130.342 332.577 131.165 332.751 131.85 333.1C132.541 333.442 133.069 333.917 133.434 334.524C133.799 335.13 133.982 335.824 133.982 336.605C133.982 337.397 133.799 338.082 133.434 338.661C133.069 339.239 132.541 339.686 131.85 340C131.165 340.315 130.342 340.472 129.381 340.472Z" fill="#0A355C"/>
<path d="M145.803 338.425V339.006C145.803 339.939 145.677 340.776 145.424 341.517C145.171 342.258 144.815 342.89 144.354 343.413C143.893 343.93 143.343 344.326 142.703 344.601C142.068 344.876 141.363 345.014 140.588 345.014C139.818 345.014 139.113 344.876 138.473 344.601C137.838 344.326 137.288 343.93 136.821 343.413C136.355 342.89 135.993 342.258 135.734 341.517C135.482 340.776 135.355 339.939 135.355 339.006V338.425C135.355 337.487 135.482 336.65 135.734 335.914C135.987 335.172 136.344 334.54 136.805 334.018C137.271 333.496 137.821 333.097 138.456 332.822C139.096 332.546 139.801 332.409 140.571 332.409C141.346 332.409 142.051 332.546 142.686 332.822C143.326 333.097 143.877 333.496 144.337 334.018C144.803 334.54 145.163 335.172 145.416 335.914C145.674 336.65 145.803 337.487 145.803 338.425ZM143.25 339.006V338.408C143.25 337.756 143.191 337.183 143.073 336.689C142.955 336.195 142.781 335.779 142.551 335.442C142.321 335.105 142.04 334.852 141.708 334.684C141.377 334.51 140.998 334.423 140.571 334.423C140.144 334.423 139.765 334.51 139.433 334.684C139.108 334.852 138.83 335.105 138.599 335.442C138.375 335.779 138.203 336.195 138.085 336.689C137.967 337.183 137.908 337.756 137.908 338.408V339.006C137.908 339.652 137.967 340.225 138.085 340.725C138.203 341.219 138.377 341.638 138.608 341.98C138.838 342.317 139.119 342.573 139.45 342.747C139.782 342.921 140.161 343.008 140.588 343.008C141.015 343.008 141.394 342.921 141.725 342.747C142.057 342.573 142.335 342.317 142.559 341.98C142.784 341.638 142.955 341.219 143.073 340.725C143.191 340.225 143.25 339.652 143.25 339.006Z" fill="#0A355C"/>
<path d="M154.398 332.577H156.917V340.683C156.917 341.627 156.715 342.421 156.31 343.067C155.911 343.713 155.358 344.199 154.65 344.525C153.948 344.851 153.139 345.014 152.224 345.014C151.308 345.014 150.494 344.851 149.78 344.525C149.072 344.199 148.516 343.713 148.112 343.067C147.713 342.421 147.514 341.627 147.514 340.683V332.577H150.041V340.683C150.041 341.233 150.129 341.683 150.303 342.031C150.477 342.379 150.727 342.635 151.053 342.798C151.384 342.961 151.774 343.042 152.224 343.042C152.684 343.042 153.075 342.961 153.395 342.798C153.721 342.635 153.968 342.379 154.136 342.031C154.311 341.683 154.398 341.233 154.398 340.683V332.577Z" fill="#0A355C"/>
<path d="M168.983 332.577V344.845H166.455L161.526 336.622V344.845H158.998V332.577H161.526L166.463 340.809V332.577H168.983Z" fill="#0A355C"/>
<path d="M174.948 344.845H172.277L172.294 342.874H174.948C175.611 342.874 176.17 342.725 176.625 342.427C177.08 342.124 177.422 341.683 177.653 341.104C177.889 340.526 178.007 339.826 178.007 339.006V338.408C178.007 337.779 177.939 337.225 177.804 336.748C177.675 336.271 177.481 335.869 177.223 335.543C176.965 335.217 176.647 334.973 176.271 334.81C175.895 334.642 175.462 334.557 174.973 334.557H172.227V332.577H174.973C175.793 332.577 176.543 332.718 177.223 332.999C177.908 333.274 178.501 333.67 179.001 334.187C179.501 334.703 179.886 335.321 180.155 336.04C180.43 336.754 180.568 337.548 180.568 338.425V339.006C180.568 339.877 180.43 340.672 180.155 341.391C179.886 342.11 179.501 342.728 179.001 343.244C178.507 343.755 177.914 344.151 177.223 344.432C176.538 344.708 175.779 344.845 174.948 344.845ZM173.709 332.577V344.845H171.182V332.577H173.709Z" fill="#0A355C"/>
<path d="M158.432 392.178C151.069 404.949 134.61 409.279 121.832 401.919C109.055 394.559 104.723 378.107 112.087 365.335C119.45 352.563 135.909 348.234 148.687 355.594C161.356 362.954 165.796 379.406 158.432 392.178Z" fill="#F5516C"/>
<path d="M135.426 360.962V375.959C134.592 375.126 133.878 374.412 132.925 373.459C132.806 372.031 132.568 367.984 132.568 367.984L134.95 360.843C133.521 360.843 132.092 361.081 130.782 361.438L129.591 364.89L126.257 363.223C125.066 363.938 123.875 364.771 122.804 365.842L128.758 368.818L128.996 372.388L125.423 372.15L122.446 366.199C121.494 367.27 120.541 368.341 119.827 369.651L121.494 372.983L117.922 374.174C117.564 375.483 117.326 376.911 117.326 378.458L124.471 376.197L130.186 376.435L132.568 378.816L130.186 381.196L124.471 381.434L117.326 379.173C117.326 380.601 117.564 382.029 117.922 383.457L121.375 384.648L119.708 387.861C120.422 389.052 121.256 390.242 122.327 391.194L125.304 385.243L128.877 385.005L128.638 388.576L122.685 391.551C123.756 392.503 124.828 393.456 126.138 394.17L129.353 392.622L130.544 396.074C131.854 396.431 133.282 396.669 134.711 396.669L132.449 389.647C132.449 389.647 132.687 385.6 132.806 384.172C133.64 383.338 134.354 382.624 135.307 381.672V396.669C145.19 396.669 153.168 388.695 153.168 378.816C153.287 368.937 145.309 360.962 135.426 360.962ZM139.474 392.146C139.474 383.219 139.474 374.412 139.474 365.485C143.761 366.437 149.239 371.198 149.477 378.339C149.715 386.195 143.761 391.194 139.474 392.146Z" fill="#F5F5F5"/>
<path d="M233.613 83.8297C230.644 88.9797 224.007 90.7254 218.855 87.7576C213.703 84.7899 211.956 78.156 214.925 73.006C217.894 67.8561 224.531 66.1103 229.683 69.0781C234.792 72.0459 236.582 78.6797 233.613 83.8297Z" fill="#F5516C"/>
<path d="M236.985 68.0128L236.983 68.0113C231.246 64.7069 223.853 66.647 220.542 72.39C217.236 78.1247 219.177 85.515 224.923 88.8244C230.659 92.1288 238.052 90.1888 241.363 84.4457C244.672 78.7071 242.679 71.3203 236.985 68.0128Z" fill="#F5516C" stroke="#F5F5F5" stroke-width="1.6"/>
<path d="M231.022 70.9558V77.2449C230.672 76.8955 230.373 76.596 229.973 76.1967C229.923 75.5977 229.823 73.9007 229.823 73.9007L230.822 70.9059C230.223 70.9059 229.624 71.0057 229.074 71.1555L228.575 72.6029L227.177 71.9042C226.677 72.2036 226.178 72.553 225.729 73.0022L228.225 74.2501L228.325 75.7475L226.827 75.6477L225.579 73.152C225.179 73.6012 224.78 74.0504 224.48 74.5995L225.179 75.997L223.681 76.4962C223.532 77.0452 223.432 77.6442 223.432 78.2931L226.428 77.3447L228.825 77.4445L229.823 78.4428L228.825 79.4411L226.428 79.5409L223.432 78.5925C223.432 79.1915 223.532 79.7905 223.681 80.3894L225.129 80.8886L224.43 82.2362C224.73 82.7353 225.08 83.2345 225.529 83.6338L226.777 81.1381L228.275 81.0383L228.176 82.5357L225.679 83.7835C226.128 84.1828 226.578 84.5821 227.127 84.8816L228.475 84.2327L228.974 85.6802C229.524 85.83 230.123 85.9298 230.722 85.9298L229.773 82.9849C229.773 82.9849 229.873 81.2879 229.923 80.6889C230.273 80.3395 230.572 80.04 230.972 79.6407V85.9298C235.117 85.9298 238.462 82.5856 238.462 78.4428C238.512 74.3 235.166 70.9558 231.022 70.9558ZM232.72 84.0331C232.72 80.2896 232.72 76.596 232.72 72.8525C234.517 73.2518 236.814 75.2483 236.914 78.2431C237.014 81.5374 234.517 83.6338 232.72 84.0331Z" fill="#F5F5F5"/>
<path d="M104.788 147.297L107.232 136.975H108.597L108.908 138.694L106.305 149.243H104.839L104.788 147.297ZM103.533 136.975L105.555 147.297L105.386 149.243H103.752L101.03 136.975H103.533ZM111.057 147.255L113.054 136.975H115.556L112.843 149.243H111.209L111.057 147.255ZM109.363 136.975L111.824 147.339L111.756 149.243H110.29L107.67 138.686L108.007 136.975H109.363Z" fill="#0A355C"/>
<path d="M121.547 139.073L118.21 149.243H115.523L120.081 136.975H121.791L121.547 139.073ZM124.319 149.243L120.974 139.073L120.704 136.975H122.432L127.015 149.243H124.319ZM124.167 144.676V146.656H117.688V144.676H124.167Z" fill="#0A355C"/>
<path d="M136.039 147.272V149.243H129.863V147.272H136.039ZM130.681 136.975V149.243H128.153V136.975H130.681Z" fill="#0A355C"/>
<path d="M145.375 147.272V149.243H139.199V147.272H145.375ZM140.016 136.975V149.243H137.489V136.975H140.016Z" fill="#0A355C"/>
<path d="M155.056 147.272V149.243H148.526V147.272H155.056ZM149.352 136.975V149.243H146.824V136.975H149.352ZM154.205 141.972V143.893H148.526V141.972H154.205ZM155.048 136.975V138.955H148.526V136.975H155.048Z" fill="#0A355C"/>
<path d="M162.185 136.975V149.243H159.665V136.975H162.185ZM165.959 136.975V138.955H155.95V136.975H165.959Z" fill="#0A355C"/>
<path fill-rule="evenodd" clip-rule="evenodd" d="M92.902 128.46H172.109C174.27 128.46 176.045 126.445 176.045 123.947V108.779H162.278C156.235 108.779 151.357 103.901 151.357 97.8588C151.357 91.8164 156.235 86.9382 162.278 86.8828H176.045V71.6711C176.045 69.2172 174.27 67.2015 172.109 67.2015H92.902C90.7415 67.2015 88.9668 69.2172 88.9668 71.6711V123.991C88.9668 126.445 90.7415 128.46 92.902 128.46Z" fill="#F5516C"/>
<path d="M154.204 97.8519C154.204 102.427 157.898 106.12 162.473 106.12H179.262V89.5414L162.473 89.5414C157.898 89.5834 154.204 93.2769 154.204 97.8519Z" fill="#F5516C"/>
<path d="M120.031 82.5501H108.86V88.7677H118.239C123.192 88.7677 127.302 92.8776 127.302 97.8306C127.302 102.784 123.192 106.893 118.239 106.893H108.86V113.111H119.715C128.251 113.111 135.101 106.261 135.101 97.7252C135.101 89.2946 128.356 82.5501 120.031 82.5501Z" fill="white"/>
<path d="M112.322 89.9276C112.111 89.9276 111.9 89.9276 111.584 89.9276C114.008 91.6137 115.694 94.4591 115.694 97.7259C115.694 100.993 114.113 103.838 111.584 105.524C111.795 105.524 112.006 105.524 112.322 105.524C116.642 105.524 120.12 102.047 120.12 97.7259C120.12 93.4052 116.642 89.9276 112.322 89.9276Z" fill="white"/>
<path d="M114.649 97.7256C114.649 102.362 110.856 106.156 106.219 106.156C101.582 106.156 97.7881 102.362 97.7881 97.7256C97.7881 93.0888 101.582 89.295 106.219 89.295C110.961 89.295 114.649 93.0888 114.649 97.7256Z" fill="white"/>
</svg>
