<svg width="600" height="470" viewBox="0 0 600 470" fill="none" xmlns="http://www.w3.org/2000/svg">
<path d="M266.422 287.003C265.082 287.003 263.996 288.089 263.996 289.429C263.996 290.769 265.082 291.855 266.422 291.855C267.762 291.855 268.849 290.769 268.849 289.429C268.849 288.089 267.762 287.003 266.422 287.003Z" fill="#F5516C"/>
<path d="M254.289 287.003C252.949 287.003 251.863 288.089 251.863 289.429C251.863 290.769 252.949 291.855 254.289 291.855C255.63 291.855 256.716 290.769 256.716 289.429C256.716 288.089 255.63 287.003 254.289 287.003Z" fill="#F5516C"/>
<path d="M290.683 287.003C289.343 287.003 288.257 288.089 288.257 289.429C288.257 290.769 289.343 291.855 290.683 291.855C292.023 291.855 293.109 290.769 293.109 289.429C293.109 288.089 292.023 287.003 290.683 287.003Z" fill="#F5516C"/>
<path d="M278.551 287.003C277.211 287.003 276.125 288.089 276.125 289.429C276.125 290.769 277.211 291.855 278.551 291.855C279.891 291.855 280.978 290.769 280.978 289.429C280.978 288.089 279.891 287.003 278.551 287.003Z" fill="#F5516C"/>
<path d="M315.24 287.003C313.9 287.003 312.813 288.089 312.813 289.429C312.813 290.769 313.9 291.855 315.24 291.855C316.58 291.855 317.666 290.769 317.666 289.429C317.666 288.089 316.58 287.003 315.24 287.003Z" fill="#F5516C"/>
<path d="M303.108 287.003C301.768 287.003 300.682 288.089 300.682 289.429C300.682 290.769 301.768 291.855 303.108 291.855C304.448 291.855 305.534 290.769 305.534 289.429C305.534 288.089 304.448 287.003 303.108 287.003Z" fill="#F5516C"/>
<path d="M339.5 287.003C338.16 287.003 337.074 288.089 337.074 289.429C337.074 290.769 338.16 291.855 339.5 291.855C340.84 291.855 341.927 290.769 341.927 289.429C341.927 288.089 340.84 287.003 339.5 287.003Z" fill="#F5516C"/>
<path d="M363.759 287.003C362.419 287.003 361.333 288.089 361.333 289.429C361.333 290.769 362.419 291.855 363.759 291.855C365.099 291.855 366.186 290.769 366.186 289.429C366.186 288.089 365.099 287.003 363.759 287.003Z" fill="#F5516C"/>
<path d="M327.37 287.003C326.03 287.003 324.943 288.089 324.943 289.429C324.943 290.769 326.03 291.855 327.37 291.855C328.71 291.855 329.796 290.769 329.796 289.429C329.796 288.089 328.71 287.003 327.37 287.003Z" fill="#F5516C"/>
<path d="M351.628 287.003C350.288 287.003 349.202 288.089 349.202 289.429C349.202 290.769 350.288 291.855 351.628 291.855C352.968 291.855 354.055 290.769 354.055 289.429C354.055 288.089 352.968 287.003 351.628 287.003Z" fill="#F5516C"/>
<path d="M242.159 287.003C240.819 287.003 239.732 288.089 239.732 289.429C239.732 290.769 240.819 291.855 242.159 291.855C243.499 291.855 244.585 290.769 244.585 289.429C244.585 288.089 243.499 287.003 242.159 287.003Z" fill="#F5516C"/>
<path d="M230.026 287.003C228.686 287.003 227.599 288.089 227.599 289.429C227.599 290.769 228.686 291.855 230.026 291.855C231.366 291.855 232.452 290.769 232.452 289.429C232.452 288.089 231.366 287.003 230.026 287.003Z" fill="#F5516C"/>
<path d="M217.893 287.003C216.553 287.003 215.467 288.089 215.467 289.429C215.467 290.769 216.553 291.855 217.893 291.855C219.233 291.855 220.319 290.769 220.319 289.429C220.319 288.089 219.233 287.003 217.893 287.003Z" fill="#F5516C"/>
<path d="M205.76 287.003C204.42 287.003 203.334 288.089 203.334 289.429C203.334 290.769 204.42 291.855 205.76 291.855C207.1 291.855 208.187 290.769 208.187 289.429C208.187 288.089 207.1 287.003 205.76 287.003Z" fill="#F5516C"/>
<path d="M193.632 287.003C192.292 287.003 191.206 288.089 191.206 289.429C191.206 290.769 192.292 291.855 193.632 291.855C194.972 291.855 196.059 290.769 196.059 289.429C196.059 288.089 194.972 287.003 193.632 287.003Z" fill="#F5516C"/>
<path d="M181.5 287.003C180.16 287.003 179.074 288.089 179.074 289.429C179.074 290.769 180.16 291.855 181.5 291.855C182.84 291.855 183.927 290.769 183.927 289.429C183.927 288.089 182.84 287.003 181.5 287.003Z" fill="#F5516C"/>
<path d="M175.851 279.135L165.557 289.429L175.851 299.723" stroke="#F5516C" stroke-width="3"/>
<path d="M111.103 161.472L100.809 151.178L90.5145 161.472" stroke="#F5516C" stroke-width="3"/>
<path d="M103.236 178.122C103.236 176.782 102.15 175.695 100.81 175.695C99.4701 175.695 98.3838 176.782 98.3838 178.122C98.3838 179.462 99.4701 180.548 100.81 180.548C102.15 180.548 103.236 179.462 103.236 178.122Z" fill="#F5516C"/>
<path d="M103.236 166.468C103.236 165.128 102.15 164.041 100.81 164.041C99.4701 164.041 98.3838 165.128 98.3838 166.468C98.3838 167.808 99.4701 168.894 100.81 168.894C102.15 168.894 103.236 167.808 103.236 166.468Z" fill="#F5516C"/>
<path d="M103.236 190.254C103.236 188.914 102.15 187.828 100.81 187.828C99.4701 187.828 98.3838 188.914 98.3838 190.254C98.3838 191.594 99.4701 192.681 100.81 192.681C102.15 192.681 103.236 191.594 103.236 190.254Z" fill="#F5516C"/>
<path d="M198.454 187.828C197.114 187.828 196.027 188.914 196.027 190.254C196.027 191.594 197.114 192.681 198.454 192.681C199.794 192.681 200.88 191.594 200.88 190.254C200.88 188.914 199.794 187.828 198.454 187.828Z" fill="#F5516C"/>
<path d="M186.322 187.828C184.982 187.828 183.895 188.914 183.895 190.254C183.895 191.594 184.982 192.681 186.322 192.681C187.662 192.681 188.748 191.594 188.748 190.254C188.748 188.914 187.662 187.828 186.322 187.828Z" fill="#F5516C"/>
<path d="M222.713 187.828C221.373 187.828 220.287 188.914 220.287 190.254C220.287 191.594 221.373 192.681 222.713 192.681C224.053 192.681 225.14 191.594 225.14 190.254C225.14 188.914 224.053 187.828 222.713 187.828Z" fill="#F5516C"/>
<path d="M210.582 187.828C209.242 187.828 208.156 188.914 208.156 190.254C208.156 191.594 209.242 192.681 210.582 192.681C211.922 192.681 213.009 191.594 213.009 190.254C213.009 188.914 211.922 187.828 210.582 187.828Z" fill="#F5516C"/>
<path d="M247.27 187.828C245.93 187.828 244.844 188.914 244.844 190.254C244.844 191.594 245.93 192.681 247.27 192.681C248.61 192.681 249.696 191.594 249.696 190.254C249.696 188.914 248.61 187.828 247.27 187.828Z" fill="#F5516C"/>
<path d="M235.138 187.828C233.798 187.828 232.712 188.914 232.712 190.254C232.712 191.594 233.798 192.681 235.138 192.681C236.478 192.681 237.564 191.594 237.564 190.254C237.564 188.914 236.478 187.828 235.138 187.828Z" fill="#F5516C"/>
<path d="M271.531 187.828C270.191 187.828 269.104 188.914 269.104 190.254C269.104 191.594 270.191 192.681 271.531 192.681C272.871 192.681 273.957 191.594 273.957 190.254C273.957 188.914 272.871 187.828 271.531 187.828Z" fill="#F5516C"/>
<path d="M295.789 187.828C294.449 187.828 293.363 188.914 293.363 190.254C293.363 191.594 294.449 192.681 295.789 192.681C297.13 192.681 298.216 191.594 298.216 190.254C298.216 188.914 297.13 187.828 295.789 187.828Z" fill="#F5516C"/>
<path d="M259.4 187.828C258.06 187.828 256.974 188.914 256.974 190.254C256.974 191.594 258.06 192.681 259.4 192.681C260.74 192.681 261.826 191.594 261.826 190.254C261.826 188.914 260.74 187.828 259.4 187.828Z" fill="#F5516C"/>
<path d="M283.659 187.828C282.319 187.828 281.232 188.914 281.232 190.254C281.232 191.594 282.319 192.681 283.659 192.681C284.999 192.681 286.085 191.594 286.085 190.254C286.085 188.914 284.999 187.828 283.659 187.828Z" fill="#F5516C"/>
<path d="M174.19 187.828C172.85 187.828 171.764 188.914 171.764 190.254C171.764 191.594 172.85 192.681 174.19 192.681C175.53 192.681 176.616 191.594 176.616 190.254C176.616 188.914 175.53 187.828 174.19 187.828Z" fill="#F5516C"/>
<path d="M162.057 187.828C160.717 187.828 159.631 188.914 159.631 190.254C159.631 191.594 160.717 192.681 162.057 192.681C163.397 192.681 164.483 191.594 164.483 190.254C164.483 188.914 163.397 187.828 162.057 187.828Z" fill="#F5516C"/>
<path d="M149.923 187.828C148.583 187.828 147.497 188.914 147.497 190.254C147.497 191.594 148.583 192.681 149.923 192.681C151.263 192.681 152.35 191.594 152.35 190.254C152.35 188.914 151.263 187.828 149.923 187.828Z" fill="#F5516C"/>
<path d="M137.79 187.828C136.45 187.828 135.364 188.914 135.364 190.254C135.364 191.594 136.45 192.681 137.79 192.681C139.13 192.681 140.217 191.594 140.217 190.254C140.217 188.914 139.13 187.828 137.79 187.828Z" fill="#F5516C"/>
<path d="M125.663 187.828C124.323 187.828 123.236 188.914 123.236 190.254C123.236 191.594 124.323 192.681 125.663 192.681C127.003 192.681 128.089 191.594 128.089 190.254C128.089 188.914 127.003 187.828 125.663 187.828Z" fill="#F5516C"/>
<path d="M113.531 187.828C112.191 187.828 111.104 188.914 111.104 190.254C111.104 191.594 112.191 192.681 113.531 192.681C114.871 192.681 115.957 191.594 115.957 190.254C115.957 188.914 114.871 187.828 113.531 187.828Z" fill="#F5516C"/>
<path d="M392.718 187.828C391.378 187.828 390.292 188.914 390.292 190.254C390.292 191.594 391.378 192.681 392.718 192.681C394.058 192.681 395.145 191.594 395.145 190.254C395.145 188.914 394.058 187.828 392.718 187.828Z" fill="#F5516C"/>
<path d="M380.585 187.828C379.245 187.828 378.159 188.914 378.159 190.254C378.159 191.594 379.245 192.681 380.585 192.681C381.925 192.681 383.012 191.594 383.012 190.254C383.012 188.914 381.925 187.828 380.585 187.828Z" fill="#F5516C"/>
<path d="M416.979 187.828C415.639 187.828 414.553 188.914 414.553 190.254C414.553 191.594 415.639 192.681 416.979 192.681C418.319 192.681 419.405 191.594 419.405 190.254C419.405 188.914 418.319 187.828 416.979 187.828Z" fill="#F5516C"/>
<path d="M404.847 187.828C403.507 187.828 402.421 188.914 402.421 190.254C402.421 191.594 403.507 192.681 404.847 192.681C406.187 192.681 407.273 191.594 407.273 190.254C407.273 188.914 406.187 187.828 404.847 187.828Z" fill="#F5516C"/>
<path d="M429.402 199.681C428.062 199.681 426.975 200.767 426.975 202.107C426.975 203.447 428.062 204.533 429.402 204.533C430.742 204.533 431.828 203.447 431.828 202.107C431.828 200.767 430.742 199.681 429.402 199.681Z" fill="#F5516C"/>
<path d="M429.402 211.533C428.062 211.533 426.975 212.62 426.975 213.96C426.975 215.3 428.062 216.386 429.402 216.386C430.742 216.386 431.828 215.3 431.828 213.96C431.828 212.62 430.742 211.533 429.402 211.533Z" fill="#F5516C"/>
<path d="M429.404 187.828C428.064 187.828 426.977 188.914 426.977 190.254C426.977 191.594 428.064 192.681 429.404 192.681C430.744 192.681 431.83 191.594 431.83 190.254C431.83 188.914 430.744 187.828 429.404 187.828Z" fill="#F5516C"/>
<path d="M368.455 187.828C367.114 187.828 366.028 188.914 366.028 190.254C366.028 191.594 367.114 192.681 368.455 192.681C369.795 192.681 370.881 191.594 370.881 190.254C370.881 188.914 369.795 187.828 368.455 187.828Z" fill="#F5516C"/>
<path d="M356.322 187.828C354.982 187.828 353.895 188.914 353.895 190.254C353.895 191.594 354.982 192.681 356.322 192.681C357.662 192.681 358.748 191.594 358.748 190.254C358.748 188.914 357.662 187.828 356.322 187.828Z" fill="#F5516C"/>
<path d="M344.189 187.828C342.849 187.828 341.763 188.914 341.763 190.254C341.763 191.594 342.849 192.681 344.189 192.681C345.529 192.681 346.615 191.594 346.615 190.254C346.615 188.914 345.529 187.828 344.189 187.828Z" fill="#F5516C"/>
<path d="M332.055 187.828C330.715 187.828 329.629 188.914 329.629 190.254C329.629 191.594 330.715 192.681 332.055 192.681C333.395 192.681 334.481 191.594 334.481 190.254C334.481 188.914 333.395 187.828 332.055 187.828Z" fill="#F5516C"/>
<path d="M319.927 187.828C318.587 187.828 317.501 188.914 317.501 190.254C317.501 191.594 318.587 192.681 319.927 192.681C321.267 192.681 322.354 191.594 322.354 190.254C322.354 188.914 321.267 187.828 319.927 187.828Z" fill="#F5516C"/>
<path d="M307.795 187.828C306.455 187.828 305.369 188.914 305.369 190.254C305.369 191.594 306.455 192.681 307.795 192.681C309.135 192.681 310.222 191.594 310.222 190.254C310.222 188.914 309.135 187.828 307.795 187.828Z" fill="#F5516C"/>
<path d="M312.515 390.478C311.175 390.478 310.089 391.564 310.089 392.904C310.089 394.244 311.175 395.33 312.515 395.33C313.855 395.33 314.941 394.244 314.941 392.904C314.941 391.564 313.855 390.478 312.515 390.478Z" fill="#F5516C"/>
<path d="M300.382 390.478C299.042 390.478 297.956 391.564 297.956 392.904C297.956 394.244 299.042 395.33 300.382 395.33C301.722 395.33 302.809 394.244 302.809 392.904C302.809 391.564 301.722 390.478 300.382 390.478Z" fill="#F5516C"/>
<path d="M336.776 390.478C335.436 390.478 334.349 391.564 334.349 392.904C334.349 394.244 335.436 395.33 336.776 395.33C338.116 395.33 339.202 394.244 339.202 392.904C339.202 391.564 338.116 390.478 336.776 390.478Z" fill="#F5516C"/>
<path d="M324.644 390.478C323.304 390.478 322.218 391.564 322.218 392.904C322.218 394.244 323.304 395.33 324.644 395.33C325.984 395.33 327.07 394.244 327.07 392.904C327.07 391.564 325.984 390.478 324.644 390.478Z" fill="#F5516C"/>
<path d="M361.332 390.478C359.992 390.478 358.906 391.564 358.906 392.904C358.906 394.244 359.992 395.33 361.332 395.33C362.672 395.33 363.759 394.244 363.759 392.904C363.759 391.564 362.672 390.478 361.332 390.478Z" fill="#F5516C"/>
<path d="M349.201 390.478C347.861 390.478 346.774 391.564 346.774 392.904C346.774 394.244 347.861 395.33 349.201 395.33C350.541 395.33 351.627 394.244 351.627 392.904C351.627 391.564 350.541 390.478 349.201 390.478Z" fill="#F5516C"/>
<path d="M288.251 390.478C286.911 390.478 285.825 391.564 285.825 392.904C285.825 394.244 286.911 395.33 288.251 395.33C289.591 395.33 290.678 394.244 290.678 392.904C290.678 391.564 289.591 390.478 288.251 390.478Z" fill="#F5516C"/>
<path d="M276.119 390.478C274.779 390.478 273.692 391.564 273.692 392.904C273.692 394.244 274.779 395.33 276.119 395.33C277.459 395.33 278.545 394.244 278.545 392.904C278.545 391.564 277.459 390.478 276.119 390.478Z" fill="#F5516C"/>
<path d="M263.986 390.478C262.646 390.478 261.559 391.564 261.559 392.904C261.559 394.244 262.646 395.33 263.986 395.33C265.326 395.33 266.412 394.244 266.412 392.904C266.412 391.564 265.326 390.478 263.986 390.478Z" fill="#F5516C"/>
<path d="M251.853 390.478C250.513 390.478 249.427 391.564 249.427 392.904C249.427 394.244 250.513 395.33 251.853 395.33C253.193 395.33 254.279 394.244 254.279 392.904C254.279 391.564 253.193 390.478 251.853 390.478Z" fill="#F5516C"/>
<path d="M239.725 390.478C238.385 390.478 237.299 391.564 237.299 392.904C237.299 394.244 238.385 395.33 239.725 395.33C241.065 395.33 242.151 394.244 242.151 392.904C242.151 391.564 241.065 390.478 239.725 390.478Z" fill="#F5516C"/>
<path d="M227.593 390.478C226.253 390.478 225.167 391.564 225.167 392.904C225.167 394.244 226.253 395.33 227.593 395.33C228.933 395.33 230.02 394.244 230.02 392.904C230.02 391.564 228.933 390.478 227.593 390.478Z" fill="#F5516C"/>
<path d="M221.943 382.61L211.649 392.904L221.943 403.198" stroke="#F5516C" stroke-width="3"/>
<path d="M189.508 415.752C190.848 415.752 191.935 414.666 191.935 413.326C191.935 411.986 190.848 410.9 189.508 410.9C188.168 410.9 187.082 411.986 187.082 413.326C187.082 414.666 188.168 415.752 189.508 415.752Z" fill="#0A355C"/>
<path d="M201.641 415.752C202.981 415.752 204.068 414.666 204.068 413.326C204.068 411.986 202.981 410.9 201.641 410.9C200.301 410.9 199.215 411.986 199.215 413.326C199.215 414.666 200.301 415.752 201.641 415.752Z" fill="#0A355C"/>
<path d="M165.248 415.752C166.588 415.752 167.674 414.666 167.674 413.326C167.674 411.986 166.588 410.9 165.248 410.9C163.908 410.9 162.821 411.986 162.821 413.326C162.821 414.666 163.908 415.752 165.248 415.752Z" fill="#0A355C"/>
<path d="M177.379 415.752C178.719 415.752 179.806 414.666 179.806 413.326C179.806 411.986 178.719 410.9 177.379 410.9C176.039 410.9 174.953 411.986 174.953 413.326C174.953 414.666 176.039 415.752 177.379 415.752Z" fill="#0A355C"/>
<path d="M140.691 415.752C142.031 415.752 143.117 414.666 143.117 413.326C143.117 411.986 142.031 410.9 140.691 410.9C139.351 410.9 138.265 411.986 138.265 413.326C138.265 414.666 139.351 415.752 140.691 415.752Z" fill="#0A355C"/>
<path d="M152.823 415.752C154.163 415.752 155.249 414.666 155.249 413.326C155.249 411.986 154.163 410.9 152.823 410.9C151.483 410.9 150.396 411.986 150.396 413.326C150.396 414.666 151.483 415.752 152.823 415.752Z" fill="#0A355C"/>
<path d="M213.772 415.752C215.112 415.752 216.198 414.666 216.198 413.326C216.198 411.986 215.112 410.9 213.772 410.9C212.432 410.9 211.346 411.986 211.346 413.326C211.346 414.666 212.432 415.752 213.772 415.752Z" fill="#0A355C"/>
<path d="M225.905 415.752C227.245 415.752 228.331 414.666 228.331 413.326C228.331 411.986 227.245 410.9 225.905 410.9C224.565 410.9 223.479 411.986 223.479 413.326C223.479 414.666 224.565 415.752 225.905 415.752Z" fill="#0A355C"/>
<path d="M238.038 415.752C239.378 415.752 240.464 414.666 240.464 413.326C240.464 411.986 239.378 410.9 238.038 410.9C236.698 410.9 235.611 411.986 235.611 413.326C235.611 414.666 236.698 415.752 238.038 415.752Z" fill="#0A355C"/>
<path d="M250.17 415.752C251.511 415.752 252.597 414.666 252.597 413.326C252.597 411.986 251.511 410.9 250.17 410.9C248.83 410.9 247.744 411.986 247.744 413.326C247.744 414.666 248.83 415.752 250.17 415.752Z" fill="#0A355C"/>
<path d="M262.298 415.752C263.638 415.752 264.725 414.666 264.725 413.326C264.725 411.986 263.638 410.9 262.298 410.9C260.958 410.9 259.872 411.986 259.872 413.326C259.872 414.666 260.958 415.752 262.298 415.752Z" fill="#0A355C"/>
<path d="M274.43 415.752C275.77 415.752 276.857 414.666 276.857 413.326C276.857 411.986 275.77 410.9 274.43 410.9C273.09 410.9 272.004 411.986 272.004 413.326C272.004 414.666 273.09 415.752 274.43 415.752Z" fill="#0A355C"/>
<path d="M280.08 423.62L290.374 413.326L280.08 403.032" stroke="#0A355C" stroke-width="3"/>
<path d="M247.316 76.8855L168.112 76.8858" stroke="#0A355C" stroke-width="3"/>
<path d="M249.235 87.1797L259.529 76.8856L249.235 66.5916" stroke="#0A355C" stroke-width="3"/>
<path d="M497.052 199.746L496.639 128.755" stroke="#9AA5B8" stroke-width="3"/>
<path d="M486.758 201.668L497.052 211.963L507.346 201.668" stroke="#9AA5B8" stroke-width="3"/>
<path d="M415.462 87.1797L425.756 76.8856L415.462 66.5916" stroke="#9AA5B8" stroke-width="3"/>
<rect x="278.829" y="35.8269" width="124.838" height="82.1177" rx="13.5" stroke="#0A355C" stroke-width="3"/>
<rect x="434.632" y="35.8269" width="124.838" height="82.1177" rx="13.5" stroke="#9AA5B8" stroke-width="3"/>
<rect x="376.471" y="226.533" width="183" height="211.95" rx="23.5" stroke="#F5516C" stroke-width="3"/>
<rect x="448.46" y="392.461" width="70.6854" height="8.47165" rx="2" fill="#F5516C"/>
<rect x="448.46" y="379.953" width="70.6854" height="8.47165" rx="2" fill="#F5516C"/>
<rect x="448.46" y="367.444" width="70.6854" height="8.47165" rx="2" fill="#F5516C"/>
<rect x="448.46" y="354.935" width="70.6854" height="8.47165" rx="2" fill="#F5516C"/>
<rect x="448.46" y="342.426" width="70.6854" height="8.47165" rx="2" fill="#F5516C"/>
<rect x="448.46" y="329.917" width="70.6854" height="8.47165" rx="2" fill="#F5516C"/>
<rect x="448.46" y="317.409" width="70.6854" height="8.47165" rx="2" fill="#F5516C"/>
<rect x="448.46" y="304.9" width="70.6854" height="8.47165" rx="2" fill="#F5516C"/>
<rect x="448.46" y="292.391" width="70.6854" height="8.47165" rx="2" fill="#F5516C"/>
<path d="M487.99 380.466C475.442 402.231 447.378 409.622 425.587 397.07C403.812 384.527 396.419 356.477 408.976 334.696C421.524 312.932 449.585 305.541 471.376 318.091C492.971 330.638 500.542 358.694 487.99 380.466Z" fill="#F5516C" stroke="#F5F5F5" stroke-width="3"/>
<path d="M448.777 326.247V352.656C447.309 351.189 446.051 349.931 444.373 348.254C444.164 345.739 443.744 338.613 443.744 338.613L447.938 326.037C445.422 326.037 442.906 326.456 440.599 327.085L438.502 333.163L432.631 330.229C430.534 331.487 428.437 332.954 426.55 334.84L437.034 340.08L437.454 346.368L431.163 345.949L425.921 335.469C424.243 337.355 422.566 339.242 421.308 341.547L424.243 347.416L417.953 349.512C417.324 351.817 416.904 354.332 416.904 357.057L429.486 353.075L439.551 353.494L443.744 357.686L439.551 361.878L429.486 362.297L416.904 358.315C416.904 360.83 417.324 363.345 417.953 365.86L424.034 367.956L421.098 373.615C422.356 375.711 423.824 377.807 425.711 379.484L430.953 369.004L437.244 368.585L436.825 374.873L426.34 380.113C428.227 381.789 430.115 383.466 432.421 384.724L438.083 381.999L440.18 388.077C442.486 388.706 445.003 389.125 447.519 389.125L443.535 376.759C443.535 376.759 443.954 369.633 444.164 367.118C445.632 365.651 446.89 364.393 448.567 362.716V389.125C465.971 389.125 480.02 375.082 480.02 357.686C480.23 340.29 466.181 326.247 448.777 326.247ZM455.906 381.161C455.906 365.441 455.906 349.931 455.906 334.211C463.455 335.888 473.101 344.272 473.52 356.848C473.939 370.681 463.455 379.484 455.906 381.161Z" fill="#F5F5F5"/>
<path d="M406.42 260.956H409.273L413.473 272.961L417.673 260.956H420.525L414.618 277.307H412.327L406.42 260.956ZM404.881 260.956H407.723L408.239 272.658V277.307H404.881V260.956ZM419.223 260.956H422.075V277.307H418.706V272.658L419.223 260.956ZM431.155 274.567V269.154C431.155 268.764 431.092 268.431 430.964 268.154C430.837 267.87 430.639 267.649 430.369 267.492C430.107 267.334 429.767 267.256 429.347 267.256C428.988 267.256 428.677 267.319 428.415 267.447C428.153 267.567 427.951 267.742 427.809 267.975C427.666 268.199 427.595 268.465 427.595 268.772H424.361C424.361 268.255 424.481 267.765 424.72 267.301C424.96 266.837 425.308 266.428 425.765 266.077C426.221 265.717 426.764 265.436 427.393 265.234C428.03 265.032 428.741 264.931 429.527 264.931C430.47 264.931 431.309 265.088 432.043 265.403C432.776 265.717 433.353 266.189 433.772 266.818C434.199 267.447 434.412 268.233 434.412 269.176V274.376C434.412 275.042 434.453 275.589 434.536 276.016C434.618 276.435 434.738 276.802 434.895 277.116V277.307H431.627C431.47 276.978 431.35 276.566 431.268 276.072C431.193 275.57 431.155 275.068 431.155 274.567ZM431.582 269.906L431.605 271.737H429.796C429.37 271.737 428.999 271.785 428.685 271.883C428.37 271.98 428.112 272.119 427.91 272.298C427.708 272.47 427.558 272.673 427.461 272.905C427.371 273.137 427.326 273.391 427.326 273.668C427.326 273.945 427.389 274.196 427.517 274.421C427.644 274.638 427.827 274.81 428.067 274.937C428.307 275.057 428.587 275.117 428.909 275.117C429.396 275.117 429.819 275.02 430.178 274.825C430.538 274.63 430.815 274.391 431.009 274.106C431.212 273.822 431.316 273.552 431.324 273.298L432.177 274.668C432.058 274.975 431.893 275.293 431.683 275.622C431.481 275.952 431.223 276.263 430.908 276.555C430.594 276.839 430.216 277.075 429.774 277.262C429.332 277.442 428.808 277.532 428.202 277.532C427.431 277.532 426.731 277.378 426.102 277.071C425.48 276.757 424.986 276.326 424.619 275.78C424.26 275.226 424.08 274.597 424.08 273.893C424.08 273.257 424.2 272.691 424.44 272.197C424.679 271.703 425.031 271.288 425.495 270.951C425.967 270.606 426.555 270.348 427.258 270.176C427.962 269.996 428.778 269.906 429.707 269.906H431.582ZM443.245 273.949C443.245 273.717 443.178 273.507 443.043 273.32C442.908 273.133 442.657 272.961 442.291 272.804C441.931 272.639 441.411 272.489 440.73 272.354C440.116 272.22 439.543 272.051 439.011 271.849C438.487 271.639 438.03 271.389 437.641 271.097C437.259 270.805 436.96 270.46 436.743 270.063C436.526 269.659 436.417 269.199 436.417 268.682C436.417 268.173 436.526 267.694 436.743 267.245C436.967 266.795 437.286 266.399 437.697 266.054C438.117 265.702 438.626 265.429 439.225 265.234C439.831 265.032 440.512 264.931 441.269 264.931C442.324 264.931 443.23 265.1 443.986 265.436C444.75 265.773 445.334 266.238 445.738 266.829C446.15 267.413 446.356 268.079 446.356 268.828H443.122C443.122 268.514 443.054 268.233 442.919 267.986C442.792 267.731 442.59 267.533 442.313 267.391C442.044 267.241 441.692 267.166 441.257 267.166C440.898 267.166 440.587 267.23 440.325 267.357C440.063 267.477 439.861 267.641 439.719 267.851C439.584 268.053 439.517 268.278 439.517 268.525C439.517 268.712 439.554 268.88 439.629 269.03C439.711 269.172 439.842 269.303 440.022 269.423C440.202 269.543 440.434 269.655 440.718 269.76C441.01 269.858 441.37 269.947 441.796 270.03C442.672 270.209 443.455 270.445 444.144 270.737C444.832 271.022 445.379 271.411 445.783 271.905C446.188 272.392 446.39 273.032 446.39 273.826C446.39 274.365 446.27 274.859 446.03 275.308C445.791 275.757 445.446 276.15 444.997 276.487C444.548 276.817 444.009 277.075 443.38 277.262C442.759 277.442 442.058 277.532 441.28 277.532C440.149 277.532 439.191 277.33 438.405 276.925C437.626 276.521 437.035 276.008 436.63 275.387C436.234 274.758 436.035 274.114 436.035 273.455H439.101C439.116 273.897 439.228 274.252 439.438 274.522C439.655 274.791 439.928 274.986 440.258 275.106C440.595 275.226 440.958 275.286 441.347 275.286C441.766 275.286 442.115 275.229 442.392 275.117C442.669 274.997 442.878 274.84 443.021 274.645C443.17 274.443 443.245 274.211 443.245 273.949ZM454.212 265.156V267.447H447.137V265.156H454.212ZM448.889 262.157H452.123V273.646C452.123 273.998 452.168 274.267 452.258 274.455C452.355 274.642 452.497 274.773 452.685 274.848C452.872 274.915 453.108 274.949 453.392 274.949C453.594 274.949 453.774 274.941 453.931 274.926C454.096 274.904 454.234 274.881 454.347 274.859L454.358 277.24C454.081 277.33 453.781 277.401 453.46 277.453C453.138 277.505 452.782 277.532 452.393 277.532C451.681 277.532 451.06 277.416 450.528 277.184C450.004 276.944 449.6 276.562 449.315 276.038C449.031 275.514 448.889 274.825 448.889 273.972V262.157ZM461.417 277.532C460.473 277.532 459.627 277.382 458.878 277.082C458.13 276.775 457.493 276.352 456.969 275.813C456.453 275.274 456.056 274.649 455.779 273.938C455.502 273.219 455.363 272.456 455.363 271.647V271.198C455.363 270.277 455.494 269.435 455.756 268.671C456.018 267.907 456.393 267.245 456.879 266.683C457.374 266.122 457.973 265.691 458.676 265.392C459.38 265.085 460.174 264.931 461.057 264.931C461.918 264.931 462.682 265.073 463.348 265.358C464.015 265.642 464.572 266.047 465.022 266.571C465.478 267.095 465.823 267.724 466.055 268.457C466.287 269.184 466.403 269.992 466.403 270.883V272.231H456.745V270.075H463.225V269.828C463.225 269.378 463.142 268.978 462.978 268.626C462.82 268.267 462.581 267.982 462.259 267.772C461.937 267.563 461.525 267.458 461.023 267.458C460.597 267.458 460.23 267.552 459.923 267.739C459.616 267.926 459.365 268.188 459.17 268.525C458.983 268.862 458.841 269.259 458.744 269.715C458.654 270.164 458.609 270.659 458.609 271.198V271.647C458.609 272.134 458.676 272.583 458.811 272.995C458.953 273.406 459.152 273.762 459.406 274.061C459.668 274.361 459.983 274.593 460.35 274.758C460.724 274.922 461.147 275.005 461.619 275.005C462.203 275.005 462.745 274.893 463.247 274.668C463.756 274.436 464.194 274.088 464.561 273.623L466.133 275.331C465.879 275.697 465.531 276.049 465.089 276.386C464.655 276.723 464.131 277 463.517 277.217C462.903 277.427 462.203 277.532 461.417 277.532ZM471.249 267.806V277.307H468.015V265.156H471.058L471.249 267.806ZM474.91 265.077L474.854 268.076C474.697 268.053 474.506 268.034 474.281 268.019C474.064 267.997 473.866 267.986 473.686 267.986C473.229 267.986 472.833 268.046 472.496 268.165C472.166 268.278 471.889 268.446 471.665 268.671C471.447 268.895 471.283 269.169 471.17 269.491C471.066 269.813 471.006 270.179 470.991 270.591L470.339 270.389C470.339 269.603 470.418 268.88 470.575 268.222C470.732 267.555 470.961 266.975 471.26 266.481C471.567 265.987 471.942 265.605 472.383 265.335C472.825 265.066 473.33 264.931 473.899 264.931C474.079 264.931 474.263 264.946 474.45 264.976C474.637 264.998 474.79 265.032 474.91 265.077ZM495.215 260.956V277.307H491.846L485.276 266.346V277.307H481.907V260.956H485.276L491.857 271.928V260.956H495.215ZM497.198 271.355V271.119C497.198 270.228 497.325 269.408 497.58 268.66C497.834 267.903 498.205 267.248 498.691 266.694C499.178 266.14 499.777 265.71 500.488 265.403C501.199 265.088 502.016 264.931 502.936 264.931C503.857 264.931 504.677 265.088 505.396 265.403C506.115 265.71 506.717 266.14 507.204 266.694C507.698 267.248 508.073 267.903 508.327 268.66C508.582 269.408 508.709 270.228 508.709 271.119V271.355C508.709 272.238 508.582 273.058 508.327 273.814C508.073 274.563 507.698 275.218 507.204 275.78C506.717 276.334 506.118 276.764 505.407 277.071C504.696 277.378 503.88 277.532 502.959 277.532C502.038 277.532 501.218 277.378 500.499 277.071C499.788 276.764 499.185 276.334 498.691 275.78C498.205 275.218 497.834 274.563 497.58 273.814C497.325 273.058 497.198 272.238 497.198 271.355ZM500.432 271.119V271.355C500.432 271.864 500.477 272.339 500.567 272.781C500.657 273.223 500.799 273.612 500.994 273.949C501.196 274.279 501.458 274.537 501.78 274.724C502.102 274.911 502.495 275.005 502.959 275.005C503.408 275.005 503.794 274.911 504.116 274.724C504.438 274.537 504.696 274.279 504.891 273.949C505.085 273.612 505.227 273.223 505.317 272.781C505.415 272.339 505.463 271.864 505.463 271.355V271.119C505.463 270.625 505.415 270.161 505.317 269.727C505.227 269.285 505.081 268.895 504.879 268.559C504.685 268.214 504.426 267.945 504.104 267.75C503.782 267.555 503.393 267.458 502.936 267.458C502.48 267.458 502.09 267.555 501.769 267.75C501.454 267.945 501.196 268.214 500.994 268.559C500.799 268.895 500.657 269.285 500.567 269.727C500.477 270.161 500.432 270.625 500.432 271.119ZM517.643 274.657V260.057H520.9V277.307H517.969L517.643 274.657ZM509.961 271.377V271.142C509.961 270.213 510.066 269.371 510.276 268.615C510.485 267.851 510.792 267.196 511.197 266.649C511.601 266.103 512.099 265.68 512.69 265.38C513.282 265.081 513.956 264.931 514.712 264.931C515.423 264.931 516.045 265.081 516.576 265.38C517.115 265.68 517.572 266.107 517.946 266.661C518.328 267.207 518.635 267.855 518.867 268.603C519.099 269.345 519.268 270.157 519.372 271.04V271.557C519.268 272.403 519.099 273.189 518.867 273.915C518.635 274.642 518.328 275.278 517.946 275.825C517.572 276.364 517.115 276.783 516.576 277.082C516.037 277.382 515.408 277.532 514.689 277.532C513.933 277.532 513.259 277.378 512.668 277.071C512.084 276.764 511.59 276.334 511.185 275.78C510.789 275.226 510.485 274.574 510.276 273.826C510.066 273.077 509.961 272.261 509.961 271.377ZM513.196 271.142V271.377C513.196 271.879 513.233 272.347 513.308 272.781C513.39 273.215 513.521 273.601 513.701 273.938C513.888 274.267 514.128 274.526 514.42 274.713C514.719 274.893 515.082 274.982 515.509 274.982C516.063 274.982 516.52 274.859 516.879 274.612C517.239 274.357 517.512 274.009 517.699 273.567C517.894 273.126 518.006 272.616 518.036 272.04V270.569C518.014 270.097 517.946 269.674 517.834 269.3C517.729 268.918 517.572 268.592 517.362 268.323C517.16 268.053 516.906 267.844 516.599 267.694C516.299 267.544 515.943 267.469 515.532 267.469C515.112 267.469 514.753 267.567 514.454 267.761C514.154 267.948 513.911 268.207 513.724 268.536C513.544 268.865 513.409 269.255 513.319 269.704C513.237 270.146 513.196 270.625 513.196 271.142ZM528.789 277.532C527.846 277.532 527 277.382 526.251 277.082C525.503 276.775 524.866 276.352 524.342 275.813C523.826 275.274 523.429 274.649 523.152 273.938C522.875 273.219 522.736 272.456 522.736 271.647V271.198C522.736 270.277 522.867 269.435 523.129 268.671C523.391 267.907 523.766 267.245 524.252 266.683C524.746 266.122 525.345 265.691 526.049 265.392C526.753 265.085 527.547 264.931 528.43 264.931C529.291 264.931 530.055 265.073 530.721 265.358C531.387 265.642 531.945 266.047 532.394 266.571C532.851 267.095 533.196 267.724 533.428 268.457C533.66 269.184 533.776 269.992 533.776 270.883V272.231H524.118V270.075H530.598V269.828C530.598 269.378 530.515 268.978 530.35 268.626C530.193 268.267 529.954 267.982 529.632 267.772C529.31 267.563 528.898 267.458 528.396 267.458C527.97 267.458 527.603 267.552 527.296 267.739C526.989 267.926 526.738 268.188 526.543 268.525C526.356 268.862 526.214 269.259 526.117 269.715C526.027 270.164 525.982 270.659 525.982 271.198V271.647C525.982 272.134 526.049 272.583 526.184 272.995C526.326 273.406 526.525 273.762 526.779 274.061C527.041 274.361 527.356 274.593 527.723 274.758C528.097 274.922 528.52 275.005 528.992 275.005C529.576 275.005 530.118 274.893 530.62 274.668C531.129 274.436 531.567 274.088 531.934 273.623L533.506 275.331C533.252 275.697 532.904 276.049 532.462 276.386C532.028 276.723 531.503 277 530.89 277.217C530.276 277.427 529.576 277.532 528.789 277.532Z" fill="#65728A"/>
<path d="M93.3368 274.483H86.8691V306.102H93.3368V274.483Z" fill="#F5516C"/>
<path d="M105.188 274.483H98.7207V306.102H105.188V274.483Z" fill="#F5516C"/>
<path d="M81.3896 274.483H74.9219V306.102H81.3896V274.483Z" fill="#F5516C"/>
<path d="M128.988 274.483H122.521V306.102H128.988V274.483Z" fill="#F5516C"/>
<path d="M117.054 274.483H110.586V306.102H117.054V274.483Z" fill="#F5516C"/>
<path fill-rule="evenodd" clip-rule="evenodd" d="M66.4593 268.367L101.939 253.558L137.329 268.367H137.334V272.451H66.459V268.367V268.367H66.4593Z" fill="#F5516C"/>
<path d="M136.076 308.332H67.8057V313.558H136.076V308.332Z" fill="#F5516C"/>
<path d="M48.2324 239.373H44.5801L44.5605 237.361H47.627C48.1673 237.361 48.61 237.293 48.9551 237.156C49.3001 237.013 49.5573 236.808 49.7266 236.541C49.9023 236.267 49.9902 235.935 49.9902 235.545C49.9902 235.102 49.9056 234.744 49.7363 234.471C49.5736 234.197 49.3164 233.999 48.9648 233.875C48.6198 233.751 48.1738 233.689 47.627 233.689H45.5957V245.613H42.666V231.394H47.627C48.4538 231.394 49.1927 231.473 49.8438 231.629C50.5013 231.785 51.0579 232.023 51.5137 232.342C51.9694 232.661 52.3177 233.064 52.5586 233.553C52.7995 234.034 52.9199 234.607 52.9199 235.271C52.9199 235.857 52.7865 236.398 52.5195 236.892C52.2591 237.387 51.8457 237.791 51.2793 238.103C50.7194 238.416 49.987 238.588 49.082 238.621L48.2324 239.373ZM48.1055 245.613H43.7793L44.9219 243.328H48.1055C48.6198 243.328 49.0397 243.247 49.3652 243.084C49.6908 242.915 49.9316 242.687 50.0879 242.4C50.2441 242.114 50.3223 241.785 50.3223 241.414C50.3223 240.997 50.2507 240.636 50.1074 240.33C49.9707 240.024 49.7493 239.79 49.4434 239.627C49.1374 239.458 48.7337 239.373 48.2324 239.373H45.4102L45.4297 237.361H48.9453L49.6191 238.152C50.485 238.139 51.1816 238.292 51.709 238.611C52.2428 238.924 52.6302 239.331 52.8711 239.832C53.1185 240.333 53.2422 240.87 53.2422 241.443C53.2422 242.355 53.0436 243.123 52.6465 243.748C52.2493 244.366 51.6667 244.832 50.8984 245.144C50.1367 245.457 49.2057 245.613 48.1055 245.613ZM61.2207 233.826L57.3535 245.613H54.2383L59.5215 231.394H61.5039L61.2207 233.826ZM64.4336 245.613L60.5566 233.826L60.2441 231.394H62.2461L67.5586 245.613H64.4336ZM64.2578 240.32V242.615H56.748V240.32H64.2578ZM80.4492 231.394V245.613H77.5195L71.8066 236.082V245.613H68.877V231.394H71.8066L77.5293 240.935V231.394H80.4492ZM85.9277 231.394V245.613H82.998V231.394H85.9277ZM94.4434 231.394L88.8086 238.416L85.5566 241.912L85.0293 239.139L87.2266 236.131L90.8496 231.394H94.4434ZM91.1133 245.613L86.9238 239.041L89.0918 237.224L94.5801 245.613H91.1133ZM98.6426 231.394V245.613H95.7129V231.394H98.6426ZM107.158 231.394L101.523 238.416L98.2715 241.912L97.7441 239.139L99.9414 236.131L103.564 231.394H107.158ZM103.828 245.613L99.6387 239.041L101.807 237.224L107.295 245.613H103.828ZM119.795 238.172V238.846C119.795 239.926 119.648 240.896 119.355 241.756C119.062 242.615 118.649 243.348 118.115 243.953C117.581 244.552 116.943 245.011 116.201 245.33C115.465 245.649 114.648 245.808 113.75 245.808C112.858 245.808 112.041 245.649 111.299 245.33C110.563 245.011 109.925 244.552 109.385 243.953C108.844 243.348 108.424 242.615 108.125 241.756C107.832 240.896 107.686 239.926 107.686 238.846V238.172C107.686 237.085 107.832 236.114 108.125 235.262C108.418 234.402 108.831 233.67 109.365 233.064C109.906 232.459 110.544 231.997 111.279 231.678C112.021 231.359 112.839 231.199 113.73 231.199C114.629 231.199 115.446 231.359 116.182 231.678C116.924 231.997 117.562 232.459 118.096 233.064C118.636 233.67 119.053 234.402 119.346 235.262C119.645 236.114 119.795 237.085 119.795 238.172ZM116.836 238.846V238.152C116.836 237.397 116.768 236.733 116.631 236.16C116.494 235.587 116.292 235.105 116.025 234.715C115.758 234.324 115.433 234.031 115.049 233.836C114.665 233.634 114.225 233.533 113.73 233.533C113.236 233.533 112.796 233.634 112.412 233.836C112.035 234.031 111.712 234.324 111.445 234.715C111.185 235.105 110.986 235.587 110.85 236.16C110.713 236.733 110.645 237.397 110.645 238.152V238.846C110.645 239.594 110.713 240.258 110.85 240.838C110.986 241.411 111.188 241.896 111.455 242.293C111.722 242.683 112.048 242.98 112.432 243.182C112.816 243.383 113.255 243.484 113.75 243.484C114.245 243.484 114.684 243.383 115.068 243.182C115.452 242.98 115.775 242.683 116.035 242.293C116.296 241.896 116.494 241.411 116.631 240.838C116.768 240.258 116.836 239.594 116.836 238.846ZM133.477 231.394V245.613H130.547L124.834 236.082V245.613H121.904V231.394H124.834L130.557 240.935V231.394H133.477ZM142.09 231.394V245.613H139.17V231.394H142.09ZM146.465 231.394V233.689H134.863V231.394H146.465ZM159.541 238.172V238.846C159.541 239.926 159.395 240.896 159.102 241.756C158.809 242.615 158.395 243.348 157.861 243.953C157.327 244.552 156.689 245.011 155.947 245.33C155.212 245.649 154.395 245.808 153.496 245.808C152.604 245.808 151.787 245.649 151.045 245.33C150.309 245.011 149.671 244.552 149.131 243.953C148.59 243.348 148.171 242.615 147.871 241.756C147.578 240.896 147.432 239.926 147.432 238.846V238.172C147.432 237.085 147.578 236.114 147.871 235.262C148.164 234.402 148.577 233.67 149.111 233.064C149.652 232.459 150.29 231.997 151.025 231.678C151.768 231.359 152.585 231.199 153.477 231.199C154.375 231.199 155.192 231.359 155.928 231.678C156.67 231.997 157.308 232.459 157.842 233.064C158.382 233.67 158.799 234.402 159.092 235.262C159.391 236.114 159.541 237.085 159.541 238.172ZM156.582 238.846V238.152C156.582 237.397 156.514 236.733 156.377 236.16C156.24 235.587 156.038 235.105 155.771 234.715C155.505 234.324 155.179 234.031 154.795 233.836C154.411 233.634 153.971 233.533 153.477 233.533C152.982 233.533 152.542 233.634 152.158 233.836C151.781 234.031 151.458 234.324 151.191 234.715C150.931 235.105 150.732 235.587 150.596 236.16C150.459 236.733 150.391 237.397 150.391 238.152V238.846C150.391 239.594 150.459 240.258 150.596 240.838C150.732 241.411 150.934 241.896 151.201 242.293C151.468 242.683 151.794 242.98 152.178 243.182C152.562 243.383 153.001 243.484 153.496 243.484C153.991 243.484 154.43 243.383 154.814 243.182C155.199 242.98 155.521 242.683 155.781 242.293C156.042 241.896 156.24 241.411 156.377 240.838C156.514 240.258 156.582 239.594 156.582 238.846Z" fill="#0A355C"/>
<path d="M305.826 70.8857H302.266L302.289 68.2578H305.826C306.71 68.2578 307.455 68.0594 308.061 67.6626C308.667 67.2583 309.124 66.6706 309.431 65.8994C309.746 65.1283 309.903 64.1961 309.903 63.103V62.3057C309.903 61.4671 309.813 60.7297 309.633 60.0933C309.461 59.4569 309.203 58.9215 308.858 58.4873C308.514 58.0531 308.091 57.7274 307.589 57.5103C307.088 57.2856 306.511 57.1733 305.86 57.1733H302.199V54.5342H305.86C306.953 54.5342 307.952 54.7214 308.858 55.0957C309.772 55.4626 310.562 55.9904 311.228 56.6792C311.894 57.368 312.407 58.1916 312.767 59.1499C313.133 60.1007 313.317 61.1602 313.317 62.3281V63.103C313.317 64.2635 313.133 65.3229 312.767 66.2812C312.407 67.2396 311.894 68.0632 311.228 68.752C310.569 69.4333 309.779 69.9611 308.858 70.3354C307.945 70.7023 306.934 70.8857 305.826 70.8857ZM304.175 54.5342V70.8857H300.806V54.5342H304.175ZM321.156 71.1104C320.212 71.1104 319.366 70.9606 318.618 70.6611C317.869 70.3542 317.233 69.9312 316.708 69.3921C316.192 68.853 315.795 68.2279 315.518 67.5166C315.241 66.7979 315.103 66.0342 315.103 65.2256V64.7764C315.103 63.8555 315.234 63.0132 315.496 62.2495C315.758 61.4858 316.132 60.8232 316.619 60.2617C317.113 59.7002 317.712 59.2697 318.416 58.9702C319.119 58.6632 319.913 58.5098 320.796 58.5098C321.657 58.5098 322.421 58.652 323.087 58.9365C323.754 59.221 324.312 59.6253 324.761 60.1494C325.217 60.6735 325.562 61.3024 325.794 62.0361C326.026 62.7624 326.142 63.571 326.142 64.4619V65.8096H316.484V63.6533H322.964V63.4062C322.964 62.957 322.882 62.5565 322.717 62.2046C322.56 61.8452 322.32 61.5607 321.998 61.3511C321.676 61.1414 321.264 61.0366 320.763 61.0366C320.336 61.0366 319.969 61.1302 319.662 61.3174C319.355 61.5046 319.104 61.7666 318.91 62.1035C318.722 62.4404 318.58 62.8372 318.483 63.2939C318.393 63.7432 318.348 64.2373 318.348 64.7764V65.2256C318.348 65.7122 318.416 66.1615 318.55 66.5732C318.693 66.985 318.891 67.3407 319.146 67.6401C319.408 67.9396 319.722 68.1717 320.089 68.3364C320.463 68.5011 320.886 68.5835 321.358 68.5835C321.942 68.5835 322.485 68.4712 322.986 68.2466C323.495 68.0145 323.933 67.6663 324.3 67.2021L325.873 68.9092C325.618 69.276 325.27 69.6279 324.828 69.9648C324.394 70.3018 323.87 70.5788 323.256 70.7959C322.642 71.0055 321.942 71.1104 321.156 71.1104ZM331.218 61.0703V75.5576H327.984V58.7344H330.982L331.218 61.0703ZM338.911 64.6753V64.9111C338.911 65.7946 338.806 66.6144 338.597 67.3706C338.395 68.1268 338.095 68.7856 337.698 69.3472C337.301 69.9012 336.807 70.3354 336.216 70.6499C335.632 70.9569 334.958 71.1104 334.194 71.1104C333.453 71.1104 332.809 70.9606 332.263 70.6611C331.716 70.3617 331.256 69.9424 330.881 69.4033C330.514 68.8568 330.219 68.2241 329.994 67.5054C329.77 66.7866 329.597 66.0155 329.478 65.1919V64.5742C329.597 63.6908 329.77 62.8822 329.994 62.1484C330.219 61.4072 330.514 60.7671 330.881 60.228C331.256 59.6815 331.712 59.2585 332.251 58.959C332.798 58.6595 333.438 58.5098 334.172 58.5098C334.943 58.5098 335.621 58.6558 336.205 58.9478C336.796 59.2397 337.29 59.659 337.687 60.2056C338.091 60.7521 338.395 61.4035 338.597 62.1597C338.806 62.9159 338.911 63.7544 338.911 64.6753ZM335.666 64.9111V64.6753C335.666 64.1587 335.621 63.6833 335.531 63.249C335.448 62.8073 335.314 62.4217 335.126 62.0923C334.947 61.7629 334.707 61.5083 334.408 61.3286C334.116 61.1414 333.76 61.0479 333.341 61.0479C332.899 61.0479 332.521 61.119 332.207 61.2612C331.9 61.4035 331.649 61.6094 331.454 61.8789C331.259 62.1484 331.113 62.4704 331.016 62.8447C330.919 63.2191 330.859 63.6421 330.836 64.1138V65.6748C330.874 66.2288 330.979 66.7267 331.151 67.1685C331.323 67.6027 331.589 67.9471 331.948 68.2017C332.308 68.4562 332.779 68.5835 333.363 68.5835C333.79 68.5835 334.149 68.4899 334.441 68.3027C334.733 68.1081 334.969 67.8423 335.149 67.5054C335.336 67.1685 335.467 66.7791 335.542 66.3374C335.624 65.8957 335.666 65.4202 335.666 64.9111ZM340.405 64.9336V64.6978C340.405 63.8068 340.532 62.987 340.787 62.2383C341.041 61.4821 341.412 60.827 341.898 60.2729C342.385 59.7189 342.984 59.2884 343.695 58.9814C344.407 58.667 345.223 58.5098 346.144 58.5098C347.064 58.5098 347.884 58.667 348.603 58.9814C349.322 59.2884 349.924 59.7189 350.411 60.2729C350.905 60.827 351.28 61.4821 351.534 62.2383C351.789 62.987 351.916 63.8068 351.916 64.6978V64.9336C351.916 65.8171 351.789 66.6369 351.534 67.3931C351.28 68.1418 350.905 68.7969 350.411 69.3584C349.924 69.9124 349.326 70.3429 348.614 70.6499C347.903 70.9569 347.087 71.1104 346.166 71.1104C345.245 71.1104 344.425 70.9569 343.707 70.6499C342.995 70.3429 342.393 69.9124 341.898 69.3584C341.412 68.7969 341.041 68.1418 340.787 67.3931C340.532 66.6369 340.405 65.8171 340.405 64.9336ZM343.639 64.6978V64.9336C343.639 65.4427 343.684 65.9181 343.774 66.3599C343.864 66.8016 344.006 67.1909 344.201 67.5278C344.403 67.8573 344.665 68.1156 344.987 68.3027C345.309 68.4899 345.702 68.5835 346.166 68.5835C346.615 68.5835 347.001 68.4899 347.323 68.3027C347.645 68.1156 347.903 67.8573 348.098 67.5278C348.292 67.1909 348.435 66.8016 348.524 66.3599C348.622 65.9181 348.67 65.4427 348.67 64.9336V64.6978C348.67 64.2036 348.622 63.7394 348.524 63.3052C348.435 62.8634 348.289 62.4741 348.086 62.1372C347.892 61.7928 347.633 61.5233 347.312 61.3286C346.99 61.134 346.6 61.0366 346.144 61.0366C345.687 61.0366 345.298 61.134 344.976 61.3286C344.661 61.5233 344.403 61.7928 344.201 62.1372C344.006 62.4741 343.864 62.8634 343.774 63.3052C343.684 63.7394 343.639 64.2036 343.639 64.6978ZM360.474 67.5278C360.474 67.2957 360.406 67.0861 360.271 66.8989C360.137 66.7118 359.886 66.5396 359.519 66.3823C359.16 66.2176 358.639 66.0679 357.958 65.9331C357.344 65.7983 356.771 65.6299 356.24 65.4277C355.716 65.2181 355.259 64.9673 354.87 64.6753C354.488 64.3833 354.188 64.0389 353.971 63.6421C353.754 63.2378 353.646 62.7773 353.646 62.2607C353.646 61.7516 353.754 61.2725 353.971 60.8232C354.196 60.374 354.514 59.9772 354.926 59.6328C355.345 59.2809 355.854 59.0076 356.453 58.813C357.06 58.6108 357.741 58.5098 358.497 58.5098C359.553 58.5098 360.459 58.6782 361.215 59.0151C361.979 59.3521 362.562 59.8162 362.967 60.4077C363.379 60.9917 363.584 61.658 363.584 62.4067H360.35C360.35 62.0923 360.283 61.8115 360.148 61.5645C360.021 61.3099 359.819 61.1115 359.542 60.9692C359.272 60.8195 358.92 60.7446 358.486 60.7446C358.126 60.7446 357.816 60.8083 357.554 60.9355C357.292 61.0553 357.09 61.2201 356.947 61.4297C356.812 61.6318 356.745 61.8564 356.745 62.1035C356.745 62.2907 356.783 62.4591 356.857 62.6089C356.94 62.7511 357.071 62.8822 357.25 63.002C357.43 63.1217 357.662 63.234 357.947 63.3389C358.239 63.4362 358.598 63.526 359.025 63.6084C359.901 63.7881 360.683 64.0239 361.372 64.3159C362.061 64.6004 362.607 64.9897 363.012 65.4839C363.416 65.9705 363.618 66.6107 363.618 67.4043C363.618 67.9434 363.498 68.4375 363.259 68.8867C363.019 69.3359 362.675 69.729 362.226 70.0659C361.776 70.3953 361.237 70.6536 360.608 70.8408C359.987 71.0205 359.287 71.1104 358.508 71.1104C357.378 71.1104 356.419 70.9082 355.633 70.5039C354.855 70.0996 354.263 69.5868 353.859 68.9653C353.462 68.3364 353.264 67.6925 353.264 67.0337H356.33C356.345 67.4754 356.457 67.8311 356.667 68.1006C356.884 68.3701 357.157 68.5648 357.486 68.6846C357.823 68.8044 358.186 68.8643 358.576 68.8643C358.995 68.8643 359.343 68.8081 359.62 68.6958C359.897 68.576 360.107 68.4188 360.249 68.2241C360.399 68.022 360.474 67.7899 360.474 67.5278ZM369.132 58.7344V70.8857H365.887V58.7344H369.132ZM365.685 55.5674C365.685 55.0957 365.849 54.7064 366.179 54.3994C366.508 54.0924 366.95 53.939 367.504 53.939C368.05 53.939 368.488 54.0924 368.818 54.3994C369.155 54.7064 369.323 55.0957 369.323 55.5674C369.323 56.0391 369.155 56.4284 368.818 56.7354C368.488 57.0423 368.05 57.1958 367.504 57.1958C366.95 57.1958 366.508 57.0423 366.179 56.7354C365.849 56.4284 365.685 56.0391 365.685 55.5674ZM377.757 58.7344V61.0254H370.682V58.7344H377.757ZM372.434 55.7358H375.668V67.2246C375.668 67.5765 375.713 67.846 375.803 68.0332C375.901 68.2204 376.043 68.3514 376.23 68.4263C376.417 68.4937 376.653 68.5273 376.938 68.5273C377.14 68.5273 377.319 68.5199 377.477 68.5049C377.641 68.4824 377.78 68.46 377.892 68.4375L377.903 70.8184C377.626 70.9082 377.327 70.9793 377.005 71.0317C376.683 71.0841 376.327 71.1104 375.938 71.1104C375.227 71.1104 374.605 70.9943 374.074 70.7622C373.55 70.5226 373.145 70.1408 372.861 69.6167C372.576 69.0926 372.434 68.4038 372.434 67.5503V55.7358ZM304.411 84.3306L299.964 97.8857H296.381L302.457 81.5342H304.737L304.411 84.3306ZM308.106 97.8857L303.647 84.3306L303.288 81.5342H305.59L311.7 97.8857H308.106ZM307.904 91.7988V94.438H299.268V91.7988H307.904ZM320.19 95.2354V80.6357H323.447V97.8857H320.516L320.19 95.2354ZM312.508 91.9561V91.7202C312.508 90.7918 312.613 89.9495 312.823 89.1934C313.032 88.4297 313.339 87.7746 313.744 87.228C314.148 86.6815 314.646 86.2585 315.237 85.959C315.829 85.6595 316.503 85.5098 317.259 85.5098C317.97 85.5098 318.591 85.6595 319.123 85.959C319.662 86.2585 320.119 86.6852 320.493 87.2393C320.875 87.7858 321.182 88.4334 321.414 89.1821C321.646 89.9233 321.815 90.7357 321.919 91.6191V92.1357C321.815 92.9818 321.646 93.7679 321.414 94.4941C321.182 95.2204 320.875 95.8568 320.493 96.4033C320.119 96.9424 319.662 97.3617 319.123 97.6611C318.584 97.9606 317.955 98.1104 317.236 98.1104C316.48 98.1104 315.806 97.9569 315.215 97.6499C314.631 97.3429 314.137 96.9124 313.732 96.3584C313.336 95.8044 313.032 95.153 312.823 94.4043C312.613 93.6556 312.508 92.8395 312.508 91.9561ZM315.743 91.7202V91.9561C315.743 92.4577 315.78 92.9256 315.855 93.3599C315.937 93.7941 316.068 94.1797 316.248 94.5166C316.435 94.846 316.675 95.1043 316.967 95.2915C317.266 95.4712 317.629 95.561 318.056 95.561C318.61 95.561 319.067 95.4375 319.426 95.1904C319.786 94.9359 320.059 94.5877 320.246 94.146C320.441 93.7043 320.553 93.1951 320.583 92.6187V91.1475C320.561 90.6758 320.493 90.2528 320.381 89.8784C320.276 89.4966 320.119 89.1709 319.909 88.9014C319.707 88.6318 319.452 88.4222 319.146 88.2725C318.846 88.1227 318.49 88.0479 318.079 88.0479C317.659 88.0479 317.3 88.1452 317 88.3398C316.701 88.527 316.458 88.7853 316.271 89.1147C316.091 89.4442 315.956 89.8335 315.866 90.2827C315.784 90.7244 315.743 91.2036 315.743 91.7202ZM329.208 88.3848V97.8857H325.974V85.7344H329.017L329.208 88.3848ZM332.869 85.6558L332.813 88.6543C332.656 88.6318 332.465 88.6131 332.24 88.5981C332.023 88.5757 331.825 88.5645 331.645 88.5645C331.188 88.5645 330.792 88.6243 330.455 88.7441C330.125 88.8564 329.848 89.0249 329.624 89.2495C329.406 89.4741 329.242 89.7474 329.129 90.0693C329.025 90.3913 328.965 90.7581 328.95 91.1699L328.298 90.9678C328.298 90.1816 328.377 89.4591 328.534 88.8003C328.691 88.134 328.92 87.5537 329.219 87.0596C329.526 86.5654 329.901 86.1836 330.342 85.9141C330.784 85.6445 331.289 85.5098 331.858 85.5098C332.038 85.5098 332.222 85.5247 332.409 85.5547C332.596 85.5771 332.749 85.6108 332.869 85.6558ZM339.765 98.1104C338.821 98.1104 337.975 97.9606 337.227 97.6611C336.478 97.3542 335.841 96.9312 335.317 96.3921C334.801 95.853 334.404 95.2279 334.127 94.5166C333.85 93.7979 333.711 93.0342 333.711 92.2256V91.7764C333.711 90.8555 333.842 90.0132 334.104 89.2495C334.367 88.4858 334.741 87.8232 335.228 87.2617C335.722 86.7002 336.321 86.2697 337.024 85.9702C337.728 85.6632 338.522 85.5098 339.405 85.5098C340.266 85.5098 341.03 85.652 341.696 85.9365C342.363 86.221 342.92 86.6253 343.37 87.1494C343.826 87.6735 344.171 88.3024 344.403 89.0361C344.635 89.7624 344.751 90.571 344.751 91.4619V92.8096H335.093V90.6533H341.573V90.4062C341.573 89.957 341.49 89.5565 341.326 89.2046C341.168 88.8452 340.929 88.5607 340.607 88.3511C340.285 88.1414 339.873 88.0366 339.372 88.0366C338.945 88.0366 338.578 88.1302 338.271 88.3174C337.964 88.5046 337.713 88.7666 337.519 89.1035C337.331 89.4404 337.189 89.8372 337.092 90.2939C337.002 90.7432 336.957 91.2373 336.957 91.7764V92.2256C336.957 92.7122 337.024 93.1615 337.159 93.5732C337.301 93.985 337.5 94.3407 337.754 94.6401C338.016 94.9396 338.331 95.1717 338.698 95.3364C339.072 95.5011 339.495 95.5835 339.967 95.5835C340.551 95.5835 341.094 95.4712 341.595 95.2466C342.104 95.0145 342.542 94.6663 342.909 94.2021L344.481 95.9092C344.227 96.276 343.879 96.6279 343.437 96.9648C343.003 97.3018 342.479 97.5788 341.865 97.7959C341.251 98.0055 340.551 98.1104 339.765 98.1104ZM353.163 94.5278C353.163 94.2957 353.095 94.0861 352.96 93.8989C352.826 93.7118 352.575 93.5396 352.208 93.3823C351.849 93.2176 351.328 93.0679 350.647 92.9331C350.033 92.7983 349.46 92.6299 348.929 92.4277C348.405 92.2181 347.948 91.9673 347.559 91.6753C347.177 91.3833 346.877 91.0389 346.66 90.6421C346.443 90.2378 346.334 89.7773 346.334 89.2607C346.334 88.7516 346.443 88.2725 346.66 87.8232C346.885 87.374 347.203 86.9772 347.615 86.6328C348.034 86.2809 348.543 86.0076 349.142 85.813C349.749 85.6108 350.43 85.5098 351.186 85.5098C352.242 85.5098 353.148 85.6782 353.904 86.0151C354.667 86.3521 355.251 86.8162 355.656 87.4077C356.068 87.9917 356.273 88.658 356.273 89.4067H353.039C353.039 89.0923 352.972 88.8115 352.837 88.5645C352.71 88.3099 352.507 88.1115 352.23 87.9692C351.961 87.8195 351.609 87.7446 351.175 87.7446C350.815 87.7446 350.505 87.8083 350.243 87.9355C349.981 88.0553 349.778 88.2201 349.636 88.4297C349.501 88.6318 349.434 88.8564 349.434 89.1035C349.434 89.2907 349.472 89.4591 349.546 89.6089C349.629 89.7511 349.76 89.8822 349.939 90.002C350.119 90.1217 350.351 90.234 350.636 90.3389C350.928 90.4362 351.287 90.526 351.714 90.6084C352.59 90.7881 353.372 91.0239 354.061 91.3159C354.75 91.6004 355.296 91.9897 355.701 92.4839C356.105 92.9705 356.307 93.6107 356.307 94.4043C356.307 94.9434 356.187 95.4375 355.948 95.8867C355.708 96.3359 355.364 96.729 354.915 97.0659C354.465 97.3953 353.926 97.6536 353.297 97.8408C352.676 98.0205 351.976 98.1104 351.197 98.1104C350.067 98.1104 349.108 97.9082 348.322 97.5039C347.544 97.0996 346.952 96.5868 346.548 95.9653C346.151 95.3364 345.953 94.6925 345.953 94.0337H349.019C349.034 94.4754 349.146 94.8311 349.355 95.1006C349.573 95.3701 349.846 95.5648 350.175 95.6846C350.512 95.8044 350.875 95.8643 351.265 95.8643C351.684 95.8643 352.032 95.8081 352.309 95.6958C352.586 95.576 352.796 95.4188 352.938 95.2241C353.088 95.022 353.163 94.7899 353.163 94.5278ZM364.977 94.5278C364.977 94.2957 364.91 94.0861 364.775 93.8989C364.64 93.7118 364.389 93.5396 364.022 93.3823C363.663 93.2176 363.143 93.0679 362.461 92.9331C361.847 92.7983 361.275 92.6299 360.743 92.4277C360.219 92.2181 359.762 91.9673 359.373 91.6753C358.991 91.3833 358.692 91.0389 358.475 90.6421C358.257 90.2378 358.149 89.7773 358.149 89.2607C358.149 88.7516 358.257 88.2725 358.475 87.8232C358.699 87.374 359.017 86.9772 359.429 86.6328C359.848 86.2809 360.358 86.0076 360.957 85.813C361.563 85.6108 362.244 85.5098 363 85.5098C364.056 85.5098 364.962 85.6782 365.718 86.0151C366.482 86.3521 367.066 86.8162 367.47 87.4077C367.882 87.9917 368.088 88.658 368.088 89.4067H364.854C364.854 89.0923 364.786 88.8115 364.651 88.5645C364.524 88.3099 364.322 88.1115 364.045 87.9692C363.775 87.8195 363.424 87.7446 362.989 87.7446C362.63 87.7446 362.319 87.8083 362.057 87.9355C361.795 88.0553 361.593 88.2201 361.451 88.4297C361.316 88.6318 361.249 88.8564 361.249 89.1035C361.249 89.2907 361.286 89.4591 361.361 89.6089C361.443 89.7511 361.574 89.8822 361.754 90.002C361.934 90.1217 362.166 90.234 362.45 90.3389C362.742 90.4362 363.102 90.526 363.528 90.6084C364.404 90.7881 365.187 91.0239 365.875 91.3159C366.564 91.6004 367.111 91.9897 367.515 92.4839C367.919 92.9705 368.122 93.6107 368.122 94.4043C368.122 94.9434 368.002 95.4375 367.762 95.8867C367.523 96.3359 367.178 96.729 366.729 97.0659C366.28 97.3953 365.741 97.6536 365.112 97.8408C364.49 98.0205 363.79 98.1104 363.012 98.1104C361.881 98.1104 360.923 97.9082 360.137 97.5039C359.358 97.0996 358.767 96.5868 358.362 95.9653C357.965 95.3364 357.767 94.6925 357.767 94.0337H360.833C360.848 94.4754 360.96 94.8311 361.17 95.1006C361.387 95.3701 361.66 95.5648 361.99 95.6846C362.327 95.8044 362.69 95.8643 363.079 95.8643C363.498 95.8643 363.847 95.8081 364.124 95.6958C364.401 95.576 364.61 95.4188 364.752 95.2241C364.902 95.022 364.977 94.7899 364.977 94.5278ZM375.814 98.1104C374.871 98.1104 374.025 97.9606 373.276 97.6611C372.528 97.3542 371.891 96.9312 371.367 96.3921C370.851 95.853 370.454 95.2279 370.177 94.5166C369.9 93.7979 369.761 93.0342 369.761 92.2256V91.7764C369.761 90.8555 369.892 90.0132 370.154 89.2495C370.416 88.4858 370.791 87.8232 371.277 87.2617C371.771 86.7002 372.37 86.2697 373.074 85.9702C373.778 85.6632 374.572 85.5098 375.455 85.5098C376.316 85.5098 377.08 85.652 377.746 85.9365C378.412 86.221 378.97 86.6253 379.419 87.1494C379.876 87.6735 380.221 88.3024 380.453 89.0361C380.685 89.7624 380.801 90.571 380.801 91.4619V92.8096H371.143V90.6533H377.623V90.4062C377.623 89.957 377.54 89.5565 377.375 89.2046C377.218 88.8452 376.979 88.5607 376.657 88.3511C376.335 88.1414 375.923 88.0366 375.421 88.0366C374.995 88.0366 374.628 88.1302 374.321 88.3174C374.014 88.5046 373.763 88.7666 373.568 89.1035C373.381 89.4404 373.239 89.8372 373.142 90.2939C373.052 90.7432 373.007 91.2373 373.007 91.7764V92.2256C373.007 92.7122 373.074 93.1615 373.209 93.5732C373.351 93.985 373.55 94.3407 373.804 94.6401C374.066 94.9396 374.381 95.1717 374.748 95.3364C375.122 95.5011 375.545 95.5835 376.017 95.5835C376.601 95.5835 377.143 95.4712 377.645 95.2466C378.154 95.0145 378.592 94.6663 378.959 94.2021L380.531 95.9092C380.277 96.276 379.929 96.6279 379.487 96.9648C379.053 97.3018 378.528 97.5788 377.915 97.7959C377.301 98.0055 376.601 98.1104 375.814 98.1104Z" fill="#0A355C"/>
<path d="M481.114 77.0571H476.947V74.4292H481.114C481.758 74.4292 482.282 74.3244 482.686 74.1147C483.09 73.8976 483.386 73.5981 483.573 73.2163C483.76 72.8345 483.854 72.404 483.854 71.9248C483.854 71.4382 483.76 70.9852 483.573 70.5659C483.386 70.1466 483.09 69.8097 482.686 69.5552C482.282 69.3006 481.758 69.1733 481.114 69.1733H478.115V82.8857H474.746V66.5342H481.114C482.394 66.5342 483.491 66.7663 484.404 67.2305C485.325 67.6872 486.029 68.3198 486.516 69.1284C487.002 69.937 487.246 70.8617 487.246 71.9023C487.246 72.958 487.002 73.8714 486.516 74.6426C486.029 75.4137 485.325 76.009 484.404 76.4282C483.491 76.8475 482.394 77.0571 481.114 77.0571ZM488.694 76.9336V76.6978C488.694 75.8068 488.822 74.987 489.076 74.2383C489.331 73.4821 489.701 72.827 490.188 72.2729C490.675 71.7189 491.274 71.2884 491.985 70.9814C492.696 70.667 493.512 70.5098 494.433 70.5098C495.354 70.5098 496.174 70.667 496.893 70.9814C497.611 71.2884 498.214 71.7189 498.701 72.2729C499.195 72.827 499.569 73.4821 499.824 74.2383C500.078 74.987 500.206 75.8068 500.206 76.6978V76.9336C500.206 77.8171 500.078 78.6369 499.824 79.3931C499.569 80.1418 499.195 80.7969 498.701 81.3584C498.214 81.9124 497.615 82.3429 496.904 82.6499C496.193 82.9569 495.376 83.1104 494.456 83.1104C493.535 83.1104 492.715 82.9569 491.996 82.6499C491.285 82.3429 490.682 81.9124 490.188 81.3584C489.701 80.7969 489.331 80.1418 489.076 79.3931C488.822 78.6369 488.694 77.8171 488.694 76.9336ZM491.929 76.6978V76.9336C491.929 77.4427 491.974 77.9181 492.063 78.3599C492.153 78.8016 492.296 79.1909 492.49 79.5278C492.692 79.8573 492.954 80.1156 493.276 80.3027C493.598 80.4899 493.991 80.5835 494.456 80.5835C494.905 80.5835 495.29 80.4899 495.612 80.3027C495.934 80.1156 496.193 79.8573 496.387 79.5278C496.582 79.1909 496.724 78.8016 496.814 78.3599C496.911 77.9181 496.96 77.4427 496.96 76.9336V76.6978C496.96 76.2036 496.911 75.7394 496.814 75.3052C496.724 74.8634 496.578 74.4741 496.376 74.1372C496.181 73.7928 495.923 73.5233 495.601 73.3286C495.279 73.134 494.89 73.0366 494.433 73.0366C493.976 73.0366 493.587 73.134 493.265 73.3286C492.951 73.5233 492.692 73.7928 492.49 74.1372C492.296 74.4741 492.153 74.8634 492.063 75.3052C491.974 75.7394 491.929 76.2036 491.929 76.6978ZM501.677 76.9336V76.6978C501.677 75.8068 501.804 74.987 502.059 74.2383C502.313 73.4821 502.684 72.827 503.17 72.2729C503.657 71.7189 504.256 71.2884 504.967 70.9814C505.679 70.667 506.495 70.5098 507.416 70.5098C508.336 70.5098 509.156 70.667 509.875 70.9814C510.594 71.2884 511.196 71.7189 511.683 72.2729C512.177 72.827 512.552 73.4821 512.806 74.2383C513.061 74.987 513.188 75.8068 513.188 76.6978V76.9336C513.188 77.8171 513.061 78.6369 512.806 79.3931C512.552 80.1418 512.177 80.7969 511.683 81.3584C511.196 81.9124 510.597 82.3429 509.886 82.6499C509.175 82.9569 508.359 83.1104 507.438 83.1104C506.517 83.1104 505.697 82.9569 504.979 82.6499C504.267 82.3429 503.665 81.9124 503.17 81.3584C502.684 80.7969 502.313 80.1418 502.059 79.3931C501.804 78.6369 501.677 77.8171 501.677 76.9336ZM504.911 76.6978V76.9336C504.911 77.4427 504.956 77.9181 505.046 78.3599C505.136 78.8016 505.278 79.1909 505.473 79.5278C505.675 79.8573 505.937 80.1156 506.259 80.3027C506.581 80.4899 506.974 80.5835 507.438 80.5835C507.887 80.5835 508.273 80.4899 508.595 80.3027C508.917 80.1156 509.175 79.8573 509.37 79.5278C509.564 79.1909 509.707 78.8016 509.796 78.3599C509.894 77.9181 509.942 77.4427 509.942 76.9336V76.6978C509.942 76.2036 509.894 75.7394 509.796 75.3052C509.707 74.8634 509.561 74.4741 509.358 74.1372C509.164 73.7928 508.905 73.5233 508.583 73.3286C508.262 73.134 507.872 73.0366 507.416 73.0366C506.959 73.0366 506.569 73.134 506.248 73.3286C505.933 73.5233 505.675 73.7928 505.473 74.1372C505.278 74.4741 505.136 74.8634 505.046 75.3052C504.956 75.7394 504.911 76.2036 504.911 76.6978ZM518.59 65.6357V82.8857H515.344V65.6357H518.59Z" fill="#65728A"/>
<path d="M55.166 349.461H60.4688C61.556 349.461 62.4902 349.624 63.2715 349.949C64.0592 350.275 64.6647 350.757 65.0879 351.395C65.5111 352.033 65.7227 352.817 65.7227 353.748C65.7227 354.51 65.5924 355.164 65.332 355.711C65.0781 356.251 64.7168 356.704 64.248 357.068C63.7858 357.426 63.2422 357.713 62.6172 357.928L61.6895 358.416H57.0801L57.0605 356.131H60.4883C61.0026 356.131 61.429 356.04 61.7676 355.857C62.1061 355.675 62.36 355.421 62.5293 355.096C62.7051 354.77 62.793 354.393 62.793 353.963C62.793 353.507 62.7083 353.113 62.5391 352.781C62.3698 352.449 62.1126 352.195 61.7676 352.02C61.4225 351.844 60.9896 351.756 60.4688 351.756H58.0957V363.68H55.166V349.461ZM63.1152 363.68L59.873 357.342L62.9688 357.322L66.25 363.543V363.68H63.1152ZM77.5195 361.395V363.68H69.9512V361.395H77.5195ZM70.9082 349.461V363.68H67.9785V349.461H70.9082ZM76.5332 355.252V357.479H69.9512V355.252H76.5332ZM77.5098 349.461V351.756H69.9512V349.461H77.5098ZM82.3438 349.461V363.68H79.4238V349.461H82.3438ZM96.6602 349.461V363.68H93.7305L88.0176 354.148V363.68H85.0879V349.461H88.0176L93.7402 359.002V349.461H96.6602ZM104.336 360.711L107.686 349.461H110.947L105.996 363.68H103.848L104.336 360.711ZM101.25 349.461L104.59 360.711L105.098 363.68H102.93L98.0078 349.461H101.25ZM121.816 361.395V363.68H114.248V361.395H121.816ZM115.205 349.461V363.68H112.275V349.461H115.205ZM120.83 355.252V357.479H114.248V355.252H120.83ZM121.807 349.461V351.756H114.248V349.461H121.807ZM130.928 359.959C130.928 359.705 130.889 359.477 130.811 359.275C130.739 359.067 130.602 358.878 130.4 358.709C130.199 358.533 129.915 358.361 129.551 358.191C129.186 358.022 128.714 357.846 128.135 357.664C127.49 357.456 126.878 357.221 126.299 356.961C125.726 356.701 125.218 356.398 124.775 356.053C124.339 355.701 123.994 355.294 123.74 354.832C123.493 354.37 123.369 353.833 123.369 353.221C123.369 352.628 123.499 352.091 123.76 351.609C124.02 351.121 124.385 350.704 124.854 350.359C125.322 350.008 125.876 349.738 126.514 349.549C127.158 349.36 127.865 349.266 128.633 349.266C129.681 349.266 130.596 349.454 131.377 349.832C132.158 350.21 132.764 350.727 133.193 351.385C133.63 352.042 133.848 352.794 133.848 353.641H130.938C130.938 353.224 130.85 352.859 130.674 352.547C130.505 352.228 130.244 351.977 129.893 351.795C129.548 351.613 129.111 351.521 128.584 351.521C128.076 351.521 127.653 351.6 127.314 351.756C126.976 351.906 126.722 352.111 126.553 352.371C126.383 352.625 126.299 352.911 126.299 353.23C126.299 353.471 126.357 353.689 126.475 353.885C126.598 354.08 126.781 354.262 127.021 354.432C127.262 354.601 127.559 354.76 127.91 354.91C128.262 355.06 128.669 355.206 129.131 355.35C129.906 355.584 130.586 355.848 131.172 356.141C131.764 356.434 132.259 356.762 132.656 357.127C133.053 357.492 133.353 357.905 133.555 358.367C133.757 358.829 133.857 359.354 133.857 359.939C133.857 360.558 133.737 361.111 133.496 361.6C133.255 362.088 132.907 362.501 132.451 362.84C131.995 363.178 131.452 363.436 130.82 363.611C130.189 363.787 129.482 363.875 128.701 363.875C127.998 363.875 127.305 363.784 126.621 363.602C125.938 363.413 125.316 363.13 124.756 362.752C124.202 362.374 123.76 361.893 123.428 361.307C123.096 360.721 122.93 360.027 122.93 359.227H125.869C125.869 359.669 125.938 360.044 126.074 360.35C126.211 360.656 126.403 360.903 126.65 361.092C126.904 361.281 127.204 361.417 127.549 361.502C127.9 361.587 128.285 361.629 128.701 361.629C129.209 361.629 129.626 361.557 129.951 361.414C130.283 361.271 130.527 361.072 130.684 360.818C130.846 360.564 130.928 360.278 130.928 359.959ZM142.207 349.461V363.68H139.287V349.461H142.207ZM146.582 349.461V351.756H134.98V349.461H146.582Z" fill="#0A355C"/>
<path d="M128.768 418.539C120.234 433.341 101.157 438.359 86.3478 429.829C71.5384 421.298 66.5182 402.23 75.0525 387.427C83.5867 372.625 102.663 367.607 117.473 376.137C132.156 384.668 137.302 403.736 128.768 418.539Z" fill="#F5516C"/>
<path d="M102.104 382.359V399.741C101.138 398.775 100.31 397.948 99.2056 396.844C99.0675 395.189 98.7915 390.498 98.7915 390.498L101.552 382.221C99.8956 382.221 98.2395 382.497 96.7214 382.911L95.3412 386.912L91.4769 384.98C90.0968 385.808 88.7166 386.774 87.4745 388.015L94.3751 391.464L94.6512 395.603L90.5108 395.327L87.0605 388.429C85.9564 389.671 84.8523 390.912 84.0242 392.43L85.9564 396.292L81.816 397.672C81.402 399.189 81.126 400.845 81.126 402.638L89.4067 400.017L96.0313 400.293L98.7915 403.052L96.0313 405.811L89.4067 406.087L81.126 403.466C81.126 405.121 81.402 406.777 81.816 408.432L85.8184 409.811L83.8862 413.536C84.7143 414.916 85.6804 416.295 86.9225 417.399L90.3728 410.501L94.5132 410.225L94.2371 414.364L87.3365 417.813C88.5786 418.916 89.8208 420.02 91.3389 420.848L95.0652 419.054L96.4453 423.055C97.9635 423.469 99.6196 423.745 101.276 423.745L98.6535 415.605C98.6535 415.605 98.9295 410.915 99.0675 409.26C100.034 408.294 100.862 407.466 101.966 406.363V423.745C113.421 423.745 122.668 414.502 122.668 403.052C122.806 391.602 113.559 382.359 102.104 382.359ZM106.796 418.502C106.796 408.156 106.796 397.948 106.796 387.601C111.765 388.705 118.113 394.223 118.389 402.5C118.665 411.605 111.765 417.399 106.796 418.502Z" fill="#F5F5F5"/>
<path d="M214.904 61.1581C211.462 67.127 203.77 69.1504 197.799 65.7107C191.827 62.271 189.803 54.5822 193.244 48.6133C196.685 42.6445 204.378 40.6211 210.349 44.0608C216.27 47.5005 218.345 55.1892 214.904 61.1581Z" fill="#F5516C"/>
<path d="M218.748 42.9361L218.746 42.9346C212.157 39.1394 203.666 41.3681 199.864 47.9629C196.067 54.5493 198.297 63.0366 204.895 66.8369C211.483 70.6321 219.974 68.4033 223.776 61.8086C227.576 55.2183 225.286 46.7343 218.748 42.9361Z" fill="#F5516C" stroke="#F5F5F5" stroke-width="1.6"/>
<path d="M211.9 46.237V53.5262C211.495 53.1213 211.147 52.7742 210.684 52.3113C210.626 51.6171 210.511 49.6502 210.511 49.6502L211.668 46.1792C210.974 46.1792 210.279 46.2949 209.643 46.4685L209.064 48.1461L207.443 47.3362C206.864 47.6833 206.286 48.0883 205.765 48.6089L208.659 50.0552L208.774 51.7907L207.038 51.675L205.591 48.7825C205.128 49.3031 204.665 49.8238 204.318 50.4601L205.128 52.0799L203.392 52.6584C203.218 53.2948 203.103 53.989 203.103 54.7411L206.575 53.6419L209.353 53.7576L210.511 54.9146L209.353 56.0716L206.575 56.1873L203.103 55.0882C203.103 55.7824 203.218 56.4766 203.392 57.1708L205.07 57.7493L204.26 59.3112C204.607 59.8898 205.012 60.4683 205.533 60.9311L206.98 58.0385L208.717 57.9228L208.601 59.6584L205.707 61.1046C206.228 61.5674 206.749 62.0302 207.385 62.3773L208.948 61.6253L209.527 63.3029C210.163 63.4765 210.858 63.5922 211.552 63.5922L210.453 60.179C210.453 60.179 210.569 58.2121 210.626 57.5179C211.032 57.1129 211.379 56.7658 211.842 56.303V63.5922C216.646 63.5922 220.523 59.7162 220.523 54.9146C220.581 50.113 216.703 46.237 211.9 46.237ZM213.867 61.3939C213.867 57.0551 213.867 52.7741 213.867 48.4354C215.951 48.8982 218.613 51.2122 218.729 54.6832C218.845 58.5013 215.951 60.9311 213.867 61.3939Z" fill="#F5F5F5"/>
<path d="M65.5967 134.718L68.4287 122.755H70.0107L70.3721 124.747L67.3545 136.974H65.6553L65.5967 134.718ZM64.1416 122.755L66.4854 134.718L66.29 136.974H64.3955L61.2412 122.755H64.1416ZM72.8623 134.669L75.1768 122.755H78.0771L74.9326 136.974H73.0381L72.8623 134.669ZM70.8994 122.755L73.751 134.766L73.6729 136.974H71.9736L68.9365 124.737L69.3271 122.755H70.8994ZM85.0205 125.186L81.1533 136.974H78.0381L83.3213 122.755H85.3037L85.0205 125.186ZM88.2334 136.974L84.3564 125.186L84.0439 122.755H86.0459L91.3584 136.974H88.2334ZM88.0576 131.681V133.975H80.5479V131.681H88.0576ZM101.817 134.688V136.974H94.6592V134.688H101.817ZM95.6064 122.755V136.974H92.6768V122.755H95.6064ZM112.638 134.688V136.974H105.479V134.688H112.638ZM106.427 122.755V136.974H103.497V122.755H106.427ZM123.858 134.688V136.974H116.29V134.688H123.858ZM117.247 122.755V136.974H114.317V122.755H117.247ZM122.872 128.546V130.772H116.29V128.546H122.872ZM123.849 122.755V125.05H116.29V122.755H123.849ZM132.12 122.755V136.974H129.2V122.755H132.12ZM136.495 122.755V125.05H124.894V122.755H136.495Z" fill="#0A355C"/>
<path fill-rule="evenodd" clip-rule="evenodd" d="M52.8168 112.886H144.62C147.124 112.886 149.18 110.55 149.18 107.655V90.0751H133.224C126.221 90.0751 120.567 84.4211 120.567 77.418C120.567 70.4148 126.221 64.7609 133.224 64.6966H149.18V47.0661C149.18 44.222 147.124 41.8857 144.62 41.8857H52.8168C50.3128 41.8857 48.2559 44.222 48.2559 47.0661V107.705C48.2559 110.55 50.3128 112.886 52.8168 112.886Z" fill="#F5516C"/>
<path d="M123.867 77.4101C123.867 82.7126 128.148 86.9935 133.451 86.9935H152.91V67.7781L133.451 67.7781C128.148 67.8267 123.867 72.1076 123.867 77.4101Z" fill="#F5516C"/>
<path d="M84.2603 59.675H71.3135V66.8813H82.1839C87.9245 66.8813 92.688 71.6448 92.688 77.3854C92.688 83.126 87.9245 87.8894 82.1839 87.8894H71.3135V95.0957H83.8939C93.7873 95.0957 101.726 87.1566 101.726 77.2632C101.726 67.492 93.9094 59.675 84.2603 59.675Z" fill="white"/>
<path d="M75.3257 68.2258C75.0814 68.2258 74.8371 68.2258 74.4707 68.2258C77.2799 70.1801 79.2342 73.4779 79.2342 77.2642C79.2342 81.0505 77.4021 84.3483 74.4707 86.3026C74.715 86.3026 74.9593 86.3026 75.3257 86.3026C80.3334 86.3026 84.3641 82.2719 84.3641 77.2642C84.3641 72.2564 80.3334 68.2258 75.3257 68.2258Z" fill="white"/>
<path d="M78.0239 77.2638C78.0239 82.6379 73.6268 87.035 68.2527 87.035C62.8785 87.035 58.4814 82.6379 58.4814 77.2638C58.4814 71.8896 62.8785 67.4926 68.2527 67.4926C73.749 67.4926 78.0239 71.8896 78.0239 77.2638Z" fill="white"/>
</svg>
