<svg width="601" height="471" viewBox="0 0 601 471" fill="none" xmlns="http://www.w3.org/2000/svg">
<path d="M518.557 121.706H483.495L449.604 180.34" stroke="#B8C4D8" stroke-width="0.8745" stroke-miterlimit="10"/>
<path d="M178.841 297.606L144.951 356.24M144.951 356.24L178.841 414.873M144.951 356.24H97.3467" stroke="#B8C4D8" stroke-width="0.8745" stroke-miterlimit="10"/>
<path d="M77.0527 121.706H77.2873H144.95L178.84 180.34L144.95 238.973L178.84 297.606H246.503L280.393 356.24H348.056H280.393L246.503 414.873" stroke="#B8C4D8" stroke-width="0.8745" stroke-miterlimit="10"/>
<path d="M178.844 63.0731L144.954 121.706" stroke="#B8C4D8" stroke-width="0.8745" stroke-miterlimit="10"/>
<path d="M483.496 356.24L449.606 297.606H381.943M381.943 297.606L348.053 356.24L381.943 414.873M381.943 297.606L348.053 238.973L381.943 180.34L348.053 121.706M348.053 121.706L381.943 63.0731M348.053 121.706H280.39M280.39 121.706L246.5 180.34M280.39 121.706L253.113 71.8504" stroke="#B8C4D8" stroke-width="0.8745" stroke-miterlimit="10"/>
<path d="M518.563 238.973H483.5L449.61 180.34H381.947L348.057 238.973H247.442" stroke="#F5516C" stroke-width="3.4722" stroke-miterlimit="10"/>
<path d="M348.057 246.126C352.007 246.126 355.21 242.924 355.21 238.973C355.21 235.023 352.007 231.82 348.057 231.82C344.106 231.82 340.903 235.023 340.903 238.973C340.903 242.924 344.106 246.126 348.057 246.126Z" fill="#F5516C"/>
<path d="M381.952 187.493C385.903 187.493 389.105 184.29 389.105 180.34C389.105 176.389 385.903 173.186 381.952 173.186C378.001 173.186 374.799 176.389 374.799 180.34C374.799 184.29 378.001 187.493 381.952 187.493Z" fill="#F5516C"/>
<path d="M449.614 187.493C453.565 187.493 456.767 184.29 456.767 180.34C456.767 176.389 453.565 173.186 449.614 173.186C445.664 173.186 442.461 176.389 442.461 180.34C442.461 184.29 445.664 187.493 449.614 187.493Z" fill="#F5516C"/>
<path d="M352.132 356.24C352.132 358.489 350.308 360.313 348.059 360.313C345.809 360.313 343.985 358.489 343.985 356.24C343.985 353.99 345.809 352.166 348.059 352.166C350.308 352.166 352.132 353.99 352.132 356.24Z" fill="#B8C4D8" stroke="#B8C4D8"/>
<path d="M284.473 121.707C284.473 123.956 282.649 125.78 280.4 125.78C278.15 125.78 276.326 123.956 276.326 121.707C276.326 119.457 278.15 117.633 280.4 117.633C282.649 117.633 284.473 119.457 284.473 121.707Z" fill="#B8C4D8" stroke="#B8C4D8"/>
<path d="M149.019 356.24C149.019 358.489 147.195 360.313 144.945 360.313C142.696 360.313 140.872 358.489 140.872 356.24C140.872 353.99 142.696 352.166 144.945 352.166C147.195 352.166 149.019 353.99 149.019 356.24Z" fill="#B8C4D8" stroke="#B8C4D8"/>
<path d="M149.019 121.707C149.019 123.956 147.195 125.78 144.945 125.78C142.696 125.78 140.872 123.956 140.872 121.707C140.872 119.457 142.696 117.633 144.945 117.633C147.195 117.633 149.019 119.457 149.019 121.707Z" fill="#B8C4D8" stroke="#B8C4D8"/>
<rect x="92.5635" y="159.104" width="207.634" height="161.4" rx="17" fill="#F5F5F5" stroke="#F5516C" stroke-width="4"/>
<path d="M150.458 172.675C138.663 179.43 134.673 194.498 141.438 206.275C148.203 218.052 163.295 222.035 175.09 215.281C186.886 208.526 190.876 193.458 184.111 181.681C177.345 169.904 162.254 165.747 150.458 172.675Z" fill="#F5516C"/>
<path d="M174.867 191.727H163.089V196.403H169.844C169.498 197.962 168.632 199.174 167.246 200.213C166.034 200.906 164.648 201.426 162.916 201.426C159.626 201.426 156.854 199.174 155.815 196.23C155.469 195.537 155.469 194.671 155.469 193.805C155.469 192.939 155.642 192.073 155.815 191.381C156.681 188.263 159.626 186.185 162.916 186.185C164.821 186.185 166.38 186.878 167.766 188.09L171.403 184.453C169.324 182.375 166.38 181.162 163.089 181.162C158.24 181.162 153.91 183.933 151.832 188.09C150.966 189.822 150.446 191.727 150.446 193.805C150.446 195.884 150.966 197.789 151.832 199.521C153.91 203.677 158.067 206.448 163.089 206.448C166.38 206.448 169.324 205.236 171.403 203.331C173.827 201.079 175.213 197.962 175.213 194.152C175.04 193.286 175.04 192.42 174.867 191.727Z" fill="white"/>
<path d="M215.43 252.463C208.651 264.222 193.497 268.208 181.732 261.432C169.968 254.655 165.98 239.508 172.759 227.748C179.539 215.989 194.693 212.003 206.457 218.78C218.122 225.556 222.21 240.704 215.43 252.463Z" fill="#F5516C"/>
<path d="M194.098 225.157V237.714C193.401 237.016 192.802 236.418 192.005 235.621C191.905 234.425 191.706 231.037 191.706 231.037L193.7 225.058C192.503 225.058 191.307 225.257 190.21 225.556L189.213 228.446L186.422 227.051C185.425 227.649 184.428 228.346 183.53 229.243L188.515 231.735L188.715 234.724L185.724 234.525L183.231 229.542C182.434 230.439 181.636 231.336 181.038 232.432L182.434 235.222L179.443 236.219C179.144 237.315 178.944 238.511 178.944 239.807L184.926 237.913L189.712 238.112L191.706 240.105L189.712 242.099L184.926 242.298L178.944 240.404C178.944 241.6 179.144 242.796 179.443 243.992L182.334 244.989L180.938 247.679C181.536 248.676 182.234 249.672 183.132 250.47L185.624 245.487L188.615 245.287L188.416 248.277L183.431 250.768C184.328 251.566 185.225 252.363 186.322 252.961L189.014 251.665L190.011 254.555C191.108 254.854 192.304 255.054 193.5 255.054L191.606 249.174C191.606 249.174 191.805 245.786 191.905 244.59C192.603 243.892 193.201 243.294 193.999 242.497V255.054C202.274 255.054 208.954 248.377 208.954 240.105C209.053 231.834 202.373 225.157 194.098 225.157ZM197.488 251.267C197.488 243.793 197.488 236.418 197.488 228.944C201.077 229.741 205.663 233.728 205.863 239.707C206.062 246.284 201.077 250.47 197.488 251.267Z" fill="white"/>
<path d="M254.578 239.034C254.578 252.302 265.289 263.013 278.557 263.013H314.338V214.934H278.557C265.289 215.055 254.578 225.767 254.578 239.034Z" fill="#0A355C"/>
<path fill-rule="evenodd" clip-rule="evenodd" d="M287.925 239.605C290.811 238.705 292.905 236.013 292.905 232.832C292.905 228.914 289.729 225.738 285.811 225.738C281.894 225.738 278.718 228.914 278.718 232.832C278.718 235.969 280.754 238.63 283.577 239.566L282.134 251.112C281.998 252.067 282.816 253.022 283.907 253.022H287.59C288.682 253.022 289.5 252.203 289.364 251.112L287.925 239.605Z" fill="#F5516C"/>
<path d="M117.865 261.888C106.069 255.123 102.079 240.032 108.845 228.236C115.61 216.441 130.701 212.451 142.497 219.216C154.292 225.981 158.282 241.073 151.517 252.868C144.752 264.664 129.487 268.654 117.865 261.888Z" fill="#F5516C"/>
<rect x="124.243" y="253.138" width="20.2513" height="2.42712" rx="1.21356" fill="white"/>
<rect x="124.243" y="249.554" width="20.2513" height="2.42712" rx="1.21356" fill="white"/>
<rect x="124.243" y="245.969" width="20.2513" height="2.42712" rx="1.21356" fill="white"/>
<rect x="124.243" y="242.385" width="20.2513" height="2.42712" rx="1.21356" fill="white"/>
<rect x="124.243" y="238.802" width="20.2513" height="2.42712" rx="1.21356" fill="white"/>
<rect x="124.243" y="235.218" width="20.2513" height="2.42712" rx="1.21356" fill="white"/>
<rect x="124.243" y="231.635" width="20.2513" height="2.42712" rx="1.21356" fill="white"/>
<rect x="124.243" y="228.051" width="20.2513" height="2.42712" rx="1.21356" fill="white"/>
<rect x="124.243" y="224.467" width="20.2513" height="2.42712" rx="1.21356" fill="white"/>
<path d="M135.496 249.665C131.921 255.867 123.924 257.973 117.714 254.396C111.509 250.823 109.402 242.829 112.981 236.622C116.556 230.421 124.552 228.315 130.762 231.891C136.916 235.466 139.073 243.461 135.496 249.665Z" fill="#F5516C" stroke="white"/>
<path d="M124.315 234.166V241.732C123.895 241.312 123.534 240.952 123.053 240.471C122.993 239.751 122.873 237.709 122.873 237.709L124.075 234.106C123.354 234.106 122.633 234.226 121.972 234.406L121.371 236.148L119.689 235.307C119.089 235.667 118.488 236.088 117.947 236.628L120.951 238.129L121.071 239.931L119.269 239.811L117.767 236.808C117.286 237.349 116.806 237.889 116.445 238.55L117.286 240.231L115.484 240.832C115.304 241.492 115.184 242.213 115.184 242.993L118.788 241.852L121.672 241.973L122.873 243.174L121.672 244.375L118.788 244.495L115.184 243.354C115.184 244.074 115.304 244.795 115.484 245.515L117.226 246.116L116.385 247.737C116.746 248.338 117.166 248.938 117.707 249.419L119.209 246.416L121.011 246.296L120.891 248.098L117.887 249.599C118.428 250.079 118.968 250.56 119.629 250.92L121.251 250.139L121.852 251.881C122.513 252.061 123.234 252.181 123.955 252.181L122.813 248.638C122.813 248.638 122.933 246.596 122.993 245.876C123.414 245.455 123.774 245.095 124.255 244.615V252.181C129.241 252.181 133.266 248.158 133.266 243.174C133.326 238.189 129.301 234.166 124.315 234.166ZM126.358 249.899C126.358 245.395 126.358 240.952 126.358 236.448C128.52 236.928 131.284 239.33 131.404 242.933C131.524 246.897 128.52 249.419 126.358 249.899Z" fill="white"/>
<circle cx="228.728" cy="193.94" r="24.626" fill="white"/>
<path d="M226.328 169.377C213.826 170.578 204.102 181.137 204.102 193.908C204.102 206.743 213.826 217.238 226.328 218.439V169.377Z" fill="#F5516C"/>
<path d="M230.361 191.505H253.282C252.083 179.556 242.422 170.072 230.361 169.314V191.505Z" fill="#F5516C"/>
<path d="M230.361 195.552V218.565C242.674 217.744 252.525 207.881 253.346 195.552H230.361Z" fill="#F5516C"/>
<path d="M150.458 306.819C138.663 300.054 134.673 284.962 141.438 273.167C148.203 261.371 163.295 257.381 175.09 264.146C186.886 270.912 190.876 286.003 184.111 297.799C177.345 309.594 162.081 313.584 150.458 306.819Z" fill="#F5516C"/>
<mask id="path-38-inside-1_623_2087" fill="white">
<path fill-rule="evenodd" clip-rule="evenodd" d="M176.295 277.491C171.438 275.409 166.928 274.715 162.765 274.715C158.602 274.715 153.918 275.236 149.235 277.491C148.541 276.45 148.367 275.756 148.367 275.756C153.745 273.675 158.602 272.981 162.765 272.981C167.101 272.981 171.958 273.675 177.162 275.756C177.162 275.756 176.989 276.277 176.295 277.491ZM166.755 278.879L162.766 301.429L158.776 278.879C154.96 278.879 153.746 279.226 153.572 280.96C153.572 280.96 150.97 279.919 149.756 278.011C154.786 275.756 159.817 275.583 159.817 275.583L162.766 279.226L165.715 275.583C165.715 275.583 170.745 275.756 175.776 278.011C174.561 279.919 171.959 280.96 171.959 280.96C171.786 279.226 170.572 278.879 166.755 278.879Z"/>
</mask>
<path fill-rule="evenodd" clip-rule="evenodd" d="M176.295 277.491C171.438 275.409 166.928 274.715 162.765 274.715C158.602 274.715 153.918 275.236 149.235 277.491C148.541 276.45 148.367 275.756 148.367 275.756C153.745 273.675 158.602 272.981 162.765 272.981C167.101 272.981 171.958 273.675 177.162 275.756C177.162 275.756 176.989 276.277 176.295 277.491ZM166.755 278.879L162.766 301.429L158.776 278.879C154.96 278.879 153.746 279.226 153.572 280.96C153.572 280.96 150.97 279.919 149.756 278.011C154.786 275.756 159.817 275.583 159.817 275.583L162.766 279.226L165.715 275.583C165.715 275.583 170.745 275.756 175.776 278.011C174.561 279.919 171.959 280.96 171.959 280.96C171.786 279.226 170.572 278.879 166.755 278.879Z" fill="white"/>
<path d="M176.295 277.491L175.901 278.41L176.721 278.761L177.163 277.987L176.295 277.491ZM149.235 277.491L148.402 278.045L148.885 278.769L149.668 278.392L149.235 277.491ZM148.367 275.756L148.006 274.824L147.183 275.142L147.397 275.999L148.367 275.756ZM177.162 275.756L178.111 276.072L178.409 275.178L177.534 274.828L177.162 275.756ZM162.766 301.429L161.781 301.603L163.75 301.603L162.766 301.429ZM166.755 278.879V277.879H165.917L165.771 278.704L166.755 278.879ZM158.776 278.879L159.761 278.704L159.615 277.879H158.776V278.879ZM153.572 280.96L153.201 281.889L154.435 282.382L154.567 281.06L153.572 280.96ZM149.756 278.011L149.347 277.099L148.291 277.572L148.912 278.548L149.756 278.011ZM159.817 275.583L160.594 274.954L160.28 274.566L159.782 274.583L159.817 275.583ZM162.766 279.226L161.989 279.855L162.766 280.815L163.543 279.855L162.766 279.226ZM165.715 275.583L165.749 274.583L165.251 274.566L164.937 274.954L165.715 275.583ZM175.776 278.011L176.619 278.548L177.24 277.572L176.185 277.099L175.776 278.011ZM171.959 280.96L170.964 281.06L171.097 282.382L172.331 281.889L171.959 280.96ZM162.765 275.715C166.81 275.715 171.184 276.388 175.901 278.41L176.689 276.572C171.692 274.43 167.046 273.715 162.765 273.715V275.715ZM149.668 278.392C154.166 276.226 158.684 275.715 162.765 275.715V273.715C158.52 273.715 153.67 274.245 148.801 276.59L149.668 278.392ZM148.367 275.756C147.397 275.999 147.397 275.999 147.397 275.999C147.397 275.999 147.397 276 147.397 276C147.397 276 147.398 276.001 147.398 276.001C147.398 276.002 147.398 276.003 147.398 276.004C147.399 276.005 147.399 276.007 147.4 276.01C147.401 276.014 147.402 276.019 147.404 276.025C147.407 276.036 147.411 276.05 147.416 276.067C147.425 276.1 147.439 276.144 147.456 276.197C147.492 276.304 147.545 276.449 147.622 276.627C147.774 276.984 148.02 277.472 148.402 278.045L150.067 276.936C149.755 276.469 149.567 276.09 149.46 275.839C149.406 275.714 149.372 275.621 149.354 275.565C149.344 275.537 149.339 275.518 149.336 275.509C149.335 275.505 149.335 275.503 149.335 275.504C149.335 275.504 149.335 275.505 149.336 275.507C149.336 275.507 149.336 275.508 149.336 275.51C149.336 275.51 149.337 275.511 149.337 275.511C149.337 275.512 149.337 275.512 149.337 275.513C149.337 275.513 149.337 275.513 149.337 275.513C149.337 275.513 149.337 275.514 148.367 275.756ZM162.765 271.981C158.487 271.981 153.507 272.694 148.006 274.824L148.728 276.689C153.982 274.655 158.716 273.981 162.765 273.981V271.981ZM177.534 274.828C172.197 272.693 167.212 271.981 162.765 271.981V273.981C166.991 273.981 171.72 274.656 176.791 276.685L177.534 274.828ZM177.163 277.987C177.523 277.358 177.753 276.898 177.897 276.587C177.969 276.431 178.019 276.313 178.053 276.228C178.07 276.185 178.083 276.151 178.092 276.126C178.097 276.113 178.101 276.102 178.104 276.093C178.105 276.089 178.107 276.085 178.108 276.081C178.109 276.08 178.109 276.078 178.11 276.076C178.11 276.076 178.11 276.075 178.11 276.074C178.11 276.074 178.111 276.074 178.111 276.073C178.111 276.073 178.111 276.073 178.111 276.073C178.111 276.073 178.111 276.072 177.162 275.756C176.214 275.44 176.214 275.44 176.214 275.439C176.214 275.439 176.214 275.439 176.214 275.439C176.214 275.439 176.214 275.438 176.214 275.438C176.214 275.438 176.215 275.437 176.215 275.437C176.215 275.436 176.215 275.435 176.216 275.434C176.216 275.433 176.216 275.432 176.216 275.431C176.217 275.431 176.216 275.432 176.215 275.436C176.212 275.443 176.206 275.46 176.196 275.485C176.176 275.536 176.139 275.623 176.081 275.749C175.964 276.002 175.761 276.41 175.427 276.995L177.163 277.987ZM163.75 301.603L167.74 279.053L165.771 278.704L161.781 301.255L163.75 301.603ZM157.791 279.053L161.781 301.603L163.75 301.255L159.761 278.704L157.791 279.053ZM154.567 281.06C154.6 280.733 154.672 280.573 154.735 280.485C154.792 280.406 154.898 280.304 155.162 280.204C155.765 279.976 156.837 279.879 158.776 279.879V277.879C156.898 277.879 155.455 277.955 154.454 278.334C153.916 278.537 153.448 278.847 153.109 279.321C152.776 279.786 152.631 280.32 152.577 280.861L154.567 281.06ZM148.912 278.548C149.637 279.686 150.736 280.519 151.591 281.051C152.028 281.322 152.423 281.528 152.711 281.668C152.855 281.737 152.973 281.791 153.057 281.828C153.099 281.846 153.133 281.861 153.157 281.871C153.169 281.876 153.179 281.88 153.186 281.883C153.19 281.884 153.193 281.886 153.195 281.886C153.197 281.887 153.198 281.887 153.198 281.888C153.199 281.888 153.199 281.888 153.2 281.888C153.2 281.888 153.2 281.888 153.2 281.888C153.2 281.889 153.201 281.889 153.572 280.96C153.943 280.032 153.944 280.032 153.944 280.032C153.944 280.032 153.944 280.032 153.944 280.032C153.944 280.032 153.945 280.032 153.945 280.032C153.945 280.032 153.945 280.032 153.945 280.032C153.945 280.032 153.944 280.032 153.943 280.031C153.94 280.03 153.935 280.028 153.928 280.025C153.914 280.019 153.89 280.009 153.859 279.996C153.796 279.968 153.701 279.925 153.583 279.868C153.344 279.752 153.013 279.579 152.647 279.352C151.898 278.886 151.09 278.244 150.6 277.474L148.912 278.548ZM159.817 275.583C159.782 274.583 159.782 274.583 159.782 274.583C159.782 274.583 159.782 274.583 159.781 274.583C159.781 274.583 159.78 274.583 159.78 274.583C159.779 274.583 159.777 274.584 159.775 274.584C159.772 274.584 159.767 274.584 159.761 274.584C159.749 274.585 159.733 274.585 159.711 274.586C159.669 274.588 159.607 274.592 159.529 274.597C159.372 274.606 159.145 274.623 158.859 274.649C158.287 274.703 157.475 274.798 156.503 274.966C154.563 275.3 151.962 275.927 149.347 277.099L150.165 278.924C152.581 277.841 155.009 277.253 156.843 276.937C157.757 276.779 158.517 276.69 159.045 276.641C159.309 276.616 159.515 276.601 159.653 276.593C159.722 276.588 159.773 276.586 159.807 276.584C159.824 276.583 159.836 276.583 159.843 276.582C159.847 276.582 159.85 276.582 159.851 276.582C159.852 276.582 159.852 276.582 159.852 276.582C159.852 276.582 159.852 276.582 159.852 276.582C159.852 276.582 159.852 276.582 159.852 276.582C159.851 276.582 159.851 276.582 159.817 275.583ZM163.543 278.596L160.594 274.954L159.04 276.212L161.989 279.855L163.543 278.596ZM164.937 274.954L161.988 278.596L163.543 279.855L166.492 276.212L164.937 274.954ZM176.185 277.099C173.57 275.927 170.968 275.3 169.029 274.966C168.056 274.798 167.244 274.703 166.672 274.649C166.386 274.623 166.16 274.606 166.003 274.597C165.924 274.592 165.863 274.588 165.82 274.586C165.799 274.585 165.782 274.585 165.77 274.584C165.764 274.584 165.76 274.584 165.756 274.584C165.754 274.584 165.753 274.583 165.752 274.583C165.751 274.583 165.751 274.583 165.75 274.583C165.75 274.583 165.75 274.583 165.75 274.583C165.749 274.583 165.749 274.583 165.715 275.583C165.68 276.582 165.68 276.582 165.68 276.582C165.68 276.582 165.68 276.582 165.68 276.582C165.679 276.582 165.679 276.582 165.679 276.582C165.68 276.582 165.68 276.582 165.681 276.582C165.682 276.582 165.684 276.582 165.688 276.582C165.696 276.583 165.708 276.583 165.725 276.584C165.758 276.586 165.81 276.588 165.879 276.593C166.016 276.601 166.222 276.616 166.486 276.641C167.014 276.69 167.775 276.779 168.689 276.937C170.522 277.253 172.951 277.841 175.367 278.924L176.185 277.099ZM171.959 280.96C172.331 281.889 172.331 281.889 172.331 281.888C172.331 281.888 172.332 281.888 172.332 281.888C172.332 281.888 172.332 281.888 172.333 281.888C172.334 281.887 172.335 281.887 172.336 281.886C172.339 281.886 172.342 281.884 172.345 281.883C172.353 281.88 172.362 281.876 172.374 281.871C172.399 281.861 172.432 281.846 172.475 281.828C172.559 281.791 172.677 281.737 172.821 281.668C173.108 281.528 173.503 281.322 173.94 281.051C174.795 280.519 175.895 279.686 176.619 278.548L174.932 277.474C174.442 278.244 173.634 278.886 172.884 279.352C172.519 279.579 172.187 279.752 171.949 279.868C171.83 279.925 171.735 279.968 171.672 279.996C171.641 280.009 171.618 280.019 171.603 280.025C171.596 280.028 171.591 280.03 171.588 280.031C171.587 280.032 171.586 280.032 171.586 280.032C171.586 280.032 171.586 280.032 171.587 280.032C171.587 280.032 171.587 280.032 171.587 280.032C171.587 280.032 171.588 280.032 171.588 280.032C171.588 280.032 171.588 280.032 171.959 280.96ZM166.755 279.879C168.694 279.879 169.766 279.976 170.37 280.204C170.633 280.304 170.74 280.406 170.797 280.485C170.86 280.573 170.932 280.733 170.964 281.06L172.954 280.861C172.9 280.32 172.756 279.786 172.423 279.321C172.084 278.847 171.616 278.537 171.077 278.334C170.076 277.955 168.633 277.879 166.755 277.879V279.879Z" fill="white" mask="url(#path-38-inside-1_623_2087)"/>
<path d="M228.736 310.109C215.177 310.109 204.11 299.042 204.11 285.483C204.11 271.923 215.177 260.857 228.736 260.857C242.296 260.857 253.362 271.923 253.362 285.483C253.362 298.942 242.296 310.109 228.736 310.109Z" fill="#F5516C"/>
<path d="M234.124 275.812L235.221 271.425L232.529 270.727L231.432 275.114C230.734 274.915 230.036 274.815 229.239 274.616L230.335 270.229L227.643 269.531L226.547 274.018C225.948 273.918 225.35 273.718 224.852 273.619L221.163 272.721L220.465 275.613L222.459 276.111C223.556 276.41 223.755 277.108 223.755 277.707L220.764 289.87C220.565 290.169 220.266 290.668 219.468 290.468L217.474 289.97L216.078 293.06L219.568 293.958L221.462 294.456L220.365 298.943L223.057 299.641L224.154 295.154C224.852 295.353 225.55 295.553 226.347 295.752L225.35 300.139L228.042 300.837L229.139 296.35C233.725 297.248 237.215 296.849 238.71 292.662C239.907 289.272 238.61 287.377 236.218 286.081C238.012 285.683 239.308 284.486 239.707 282.093C240.106 278.704 237.613 276.909 234.124 275.812ZM233.426 290.668C232.628 294.057 226.945 292.163 225.051 291.764L226.547 285.782C228.341 286.281 234.224 287.178 233.426 290.668ZM234.224 281.894C233.426 284.985 228.74 283.389 227.245 282.991L228.64 277.607C230.136 278.006 235.021 278.704 234.224 281.894Z" fill="white"/>
</svg>
