<?xml version="1.0" standalone="no"?>
<!DOCTYPE svg PUBLIC "-//W3C//DTD SVG 20010904//EN"
 "http://www.w3.org/TR/2001/REC-SVG-20010904/DTD/svg10.dtd">
<svg version="1.0" xmlns="http://www.w3.org/2000/svg"
 width="853.000000pt" height="1280.000000pt" viewBox="0 0 853.000000 1280.000000"
 preserveAspectRatio="xMidYMid meet">

<g transform="translate(0.000000,1280.000000) scale(0.100000,-0.100000)"
fill="#000000" stroke="none">
<path d="M3941 11555 c-18 -8 -55 -38 -81 -65 -26 -28 -51 -50 -54 -50 -4 0
-17 -11 -29 -24 -13 -14 -34 -24 -52 -24 -48 -2 -78 -7 -110 -21 -108 -48
-155 -74 -155 -87 0 -8 -5 -13 -11 -11 -6 1 -14 -4 -17 -12 -3 -9 0 -11 9 -6
10 5 11 5 4 -3 -5 -5 -18 -12 -28 -14 -10 -1 -26 -16 -35 -33 -9 -16 -20 -31
-24 -33 -4 -2 -4 -10 -1 -19 4 -10 2 -14 -4 -10 -14 9 -51 -37 -60 -72 -3 -14
-10 -31 -14 -37 -5 -6 -12 -39 -15 -73 -4 -33 -11 -61 -16 -61 -6 0 -7 7 -4
16 4 9 4 26 0 37 -6 18 -7 18 -18 -3 -14 -29 -30 -27 -34 4 -2 16 5 30 22 44
25 19 35 52 17 52 -5 0 -35 -28 -66 -62 l-57 -63 5 35 c3 19 9 50 13 69 4 19
3 31 -2 28 -10 -6 -37 -57 -55 -102 l-12 -30 -7 30 c-8 31 -11 23 -14 -32 0
-17 -4 -35 -8 -39 -5 -4 -8 -22 -8 -39 0 -30 -24 -64 -46 -65 -5 -1 -25 -14
-44 -30 -19 -17 -39 -30 -45 -30 -6 0 -15 -10 -20 -22 -16 -34 -35 -34 -35 1
0 33 21 58 83 98 22 13 37 26 34 29 -6 7 -97 -36 -97 -46 0 -5 -12 -16 -27
-24 -23 -11 -30 -11 -40 -1 -16 17 -14 140 4 196 16 51 85 130 143 164 19 11
34 25 32 30 -4 12 -56 7 -60 -6 -2 -5 -11 -9 -20 -9 -27 0 -83 -55 -70 -68 12
-12 2 -32 -17 -32 -8 0 -24 -19 -36 -42 -12 -24 -31 -56 -43 -73 -36 -51 -48
-78 -62 -145 -7 -36 -19 -76 -25 -90 -31 -68 -44 -90 -51 -90 -5 0 -8 -9 -8
-21 0 -16 -4 -19 -20 -14 -12 4 -20 2 -20 -5 0 -6 -11 2 -25 18 -14 17 -24 34
-23 39 4 12 -25 73 -34 73 -12 0 -10 -28 2 -35 6 -3 10 -14 10 -24 0 -24 27
-83 65 -141 16 -26 30 -63 32 -87 3 -24 3 -43 1 -43 -2 0 -38 7 -81 15 -93 18
-107 18 -107 5 0 -5 9 -10 21 -10 16 0 19 -4 14 -22 -6 -18 -4 -20 11 -13 56
24 127 10 122 -22 -2 -12 4 -19 19 -21 26 -4 38 -18 47 -54 5 -23 3 -28 -11
-28 -21 0 -90 32 -118 55 -17 14 -18 17 -5 25 12 8 9 10 -10 10 -15 0 -31 5
-37 11 -8 8 -17 5 -32 -10 -17 -17 -18 -21 -5 -21 12 0 15 -6 11 -21 -4 -16
-3 -18 9 -8 8 6 14 18 14 27 0 12 4 11 20 -6 11 -12 20 -26 20 -32 0 -5 9 -19
20 -30 24 -24 14 -26 -18 -4 -12 8 -31 13 -41 9 -11 -3 -22 -1 -26 5 -11 18
-25 11 -39 -24 -8 -18 -22 -40 -33 -47 -23 -17 -43 -62 -35 -76 4 -6 21 -11
37 -11 17 -1 53 -1 82 -2 40 -1 57 -7 78 -26 l26 -24 -25 0 c-14 0 -28 5 -32
11 -3 6 -19 8 -38 5 -21 -4 -39 -1 -54 10 -18 13 -29 14 -54 5 -40 -14 -44
-14 -61 3 -12 12 -20 9 -57 -25 -23 -21 -37 -39 -31 -39 7 0 10 -8 6 -19 -8
-27 4 -51 28 -51 20 0 20 0 -2 -19 -13 -11 -29 -17 -36 -15 -7 3 -16 1 -20 -5
-3 -6 -1 -11 6 -11 8 0 8 -4 -1 -15 -7 -8 -24 -15 -39 -15 -27 0 -51 -16 -51
-33 0 -5 11 -6 25 -3 37 9 31 -11 -10 -35 -19 -12 -32 -25 -29 -30 8 -14 40
-10 54 7 8 8 22 20 33 26 19 10 19 9 -1 -17 -23 -29 -21 -45 4 -45 25 0 10
-23 -22 -33 -33 -11 -54 -26 -54 -38 0 -4 13 0 29 9 31 17 53 10 33 -10 -22
-22 -13 -38 19 -38 l32 0 -30 -29 c-17 -15 -35 -30 -42 -32 -7 -3 -12 -23 -13
-46 0 -28 -7 -48 -19 -59 -23 -21 -24 -34 -3 -34 11 0 13 -6 9 -19 -3 -11 -1
-22 5 -26 6 -4 8 -15 5 -25 -3 -10 -3 -30 1 -44 5 -20 11 -25 25 -21 16 5 18
1 15 -31 -1 -20 -9 -42 -17 -48 -8 -6 -14 -29 -15 -51 -1 -22 -5 -51 -9 -64
-6 -17 -5 -22 3 -17 7 4 12 3 12 -2 0 -5 11 -21 25 -36 30 -32 31 -47 6 -63
-11 -7 -20 -27 -23 -48 -4 -31 -2 -36 14 -32 22 6 24 -19 3 -43 -21 -23 -23
-80 -3 -91 13 -7 16 -24 14 -90 -1 -44 1 -82 6 -85 9 -6 -1 -91 -13 -115 -5
-9 -4 -20 3 -27 5 -5 12 -61 14 -123 2 -62 8 -115 13 -118 4 -4 12 -17 16 -31
12 -39 55 -99 76 -105 11 -4 19 -15 19 -25 0 -10 10 -20 24 -24 40 -10 42 -37
4 -70 -26 -22 -28 -27 -11 -22 12 4 24 2 28 -4 3 -5 17 -10 30 -10 13 0 27 -5
31 -11 7 -12 73 -8 106 6 13 5 21 0 29 -19 7 -14 16 -26 21 -26 5 0 6 5 3 10
-3 6 1 13 9 16 8 3 18 14 21 25 4 11 11 17 16 13 6 -4 4 -13 -5 -23 -34 -37
-1 -58 40 -26 14 11 15 14 3 9 -13 -4 -18 3 -21 36 -3 32 2 50 26 86 24 38 27
47 15 55 -9 6 -10 12 -4 17 24 18 37 59 26 81 -7 12 -9 26 -6 31 3 6 -2 10
-12 10 -17 1 -17 1 0 14 9 7 17 26 17 41 0 16 8 37 18 48 16 19 16 19 -5 13
-24 -8 -30 3 -12 21 8 8 8 17 0 30 -11 21 -10 61 3 82 4 7 6 14 5 15 -2 1 -15
10 -28 19 l-24 16 38 15 c28 12 36 20 32 35 -2 10 0 26 6 36 8 16 6 17 -19 12
-16 -4 -23 -4 -16 -1 16 8 15 19 -4 38 -20 21 -12 32 31 40 39 8 48 26 13 26
-20 0 -19 3 12 23 25 16 30 23 18 25 -20 4 -31 32 -23 55 4 8 18 18 33 22 19
5 22 9 13 15 -17 10 -6 29 23 40 16 7 10 9 -29 10 -69 1 -97 20 -30 20 57 0
78 10 70 32 -3 8 1 21 10 28 23 19 18 40 -11 40 -33 0 -23 16 17 24 19 3 29
11 26 18 -2 7 -10 12 -16 10 -18 -4 -13 3 32 50 32 32 43 51 42 72 0 20 6 31
21 38 13 6 20 16 17 24 -3 8 0 21 7 29 6 8 9 19 5 25 -3 6 3 10 15 10 11 0 20
6 18 13 -1 6 16 39 37 72 22 33 39 63 37 67 -1 4 8 10 19 13 14 5 19 13 16 26
-3 11 0 19 8 19 7 0 18 7 25 15 7 8 21 15 32 15 10 0 16 5 13 10 -3 6 3 10 15
10 11 0 50 9 85 21 35 11 69 18 74 15 15 -10 24 14 11 29 -8 10 -9 15 -2 15 6
0 14 -4 17 -10 3 -5 15 -10 26 -10 11 0 17 5 14 10 -4 6 11 11 37 12 95 4 156
-6 206 -31 40 -20 45 -21 56 -6 9 13 17 14 40 6 15 -6 32 -8 38 -5 10 6 78
-26 78 -37 0 -11 79 -9 107 3 15 6 33 10 38 8 6 -2 26 -5 45 -6 19 -2 55 -6
79 -10 30 -5 45 -3 51 6 6 10 15 10 44 0 20 -6 36 -15 36 -19 0 -4 33 -13 73
-20 97 -17 99 -17 120 -26 9 -4 26 -5 37 -2 25 6 89 -10 106 -27 8 -8 40 -12
96 -10 45 1 88 -2 93 -6 6 -5 73 -8 150 -6 105 1 149 6 175 18 27 13 63 16
165 15 85 0 114 -3 85 -7 -25 -4 -34 -8 -21 -8 14 -1 32 -8 40 -16 9 -7 58
-19 110 -26 59 -8 110 -21 138 -35 59 -32 142 -118 182 -187 18 -32 36 -60 42
-63 5 -4 9 -16 9 -29 0 -12 4 -26 9 -31 5 -6 21 -41 36 -80 15 -38 33 -83 40
-100 7 -16 18 -49 25 -73 7 -23 19 -47 27 -53 7 -6 13 -23 13 -38 0 -15 6 -33
12 -39 10 -10 10 -17 0 -32 -7 -12 -9 -36 -6 -64 4 -29 2 -51 -5 -60 -8 -9 -8
-16 -2 -20 12 -8 5 -269 -10 -343 -12 -62 -4 -350 11 -384 5 -13 15 -33 22
-44 6 -11 14 -26 18 -34 10 -23 30 -25 30 -2 0 11 5 23 11 27 7 4 9 22 6 45
-3 22 -1 39 4 39 5 0 12 6 15 13 3 8 27 38 54 68 28 29 50 60 50 69 0 8 7 25
15 37 9 13 20 65 26 130 6 59 17 128 25 153 9 25 17 53 19 62 6 26 25 58 35
58 6 0 10 15 10 34 0 47 9 66 35 76 16 6 22 17 23 45 1 21 6 42 11 49 5 6 9
24 9 40 0 18 8 35 21 45 13 10 24 32 27 56 4 22 13 46 22 52 9 7 13 13 9 13
-4 0 -3 9 4 21 6 12 12 47 13 79 1 32 7 64 12 71 6 8 14 26 18 41 5 21 2 30
-14 38 -25 13 -26 40 -2 40 40 1 68 50 28 50 -8 0 -21 11 -29 23 -15 23 -14
25 14 50 17 14 25 28 19 32 -5 3 -10 17 -10 30 0 16 7 25 25 29 13 3 29 15 35
26 6 11 17 20 25 20 18 0 19 12 3 28 -9 9 -7 13 5 18 21 8 22 47 2 64 -10 9
-12 16 -5 25 7 8 -1 32 -26 79 -38 71 -39 85 -6 67 30 -16 36 -14 49 15 10 22
9 31 -13 65 -13 21 -31 39 -39 39 -8 0 -15 5 -15 11 0 10 20 8 73 -7 43 -13 4
60 -50 91 -46 27 -57 55 -22 55 17 0 20 4 15 23 -5 21 1 26 59 46 36 13 65 27
65 32 0 12 -7 11 -43 -5 -70 -31 -126 -48 -137 -41 -19 12 99 66 141 66 20 0
56 6 80 14 l44 14 -52 0 c-44 1 -57 6 -83 31 -17 17 -38 30 -46 30 -9 0 -25
11 -36 25 -11 14 -28 25 -38 25 -16 0 -18 6 -14 43 3 23 7 48 9 55 2 6 -1 12
-8 12 -7 0 -21 6 -31 13 -17 12 -10 24 88 145 58 73 106 134 106 137 0 13 -22
3 -53 -24 -51 -46 -167 -85 -167 -57 0 21 21 31 31 15 7 -11 11 -10 23 6 14
18 13 22 -5 38 -12 9 -31 17 -43 17 -26 0 -46 18 -40 34 5 13 -78 47 -117 48
-36 0 -199 40 -199 48 0 4 18 12 41 19 57 17 44 22 -35 13 -62 -8 -69 -7 -94
14 -22 19 -28 21 -35 9 -9 -17 -37 -9 -37 11 0 7 7 17 16 22 15 8 15 10 0 15
-10 4 -29 -2 -45 -14 -24 -18 -32 -19 -51 -9 -16 9 -20 17 -16 36 7 27 -5 31
-27 9 -13 -12 -17 -12 -31 4 -21 23 -20 31 2 31 11 0 27 9 37 20 19 21 55 27
55 10 0 -5 -4 -10 -10 -10 -5 0 -10 -5 -10 -11 0 -6 7 -9 15 -5 8 3 15 1 15
-4 0 -6 9 -10 20 -10 13 0 20 7 20 19 0 11 10 27 23 36 22 17 22 17 -10 10
-25 -5 -34 -2 -47 16 -13 20 -16 20 -22 6 -3 -9 -12 -17 -20 -17 -16 0 -45 65
-38 84 3 8 1 17 -5 21 -6 3 -11 18 -11 32 0 21 -4 24 -22 20 -12 -4 -28 -1
-36 6 -13 10 -14 8 -7 -12 5 -17 4 -21 -5 -16 -9 6 -9 3 -1 -14 7 -11 17 -21
23 -21 7 0 6 5 -2 15 -10 12 -10 15 3 15 21 0 31 -18 18 -34 -8 -9 -3 -18 19
-35 17 -12 30 -29 30 -39 0 -15 -2 -15 -10 -2 -9 13 -14 11 -35 -12 -30 -35
-53 -36 -65 -3 -5 14 -13 25 -18 25 -5 0 -15 25 -22 55 -7 30 -17 52 -21 50
-4 -3 -10 3 -12 12 -4 16 -5 16 -6 1 0 -9 4 -20 9 -23 16 -10 12 -22 -10 -28
-12 -3 -20 -14 -20 -26 0 -12 -4 -21 -9 -21 -18 0 -41 12 -41 22 0 5 -16 28
-35 51 -19 22 -35 46 -35 53 0 14 -28 27 -42 18 -5 -3 -8 2 -6 12 2 10 -6 22
-17 28 -12 6 -44 28 -72 49 -54 40 -68 45 -60 23 3 -8 -1 -17 -9 -20 -24 -9
-26 -7 -14 13 19 37 12 68 -22 92 -18 13 -35 26 -38 29 -3 4 -13 9 -23 13 -23
9 -12 27 16 27 18 0 19 2 7 10 -8 5 -30 10 -48 10 -24 0 -32 4 -30 16 2 10
-10 20 -37 30 -49 17 -46 17 -42 2 1 -7 -5 -13 -13 -13 -8 0 -14 5 -13 12 2 7
-6 10 -20 7 -12 -3 -57 -11 -100 -19 -43 -8 -82 -17 -88 -20 -5 -4 -16 -1 -24
5 -11 9 -20 8 -42 -3 -15 -8 -48 -23 -73 -32 -95 -37 -131 -58 -175 -99 -25
-24 -45 -48 -45 -55 0 -7 -4 -10 -9 -6 -5 3 -8 18 -7 33 2 15 -2 31 -8 35 -7
5 -6 7 4 6 34 -3 60 2 60 12 0 8 -16 10 -48 6 -39 -4 -56 -1 -82 15 -27 16
-43 19 -74 13 -23 -4 -60 -9 -84 -11 -23 -2 -51 -8 -62 -14 -31 -17 -34 -11
-6 11 37 29 32 42 -9 22 -43 -20 -57 -11 -24 16 l24 20 -35 1 c-20 0 -42 -6
-49 -12 -11 -10 -13 -10 -7 0 4 7 1 12 -8 12 -9 0 -16 5 -16 11 0 6 -9 9 -19
6 -14 -3 -18 -1 -14 10 3 7 13 13 22 12 30 -3 42 1 36 11 -8 12 -82 13 -87 1
-5 -13 -48 -24 -48 -12 0 6 -13 11 -30 11 -16 0 -30 2 -30 5 0 20 28 56 56 71
18 10 30 22 28 26 -3 5 0 15 6 23 15 18 14 18 -29 0z m-41 -165 c-20 -13 -33
-13 -25 0 3 6 14 10 23 10 15 0 15 -2 2 -10z m-180 -25 c-7 -8 -20 -15 -28
-15 -13 0 -12 3 4 15 25 19 40 19 24 0z m286 -32 c-10 -10 -19 5 -10 18 6 11
8 11 12 0 2 -7 1 -15 -2 -18z m58 -49 c-39 -34 -65 -48 -58 -32 6 15 77 68 83
62 2 -2 -9 -15 -25 -30z m303 30 c-3 -3 -12 -4 -19 -1 -8 3 -5 6 6 6 11 1 17
-2 13 -5z m-227 -23 c0 -5 -7 -12 -16 -15 -14 -5 -15 -4 -4 9 14 17 20 19 20
6z m1140 -40 c0 -5 -7 -11 -15 -15 -9 -3 -15 0 -15 9 0 8 7 15 15 15 8 0 15
-4 15 -9z m-884 -16 c12 -30 -2 -36 -29 -11 l-28 26 26 0 c14 0 28 -7 31 -15z
m-76 -15 c0 -5 -4 -10 -9 -10 -6 0 -13 5 -16 10 -3 6 1 10 9 10 9 0 16 -4 16
-10z m-350 -20 c-23 -20 -30 -24 -30 -16 0 9 32 36 42 36 6 0 1 -9 -12 -20z
m340 -10 c0 -5 -7 -10 -15 -10 -8 0 -15 5 -15 10 0 6 7 10 15 10 8 0 15 -4 15
-10z m1050 -25 c0 -9 -6 -12 -15 -9 -8 4 -15 10 -15 15 0 5 7 9 15 9 8 0 15
-7 15 -15z m40 -45 c0 -5 -4 -10 -10 -10 -5 0 -10 5 -10 10 0 6 5 10 10 10 6
0 10 -4 10 -10z m47 -6 c-3 -3 -12 -4 -19 -1 -8 3 -5 6 6 6 11 1 17 -2 13 -5z
m-374 -11 c-7 -2 -19 -2 -25 0 -7 3 -2 5 12 5 14 0 19 -2 13 -5z m484 -122
c20 -26 11 -81 -14 -81 -10 0 -13 6 -9 16 7 19 -10 44 -31 44 -8 0 -27 9 -41
21 l-27 21 27 -7 c15 -4 29 -2 33 5 8 14 46 3 62 -19z m-2220 -3 c-3 -8 -6 -5
-6 6 -1 11 2 17 5 13 3 -3 4 -12 1 -19z m1723 -8 c0 -5 -10 -10 -22 -10 -19 0
-20 2 -8 10 19 13 30 13 30 0z m-450 -34 c0 -7 -72 -47 -77 -43 -2 3 11 14 29
26 32 20 48 26 48 17z m385 -6 c-3 -5 -14 -10 -24 -10 -9 0 -21 -4 -26 -9 -17
-16 -105 -60 -105 -52 0 4 12 14 28 21 15 8 34 19 42 26 14 11 66 32 83 33 5
1 5 -3 2 -9z m-188 -16 c-3 -3 -12 -4 -19 -1 -8 3 -5 6 6 6 11 1 17 -2 13 -5z
m-1598 -23 c7 -5 10 -14 7 -20 -4 -6 -12 -9 -17 -6 -5 4 -9 -1 -9 -9 0 -9 -4
-16 -10 -16 -11 0 -13 20 -4 44 7 18 13 19 33 7z m2586 -71 c3 -6 -4 -9 -19
-8 -13 1 -22 6 -20 10 7 11 32 10 39 -2z m-3037 -17 c-4 -22 -22 -20 -26 1 -2
10 3 16 13 16 10 0 15 -7 13 -17z m3037 -13 c-3 -5 -11 -10 -16 -10 -6 0 -7 5
-4 10 3 6 11 10 16 10 6 0 7 -4 4 -10z m-3075 -26 c0 -8 -5 -12 -10 -9 -6 4
-8 11 -5 16 9 14 15 11 15 -7z m0 -54 c0 -5 -5 -10 -11 -10 -5 0 -7 5 -4 10 3
6 8 10 11 10 2 0 4 -4 4 -10z m-40 -58 c0 -15 -2 -15 -10 -2 -13 20 -13 33 0
25 6 -3 10 -14 10 -23z m50 -3 c0 -5 -4 -9 -10 -9 -5 0 -10 7 -10 16 0 8 5 12
10 9 6 -3 10 -10 10 -16z m3340 -9 c-8 -5 -19 -10 -25 -10 -5 0 -3 5 5 10 8 5
20 10 25 10 6 0 3 -5 -5 -10z m-27 -27 c-7 -2 -21 -2 -30 0 -10 3 -4 5 12 5
17 0 24 -2 18 -5z m152 -20 c-11 -2 -32 -8 -47 -13 -16 -5 -28 -5 -28 0 0 9
31 17 70 17 19 1 20 0 5 -4z m-135 -13 c-20 -13 -33 -13 -25 0 3 6 14 10 23
10 15 0 15 -2 2 -10z m-3348 -44 c3 -28 1 -33 -9 -24 -14 12 -18 72 -4 64 5
-3 11 -21 13 -40z m3395 38 c-3 -3 -12 -4 -19 -1 -8 3 -5 6 6 6 11 1 17 -2 13
-5z m-3439 -64 l2 -35 -15 25 c-9 16 -15 19 -15 10 0 -12 -4 -11 -15 4 -18 24
-10 38 18 34 17 -2 23 -11 25 -38z m-78 5 c0 -8 -2 -15 -4 -15 -2 0 -6 7 -10
15 -3 8 -1 15 4 15 6 0 10 -7 10 -15z m2643 -42 c-7 -2 -21 -2 -30 0 -10 3 -4
5 12 5 17 0 24 -2 18 -5z m114 1 c-3 -3 -12 -4 -19 -1 -8 3 -5 6 6 6 11 1 17
-2 13 -5z m-470 -30 c-3 -3 -12 -4 -19 -1 -8 3 -5 6 6 6 11 1 17 -2 13 -5z
m90 -6 c-25 -7 -42 -7 -48 -1 -6 6 8 10 38 10 l48 1 -38 -10z m260 6 c-3 -3
-12 -4 -19 -1 -8 3 -5 6 6 6 11 1 17 -2 13 -5z m1303 -24 c0 -5 -7 -10 -16
-10 -8 0 -12 5 -9 10 3 6 10 10 16 10 5 0 9 -4 9 -10z m23 -317 c-7 -2 -21 -2
-30 0 -10 3 -4 5 12 5 17 0 24 -2 18 -5z m55 -30 c-10 -2 -28 -2 -40 0 -13 2
-5 4 17 4 22 1 32 -1 23 -4z m-4085 -40 c-7 -2 -19 -2 -25 0 -7 3 -2 5 12 5
14 0 19 -2 13 -5z m3044 -15 c-28 -7 -42 -7 -50 1 -8 8 2 11 39 10 l49 -1 -38
-10z m-150 -4 c-3 -3 -12 -4 -19 -1 -8 3 -5 6 6 6 11 1 17 -2 13 -5z m-3182
-54 c3 -5 -1 -10 -9 -10 -9 0 -16 5 -16 10 0 6 4 10 9 10 6 0 13 -4 16 -10z
m3612 -34 c9 -8 -150 5 -159 13 -4 4 29 4 73 0 44 -4 83 -10 86 -13z m-3592
-46 c3 -5 -1 -10 -9 -10 -8 0 -18 5 -21 10 -3 6 1 10 9 10 8 0 18 -4 21 -10z
m1000 -260 c3 -6 -1 -7 -9 -4 -18 7 -21 14 -7 14 6 0 13 -4 16 -10z m-448
-216 c-3 -3 -12 -4 -19 -1 -8 3 -5 6 6 6 11 1 17 -2 13 -5z m3663 -179 c25
-15 25 -15 -14 -13 -22 2 -41 9 -44 16 -5 16 27 15 58 -3z m-3833 -361 c-3 -3
-12 -4 -19 -1 -8 3 -5 6 6 6 11 1 17 -2 13 -5z m42 -128 c-3 -3 -25 -9 -49
-15 -40 -9 -43 -8 -26 5 17 12 87 21 75 10z"/>
<path d="M5428 11343 c7 -3 16 -2 19 1 4 3 -2 6 -13 5 -11 0 -14 -3 -6 -6z"/>
<path d="M3330 11325 c-11 -13 -10 -14 4 -9 9 3 16 10 16 15 0 13 -6 11 -20
-6z"/>
<path d="M5560 11263 c0 -7 4 -15 10 -18 12 -8 60 -103 60 -120 0 -17 17 -28
29 -21 11 7 -13 56 -54 111 -41 57 -45 61 -45 48z"/>
<path d="M3222 11229 c-7 -12 -11 -24 -8 -27 6 -6 35 27 36 41 0 14 -15 7 -28
-14z"/>
<path d="M3167 11158 c-8 -30 -1 -35 12 -9 6 11 7 22 2 25 -5 3 -11 -4 -14
-16z"/>
<path d="M5755 11118 c11 -6 28 -18 38 -26 9 -9 17 -10 17 -4 0 18 -30 42 -53
42 -22 -1 -22 -1 -2 -12z"/>
<path d="M5940 10810 c0 -5 4 -10 9 -10 6 0 13 5 16 10 3 6 -1 10 -9 10 -9 0
-16 -4 -16 -10z"/>
<path d="M2505 10590 c3 -5 8 -10 11 -10 2 0 4 5 4 10 0 6 -5 10 -11 10 -5 0
-7 -4 -4 -10z"/>
<path d="M2268 10393 c7 -3 16 -2 19 1 4 3 -2 6 -13 5 -11 0 -14 -3 -6 -6z"/>
<path d="M2317 10389 c7 -7 15 -10 18 -7 3 3 -2 9 -12 12 -14 6 -15 5 -6 -5z"/>
<path d="M3670 8041 c11 -8 -1 -11 -45 -10 -33 1 -71 -4 -85 -9 -14 -6 -20
-11 -13 -11 7 -1 10 -7 7 -14 -5 -14 -42 -17 -61 -4 -6 4 -15 2 -18 -4 -5 -7
-21 -8 -42 -4 -22 4 -33 3 -29 -4 4 -5 2 -12 -4 -16 -6 -4 -8 -11 -4 -16 4 -7
-6 -9 -26 -7 -41 4 -52 -18 -13 -24 15 -3 36 -9 46 -13 10 -4 17 -3 17 4 0 6
-8 12 -17 12 -10 1 0 5 22 9 22 4 45 4 50 0 6 -4 29 -8 52 -8 93 -1 208 -24
247 -49 23 -15 47 -23 60 -20 11 3 41 -3 65 -12 l44 -18 -59 -11 c-33 -6 -115
-13 -184 -16 -118 -5 -187 -18 -201 -38 -3 -5 -19 -10 -35 -12 -16 -2 -32 -4
-37 -5 -4 0 -6 -7 -5 -13 2 -8 -7 -13 -19 -12 -14 0 -23 -5 -23 -15 0 -8 -17
-32 -37 -53 -44 -46 -28 -49 42 -9 142 82 256 119 395 128 81 5 86 4 113 -21
15 -14 32 -26 38 -26 5 0 9 -4 9 -10 0 -6 -30 -10 -69 -10 -75 0 -187 -22
-233 -46 -35 -18 -144 -54 -167 -55 -9 0 -38 -11 -66 -24 l-50 -23 39 5 c30 5
41 2 48 -11 5 -10 19 -16 31 -15 12 1 29 -1 39 -5 9 -4 38 0 64 9 36 12 100
17 266 20 128 3 218 1 218 -4 0 -5 34 -9 76 -7 41 1 77 -2 80 -6 6 -10 34 2
34 15 0 6 -8 19 -17 29 -16 18 -15 18 22 2 37 -15 40 -15 53 3 7 10 11 28 9
41 -5 24 24 65 53 74 10 3 2 13 -27 34 -46 31 -62 59 -44 77 17 17 13 25 -11
29 -18 2 -23 10 -23 33 0 23 -4 30 -18 28 -11 0 -16 4 -13 12 6 16 -18 27 -38
19 -9 -3 -35 13 -64 40 -27 25 -58 46 -70 46 -11 0 -24 5 -28 11 -5 8 -9 7
-14 -1 -5 -9 -14 -10 -26 -4 -11 5 -50 10 -89 11 -38 1 -106 4 -150 8 -57 4
-76 3 -65 -4z m-145 -81 c3 -5 -1 -10 -9 -10 -9 0 -16 5 -16 10 0 6 4 10 9 10
6 0 13 -4 16 -10z m480 -361 c-8 -12 -35 -12 -35 0 0 11 22 20 33 14 4 -2 5
-9 2 -14z"/>
<path d="M2010 7989 c-7 -11 -10 -22 -8 -23 2 -1 29 0 61 2 l58 4 -22 19 c-30
26 -75 25 -89 -2z"/>
<path d="M5201 7955 c-48 -9 -91 -25 -124 -45 -28 -18 -53 -27 -55 -22 -2 6
-15 4 -33 -5 -16 -8 -27 -19 -24 -23 3 -5 0 -19 -7 -31 -10 -17 -10 -23 0 -26
17 -6 15 -23 -3 -23 -9 0 -15 -9 -15 -25 0 -13 -8 -29 -17 -34 -17 -10 -17
-10 0 -11 28 0 20 -26 -17 -54 -19 -14 -40 -42 -46 -62 -15 -44 -1 -63 25 -34
25 28 36 25 33 -7 -2 -23 1 -29 22 -31 14 -2 30 -8 35 -12 6 -5 28 -5 50 0 21
5 42 7 47 4 4 -3 16 4 26 14 18 18 33 19 228 15 115 -2 220 -9 234 -14 16 -6
48 -5 94 4 l68 13 -41 27 c-22 15 -47 27 -54 27 -8 0 -65 19 -128 41 -105 38
-148 51 -221 66 -39 7 -35 23 5 23 18 0 38 5 44 11 12 12 129 -2 204 -24 50
-15 159 -83 159 -98 0 -12 70 -43 78 -34 3 3 -7 18 -21 33 -15 16 -27 32 -27
38 0 12 -66 57 -105 72 -35 13 -140 37 -207 46 -80 12 -59 30 55 50 140 23
152 25 237 30 41 3 76 8 77 13 6 20 -16 32 -62 35 -57 3 -97 28 -48 29 24 0
25 1 8 8 -11 5 -60 7 -108 6 -49 -1 -83 1 -77 5 24 15 -9 20 -92 16 -46 -3
-94 -8 -107 -12 -17 -5 -22 -4 -17 4 4 7 6 12 4 11 -2 0 -36 -7 -77 -14z
m-191 -95 c0 -5 -4 -10 -10 -10 -5 0 -10 5 -10 10 0 6 5 10 10 10 6 0 10 -4
10 -10z m209 -233 c-2 -1 -12 -9 -21 -16 -15 -12 -18 -11 -18 3 0 10 8 16 22
16 12 0 19 -1 17 -3z"/>
<path d="M4275 7860 c3 -5 8 -10 11 -10 2 0 4 5 4 10 0 6 -5 10 -11 10 -5 0
-7 -4 -4 -10z"/>
<path d="M2492 7776 c-17 -37 -15 -45 4 -18 8 12 14 27 12 33 -2 6 -9 -1 -16
-15z"/>
<path d="M2373 7588 c-28 -13 -29 -24 -4 -38 23 -12 18 -45 -10 -73 -21 -19
-24 -33 -10 -41 5 -3 11 4 15 17 3 12 15 27 28 32 24 11 34 49 24 91 -7 27
-11 28 -43 12z"/>
<path d="M4087 7436 c-7 -8 -24 -16 -37 -18 -13 -1 -25 -8 -27 -14 -4 -13 69
-27 77 -15 3 5 14 10 25 12 12 3 21 14 23 27 3 18 -1 22 -22 22 -13 0 -31 -6
-39 -14z"/>
<path d="M4006 7373 c-14 -15 -184 -53 -236 -53 -30 0 -62 -5 -70 -10 -11 -8
9 -10 65 -7 98 5 228 26 235 38 5 7 15 10 60 18 9 2 -24 21 -36 21 -6 0 -14
-3 -18 -7z"/>
<path d="M4148 7373 c7 -3 16 -2 19 1 4 3 -2 6 -13 5 -11 0 -14 -3 -6 -6z"/>
<path d="M5220 6887 c0 -18 42 -77 108 -152 43 -50 82 -103 86 -119 7 -28 107
-136 126 -136 23 0 7 32 -37 74 -26 24 -44 48 -40 53 5 4 22 -7 38 -25 16 -17
32 -32 36 -32 5 -1 22 -19 38 -40 17 -21 35 -39 41 -40 19 0 61 -73 75 -128
15 -60 27 -49 28 26 1 62 -19 100 -85 161 -32 29 -89 81 -125 115 -36 33 -80
72 -99 86 -18 14 -66 55 -106 93 -66 60 -84 74 -84 64z"/>
<path d="M3885 6804 c-35 -26 -99 -78 -140 -115 -22 -19 -58 -49 -80 -65 -21
-16 -64 -52 -95 -81 -50 -47 -57 -58 -69 -114 -6 -33 -10 -64 -7 -67 4 -3 16
4 29 16 13 12 27 22 33 22 5 0 10 12 11 26 1 25 44 74 65 74 4 0 8 7 8 15 0 9
7 18 15 21 8 4 15 11 15 16 0 17 157 168 174 168 9 0 16 7 16 16 0 9 14 30 30
46 41 39 38 54 -5 22z"/>
<path d="M4190 6557 c0 -7 18 -20 40 -30 22 -9 49 -26 60 -37 12 -12 25 -18
29 -15 5 2 14 -2 21 -10 7 -8 18 -15 25 -15 7 0 15 -7 19 -15 3 -10 19 -15 45
-15 22 0 42 -4 46 -9 7 -13 192 -6 208 7 12 10 51 19 90 21 9 1 17 6 17 11 0
13 -117 13 -125 0 -10 -16 -40 -3 -130 52 -72 43 -90 49 -165 58 -119 14 -180
13 -180 -3z"/>
<path d="M3600 6446 c0 -9 7 -16 16 -16 17 0 14 22 -4 28 -7 2 -12 -3 -12 -12z"/>
<path d="M4460 6390 c0 -5 5 -10 10 -10 6 0 10 5 10 10 0 6 -4 10 -10 10 -5 0
-10 -4 -10 -10z"/>
<path d="M3596 6364 c-9 -22 3 -32 14 -14 12 19 12 30 1 30 -5 0 -12 -7 -15
-16z"/>
<path d="M5491 6335 c-10 -14 -29 -25 -43 -25 -32 0 -66 -25 -70 -51 -4 -31
-63 -59 -123 -60 -27 0 -68 -6 -90 -13 -39 -11 -39 -13 -37 -53 2 -24 -3 -54
-13 -74 -19 -36 -73 -89 -91 -89 -7 0 -14 -7 -18 -15 -6 -18 -47 -20 -64 -3
-8 8 -15 8 -26 -1 -8 -7 -34 -12 -58 -12 -59 0 -170 -6 -245 -14 -92 -10 -194
3 -200 25 -4 16 -8 16 -45 3 -33 -11 -45 -11 -69 -1 -16 7 -32 21 -35 30 -7
24 -18 23 -50 -7 -34 -32 -51 -31 -85 1 -26 25 -30 26 -60 14 -28 -12 -33 -12
-45 4 -9 13 -20 17 -38 12 -20 -5 -27 -1 -40 26 -17 32 -21 75 -10 102 7 18
54 22 54 5 0 -7 11 -9 27 -6 15 3 38 0 52 -5 15 -6 50 -12 79 -14 29 -2 66
-10 82 -18 17 -8 32 -10 36 -5 9 15 101 11 118 -6 10 -10 21 -12 37 -6 15 5
44 3 79 -7 63 -16 132 -20 172 -9 21 6 27 12 24 29 -3 21 -9 23 -85 26 -45 2
-88 -1 -94 -6 -16 -11 -97 -14 -97 -2 0 5 8 11 18 13 10 3 6 5 -10 6 -16 1
-28 -4 -28 -11 0 -9 -3 -9 -9 1 -8 12 -12 13 -25 1 -9 -7 -19 -10 -23 -6 -3 3
0 6 7 6 11 0 11 3 2 12 -10 10 -15 10 -22 -2 -5 -8 -10 -10 -10 -5 0 6 -5 3
-10 -5 -8 -13 -11 -12 -23 4 -11 15 -17 17 -35 7 -25 -13 -62 -15 -62 -2 0 5
6 12 13 14 9 4 9 6 0 6 -6 1 -15 -3 -18 -9 -7 -12 -55 -14 -55 -2 0 4 -42 13
-92 20 -51 7 -113 16 -138 22 -25 5 -68 14 -97 19 -28 5 -62 15 -75 22 -34 18
-80 19 -105 3 -19 -12 -23 -23 -22 -67 1 -67 11 -102 29 -102 8 0 19 -6 23
-12 4 -7 17 -13 28 -13 12 0 32 -9 46 -20 14 -11 32 -20 39 -20 7 0 18 -9 24
-20 6 -11 17 -20 25 -20 7 0 27 -11 43 -25 17 -14 32 -25 35 -25 3 0 29 -16
58 -35 30 -19 65 -35 79 -35 20 0 22 2 10 10 -11 7 -2 9 30 5 76 -10 90 -15
90 -30 0 -15 9 -19 83 -35 48 -10 101 -16 212 -24 58 -4 57 -4 -20 11 -44 8
-87 17 -95 21 -8 4 64 9 160 12 233 8 292 0 223 -27 -26 -10 -26 -11 -5 -12
27 -1 212 68 212 80 0 5 14 16 31 24 37 19 64 13 54 -13 -4 -9 -9 -22 -12 -28
-2 -6 8 -14 24 -17 39 -8 78 21 137 102 27 37 71 87 99 112 27 24 65 59 85 77
19 17 41 32 49 32 7 0 13 5 13 10 0 6 7 10 15 10 8 0 15 6 15 13 0 6 14 18 30
26 17 7 44 24 61 38 36 31 38 82 2 113 -22 19 -22 19 -42 -5z m-1578 -240 c2
-14 0 -25 -4 -25 -14 0 -41 48 -34 60 10 16 32 -5 38 -35z m365 -292 c2 -8 -6
-13 -22 -13 -26 0 -40 12 -29 24 11 11 46 2 51 -11z"/>
<path d="M4060 5820 c0 -5 9 -10 21 -10 11 0 17 5 14 10 -3 6 -13 10 -21 10
-8 0 -14 -4 -14 -10z"/>
<path d="M2674 5392 c-12 -26 -34 -85 -50 -132 -15 -47 -45 -123 -66 -169 -38
-82 -147 -348 -182 -444 -18 -48 -54 -84 -141 -138 -134 -85 -202 -137 -314
-244 -132 -126 -297 -258 -516 -413 -71 -51 -178 -127 -237 -170 -183 -132
-367 -255 -533 -356 -88 -54 -198 -122 -245 -151 -47 -29 -107 -65 -135 -80
-27 -14 -96 -57 -152 -93 l-102 -67 -1 -1467 0 -1468 4175 0 4175 0 -1 23 c0
12 -5 45 -10 72 -5 28 -12 255 -14 505 -5 473 -10 558 -50 800 -13 80 -38 231
-54 335 -17 105 -45 246 -61 315 -16 69 -37 166 -46 215 -17 102 -42 179 -124
385 -155 389 -225 515 -367 656 -57 56 -103 109 -103 117 0 9 -15 26 -32 38
-29 20 -287 211 -313 232 -43 34 -224 159 -285 196 -42 26 -206 102 -365 170
-160 68 -312 136 -340 151 -27 15 -87 41 -131 59 l-81 32 -111 167 c-107 163
-315 450 -337 464 -5 4 -13 8 -16 8 -9 0 -17 -90 -29 -330 -17 -353 -29 -519
-46 -628 -16 -111 -64 -286 -94 -342 -55 -106 -85 -187 -84 -232 0 -30 -4 -49
-13 -52 -18 -7 -17 -26 2 -26 15 0 41 -38 37 -54 -2 -4 2 -13 7 -20 16 -19 25
-112 12 -120 -6 -4 -9 -11 -6 -17 10 -15 -22 -177 -46 -234 -4 -11 -13 -46
-18 -78 -6 -31 -15 -66 -21 -77 -6 -12 -10 -28 -8 -38 1 -9 -3 -37 -9 -62 -6
-25 -19 -82 -29 -127 -9 -46 -21 -83 -26 -83 -5 0 -7 -9 -3 -20 3 -11 0 -32
-9 -47 -8 -16 -17 -36 -20 -46 -3 -10 -11 -15 -16 -12 -11 7 -61 110 -75 154
-4 13 -30 74 -57 135 -77 173 -125 297 -147 380 -10 43 -31 92 -46 111 -14 20
-37 59 -50 89 -58 131 -163 253 -307 355 -96 68 -151 127 -144 154 3 12 -2 17
-16 17 -17 0 -74 45 -247 198 -14 13 -127 123 -251 245 -231 228 -283 275
-455 416 -198 163 -257 215 -318 283 -182 204 -257 361 -257 536 0 86 -15 94
-46 24z"/>
<path d="M3937 4700 c6 -21 20 -35 38 -35 6 0 10 -8 10 -17 0 -9 4 -20 8 -24
13 -13 7 -33 -13 -44 -17 -9 -22 -7 -31 17 -25 61 -33 73 -51 73 -24 0 -23
-17 2 -25 25 -8 26 -20 3 -35 -16 -10 -15 -11 5 -7 18 4 22 1 22 -19 0 -14 6
-24 14 -24 9 0 12 -7 9 -20 -3 -12 0 -20 7 -20 6 0 35 -25 62 -55 28 -30 54
-52 59 -50 4 3 10 1 14 -5 3 -5 14 -10 25 -10 10 0 21 -7 24 -16 3 -8 10 -13
16 -9 14 9 48 -12 55 -34 4 -13 19 -20 53 -25 48 -6 116 -27 128 -39 3 -3 27
-3 53 0 25 3 64 0 85 -6 31 -8 45 -7 65 4 14 7 39 16 54 20 15 3 25 10 22 15
-3 5 7 12 22 16 31 8 116 54 121 66 2 4 12 8 22 8 10 0 25 6 32 13 7 8 19 16
26 18 9 3 8 10 -4 27 -12 17 -22 22 -39 18 -18 -5 -24 -1 -27 19 -4 17 0 26
11 30 9 3 29 16 45 30 17 14 40 28 53 31 55 14 15 23 -79 19 -57 -3 -154 -7
-216 -10 -62 -3 -123 -9 -135 -14 -20 -7 -133 13 -162 30 -14 7 -106 4 -127
-5 -19 -9 -131 29 -167 56 -13 10 -30 18 -37 18 -8 0 -14 3 -14 8 0 7 -47 32
-61 32 -4 0 -5 -9 -2 -20z m93 -66 c0 -2 -7 -4 -15 -4 -8 0 -15 4 -15 10 0 5
7 7 15 4 8 -4 15 -8 15 -10z m30 -24 c0 -5 -4 -10 -10 -10 -5 0 -10 5 -10 10
0 6 5 10 10 10 6 0 10 -4 10 -10z"/>
<path d="M3905 4570 c3 -5 8 -10 11 -10 2 0 4 5 4 10 0 6 -5 10 -11 10 -5 0
-7 -4 -4 -10z"/>
</g>
</svg>
